<svg xmlns="http://www.w3.org/2000/svg" width="105" height="78.956" viewBox="0 0 105 78.956">
  <g id="Grupo_879901" data-name="Grupo 879901" transform="translate(0 -63.5)">
    <path id="Trazado_631905" data-name="Trazado 631905" d="M37.939,0A37.939,37.939,0,1,1,0,37.939,37.939,37.939,0,0,1,37.939,0Z" transform="translate(14.561 65.038)" fill="#2b95f9"/>
    <path id="Trazado_631898" data-name="Trazado 631898" d="M244.076,71q-1.554,0-3.076.124a37.94,37.94,0,0,1,0,75.63q1.522.122,3.076.124a37.939,37.939,0,0,0,0-75.879Z" transform="translate(-191.576 -5.961)" fill="#006ecb"/>
    <rect id="Rectángulo_329181" data-name="Rectángulo 329181" width="101.924" height="22.251" transform="translate(1.538 91.341)" fill="#ffb338"/>
    <rect id="Rectángulo_329182" data-name="Rectángulo 329182" width="6.152" height="22.251" transform="translate(97.31 91.341)" fill="#eb6f2d"/>
    <rect id="Rectángulo_329183" data-name="Rectángulo 329183" width="21.759" height="22.251" transform="translate(1.538 91.341)" fill="#fd4c1b"/>
    <path id="Trazado_631899" data-name="Trazado 631899" d="M36.333,219.116l1.539,3.118a.557.557,0,0,0,.419.3l3.441.5a.557.557,0,0,1,.309.95l-2.49,2.427a.557.557,0,0,0-.16.493l.588,3.427a.557.557,0,0,1-.808.587l-3.078-1.618a.557.557,0,0,0-.518,0L32.5,230.923a.557.557,0,0,1-.808-.587l.588-3.427a.557.557,0,0,0-.16-.493l-2.49-2.427a.557.557,0,0,1,.309-.95l3.441-.5a.557.557,0,0,0,.419-.3l1.539-3.118A.557.557,0,0,1,36.333,219.116Z" transform="translate(-23.416 -123.456)" fill="#ffd681"/>
    <path id="Trazado_631900" data-name="Trazado 631900" d="M103.462,89.8H89.723A39.485,39.485,0,0,0,52.85,63.5c-.1,0-.206,0-.309,0H52.46l-.293,0H52.15A39.485,39.485,0,0,0,15.278,89.8H1.538A1.538,1.538,0,0,0,0,91.341v22.251a1.538,1.538,0,0,0,1.538,1.538h13.4a39.66,39.66,0,0,0,7.01,12.824c.03.04.061.078.094.114a39.531,39.531,0,0,0,6.56,6.33,39.5,39.5,0,0,0,44.489,2.27,1.538,1.538,0,0,0-1.607-2.623,36.127,36.127,0,0,1-5.32,2.678,34.528,34.528,0,0,0,7.712-10.794,50.374,50.374,0,0,1,5.406,1.7,36.794,36.794,0,0,1-2.9,2.823,1.538,1.538,0,0,0,2.019,2.322A39.4,39.4,0,0,0,90.067,115.13h13.395A1.538,1.538,0,0,0,105,113.592V91.341A1.538,1.538,0,0,0,103.462,89.8Zm-72.539,0a46.629,46.629,0,0,1,1.993-6.192A87.134,87.134,0,0,0,43.508,85.2c.231.02.463.038.7.056-.155,1.473-.29,2.995-.4,4.548Zm29.514-7.61c-.291-2.236-.629-4.327-1.008-6.229a1.538,1.538,0,1,0-3.017.6c.355,1.777.672,3.731.948,5.821-3.225.152-6.5.152-9.719,0A63.26,63.26,0,0,1,50.1,70.719c1.255-3.654,2.254-4.1,2.384-4.14h.028c.128.041,1.114.478,2.357,4.062a1.538,1.538,0,0,0,2.906-1.008,21.652,21.652,0,0,0-.989-2.418C62.3,68.865,67.3,73.652,70.8,80.737a84.836,84.836,0,0,1-9.574,1.4C60.964,82.157,60.7,82.173,60.437,82.193ZM48.213,67.215a21.862,21.862,0,0,0-1.02,2.505,66.869,66.869,0,0,0-2.629,12.473c-.261-.021-.524-.037-.784-.059a84.913,84.913,0,0,1-9.58-1.4C37.7,73.653,42.7,68.865,48.213,67.215Zm-.937,18.238c1.733.086,3.479.131,5.224.131s3.49-.045,5.224-.131c.15,1.409.281,2.863.393,4.35H46.884C47,88.316,47.127,86.862,47.276,85.453ZM61.2,89.8c-.114-1.554-.25-3.075-.4-4.548.234-.019.468-.037.7-.057a87.092,87.092,0,0,0,10.588-1.587A46.619,46.619,0,0,1,74.077,89.8Zm16.044,0a50.226,50.226,0,0,0-2.142-6.92A50.184,50.184,0,0,0,81.376,80.8,36.114,36.114,0,0,1,86.444,89.8ZM74.253,73.789a36.88,36.88,0,0,1,5.033,4.53,50.275,50.275,0,0,1-5.413,1.707A34.492,34.492,0,0,0,66.117,69.2,36.335,36.335,0,0,1,74.253,73.789Zm-43.506,0A36.311,36.311,0,0,1,38.882,69.2a34.491,34.491,0,0,0-7.754,10.823,50.278,50.278,0,0,1-5.413-1.707A36.866,36.866,0,0,1,30.747,73.789ZM23.624,80.8A50.176,50.176,0,0,0,29.9,82.882,50.237,50.237,0,0,0,27.755,89.8h-9.2A36.128,36.128,0,0,1,23.624,80.8ZM3.076,92.879H21.759v19.175H3.076ZM27.529,115.13h0a50.674,50.674,0,0,0,2.368,7.942,50.221,50.221,0,0,0-6.252,2.078,36.588,36.588,0,0,1-5.465-10.02Zm44.557,7.214a87.11,87.11,0,0,0-10.594-1.588c-.231-.02-.464-.038-.7-.056.189-1.8.349-3.66.477-5.57H74.319A47.108,47.108,0,0,1,72.086,122.344ZM57.723,120.5c-3.463-.171-6.98-.171-10.446,0-.184-1.733-.34-3.53-.466-5.372H58.19C58.063,116.973,57.907,118.77,57.723,120.5ZM52.5,139.379c-.01,0-1.059-.243-2.4-4.144a63.28,63.28,0,0,1-2.462-11.668c3.225-.152,6.5-.152,9.719,0A63.279,63.279,0,0,1,54.9,135.235C53.559,139.135,52.51,139.379,52.5,139.379Zm-7.936-15.618a66.867,66.867,0,0,0,2.629,12.473,21.84,21.84,0,0,0,1.022,2.509C42.7,137.1,37.7,132.317,34.2,125.218a84.833,84.833,0,0,1,9.574-1.4C44.036,123.8,44.3,123.782,44.564,123.761Zm-14.1,8.19a36.341,36.341,0,0,1-4.732-4.321,50.333,50.333,0,0,1,5.4-1.7,34.5,34.5,0,0,0,7.744,10.822A36.346,36.346,0,0,1,30.462,131.951Zm26.324,6.792a21.858,21.858,0,0,0,1.022-2.509,66.862,66.862,0,0,0,2.629-12.473c.261.021.524.037.784.059a84.915,84.915,0,0,1,9.58,1.4C67.3,132.317,62.3,137.1,56.786,138.743Zm24.578-13.589a50.221,50.221,0,0,0-6.262-2.082,50.674,50.674,0,0,0,2.368-7.942h9.345A36.206,36.206,0,0,1,81.364,125.154Zm20.56-13.1H39.375a1.538,1.538,0,0,0,0,3.076h4.352c.129,1.909.289,3.772.477,5.57-.234.019-.469.037-.7.057a87.074,87.074,0,0,0-10.589,1.587,47.1,47.1,0,0,1-2.234-7.214h2.132a1.538,1.538,0,1,0,0-3.076H24.835V92.879h77.089Z" transform="translate(0 0)" fill="#12263f"/>
    <path id="Trazado_631901" data-name="Trazado 631901" d="M35.987,215.555l-2.931-.426-1.311-2.656a2.095,2.095,0,0,0-3.757,0l-1.311,2.656-2.931.426a2.1,2.1,0,0,0-1.161,3.573l2.121,2.067-.5,2.919a2.095,2.095,0,0,0,3.04,2.208l2.622-1.378,2.621,1.378a2.095,2.095,0,0,0,3.04-2.208l-.5-2.919,2.121-2.067a2.095,2.095,0,0,0-1.161-3.573Zm-3.476,3.8a2.093,2.093,0,0,0-.6,1.855l.252,1.468-1.318-.693a2.1,2.1,0,0,0-1.95,0l-1.318.693.252-1.468a2.1,2.1,0,0,0-.6-1.854l-1.067-1.04,1.474-.214a2.094,2.094,0,0,0,1.577-1.146l.659-1.335.659,1.335A2.094,2.094,0,0,0,32.1,218.1l1.474.214Z" transform="translate(-17.45 -117.494)" fill="#12263f"/>
    <path id="Trazado_631902" data-name="Trazado 631902" d="M194.5,229.8a1.538,1.538,0,0,0-2.067.676l-2.084,4.111-2.02-3.985a1.565,1.565,0,0,0-.119-.235,1.544,1.544,0,0,0-2.628,0,1.529,1.529,0,0,0-.136.283l-2,3.938-2.084-4.111a1.538,1.538,0,1,0-2.744,1.391l3.456,6.817a1.538,1.538,0,0,0,2.744,0l2.078-4.1,2.078,4.1a1.538,1.538,0,0,0,2.744,0l3.456-6.817A1.537,1.537,0,0,0,194.5,229.8Z" transform="translate(-141.86 -132.059)" fill="#12263f"/>
    <path id="Trazado_631903" data-name="Trazado 631903" d="M281.28,229.8a1.538,1.538,0,0,0-2.067.676l-2.084,4.111-2.02-3.985a1.565,1.565,0,0,0-.119-.235,1.544,1.544,0,0,0-2.628,0,1.529,1.529,0,0,0-.136.283l-2,3.938-2.084-4.111a1.538,1.538,0,1,0-2.744,1.391l3.456,6.817a1.538,1.538,0,0,0,2.744,0l2.078-4.1,2.078,4.1a1.538,1.538,0,0,0,2.744,0l3.456-6.817A1.537,1.537,0,0,0,281.28,229.8Z" transform="translate(-210.841 -132.059)" fill="#12263f"/>
    <path id="Trazado_631904" data-name="Trazado 631904" d="M368.057,229.8a1.538,1.538,0,0,0-2.067.676l-2.084,4.111-2.02-3.985a1.565,1.565,0,0,0-.119-.235,1.544,1.544,0,0,0-2.628,0,1.532,1.532,0,0,0-.136.282l-2,3.938-2.084-4.111a1.538,1.538,0,1,0-2.744,1.391l3.456,6.817a1.538,1.538,0,0,0,2.744,0l2.078-4.1,2.078,4.1a1.538,1.538,0,0,0,2.744,0l3.456-6.817A1.537,1.537,0,0,0,368.057,229.8Z" transform="translate(-279.822 -132.059)" fill="#12263f"/>
  </g>
</svg>
