<svg xmlns="http://www.w3.org/2000/svg" width="91.742" height="91.752" viewBox="0 0 91.742 91.752">
  <g id="Grupo_880427" data-name="Grupo 880427" transform="translate(-8.667 -8.616)">
    <g id="Grupo_880424" data-name="Grupo 880424" transform="translate(8.667 8.616)">
      <g id="Grupo_880423" data-name="Grupo 880423" transform="translate(0)">
        <circle id="Elipse_6875" data-name="Elipse 6875" cx="12.956" cy="12.956" r="12.956" transform="translate(23.063 16.721)" fill="#66d4f1"/>
        <circle id="Elipse_6876" data-name="Elipse 6876" cx="8.394" cy="8.394" r="8.394" transform="translate(27.625 21.283)" fill="#c6ea94"/>
        <g id="Grupo_880422" data-name="Grupo 880422">
          <circle id="Elipse_6877" data-name="Elipse 6877" cx="4.444" cy="4.444" r="4.444" transform="translate(0 8.22) rotate(-67.486)" fill="#66d4f1"/>
          <circle id="Elipse_6878" data-name="Elipse 6878" cx="4.444" cy="4.444" r="4.444" transform="translate(30.224 8.216) rotate(-67.486)" fill="#66d4f1"/>
          <path id="Trazado_633274" data-name="Trazado 633274" d="M452.553,153.47a4.444,4.444,0,1,0-4.444-4.444A4.452,4.452,0,0,0,452.553,153.47Z" transform="translate(-366.554 -119.348)" fill="#66d4f1" fill-rule="evenodd"/>
          <circle id="Elipse_6879" data-name="Elipse 6879" cx="4.444" cy="4.444" r="4.444" transform="translate(63.577 8.212) rotate(-67.486)" fill="#66d4f1"/>
        </g>
      </g>
      <path id="Trazado_633275" data-name="Trazado 633275" d="M148.128,184.7l.027-25.507a4.746,4.746,0,0,0-9.492-.006l0,36.8c-4.125-1.371-6.287-.839-7.783,1.447a5.715,5.715,0,0,0,1.448,7.783c10.832,7.86,11.362,11.83,24.512,12.583a18.908,18.908,0,0,0,19.89-18.987l-.113-14.27a4.744,4.744,0,1,0-9.489,0,4.743,4.743,0,1,0-9.487,0,4.756,4.756,0,0,0-4.741-4.746A4.914,4.914,0,0,0,148.128,184.7Z" transform="translate(-107.436 -127.377)" fill="#efc7a4" fill-rule="evenodd"/>
    </g>
    <path id="Trazado_633276" data-name="Trazado 633276" d="M94.938,41.754a3.146,3.146,0,1,1,3.146-3.146A3.15,3.15,0,0,1,94.938,41.754ZM50.95,48.613l0-2.388a9.693,9.693,0,1,0-12.084-.079v2.406a11.656,11.656,0,1,1,12.082.061Zm1.062,15.066a3.647,3.647,0,0,0-1.08,2.52v.052a1.3,1.3,0,0,1-1.3,1.3h0a1.3,1.3,0,0,1-1.3-1.293V66.19l.026-25.449a3.46,3.46,0,0,0-3.445-3.448h0a3.463,3.463,0,0,0-3.446,3.445l0,36.8a1.3,1.3,0,0,1-1.709,1.234,11.143,11.143,0,0,0-3.405-.688A3.051,3.051,0,0,0,33.475,79.7a4.431,4.431,0,0,0,1.123,6.02c2.806,2.038,4.9,3.79,6.744,5.333,5.141,4.307,7.723,6.468,17.078,7A17.16,17.16,0,0,0,71.287,93.4,18.067,18.067,0,0,0,76.937,80.36L76.825,66.1a3.46,3.46,0,0,0-3.445-3.46h0a3.457,3.457,0,0,0-3.443,3.435v.015a1.3,1.3,0,0,1-2.6,0v-.013a3.457,3.457,0,0,0-3.441-3.435h0a3.463,3.463,0,0,0-3.445,3.446v0a1.3,1.3,0,0,1-2.6,0V66.08a3.455,3.455,0,0,0-3.442-3.437h0A3.376,3.376,0,0,0,52.011,63.679ZM49.185,36.472a6,6,0,0,1,1.773,4.272l0,1.652a7.1,7.1,0,1,0-12.088-.153V40.737a6.062,6.062,0,0,1,6.045-6.043h0a6,6,0,0,1,4.269,1.778ZM41.813,14.745a3.145,3.145,0,1,1,3.146,3.144A3.15,3.15,0,0,1,41.813,14.745ZM14.745,17.889a3.145,3.145,0,1,1,3.144-3.144A3.148,3.148,0,0,1,14.745,17.889ZM78.3,11.6a3.145,3.145,0,1,1-3.145,3.145A3.147,3.147,0,0,1,78.3,11.6ZM94.938,32.865a5.751,5.751,0,0,0-5.592,4.444H59.153a14.187,14.187,0,0,0-1.9-5.9L74.512,19.055A5.716,5.716,0,1,0,73,16.944L55.738,29.295a14.239,14.239,0,0,0-9.48-4.881V20.339a5.744,5.744,0,1,0-2.6,0v4.075A14.229,14.229,0,0,0,34.631,28.8l-14.693-11.6a5.753,5.753,0,1,0-1.611,2.038l14.693,11.6A14.242,14.242,0,0,0,38.867,51.5l0,24.312c-2.675-.63-5.6-.554-7.572,2.463a7.028,7.028,0,0,0,1.772,9.545c2.734,1.984,4.788,3.706,6.6,5.224,5.4,4.527,8.382,7.021,18.6,7.605.4.023.795.033,1.19.033a19.675,19.675,0,0,0,13.6-5.389,20.674,20.674,0,0,0,6.47-14.94l-.114-14.259a6.061,6.061,0,0,0-6.041-6.048h-.006a6,6,0,0,0-4.266,1.774,5.893,5.893,0,0,0-.475.531,6.611,6.611,0,0,0-.466-.525,6.006,6.006,0,0,0-4.274-1.78h0a6,6,0,0,0-4.267,1.773,6.2,6.2,0,0,0-.475.534,6.567,6.567,0,0,0-.472-.531,6.017,6.017,0,0,0-4.27-1.776h0a5.869,5.869,0,0,0-3.466,1.143l.01-9.641a14.25,14.25,0,0,0,8.207-11.64H89.346a5.742,5.742,0,1,0,5.592-7.043Z" transform="translate(-0.272 -0.313)" fill-rule="evenodd"/>
  </g>
</svg>
