<svg id="Grupo_879740" data-name="Grupo 879740" xmlns="http://www.w3.org/2000/svg" xmlns:xlink="http://www.w3.org/1999/xlink" width="406.888" height="394.13" viewBox="0 0 406.888 394.13">
  <defs>
    <clipPath id="clip-path">
      <rect id="Rectángulo_329096" data-name="Rectángulo 329096" width="406.888" height="394.13" fill="none"/>
    </clipPath>
    <clipPath id="clip-path-6">
      <rect id="Rectángulo_329089" data-name="Rectángulo 329089" width="27.445" height="77.98" fill="none"/>
    </clipPath>
    <clipPath id="clip-path-8">
      <rect id="Rectángulo_329092" data-name="Rectángulo 329092" width="2.826" height="2.985" fill="none"/>
    </clipPath>
    <clipPath id="clip-path-9">
      <rect id="Rectángulo_329093" data-name="Rectángulo 329093" width="64.47" height="9.694" fill="none"/>
    </clipPath>
  </defs>
  <g id="Grupo_879739" data-name="Grupo 879739" clip-path="url(#clip-path)">
    <g id="Grupo_879719" data-name="Grupo 879719">
      <g id="Grupo_879718" data-name="Grupo 879718" clip-path="url(#clip-path)">
        <path id="Trazado_630869" data-name="Trazado 630869" d="M63.644,47.5A31.822,31.822,0,1,0,4.393,63.578H4.376l.091.119c1.22,2.057,2.749,3.527,4.294,5.688L27.236,93.86a5.746,5.746,0,0,0,9.172,0L54.577,69.788A68.4,68.4,0,0,0,59.2,63.665l.067-.087h-.013A31.634,31.634,0,0,0,63.644,47.5M31.822,61.357a14,14,0,1,1,14-14,14,14,0,0,1-14,14" transform="translate(0 -2.027)" fill="#f5f5f5"/>
        <path id="Trazado_630870" data-name="Trazado 630870" d="M463.122,271.8A14.029,14.029,0,1,0,437,278.889h-.008l.04.052c.538.906,1.212,1.555,1.893,2.508l8.145,10.789a2.533,2.533,0,0,0,4.044,0l8.01-10.612a30.377,30.377,0,0,0,2.037-2.7l.03-.038h-.006a13.941,13.941,0,0,0,1.937-7.088m-14.029,6.108a6.174,6.174,0,1,1,6.174-6.174,6.173,6.173,0,0,1-6.174,6.174" transform="translate(-56.234 -33.319)" fill="#f5f5f5"/>
        <path id="Trazado_630871" data-name="Trazado 630871" d="M413.123,367.221A35.126,35.126,0,1,1,378,332.1a35.126,35.126,0,0,1,35.126,35.126" transform="translate(-44.318 -42.925)" fill="#f5f5f5"/>
        <path id="Trazado_630872" data-name="Trazado 630872" d="M378.871,397.33A29.236,29.236,0,1,1,408.107,368.1a29.269,29.269,0,0,1-29.236,29.235m0-53.468A24.232,24.232,0,1,0,403.1,368.1a24.26,24.26,0,0,0-24.233-24.233" transform="translate(-45.192 -43.799)" fill="#fff"/>
        <path id="Trazado_630873" data-name="Trazado 630873" d="M381.388,380.717a10.767,10.767,0,1,1,10.768-10.767,10.779,10.779,0,0,1-10.768,10.767m0-16.531a5.764,5.764,0,1,0,5.764,5.764,5.771,5.771,0,0,0-5.764-5.764" transform="translate(-47.905 -46.426)" fill="#fff"/>
        <path id="Trazado_630874" data-name="Trazado 630874" d="M376.563,371.548H362.952l2.373,4.2-32.034,14.682,1.081,1.8,32.142-14.511,2.2,4.17Z" transform="translate(-43.08 -48.024)" fill="#e0e0e0"/>
        <path id="Trazado_630875" data-name="Trazado 630875" d="M330.4,392.909l-.34-.331a6.508,6.508,0,0,0-6.361-1.587l-12.778,3.72,7.116,3.126-2.859,7.6,11.988-4.275a6.508,6.508,0,0,0,4.314-6.453Z" transform="translate(-40.188 -50.504)" fill="#e0e0e0"/>
        <path id="Trazado_630876" data-name="Trazado 630876" d="M151.753,393.916a2.427,2.427,0,0,1,.263-.086l.756-.221,2.912-.831,10.889-3.056-.1.175c-.558-1.866-1.183-3.958-1.853-6.2l-.031-.1.087-.072a34.98,34.98,0,0,0,7.592-8.936,24.562,24.562,0,0,0,2.543-6.086,17.819,17.819,0,0,0,.411-6.967,21.982,21.982,0,0,0-7.156-13.06,26.325,26.325,0,0,0-14.823-6.38,21.707,21.707,0,0,0-11.9,2.382,23.789,23.789,0,0,0-8.868,7.462,21.478,21.478,0,0,0-3.814,10.136c-.052.877-.19,1.741-.17,2.6s.049,1.71.073,2.55a26.273,26.273,0,0,0,.871,4.827,22.559,22.559,0,0,0,1.771,4.284,21.182,21.182,0,0,0,2.511,3.56,23.531,23.531,0,0,0,6.064,4.894,31.319,31.319,0,0,0,10.8,3.734l.062.01.012.057q.543,2.59.831,3.955c.088.435.156.771.206,1.019a3.347,3.347,0,0,1,.063.356,2.526,2.526,0,0,1-.087-.319c-.059-.241-.138-.569-.241-.992l-.938-3.982.074.065a30.87,30.87,0,0,1-10.928-3.648,23.707,23.707,0,0,1-6.178-4.92,21.507,21.507,0,0,1-2.574-3.61,22.867,22.867,0,0,1-1.823-4.354,26.589,26.589,0,0,1-.9-4.9q-.042-1.279-.084-2.588c-.023-.872.114-1.753.165-2.644a21.874,21.874,0,0,1,3.868-10.351,24.2,24.2,0,0,1,9.029-7.622,22.145,22.145,0,0,1,12.156-2.435,26.746,26.746,0,0,1,15.09,6.507,21.716,21.716,0,0,1,4.887,6.194,13.258,13.258,0,0,1,.831,1.74,12.322,12.322,0,0,1,.684,1.777c.184.6.381,1.2.549,1.8q.165.923.327,1.836a18.2,18.2,0,0,1-.441,7.131,24.838,24.838,0,0,1-2.608,6.18,35.1,35.1,0,0,1-7.726,9l.056-.175,1.809,6.215.04.138-.138.037-11.012,2.927-2.9.757-.739.187a1.528,1.528,0,0,1-.243.052" transform="translate(-16.553 -44.143)" fill="#e0e0e0"/>
        <path id="Trazado_630877" data-name="Trazado 630877" d="M171.607,401.7a65.878,65.878,0,0,1-7.569,2.319,65.834,65.834,0,0,1-7.695,1.859,66.2,66.2,0,0,1,7.569-2.319,65.969,65.969,0,0,1,7.694-1.859" transform="translate(-20.208 -51.921)" fill="#e0e0e0"/>
        <path id="Trazado_630878" data-name="Trazado 630878" d="M169.2,409.88a9.58,9.58,0,0,1-5.428,1.3,13.3,13.3,0,0,1,2.7-.71,13.305,13.305,0,0,1,2.728-.593" transform="translate(-21.169 -52.976)" fill="#e0e0e0"/>
        <path id="Trazado_630879" data-name="Trazado 630879" d="M157.506,396.266a1.076,1.076,0,0,1-.084-.248c-.053-.192-.119-.435-.2-.738-.177-.685-.421-1.64-.733-2.851-.623-2.516-1.512-6.1-2.607-10.5l-1.777-7.259a5.036,5.036,0,0,0-.764-1.8,1.272,1.272,0,0,0-1.588-.528,1.848,1.848,0,0,0-.819,1.66,2.844,2.844,0,0,0,.777,1.875,4.591,4.591,0,0,0,4.03,1.337,4.69,4.69,0,0,0,3.532-2.675,7.008,7.008,0,0,0,.5-4.723,4.185,4.185,0,0,0-1.082-2.13,1.721,1.721,0,0,0-2.087-.29,1.748,1.748,0,0,0-.393,2.078,4.722,4.722,0,0,0,1.626,1.782,8.77,8.77,0,0,0,4.453,1.837,4.941,4.941,0,0,0,2.284-.342,4.623,4.623,0,0,0,1.781-1.387,3.622,3.622,0,0,0,.8-2.021,2.62,2.62,0,0,0-.658-1.951,1.771,1.771,0,0,0-1.786-.614,2.168,2.168,0,0,0-1.323,1.377c-.432,1.282-.05,2.708.1,4.018.421,2.647.9,5.1,1.33,7.346.9,4.451,1.629,8.066,2.142,10.6l.583,2.884c.058.309.1.556.142.752a1.056,1.056,0,0,1,.032.259,1.056,1.056,0,0,1-.08-.249l-.188-.742-.67-2.865c-.566-2.492-1.372-6.1-2.291-10.579-.455-2.24-.949-4.694-1.39-7.351-.1-.67-.212-1.339-.283-2.042a5.054,5.054,0,0,1,.177-2.181,2.585,2.585,0,0,1,1.594-1.646,2.2,2.2,0,0,1,2.232.73,3.064,3.064,0,0,1,.781,2.272,4.066,4.066,0,0,1-.891,2.275,5.08,5.08,0,0,1-1.957,1.532,5.4,5.4,0,0,1-2.5.384,9.216,9.216,0,0,1-4.7-1.922,5.165,5.165,0,0,1-1.779-1.974,2.21,2.21,0,0,1,.551-2.653,2.186,2.186,0,0,1,2.687.327,4.638,4.638,0,0,1,1.222,2.369,7.466,7.466,0,0,1-.549,5.044,5.147,5.147,0,0,1-3.884,2.914,5.03,5.03,0,0,1-4.423-1.5A3.277,3.277,0,0,1,148.5,374a2.25,2.25,0,0,1,1.063-2.032,1.525,1.525,0,0,1,1.2-.056,1.964,1.964,0,0,1,.9.714,5.406,5.406,0,0,1,.823,1.951l1.721,7.272c1.033,4.423,1.87,8.015,2.46,10.539l.645,2.871c.064.307.115.554.156.75a1.048,1.048,0,0,1,.037.259" transform="translate(-19.195 -47.344)" fill="#e0e0e0"/>
        <path id="Trazado_630880" data-name="Trazado 630880" d="M171.4,405.442a43.5,43.5,0,0,1-6.129,1.922,43.482,43.482,0,0,1-6.256,1.462,43.667,43.667,0,0,1,6.13-1.922,43.378,43.378,0,0,1,6.255-1.462" transform="translate(-20.553 -52.403)" fill="#e0e0e0"/>
      </g>
    </g>
    <g id="Grupo_879721" data-name="Grupo 879721">
      <g id="Grupo_879720" data-name="Grupo 879720" clip-path="url(#clip-path)">
        <path id="Trazado_630881" data-name="Trazado 630881" d="M389.966,451.584c0,.125-83.1.226-185.584.226-102.521,0-185.6-.1-185.6-.226s83.081-.226,185.6-.226c102.485,0,185.584.1,185.584.226" transform="translate(-2.427 -58.34)" fill="#263238"/>
      </g>
    </g>
    <rect id="Rectángulo_329083" data-name="Rectángulo 329083" width="340.332" height="21.802" transform="translate(31.873 42.984)" fill="#e0e0e0"/>
    <rect id="Rectángulo_329084" data-name="Rectángulo 329084" width="340.332" height="190.866" transform="translate(31.822 84.815)" fill="#fff"/>
    <path id="Trazado_630882" data-name="Trazado 630882" d="M36.6,72.215H83.332L87.963,58.73h75.748l4.631,13.485H376.936V92.861H36.6Z" transform="translate(-4.731 -7.591)" fill="#ebebeb"/>
    <g id="Grupo_879723" data-name="Grupo 879723">
      <g id="Grupo_879722" data-name="Grupo 879722" clip-path="url(#clip-path)">
        <path id="Trazado_630883" data-name="Trazado 630883" d="M48.744,58.968a2.558,2.558,0,1,1-2.557-2.557,2.557,2.557,0,0,1,2.557,2.557" transform="translate(-5.639 -7.291)" fill="#263238"/>
        <path id="Trazado_630884" data-name="Trazado 630884" d="M57.834,58.968a2.558,2.558,0,1,1-2.557-2.557,2.557,2.557,0,0,1,2.557,2.557" transform="translate(-6.814 -7.291)" fill="#263238"/>
        <path id="Trazado_630885" data-name="Trazado 630885" d="M66.924,58.968a2.558,2.558,0,1,1-2.557-2.557,2.557,2.557,0,0,1,2.557,2.557" transform="translate(-7.989 -7.291)" fill="#263238"/>
        <path id="Trazado_630886" data-name="Trazado 630886" d="M348.632,91.289H115.141a6.48,6.48,0,0,1,0-12.96H348.632a6.48,6.48,0,1,1,0,12.96" transform="translate(-14.045 -10.124)" fill="#fafafa"/>
        <path id="Trazado_630887" data-name="Trazado 630887" d="M121.942,86.3v2.189h-1.108V86.475c0-.619-.285-.9-.775-.9-.533,0-.917.327-.917,1.031v1.89h-1.109V83.219h1.109v1.849a1.675,1.675,0,0,1,1.216-.455,1.5,1.5,0,0,1,1.585,1.692" transform="translate(-15.256 -10.756)" fill="#e0e0e0"/>
        <path id="Trazado_630888" data-name="Trazado 630888" d="M126.073,88.4a1.583,1.583,0,0,1-.9.242,1.261,1.261,0,0,1-1.429-1.372V85.7h-.59v-.853h.59v-.931h1.109v.931h.953V85.7h-.953v1.557a.446.446,0,0,0,.476.505.746.746,0,0,0,.448-.143Z" transform="translate(-15.918 -10.846)" fill="#e0e0e0"/>
        <path id="Trazado_630889" data-name="Trazado 630889" d="M129.527,88.4a1.583,1.583,0,0,1-.9.242,1.261,1.261,0,0,1-1.429-1.372V85.7h-.589v-.853h.589v-.931H128.3v.931h.953V85.7H128.3v1.557a.446.446,0,0,0,.476.505.746.746,0,0,0,.448-.143Z" transform="translate(-16.364 -10.846)" fill="#e0e0e0"/>
        <path id="Trazado_630890" data-name="Trazado 630890" d="M134.847,86.788a1.857,1.857,0,0,1-1.905,1.969,1.481,1.481,0,0,1-1.151-.462v1.784h-1.109v-5.2h1.06v.441a1.484,1.484,0,0,1,1.2-.5,1.857,1.857,0,0,1,1.905,1.969m-1.123,0a.977.977,0,1,0-.973,1.059.965.965,0,0,0,.973-1.059" transform="translate(-16.891 -10.963)" fill="#e0e0e0"/>
        <path id="Trazado_630891" data-name="Trazado 630891" d="M136.005,85.509a.69.69,0,0,1,1.379,0,.69.69,0,1,1-1.379,0m0,2.552a.69.69,0,0,1,1.379,0,.69.69,0,1,1-1.379,0" transform="translate(-17.579 -10.964)" fill="#e0e0e0"/>
        <path id="Trazado_630892" data-name="Trazado 630892" d="M140.375,82.4h.988l-2.346,6.7h-.988Z" transform="translate(-17.841 -10.651)" fill="#e0e0e0"/>
        <path id="Trazado_630893" data-name="Trazado 630893" d="M142.98,82.4h.988l-2.346,6.7h-.988Z" transform="translate(-18.178 -10.651)" fill="#e0e0e0"/>
        <path id="Trazado_630894" data-name="Trazado 630894" d="M352.11,133.414H148.681a11.486,11.486,0,1,1,0-22.971H352.11a11.486,11.486,0,1,1,0,22.971" transform="translate(-17.733 -14.275)" fill="#fafafa"/>
        <path id="Trazado_630895" data-name="Trazado 630895" d="M352.078,133.38a12.112,12.112,0,0,0,4.7-1.064,11.556,11.556,0,0,0,6.181-6.995,11.6,11.6,0,0,0,.475-4.206,11.3,11.3,0,0,0-4.716-8.446,11.275,11.275,0,0,0-5.261-2.051,26.656,26.656,0,0,0-3.04-.087l-3.172,0L318,110.569l-169.341.066a11.262,11.262,0,0,0-5.266,21.215,11.578,11.578,0,0,0,5.649,1.306l11.8,0,44.962.013,76.132.049,51.325.072,13.955.043,3.628.022c.818.008,1.236.024,1.236.024s-.419.016-1.236.024l-3.628.023-13.955.042-51.325.072-76.132.049-44.962.013-11.8,0a12.023,12.023,0,0,1-5.859-1.356,11.716,11.716,0,0,1,5.476-22.066L318,110.249l29.246.033,3.172,0a26.946,26.946,0,0,1,3.068.1,11.487,11.487,0,0,1,5.359,2.11,11.5,11.5,0,0,1,2.536,16.227,11.47,11.47,0,0,1-4.566,3.677,11.879,11.879,0,0,1-3.5.936c-.819.046-1.237.045-1.237.045" transform="translate(-17.702 -14.242)" fill="#263238"/>
        <path id="Trazado_630896" data-name="Trazado 630896" d="M155.739,125.689l.435-.962A3.251,3.251,0,0,0,158,125.3c.758,0,1.066-.253,1.066-.592,0-1.034-3.212-.324-3.212-2.375,0-.94.758-1.721,2.328-1.721a3.7,3.7,0,0,1,1.917.489l-.394.971a3.121,3.121,0,0,0-1.531-.434c-.758,0-1.05.284-1.05.631,0,1.018,3.212.315,3.212,2.344,0,.923-.765,1.712-2.344,1.712a3.938,3.938,0,0,1-2.249-.639" transform="translate(-20.13 -15.59)" fill="#e0e0e0"/>
        <path id="Trazado_630897" data-name="Trazado 630897" d="M166.011,124.652H162.8a1.133,1.133,0,0,0,1.216.852,1.441,1.441,0,0,0,1.066-.41l.655.71a2.479,2.479,0,0,1-4.175-1.5,2.162,2.162,0,0,1,2.265-2.186,2.1,2.1,0,0,1,2.21,2.2c0,.095-.016.229-.024.332m-3.228-.718h2.092a1.061,1.061,0,0,0-2.092,0" transform="translate(-20.882 -15.784)" fill="#e0e0e0"/>
        <path id="Trazado_630898" data-name="Trazado 630898" d="M171.225,124.005v2.423h-1.152V125.9a1.394,1.394,0,0,1-1.295.591c-.994,0-1.586-.552-1.586-1.286,0-.75.529-1.27,1.822-1.27h.979c0-.529-.315-.837-.979-.837a2.039,2.039,0,0,0-1.223.394l-.442-.86a3.269,3.269,0,0,1,1.831-.513c1.294,0,2.044.6,2.044,1.886m-1.231,1.081v-.435h-.845c-.576,0-.758.214-.758.5,0,.307.26.513.695.513a.907.907,0,0,0,.907-.576" transform="translate(-21.611 -15.785)" fill="#e0e0e0"/>
        <path id="Trazado_630899" data-name="Trazado 630899" d="M175.741,122.119v1.136c-.1-.008-.182-.016-.276-.016a1.043,1.043,0,0,0-1.128,1.184v2H173.1v-4.247h1.176v.561a1.716,1.716,0,0,1,1.46-.623" transform="translate(-22.375 -15.785)" fill="#e0e0e0"/>
        <path id="Trazado_630900" data-name="Trazado 630900" d="M176.569,124.305a2.2,2.2,0,0,1,2.368-2.186,1.95,1.95,0,0,1,1.9,1.081l-.954.513a1.06,1.06,0,0,0-.955-.584,1.178,1.178,0,0,0,0,2.352,1.045,1.045,0,0,0,.955-.583l.954.521a1.969,1.969,0,0,1-1.9,1.073,2.195,2.195,0,0,1-2.368-2.186" transform="translate(-22.822 -15.785)" fill="#e0e0e0"/>
        <path id="Trazado_630901" data-name="Trazado 630901" d="M186.6,123.768V126.2h-1.231v-2.242c0-.686-.315-1-.86-1-.591,0-1.018.363-1.018,1.144v2.1h-1.231v-5.857h1.231v2.052a1.866,1.866,0,0,1,1.35-.505,1.664,1.664,0,0,1,1.76,1.878" transform="translate(-23.557 -15.555)" fill="#e0e0e0"/>
        <path id="Trazado_630902" data-name="Trazado 630902" d="M190.743,126.14a.765.765,0,0,1,1.531,0,.765.765,0,1,1-1.531,0" transform="translate(-24.654 -16.206)" fill="#e0e0e0"/>
        <path id="Trazado_630903" data-name="Trazado 630903" d="M193.119,126.14a.765.765,0,0,1,1.531,0,.765.765,0,1,1-1.531,0" transform="translate(-24.962 -16.206)" fill="#e0e0e0"/>
        <path id="Trazado_630904" data-name="Trazado 630904" d="M195.495,126.14a.765.765,0,0,1,1.531,0,.765.765,0,1,1-1.531,0" transform="translate(-25.269 -16.206)" fill="#e0e0e0"/>
        <path id="Trazado_630905" data-name="Trazado 630905" d="M104.578,159.751c0,.125-8.165.226-18.234.226s-18.236-.1-18.236-.226,8.163-.226,18.236-.226,18.234.1,18.234.226" transform="translate(-8.803 -20.619)"/>
        <rect id="Rectángulo_329085" data-name="Rectángulo 329085" width="37.893" height="37.893" transform="translate(59.305 149.551)" fill="#ffb338"/>
        <path id="Trazado_630906" data-name="Trazado 630906" d="M344.889,181.975c0,.125-47.039.226-105.049.226-58.031,0-105.059-.1-105.059-.226s47.028-.226,105.059-.226c58.01,0,105.049.1,105.049.226" transform="translate(-17.421 -23.492)"/>
        <path id="Trazado_630907" data-name="Trazado 630907" d="M192.56,198.36c0,.125-12.4.226-27.681.226s-27.684-.1-27.684-.226,12.392-.226,27.684-.226,27.681.1,27.681.226" transform="translate(-17.733 -25.61)"/>
        <path id="Trazado_630908" data-name="Trazado 630908" d="M311.617,213.552c0,.125-39.049.226-87.207.226-48.175,0-87.216-.1-87.216-.226s39.041-.226,87.216-.226c48.158,0,87.207.1,87.207.226" transform="translate(-17.733 -27.573)" fill="#e0e0e0"/>
        <path id="Trazado_630909" data-name="Trazado 630909" d="M104.578,237.7c0,.125-8.165.226-18.234.226s-18.236-.1-18.236-.226,8.163-.226,18.236-.226,18.234.1,18.234.226" transform="translate(-8.803 -30.694)"/>
        <rect id="Rectángulo_329086" data-name="Rectángulo 329086" width="37.893" height="37.893" transform="translate(59.305 217.423)" fill="#ffb338"/>
        <path id="Trazado_630910" data-name="Trazado 630910" d="M357.371,259.921c0,.125-49.833.226-111.29.226-61.479,0-111.3-.1-111.3-.226s49.822-.226,111.3-.226c61.457,0,111.29.1,111.29.226" transform="translate(-17.421 -33.567)"/>
        <path id="Trazado_630911" data-name="Trazado 630911" d="M192.56,276.306c0,.125-12.4.226-27.681.226s-27.684-.1-27.684-.226,12.392-.226,27.684-.226,27.681.1,27.681.226" transform="translate(-17.733 -35.685)"/>
        <path id="Trazado_630912" data-name="Trazado 630912" d="M341.994,291.5c0,.125-45.85.226-102.4.226-56.564,0-102.4-.1-102.4-.226s45.839-.226,102.4-.226c56.545,0,102.4.1,102.4.226" transform="translate(-17.733 -37.649)" fill="#e0e0e0"/>
        <path id="Trazado_630913" data-name="Trazado 630913" d="M376.9,282.484c0-1.492-.071-91.248-.182-233.152l.182.183L36.6,49.559H36.57l.226-.227c-.007,83.221-.014,162.3-.02,233.152l-.206-.207,340.332.207-340.332.207h-.207v-.207c-.006-70.857-.013-149.932-.02-233.152V49.1H36.6l340.305.044h.182v.182c-.111,141.9-.181,231.661-.182,233.152" transform="translate(-4.698 -6.347)" fill="#263238"/>
        <path id="Trazado_630914" data-name="Trazado 630914" d="M164.059,68.731c0,.125-12.016.226-26.836.226s-26.839-.1-26.839-.226S122.4,68.5,137.223,68.5s26.836.1,26.836.226" transform="translate(-14.268 -8.855)"/>
        <rect id="Rectángulo_329087" data-name="Rectángulo 329087" width="47.666" height="14.359" transform="translate(53.707 102.735)" fill="#455a64"/>
        <path id="Trazado_630915" data-name="Trazado 630915" d="M203.525,161.14c0,.125-14.822.226-33.1.226s-33.1-.1-33.1-.226,14.818-.226,33.1-.226,33.1.1,33.1.226" transform="translate(-17.749 -20.799)" fill="#ff725e"/>
        <path id="Trazado_630916" data-name="Trazado 630916" d="M203.525,237.7c0,.125-14.822.226-33.1.226s-33.1-.1-33.1-.226,14.818-.226,33.1-.226,33.1.1,33.1.226" transform="translate(-17.749 -30.694)" fill="#ff725e"/>
        <path id="Trazado_630917" data-name="Trazado 630917" d="M378.162,126.379a5.533,5.533,0,1,1,5.533-5.533,5.539,5.539,0,0,1-5.533,5.533m0-10.195a4.662,4.662,0,1,0,4.662,4.662,4.667,4.667,0,0,0-4.662-4.662" transform="translate(-48.164 -14.905)" fill="#ffb338"/>
        <path id="Trazado_630918" data-name="Trazado 630918" d="M386.189,130.18a.438.438,0,0,1-.308-.126l-3.6-3.58a.435.435,0,1,1,.613-.618l3.607,3.58a.436.436,0,0,1,0,.617.428.428,0,0,1-.307.128" transform="translate(-49.395 -16.251)" fill="#ffb338"/>
        <path id="Trazado_630919" data-name="Trazado 630919" d="M272.349,197.235c0,.125-14.259.226-31.845.226s-31.848-.1-31.848-.226,14.256-.226,31.848-.226,31.845.1,31.845.226" transform="translate(-26.97 -25.464)"/>
        <path id="Trazado_630920" data-name="Trazado 630920" d="M324.123,196.109c0,.125-7.459.226-16.657.226s-16.659-.1-16.659-.226,7.457-.226,16.659-.226,16.657.1,16.657.226" transform="translate(-37.588 -25.319)"/>
        <path id="Trazado_630921" data-name="Trazado 630921" d="M272,276.306c0,.125-14.259.226-31.845.226s-31.848-.1-31.848-.226,14.256-.226,31.848-.226,31.845.1,31.845.226" transform="translate(-26.925 -35.685)"/>
      </g>
    </g>
    <g id="Grupo_879728" data-name="Grupo 879728">
      <g id="Grupo_879727" data-name="Grupo 879727" clip-path="url(#clip-path)">
        <path id="Trazado_630922" data-name="Trazado 630922" d="M81.065,296.921c-7.064,3.66-12.481,9.96-16.377,16.9s-6.405,14.55-8.892,22.107L53.62,374.9c8.22-13.984,14.817-30.424,16.6-46.547l-5.47-.488c3.668-.559,6.747-3.217,8.7-6.368s2.967-6.785,3.951-10.362l-6.673.992a24.731,24.731,0,0,0,10.332-15.208" transform="translate(-6.931 -38.379)" fill="#617a0b"/>
        <g id="Grupo_879726" data-name="Grupo 879726" transform="translate(46.689 258.542)" opacity="0.3">
          <g id="Grupo_879725" data-name="Grupo 879725">
            <g id="Grupo_879724" data-name="Grupo 879724" clip-path="url(#clip-path-6)">
              <path id="Trazado_630923" data-name="Trazado 630923" d="M81.065,296.921c-7.064,3.66-12.481,9.96-16.377,16.9s-6.405,14.55-8.892,22.107L53.62,374.9c8.22-13.984,14.817-30.424,16.6-46.547l-5.47-.488c3.668-.559,6.747-3.217,8.7-6.368s2.967-6.785,3.951-10.362l-6.673.992a24.731,24.731,0,0,0,10.332-15.208" transform="translate(-53.62 -296.921)"/>
            </g>
          </g>
        </g>
        <path id="Trazado_630924" data-name="Trazado 630924" d="M49.6,383.555S31.757,362.2,31.963,341.813H39.17s-7.828-5.148-7.209-8.031.825-13.8.825-13.8l6.59,1.647s-4.942-2.47-5.56-6.383,1.441-22.033,1.441-22.033,8.031,8.443,10.5,17.092,8.957,18.738,7.053,45.1-3.214,28.15-3.214,28.15" transform="translate(-4.127 -37.9)" fill="#617a0b"/>
        <path id="Trazado_630925" data-name="Trazado 630925" d="M62.609,389.022s19.33-12.877,23.624-29.312l-5.794-1.577s7.42-2.426,7.553-4.88,2.354-11.273,2.354-11.273l-5.658-.118s4.514-.9,5.867-3.916,3.661-18.03,3.661-18.03-8.3,5.031-12.183,11.443-11.3,13.106-15.537,34.714-3.889,22.947-3.889,22.947" transform="translate(-8.092 -41.351)" fill="#617a0b"/>
        <path id="Trazado_630926" data-name="Trazado 630926" d="M41.35,314.6a.876.876,0,0,1,.071.22c.042.173.095.389.161.656.139.613.333,1.459.576,2.532.5,2.2,1.159,5.4,1.916,9.357,1.522,7.919,3.321,18.923,4.739,31.149s2.168,23.357,2.493,31.415c.167,4.029.253,7.292.27,9.547.007,1.1.012,1.967.016,2.6,0,.274-.005.5-.007.675a.878.878,0,0,1-.018.231.867.867,0,0,1-.028-.23c-.01-.178-.023-.4-.038-.675-.024-.628-.058-1.494-.1-2.593-.07-2.253-.205-5.512-.414-9.536-.407-8.049-1.216-19.158-2.623-31.378s-3.164-23.214-4.6-31.143c-.716-3.965-1.328-7.17-1.773-9.38-.209-1.08-.374-1.931-.494-2.549-.048-.271-.086-.489-.118-.665a.879.879,0,0,1-.024-.23" transform="translate(-5.344 -40.664)" fill="#263238"/>
        <path id="Trazado_630927" data-name="Trazado 630927" d="M43.948,404.586s-16.327-18.526-21.4-29.725l3.827-1.635a9.914,9.914,0,0,1-7.767-2.545,29.342,29.342,0,0,1-5.279-6.538l5.042-.852a18.745,18.745,0,0,1-11.016-8.533c5.949.979,11.332,4.247,15.767,8.33a78.456,78.456,0,0,1,9.555,11.071,37.716,37.716,0,0,1,3.71,6.1c2.744,5.672,7.569,17.524,7.559,24.327" transform="translate(-0.951 -45.854)" fill="#617a0b"/>
        <path id="Trazado_630928" data-name="Trazado 630928" d="M85.848,332.3a.677.677,0,0,1-.07.192c-.067.146-.147.324-.246.541l-.984,2.06c-.869,1.782-2.1,4.372-3.6,7.584-2.994,6.423-6.944,15.385-10.848,25.469s-7,19.379-9.109,26.146c-1.055,3.383-1.884,6.129-2.44,8.032q-.415,1.379-.658,2.186c-.072.226-.132.413-.182.566a.712.712,0,0,1-.077.188.676.676,0,0,1,.032-.2l.138-.577q.213-.814.576-2.209c.5-1.918,1.286-4.68,2.3-8.078,2.028-6.8,5.091-16.113,8.992-26.216s7.91-19.049,10.981-25.442c1.534-3.2,2.813-5.768,3.73-7.526l1.061-2.023.286-.521a.686.686,0,0,1,.111-.171" transform="translate(-7.45 -42.952)" fill="#263238"/>
        <path id="Trazado_630929" data-name="Trazado 630929" d="M49.2,416.4a7.627,7.627,0,0,1-.261-1.321c-.131-.853-.35-2.085-.654-3.6a75.623,75.623,0,0,0-3.317-11.574,75.585,75.585,0,0,0-5.161-10.88c-.771-1.336-1.421-2.4-1.887-3.132a7.768,7.768,0,0,1-.677-1.164,7.6,7.6,0,0,1,.824,1.066c.513.7,1.206,1.746,2.017,3.067a65.7,65.7,0,0,1,5.309,10.883A65.8,65.8,0,0,1,48.6,411.42c.265,1.528.436,2.772.514,3.634A7.58,7.58,0,0,1,49.2,416.4" transform="translate(-4.813 -49.728)" fill="#263238"/>
        <rect id="Rectángulo_329090" data-name="Rectángulo 329090" width="35.735" height="7.29" transform="translate(30.191 362.313)" fill="#eb6f2d"/>
        <path id="Trazado_630930" data-name="Trazado 630930" d="M38.584,424.467l3.865,24.518H64.043l3.6-24.518Z" transform="translate(-4.987 -54.865)" fill="#eb6f2d"/>
        <path id="Trazado_630931" data-name="Trazado 630931" d="M68.714,424.433c0,.125-6.76.226-15.1.226s-15.1-.1-15.1-.226,6.759-.226,15.1-.226,15.1.1,15.1.226" transform="translate(-4.979 -54.831)" fill="#263238"/>
      </g>
    </g>
    <g id="Grupo_879736" data-name="Grupo 879736">
      <g id="Grupo_879735" data-name="Grupo 879735" clip-path="url(#clip-path)">
        <path id="Trazado_630932" data-name="Trazado 630932" d="M251.943,431.847v18.085l36.467-.177c-.265-3.667-20.279-10.984-20.279-10.984l.4-6.924Z" transform="translate(-32.565 -55.818)" fill="#455a64"/>
        <g id="Grupo_879731" data-name="Grupo 879731" transform="translate(224.241 381.246)" opacity="0.6">
          <g id="Grupo_879730" data-name="Grupo 879730">
            <g id="Grupo_879729" data-name="Grupo 879729" clip-path="url(#clip-path-8)">
              <path id="Trazado_630933" data-name="Trazado 630933" d="M258.562,437.909a1.581,1.581,0,0,0-1,1.807,1.421,1.421,0,0,0,1.682,1.066,1.669,1.669,0,0,0,1.048-1.919,1.455,1.455,0,0,0-1.866-.9" transform="translate(-257.528 -437.839)" fill="#fff"/>
            </g>
          </g>
        </g>
        <path id="Trazado_630934" data-name="Trazado 630934" d="M251.943,452.187V449.3l34.817.412s1.815,1.092,1.65,2.3Z" transform="translate(-32.565 -58.074)" fill="#263238"/>
        <path id="Trazado_630935" data-name="Trazado 630935" d="M270.047,440.176c0,.188-.887.286-1.75.9-.879.592-1.317,1.411-1.48,1.34-.164-.034.084-1.16,1.142-1.887s2.125-.529,2.089-.356" transform="translate(-34.481 -56.874)" fill="#263238"/>
        <path id="Trazado_630936" data-name="Trazado 630936" d="M275.668,442.111c.043.181-.72.512-1.31,1.315-.613.784-.752,1.644-.929,1.639-.166.032-.3-1.065.448-2.048s1.785-1.084,1.791-.906" transform="translate(-35.325 -57.136)" fill="#263238"/>
        <path id="Trazado_630937" data-name="Trazado 630937" d="M278.455,446.931c-.16.043-.421-.892.02-1.925s1.263-1.456,1.34-1.3c.1.152-.428.712-.778,1.567-.367.845-.407,1.638-.583,1.659" transform="translate(-35.963 -57.347)" fill="#263238"/>
        <path id="Trazado_630938" data-name="Trazado 630938" d="M269.567,434.2c-.071.172-.888-.075-1.889.012-1,.066-1.775.434-1.87.274-.1-.134.646-.84,1.826-.926s2.018.49,1.933.639" transform="translate(-34.356 -56.038)" fill="#263238"/>
        <path id="Trazado_630939" data-name="Trazado 630939" d="M269.726,440.275a2.666,2.666,0,0,0,.078-1.1,6.13,6.13,0,0,0-.966-2.851,5.612,5.612,0,0,0-1.426-1.5,1.237,1.237,0,0,0-1.231-.216,1.39,1.39,0,0,0-.718,1.191,4.781,4.781,0,0,0,3.2,4.231,4.572,4.572,0,0,0,4.926-1.463,3.339,3.339,0,0,0,.654-1.116,1.21,1.21,0,0,0,.005-.724.86.86,0,0,0-.5-.523,1.55,1.55,0,0,0-1.136.112,6.789,6.789,0,0,0-.849.484,7.594,7.594,0,0,0-2.085,2.063,2.879,2.879,0,0,0-.5.969,10.542,10.542,0,0,1,2.777-2.7c.488-.28,1.128-.683,1.643-.5.226.093.316.359.208.676a2.909,2.909,0,0,1-.573.921,4.142,4.142,0,0,1-4.409,1.279,4.346,4.346,0,0,1-2.888-3.675.906.906,0,0,1,.43-.783.832.832,0,0,1,.812.161,5.353,5.353,0,0,1,1.358,1.343,6.372,6.372,0,0,1,1.063,2.649c.1.684.078,1.077.123,1.08" transform="translate(-34.312 -56.163)" fill="#263238"/>
        <path id="Trazado_630940" data-name="Trazado 630940" d="M234.566,434.59l.617,4.652-.413,10.5-13.672.333-.488-10.829,1.555-6.433Z" transform="translate(-28.515 -55.943)" fill="#455a64"/>
        <path id="Trazado_630941" data-name="Trazado 630941" d="M229.106,449.213c-.084,0,.113-3.207.44-7.171s.657-7.182.74-7.186-.114,3.206-.44,7.171-.657,7.181-.74,7.185" transform="translate(-29.611 -56.207)" fill="#263238"/>
        <path id="Trazado_630942" data-name="Trazado 630942" d="M234.885,450.245l-13.814.16v1.921l13.823-.017Z" transform="translate(-28.575 -58.196)" fill="#263238"/>
        <path id="Trazado_630943" data-name="Trazado 630943" d="M221.111,442.71a1.839,1.839,0,0,1,.35-.554,9.48,9.48,0,0,1,1.218-1.3,9.323,9.323,0,0,1,2.208-1.482,7.282,7.282,0,0,1,8.519,1.576,6.267,6.267,0,0,1,1,1.487,1.756,1.756,0,0,1,.218.619,14.241,14.241,0,0,0-1.432-1.905,7.281,7.281,0,0,0-5.125-2.1,8.363,8.363,0,0,0-5.2,2.031c-1.144.933-1.7,1.682-1.758,1.634" transform="translate(-28.579 -56.695)" fill="#263238"/>
        <path id="Trazado_630944" data-name="Trazado 630944" d="M229.021,97.633l-.145,47.269,20.28.967.586-11.5s7.2,1.43,9.061-5.259c1.188-4.274.891-37.3.891-37.3Z" transform="translate(-29.583 -11.868)" fill="#b78876"/>
        <path id="Trazado_630945" data-name="Trazado 630945" d="M261.357,94.163c-3.194.914-3.888,6.135-3.888,6.135l-5.01,11.065c-2.552-2-5.979-1.883-6.628,2.6-.468,3.241,3.56,3.9,3.56,3.9-2.346,3.992-3.937,7.222-7.352,11.018-3.7,4.11-5.768,4.524-9.778,4.591h-4.421s-2.164-7.025-6.171-24.592c-4.446-19.49,18.6-16.979,22.873-21.953,6.957-8.1,26.883,4.355,16.814,7.237" transform="translate(-28.579 -10.887)" fill="#263238"/>
        <path id="Trazado_630946" data-name="Trazado 630946" d="M266.553,89.167a4.424,4.424,0,0,0-4.416-3.679,2.748,2.748,0,0,0-.573-3.5,4.493,4.493,0,0,0-3.652-.891,13.31,13.31,0,0,0-3.64,1.309,6.145,6.145,0,0,0-2.349-3.109,7.081,7.081,0,0,0-3.912-.971c-6.223,0-9.5,4.264-12.843,8.606a5.215,5.215,0,0,1-2.018,1.915,5.481,5.481,0,0,1-1.88.211,13.53,13.53,0,0,0-11.506,7.155c-2.179,4.21-3.805,13.955,1.832,19.995L225,123.8,257.5,98.039c.231.12,2.268,1.114,3.836.289,3.892-2.049,2.26-5.466,2.26-5.466.31-.161,3.284-1.62,2.954-3.7" transform="translate(-28.145 -10.124)" fill="#263238"/>
        <path id="Trazado_630947" data-name="Trazado 630947" d="M239.009,119.869a9.543,9.543,0,0,1-1.55,6.882c-.135-.068.515-1.516.933-3.405s.466-3.473.617-3.476" transform="translate(-30.69 -15.494)" fill="#455a64"/>
        <path id="Trazado_630948" data-name="Trazado 630948" d="M241.868,117.205a8.624,8.624,0,0,1-.189,3.455,8.6,8.6,0,0,1-1.07,3.291,18.561,18.561,0,0,1,.566-3.385,18.512,18.512,0,0,1,.693-3.361" transform="translate(-31.096 -15.149)" fill="#455a64"/>
        <path id="Trazado_630949" data-name="Trazado 630949" d="M249.357,108.245c.049.068-.526.487-1.255,1.341a12.98,12.98,0,0,0-2.186,3.772,31.659,31.659,0,0,0-1.211,4.251,7.164,7.164,0,0,1-.5,1.788,6.387,6.387,0,0,1,.145-1.856,20.9,20.9,0,0,1,1.09-4.369,11,11,0,0,1,2.4-3.833,3.844,3.844,0,0,1,1.521-1.095" transform="translate(-31.561 -13.991)" fill="#455a64"/>
        <path id="Trazado_630950" data-name="Trazado 630950" d="M253.074,102.146a2.63,2.63,0,0,1,.394,1.279,8.5,8.5,0,0,1-1.544,6.156c-.5.665-.906.985-.95.942a17.736,17.736,0,0,0,1.82-4,17.7,17.7,0,0,0,.28-4.382" transform="translate(-32.439 -13.203)" fill="#455a64"/>
        <path id="Trazado_630951" data-name="Trazado 630951" d="M225.215,115.49c-.07.124-.69-.091-1.387-.481s-1.205-.805-1.136-.929.691.091,1.387.481,1.205.805,1.136.929" transform="translate(-28.783 -14.741)" fill="#455a64"/>
        <path id="Trazado_630952" data-name="Trazado 630952" d="M236.525,109.909c.134.019.051,1.021-.579,2.056s-1.472,1.58-1.551,1.47c-.1-.113.541-.779,1.111-1.735s.874-1.822,1.019-1.79" transform="translate(-30.296 -14.206)" fill="#455a64"/>
        <path id="Trazado_630953" data-name="Trazado 630953" d="M239.884,108.051a4.065,4.065,0,0,1-.9,2.457c-.813,1.234-1.836,1.9-1.914,1.787-.1-.115.724-.912,1.485-2.071a21.035,21.035,0,0,1,1.33-2.173" transform="translate(-30.641 -13.966)" fill="#455a64"/>
        <path id="Trazado_630954" data-name="Trazado 630954" d="M253.487,85.024c-.036.041-.381-.289-1.112-.705a7.5,7.5,0,0,0-3.4-.879,9.109,9.109,0,0,0-4.985,1.34,12.35,12.35,0,0,0-4.247,4.729,21.274,21.274,0,0,0-1.723,4.432l-.081.3-.273-.143a10.093,10.093,0,0,0-4.524-1.157,10.7,10.7,0,0,0-3.683.556,15.68,15.68,0,0,0-3.008,1.5,3.13,3.13,0,0,1,.679-.6,9.367,9.367,0,0,1,2.224-1.194,10.536,10.536,0,0,1,3.793-.686,10.309,10.309,0,0,1,4.751,1.144l-.354.154a20.872,20.872,0,0,1,1.747-4.55,12.546,12.546,0,0,1,4.453-4.892,9.276,9.276,0,0,1,5.246-1.3,7.232,7.232,0,0,1,3.485,1.07,5.317,5.317,0,0,1,.778.618c.164.158.243.246.231.259" transform="translate(-29.27 -10.736)" fill="#455a64"/>
        <path id="Trazado_630955" data-name="Trazado 630955" d="M266.144,88.17c-.037-.01.564-.152,1.163.528a2.012,2.012,0,0,1,.467,1.48,2.3,2.3,0,0,1-1.178,1.684,3.345,3.345,0,0,1-2.464.339,7.154,7.154,0,0,1-2.542-1.232,24.7,24.7,0,0,0-2.486-1.7,10.355,10.355,0,0,0-3-1.053,12.66,12.66,0,0,0-6.114.419,16.723,16.723,0,0,0-4.52,2.3,46.543,46.543,0,0,0-3.607,3.053,5.151,5.151,0,0,1,.8-1,19.53,19.53,0,0,1,2.591-2.348,16.245,16.245,0,0,1,4.587-2.454,12.829,12.829,0,0,1,6.356-.474,10.642,10.642,0,0,1,3.143,1.116,23.837,23.837,0,0,1,2.519,1.76,6.851,6.851,0,0,0,2.361,1.2,2.989,2.989,0,0,0,2.188-.239,2.012,2.012,0,0,0,1.074-1.4,1.842,1.842,0,0,0-.339-1.321,1.782,1.782,0,0,0-1.007-.651" transform="translate(-31.262 -11.31)" fill="#455a64"/>
        <path id="Trazado_630956" data-name="Trazado 630956" d="M363.838,129.909c-.765-.679-11.092,3.653-11.092,3.653s-7.705,6.045-10.877,9.615l-1.958,1.629L310.6,167.6l-36.05-15-7.822,20.112s40.47,16.111,46.637,13.353c6.7-3,31.647-29.106,31.706-29.2h0l3.6-3.471s1.905-.037,3.35-.123,5.676-2.9,5.676-2.9a8.219,8.219,0,0,0,.821-2.465,1.578,1.578,0,0,0-.783-1.79,4.039,4.039,0,0,0-1.629-4.518,3.627,3.627,0,0,0,.964-1.822c.356-1.325-1.361-2.577-1.361-2.577s5.993-4.076,7.449-4.791,1.438-1.824.673-2.5" transform="translate(-34.476 -16.782)" fill="#b78876"/>
        <path id="Trazado_630957" data-name="Trazado 630957" d="M272.331,351.963c.12-1.324.186-2.341.186-2.978L276.588,284s-3.422-18.978-5.04-24.014l-14.553-5.633L237.61,261.9c-.13-1.564-.208-2.524-.208-2.524l-28.555,9.87s-.739,19.48,0,25.41c.238,1.9.985,6.826,1.89,12.624,0,0,.92,12.6,1.108,13.3.692,2.569.852,8.861.852,15.166,0,8.013.435,17.546.934,22.079s.743,54.368.743,54.368h21.069l2.706-79.382c.454-8.507,1.135-21.516,1.573-30.927L244.67,331.2c0,1.075,3.011,17.833,3.011,17.833a157.464,157.464,0,0,0-1.291,15.9c-.347,14.774-2.084,47.267-2.084,47.267h20.625s6.194-46.922,7.4-60.237Z" transform="translate(-26.952 -32.876)" fill="#263238"/>
        <path id="Trazado_630958" data-name="Trazado 630958" d="M284.333,282.431a7.93,7.93,0,0,1-1.9-1.013,26.424,26.424,0,0,1-7.438-7.2,7.964,7.964,0,0,1-1.075-1.866,14.626,14.626,0,0,1,1.33,1.681,34.989,34.989,0,0,0,7.361,7.123,14.737,14.737,0,0,1,1.723,1.273" transform="translate(-35.405 -35.203)" fill="#455a64"/>
        <path id="Trazado_630959" data-name="Trazado 630959" d="M243.1,294.708a2.5,2.5,0,0,1-.4-.648,20.692,20.692,0,0,1-.886-1.876,30.748,30.748,0,0,1-2.336-13.408,20.691,20.691,0,0,1,.2-2.065,2.531,2.531,0,0,1,.161-.746c.072.008-.028,1.084-.046,2.821a36.667,36.667,0,0,0,2.314,13.282c.605,1.629,1.063,2.608,1,2.64" transform="translate(-30.947 -35.67)" fill="#455a64"/>
        <path id="Trazado_630960" data-name="Trazado 630960" d="M246.437,321.273a5.554,5.554,0,0,1-.271-1.13c-.152-.827-.343-1.87-.571-3.11-.458-2.728-1.061-6.316-1.728-10.284-1.165-7.291-1.958-12.254-2.327-14.562a21.521,21.521,0,0,1,1,4.209c.5,2.623,1.135,6.256,1.792,10.277s1.215,7.665,1.594,10.307c.169,1.251.311,2.3.424,3.134a5.546,5.546,0,0,1,.091,1.159" transform="translate(-31.22 -37.767)" fill="#455a64"/>
        <path id="Trazado_630961" data-name="Trazado 630961" d="M189.564,201.108s-2.784,19.587-3.3,26.45c-.313,4.132,3.884,9.617,7.087,10.019,3.254.408,14,1.043,14,1.043l.9-12.284-.28-2.443-3.352-.631,1.01-19.483Z" transform="translate(-24.073 -25.994)" fill="#b78876"/>
        <path id="Trazado_630962" data-name="Trazado 630962" d="M207.81,204.932a4.72,4.72,0,0,1,.125,1.064c.052.687.095,1.682.12,2.912.056,2.462,0,5.863-.212,9.61s-.509,7.134-.752,9.58c-.123,1.223-.232,2.212-.319,2.894a4.689,4.689,0,0,1-.182,1.055,4.692,4.692,0,0,1,0-1.071c.046-.784.1-1.755.171-2.906.164-2.556.379-5.891.616-9.579.211-3.74.32-7.129.348-9.583.011-1.151.021-2.124.029-2.908a4.741,4.741,0,0,1,.057-1.069" transform="translate(-26.7 -26.489)" fill="#aa6550"/>
        <g id="Grupo_879734" data-name="Grupo 879734" transform="translate(182.004 228.975)" opacity="0.3">
          <g id="Grupo_879733" data-name="Grupo 879733">
            <g id="Grupo_879732" data-name="Grupo 879732" clip-path="url(#clip-path-9)">
              <path id="Trazado_630963" data-name="Trazado 630963" d="M209.184,270.716c5.486,2.038,11.5,2.209,17.327,1.7s11.585-1.675,17.411-2.228a83.508,83.508,0,0,1,26.376,1.708,4.725,4.725,0,0,0,1.859.177,1.557,1.557,0,0,0,1.32-1.167c.151-.973-.915-1.653-1.823-2.034a77.774,77.774,0,0,0-62.632,1.4" transform="translate(-209.021 -262.965)"/>
            </g>
          </g>
        </g>
        <path id="Trazado_630964" data-name="Trazado 630964" d="M289.989,163.815l-30.924-15.4a100.752,100.752,0,0,0-14.7-.643H223.9s-24.8,7.317-28.9,14.059l-10.632,31.872,21.016,3.174,2.622,22.9S205.4,246.29,205.4,250.143a28.378,28.378,0,0,0,.328,5.324s42.051-6.393,52.406-3.022,13.153,3.022,13.153,3.022-.866-11-1.634-17.39l-2.4-31.949-1.773-24.4,19.461,5.957Z" transform="translate(-23.83 -19.095)" fill="#2b95f9"/>
        <path id="Trazado_630965" data-name="Trazado 630965" d="M207.019,201.126c-.077.009-.283-1.318-.75-3.437a58.447,58.447,0,0,0-2.433-8.13,65.415,65.415,0,0,0-3.607-7.764l-1.27-2.285a3.706,3.706,0,0,1-.429-.859,4.046,4.046,0,0,1,.59.776c.357.513.841,1.272,1.408,2.227a51.636,51.636,0,0,1,3.758,7.762,46.767,46.767,0,0,1,2.314,8.217c.192,1.072.317,1.943.372,2.549a3.566,3.566,0,0,1,.046.944" transform="translate(-25.661 -23.091)" fill="#263238"/>
        <path id="Trazado_630966" data-name="Trazado 630966" d="M250.251,214.855a1.586,1.586,0,0,1-.109.421l-.394,1.178c-.172.512-.394,1.134-.683,1.843s-.589,1.531-.99,2.408c-.758,1.776-1.764,3.845-2.981,6.091a75.769,75.769,0,0,1-9.509,13.59c-1.693,1.913-3.292,3.567-4.7,4.887-.687.677-1.353,1.244-1.923,1.756s-1.076.935-1.5,1.272l-.971.773a1.631,1.631,0,0,1-.358.246c-.01-.012.094-.12.3-.315l.916-.836c.4-.356.893-.795,1.444-1.325s1.2-1.108,1.871-1.8c1.376-1.344,2.943-3.013,4.611-4.93,1.648-1.933,3.385-4.123,5.074-6.521,1.673-2.407,3.136-4.788,4.387-7,1.229-2.223,2.26-4.268,3.051-6.02.419-.866.742-1.674,1.048-2.374s.554-1.31.751-1.811l.471-1.148a1.593,1.593,0,0,1,.193-.39" transform="translate(-29.229 -27.771)" fill="#263238"/>
        <path id="Trazado_630967" data-name="Trazado 630967" d="M269.915,150.945a9.975,9.975,0,0,0-1.629,3.88,13.539,13.539,0,0,0,.028,4.571,54.263,54.263,0,0,0,1.306,5.521c1.068,3.9,2.2,7.379,3.055,9.885l1.027,2.967a5.474,5.474,0,0,1,.333,1.1,5.52,5.52,0,0,1-.5-1.04c-.291-.683-.7-1.678-1.167-2.92-.939-2.483-2.122-5.961-3.194-9.872a48.578,48.578,0,0,1-1.282-5.581,13.279,13.279,0,0,1,.073-4.7,8.51,8.51,0,0,1,1.2-2.934,3.234,3.234,0,0,1,.758-.881" transform="translate(-34.604 -19.51)" fill="#263238"/>
        <path id="Trazado_630968" data-name="Trazado 630968" d="M201.44,189.2a4.359,4.359,0,0,1-1.648,1.119,8.317,8.317,0,0,1-9.1-1.384,4.36,4.36,0,0,1-1.241-1.559c.062-.047.511.567,1.448,1.315a8.743,8.743,0,0,0,8.766,1.334c1.117-.435,1.729-.888,1.774-.825" transform="translate(-24.487 -24.219)" fill="#fff"/>
        <path id="Trazado_630969" data-name="Trazado 630969" d="M262.293,172.961a4.31,4.31,0,0,1-.26.67c-.187.433-.486,1.061-.913,1.848a25.251,25.251,0,0,1-4.6,6.014,20.784,20.784,0,0,1-9.814,5.341,18.329,18.329,0,0,1-6.656.286,19.627,19.627,0,0,1-6.736-2.395c-4.275-2.388-7.885-5.41-11.84-6.855a18.58,18.58,0,0,0-10.917-.6,19.426,19.426,0,0,0-6.783,3.109c-1.428,1.059-2.1,1.8-2.137,1.754a13.344,13.344,0,0,1,2.031-1.895,18.921,18.921,0,0,1,6.812-3.279,18.728,18.728,0,0,1,11.14.522c4.049,1.458,7.693,4.5,11.912,6.848a19.319,19.319,0,0,0,6.581,2.352,18.057,18.057,0,0,0,6.5-.254,20.7,20.7,0,0,0,9.685-5.167,26.469,26.469,0,0,0,4.665-5.868c.448-.769.771-1.382.983-1.8a4.329,4.329,0,0,1,.343-.63" transform="translate(-26.063 -22.356)" fill="#fff"/>
        <path id="Trazado_630970" data-name="Trazado 630970" d="M292.143,160.136a4.084,4.084,0,0,1,.4,1,12.073,12.073,0,0,1,.5,2.9,13.458,13.458,0,0,1-.485,4.353,13.246,13.246,0,0,1-2.447,4.775,34.648,34.648,0,0,1-3.882,3.67,10.409,10.409,0,0,0-2.634,3.318,5.657,5.657,0,0,0-.577,2.772c.052.677.2,1.038.155,1.051-.015.006-.058-.08-.13-.251a3.328,3.328,0,0,1-.2-.782,5.457,5.457,0,0,1,.46-2.92,10.315,10.315,0,0,1,2.644-3.5,37.8,37.8,0,0,0,3.812-3.648,13.713,13.713,0,0,0,2.964-8.83,20.578,20.578,0,0,0-.584-3.919" transform="translate(-36.554 -20.698)" fill="#fff"/>
        <path id="Trazado_630971" data-name="Trazado 630971" d="M232.515,243.6a3.7,3.7,0,0,1-.907.316,19.314,19.314,0,0,1-2.562.547,9.01,9.01,0,0,1-3.908-.228,5.8,5.8,0,0,1-2.051-1.154,17.408,17.408,0,0,1-1.671-1.829,8.693,8.693,0,0,0-1.749-1.614,8.268,8.268,0,0,0-2-.957,8.762,8.762,0,0,0-3.733-.358,8,8,0,0,0-2.458.692,6.234,6.234,0,0,1-.866.4,2.847,2.847,0,0,1,.786-.557,7.241,7.241,0,0,1,2.492-.852,8.73,8.73,0,0,1,3.9.277,8.459,8.459,0,0,1,2.117.986,8.906,8.906,0,0,1,1.848,1.689,18.136,18.136,0,0,0,1.621,1.792,5.489,5.489,0,0,0,1.887,1.089,9.107,9.107,0,0,0,3.74.307c2.166-.25,3.488-.629,3.506-.544" transform="translate(-27.223 -30.75)" fill="#fff"/>
        <path id="Trazado_630972" data-name="Trazado 630972" d="M277.089,241.013c.009.013-.085.093-.275.235a7.836,7.836,0,0,1-.859.581,12.927,12.927,0,0,1-3.52,1.472,14.819,14.819,0,0,1-5.65.327,13.9,13.9,0,0,1-6.424-2.576,64.5,64.5,0,0,1-5.136-4.619,16.563,16.563,0,0,0-4.559-3.142,8.74,8.74,0,0,0-3.621-.8c-.885.014-1.369.147-1.378.1a1.123,1.123,0,0,1,.344-.118,5.172,5.172,0,0,1,1.027-.161,8.382,8.382,0,0,1,3.753.683,16.256,16.256,0,0,1,4.715,3.127c1.593,1.411,3.176,3.131,5.123,4.563a13.738,13.738,0,0,0,6.214,2.529,15.038,15.038,0,0,0,5.516-.224,14.224,14.224,0,0,0,3.509-1.315c.786-.416,1.2-.7,1.221-.662" transform="translate(-31.754 -30.025)" fill="#fff"/>
      </g>
    </g>
    <g id="Grupo_879738" data-name="Grupo 879738">
      <g id="Grupo_879737" data-name="Grupo 879737" clip-path="url(#clip-path)">
        <path id="Trazado_630973" data-name="Trazado 630973" d="M362.993,87.253a44.5,44.5,0,1,1,40.685-1.162,44.288,44.288,0,0,1-40.685,1.162M400.1,9.631a41.508,41.508,0,1,0,18.473,17.417A41.519,41.519,0,0,0,400.1,9.631" transform="translate(-43.642 -0.334)" fill="#263238"/>
        <path id="Trazado_630974" data-name="Trazado 630974" d="M447.557,147.655h0a5.534,5.534,0,0,1-7.615-1.8L410.827,98.672a.951.951,0,0,1,.31-1.308l6.211-3.833a.951.951,0,0,1,1.29.283l30.621,46.068a5.534,5.534,0,0,1-1.7,7.773" transform="translate(-53.083 -12.071)" fill="#263238"/>
        <path id="Trazado_630975" data-name="Trazado 630975" d="M364.222,84.673a44.5,44.5,0,1,1,40.685-1.162,44.288,44.288,0,0,1-40.685,1.162M401.327,7.051A41.508,41.508,0,1,0,419.8,24.467,41.519,41.519,0,0,0,401.327,7.051" transform="translate(-43.801 0)" fill="#455a64"/>
        <path id="Trazado_630976" data-name="Trazado 630976" d="M448.86,146.533l-.45.278a4.32,4.32,0,0,1-5.944-1.408L411.5,95.231l7.8-4.813,30.961,50.171a4.319,4.319,0,0,1-1.407,5.944" transform="translate(-53.189 -11.687)" fill="#455a64"/>
        <path id="Trazado_630977" data-name="Trazado 630977" d="M351.858,35.4a8.8,8.8,0,0,1,.247-1.375,12.479,12.479,0,0,1,.412-1.587,20.458,20.458,0,0,1,.695-2.06q.225-.566.467-1.177c.166-.408.385-.812.586-1.241.389-.867.92-1.733,1.454-2.657a34.44,34.44,0,0,1,4.263-5.467,34.484,34.484,0,0,1,5.351-4.411A30.1,30.1,0,0,1,367.95,13.9c.423-.213.821-.442,1.224-.62l1.164-.5a20.494,20.494,0,0,1,2.04-.751,12.417,12.417,0,0,1,1.576-.454,8.724,8.724,0,0,1,1.367-.285,8.783,8.783,0,0,1-1.323.444,14.7,14.7,0,0,0-1.543.52c-.592.231-1.282.448-2,.8l-1.141.517c-.4.183-.785.418-1.2.636-.84.42-1.674.979-2.566,1.54a32.762,32.762,0,0,0-9.5,9.76c-.536.906-1.073,1.755-1.47,2.606-.206.421-.43.817-.6,1.216s-.331.785-.487,1.155c-.334.727-.534,1.423-.748,2.02a14.66,14.66,0,0,0-.477,1.558,8.78,8.78,0,0,1-.408,1.334" transform="translate(-45.479 -1.459)" fill="#e0e0e0"/>
      </g>
    </g>
  </g>
</svg>
