<svg xmlns="http://www.w3.org/2000/svg" width="152.176" height="177.238" viewBox="0 0 152.176 177.238">
  <g id="Grupo_1034306" data-name="Grupo 1034306" transform="translate(-370 -17333.814)">
    <g id="Grupo_1034305" data-name="Grupo 1034305">
      <g id="Grupo_1034304" data-name="Grupo 1034304">
        <path id="Trazado_631917" data-name="Trazado 631917" d="M90.047,158.773c-39.368,0-71.282-31.407-71.282-70.152S50.679,18.467,90.047,18.467c.056,0,.11,0,.164,0V0c-.056,0-.108,0-.164,0C40.315,0,0,39.681,0,88.62S40.315,177.24,90.047,177.24c.056,0,.108,0,.164,0V158.768c-.054,0-.108,0-.164,0" transform="translate(370 17333.813)" fill="#50a3f3"/>
        <path id="Trazado_631918" data-name="Trazado 631918" d="M90.047,18.467c.056,0,.11,0,.164,0V0c-.056,0-.108,0-.164,0C40.315,0,0,39.681,0,88.62H18.765c0-38.742,31.914-70.154,71.282-70.154" transform="translate(370 17333.813)" fill="#2b95f9"/>
        <path id="Trazado_631925" data-name="Trazado 631925" d="M114.737,52.61c34.315,0,62.129,27.376,62.129,61.143S149.052,174.9,114.737,174.9s-62.128-27.373-62.128-61.143S80.425,52.61,114.737,52.61" transform="translate(345.31 17308.68)" fill="#50a3f3"/>
        <path id="Trazado_631926" data-name="Trazado 631926" d="M114.737,52.61c-34.312,0-62.128,27.376-62.128,61.143H176.866c0-33.767-27.815-61.143-62.129-61.143" transform="translate(345.31 17308.68)" fill="#2b95f9"/>
        <g id="Grupo_880016" data-name="Grupo 880016" transform="translate(427.549 17388.221)">
          <g id="Grupo_879973" data-name="Grupo 879973">
            <g id="Grupo_879972" data-name="Grupo 879972">
              <path id="Trazado_631930" data-name="Trazado 631930" d="M55.45,0H6A6.008,6.008,0,0,0,0,6V55.45a6.008,6.008,0,0,0,6,6H40.66a1.2,1.2,0,0,0,0-2.4H6a3.606,3.606,0,0,1-3.394-2.4H14.463a1.2,1.2,0,1,0,0-2.4H2.4V11.036c.04,0,.08.006.121.006H59.05V55.45a3.6,3.6,0,0,1-3.6,3.6H50.529a1.2,1.2,0,1,0,0,2.4H55.45a6.008,6.008,0,0,0,6-6V6A6.008,6.008,0,0,0,55.45,0Zm3.6,8.642H2.521c-.041,0-.081,0-.121.006V6A3.6,3.6,0,0,1,6,2.4H55.45A3.6,3.6,0,0,1,59.05,6Z" fill="#12263f"/>
            </g>
          </g>
          <g id="Grupo_879975" data-name="Grupo 879975" transform="translate(17.543 54.248)">
            <g id="Grupo_879974" data-name="Grupo 879974">
              <path id="Trazado_631931" data-name="Trazado 631931" d="M148.219,452.342a1.2,1.2,0,1,0,.352.849A1.209,1.209,0,0,0,148.219,452.342Z" transform="translate(-146.17 -451.99)" fill="#12263f"/>
            </g>
          </g>
          <g id="Grupo_879977" data-name="Grupo 879977" transform="translate(44.528 59.05)">
            <g id="Grupo_879976" data-name="Grupo 879976">
              <path id="Trazado_631932" data-name="Trazado 631932" d="M373.049,492.352a1.2,1.2,0,1,0,.352.849A1.209,1.209,0,0,0,373.049,492.352Z" transform="translate(-371 -492)" fill="#12263f"/>
            </g>
          </g>
          <g id="Grupo_879979" data-name="Grupo 879979" transform="translate(25.452 4.321)">
            <g id="Grupo_879978" data-name="Grupo 879978">
              <path id="Trazado_631933" data-name="Trazado 631933" d="M240.382,36H213.265a1.2,1.2,0,1,0,0,2.4h27.117a1.2,1.2,0,1,0,0-2.4Z" transform="translate(-212.065 -36)" fill="#12263f"/>
            </g>
          </g>
          <g id="Grupo_879981" data-name="Grupo 879981" transform="translate(11.282 4.321)">
            <g id="Grupo_879980" data-name="Grupo 879980">
              <path id="Trazado_631934" data-name="Trazado 631934" d="M96.049,36.352a1.2,1.2,0,1,0,.352.849A1.209,1.209,0,0,0,96.049,36.352Z" transform="translate(-94 -36)" fill="#12263f"/>
            </g>
          </g>
          <g id="Grupo_879983" data-name="Grupo 879983" transform="translate(6.481 4.321)">
            <g id="Grupo_879982" data-name="Grupo 879982">
              <path id="Trazado_631935" data-name="Trazado 631935" d="M56.049,36.352a1.2,1.2,0,1,0,.352.849A1.209,1.209,0,0,0,56.049,36.352Z" transform="translate(-54 -36)" fill="#12263f"/>
            </g>
          </g>
          <g id="Grupo_879985" data-name="Grupo 879985" transform="translate(16.083 4.321)">
            <g id="Grupo_879984" data-name="Grupo 879984">
              <path id="Trazado_631936" data-name="Trazado 631936" d="M136.049,36.352a1.2,1.2,0,1,0,.352.849A1.209,1.209,0,0,0,136.049,36.352Z" transform="translate(-134 -36)" fill="#12263f"/>
            </g>
          </g>
          <g id="Grupo_879987" data-name="Grupo 879987" transform="translate(6.541 15.363)">
            <g id="Grupo_879986" data-name="Grupo 879986">
              <path id="Trazado_631937" data-name="Trazado 631937" d="M62.421,128H55.7a1.2,1.2,0,0,0-1.2,1.2v6.721a1.2,1.2,0,0,0,1.2,1.2h6.721a1.2,1.2,0,0,0,1.2-1.2V129.2A1.2,1.2,0,0,0,62.421,128Zm-1.2,6.721H56.9V130.4h4.321Z" transform="translate(-54.5 -128)" fill="#12263f"/>
            </g>
          </g>
          <g id="Grupo_879989" data-name="Grupo 879989" transform="translate(6.541 28.805)">
            <g id="Grupo_879988" data-name="Grupo 879988">
              <path id="Trazado_631938" data-name="Trazado 631938" d="M62.421,240H55.7a1.2,1.2,0,0,0-1.2,1.2v6.721a1.2,1.2,0,0,0,1.2,1.2h6.721a1.2,1.2,0,0,0,1.2-1.2V241.2A1.2,1.2,0,0,0,62.421,240Zm-1.2,6.721H56.9V242.4h4.321Z" transform="translate(-54.5 -240)" fill="#12263f"/>
            </g>
          </g>
          <g id="Grupo_879991" data-name="Grupo 879991" transform="translate(6.541 42.247)">
            <g id="Grupo_879990" data-name="Grupo 879990">
              <path id="Trazado_631939" data-name="Trazado 631939" d="M62.421,352H55.7a1.2,1.2,0,0,0-1.2,1.2v6.721a1.2,1.2,0,0,0,1.2,1.2h6.721a1.2,1.2,0,0,0,1.2-1.2V353.2A1.2,1.2,0,0,0,62.421,352Zm-1.2,6.721H56.9V354.4h4.321Z" transform="translate(-54.5 -352)" fill="#12263f"/>
            </g>
          </g>
          <g id="Grupo_879993" data-name="Grupo 879993" transform="translate(20.764 22.084)">
            <g id="Grupo_879992" data-name="Grupo 879992">
              <path id="Trazado_631940" data-name="Trazado 631940" d="M174.25,184h-.05a1.2,1.2,0,0,0,0,2.4h.05a1.2,1.2,0,0,0,0-2.4Z" transform="translate(-173 -184)" fill="#12263f"/>
            </g>
          </g>
          <g id="Grupo_879995" data-name="Grupo 879995" transform="translate(20.764 35.526)">
            <g id="Grupo_879994" data-name="Grupo 879994">
              <path id="Trazado_631941" data-name="Trazado 631941" d="M174.25,296h-.05a1.2,1.2,0,1,0,0,2.4h.05a1.2,1.2,0,1,0,0-2.4Z" transform="translate(-173 -296)" fill="#12263f"/>
            </g>
          </g>
          <g id="Grupo_879997" data-name="Grupo 879997" transform="translate(20.764 48.859)">
            <g id="Grupo_879996" data-name="Grupo 879996">
              <path id="Trazado_631942" data-name="Trazado 631942" d="M175.049,407.442a1.2,1.2,0,1,0,.352.849A1.2,1.2,0,0,0,175.049,407.442Z" transform="translate(-173 -407.09)" fill="#12263f"/>
            </g>
          </g>
          <g id="Grupo_879999" data-name="Grupo 879999" transform="translate(38.072 15.472)">
            <g id="Grupo_879998" data-name="Grupo 879998">
              <path id="Trazado_631943" data-name="Trazado 631943" d="M321.753,135.525h-2.139v-.905h1.262a1.2,1.2,0,0,0,0-2.4h-1.262v-.905h2.139a1.2,1.2,0,0,0,0-2.4h-3.339a1.2,1.2,0,0,0-1.2,1.2v6.611a1.2,1.2,0,0,0,1.2,1.2h3.339a1.2,1.2,0,0,0,0-2.4Z" transform="translate(-317.213 -128.914)" fill="#12263f"/>
            </g>
          </g>
          <g id="Grupo_880001" data-name="Grupo 880001" transform="translate(46.274 15.472)">
            <g id="Grupo_880000" data-name="Grupo 880000">
              <path id="Trazado_631944" data-name="Trazado 631944" d="M392.147,128.914h-5.4a1.2,1.2,0,1,0,0,2.4h1.5v5.411a1.2,1.2,0,1,0,2.4,0v-5.411h1.5a1.2,1.2,0,0,0,0-2.4Z" transform="translate(-385.546 -128.914)" fill="#12263f"/>
            </g>
          </g>
          <g id="Grupo_880003" data-name="Grupo 880003" transform="translate(26.18 15.472)">
            <g id="Grupo_880002" data-name="Grupo 880002">
              <path id="Trazado_631945" data-name="Trazado 631945" d="M225.939,128.913a1.2,1.2,0,0,0-1.2,1.2v3.714l-4.563-4.563a1.2,1.2,0,0,0-2.049.849v6.611a1.2,1.2,0,0,0,2.4,0v-3.714l4.563,4.563a1.2,1.2,0,0,0,2.049-.849v-6.611A1.2,1.2,0,0,0,225.939,128.913Z" transform="translate(-218.127 -128.913)" fill="#12263f"/>
            </g>
          </g>
          <g id="Grupo_880005" data-name="Grupo 880005" transform="translate(45.958 42.247)">
            <g id="Grupo_880004" data-name="Grupo 880004">
              <path id="Trazado_631946" data-name="Trazado 631946" d="M391.185,352.091a1.2,1.2,0,0,0-1.308.26l-2.457,2.457-2.457-2.457a1.2,1.2,0,0,0-2.049.849v6.611a1.2,1.2,0,1,0,2.4,0V356.1l1.257,1.257a1.2,1.2,0,0,0,1.7,0l1.257-1.257v3.714a1.2,1.2,0,1,0,2.4,0V353.2A1.2,1.2,0,0,0,391.185,352.091Z" transform="translate(-382.914 -352)" fill="#12263f"/>
            </g>
          </g>
          <g id="Grupo_880007" data-name="Grupo 880007" transform="translate(35.466 42.247)">
            <g id="Grupo_880006" data-name="Grupo 880006">
              <path id="Trazado_631947" data-name="Trazado 631947" d="M300.061,352a4.561,4.561,0,1,0,4.561,4.561A4.566,4.566,0,0,0,300.061,352Zm0,6.721a2.16,2.16,0,1,1,2.16-2.16A2.163,2.163,0,0,1,300.061,358.721Z" transform="translate(-295.5 -352)" fill="#12263f"/>
            </g>
          </g>
          <g id="Grupo_880009" data-name="Grupo 880009" transform="translate(26.182 42.247)">
            <g id="Grupo_880008" data-name="Grupo 880008">
              <path id="Trazado_631948" data-name="Trazado 631948" d="M224.233,358.088a2.16,2.16,0,1,1,0-3.055,1.2,1.2,0,0,0,1.7-1.7,4.561,4.561,0,1,0,0,6.45,1.2,1.2,0,0,0-1.7-1.7Z" transform="translate(-218.147 -352)" fill="#12263f"/>
            </g>
          </g>
          <g id="Grupo_880011" data-name="Grupo 880011" transform="translate(26.18 28.805)">
            <g id="Grupo_880010" data-name="Grupo 880010">
              <path id="Trazado_631949" data-name="Trazado 631949" d="M222.688,240a4.561,4.561,0,1,0,4.561,4.561A4.566,4.566,0,0,0,222.688,240Zm0,6.721a2.16,2.16,0,1,1,2.16-2.16A2.163,2.163,0,0,1,222.688,246.721Z" transform="translate(-218.127 -240)" fill="#12263f"/>
            </g>
          </g>
          <g id="Grupo_880013" data-name="Grupo 880013" transform="translate(37.112 28.805)">
            <g id="Grupo_880012" data-name="Grupo 880012">
              <path id="Trazado_631950" data-name="Trazado 631950" d="M315.727,246.839l-1.371-.825A3.12,3.12,0,0,0,313.188,240h-2.775a1.2,1.2,0,0,0-1.2,1.2v6.666a1.2,1.2,0,1,0,2.4,0v-.7l2.876,1.731a1.2,1.2,0,1,0,1.238-2.057Zm-2.539-3h-1.575V242.4h1.575a.72.72,0,1,1,0,1.44Z" transform="translate(-309.213 -240.001)" fill="#12263f"/>
            </g>
          </g>
          <g id="Grupo_880015" data-name="Grupo 880015" transform="translate(45.903 28.805)">
            <g id="Grupo_880014" data-name="Grupo 880014">
              <path id="Trazado_631951" data-name="Trazado 631951" d="M390.378,243.361h-1.855a1.2,1.2,0,0,0,0,2.4h.29a2.16,2.16,0,1,1-1.8-3.361,1.2,1.2,0,0,0,0-2.4,4.561,4.561,0,1,0,4.561,4.561A1.2,1.2,0,0,0,390.378,243.361Z" transform="translate(-382.457 -240)" fill="#12263f"/>
            </g>
          </g>
        </g>
      </g>
    </g>
  </g>
</svg>
