<svg xmlns="http://www.w3.org/2000/svg" width="525" height="48.171" viewBox="0 0 525 48.171">
  <g id="Grupo_1034305" data-name="Grupo 1034305" transform="translate(-810 -4819.324)">
    <path id="Trazado_628306" data-name="Trazado 628306" d="M-7548.467-6528.718l-14.479-24.453h164.987l13.958,24.453L-7397.959-6505l-164.987-.117Z" transform="translate(8376 11372.495)" fill="#eb6f2d"/>
    <path id="Trazado_628307" data-name="Trazado 628307" d="M-7548.467-6528.718l-14.479-24.453h164.987l13.958,24.453L-7397.959-6505l-164.987-.117Z" transform="translate(8547.5 11372.495)" fill="#617a0b"/>
    <path id="Trazado_628308" data-name="Trazado 628308" d="M-7548.467-6528.718l-14.479-24.453h164.987l13.958,24.453L-7397.959-6505l-164.987-.117Z" transform="translate(8719 11372.495)" fill="#ffb338"/>
    <path id="Trazado_634273" data-name="Trazado 634273" d="M9.258,10.924l1.436-7.588h2.19L10.518,14H8.306L6.57,6.866,4.834,14H2.622L.256,3.336h2.19l1.443,7.573L5.647,3.336h1.86Zm8.093,3.223a3.89,3.89,0,0,1-2.838-1.069,3.8,3.8,0,0,1-1.095-2.849v-.205a4.787,4.787,0,0,1,.461-2.135,3.386,3.386,0,0,1,1.307-1.45,3.669,3.669,0,0,1,1.93-.509,3.289,3.289,0,0,1,2.56,1.025,4.167,4.167,0,0,1,.934,2.908v.864H15.564a1.966,1.966,0,0,0,.619,1.245,1.871,1.871,0,0,0,1.307.469,2.285,2.285,0,0,0,1.912-.886l1.04,1.165a3.178,3.178,0,0,1-1.289,1.051A4.229,4.229,0,0,1,17.351,14.146Zm-.242-6.511a1.323,1.323,0,0,0-1.022.427,2.209,2.209,0,0,0-.5,1.221H18.53V9.114a1.576,1.576,0,0,0-.381-1.092A1.365,1.365,0,0,0,17.109,7.635Zm11.843,2.476a4.8,4.8,0,0,1-.813,2.97,2.693,2.693,0,0,1-2.271,1.066,2.474,2.474,0,0,1-2.058-.989l-.1.842h-1.9V2.75h2.117V6.786a2.411,2.411,0,0,1,1.926-.857,2.715,2.715,0,0,1,2.274,1.066,4.806,4.806,0,0,1,.824,3Zm-2.117-.154A3.153,3.153,0,0,0,26.455,8.2,1.288,1.288,0,0,0,25.32,7.65a1.4,1.4,0,0,0-1.392.828V11.6a1.415,1.415,0,0,0,1.406.835,1.307,1.307,0,0,0,1.348-1.011A5.214,5.214,0,0,0,26.836,9.957ZM37.288,12.44a1.388,1.388,0,0,0,.952-.322,1.129,1.129,0,0,0,.381-.857h1.985a2.715,2.715,0,0,1-.439,1.476,2.9,2.9,0,0,1-1.183,1.04,3.7,3.7,0,0,1-1.659.37,3.44,3.44,0,0,1-2.681-1.08,4.275,4.275,0,0,1-.981-2.985V9.942a4.226,4.226,0,0,1,.974-2.922A3.4,3.4,0,0,1,37.31,5.929a3.333,3.333,0,0,1,2.384.846,3,3,0,0,1,.912,2.252H38.621a1.455,1.455,0,0,0-.381-1.005,1.416,1.416,0,0,0-2.084.153,3.125,3.125,0,0,0-.377,1.749v.22a3.164,3.164,0,0,0,.374,1.761A1.291,1.291,0,0,0,37.288,12.44Zm4.2-2.476a4.7,4.7,0,0,1,.454-2.1,3.324,3.324,0,0,1,1.307-1.428,3.814,3.814,0,0,1,1.981-.505,3.609,3.609,0,0,1,2.618.981,3.939,3.939,0,0,1,1.132,2.666l.015.542a4.142,4.142,0,0,1-1.018,2.926,3.946,3.946,0,0,1-5.468,0,4.215,4.215,0,0,1-1.022-2.988Zm2.117.15a2.962,2.962,0,0,0,.425,1.727,1.526,1.526,0,0,0,2.417.007,3.241,3.241,0,0,0,.432-1.889,2.933,2.933,0,0,0-.432-1.716,1.4,1.4,0,0,0-1.216-.609,1.382,1.382,0,0,0-1.2.605A3.3,3.3,0,0,0,43.6,10.115ZM54.749,8.06A5.751,5.751,0,0,0,53.987,8a1.55,1.55,0,0,0-1.575.813V14H50.3V6.075h2l.059.945a1.961,1.961,0,0,1,1.765-1.091,2.218,2.218,0,0,1,.659.1ZM62.9,10.111a4.753,4.753,0,0,1-.831,2.933,2.665,2.665,0,0,1-2.245,1.1,2.469,2.469,0,0,1-1.941-.835v3.735H55.767V6.075h1.963l.073.776a2.488,2.488,0,0,1,2.007-.923,2.683,2.683,0,0,1,2.278,1.084A4.882,4.882,0,0,1,62.9,10Zm-2.117-.154a3.119,3.119,0,0,0-.392-1.707,1.276,1.276,0,0,0-1.139-.6,1.386,1.386,0,0,0-1.37.762v3.245a1.41,1.41,0,0,0,1.384.784Q60.784,12.44,60.784,9.957Zm3.1.007a4.7,4.7,0,0,1,.454-2.1,3.324,3.324,0,0,1,1.307-1.428,3.814,3.814,0,0,1,1.981-.505,3.609,3.609,0,0,1,2.618.981,3.939,3.939,0,0,1,1.132,2.666l.015.542a4.142,4.142,0,0,1-1.018,2.926,3.946,3.946,0,0,1-5.468,0,4.215,4.215,0,0,1-1.022-2.988Zm2.117.15a2.962,2.962,0,0,0,.425,1.727,1.526,1.526,0,0,0,2.417.007,3.241,3.241,0,0,0,.432-1.889,2.933,2.933,0,0,0-.432-1.716,1.4,1.4,0,0,0-1.216-.609,1.382,1.382,0,0,0-1.2.605A3.3,3.3,0,0,0,66,10.115ZM77.146,8.06A5.751,5.751,0,0,0,76.384,8a1.55,1.55,0,0,0-1.575.813V14H72.693V6.075h2l.059.945a1.961,1.961,0,0,1,1.765-1.091,2.218,2.218,0,0,1,.659.1ZM82.537,14a2.351,2.351,0,0,1-.212-.71,2.561,2.561,0,0,1-2,.857,2.814,2.814,0,0,1-1.93-.674,2.167,2.167,0,0,1-.765-1.7,2.24,2.24,0,0,1,.934-1.934,4.608,4.608,0,0,1,2.7-.681h.974V8.7a1.306,1.306,0,0,0-.282-.879,1.109,1.109,0,0,0-.89-.33,1.261,1.261,0,0,0-.839.256.871.871,0,0,0-.3.7H77.805a2.126,2.126,0,0,1,.425-1.274,2.808,2.808,0,0,1,1.2-.919,4.378,4.378,0,0,1,1.743-.333,3.459,3.459,0,0,1,2.325.736,2.575,2.575,0,0,1,.861,2.069v3.435a3.789,3.789,0,0,0,.315,1.707V14Zm-1.75-1.472a1.823,1.823,0,0,0,.864-.209,1.371,1.371,0,0,0,.586-.56V10.4h-.791q-1.589,0-1.692,1.1l-.007.125a.847.847,0,0,0,.278.652A1.081,1.081,0,0,0,80.786,12.528Zm7.734-8.4V6.075h1.355V7.628H88.521v3.955a.944.944,0,0,0,.168.63.846.846,0,0,0,.645.19,3.376,3.376,0,0,0,.623-.051v1.6a4.358,4.358,0,0,1-1.282.19A2.021,2.021,0,0,1,86.4,11.9V7.628H85.247V6.075H86.4V4.127ZM93.289,14H91.165V6.075h2.124ZM91.04,4.024a1.042,1.042,0,0,1,.319-.784,1.373,1.373,0,0,1,1.732,0,1.036,1.036,0,0,1,.322.784,1.039,1.039,0,0,1-.326.791,1.358,1.358,0,0,1-1.721,0A1.039,1.039,0,0,1,91.04,4.024ZM98,11.415,99.47,6.075h2.212L99.009,14H96.987L94.314,6.075h2.212Zm9.1,2.585a2.351,2.351,0,0,1-.212-.71,2.561,2.561,0,0,1-2,.857,2.814,2.814,0,0,1-1.93-.674,2.167,2.167,0,0,1-.765-1.7,2.24,2.24,0,0,1,.934-1.934,4.608,4.608,0,0,1,2.7-.681h.974V8.7a1.306,1.306,0,0,0-.282-.879,1.109,1.109,0,0,0-.89-.33,1.261,1.261,0,0,0-.839.256.871.871,0,0,0-.3.7h-2.117a2.126,2.126,0,0,1,.425-1.274,2.808,2.808,0,0,1,1.2-.919,4.378,4.378,0,0,1,1.743-.333,3.459,3.459,0,0,1,2.325.736,2.575,2.575,0,0,1,.861,2.069v3.435a3.789,3.789,0,0,0,.315,1.707V14Zm-1.75-1.472a1.823,1.823,0,0,0,.864-.209,1.371,1.371,0,0,0,.586-.56V10.4H106q-1.589,0-1.692,1.1l-.007.125a.847.847,0,0,0,.278.652A1.081,1.081,0,0,0,105.344,12.528Z" transform="translate(843.5 4834.909)" fill="#12263f"/>
    <path id="Trazado_634274" data-name="Trazado 634274" d="M8.979,7.116H5.713V16h-2.2V7.116H.293V5.336H8.979ZM12.327,16H10.2V8.075h2.124ZM10.078,6.024a1.042,1.042,0,0,1,.319-.784,1.2,1.2,0,0,1,.868-.308,1.2,1.2,0,0,1,.864.308,1.036,1.036,0,0,1,.322.784,1.039,1.039,0,0,1-.326.791,1.358,1.358,0,0,1-1.721,0A1.039,1.039,0,0,1,10.078,6.024Zm7.639,10.122a3.89,3.89,0,0,1-2.838-1.069,3.8,3.8,0,0,1-1.095-2.849v-.205a4.787,4.787,0,0,1,.461-2.135,3.386,3.386,0,0,1,1.307-1.45,3.669,3.669,0,0,1,1.93-.509,3.289,3.289,0,0,1,2.56,1.025,4.167,4.167,0,0,1,.934,2.908v.864H15.93a1.966,1.966,0,0,0,.619,1.245,1.871,1.871,0,0,0,1.307.469,2.285,2.285,0,0,0,1.912-.886l1.04,1.165a3.178,3.178,0,0,1-1.289,1.051A4.229,4.229,0,0,1,17.717,16.146Zm-.242-6.511a1.323,1.323,0,0,0-1.022.427,2.209,2.209,0,0,0-.5,1.221H18.9v-.169a1.576,1.576,0,0,0-.381-1.092A1.365,1.365,0,0,0,17.476,9.635Zm6.65-1.56.066.916A2.767,2.767,0,0,1,26.47,7.929a2.3,2.3,0,0,1,1.875.74,3.451,3.451,0,0,1,.63,2.212V16H26.858V10.932a1.373,1.373,0,0,0-.293-.978,1.312,1.312,0,0,0-.974-.3,1.456,1.456,0,0,0-1.34.762V16H22.134V8.075Zm6.123,3.9a4.776,4.776,0,0,1,.831-2.952,2.7,2.7,0,0,1,2.274-1.1,2.427,2.427,0,0,1,1.912.864V4.75H37.39V16H35.479l-.1-.842a2.491,2.491,0,0,1-2.036.989,2.69,2.69,0,0,1-2.245-1.1A4.93,4.93,0,0,1,30.249,11.979Zm2.117.158a3.128,3.128,0,0,0,.388,1.709,1.265,1.265,0,0,0,1.128.594,1.416,1.416,0,0,0,1.384-.829V10.479A1.4,1.4,0,0,0,33.9,9.65Q32.366,9.65,32.366,12.137ZM43.623,16a2.351,2.351,0,0,1-.212-.71,2.561,2.561,0,0,1-2,.857,2.814,2.814,0,0,1-1.93-.674,2.167,2.167,0,0,1-.765-1.7,2.24,2.24,0,0,1,.934-1.934,4.608,4.608,0,0,1,2.7-.681h.974V10.7a1.306,1.306,0,0,0-.282-.879,1.109,1.109,0,0,0-.89-.33,1.261,1.261,0,0,0-.839.256.871.871,0,0,0-.3.7H38.892a2.126,2.126,0,0,1,.425-1.274,2.808,2.808,0,0,1,1.2-.919,4.378,4.378,0,0,1,1.743-.333,3.459,3.459,0,0,1,2.325.736,2.575,2.575,0,0,1,.861,2.069v3.435a3.789,3.789,0,0,0,.315,1.707V16Zm-1.75-1.472a1.823,1.823,0,0,0,.864-.209,1.371,1.371,0,0,0,.586-.56V12.4h-.791q-1.589,0-1.692,1.1l-.007.125a.847.847,0,0,0,.278.652A1.081,1.081,0,0,0,41.873,14.528Zm12.678-6.6a3.179,3.179,0,0,1,1.805.538A3.032,3.032,0,0,1,57.469,9.91a4.464,4.464,0,0,1,.253,2.04,4.822,4.822,0,0,1-1.315,3.058,3.712,3.712,0,0,1-2.831,1.139,3.169,3.169,0,0,1-1.787-.531,3.02,3.02,0,0,1-1.113-1.432,4.366,4.366,0,0,1-.256-2.021,4.964,4.964,0,0,1,1.333-3.12A3.636,3.636,0,0,1,54.551,7.929Zm-2.087,4.983a1.829,1.829,0,0,0,.33,1.108,1.1,1.1,0,0,0,.886.421,1.605,1.605,0,0,0,1.494-.874,4.356,4.356,0,0,0,.505-2.373,1.989,1.989,0,0,0-.341-1.122,1.077,1.077,0,0,0-.89-.435,1.607,1.607,0,0,0-1.476.867A4.311,4.311,0,0,0,52.463,12.911Zm9.119-4.844-.176.938a2.852,2.852,0,0,1,2.307-1.077,1.9,1.9,0,0,1,1.655.82,3.305,3.305,0,0,1,.388,2.212L64.922,16H62.856l.85-5.061a2.37,2.37,0,0,0,.015-.52.839.839,0,0,0-.937-.769,1.778,1.778,0,0,0-1.458.754L60.337,16H58.271l1.377-7.925ZM68.723,16h-2.08L68.6,4.75h2.073Zm3.933,0h-2.08l1.377-7.925h2.08Zm-.461-9.939a1.032,1.032,0,0,1,.322-.813,1.24,1.24,0,0,1,1.626-.037,1.027,1.027,0,0,1,.359.776,1.061,1.061,0,0,1-.3.791,1.139,1.139,0,0,1-.831.352,1.158,1.158,0,0,1-.809-.278A1.023,1.023,0,0,1,72.195,6.061Zm5.479,2.007-.176.938A2.852,2.852,0,0,1,79.8,7.929a1.9,1.9,0,0,1,1.655.82,3.305,3.305,0,0,1,.388,2.212L81.013,16H78.948l.85-5.061a2.37,2.37,0,0,0,.015-.52.839.839,0,0,0-.937-.769,1.778,1.778,0,0,0-1.458.754L76.428,16H74.363L75.74,8.075ZM86.4,16.146a3.448,3.448,0,0,1-1.842-.509,3.086,3.086,0,0,1-1.2-1.377,3.838,3.838,0,0,1-.308-1.93l.022-.293a5.123,5.123,0,0,1,.674-2.124,4.07,4.07,0,0,1,1.45-1.49,3.588,3.588,0,0,1,1.963-.494,2.741,2.741,0,0,1,2.318,1.126,3.859,3.859,0,0,1,.6,2.776l-.117.9H85.1a1.7,1.7,0,0,0,.374,1.23,1.426,1.426,0,0,0,1.1.476,2.534,2.534,0,0,0,1.978-.879l.945,1.172a2.939,2.939,0,0,1-1.289,1.051A4.215,4.215,0,0,1,86.4,16.146Zm.659-6.511a1.468,1.468,0,0,0-1.014.359,3.153,3.153,0,0,0-.795,1.3h2.842l.044-.19a1.941,1.941,0,0,0,.007-.557,1.063,1.063,0,0,0-.359-.663A1.125,1.125,0,0,0,87.056,9.635Z" transform="translate(1027 4834.909)" fill="#fff"/>
    <path id="Trazado_634275" data-name="Trazado 634275" d="M.952,14V3.336H4.688a4.9,4.9,0,0,1,2.944.743,2.542,2.542,0,0,1,1,2.179,2.409,2.409,0,0,1-.4,1.381,2.327,2.327,0,0,1-1.121.875A2.251,2.251,0,0,1,8.4,9.342a2.447,2.447,0,0,1,.472,1.523A2.814,2.814,0,0,1,7.9,13.194,4.418,4.418,0,0,1,5.1,14Zm2.2-4.644v2.878H5.032a1.816,1.816,0,0,0,1.212-.37,1.268,1.268,0,0,0,.436-1.022A1.339,1.339,0,0,0,5.164,9.356Zm0-1.553H4.775q1.663-.029,1.663-1.326a1.225,1.225,0,0,0-.421-1.044,2.215,2.215,0,0,0-1.329-.319H3.149ZM12.62,14H10.5V2.75H12.62Zm1.414-4.036a4.7,4.7,0,0,1,.454-2.1,3.324,3.324,0,0,1,1.307-1.428,3.814,3.814,0,0,1,1.981-.505,3.609,3.609,0,0,1,2.618.981,3.939,3.939,0,0,1,1.132,2.666l.015.542a4.142,4.142,0,0,1-1.018,2.926,3.539,3.539,0,0,1-2.732,1.1,3.556,3.556,0,0,1-2.736-1.1,4.215,4.215,0,0,1-1.022-2.988Zm2.117.15a2.962,2.962,0,0,0,.425,1.727,1.526,1.526,0,0,0,2.417.007,3.241,3.241,0,0,0,.432-1.889,2.933,2.933,0,0,0-.432-1.716,1.4,1.4,0,0,0-1.216-.609,1.382,1.382,0,0,0-1.2.605A3.3,3.3,0,0,0,16.15,10.115Zm6.387-.136A4.644,4.644,0,0,1,23.4,7.042a2.812,2.812,0,0,1,2.34-1.113,2.466,2.466,0,0,1,2.029.894l.088-.747H29.78v7.661a3.387,3.387,0,0,1-.472,1.809,3.034,3.034,0,0,1-1.329,1.172,4.673,4.673,0,0,1-2.007.4,4.346,4.346,0,0,1-1.7-.348,3.016,3.016,0,0,1-1.252-.9l.938-1.289a2.48,2.48,0,0,0,1.919.886,1.815,1.815,0,0,0,1.311-.45,1.69,1.69,0,0,0,.469-1.278v-.425a2.448,2.448,0,0,1-1.926.828,2.8,2.8,0,0,1-2.311-1.117,4.643,4.643,0,0,1-.883-2.963Zm2.117.158a2.892,2.892,0,0,0,.432,1.691,1.375,1.375,0,0,0,1.187.612,1.47,1.47,0,0,0,1.384-.726V8.376a1.466,1.466,0,0,0-1.37-.726,1.383,1.383,0,0,0-1.2.624A3.26,3.26,0,0,0,24.653,10.137Z" transform="translate(1230 4834.909)" fill="#12263f"/>
  </g>
</svg>
