<svg xmlns="http://www.w3.org/2000/svg" width="78.227" height="53.6" viewBox="0 0 78.227 53.6">
  <g id="Grupo_1034305" data-name="Grupo 1034305" transform="translate(-180 -7550.4)">
    <path id="Trazado_194609" data-name="Trazado 194609" d="M0,0,78.227,36.813H0Z" transform="translate(180 7567.187)" fill="#5f914e"/>
    <g id="Grupo_880421" data-name="Grupo 880421" transform="translate(195.589 7550.4)">
      <path id="Trazado_633258" data-name="Trazado 633258" d="M56.221,53.6H10.65a3.136,3.136,0,0,0-3.136,3.136v24.04H59.357V56.741A3.136,3.136,0,0,0,56.221,53.6Z" transform="translate(-6.73 -48.013)" fill="#90caf9"/>
      <path id="Trazado_633259" data-name="Trazado 633259" d="M71.356,76.6V65.52H68.847V53.6H33.31v1.881H22.544V74.3H33.31v4.39H56.932v2.09h1.032L63.109,76.6Z" transform="translate(-20.192 -48.013)" fill="#b6e1fd"/>
      <rect id="Rectángulo_329455" data-name="Rectángulo 329455" width="22.995" height="27.803" transform="translate(15.208 0.784)" fill="#ffb338"/>
      <path id="Trazado_633260" data-name="Trazado 633260" d="M168.78,44.292V17.534h-6.271v5.644H145.785V44.292H168.78ZM164.6,42.2h-1.777V34.257H164.6Z" transform="translate(-130.577 -15.705)" fill="#f5b21b"/>
      <path id="Trazado_634254" data-name="Trazado 634254" d="M0,0H25.712V14.633H0Z" transform="translate(4.442 9.564)" fill="#0082ff"/>
      <path id="Trazado_633261" data-name="Trazado 633261" d="M7.515,320.385a3.136,3.136,0,0,0,3.136,3.136H56.222a3.136,3.136,0,0,0,3.136-3.136v-6.271H7.515Z" transform="translate(-6.731 -281.346)" fill="#b0bec5"/>
      <path id="Trazado_633262" data-name="Trazado 633262" d="M158.76,464.407h-20.9a2.09,2.09,0,0,0-2.09,2.09v2.09H160.85V466.5A2.09,2.09,0,0,0,158.76,464.407Z" transform="translate(-121.602 -415.961)" fill="#e0e0e0"/>
      <rect id="Rectángulo_329457" data-name="Rectángulo 329457" width="14.633" height="6.271" transform="translate(19.389 42.175)" fill="#b0bec5"/>
      <rect id="Rectángulo_329458" data-name="Rectángulo 329458" width="3.136" height="3.136" transform="translate(25.138 35.903)" fill="#fff"/>
      <rect id="Rectángulo_329459" data-name="Rectángulo 329459" width="25.712" height="2.09" transform="translate(4.442 22.106)" fill="#077fa6"/>
      <path id="Trazado_633264" data-name="Trazado 633264" d="M62.063,179.77l2.129-2.28L62.7,176.026l-3.5,3.744H52.714L50.6,181.86H75.475v-2.09Z" transform="translate(-45.321 -157.663)" fill="#7cb342"/>
      <rect id="Rectángulo_329460" data-name="Rectángulo 329460" width="12.543" height="12.543" transform="translate(34.022 3.92)" fill="#fd4c1b"/>
      <path id="Trazado_633265" data-name="Trazado 633265" d="M370.4,75.255l-4.181,2.613V72.642Z" transform="translate(-328.012 -65.064)" fill="#fff"/>
      <path id="Trazado_633266" data-name="Trazado 633266" d="M359.137,187.867H346.176v6.9h2.718v2.718l3.345-2.718h6.9Z" transform="translate(-310.064 -168.269)" fill="#febbac"/>
      <rect id="Rectángulo_329461" data-name="Rectángulo 329461" width="25.085" height="2.09" transform="translate(14.163 50.536)" fill="#bdbdbd"/>
      <rect id="Rectángulo_329462" data-name="Rectángulo 329462" width="14.633" height="2.09" transform="translate(19.389 42.175)" fill="#90a4ae"/>
      <path id="Trazado_633267" data-name="Trazado 633267" d="M49.491,4.808H47.348V3.136H38.987V0H14.424V4.808H3.92A3.924,3.924,0,0,0,0,8.728V39.039a3.924,3.924,0,0,0,3.92,3.92H18.6v4.7H16.253a2.878,2.878,0,0,0-2.874,2.874v2.874H40.032V50.536a2.878,2.878,0,0,0-2.874-2.874H34.806v-4.7H49.491a3.924,3.924,0,0,0,3.92-3.92V8.728A3.924,3.924,0,0,0,49.491,4.808Zm-3.711-.1V15.678H34.806V4.7Zm-16.41,5.644V15.7l-4.294-3.668-6.23,6.67-4.582-4.492L5.226,23.146v-12.8ZM25.2,14.2l4.172,3.564v5.649H16.595ZM14.449,23.413H7.187l7.083-7,3.507,3.438ZM37.158,49.23a1.308,1.308,0,0,1,1.306,1.306v1.306H14.947V50.536a1.308,1.308,0,0,1,1.306-1.306ZM20.173,47.662v-4.7H33.238v4.7Zm31.67-8.623a2.354,2.354,0,0,1-2.352,2.352H3.92a2.354,2.354,0,0,1-2.352-2.352V33.552H51.843v5.487Zm0-7.055H1.568V8.728A2.354,2.354,0,0,1,3.92,6.376h10.5v2.4H3.658v16.2H14.424V27.8H12.072v1.568H33.708V27.8H15.992V24.981H30.938V8.78H15.992V1.568H37.419V3.136H33.238v14.11h4.181v1.568h-2.09V27.28h2.718v3.581l4.407-3.581h7.4V18.814H38.987V17.246h8.362V6.376h2.143a2.354,2.354,0,0,1,2.352,2.352V31.984ZM36.9,25.712V20.382H48.289v5.331H41.9l-2.282,1.855V25.712H36.9Z"/>
      <path id="Trazado_633268" data-name="Trazado 633268" d="M238.159,336.658h-4.7v4.7h4.7Zm-1.568,3.136h-1.568v-1.568h1.568Z" transform="translate(-209.102 -301.539)"/>
      <path id="Trazado_633269" data-name="Trazado 633269" d="M358.7,59.083v8.055l6.444-4.027Zm1.568,2.829,1.918,1.2-1.918,1.2Z" transform="translate(-321.282 -52.92)"/>
      <g id="Grupo_880420" data-name="Grupo 880420" transform="translate(6.846 4.808)">
        <rect id="Rectángulo_329463" data-name="Rectángulo 329463" width="1.568" height="1.568" transform="translate(2.09 22.995)" fill="#fff"/>
        <path id="Trazado_633270" data-name="Trazado 633270" d="M200.785,47.658h-3.031V46.09h3.031Zm-4.6,0h-7.317V46.09h7.317Z" transform="translate(-176.013 -46.09)" fill="#fff"/>
        <path id="Trazado_633271" data-name="Trazado 633271" d="M70.854,115.791h-2.09v-1.568h2.09Zm-3.658,0H65.628v-1.568H67.2v1.568Z" transform="translate(-65.628 -107.116)" fill="#fff"/>
        <path id="Trazado_633272" data-name="Trazado 633272" d="M201.894,162.554l-1.146-1.07,1.07-1.146,1.146,1.07Zm2.14-2.292-1.146-1.07,2.25-2.409,1.146,1.07Z" transform="translate(-186.653 -145.237)" fill="#fff"/>
        <path id="Trazado_633273" data-name="Trazado 633273" d="M376.581,214.985h-1.568v-1.568h1.568Zm-3.136,0h-5.226v-1.568h5.226Z" transform="translate(-336.653 -195.962)" fill="#fff"/>
      </g>
    </g>
  </g>
</svg>
