<svg xmlns="http://www.w3.org/2000/svg" width="152.176" height="177.24" viewBox="0 0 152.176 177.24">
  <g id="Grupo_1034308" data-name="Grupo 1034308" transform="translate(-370 -17710.434)">
    <path id="Trazado_631919" data-name="Trazado 631919" d="M90.047,879.9c-39.368,0-71.282-31.406-71.282-70.152s31.914-70.151,71.282-70.151c.056,0,.11,0,.164,0V721.131c-.056,0-.108,0-.164,0C40.315,721.126,0,760.8,0,809.745s40.315,88.619,90.047,88.619c.056,0,.108,0,.164,0V879.894c-.054,0-.108,0-.164,0" transform="translate(370 16989.309)" fill="#b1de19"/>
    <path id="Trazado_631920" data-name="Trazado 631920" d="M0,809.745H18.765c0-38.742,31.914-70.151,71.282-70.151.056,0,.11,0,.163,0V721.131c-.056,0-.107,0-.163,0C40.315,721.126,0,760.8,0,809.745" transform="translate(370 16989.309)" fill="#7f9f13"/>
    <path id="Trazado_631927" data-name="Trazado 631927" d="M114.737,773.737c34.315,0,62.129,27.375,62.129,61.143s-27.815,61.143-62.129,61.143S52.609,868.65,52.609,834.88s27.816-61.143,62.128-61.143" transform="translate(345.31 16964.176)" fill="#b1de19"/>
    <path id="Trazado_631928" data-name="Trazado 631928" d="M52.609,834.879H176.866c0-33.767-27.815-61.143-62.129-61.143s-62.128,27.376-62.128,61.143" transform="translate(345.31 16964.176)" fill="#7f9f13"/>
    <path id="Trazado_631952" data-name="Trazado 631952" d="M46.139,56.264l.808,2.127a17.563,17.563,0,0,0-2.536,9.118c0,.543.026,1.082.074,1.614l-3.205,2.1A.38.38,0,0,1,40.7,70.8l1.347-4.956a.373.373,0,0,0-.129-.4l-4-3.217a.38.38,0,0,1,.22-.675l5.13-.25a.373.373,0,0,0,.337-.245l1.823-4.8a.381.381,0,0,1,.71,0Zm14.5,12.192L65.9,63.138A1.6,1.6,0,1,1,68.176,65.4c-2.135,2.155-4.256,4.324-6.4,6.469a1.606,1.606,0,0,1-2.271,0l-3.559-3.559a1.606,1.606,0,1,1,2.271-2.271ZM89.552,88.59l-8.288-8.042a1.376,1.376,0,0,0-1.94.029l-.17.176-4.73-4.591a15.1,15.1,0,1,0-2.561,2.82l4.641,4.5-.17.176a1.376,1.376,0,0,0,.029,1.94l8.288,8.042a1.376,1.376,0,0,0,1.94-.029l2.992-3.084A1.376,1.376,0,0,0,89.552,88.59ZM62.058,78.346A10.837,10.837,0,1,1,72.894,67.509,10.837,10.837,0,0,1,62.058,78.346ZM37.9,51.09H53.669A.956.956,0,0,0,54.6,49.9a9.079,9.079,0,0,0-17.633,0A.955.955,0,0,0,37.9,51.09Zm19.165-1.876H67.136A.956.956,0,0,0,68.06,48a7.653,7.653,0,0,0-13.083-3.063,11.559,11.559,0,0,1,2.086,4.276Zm-32.631,0H34.5a11.562,11.562,0,0,1,2.086-4.276A7.653,7.653,0,0,0,23.508,48a.956.956,0,0,0,.924,1.213ZM30.886,33.05a3.869,3.869,0,1,1-3.869,3.869,3.869,3.869,0,0,1,3.869-3.869Zm14.9-.836A4.589,4.589,0,1,1,41.195,36.8a4.589,4.589,0,0,1,4.589-4.589Zm14.9.836a3.869,3.869,0,1,1-3.869,3.869,3.869,3.869,0,0,1,3.869-3.869ZM30,53.034l1.466,3.86a.3.3,0,0,0,.271.2l4.124.2a.305.305,0,0,1,.176.543l-3.218,2.587a.3.3,0,0,0-.1.318L33.8,64.724a.305.305,0,0,1-.462.336L29.881,62.8a.3.3,0,0,0-.335,0L26.092,65.06a.305.305,0,0,1-.462-.336l1.083-3.984a.3.3,0,0,0-.1-.318l-3.218-2.587a.305.305,0,0,1,.176-.543l4.124-.2a.3.3,0,0,0,.27-.2l1.466-3.86a.306.306,0,0,1,.571,0ZM18.781,67.452a31.233,31.233,0,0,1,45.391-40.94l-2.6.093a1.274,1.274,0,0,0,.09,2.546l5.9-.212a1.278,1.278,0,0,0,1.274-1.626l-1.646-5.767a1.277,1.277,0,0,0-2.455.7l.548,1.92A33.783,33.783,0,0,0,16.574,68.73a1.275,1.275,0,1,0,2.207-1.278Zm8.051,13.8a1.277,1.277,0,1,1-2.456.7L22.73,76.188A1.278,1.278,0,0,1,24,74.564l5.9-.212A1.274,1.274,0,1,1,30,76.9l-2.606.094a31.311,31.311,0,0,0,25,5.285,17.594,17.594,0,0,0,3.421,1.743,33.845,33.845,0,0,1-29.53-4.68l.547,1.917ZM76.5,57.371a31.5,31.5,0,0,0-.565-13.761,31.036,31.036,0,0,0-3.155-7.557,1.275,1.275,0,0,1,2.207-1.278,33.861,33.861,0,0,1,3.366,25.959A17.616,17.616,0,0,0,76.5,57.372Z" transform="translate(412 17743.711)" fill="#12263f" fill-rule="evenodd"/>
  </g>
</svg>
