<svg xmlns="http://www.w3.org/2000/svg" xmlns:xlink="http://www.w3.org/1999/xlink" width="610" height="251.74" viewBox="0 0 610 251.74">
  <defs>
    <clipPath id="clip-path">
      <rect id="Rect치ngulo_276336" data-name="Rect치ngulo 276336" width="191.894" height="184.332" rx="21" fill="#138af8" opacity="0.25"/>
    </clipPath>
    <filter id="Trazado_484803" x="99.476" y="0" width="411.048" height="62.162" filterUnits="userSpaceOnUse">
      <feOffset dy="3" input="SourceAlpha"/>
      <feGaussianBlur stdDeviation="3" result="blur"/>
      <feFlood flood-opacity="0.161"/>
      <feComposite operator="in" in2="blur"/>
      <feComposite in="SourceGraphic"/>
    </filter>
    <filter id="Trazado_199066" x="99.476" y="0" width="38.103" height="62.162" filterUnits="userSpaceOnUse">
      <feOffset dy="3" input="SourceAlpha"/>
      <feGaussianBlur stdDeviation="3" result="blur-2"/>
      <feFlood flood-opacity="0.161"/>
      <feComposite operator="in" in2="blur-2"/>
      <feComposite in="SourceGraphic"/>
    </filter>
    <filter id="Trazado_199067" x="472.421" y="0" width="38.103" height="62.162" filterUnits="userSpaceOnUse">
      <feOffset dy="3" input="SourceAlpha"/>
      <feGaussianBlur stdDeviation="3" result="blur-3"/>
      <feFlood flood-opacity="0.161"/>
      <feComposite operator="in" in2="blur-3"/>
      <feComposite in="SourceGraphic"/>
    </filter>
  </defs>
  <g id="Grupo_1034304" data-name="Grupo 1034304" transform="translate(-180 -3514.548)">
    <path id="Trazado_634257" data-name="Trazado 634257" d="M21,0H170.894a21,21,0,0,1,21,21V163.332a21,21,0,0,1-21,21H21a21,21,0,0,1-21-21V21A21,21,0,0,1,21,0Z" transform="translate(180 3581.955)" fill="#f1efee"/>
    <path id="Trazado_634258" data-name="Trazado 634258" d="M21,0H170.894a21,21,0,0,1,21,21V163.332a21,21,0,0,1-21,21H21a21,21,0,0,1-21-21V21A21,21,0,0,1,21,0Z" transform="translate(388.106 3581.955)" fill="#f1efee"/>
    <path id="Trazado_634259" data-name="Trazado 634259" d="M21,0H170.894a21,21,0,0,1,21,21V163.332a21,21,0,0,1-21,21H21a21,21,0,0,1-21-21V21A21,21,0,0,1,21,0Z" transform="translate(598.105 3581.955)" fill="#f1efee"/>
    <g id="Livello_1" data-name="Livello 1" transform="translate(203.914 3612.11)">
      <path id="Trazado_628285" data-name="Trazado 628285" d="M84.959,14.447C80.189,9.677,75.63,5.126,74.277,0c-1.362,5.126-5.912,9.677-10.719,14.447C56.394,21.6,48.28,29.716,48.28,41.86a25.961,25.961,0,0,0,51.921,0C100.238,29.716,92.123,21.6,84.959,14.447ZM61.667,44.255a17.188,17.188,0,0,0-2.038,3.262.64.64,0,0,1-.439.375h-.2c-.585-.046-1.27-1.133-1.27-1.133h0a8.389,8.389,0,0,1-.484-.841c-.073-.11-.073-.228-.137-.228-1.471-3.463-.2-8.352-.2-8.352h0a21.5,21.5,0,0,1,3.089-6.671,39.055,39.055,0,0,1,2.824-3.655l1.243,1.179,5.821,5.949a.649.649,0,0,1,0,.914l-6.068,6.735h0Zm12.9,16.969a8.982,8.982,0,0,1-6.643-14.959c1.892-2.257,4.2-4.478,6.716-7.365,2.988,3.18,4.88,5.364,6.835,7.758a4.139,4.139,0,0,1,.411.576,8.909,8.909,0,0,1-7.31,13.99ZM91.456,46.978h0a1.042,1.042,0,0,1-.822.713h-.164A1.489,1.489,0,0,1,89.629,47h0a47.288,47.288,0,0,0-5.263-6.543L81.98,37.949l-7.9-8.224a66.6,66.6,0,0,1-4.724-4.861l-.128-.183a4.651,4.651,0,0,1-.621-1.243,2.142,2.142,0,0,0,0-.238,4.267,4.267,0,0,1,.311-2.376,4.441,4.441,0,0,1,.914-1.27c1.526-1.535,3.061-3.079,4.514-4.679,1.6,1.773,3.308,3.472,5,5.163h0c3.354,3.354,6.817,6.817,9.293,10.572A19.738,19.738,0,0,1,92.3,41.8,17.746,17.746,0,0,1,91.456,46.978Z" transform="translate(-4.163)" fill="#2b95f9"/>
      <path id="Trazado_628286" data-name="Trazado 628286" d="M74.616,90.82h-6.3v11.77c0,3.445-1.48,6.223-4.916,6.223s-4.934-2.741-4.934-6.223V90.829H52.21v11.76c0,6.8,4.368,12.309,11.166,12.309s11.24-5.483,11.24-12.309Z" transform="translate(-4.501 -7.83)" fill="#2b95f9"/>
      <rect id="Rect치ngulo_328619" data-name="Rect치ngulo 328619" width="6.259" height="30.648" transform="translate(126.842 75.817)" fill="#2b95f9"/>
      <path id="Trazado_628287" data-name="Trazado 628287" d="M150.72,84.106V83h4.88v1.106h-1.782v4.852h-1.307V84.106Z" transform="translate(-12.995 -7.156)" fill="#2b95f9"/>
      <path id="Trazado_628288" data-name="Trazado 628288" d="M158.647,83l1.4,4.094h.018L161.379,83h1.846v5.958h-1.234V84.736h-.009l-1.462,4.222h-1.014l-1.453-4.185h-.018v4.185H156.81V83Z" transform="translate(-13.52 -7.156)" fill="#2b95f9"/>
      <path id="Trazado_628289" data-name="Trazado 628289" d="M45.124,90.522c-5.391-1.243-8.8,4.112-8.937,4.4-.073.137-.073.219-.311.219a.238.238,0,0,1-.219-.219l-.676-4.1h-5.6v23.4h6.287V101.561c0-1.033,2.787-6,8.224-4.724a8.553,8.553,0,0,1,3.893,1.828V91.537a9.978,9.978,0,0,0-2.623-1" transform="translate(-2.533 -7.788)" fill="#2b95f9"/>
      <path id="Trazado_628290" data-name="Trazado 628290" d="M91.56,96.425a6.278,6.278,0,1,1-6.269,6.269,6.278,6.278,0,0,1,6.269-6.269M85.465,121.91v-8.4h0v-3.162a.25.25,0,0,1,.238-.256c.238-.009.247.137.292.256a7.466,7.466,0,0,0,8.919,4.295A12.391,12.391,0,1,0,79.16,102.712V121.9Z" transform="translate(-6.825 -7.788)" fill="#2b95f9"/>
      <path id="Trazado_628291" data-name="Trazado 628291" d="M127.567,102.725a6.286,6.286,0,1,1,0-.027m-.183,11.514h6.278V102.7A12.391,12.391,0,1,0,117.935,114.7a7.456,7.456,0,0,0,8.909-4.295c.055-.119.1-.256.3-.256s.238.256.238.256" transform="translate(-9.387 -7.792)" fill="#2b95f9"/>
      <path id="Trazado_628292" data-name="Trazado 628292" d="M8.855,88.263H6.333v19.984l2.6.064c5.318,0,8.754-.484,8.754-10.052,0-9.138-3.034-10-8.827-10m-1.7,25.294H0V83H7.676c9.284,0,16.338,1.7,16.338,15.3,0,13.46-7.466,15.3-16.859,15.3" transform="translate(0 -7.156)" fill="#2b95f9"/>
    </g>
    <g id="Grupo_879131" data-name="Grupo 879131" transform="translate(417.755 3707.992)">
      <path id="Trazado_628293" data-name="Trazado 628293" d="M68.2,23.7V38.935c0,1.356.1,2.628-1.12,3.553-1.12.925-3.018,1.217-5.062,1.217a34.614,34.614,0,0,1-6.425-.73l-.73,1.948a51.611,51.611,0,0,0,7.983,1.022c2.823.049,5.306-.585,6.668-2.142,1.12-1.266,1.46-2.725,1.413-5.208V23.7H68.2" transform="translate(-54.865 -23.7)" fill="#3b3a40"/>
      <path id="Trazado_628294" data-name="Trazado 628294" d="M83.413,29.222a15.177,15.177,0,0,0-7.35-1.7,15.463,15.463,0,0,0-7.35,1.7,6.742,6.742,0,0,0,0,12.267,15.312,15.312,0,0,0,7.35,1.7,15.13,15.13,0,0,0,7.3-1.7,6.76,6.76,0,0,0,.049-12.267m-1.605,10.7a11.27,11.27,0,0,1-5.743,1.356,11.721,11.721,0,0,1-5.793-1.314,5,5,0,0,1-2.823-4.624,5.134,5.134,0,0,1,2.823-4.624A11.717,11.717,0,0,1,76.065,29.4a11.986,11.986,0,0,1,5.793,1.314,5.139,5.139,0,0,1-.049,9.2Z" transform="translate(-47.344 -20.801)" fill="#3b3a40"/>
      <path id="Trazado_628295" data-name="Trazado 628295" d="M83.413,29.222a15.177,15.177,0,0,0-7.35-1.7,15.463,15.463,0,0,0-7.35,1.7,6.742,6.742,0,0,0,0,12.267,15.312,15.312,0,0,0,7.35,1.7,15.13,15.13,0,0,0,7.3-1.7,6.76,6.76,0,0,0,.049-12.267m-1.605,10.7a11.27,11.27,0,0,1-5.743,1.356,11.721,11.721,0,0,1-5.793-1.314,5,5,0,0,1-2.823-4.624,5.134,5.134,0,0,1,2.823-4.624A11.717,11.717,0,0,1,76.065,29.4a11.986,11.986,0,0,1,5.793,1.314,5.139,5.139,0,0,1-.049,9.2Z" transform="translate(-23.397 -20.801)" fill="#3b3a40"/>
      <path id="Trazado_628296" data-name="Trazado 628296" d="M119.7,31.731a10.829,10.829,0,0,0-5.6-1.314,9.32,9.32,0,0,0-6.912,2.628,9.059,9.059,0,0,0-6.863-2.628,10.487,10.487,0,0,0-5.7,1.413V30.613h-2.58V45.75h2.58V35.431a3.739,3.739,0,0,1,1.46-2,7.148,7.148,0,0,1,4.138-1.12,7.344,7.344,0,0,1,3.852.925,3.294,3.294,0,0,1,1.85,3.066v9.541h2.531V36.258a3.3,3.3,0,0,1,1.85-3.066,8.065,8.065,0,0,1,3.894-.925,7.5,7.5,0,0,1,3.894.925,3.294,3.294,0,0,1,1.85,3.066V45.8h2.58V36.6a5.526,5.526,0,0,0-2.823-4.868M124.52,23.7V45.8h2.58V23.7h-2.58m31.346,0V40.785h2.58V23.7h-2.58M149.1,30.611v2.58a13.1,13.1,0,0,0-8.713-2.823,15.234,15.234,0,0,0-7.4,1.655,6.751,6.751,0,0,0-3.852,6.182,6.609,6.609,0,0,0,3.942,6.133,15.236,15.236,0,0,0,7.4,1.655,15.958,15.958,0,0,0,4.088-.487,12.324,12.324,0,0,0,4.478-2.093V45.75h2.58V30.611h-2.531m-17.231,7.642a5.134,5.134,0,0,1,2.823-4.624,11.912,11.912,0,0,1,5.841-1.314,9.623,9.623,0,0,1,6.563,2.045,6.019,6.019,0,0,1,2.045,4.673v1.8a10.229,10.229,0,0,1-4.721,2.782,12.777,12.777,0,0,1-3.894.585,12.344,12.344,0,0,1-5.841-1.266,5.117,5.117,0,0,1-2.823-4.673Zm25.327,4.673c-1.8,0-2.044.925-2.044,1.509s.285,1.509,2.044,1.509c1.8,0,2.045-.974,2.045-1.509S158.947,42.926,157.188,42.926Z" transform="translate(-26.635 -23.7)" fill="#3b3a40"/>
    </g>
    <path id="Trazado_628297" data-name="Trazado 628297" d="M36.074,56.006l-1.515-1.515a18.1,18.1,0,0,1-4.545-17.856A10.847,10.847,0,1,1,43.108,24.3,17.8,17.8,0,0,1,59.881,29.06l.649.649-8.008,8.008-.649-.649a6.657,6.657,0,1,0-9.415,9.415L60.423,64.447l-8.008,8.008-8.441-8.441Z" transform="translate(423.058 3602.651)" fill="#7ac143"/>
    <path id="Trazado_628298" data-name="Trazado 628298" d="M30.373,47.065,48.337,29.1a18.157,18.157,0,0,1,17.748-4.545,10.82,10.82,0,1,1,12.12,12.229A17.965,17.965,0,0,1,73.66,54.424l-.649.649-7.792-8.008.649-.649A6.657,6.657,0,0,0,56.454,37L38.49,54.965Z" transform="translate(437.74 3602.719)" fill="#f9a541"/>
    <path id="Trazado_628299" data-name="Trazado 628299" d="M55.516,72.206a18,18,0,0,1-17.964-4.437L36.9,67.12l8.008-8.008.649.649a6.657,6.657,0,0,0,9.415-9.415L37.011,32.382l8.008-8.008L63.091,42.446a18.127,18.127,0,0,1,4.762,16.99,10.821,10.821,0,0,1-1.515,21.535A11.17,11.17,0,0,1,55.516,72.206Z" transform="translate(448.634 3617.943)" fill="#f44321"/>
    <path id="Trazado_628300" data-name="Trazado 628300" d="M77.954,38.871,59.99,56.835A18,18,0,0,1,43,61.6,10.84,10.84,0,1,1,29.905,48.719a17.936,17.936,0,0,1,4.653-17.207l.649-.649,8.008,8.008-.649.649a6.657,6.657,0,0,0,9.415,9.415L69.946,30.971Z" transform="translate(423.058 3628.769)" fill="#5091cd"/>
    <g id="Grupo_879135" data-name="Grupo 879135" transform="translate(614.554 3701.05)">
      <path id="Trazado_628301" data-name="Trazado 628301" d="M86.457,42.929H78.283v.849c2.555,0,2.98.531,2.98,3.747v5.791c0,3.238-.425,3.832-2.98,3.832-1.959-.255-3.321-1.362-5.11-3.321l-2.128-2.3c2.81-.531,4.344-2.3,4.344-4.257,0-2.47-2.128-4.429-6.131-4.429h-8v.849c2.555,0,2.98.531,2.98,3.747V53.23c0,3.238-.425,3.832-2.98,3.832v.849H70.28v-.849c-2.555,0-2.98-.6-2.98-3.832V51.613h.766l5.025,6.3H86.376c6.557,0,9.367-3.491,9.367-7.578.085-4-2.725-7.408-9.282-7.408ZM67.384,50.338V44.309h1.875a2.832,2.832,0,0,1,2.98,3.066,2.768,2.768,0,0,1-2.98,2.979Zm19.245,6.3h-.341c-1.617,0-1.875-.425-1.875-2.47V44.294h2.212c4.768,0,5.619,3.491,5.619,6.131,0,2.81-.938,6.216-5.619,6.216ZM35.876,52.059l3.149-9.282c.938-2.725.531-3.491-2.385-3.491v-.938h8.6v.938c-2.895,0-3.574.681-4.683,4l-5.2,15.565h-.681l-4.683-14.22L25.31,58.853h-.6L19.689,43.271c-1.108-3.321-1.769-4-4.429-4v-.938H25.31v.938c-2.725,0-3.406.6-2.47,3.491l3.066,9.282,4.6-13.712h.849Zm15.5,6.644c-5.025,0-9.112-3.662-9.112-8.174,0-4.429,4.069-8.174,9.112-8.174s9.112,3.662,9.112,8.174S56.414,58.7,51.372,58.7Zm0-14.986c-4.172,0-5.619,3.747-5.619,6.727s1.447,6.727,5.619,6.727c4.257,0,5.706-3.747,5.706-6.727C57.078,47.549,55.63,43.717,51.372,43.717Zm55.693,13.452v.938H96.59v-.938c3.066,0,3.574-.766,3.574-5.365V44.479c0-4.6-.531-5.28-3.574-5.28v-.938h9.452c4.683,0,7.325,2.385,7.325,5.619,0,3.149-2.64,5.619-7.325,5.619h-2.555v2.385c0,4.512.531,5.28,3.574,5.28Zm-1.023-17.2h-2.555v7.919h2.555c2.555,0,3.747-1.769,3.747-3.917S108.6,39.968,106.041,39.968Zm38.576,13.878-.255.849c-.425,1.532-.938,2.044-4.172,2.044h-.6c-2.385,0-2.81-.531-2.81-3.747V50.863c3.574,0,3.832.341,3.832,2.725h.849V46.776h-.849c0,2.385-.255,2.725-3.832,2.725V44.4h2.47c3.238,0,3.747.531,4.172,2.044l.255.849h.766l-.341-4.257H130.737v.849c2.555,0,2.98.531,2.98,3.747v5.791c0,2.98-.341,3.747-2.385,3.832-1.875-.255-3.238-1.362-5.025-3.321l-2.128-2.3c2.81-.531,4.344-2.3,4.344-4.257,0-2.47-2.128-4.429-6.131-4.429h-8V43.8c2.555,0,2.98.531,2.98,3.747v5.791c0,3.238-.425,3.832-2.98,3.832v.849h9.027v-.849c-2.555,0-2.979-.6-2.979-3.832V51.718h.766l5.025,6.3h18.733l.255-4.257h-.6Zm-24.1-3.491V44.309H122.4a2.832,2.832,0,0,1,2.98,3.066,2.768,2.768,0,0,1-2.98,2.979Z" transform="translate(-15.26 -38.262)" fill="#00749a"/>
      <path id="Trazado_628302" data-name="Trazado 628302" d="M96.09,56.914a6.665,6.665,0,0,1-4.069-1.532,4.279,4.279,0,0,0-.766,1.532H90.4v-6.3h.938a5.044,5.044,0,0,0,5.11,4.768,2.369,2.369,0,0,0,2.64-2.212c0-1.193-1.023-2.128-2.895-2.98L93.643,49a4.965,4.965,0,0,1-3.149-4.344c0-2.212,2.044-4.069,4.853-4.069a5.446,5.446,0,0,1,3.574,1.193,2.6,2.6,0,0,0,.6-1.193h.849v5.365h-.938c-.341-2.128-1.532-3.917-3.917-3.917-1.277,0-2.47.766-2.47,1.875,0,1.193.938,1.787,3.149,2.81l2.47,1.193a4.689,4.689,0,0,1,3.066,4.069c-.085,2.895-2.555,4.936-5.619,4.936Z" transform="translate(42.55 -36.473)" fill="#00749a"/>
      <path id="Trazado_628303" data-name="Trazado 628303" d="M96.09,56.914a6.665,6.665,0,0,1-4.069-1.532,4.279,4.279,0,0,0-.766,1.532H90.4v-6.3h.938a5.044,5.044,0,0,0,5.11,4.768,2.369,2.369,0,0,0,2.64-2.212c0-1.193-1.023-2.128-2.895-2.98L93.643,49a4.965,4.965,0,0,1-3.149-4.344c0-2.212,2.044-4.069,4.853-4.069a5.446,5.446,0,0,1,3.574,1.193,2.6,2.6,0,0,0,.6-1.193h.849v5.365h-.938c-.341-2.128-1.532-3.917-3.917-3.917-1.277,0-2.47.766-2.47,1.875,0,1.193.938,1.787,3.149,2.81l2.47,1.193a4.689,4.689,0,0,1,3.066,4.069c-.085,2.895-2.555,4.936-5.619,4.936Z" transform="translate(56.601 -36.473)" fill="#00749a"/>
    </g>
    <path id="Trazado_628304" data-name="Trazado 628304" d="M50,42.091A32.4,32.4,0,0,0,68.3,71.4L52.887,28.884A33.012,33.012,0,0,0,50,42.093Zm54.624-1.655a16.793,16.793,0,0,0-2.753-8.945c-1.651-2.753-3.163-4.954-3.163-7.7a5.672,5.672,0,0,1,5.5-5.782h.413A32.123,32.123,0,0,0,82.629,9.48,33.118,33.118,0,0,0,55.388,24.2h2.063c3.439,0,8.668-.413,8.668-.413,1.789-.138,1.927,2.476.247,2.753a30.756,30.756,0,0,1-3.714.247l11.86,35.222,7.153-21.324-5.09-13.9-3.439-.247a1.381,1.381,0,0,1,.138-2.753s5.367.413,8.529.413c3.439,0,8.668-.413,8.668-.413,1.789-.138,1.927,2.476.247,2.753a30.756,30.756,0,0,1-3.714.247l11.86,35.086,3.3-10.872c1.376-4.541,2.476-7.7,2.476-10.6ZM83.155,44.982,73.388,73.323A33.956,33.956,0,0,0,82.6,74.7,35.262,35.262,0,0,0,93.476,72.91c-.138-.138-.138-.247-.247-.413Zm28.069-18.433.247,3.3A29.756,29.756,0,0,1,109,41.545L99.112,70.3a32.664,32.664,0,0,0,16.234-28.205,34.862,34.862,0,0,0-4.126-15.547ZM82.6,4.116a37.974,37.974,0,1,0,37.972,37.975A38.049,38.049,0,0,0,82.6,4.116Zm0,74.294a36.253,36.253,0,1,1,36.184-36.322A36.256,36.256,0,0,1,82.6,78.41Z" transform="translate(611.113 3613.477)" fill="#00749a"/>
    <g id="Grupo_726876" data-name="Grupo 726876" transform="translate(288.476 3520.548)">
      <g transform="matrix(1, 0, 0, 1, -108.48, -6)" filter="url(#Trazado_484803)">
        <path id="Trazado_484803-2" data-name="Trazado 484803" d="M0,0H393.048V44.162H0Z" transform="translate(108.48 6)" fill="#3d672f"/>
      </g>
      <g transform="matrix(1, 0, 0, 1, -108.48, -6)" filter="url(#Trazado_199066)">
        <path id="Trazado_199066-2" data-name="Trazado 199066" d="M0,0H12.793L20.1,21.91l-7.31,22.252H0Z" transform="translate(108.48 6)" fill="#617a0b"/>
      </g>
      <g transform="matrix(1, 0, 0, 1, -108.48, -6)" filter="url(#Trazado_199067)">
        <path id="Trazado_199067-2" data-name="Trazado 199067" d="M0,0H12.793L20.1,21.91l-7.31,22.252H0Z" transform="translate(501.52 50.16) rotate(180)" fill="#617a0b"/>
      </g>
    </g>
    <path id="Trazado_634260" data-name="Trazado 634260" d="M8.408,15.221a1.408,1.408,0,0,0-.532-1.172,6.615,6.615,0,0,0-1.87-.869,17.942,17.942,0,0,1-2.187-.869Q1.055,10.953,1.055,8.58A3.345,3.345,0,0,1,1.743,6.5,4.453,4.453,0,0,1,3.691,5.089a7.582,7.582,0,0,1,2.832-.5,6.632,6.632,0,0,1,2.749.547,4.352,4.352,0,0,1,1.89,1.558A4.068,4.068,0,0,1,11.836,9H8.418a1.719,1.719,0,0,0-.532-1.348,2.075,2.075,0,0,0-1.44-.479A2.339,2.339,0,0,0,5,7.579,1.193,1.193,0,0,0,5.049,9.6a7.389,7.389,0,0,0,2.061.918,12.623,12.623,0,0,1,2.422,1.021,4.07,4.07,0,0,1,2.3,3.662,3.472,3.472,0,0,1-1.406,2.93A6.255,6.255,0,0,1,6.572,19.2a7.653,7.653,0,0,1-3.13-.62,4.719,4.719,0,0,1-2.109-1.7,4.428,4.428,0,0,1-.708-2.485H4.063a2.181,2.181,0,0,0,.591,1.685,2.793,2.793,0,0,0,1.919.542,2.206,2.206,0,0,0,1.343-.366A1.209,1.209,0,0,0,8.408,15.221ZM16.914,19h-3.3V8.434h3.3Zm-3.5-13.291a1.469,1.469,0,0,1,.508-1.152,1.916,1.916,0,0,1,1.318-.449,1.916,1.916,0,0,1,1.318.449,1.469,1.469,0,0,1,.508,1.152,1.469,1.469,0,0,1-.508,1.152,1.916,1.916,0,0,1-1.318.449,1.916,1.916,0,0,1-1.318-.449A1.469,1.469,0,0,1,13.418,5.709ZM24.473,16.031a.76.76,0,0,0-.439-.674,6.685,6.685,0,0,0-1.67-.527,7.615,7.615,0,0,1-2.031-.718,3.4,3.4,0,0,1-1.221-1.079,2.577,2.577,0,0,1-.42-1.455,2.92,2.92,0,0,1,1.2-2.4,4.948,4.948,0,0,1,3.145-.942,5.482,5.482,0,0,1,3.359.947,2.962,2.962,0,0,1,1.27,2.49h-3.3q0-1.27-1.338-1.27a1.326,1.326,0,0,0-.869.288.892.892,0,0,0-.352.718.819.819,0,0,0,.43.713,4.06,4.06,0,0,0,1.372.449,11.857,11.857,0,0,1,1.655.42,3.007,3.007,0,0,1,2.383,2.939,2.767,2.767,0,0,1-1.284,2.354,5.631,5.631,0,0,1-3.325.908,5.747,5.747,0,0,1-2.422-.488,4.05,4.05,0,0,1-1.66-1.328,3.007,3.007,0,0,1-.6-1.768h3.076a1.272,1.272,0,0,0,.488,1.069,2.009,2.009,0,0,0,1.2.337,1.58,1.58,0,0,0,1.011-.273A.875.875,0,0,0,24.473,16.031ZM33.018,5.807V8.434h1.738v2.285H33.018v4.834a1.234,1.234,0,0,0,.215.83,1.152,1.152,0,0,0,.85.234,4.828,4.828,0,0,0,.82-.059v2.354a6.074,6.074,0,0,1-1.855.283,3.448,3.448,0,0,1-2.51-.8,3.282,3.282,0,0,1-.811-2.432V10.719H28.379V8.434h1.348V5.807ZM41.162,19.2a5.432,5.432,0,0,1-3.936-1.45,5.008,5.008,0,0,1-1.5-3.774V13.7a6.489,6.489,0,0,1,.6-2.861,4.395,4.395,0,0,1,1.753-1.919,5.292,5.292,0,0,1,2.734-.679A4.574,4.574,0,0,1,44.326,9.62a5.43,5.43,0,0,1,1.289,3.853v1.279H39.072a2.372,2.372,0,0,0,.771,1.4,2.3,2.3,0,0,0,1.543.508,2.958,2.958,0,0,0,2.441-1.094l1.5,1.777a4.2,4.2,0,0,1-1.743,1.353A5.891,5.891,0,0,1,41.162,19.2Zm-.371-8.418q-1.445,0-1.719,1.914h3.32v-.254a1.63,1.63,0,0,0-.4-1.226A1.593,1.593,0,0,0,40.791,10.777Zm9.258-2.344.107,1.24a3.633,3.633,0,0,1,3.018-1.436A2.675,2.675,0,0,1,55.879,9.83a3.516,3.516,0,0,1,3.105-1.592q3.213,0,3.3,3.887V19h-3.3V12.33a2.014,2.014,0,0,0-.273-1.182,1.164,1.164,0,0,0-1-.371,1.559,1.559,0,0,0-1.455.869l.01.137V19h-3.3V12.35a2.117,2.117,0,0,0-.264-1.2,1.161,1.161,0,0,0-1.006-.371,1.578,1.578,0,0,0-1.445.869V19H46.963V8.434ZM70.117,19a3.716,3.716,0,0,1-.312-.947A3.06,3.06,0,0,1,67.266,19.2a3.749,3.749,0,0,1-2.539-.9,2.875,2.875,0,0,1-1.045-2.271,2.955,2.955,0,0,1,1.27-2.6,6.468,6.468,0,0,1,3.691-.879h1.016v-.559q0-1.462-1.26-1.462a1.03,1.03,0,0,0-1.172,1.158H63.936a2.95,2.95,0,0,1,1.3-2.487,5.479,5.479,0,0,1,3.325-.956,4.8,4.8,0,0,1,3.193.986,3.429,3.429,0,0,1,1.2,2.705v4.678a4.79,4.79,0,0,0,.449,2.227V19Zm-2.061-2.148a1.836,1.836,0,0,0,1.021-.264,1.653,1.653,0,0,0,.581-.6V14.3H68.7q-1.719,0-1.719,1.543a.942.942,0,0,0,.3.728A1.1,1.1,0,0,0,68.057,16.852Zm12.256-.82a.76.76,0,0,0-.439-.674,6.685,6.685,0,0,0-1.67-.527,7.615,7.615,0,0,1-2.031-.718,3.4,3.4,0,0,1-1.221-1.079,2.577,2.577,0,0,1-.42-1.455,2.92,2.92,0,0,1,1.2-2.4,4.948,4.948,0,0,1,3.145-.942,5.482,5.482,0,0,1,3.359.947,2.962,2.962,0,0,1,1.27,2.49h-3.3q0-1.27-1.338-1.27a1.326,1.326,0,0,0-.869.288.892.892,0,0,0-.352.718.819.819,0,0,0,.43.713,4.06,4.06,0,0,0,1.372.449,11.857,11.857,0,0,1,1.655.42,3.007,3.007,0,0,1,2.383,2.939A2.767,2.767,0,0,1,82.2,18.287a5.631,5.631,0,0,1-3.325.908,5.747,5.747,0,0,1-2.422-.488,4.05,4.05,0,0,1-1.66-1.328,3.007,3.007,0,0,1-.6-1.768h3.076a1.272,1.272,0,0,0,.488,1.069,2.009,2.009,0,0,0,1.2.337,1.58,1.58,0,0,0,1.011-.273A.875.875,0,0,0,80.313,16.031Zm9.277-2.393a6.455,6.455,0,0,1,1.084-3.955A3.568,3.568,0,0,1,93.7,8.238a3.035,3.035,0,0,1,2.383,1.113V4h3.3V19H96.426l-.166-1.133A3.116,3.116,0,0,1,93.682,19.2a3.562,3.562,0,0,1-2.988-1.445A6.659,6.659,0,0,1,89.59,13.639Zm3.291.205q0,2.813,1.641,2.813a1.62,1.62,0,0,0,1.563-.918V11.715a1.576,1.576,0,0,0-1.543-.937q-1.523,0-1.65,2.461ZM106.367,19.2a5.432,5.432,0,0,1-3.936-1.45,5.008,5.008,0,0,1-1.5-3.774V13.7a6.489,6.489,0,0,1,.6-2.861,4.395,4.395,0,0,1,1.753-1.919,5.292,5.292,0,0,1,2.734-.679,4.574,4.574,0,0,1,3.516,1.382,5.43,5.43,0,0,1,1.289,3.853v1.279h-6.543a2.372,2.372,0,0,0,.771,1.4,2.3,2.3,0,0,0,1.543.508,2.958,2.958,0,0,0,2.441-1.094l1.5,1.777a4.2,4.2,0,0,1-1.743,1.353A5.891,5.891,0,0,1,106.367,19.2ZM106,10.777q-1.445,0-1.719,1.914h3.32v-.254a1.63,1.63,0,0,0-.4-1.226A1.593,1.593,0,0,0,106,10.777Zm10.742,2.861a7.134,7.134,0,0,1,.527-2.832,4.245,4.245,0,0,1,1.514-1.9,3.99,3.99,0,0,1,2.295-.669,3.173,3.173,0,0,1,2.578,1.113l.117-.918h2.988V18.6a4.455,4.455,0,0,1-.649,2.427,4.167,4.167,0,0,1-1.88,1.582,6.91,6.91,0,0,1-2.852.552,5.961,5.961,0,0,1-2.251-.439,4.063,4.063,0,0,1-1.665-1.143l1.377-1.934a3.018,3.018,0,0,0,2.422,1.084,1.96,1.96,0,0,0,2.188-2.246V18.15a3.09,3.09,0,0,1-2.393,1.045,3.819,3.819,0,0,1-3.125-1.479,6.13,6.13,0,0,1-1.191-3.96Zm3.3.205a3.759,3.759,0,0,0,.488,2.056,1.541,1.541,0,0,0,1.367.757,1.748,1.748,0,0,0,1.553-.713V11.5a1.7,1.7,0,0,0-1.533-.723,1.551,1.551,0,0,0-1.377.786A4.287,4.287,0,0,0,120.039,13.844Zm13.7,5.352a5.432,5.432,0,0,1-3.936-1.45,5.008,5.008,0,0,1-1.5-3.774V13.7a6.489,6.489,0,0,1,.6-2.861,4.395,4.395,0,0,1,1.753-1.919,5.292,5.292,0,0,1,2.734-.679A4.574,4.574,0,0,1,136.9,9.62a5.43,5.43,0,0,1,1.289,3.853v1.279H131.65a2.372,2.372,0,0,0,.771,1.4,2.3,2.3,0,0,0,1.543.508,2.958,2.958,0,0,0,2.441-1.094l1.5,1.777a4.2,4.2,0,0,1-1.743,1.353A5.891,5.891,0,0,1,133.74,19.2Zm-.371-8.418q-1.445,0-1.719,1.914h3.32v-.254a1.63,1.63,0,0,0-.4-1.226A1.593,1.593,0,0,0,133.369,10.777Zm11.68,5.254a.76.76,0,0,0-.439-.674,6.685,6.685,0,0,0-1.67-.527,7.615,7.615,0,0,1-2.031-.718,3.4,3.4,0,0,1-1.221-1.079,2.577,2.577,0,0,1-.42-1.455,2.92,2.92,0,0,1,1.2-2.4,4.948,4.948,0,0,1,3.145-.942,5.482,5.482,0,0,1,3.359.947,2.962,2.962,0,0,1,1.27,2.49h-3.3q0-1.27-1.338-1.27a1.326,1.326,0,0,0-.869.288.892.892,0,0,0-.352.718.819.819,0,0,0,.43.713,4.06,4.06,0,0,0,1.372.449,11.857,11.857,0,0,1,1.655.42,3.007,3.007,0,0,1,2.383,2.939,2.767,2.767,0,0,1-1.284,2.354,5.632,5.632,0,0,1-3.325.908,5.747,5.747,0,0,1-2.422-.488,4.05,4.05,0,0,1-1.66-1.328,3.007,3.007,0,0,1-.6-1.768h3.076a1.272,1.272,0,0,0,.488,1.069,2.009,2.009,0,0,0,1.2.337,1.58,1.58,0,0,0,1.011-.273A.875.875,0,0,0,145.049,16.031Zm8.545-10.225V8.434h1.738v2.285h-1.738v4.834a1.234,1.234,0,0,0,.215.83,1.152,1.152,0,0,0,.85.234,4.828,4.828,0,0,0,.82-.059v2.354a6.074,6.074,0,0,1-1.855.283,3.448,3.448,0,0,1-2.51-.8,3.282,3.282,0,0,1-.811-2.432V10.719h-1.348V8.434H150.3V5.807ZM160.1,19h-3.3V8.434h3.3ZM156.6,5.709a1.469,1.469,0,0,1,.508-1.152,2.159,2.159,0,0,1,2.637,0,1.469,1.469,0,0,1,.508,1.152,1.469,1.469,0,0,1-.508,1.152,2.159,2.159,0,0,1-2.637,0A1.469,1.469,0,0,1,156.6,5.709Zm5.107,7.91a6.236,6.236,0,0,1,.615-2.817,4.4,4.4,0,0,1,1.768-1.9,5.323,5.323,0,0,1,2.705-.664,4.858,4.858,0,0,1,3.74,1.47,5.64,5.64,0,0,1,1.367,4v.117a5.472,5.472,0,0,1-1.372,3.921,4.871,4.871,0,0,1-3.716,1.45,4.927,4.927,0,0,1-3.623-1.353,5.29,5.29,0,0,1-1.475-3.667Zm3.291.205a3.932,3.932,0,0,0,.459,2.148,1.529,1.529,0,0,0,1.357.684q1.758,0,1.8-2.705v-.332q0-2.842-1.816-2.842-1.65,0-1.787,2.451ZM167.246,4h3.477l-2.715,3.066-2.686,0Zm9.131,4.434.107,1.24A3.583,3.583,0,0,1,179.5,8.238a3.015,3.015,0,0,1,2.466.986,4.7,4.7,0,0,1,.845,2.969V19h-3.3V12.33a1.783,1.783,0,0,0-.322-1.177,1.491,1.491,0,0,0-1.172-.376,1.569,1.569,0,0,0-1.436.762V19h-3.291V8.434ZM189.2,13.639a6.455,6.455,0,0,1,1.084-3.955,3.568,3.568,0,0,1,3.027-1.445,3.035,3.035,0,0,1,2.383,1.113V4h3.3V19h-2.959l-.166-1.133a3.116,3.116,0,0,1-2.578,1.328A3.562,3.562,0,0,1,190.3,17.75,6.659,6.659,0,0,1,189.2,13.639Zm3.291.205q0,2.813,1.641,2.813a1.62,1.62,0,0,0,1.563-.918V11.715a1.576,1.576,0,0,0-1.543-.937q-1.523,0-1.65,2.461ZM205.977,19.2a5.432,5.432,0,0,1-3.936-1.45,5.008,5.008,0,0,1-1.5-3.774V13.7a6.489,6.489,0,0,1,.6-2.861,4.395,4.395,0,0,1,1.753-1.919,5.292,5.292,0,0,1,2.734-.679,4.574,4.574,0,0,1,3.516,1.382,5.43,5.43,0,0,1,1.289,3.853v1.279h-6.543a2.372,2.372,0,0,0,.771,1.4,2.3,2.3,0,0,0,1.543.508,2.958,2.958,0,0,0,2.441-1.094l1.5,1.777a4.2,4.2,0,0,1-1.743,1.353A5.891,5.891,0,0,1,205.977,19.2Zm-.371-8.418q-1.445,0-1.719,1.914h3.32v-.254a1.63,1.63,0,0,0-.4-1.226A1.593,1.593,0,0,0,205.605,10.777Zm15.6,5.879a1.464,1.464,0,0,0,1.074-.376,1.379,1.379,0,0,0,.371-1.05h3.086a3.653,3.653,0,0,1-1.245,2.852,4.631,4.631,0,0,1-3.208,1.113,4.689,4.689,0,0,1-3.633-1.445,5.7,5.7,0,0,1-1.328-4v-.137a6.436,6.436,0,0,1,.591-2.827,4.3,4.3,0,0,1,1.7-1.885,5.081,5.081,0,0,1,2.637-.659,4.573,4.573,0,0,1,3.271,1.143,4.053,4.053,0,0,1,1.211,3.1h-3.086a1.807,1.807,0,0,0-.4-1.26,1.382,1.382,0,0,0-1.074-.439q-1.279,0-1.494,1.631a11.507,11.507,0,0,0-.068,1.426,4.52,4.52,0,0,0,.381,2.207A1.319,1.319,0,0,0,221.2,16.656Zm5.508-3.037a6.236,6.236,0,0,1,.615-2.817,4.4,4.4,0,0,1,1.768-1.9,5.323,5.323,0,0,1,2.705-.664,4.858,4.858,0,0,1,3.74,1.47,5.64,5.64,0,0,1,1.367,4v.117a5.472,5.472,0,0,1-1.372,3.921,4.871,4.871,0,0,1-3.716,1.45,4.927,4.927,0,0,1-3.623-1.353,5.29,5.29,0,0,1-1.475-3.667Zm3.291.205a3.932,3.932,0,0,0,.459,2.148,1.529,1.529,0,0,0,1.357.684q1.758,0,1.8-2.705v-.332q0-2.842-1.816-2.842-1.65,0-1.787,2.451Zm11.377-5.391.107,1.24A3.583,3.583,0,0,1,244.5,8.238a3.015,3.015,0,0,1,2.466.986,4.7,4.7,0,0,1,.845,2.969V19h-3.3V12.33a1.783,1.783,0,0,0-.322-1.177,1.491,1.491,0,0,0-1.172-.376,1.569,1.569,0,0,0-1.436.762V19h-3.291V8.434Zm12.09-2.627V8.434h1.738v2.285h-1.738v4.834a1.234,1.234,0,0,0,.215.83,1.152,1.152,0,0,0,.85.234,4.828,4.828,0,0,0,.82-.059v2.354a6.074,6.074,0,0,1-1.855.283,3.448,3.448,0,0,1-2.51-.8,3.282,3.282,0,0,1-.811-2.432V10.719h-1.348V8.434h1.348V5.807ZM261.611,19.2a5.432,5.432,0,0,1-3.936-1.45,5.008,5.008,0,0,1-1.5-3.774V13.7a6.489,6.489,0,0,1,.6-2.861,4.395,4.395,0,0,1,1.753-1.919,5.292,5.292,0,0,1,2.734-.679,4.574,4.574,0,0,1,3.516,1.382,5.43,5.43,0,0,1,1.289,3.853v1.279h-6.543a2.372,2.372,0,0,0,.771,1.4,2.3,2.3,0,0,0,1.543.508,2.958,2.958,0,0,0,2.441-1.094l1.5,1.777a4.2,4.2,0,0,1-1.743,1.353A5.891,5.891,0,0,1,261.611,19.2Zm-.371-8.418q-1.445,0-1.719,1.914h3.32v-.254a1.63,1.63,0,0,0-.4-1.226A1.593,1.593,0,0,0,261.24,10.777Zm9.17-2.344.107,1.24a3.583,3.583,0,0,1,3.018-1.436A3.015,3.015,0,0,1,276,9.225a4.7,4.7,0,0,1,.845,2.969V19h-3.3V12.33a1.783,1.783,0,0,0-.322-1.177,1.491,1.491,0,0,0-1.172-.376,1.569,1.569,0,0,0-1.436.762V19h-3.291V8.434ZM282.139,19h-3.3V8.434h3.3Zm-3.5-13.291a1.469,1.469,0,0,1,.508-1.152,2.159,2.159,0,0,1,2.637,0,1.469,1.469,0,0,1,.508,1.152,1.469,1.469,0,0,1-.508,1.152,2.159,2.159,0,0,1-2.637,0A1.469,1.469,0,0,1,278.643,5.709Zm5.107,7.93a6.455,6.455,0,0,1,1.084-3.955,3.568,3.568,0,0,1,3.027-1.445,3.035,3.035,0,0,1,2.383,1.113V4h3.3V19h-2.959l-.166-1.133a3.116,3.116,0,0,1-2.578,1.328,3.562,3.562,0,0,1-2.988-1.445A6.659,6.659,0,0,1,283.75,13.639Zm3.291.205q0,2.813,1.641,2.813a1.62,1.62,0,0,0,1.563-.918V11.715a1.576,1.576,0,0,0-1.543-.937q-1.523,0-1.65,2.461ZM295,13.619a6.236,6.236,0,0,1,.615-2.817,4.4,4.4,0,0,1,1.768-1.9,5.323,5.323,0,0,1,2.705-.664,4.859,4.859,0,0,1,3.74,1.47,5.64,5.64,0,0,1,1.367,4v.117a5.472,5.472,0,0,1-1.372,3.921,4.871,4.871,0,0,1-3.716,1.45,4.927,4.927,0,0,1-3.623-1.353,5.29,5.29,0,0,1-1.475-3.667Zm3.291.205a3.931,3.931,0,0,0,.459,2.148,1.529,1.529,0,0,0,1.357.684q1.758,0,1.8-2.705v-.332q0-2.842-1.816-2.842-1.65,0-1.787,2.451Z" transform="translate(337.82 3531.685)" fill="#fff"/>
  </g>
</svg>
