<svg id="Grupo_879565" data-name="Grupo 879565" xmlns="http://www.w3.org/2000/svg" xmlns:xlink="http://www.w3.org/1999/xlink" width="302.244" height="187.655" viewBox="0 0 302.244 187.655">
  <defs>
    <clipPath id="clip-path">
      <rect id="Rectángulo_328991" data-name="Rectángulo 328991" width="302.244" height="187.655" fill="none"/>
    </clipPath>
    <clipPath id="clip-path-6">
      <rect id="Rectángulo_328977" data-name="Rectángulo 328977" width="40.978" height="16.22" fill="none"/>
    </clipPath>
    <clipPath id="clip-path-7">
      <rect id="Rectángulo_328978" data-name="Rectángulo 328978" width="6.913" height="5.293" fill="none"/>
    </clipPath>
    <clipPath id="clip-path-11">
      <rect id="Rectángulo_328985" data-name="Rectángulo 328985" width="57.238" height="14.565" fill="none"/>
    </clipPath>
    <clipPath id="clip-path-13">
      <rect id="Rectángulo_328988" data-name="Rectángulo 328988" width="20.531" height="27.77" fill="none"/>
    </clipPath>
    <clipPath id="clip-path-14">
      <rect id="Rectángulo_328989" data-name="Rectángulo 328989" width="14.983" height="15.371" fill="none"/>
    </clipPath>
  </defs>
  <g id="Grupo_879564" data-name="Grupo 879564" clip-path="url(#clip-path)">
    <g id="Grupo_879534" data-name="Grupo 879534">
      <g id="Grupo_879533" data-name="Grupo 879533" clip-path="url(#clip-path)">
        <path id="Trazado_630350" data-name="Trazado 630350" d="M51.289,305.316c12.691-8.471,15.789-24.5,15.518-38.951-.046-2.413.262-4.951-.867-7.084s-3.818-3.619-6.022-2.636c-1.827.816-2.651,2.887-3.693,4.595a14.228,14.228,0,0,1-5.813,5.316c-1.568.774-3.5,1.232-5.024.373-2.09-1.179-2.293-4.056-2.241-6.455q.147-6.7.293-13.407a22.063,22.063,0,0,0-.622-7.134,7.474,7.474,0,0,0-4.659-5.1c-2.3-.673-5.181.6-5.705,2.939a21.9,21.9,0,0,0-.115,2.985,2.526,2.526,0,0,1-1.533,2.353,2.96,2.96,0,0,1-2.651-1.141,31.835,31.835,0,0,1-5.666-8.73,44.128,44.128,0,0,0-5.271-9c-2.234-2.675-5.35-4.815-8.827-5.062S1.173,221,.241,224.356s1.011,6.827,3.143,9.6a53.883,53.883,0,0,0,11.127,10.793,4.429,4.429,0,0,1,1.858,2.033c.5,1.606-1.057,3.172-2.664,3.674-1.821.568-3.783.353-5.681.545s-3.964.985-4.709,2.742c-1.033,2.438,1,5.037,3.022,6.75a46.583,46.583,0,0,0,13.63,8.039,15.751,15.751,0,0,1,5.072,2.528c1.422,1.261,2.258,3.429,1.362,5.105s-3.142,2.185-5.009,1.815-3.527-1.4-5.3-2.09c-3.32-1.294-7.636-1.131-9.819,1.685a7.507,7.507,0,0,0-.923,6.7,17.45,17.45,0,0,0,3.591,5.982,46.7,46.7,0,0,0,19.735,14.136c7.706,2.767,14.872,3.591,22.614.928" transform="translate(0 -119.286)" fill="#ebebeb"/>
        <path id="Trazado_630351" data-name="Trazado 630351" d="M52.155,298.556A213.612,213.612,0,0,0,43.87,275.3l-2.489-5.988c-.821-1.964-1.634-3.91-2.55-5.765a107.2,107.2,0,0,0-5.877-10.365c-2.032-3.208-4.078-6.179-6.011-8.945s-3.8-5.3-5.589-7.547a86.075,86.075,0,0,0-9.244-9.962c-1.181-1.089-2.124-1.9-2.77-2.449L8.6,223.66c-.168-.137-.26-.2-.26-.2s.076.082.235.228l.715.642c.629.563,1.557,1.394,2.721,2.5a89.971,89.971,0,0,1,9.139,10.019c1.776,2.249,3.617,4.794,5.544,7.56s3.955,5.746,5.975,8.952a107.679,107.679,0,0,1,5.84,10.341c.909,1.848,1.715,3.781,2.536,5.749s1.646,3.965,2.486,5.985a217.743,217.743,0,0,1,8.3,23.213" transform="translate(-4.541 -121.628)" fill="#e0e0e0"/>
        <path id="Trazado_630352" data-name="Trazado 630352" d="M75.04,279.887a5.783,5.783,0,0,0,.237-1.022c.133-.662.3-1.625.482-2.816.373-2.383.781-5.691,1.221-9.341s.9-6.945,1.328-9.314c.208-1.186.389-2.143.524-2.8A5.816,5.816,0,0,0,79,253.555a5.814,5.814,0,0,0-.3,1c-.177.652-.4,1.6-.638,2.787-.491,2.364-1,5.664-1.436,9.317-.431,3.618-.821,6.892-1.114,9.349-.148,1.144-.272,2.1-.367,2.829a5.809,5.809,0,0,0-.1,1.044" transform="translate(-40.84 -138.008)" fill="#e0e0e0"/>
        <path id="Trazado_630353" data-name="Trazado 630353" d="M6.691,297.648a1.121,1.121,0,0,0,.321.057l.924.093c.8.077,1.961.185,3.39.367,2.857.339,6.789.952,11.095,1.819s8.167,1.836,10.938,2.614c1.388.38,2.5.718,3.275.949l.89.262a1.09,1.09,0,0,0,.319.068,1.114,1.114,0,0,0-.3-.137l-.87-.326c-.759-.272-1.865-.649-3.247-1.061-2.759-.843-6.622-1.846-10.938-2.723s-8.265-1.443-11.138-1.719c-1.435-.149-2.6-.22-3.407-.253l-.929-.026a1.1,1.1,0,0,0-.325.016" transform="translate(-3.642 -161.998)" fill="#e0e0e0"/>
        <path id="Trazado_630354" data-name="Trazado 630354" d="M103.74,340.214a1.921,1.921,0,0,0,.211-.376l.545-1.111c.47-.966,1.116-2.379,1.892-4.136,1.555-3.513,3.554-8.429,5.69-13.882s4.1-10.381,5.589-13.915c.741-1.733,1.346-3.149,1.785-4.179l.483-1.137a1.969,1.969,0,0,0,.146-.407,1.913,1.913,0,0,0-.212.376l-.545,1.111c-.47.966-1.116,2.38-1.891,4.136-1.556,3.512-3.555,8.429-5.692,13.884s-4.1,10.378-5.589,13.913c-.74,1.732-1.345,3.149-1.785,4.179-.2.465-.358.842-.483,1.138a1.929,1.929,0,0,0-.146.407" transform="translate(-56.464 -163.87)" fill="#e0e0e0"/>
        <path id="Trazado_630355" data-name="Trazado 630355" d="M13.094,356.629a2.131,2.131,0,0,0,.412.166l1.2.408,4.428,1.476c3.737,1.25,8.878,3.04,14.552,5.032s10.834,3.746,14.594,4.935c1.881.6,3.406,1.063,4.465,1.366l1.222.344a1.982,1.982,0,0,0,.433.1,2.075,2.075,0,0,0-.412-.166l-1.2-.409L48.362,368.4c-3.737-1.25-8.878-3.042-14.554-5.034s-10.832-3.745-14.592-4.934c-1.88-.6-3.406-1.063-4.465-1.366l-1.222-.345a2.01,2.01,0,0,0-.434-.1" transform="translate(-7.127 -194.109)" fill="#e0e0e0"/>
        <rect id="Rectángulo_328970" data-name="Rectángulo 328970" width="40.356" height="59.872" transform="translate(231.756 130.711) rotate(-68.534)" fill="#ebebeb"/>
        <path id="Trazado_630356" data-name="Trazado 630356" d="M596.687,227.471a4.158,4.158,0,0,1-.715.3l-2.086.75-7.71,2.663-25.563,8.613-.211.071-.111-.193-.269-.467L546.45,215.47l-4.059-7.223-1.08-1.978a4.316,4.316,0,0,1-.344-.708,4.239,4.239,0,0,1,.439.653l1.168,1.927,4.209,7.137,13.709,23.654.269.467-.321-.122,25.614-8.46,7.764-2.5,2.118-.653a4.145,4.145,0,0,1,.75-.193" transform="translate(-294.443 -111.885)" fill="#e0e0e0"/>
        <path id="Trazado_630357" data-name="Trazado 630357" d="M508.562,269.868c-.072-.132,6.143-3.632,13.879-7.818s14.067-7.472,14.138-7.34-6.142,3.632-13.88,7.819-14.065,7.471-14.137,7.34" transform="translate(-276.806 -138.634)" fill="#e0e0e0"/>
        <path id="Trazado_630358" data-name="Trazado 630358" d="M611.083,269.664c.144-.043,2.274,6.7,4.759,15.049s4.382,15.163,4.238,15.206-2.274-6.694-4.759-15.051-4.382-15.161-4.238-15.2" transform="translate(-332.603 -146.776)" fill="#e0e0e0"/>
        <rect id="Rectángulo_328971" data-name="Rectángulo 328971" width="35.814" height="24.14" transform="matrix(0.917, -0.399, 0.399, 0.917, 255.127, 58.867)" fill="#ebebeb"/>
        <path id="Trazado_630359" data-name="Trazado 630359" d="M593.168,98.279a2.481,2.481,0,0,1-.177.428l-.565,1.2-2.135,4.388-7.169,14.456-.059.119-.129-.035-.311-.084-15.779-4.3-4.772-1.339-1.293-.38a2.588,2.588,0,0,1-.445-.154,2.544,2.544,0,0,1,.462.09l1.309.321,4.8,1.239,15.8,4.206.311.084-.187.084,7.256-14.413,2.227-4.342.619-1.172a2.511,2.511,0,0,1,.236-.4" transform="translate(-304.985 -53.492)" fill="#e0e0e0"/>
        <path id="Trazado_630360" data-name="Trazado 630360" d="M581.48,156.415c-.086-.026,1.062-4.135,2.563-9.177s2.789-9.111,2.875-9.085-1.062,4.134-2.564,9.178-2.789,9.11-2.875,9.084" transform="translate(-316.492 -75.195)" fill="#e0e0e0"/>
        <path id="Trazado_630361" data-name="Trazado 630361" d="M617.106,127.111c.043-.079,3.794,1.87,8.378,4.352s8.267,4.56,8.224,4.639-3.793-1.869-8.379-4.353-8.266-4.56-8.223-4.639" transform="translate(-335.885 -69.184)" fill="#e0e0e0"/>
      </g>
    </g>
    <g id="Grupo_879536" data-name="Grupo 879536">
      <g id="Grupo_879535" data-name="Grupo 879535" clip-path="url(#clip-path)">
        <path id="Trazado_630362" data-name="Trazado 630362" d="M299.293,408.527c0,.066-65.882.118-147.133.118-81.279,0-147.146-.053-147.146-.118s65.868-.118,147.146-.118c81.251,0,147.133.053,147.133.118" transform="translate(-2.729 -222.294)" fill="#263238"/>
      </g>
    </g>
    <g id="Grupo_879538" data-name="Grupo 879538">
      <g id="Grupo_879537" data-name="Grupo 879537" clip-path="url(#clip-path)">
        <path id="Trazado_630363" data-name="Trazado 630363" d="M301.7,245.4H113.287a6.638,6.638,0,0,1-6.638-6.638v-120.1a6.638,6.638,0,0,1,6.638-6.639H301.7a6.638,6.638,0,0,1,6.638,6.639v120.1A6.638,6.638,0,0,1,301.7,245.4" transform="translate(-58.048 -60.976)" fill="#263238"/>
        <path id="Trazado_630364" data-name="Trazado 630364" d="M298.546,394.73H96.251a8.11,8.11,0,0,1-8.111-8.111v-3.56H306.656v3.56a8.111,8.111,0,0,1-8.111,8.111" transform="translate(-47.974 -208.497)" fill="#263238"/>
        <rect id="Rectángulo_328974" data-name="Rectángulo 328974" width="190.299" height="112.634" transform="translate(54.015 56.351)" fill="#455a64"/>
        <path id="Trazado_630365" data-name="Trazado 630365" d="M284.312,383.06l2.711,4.313H325.18l2.518-4.313Z" transform="translate(-154.749 -208.496)" fill="#455a64"/>
        <path id="Trazado_630366" data-name="Trazado 630366" d="M308.489,240.484H128.622a1.492,1.492,0,0,1-1.492-1.492V133.516a1.491,1.491,0,0,1,1.491-1.492H308.489a1.491,1.491,0,0,1,1.491,1.491V238.993a1.491,1.491,0,0,1-1.491,1.491" transform="translate(-69.196 -71.86)" fill="#ebebeb"/>
        <rect id="Rectángulo_328975" data-name="Rectángulo 328975" width="182.851" height="100.514" transform="translate(57.934 68.111)" fill="#ebebeb"/>
        <path id="Trazado_630367" data-name="Trazado 630367" d="M156.55,139.471a1.46,1.46,0,1,1-1.461-1.46,1.461,1.461,0,0,1,1.461,1.46" transform="translate(-83.619 -75.118)" fill="#455a64"/>
        <path id="Trazado_630368" data-name="Trazado 630368" d="M137.129,139.471a1.46,1.46,0,1,1-1.461-1.46,1.46,1.46,0,0,1,1.461,1.46" transform="translate(-73.048 -75.118)" fill="#455a64"/>
        <path id="Trazado_630369" data-name="Trazado 630369" d="M146.451,139.471a1.46,1.46,0,1,1-1.461-1.46,1.46,1.46,0,0,1,1.461,1.46" transform="translate(-78.122 -75.118)" fill="#455a64"/>
        <path id="Trazado_630370" data-name="Trazado 630370" d="M306.606,382.9c0,.073-44.766.131-99.974.131-55.227,0-99.983-.058-99.983-.131s44.756-.131,99.983-.131c55.209,0,99.974.059,99.974.131" transform="translate(-58.048 -208.34)" fill="#455a64"/>
      </g>
    </g>
    <g id="Grupo_879546" data-name="Grupo 879546">
      <g id="Grupo_879545" data-name="Grupo 879545" clip-path="url(#clip-path)">
        <path id="Trazado_630371" data-name="Trazado 630371" d="M87.294,211.865a.972.972,0,0,1-.154-.093l-.446-.3-.73-.495c-.289-.2-.632-.419-.988-.714l-1.215-.96c-.444-.358-.89-.795-1.4-1.244a33.8,33.8,0,0,1-3.176-3.416,35.533,35.533,0,0,1-6-11.237A44.243,44.243,0,0,1,71.3,176.653a48.079,48.079,0,0,1,1.7-9.7,39.294,39.294,0,0,1,4.209-9.813c.478-.795,1.017-1.561,1.576-2.32l1.786-2.214c.635-.714,1.3-1.415,1.95-2.131.67-.7,1.395-1.359,2.1-2.049a70.094,70.094,0,0,1,9.629-7.37c6.98-4.515,14.87-8.251,22.992-12.143,8.1-3.966,16.63-7.771,25.379-11.618,35.041-15.346,67.11-28.419,90.471-37.5,11.673-4.559,21.2-8.034,27.792-10.417,3.3-1.174,5.878-2.049,7.621-2.654l1.986-.675.508-.167a.991.991,0,0,1,.174-.048.989.989,0,0,1-.166.071l-.5.19-1.971.72-7.589,2.737c-6.569,2.435-16.077,5.957-27.733,10.555-23.324,9.155-55.369,22.277-90.4,37.619-8.75,3.847-17.271,7.642-25.369,11.6-8.128,3.886-16,7.608-22.956,12.091a69.915,69.915,0,0,0-9.583,7.308c-.7.684-1.42,1.335-2.086,2.029-.65.709-1.307,1.4-1.939,2.109L79.1,155.058c-.553.747-1.086,1.5-1.559,2.284a39,39,0,0,0-4.192,9.708,47.881,47.881,0,0,0-1.719,9.628,44.14,44.14,0,0,0,1.809,16.652,35.608,35.608,0,0,0,5.892,11.2,34.391,34.391,0,0,0,3.128,3.428c.5.453.938.893,1.375,1.255l1.2.975c.35.3.687.527.971.731l.715.514.432.316a1.031,1.031,0,0,1,.141.113" transform="translate(-38.735 -35.833)" fill="#263238"/>
        <path id="Trazado_630372" data-name="Trazado 630372" d="M493.249,31.433l8.437,7-.778,8.012L507.82,42.6l7.363,5.231L542.629,30.2Z" transform="translate(-268.471 -16.439)" fill="#2b95f9"/>
        <g id="Grupo_879541" data-name="Grupo 879541" transform="translate(232.436 13.782)" opacity="0.5">
          <g id="Grupo_879540" data-name="Grupo 879540">
            <g id="Grupo_879539" data-name="Grupo 879539" clip-path="url(#clip-path-6)">
              <path id="Trazado_630373" data-name="Trazado 630373" d="M510.833,38.451l40.2-8.208L514.927,41.169l-4.872,5.293Z" transform="translate(-510.055 -30.243)"/>
            </g>
          </g>
        </g>
        <g id="Grupo_879544" data-name="Grupo 879544" transform="translate(232.436 24.709)" opacity="0.8">
          <g id="Grupo_879543" data-name="Grupo 879543">
            <g id="Grupo_879542" data-name="Grupo 879542" clip-path="url(#clip-path-7)">
              <path id="Trazado_630374" data-name="Trazado 630374" d="M514.927,54.221l2.041,1.45-6.913,3.843Z" transform="translate(-510.055 -54.221)"/>
            </g>
          </g>
        </g>
      </g>
    </g>
    <rect id="Rectángulo_328980" data-name="Rectángulo 328980" width="44.036" height="29.682" transform="translate(67.045 124.492) rotate(-5.419)" fill="#fff"/>
    <g id="Grupo_879548" data-name="Grupo 879548">
      <g id="Grupo_879547" data-name="Grupo 879547" clip-path="url(#clip-path)">
        <path id="Trazado_630375" data-name="Trazado 630375" d="M193.474,293.393s-.03-.191-.07-.547q-.059-.558-.167-1.567c-.141-1.386-.345-3.391-.606-5.952-.509-5.14-1.236-12.5-2.123-21.468l.178.148-43.832,4.2c-.044.048.345-.42.181-.218v.023l0,.031.005.062.012.124.023.247.047.493.093.983q.092.982.185,1.956l.366,3.871q.363,3.842.713,7.555c.465,4.946.912,9.7,1.335,14.2l-.2-.169,31.558-2.9,9.039-.807,2.413-.206.627-.049a1.876,1.876,0,0,1,.221-.01,1.266,1.266,0,0,1-.2.03l-.6.068-2.372.247-8.987.9-31.663,3.1-.186.018-.018-.187-1.36-14.2q-.353-3.709-.72-7.554-.183-1.921-.368-3.871-.092-.975-.185-1.956l-.093-.983-.047-.493-.023-.247-.012-.123-.006-.062,0-.031v-.023c-.165.2.224-.276.187-.227l43.84-4.118.164-.015.015.163c.819,9.014,1.492,16.417,1.961,21.586.224,2.548.4,4.544.52,5.923q.083.993.128,1.54c.026.346.031.516.031.516" transform="translate(-79.786 -143.511)" fill="#455a64"/>
        <path id="Trazado_630376" data-name="Trazado 630376" d="M190.962,264.055a2.927,2.927,0,0,1-.34.437l-1.033,1.2-3.866,4.39-12.969,14.5-.115.129-.147-.093-1.167-.744-17.161-11.008L148.99,269.5l-1.4-.935a3.178,3.178,0,0,1-.472-.35,3.138,3.138,0,0,1,.516.281l1.437.87,5.245,3.266,17.225,10.906,1.167.744-.262.036L185.514,269.9l3.961-4.305,1.089-1.153a2.887,2.887,0,0,1,.4-.384" transform="translate(-80.078 -143.723)" fill="#455a64"/>
        <rect id="Rectángulo_328981" data-name="Rectángulo 328981" width="21.78" height="32.312" transform="translate(197.638 98.609) rotate(-74.218)" fill="#fff"/>
        <path id="Trazado_630377" data-name="Trazado 630377" d="M464.586,199.968s.03-.139.1-.392.172-.637.3-1.116l1.164-4.233,4.244-15.25.083.148-31.1-8.759c-.042.021.348-.2.182-.1v.005l0,.011-.006.022-.012.044-.025.087-.05.175-.1.349-.2.7-.392,1.388L438,175.789l-1.517,5.358-2.856,10.071-.095-.17,22.359,6.389,6.4,1.847,1.705.5.442.133a1.346,1.346,0,0,1,.154.052.909.909,0,0,1-.142-.032l-.432-.113-1.687-.46-6.388-1.767-22.482-6.284-.132-.037.037-.133c.9-3.194,1.849-6.567,2.838-10.076q.742-2.632,1.512-5.359l.776-2.746.392-1.388.2-.7.1-.349.049-.175.025-.087.012-.044.006-.022,0-.011,0-.005c-.165.09.226-.13.188-.106l31.083,8.816.116.033-.033.116-4.386,15.287-1.216,4.19-.321,1.088c-.074.244-.116.361-.116.361" transform="translate(-235.854 -92.571)" fill="#455a64"/>
        <path id="Trazado_630378" data-name="Trazado 630378" d="M477.787,179.183a2.091,2.091,0,0,1-.348.209l-1.026.549-3.809,1.978-12.721,6.48-.113.058-.076-.1-.6-.818-8.818-12.084-2.644-3.682-.707-1.01a2.34,2.34,0,0,1-.23-.364,2.251,2.251,0,0,1,.279.329l.752.977,2.721,3.626,8.889,12.032.6.818-.188-.045,12.763-6.4,3.852-1.894,1.051-.5a2.115,2.115,0,0,1,.375-.156" transform="translate(-243.131 -92.744)" fill="#455a64"/>
      </g>
    </g>
    <g id="Grupo_879550" data-name="Grupo 879550">
      <g id="Grupo_879549" data-name="Grupo 879549" clip-path="url(#clip-path)">
        <path id="Trazado_630379" data-name="Trazado 630379" d="M153.957,159.087s2.144-1.736,5.467,3.473a71.47,71.47,0,0,1,4.686,8.267s.849,1.077,1.565.25,1.59-3.06,2.968-2.807c1.429.263,2.037,1.77,1.992,4.075s.044,7.36.053,7.817.328,1.08.906.6,3.756-4.8,5.711-3.166.777,8.032.661,8.735.047.982.389,1.12,1.273-1.412,2.227-2.6,2.269-2.4,3.318-1.366,1.8,5.68-1.911,13.7l-1.965,3.605-4.12.169c-8.839-.175-12.685-2.887-13.156-4.284s1.194-2.048,2.681-2.385,3.288-.5,3.313-.863-.155-.636-.837-.84-6.954-1.948-7.563-4.419,4.658-3.441,5.347-3.748.261-.87-.138-1.075-4.912-2.5-7-3.472-3.18-2.176-2.791-3.576c.376-1.349,2.766-1.157,3.822-1.439s.461-1.517.461-1.517a71.486,71.486,0,0,1-5.379-7.833c-3.227-5.269-.658-6.452-.658-6.452" transform="translate(-83.295 -86.439)" fill="#617a0b"/>
        <path id="Trazado_630380" data-name="Trazado 630380" d="M161.606,169.644s.019.04.062.114l.193.328.753,1.252c.655,1.087,1.615,2.652,2.808,4.582,2.384,3.86,5.724,9.165,9.432,15.011s7.061,11.144,9.467,14.991l2.845,4.558.775,1.239.2.32c.047.072.074.107.074.107s-.019-.04-.062-.114l-.193-.327-.753-1.252c-.655-1.087-1.614-2.652-2.807-4.582-2.385-3.861-5.725-9.166-9.433-15.014s-7.06-11.142-9.466-14.989l-2.845-4.558-.775-1.239-.2-.32c-.047-.072-.074-.107-.074-.107" transform="translate(-87.961 -92.336)" fill="#263238"/>
        <path id="Trazado_630381" data-name="Trazado 630381" d="M183.522,186.533a1.206,1.206,0,0,0-.078.287c-.042.186-.1.457-.158.792-.123.671-.268,1.6-.409,2.633l-.35,2.64q-.064.47-.109.8a1.222,1.222,0,0,0-.027.3,1.255,1.255,0,0,0,.081-.286c.042-.186.095-.458.154-.794.116-.672.249-1.605.39-2.635l.369-2.636c.045-.314.083-.581.114-.8a1.219,1.219,0,0,0,.025-.3" transform="translate(-99.271 -101.528)" fill="#263238"/>
        <path id="Trazado_630382" data-name="Trazado 630382" d="M171.385,201.217c.007-.038-1.9-.423-4.258-.861s-4.276-.762-4.283-.724,1.9.423,4.258.86,4.276.762,4.283.724" transform="translate(-88.635 -108.657)" fill="#263238"/>
        <path id="Trazado_630383" data-name="Trazado 630383" d="M185.81,222.247a1.255,1.255,0,0,0-.3.013l-.82.08c-.692.067-1.648.157-2.707.218s-2.019.088-2.714.1l-.824.017a1.234,1.234,0,0,0-.3.022,1.3,1.3,0,0,0,.3.031c.195.011.477.022.825.028.7.012,1.66,0,2.722-.061s2.02-.167,2.71-.259c.345-.048.624-.09.815-.125a1.267,1.267,0,0,0,.3-.067" transform="translate(-96.96 -120.965)" fill="#263238"/>
        <path id="Trazado_630384" data-name="Trazado 630384" d="M197.745,207.912a1.084,1.084,0,0,0-.14.243c-.082.16-.2.394-.334.684-.277.58-.651,1.386-1.055,2.28s-.765,1.706-1.019,2.3c-.127.3-.227.536-.294.7a1.063,1.063,0,0,0-.09.266,1.109,1.109,0,0,0,.14-.243c.082-.16.2-.394.334-.684.277-.581.65-1.387,1.055-2.28s.764-1.706,1.019-2.3c.127-.3.227-.535.294-.7a1.1,1.1,0,0,0,.091-.266" transform="translate(-106.034 -113.165)" fill="#263238"/>
        <path id="Trazado_630385" data-name="Trazado 630385" d="M210.626,223.309a1.778,1.778,0,0,0-.175.313l-.431.876c-.359.742-.846,1.771-1.376,2.912s-1,2.176-1.339,2.929l-.391.895a1.794,1.794,0,0,0-.126.336,1.805,1.805,0,0,0,.175-.313l.431-.876c.359-.742.846-1.771,1.376-2.912s1-2.176,1.338-2.929l.391-.895a1.8,1.8,0,0,0,.126-.336" transform="translate(-112.552 -121.545)" fill="#263238"/>
        <path id="Trazado_630386" data-name="Trazado 630386" d="M195.229,240.937a2.046,2.046,0,0,0-.384.007l-1.044.065c-.88.054-2.1.125-3.442.167s-2.564.051-3.447.051l-1.045,0a2.037,2.037,0,0,0-.384.016,2.017,2.017,0,0,0,.383.038c.247.015.6.031,1.045.042.883.025,2.1.033,3.452-.01s2.566-.128,3.446-.208c.44-.041.8-.078,1.04-.109a2.037,2.037,0,0,0,.38-.062" transform="translate(-100.957 -131.137)" fill="#263238"/>
        <path id="Trazado_630387" data-name="Trazado 630387" d="M489.351,249.04a6.279,6.279,0,0,0-4.918.036,11.083,11.083,0,0,0-4.008,3.011c-2.169,2.437-3.377,5.992-3.982,9.2,3.6.443,7.109-1.862,8.819-3.144,2.7-2.025,6.354-7.326,4.09-9.1" transform="translate(-259.324 -135.286)" fill="#617a0b"/>
        <path id="Trazado_630388" data-name="Trazado 630388" d="M458.164,266.312a5.359,5.359,0,0,0,2.97-4.487,7.117,7.117,0,0,0-1.914-5.155,3,3,0,0,0-2.228-1.189,2.293,2.293,0,0,0-1.859,1.393,4.653,4.653,0,0,0-.288,2.4c.273,2.778,1.048,5.417,3.319,7.042" transform="translate(-247.548 -139.055)" fill="#617a0b"/>
        <path id="Trazado_630389" data-name="Trazado 630389" d="M451.806,280.15a2.469,2.469,0,0,0,.453-.514c.272-.346.655-.853,1.111-1.5a22.986,22.986,0,0,0,2.955-5.4,11.532,11.532,0,0,0,.549-6.123,7.574,7.574,0,0,0-.594-1.782,2.128,2.128,0,0,0-.357-.588,16.03,16.03,0,0,1,.7,2.418,12.1,12.1,0,0,1-.639,5.953A26.665,26.665,0,0,1,453.156,278a20.732,20.732,0,0,0-1.35,2.155" transform="translate(-245.913 -143.825)" fill="#263238"/>
        <path id="Trazado_630390" data-name="Trazado 630390" d="M472.217,257.792a6.726,6.726,0,0,0-.91.671c-.571.449-1.387,1.113-2.386,1.945-2,1.662-4.721,4-7.664,6.662s-5.547,5.134-7.4,6.955c-.927.91-1.67,1.655-2.175,2.178a6.725,6.725,0,0,0-.758.838,6.663,6.663,0,0,0,.858-.736l2.254-2.093c1.9-1.772,4.528-4.213,7.469-6.871s5.633-5.026,7.586-6.737l2.31-2.032a6.667,6.667,0,0,0,.819-.78" transform="translate(-245.433 -140.313)" fill="#263238"/>
        <path id="Trazado_630391" data-name="Trazado 630391" d="M466.534,287.539a12.537,12.537,0,0,1,11.383-1.273c.942.367,1.964,1.042,1.981,2.053s-.989,1.723-1.93,2.1a10.71,10.71,0,0,1-11.585-2.65" transform="translate(-253.849 -155.367)" fill="#617a0b"/>
        <path id="Trazado_630392" data-name="Trazado 630392" d="M468.024,289.89a2.252,2.252,0,0,0-.588-.292,5.342,5.342,0,0,0-.723-.265,8.87,8.87,0,0,0-.985-.272,13.2,13.2,0,0,0-2.64-.332,14.107,14.107,0,0,0-6.341,1.338,13.189,13.189,0,0,0-2.281,1.371,8.771,8.771,0,0,0-.791.647,5.247,5.247,0,0,0-.554.535c-.289.309-.439.487-.421.5.051.051.69-.631,1.915-1.476a14.732,14.732,0,0,1,2.272-1.275,14.906,14.906,0,0,1,6.2-1.307,14.715,14.715,0,0,1,2.592.248c1.462.278,2.323.643,2.349.576" transform="translate(-246.4 -157.152)" fill="#263238"/>
      </g>
    </g>
    <rect id="Rectángulo_328984" data-name="Rectángulo 328984" width="115.174" height="126.288" transform="translate(94.481 32.946)" fill="#fafafa"/>
    <g id="Grupo_879555" data-name="Grupo 879555">
      <g id="Grupo_879554" data-name="Grupo 879554" clip-path="url(#clip-path)">
        <path id="Trazado_630393" data-name="Trazado 630393" d="M322.36,198.443c0-.9-.042-50.819-.1-126.288l.1.1L207.2,72.273h-.012l.119-.118c-.007,46.47-.013,89.869-.018,126.288l-.1-.1,115.174.1-115.174.1h-.1v-.1c-.005-36.419-.011-79.819-.017-126.288v-.119h.13l115.162.015h.1v.1c-.062,75.47-.1,125.391-.1,126.288" transform="translate(-112.705 -39.209)" fill="#263238"/>
        <path id="Trazado_630394" data-name="Trazado 630394" d="M331.253,306.669H287.235a6.61,6.61,0,0,1-6.61-6.61v-1.345a6.61,6.61,0,0,1,6.61-6.61h44.018a6.61,6.61,0,0,1,6.61,6.61v1.345a6.61,6.61,0,0,1-6.61,6.61" transform="translate(-152.742 -158.99)" fill="#eb6f2d"/>
        <g id="Grupo_879553" data-name="Grupo 879553" transform="translate(128.346 133.114)" opacity="0.5">
          <g id="Grupo_879552" data-name="Grupo 879552">
            <g id="Grupo_879551" data-name="Grupo 879551" clip-path="url(#clip-path-11)">
              <path id="Trazado_630395" data-name="Trazado 630395" d="M331.253,306.669H287.235a6.61,6.61,0,0,1-6.61-6.61v-1.345a6.61,6.61,0,0,1,6.61-6.61h44.018a6.61,6.61,0,0,1,6.61,6.61v1.345a6.61,6.61,0,0,1-6.61,6.61" transform="translate(-280.625 -292.104)"/>
            </g>
          </g>
        </g>
        <path id="Trazado_630396" data-name="Trazado 630396" d="M320.706,306.669H276.688a6.61,6.61,0,0,1-6.61-6.61v-1.345a6.61,6.61,0,0,1,6.61-6.61h44.018a6.61,6.61,0,0,1,6.61,6.61v1.345a6.61,6.61,0,0,1-6.61,6.61" transform="translate(-147.001 -158.99)" fill="#eb6f2d"/>
        <path id="Trazado_630397" data-name="Trazado 630397" d="M304.737,306.879l.194-.435a1.671,1.671,0,0,0,1,.332c.47,0,.669-.168.669-.392,0-.651-1.794-.224-1.794-1.345,0-.487.388-.9,1.216-.9a1.91,1.91,0,0,1,1,.267l-.177.436a1.676,1.676,0,0,0-.832-.237c-.465,0-.655.181-.655.409,0,.643,1.79.225,1.79,1.332,0,.483-.392.9-1.22.9a1.942,1.942,0,0,1-1.19-.362" transform="translate(-165.866 -165.539)" fill="#fafafa"/>
        <path id="Trazado_630398" data-name="Trazado 630398" d="M311.193,305.935v-1.7h.56v1.681c0,.621.28.888.767.888s.763-.267.763-.888v-1.681h.552v1.7a1.322,1.322,0,1,1-2.643,0" transform="translate(-169.38 -165.591)" fill="#fafafa"/>
        <path id="Trazado_630399" data-name="Trazado 630399" d="M321.4,306.43c0,.518-.406.819-1.182.819h-1.5v-3.018h1.414c.724,0,1.112.306,1.112.785a.725.725,0,0,1-.388.664.743.743,0,0,1,.544.75m-2.121-1.759v.832h.793c.388,0,.608-.138.608-.414s-.22-.418-.608-.418Zm1.556,1.7c0-.3-.228-.435-.651-.435h-.905v.871h.905c.422,0,.651-.134.651-.436" transform="translate(-173.476 -165.591)" fill="#fafafa"/>
        <path id="Trazado_630400" data-name="Trazado 630400" d="M325.364,306.879l.194-.435a1.67,1.67,0,0,0,1,.332c.47,0,.668-.168.668-.392,0-.651-1.794-.224-1.794-1.345,0-.487.388-.9,1.216-.9a1.909,1.909,0,0,1,1,.267l-.177.436a1.677,1.677,0,0,0-.832-.237c-.465,0-.655.181-.655.409,0,.643,1.79.225,1.79,1.332,0,.483-.393.9-1.22.9a1.942,1.942,0,0,1-1.19-.362" transform="translate(-177.093 -165.539)" fill="#fafafa"/>
        <path id="Trazado_630401" data-name="Trazado 630401" d="M331.4,305.689a1.633,1.633,0,0,1,2.811-1.048l-.362.341a1.06,1.06,0,0,0-.806-.354,1.061,1.061,0,1,0,0,2.121,1.048,1.048,0,0,0,.806-.358l.362.345a1.633,1.633,0,0,1-2.811-1.048" transform="translate(-180.38 -165.539)" fill="#fafafa"/>
        <path id="Trazado_630402" data-name="Trazado 630402" d="M340.733,307.25l-.617-.884a1.083,1.083,0,0,1-.116,0h-.681v.88h-.56v-3.018H340c.793,0,1.285.405,1.285,1.073a.965.965,0,0,1-.643.953l.694.992Zm-.759-2.544h-.655v1.2h.655c.492,0,.746-.224.746-.6s-.254-.6-.746-.6" transform="translate(-184.383 -165.591)" fill="#fafafa"/>
        <rect id="Rectángulo_328986" data-name="Rectángulo 328986" width="0.56" height="3.018" transform="translate(157.528 138.641)" fill="#fafafa"/>
        <path id="Trazado_630403" data-name="Trazado 630403" d="M351.379,306.43c0,.518-.4.819-1.181.819h-1.5v-3.018h1.414c.725,0,1.112.306,1.112.785a.724.724,0,0,1-.388.664.742.742,0,0,1,.543.75m-2.121-1.759v.832h.793c.388,0,.608-.138.608-.414s-.22-.418-.608-.418Zm1.556,1.7c0-.3-.228-.435-.651-.435h-.905v.871h.905c.423,0,.651-.134.651-.436" transform="translate(-189.794 -165.591)" fill="#fafafa"/>
        <path id="Trazado_630404" data-name="Trazado 630404" d="M358.165,306.78v.47H355.9v-3.018h2.2v.47h-1.642v.785h1.457v.461h-1.457v.832Z" transform="translate(-193.714 -165.591)" fill="#fafafa"/>
        <path id="Trazado_630405" data-name="Trazado 630405" d="M329.1,270.646c0,.066-14.647.119-32.711.119s-32.714-.053-32.714-.119,14.644-.118,32.714-.118,32.711.053,32.711.118" transform="translate(-143.517 -147.246)" fill="#263238"/>
        <path id="Trazado_630406" data-name="Trazado 630406" d="M327.11,279.33c0,.066-19.23.118-42.945.118s-42.95-.052-42.95-.118,19.226-.118,42.95-.118,42.945.053,42.945.118" transform="translate(-131.291 -151.973)" fill="#263238"/>
        <path id="Trazado_630407" data-name="Trazado 630407" d="M216.88,81.911a.975.975,0,1,1-.975-.975.975.975,0,0,1,.975.975" transform="translate(-116.985 -44.053)" fill="#e0e0e0"/>
        <path id="Trazado_630408" data-name="Trazado 630408" d="M224.014,81.911a.975.975,0,1,1-.975-.975.975.975,0,0,1,.975.975" transform="translate(-120.868 -44.053)" fill="#e0e0e0"/>
        <path id="Trazado_630409" data-name="Trazado 630409" d="M231.148,81.911a.975.975,0,1,1-.975-.975.975.975,0,0,1,.975.975" transform="translate(-124.751 -44.053)" fill="#e0e0e0"/>
      </g>
    </g>
    <g id="Grupo_879563" data-name="Grupo 879563">
      <g id="Grupo_879562" data-name="Grupo 879562" clip-path="url(#clip-path)">
        <path id="Trazado_630410" data-name="Trazado 630410" d="M431.953,110.2l1.893-6.83s.683-2.775.846-3.423c.216-.857-.386-1.127-.741-.544-.135.221-1.634,3.047-1.634,3.047s1.195-4.625,1.238-4.794c.387-1.51-.548-1.354-.822-.813-.283.558-1.975,5.109-1.975,5.109,1.588-5.948,1.092-6.472.645-6.566s-1.847,5.345-1.847,5.345a5.08,5.08,0,0,0-1.435-1.57c-1.437-.988-3.831,0-3.946.675s.74.866.74.866a2.162,2.162,0,0,1,3.456,1.962,1.346,1.346,0,0,1-2.634.257c-.595-2.682-1.518-1.811-1.518-1.811l.925,5.916L424.164,110" transform="translate(-230.869 -51.916)" fill="#ffbe9d"/>
        <path id="Trazado_630411" data-name="Trazado 630411" d="M291.168,188.657l40.945-.273,1.125,27.838-42.4-.418Z" transform="translate(-158.303 -102.535)" fill="#455a64"/>
        <path id="Trazado_630412" data-name="Trazado 630412" d="M291.558,168.908l20.8-16.808L332.5,168.635" transform="translate(-158.693 -82.787)" fill="#263238"/>
        <path id="Trazado_630413" data-name="Trazado 630413" d="M290.84,229.677c-.051-.048,3.229-3.625,7.325-7.989s7.46-7.864,7.511-7.816-3.228,3.624-7.326,7.989-7.459,7.863-7.51,7.815" transform="translate(-158.302 -116.409)" fill="#263238"/>
        <path id="Trazado_630414" data-name="Trazado 630414" d="M367.083,230.551c-.052.046-3.242-3.462-7.125-7.835s-6.988-7.958-6.936-8,3.242,3.461,7.125,7.836,6.987,7.957,6.935,8" transform="translate(-192.147 -116.866)" fill="#263238"/>
        <path id="Trazado_630415" data-name="Trazado 630415" d="M332.5,188.383,311.934,204.8l-20.375-16.139" transform="translate(-158.693 -102.536)" fill="#263238"/>
        <path id="Trazado_630416" data-name="Trazado 630416" d="M228.882,105.191l.136,0-.549-1.831-1.754-7a1.285,1.285,0,0,1,.824-1.525l1.262-.043,4.324-2.022a1.348,1.348,0,0,1,1.822,1.046c.158,1.287,1.033,4.743,1.964,3.533.022-.028.045-.052.067-.079,1.309-1.8,2.939-2.774,3.61-2.747a.753.753,0,0,1,.458,1.293.8.8,0,0,1-.247.214c-.044.023-.1.066-.142.1a11.175,11.175,0,0,0-1.556,1.708,5.907,5.907,0,0,0-.953,1.822c-.231.726-.4,1.363-.532,1.9l.336,3.574" transform="translate(-123.377 -50.444)" fill="#ffbe9d"/>
        <path id="Trazado_630417" data-name="Trazado 630417" d="M209.422,23.039s-5.053-.968-12.312-7.562S186.275-.048,185.412.021s-4.69-1.578-11.43,14.25-3.807,19.376-2.378,19.307,11.056-3.05,17.138-2.533S202.7,34.5,202.7,34.5Z" transform="translate(-92.381 0)" fill="#eb6f2d"/>
        <path id="Trazado_630418" data-name="Trazado 630418" d="M258.433,55.315l-1.621,3.306-.726,1.481a4.253,4.253,0,0,1-5.488,2.04L239.73,58.7l5.862-14.487,10.916,5.425a4.253,4.253,0,0,1,1.926,5.68" transform="translate(-130.483 -24.063)" fill="#263238"/>
        <path id="Trazado_630419" data-name="Trazado 630419" d="M244.531,77.815l-3.24,6.819-1.729-.428-10.942,9.429-3.3-6.039s6.538-3.039,7.7-5.434-.273-2.89-.273-2.89l3.015-3.628Z" transform="translate(-122.638 -41.172)" fill="#263238"/>
        <path id="Trazado_630420" data-name="Trazado 630420" d="M175.675,14.989c-3.582,8.572-4.96,16.16-3.076,16.947s6.315-5.524,9.9-14.1S187.456,1.68,185.572.893s-6.314,5.524-9.9,14.1" transform="translate(-93.485 -0.45)" fill="#475155"/>
        <path id="Trazado_630421" data-name="Trazado 630421" d="M279.577,73.692l-2.943-.833,1.708-3.483,2.227,1.3Z" transform="translate(-150.57 -37.761)" fill="#455a64"/>
        <path id="Trazado_630422" data-name="Trazado 630422" d="M245.953,78.372l7.981,4.777.924-1.944Z" transform="translate(-133.87 -42.657)" fill="#455a64"/>
        <path id="Trazado_630423" data-name="Trazado 630423" d="M278.341,69.375l-1.708,3.483.6.172,1.37-3.5Z" transform="translate(-150.569 -37.76)" fill="#455a64"/>
        <path id="Trazado_630424" data-name="Trazado 630424" d="M268.339,68.013a16.32,16.32,0,0,1-3.288-1.172,16.368,16.368,0,0,1-3.143-1.518,32.5,32.5,0,0,1,6.43,2.689" transform="translate(-142.554 -35.549)" fill="#455a64"/>
        <path id="Trazado_630425" data-name="Trazado 630425" d="M270.932,63.512a13.688,13.688,0,0,1-2.978-1.157,13.7,13.7,0,0,1-2.822-1.5,27.247,27.247,0,0,1,5.8,2.654" transform="translate(-144.309 -33.118)" fill="#455a64"/>
        <path id="Trazado_630426" data-name="Trazado 630426" d="M266.669,73.123c-.014.05-.363-.02-.921-.175-.278-.077-.609-.176-.974-.291s-.742-.3-1.147-.468a12.381,12.381,0,0,1-2.819-1.473,15.043,15.043,0,0,1,2.965,1.129c.4.168.775.356,1.126.491s.668.253.932.362c.528.217.851.377.837.427" transform="translate(-141.955 -38.483)" fill="#455a64"/>
        <path id="Trazado_630427" data-name="Trazado 630427" d="M188.663,26.625s-4.441-2.582-6.662,3.382,2.4,6.8,2.4,6.8a39.3,39.3,0,0,0,4.263-10.185" transform="translate(-98.734 -14.189)" fill="#fff"/>
        <path id="Trazado_630428" data-name="Trazado 630428" d="M193.026,11.579a6.61,6.61,0,0,1-.139,1.132c-.118.724-.283,1.776-.527,3.068-.166.638-.349,1.334-.544,2.08l-.307,1.159-.161.606c-.06.2-.139.4-.209.609l-.914,2.572q-.119.335-.241.674c-.078.228-.192.443-.288.668l-.611,1.356-.612,1.356c-.105.221-.192.448-.31.658l-.347.627-1.324,2.388c-.108.189-.206.38-.319.56l-.348.523-.667,1-1.2,1.786c-.806,1.035-1.483,1.852-1.948,2.42a6.632,6.632,0,0,1-.757.854,6.718,6.718,0,0,1,.642-.943l1.853-2.492,1.154-1.8.645-1,.338-.522c.11-.179.2-.371.309-.56l1.3-2.382.341-.624c.117-.208.2-.435.306-.655l.607-1.347L189.353,24c.1-.223.21-.437.288-.662l.242-.669.928-2.547c.072-.2.154-.4.215-.6l.168-.6.323-1.147.585-2.058c.268-1.266.485-2.3.641-3.032a6.755,6.755,0,0,1,.283-1.107" transform="translate(-98.654 -6.302)" fill="#263238"/>
        <path id="Trazado_630429" data-name="Trazado 630429" d="M245.79,132.727l-4.518-17.168-11.292.3,3.512,23.957c.449,5.213,3.516,8.626,8.683,9.454,3.1.5,6.454-2.457,8.941-4.367,1.624-1.248,1.913-1,3.589-2.524l7.274-5.258.179.863-.046,0,1.236,14.639,15.064,11.828,17.969-14.4-.411-6.227c.044-.005.088-.092-.006-.09l-.465-7.057,9.2,10.559a10.509,10.509,0,0,0,18.474-2.152l4.743-24.133-10.408-2.239-4.875,17.39-11.63-13.365c-6.706-8.737-14.536-8-14.536-8l-14.435-.256H272c-.428.023-8.5.267-13.963,6.109Z" transform="translate(-125.176 -62.313)" fill="#2b95f9"/>
        <path id="Trazado_630430" data-name="Trazado 630430" d="M332.979,133.037c-.007.014-.156-.073-.464-.17a3.632,3.632,0,0,0-1.393-.144,6.442,6.442,0,0,0-2.135.612c-.8.354-1.624.918-2.586,1.471a6.717,6.717,0,0,1-3.449,1.094,6.037,6.037,0,0,1-1.986-.462c-.65-.255-1.291-.571-1.964-.838a7.786,7.786,0,0,0-4.437-.421,14.711,14.711,0,0,0-4.425,2.009,16.686,16.686,0,0,1-2.248,1.125,9.188,9.188,0,0,1-2.38.579,9.368,9.368,0,0,1-4.55-.632,17.341,17.341,0,0,1-3.578-2.13c-1.053-.762-2.022-1.488-2.973-2.038a10.7,10.7,0,0,0-2.729-1.125,6.8,6.8,0,0,0-2.215-.184,5.685,5.685,0,0,0-1.826.518.5.5,0,0,1,.108-.067c.074-.039.182-.1.33-.171a5.029,5.029,0,0,1,1.379-.372,6.757,6.757,0,0,1,2.255.147,10.655,10.655,0,0,1,2.782,1.108,35.987,35.987,0,0,1,3,2.024,17.347,17.347,0,0,0,3.545,2.088,9.176,9.176,0,0,0,4.443.6,8.964,8.964,0,0,0,2.319-.567,16.6,16.6,0,0,0,2.215-1.11,14.828,14.828,0,0,1,4.5-2.032,7.985,7.985,0,0,1,4.563.446,12.029,12.029,0,0,0,3.875,1.306,6.585,6.585,0,0,0,3.36-1.043c.958-.538,1.8-1.1,2.614-1.446a6.4,6.4,0,0,1,2.183-.583,3.5,3.5,0,0,1,1.414.191,2,2,0,0,1,.449.215" transform="translate(-156.561 -71.658)" fill="#fafafa"/>
        <path id="Trazado_630431" data-name="Trazado 630431" d="M332.524,150.021a2.6,2.6,0,0,1-.247.635,4.087,4.087,0,0,1-1.307,1.443,6.02,6.02,0,0,1-2.9,1.028,18.949,18.949,0,0,1-4.088-.18,11.481,11.481,0,0,0-4.865.218,11.047,11.047,0,0,0-2.413,1.268,17.412,17.412,0,0,1-2.54,1.476,10.764,10.764,0,0,1-6.211.727,10.376,10.376,0,0,1-3.155-1.106c-1-.537-1.934-1.2-2.9-1.829a12,12,0,0,0-3.017-1.515,7.561,7.561,0,0,0-3.239-.2,50.169,50.169,0,0,0-6.024,1.7,11.566,11.566,0,0,1-2.9.486,6.885,6.885,0,0,1-2.74-.463,13.571,13.571,0,0,1-4.021-2.9,19.261,19.261,0,0,0-3.136-2.582,6.5,6.5,0,0,0-2.867-.978,4.569,4.569,0,0,0-1.905.23c-.416.154-.612.286-.62.272a2.856,2.856,0,0,1,.6-.317,4.463,4.463,0,0,1,1.929-.277,6.533,6.533,0,0,1,2.929.957,19.177,19.177,0,0,1,3.182,2.572,13.482,13.482,0,0,0,3.979,2.838,6.708,6.708,0,0,0,2.661.437,11.432,11.432,0,0,0,2.849-.489c.959-.27,1.926-.608,2.924-.931a18.428,18.428,0,0,1,3.125-.785,7.779,7.779,0,0,1,3.339.206,12.191,12.191,0,0,1,3.078,1.542c.972.628,1.9,1.291,2.883,1.82a10.121,10.121,0,0,0,3.084,1.085,10.567,10.567,0,0,0,6.082-.7c1.813-.791,3.238-2.166,4.978-2.731a8.074,8.074,0,0,1,2.568-.369,21,21,0,0,1,2.379.17,19.1,19.1,0,0,0,4.056.215,5.98,5.98,0,0,0,2.862-.972,4.157,4.157,0,0,0,1.318-1.39c.215-.387.273-.617.288-.612" transform="translate(-147.735 -80.089)" fill="#fafafa"/>
        <path id="Trazado_630432" data-name="Trazado 630432" d="M411.262,177.663a3.418,3.418,0,0,0-.631-.517,3.162,3.162,0,0,0-2.14-.319,6.932,6.932,0,0,0-2.883,1.54c-.5.384-1.011.807-1.593,1.185a5,5,0,0,1-4.13.793,15.707,15.707,0,0,1-1.91-.557c-.6-.2-1.158-.407-1.694-.548a8.333,8.333,0,0,0-1.517-.257,4.25,4.25,0,0,0-2.169.347,8.189,8.189,0,0,0-.7.428c-.005-.006.046-.059.149-.155a1.327,1.327,0,0,1,.2-.164,1.969,1.969,0,0,1,.3-.191,4.164,4.164,0,0,1,2.221-.432,8.192,8.192,0,0,1,1.556.234c.55.135,1.119.334,1.716.531a8.019,8.019,0,0,0,3.948.589,5.345,5.345,0,0,0,1.9-.814c.57-.367,1.083-.781,1.586-1.163a6.932,6.932,0,0,1,2.988-1.532,3.17,3.17,0,0,1,2.217.406,2.147,2.147,0,0,1,.465.413.737.737,0,0,1,.117.182" transform="translate(-213.306 -96.131)" fill="#fafafa"/>
        <path id="Trazado_630433" data-name="Trazado 630433" d="M426.135,148.676a1.218,1.218,0,0,1-.392.246,3.6,3.6,0,0,1-1.224.309,6,6,0,0,1-1.864-.168,18.535,18.535,0,0,1-2.159-.719,12.087,12.087,0,0,0-2.145-.64,5.162,5.162,0,0,0-1.8-.007,4.121,4.121,0,0,0-1.529.659,1.163,1.163,0,0,1,.336-.318,3.213,3.213,0,0,1,1.158-.506,5.056,5.056,0,0,1,1.873-.045,11.276,11.276,0,0,1,2.194.634,21.3,21.3,0,0,0,2.129.729,6.266,6.266,0,0,0,1.8.212,4.905,4.905,0,0,0,1.626-.387" transform="translate(-225.891 -80.241)" fill="#fafafa"/>
        <path id="Trazado_630434" data-name="Trazado 630434" d="M335.057,186.637a11.724,11.724,0,0,0-1.193-.546,8.059,8.059,0,0,0-3.519-.363,15.076,15.076,0,0,0-5.025,1.595,48.718,48.718,0,0,1-5.95,2.713,11.054,11.054,0,0,1-3.354.579,10.261,10.261,0,0,1-3.125-.538,26.289,26.289,0,0,1-2.657-1.057c-.818-.36-1.572-.708-2.276-.984a11.832,11.832,0,0,0-3.446-.9c-.211-.012-.4-.03-.56-.034l-.411.013a1.856,1.856,0,0,1-.342,0,1.8,1.8,0,0,1,.339-.044l.414-.036c.164,0,.354.007.567.012a11.29,11.29,0,0,1,3.5.835c.714.268,1.474.608,2.294.961a27.094,27.094,0,0,0,2.644,1.029,10.135,10.135,0,0,0,3.058.514,10.934,10.934,0,0,0,3.283-.573,50.936,50.936,0,0,0,5.929-2.684,14.932,14.932,0,0,1,5.1-1.565A7.875,7.875,0,0,1,333.9,186a4.59,4.59,0,0,1,1.161.633" transform="translate(-165.029 -100.978)" fill="#fafafa"/>
        <path id="Trazado_630435" data-name="Trazado 630435" d="M236.534,162.246a.606.606,0,0,1,.217-.1,1.19,1.19,0,0,1,.689.028,1.972,1.972,0,0,1,.9.622,6.544,6.544,0,0,1,.722,1.241,4.245,4.245,0,0,0,1.008,1.342,4.924,4.924,0,0,0,1.686.932,9.505,9.505,0,0,0,4.438.212,31.374,31.374,0,0,1,4.517-.543,6.4,6.4,0,0,1,3.573.991,4.035,4.035,0,0,1,1.629,1.893,2.443,2.443,0,0,1,.19.9,7.9,7.9,0,0,0-.276-.865,4.07,4.07,0,0,0-1.634-1.787,6.332,6.332,0,0,0-3.483-.914,33.175,33.175,0,0,0-4.485.56,9.566,9.566,0,0,1-4.541-.24,5.071,5.071,0,0,1-1.746-.992,4.352,4.352,0,0,1-1.028-1.415,6.778,6.778,0,0,0-.676-1.233,1.924,1.924,0,0,0-.824-.617,1.278,1.278,0,0,0-.876-.012" transform="translate(-128.744 -88.232)" fill="#fafafa"/>
        <path id="Trazado_630436" data-name="Trazado 630436" d="M244.343,130.434a4.637,4.637,0,0,0-1.589-.825,5.187,5.187,0,0,0-1.93-.127,8.439,8.439,0,0,0-2.294.661c-.786.337-1.51.722-2.181,1.053a16.392,16.392,0,0,1-1.829.794,7.286,7.286,0,0,1-1.305.334,1.586,1.586,0,0,1-.493.031,15.95,15.95,0,0,0,1.74-.522A19.5,19.5,0,0,0,236.25,131c.663-.339,1.388-.732,2.187-1.075a8.206,8.206,0,0,1,2.364-.66,5.085,5.085,0,0,1,2,.183,3.587,3.587,0,0,1,1.2.628,1.34,1.34,0,0,1,.343.358" transform="translate(-126.668 -70.343)" fill="#fafafa"/>
        <g id="Grupo_879558" data-name="Grupo 879558" transform="translate(150.672 74.368)" opacity="0.3">
          <g id="Grupo_879557" data-name="Grupo 879557">
            <g id="Grupo_879556" data-name="Grupo 879556" clip-path="url(#clip-path-13)">
              <path id="Trazado_630437" data-name="Trazado 630437" d="M330.633,188.95c5.849-3.392,12.621-7.37,16-13.228a31.424,31.424,0,0,0,3.652-12.531l.881,13.374-17.969,14.4Z" transform="translate(-330.633 -163.192)"/>
            </g>
          </g>
        </g>
        <g id="Grupo_879561" data-name="Grupo 879561" transform="translate(120.526 55.882)" opacity="0.2">
          <g id="Grupo_879560" data-name="Grupo 879560">
            <g id="Grupo_879559" data-name="Grupo 879559" clip-path="url(#clip-path-14)">
              <path id="Trazado_630438" data-name="Trazado 630438" d="M279.464,122.626a25.811,25.811,0,0,1-8.034,13.041,10,10,0,0,1-3.232,2.042,4.471,4.471,0,0,1-3.718-.245l.087-.306,9.107-9.018Z" transform="translate(-264.481 -122.626)"/>
            </g>
          </g>
        </g>
        <path id="Trazado_630439" data-name="Trazado 630439" d="M265.8,161.722c-.039-.015.11-.414.232-1.081a7.683,7.683,0,0,0-.844-5.113c-.331-.592-.6-.923-.568-.949a3.116,3.116,0,0,1,.712.864,6.886,6.886,0,0,1,.864,5.233,3.124,3.124,0,0,1-.4,1.047" transform="translate(-144.032 -84.136)" fill="#263238"/>
        <path id="Trazado_630440" data-name="Trazado 630440" d="M261.486,159.675a6.508,6.508,0,0,0,1.283-4.637,1.65,1.65,0,0,1,.182.719,4.852,4.852,0,0,1-.94,3.4c-.281.365-.506.543-.525.523" transform="translate(-142.323 -84.386)" fill="#263238"/>
        <path id="Trazado_630441" data-name="Trazado 630441" d="M298.679,144.539c.065-.006.439,3.627.835,8.113s.664,8.129.6,8.135-.439-3.627-.835-8.114-.664-8.128-.6-8.134" transform="translate(-162.564 -78.671)" fill="#263238"/>
        <path id="Trazado_630442" data-name="Trazado 630442" d="M335.975,113.9a1.106,1.106,0,0,1,.1.246,5.071,5.071,0,0,1,.2.732,6.944,6.944,0,0,1-.043,2.783,7.2,7.2,0,0,1-1.987,3.6,7.086,7.086,0,0,1-9.369.2,7.2,7.2,0,0,1-2.143-3.513,6.945,6.945,0,0,1-.165-2.778,5.074,5.074,0,0,1,.166-.741,1.061,1.061,0,0,1,.087-.249c.028.007-.089.354-.162,1a7.224,7.224,0,0,0,.235,2.722,7.129,7.129,0,0,0,2.125,3.393,6.923,6.923,0,0,0,9.074-.2,7.13,7.13,0,0,0,1.975-3.482,7.232,7.232,0,0,0,.116-2.73c-.1-.644-.234-.985-.206-.993" transform="translate(-175.53 -61.996)" fill="#263238"/>
        <path id="Trazado_630443" data-name="Trazado 630443" d="M410.04,167.346a17.244,17.244,0,0,1,.324-5.693c.068.01-.074,1.278-.162,2.847s-.093,2.844-.162,2.846" transform="translate(-223.121 -87.986)" fill="#263238"/>
        <path id="Trazado_630444" data-name="Trazado 630444" d="M412.508,167.972a3.751,3.751,0,0,1-.39-.93,20.256,20.256,0,0,1-.982-4.753,3.749,3.749,0,0,1-.012-1.008c.071-.005.207,1.522.592,3.366s.858,3.3.791,3.325" transform="translate(-223.759 -87.784)" fill="#263238"/>
        <path id="Trazado_630445" data-name="Trazado 630445" d="M373.2,162.829c-.066,0-.215-2.565-.334-5.734s-.162-5.741-.1-5.744.215,2.565.334,5.735.162,5.741.1,5.743" transform="translate(-202.879 -82.38)" fill="#263238"/>
        <path id="Trazado_630446" data-name="Trazado 630446" d="M323.329,89.974h0a6.462,6.462,0,0,1-6.334-6.191c-.1-2.5-.19-4.79-.19-4.79s-5.227-.555-5.542-5.739.006-17.138.006-17.138a18.048,18.048,0,0,1,18.224,1.4l.8.554L329.91,83.61a6.461,6.461,0,0,1-6.581,6.364" transform="translate(-169.342 -29.547)" fill="#ffbe9d"/>
        <path id="Trazado_630447" data-name="Trazado 630447" d="M323.563,105.653a12.078,12.078,0,0,0,6.669-2.249s-1.417,3.81-6.616,3.594Z" transform="translate(-176.113 -56.282)" fill="#eb996e"/>
        <path id="Trazado_630448" data-name="Trazado 630448" d="M352.35,74.181c.087-.042,3.513-1.227,3.571,2.325s-3.519,2.878-3.527,2.776-.045-5.1-.045-5.1" transform="translate(-191.781 -40.255)" fill="#ffbe9d"/>
        <path id="Trazado_630449" data-name="Trazado 630449" d="M354.776,79.279c.016-.012.063.042.168.088a.619.619,0,0,0,.463,0,1.53,1.53,0,0,0,.685-1.385,2.035,2.035,0,0,0-.188-.883.714.714,0,0,0-.473-.467.314.314,0,0,0-.362.175c-.046.1-.022.171-.041.177s-.077-.058-.051-.205a.393.393,0,0,1,.136-.225.465.465,0,0,1,.341-.1.868.868,0,0,1,.655.54,2.1,2.1,0,0,1,.231.986,1.606,1.606,0,0,1-.877,1.548.661.661,0,0,1-.567-.085c-.112-.086-.132-.165-.119-.171" transform="translate(-193.1 -41.615)" fill="#eb996e"/>
        <path id="Trazado_630450" data-name="Trazado 630450" d="M316.882,74.714a.741.741,0,0,0,.715.748.71.71,0,0,0,.765-.669.743.743,0,0,0-.715-.749.71.71,0,0,0-.765.669" transform="translate(-172.476 -40.301)" fill="#263238"/>
        <path id="Trazado_630451" data-name="Trazado 630451" d="M314.89,72.954c.092.1.654-.319,1.451-.317s1.383.4,1.469.3c.043-.043-.051-.218-.306-.4a2.037,2.037,0,0,0-1.177-.363,1.953,1.953,0,0,0-1.155.373c-.246.188-.329.363-.283.406" transform="translate(-171.386 -39.284)" fill="#263238"/>
        <path id="Trazado_630452" data-name="Trazado 630452" d="M333.7,74.915a.742.742,0,0,0,.715.748.71.71,0,0,0,.765-.669.742.742,0,0,0-.715-.748.709.709,0,0,0-.765.669" transform="translate(-181.628 -40.411)" fill="#263238"/>
        <path id="Trazado_630453" data-name="Trazado 630453" d="M332.1,73.281c.092.1.655-.319,1.452-.317s1.383.4,1.47.3c.042-.043-.05-.218-.306-.4a2.032,2.032,0,0,0-1.176-.362,1.955,1.955,0,0,0-1.156.373c-.245.188-.329.363-.283.406" transform="translate(-180.755 -39.462)" fill="#263238"/>
        <path id="Trazado_630454" data-name="Trazado 630454" d="M323.333,79.257a5.292,5.292,0,0,0-1.3-.234c-.2-.021-.4-.062-.431-.2a1.04,1.04,0,0,1,.136-.6l.6-1.552a26.785,26.785,0,0,0,1.354-4.059,26.634,26.634,0,0,0-1.677,3.94c-.2.545-.394,1.064-.577,1.561a1.183,1.183,0,0,0-.106.8.514.514,0,0,0,.335.3,1.386,1.386,0,0,0,.346.048,5.173,5.173,0,0,0,1.314,0" transform="translate(-174.881 -39.52)" fill="#263238"/>
        <path id="Trazado_630455" data-name="Trazado 630455" d="M327.877,88.41c-.13-.008-.132.859-.873,1.473s-1.664.52-1.671.641c-.012.055.206.168.6.179a2.159,2.159,0,0,0,1.394-.486A1.88,1.88,0,0,0,328,88.982c.033-.362-.064-.577-.123-.572" transform="translate(-177.076 -48.121)" fill="#263238"/>
        <path id="Trazado_630456" data-name="Trazado 630456" d="M331.66,66.635c.079.217.875.114,1.812.227.938.094,1.693.368,1.818.174.055-.093-.077-.3-.382-.507a3.174,3.174,0,0,0-2.765-.305c-.344.139-.517.309-.483.412" transform="translate(-180.518 -35.943)" fill="#263238"/>
        <path id="Trazado_630457" data-name="Trazado 630457" d="M315.522,67.83c.14.181.69-.007,1.351-.015.661-.032,1.221.122,1.35-.068.057-.092-.032-.274-.277-.445a1.955,1.955,0,0,0-2.176.067c-.233.186-.31.373-.248.461" transform="translate(-171.725 -36.469)" fill="#263238"/>
        <path id="Trazado_630458" data-name="Trazado 630458" d="M305.618,45.539a1.917,1.917,0,0,1,.708-1.713,1.36,1.36,0,0,1,1.762.132,1.587,1.587,0,0,1,1.364-1.924c.847-.054,1.569.586,2.387.81a3.856,3.856,0,0,0,2.425-.28c.768-.309,1.487-.736,2.264-1.021a6.641,6.641,0,0,1,8.493,3.9,2.947,2.947,0,0,1,3.126,1.183,4.837,4.837,0,0,1,.741,3.407,10.852,10.852,0,0,1-.594,2.33c0,.067.006.132.005.2-.054,2.856-.377,6.209-1.595,6.228-2.123.032-1.617-3.968-1.617-3.968-2.606-1.007-1.635-4.911-2.287-5.5s-2.015-1.969-7.47.82a10.57,10.57,0,0,1-6.473.7c-.045-.01-.091-.017-.136-.028l-.031-.006c-.017,0-.029-.014-.045-.018a4.9,4.9,0,0,1-1.4-.594,2.762,2.762,0,0,1-1.153-1.282,1.514,1.514,0,0,1,.3-1.626,3.326,3.326,0,0,1-.774-1.747" transform="translate(-166.341 -22.396)" fill="#263238"/>
      </g>
    </g>
  </g>
</svg>
