<svg xmlns="http://www.w3.org/2000/svg" xmlns:xlink="http://www.w3.org/1999/xlink" width="138.953" height="138.953" viewBox="0 0 138.953 138.953">
  <defs>
    <filter id="Elipse_6674" x="0" y="0" width="138.953" height="138.953" filterUnits="userSpaceOnUse">
      <feOffset dy="3" input="SourceAlpha"/>
      <feGaussianBlur stdDeviation="3" result="blur"/>
      <feFlood flood-opacity="0.161"/>
      <feComposite operator="in" in2="blur"/>
      <feComposite in="SourceGraphic"/>
    </filter>
  </defs>
  <g id="Grupo_881017" data-name="Grupo 881017" transform="translate(-455.523 -1893.409)">
    <g transform="matrix(1, 0, 0, 1, 455.52, 1893.41)" filter="url(#Elipse_6674)">
      <circle id="Elipse_6674-2" data-name="Elipse 6674" cx="60.477" cy="60.477" r="60.477" transform="translate(9 6)" fill="#ffb338"/>
    </g>
    <g id="Grupo_879099" data-name="Grupo 879099" transform="translate(496.003 1930.181)">
      <path id="Trazado_628246" data-name="Trazado 628246" d="M129.242,125.063A1.242,1.242,0,0,1,128,123.821v-7.449a1.242,1.242,0,0,1,1.242-1.242c5.339,0,6.729-3.665,8.726-10.138.4-1.289.807-2.615,1.279-3.936,2.374-6.635,5.639-15.723,17.31-15.723a1.242,1.242,0,0,1,1.241,1.242v7.449a1.242,1.242,0,0,1-1.242,1.242c-5.165,0-5.87,1.577-7.273,4.718l-.109.248h4.9a1.242,1.242,0,0,1,1.242,1.242v7.449a1.242,1.242,0,0,1-1.242,1.242h-7.745C144.09,117.718,137.684,125.063,129.242,125.063Zm1.241-7.509v4.966c6.9-.72,12.055-7.345,13.694-13.905a1.242,1.242,0,0,1,1.2-.934h7.449v-4.966h-5.619a1.241,1.241,0,0,1-1.1-1.808c.345-.675.636-1.326.909-1.937,1.388-3.106,2.587-5.818,8.3-6.153V87.851c-8.229.531-11.008,6.431-13.729,14.037-.459,1.286-.857,2.577-1.242,3.829C138.643,111.227,136.889,116.911,130.483,117.554Z" transform="translate(-113.101 -75.401)" fill="#12263f"/>
      <path id="Trazado_628247" data-name="Trazado 628247" d="M50.9,59.594H8.691A8.691,8.691,0,0,1,0,50.9V8.691A8.691,8.691,0,0,1,8.691,0H50.9a8.691,8.691,0,0,1,8.691,8.691h0V50.9A8.691,8.691,0,0,1,50.9,59.594ZM8.691,2.483A6.208,6.208,0,0,0,2.483,8.691V50.9a6.208,6.208,0,0,0,6.208,6.208H50.9A6.208,6.208,0,0,0,57.111,50.9V8.691A6.208,6.208,0,0,0,50.9,2.483H8.691Z" transform="translate(0 0)" fill="#12263f"/>
    </g>
  </g>
</svg>
