<svg xmlns="http://www.w3.org/2000/svg" width="78.227" height="50.162" viewBox="0 0 78.227 50.162">
  <g id="Grupo_1034310" data-name="Grupo 1034310" transform="translate(-180 -7553.838)">
    <path id="Trazado_194609" data-name="Trazado 194609" d="M0,0,78.227,36.813H0Z" transform="translate(180 7567.188)" fill="#5f914e"/>
    <g id="Grupo_880429" data-name="Grupo 880429" transform="translate(193.55 7521.338)">
      <path id="Trazado_633277" data-name="Trazado 633277" d="M61.7,427.611H9.071A1.571,1.571,0,0,1,7.5,426.04v-2.469A1.571,1.571,0,0,1,9.071,422H61.7a1.571,1.571,0,0,1,1.571,1.571v2.469A1.571,1.571,0,0,1,61.7,427.611Z" transform="translate(-6.658 -345.792)" fill="#a9dbf5"/>
      <path id="Trazado_633278" data-name="Trazado 633278" d="M463.867,422H460.5a1.571,1.571,0,0,1,1.571,1.571v2.469a1.571,1.571,0,0,1-1.571,1.571h3.367a1.571,1.571,0,0,0,1.571-1.571v-2.469A1.571,1.571,0,0,0,463.867,422Z" transform="translate(-408.824 -345.792)" fill="#88c3e0"/>
      <path id="Trazado_633279" data-name="Trazado 633279" d="M87.009,155.664H43.245A2.244,2.244,0,0,1,41,153.421V124.246A2.244,2.244,0,0,1,43.244,122H87.008a2.244,2.244,0,0,1,2.244,2.244v29.175A2.244,2.244,0,0,1,87.009,155.664Z" transform="translate(-36.399 -79.457)" fill="#4380a0"/>
      <path id="Trazado_633280" data-name="Trazado 633280" d="M426.611,153.42a2.244,2.244,0,0,1-2.244,2.244H421a2.244,2.244,0,0,0,2.244-2.244V124.244A2.244,2.244,0,0,0,421,122h3.361a2.244,2.244,0,0,1,2.244,2.244Z" transform="translate(-373.757 -79.457)" fill="#3b7191"/>
      <path id="Trazado_633281" data-name="Trazado 633281" d="M112.52,178.931H71V152h41.519Z" transform="translate(-63.033 -106.09)" fill="#ffb338"/>
      <path id="Trazado_633282" data-name="Trazado 633282" d="M410.995,152h3.367v26.931h-3.367Z" transform="translate(-364.874 -106.09)" fill="#ffae08"/>
      <path id="Trazado_633283" data-name="Trazado 633283" d="M38.281,73.441H23.02A2.02,2.02,0,0,1,21,71.421V42.02A2.02,2.02,0,0,1,23.02,40H38.281a2.02,2.02,0,0,1,2.02,2.02v29.4A2.02,2.02,0,0,1,38.281,73.441Z" transform="translate(-18.643 -6.658)" fill="#b6e1fd"/>
      <path id="Trazado_633284" data-name="Trazado 633284" d="M148.367,40H145a2.02,2.02,0,0,1,2.02,2.02v29.4a2.02,2.02,0,0,1-2.02,2.02h3.367a2.02,2.02,0,0,0,2.02-2.02V42.02A2.02,2.02,0,0,0,148.367,40Z" transform="translate(-128.729 -6.658)" fill="#8cf2ff"/>
      <path id="Trazado_633285" data-name="Trazado 633285" d="M40.3,298.308v2.434a2.02,2.02,0,0,1-2.02,2.02H23.02a2.02,2.02,0,0,1-2.02-2.02v-2.434Z" transform="translate(-18.643 -235.98)" fill="#4380a0"/>
      <path id="Trazado_633286" data-name="Trazado 633286" d="M147.02,298.308v2.434a2.02,2.02,0,0,1-2.02,2.02h3.367a2.02,2.02,0,0,0,2.02-2.02v-2.434Z" transform="translate(-128.729 -235.98)" fill="#3b7191"/>
      <circle id="Elipse_6880" data-name="Elipse 6880" cx="6.957" cy="6.957" r="6.957" transform="translate(27.83 52.418)" fill="#b1de19"/>
      <path id="Trazado_633287" data-name="Trazado 633287" d="M297.9,210a6.978,6.978,0,0,0-1.529.171,6.957,6.957,0,0,1,0,13.574A6.957,6.957,0,1,0,297.9,210Z" transform="translate(-263.113 -157.581)" fill="#5f914e"/>
      <g id="Grupo_880428" data-name="Grupo 880428" transform="translate(0 32.5)">
        <path id="Trazado_633288" data-name="Trazado 633288" d="M55.042,75.367H53.357a3.067,3.067,0,0,0,.339-1.4V44.788A3.089,3.089,0,0,0,50.609,41.7H46.688a.842.842,0,1,0,0,1.683h3.921a1.4,1.4,0,0,1,1.4,1.4V73.963a1.4,1.4,0,0,1-1.4,1.4H6.846a1.4,1.4,0,0,1-1.4-1.4v-6.34H7.127v5.218a.842.842,0,0,0,.842.842H49.488a.842.842,0,0,0,.842-.842V45.91a.842.842,0,0,0-.842-.842H22.5V43.386H43.118a.842.842,0,1,0,0-1.683H22.5V35.362A2.865,2.865,0,0,0,19.638,32.5H4.376a2.865,2.865,0,0,0-2.862,2.862V53.932a.842.842,0,0,0,1.683,0V35.362a1.18,1.18,0,0,1,1.178-1.178H19.638a1.18,1.18,0,0,1,1.178,1.178v26.09H3.2V57.58a.842.842,0,1,0-1.683,0v7.182A2.866,2.866,0,0,0,3.76,67.556v6.408a3.065,3.065,0,0,0,.339,1.4H2.413A2.415,2.415,0,0,0,0,77.78v2.469a2.415,2.415,0,0,0,2.413,2.413H43.076a.842.842,0,0,0,0-1.683H2.413a.73.73,0,0,1-.729-.729V77.78a.73.73,0,0,1,.729-.729h52.63a.73.73,0,0,1,.729.729v2.469a.73.73,0,0,1-.729.729H46.709a.842.842,0,0,0,0,1.683h8.333a2.415,2.415,0,0,0,2.413-2.413V77.78A2.415,2.415,0,0,0,55.042,75.367Zm-6.4-28.615V72H8.81V67.624H19.638A2.865,2.865,0,0,0,22.5,64.762V46.753ZM3.2,64.762V63.135H20.816v1.627a1.18,1.18,0,0,1-1.178,1.178H4.376A1.18,1.18,0,0,1,3.2,64.762Z" transform="translate(0 -32.5)"/>
        <path id="Trazado_633289" data-name="Trazado 633289" d="M248.3,218.1a7.8,7.8,0,1,0-7.8-7.8A7.808,7.808,0,0,0,248.3,218.1Zm0-13.915a6.116,6.116,0,1,1-6.116,6.116A6.123,6.123,0,0,1,248.3,204.183Z" transform="translate(-213.512 -183.423)"/>
        <path id="Trazado_633290" data-name="Trazado 633290" d="M273.1,248.666l2.8,2.409a.842.842,0,0,0,1.137-.037l3.932-3.848a.842.842,0,1,0-1.177-1.2l-3.38,3.308L274.2,247.39a.842.842,0,0,0-1.1,1.276Z" transform="translate(-242.194 -221.817)"/>
        <path id="Trazado_633291" data-name="Trazado 633291" d="M73,156.359a.842.842,0,0,0,1.137-.037l3.932-3.848a.842.842,0,0,0-1.177-1.2l-3.38,3.308-2.217-1.906a.842.842,0,1,0-1.1,1.276Z" transform="translate(-62.057 -137.73)"/>
      </g>
    </g>
  </g>
</svg>
