<svg id="Grupo_879805" data-name="Grupo 879805" xmlns="http://www.w3.org/2000/svg" xmlns:xlink="http://www.w3.org/1999/xlink" width="546.213" height="297.817" viewBox="0 0 546.213 297.817">
  <defs>
    <clipPath id="clip-path">
      <rect id="Rectángulo_329135" data-name="Rectángulo 329135" width="546.213" height="297.817" fill="none"/>
    </clipPath>
    <clipPath id="clip-path-5">
      <rect id="Rectángulo_329128" data-name="Rectángulo 329128" width="151.848" height="80.444" fill="none"/>
    </clipPath>
  </defs>
  <g id="Grupo_879804" data-name="Grupo 879804" clip-path="url(#clip-path)">
    <g id="Grupo_879790" data-name="Grupo 879790">
      <g id="Grupo_879789" data-name="Grupo 879789" clip-path="url(#clip-path)">
        <path id="Trazado_631267" data-name="Trazado 631267" d="M60.231,289.026c19.656-9.2,27.437-31.075,30.144-51.455.451-3.4,1.426-6.906.294-10.147s-4.6-5.9-7.9-4.993c-2.744.756-4.345,3.493-6.175,5.671a20.237,20.237,0,0,1-9.311,6.233c-2.37.753-5.185.985-7.144-.549-2.686-2.1-2.358-6.193-1.772-9.556q1.639-9.393,3.277-18.789c.586-3.361,1.174-6.793.649-10.164s-2.368-6.728-5.461-8.168-7.414-.264-8.651,2.914a31.184,31.184,0,0,0-.8,4.174c-.329,1.38-1.249,2.816-2.658,2.98-1.426.167-2.63-1.016-3.484-2.17-2.949-3.986-4.6-8.761-6.1-13.486s-2.919-9.542-5.489-13.781-6.494-7.915-11.33-9-10.538,1.015-12.567,5.538-.036,9.817,2.37,14.167A76.668,76.668,0,0,0,21.458,196a6.293,6.293,0,0,1,2.179,3.255c.364,2.366-2.165,4.234-4.531,4.6-2.682.41-5.395-.312-8.1-.447s-5.785.539-7.207,2.849c-1.973,3.207.336,7.3,2.808,10.138A66.28,66.28,0,0,0,24.049,230.6c2.355,1.327,4.861,2.561,6.591,4.638s2.443,5.3.824,7.47-4.884,2.4-7.43,1.481-4.661-2.72-7.008-4.071c-4.392-2.529-10.5-3.221-14.167.272-2.414,2.3-3.2,5.925-2.73,9.223A24.819,24.819,0,0,0,3.9,258.8a66.4,66.4,0,0,0,24.73,24.094c10.244,5.537,20.144,8.228,31.6,6.137" transform="translate(0 -33.627)" fill="#ebebeb"/>
        <path id="Trazado_631268" data-name="Trazado 631268" d="M60.094,275.988a303.7,303.7,0,0,0-6.68-34.477l-2.221-8.951c-.734-2.938-1.463-5.847-2.354-8.651a152.473,152.473,0,0,0-6.049-15.83c-2.171-4.945-4.414-9.56-6.542-13.862S32.044,185.948,30,182.41a122.459,122.459,0,0,0-10.871-15.984c-1.428-1.783-2.579-3.131-3.371-4.036l-.907-1.023c-.206-.228-.322-.337-.322-.337s.089.132.282.372l.868,1.055c.765.926,1.891,2.293,3.293,4.093a127.93,127.93,0,0,1,10.711,16.04c2.017,3.542,4.062,7.514,6.18,11.815s4.334,8.924,6.489,13.864a153.36,153.36,0,0,1,6,15.789c.883,2.793,1.6,5.682,2.338,8.626s1.468,5.927,2.218,8.948a309.756,309.756,0,0,1,6.709,34.415" transform="translate(-3.084 -34.173)" fill="#e0e0e0"/>
        <path id="Trazado_631269" data-name="Trazado 631269" d="M57.93,231.009a8.24,8.24,0,0,0,.552-1.386c.328-.9.763-2.222,1.279-3.857,1.034-3.272,2.314-7.837,3.712-12.874s2.755-9.572,3.858-12.813c.547-1.623,1.005-2.931,1.335-3.83a8.237,8.237,0,0,0,.456-1.42,8.417,8.417,0,0,0-.643,1.347c-.388.878-.9,2.171-1.492,3.782-1.2,3.22-2.611,7.752-4.011,12.8l-3.565,12.909c-.453,1.576-.83,2.887-1.121,3.9a8.2,8.2,0,0,0-.361,1.448" transform="translate(-12.293 -41.346)" fill="#e0e0e0"/>
        <path id="Trazado_631270" data-name="Trazado 631270" d="M4.017,221.187a1.623,1.623,0,0,0,.439.149l1.279.328c1.111.279,2.718.68,4.687,1.241,3.946,1.087,9.344,2.789,15.212,4.928s11.092,4.326,14.823,6.013c1.871.831,3.366,1.545,4.4,2.034l1.2.559a1.577,1.577,0,0,0,.433.163,1.536,1.536,0,0,0-.386-.256L44.95,235.7c-1.009-.544-2.484-1.311-4.34-2.186-3.7-1.775-8.917-4.01-14.8-6.166s-11.313-3.8-15.295-4.8c-1.986-.516-3.611-.865-4.737-1.084l-1.3-.235a1.552,1.552,0,0,0-.461-.046" transform="translate(-0.852 -46.938)" fill="#e0e0e0"/>
        <path id="Trazado_631271" data-name="Trazado 631271" d="M71.922,291.936a2.768,2.768,0,0,0,.378-.484l1-1.446c.867-1.257,2.078-3.108,3.544-5.412,2.938-4.606,6.8-11.092,10.968-18.3s7.979-13.722,10.833-18.373c1.411-2.278,2.565-4.141,3.4-5.5.377-.611.682-1.108.922-1.5a2.775,2.775,0,0,0,.292-.542,2.777,2.777,0,0,0-.379.484c-.26.375-.592.854-1,1.445-.867,1.257-2.077,3.108-3.543,5.412-2.938,4.606-6.8,11.092-10.97,18.307S79.393,279.75,76.539,284.4c-1.411,2.277-2.565,4.141-3.4,5.5-.377.611-.682,1.108-.922,1.5a2.77,2.77,0,0,0-.292.54" transform="translate(-15.263 -51.013)" fill="#e0e0e0"/>
        <path id="Trazado_631272" data-name="Trazado 631272" d="M1.937,269.941a3.063,3.063,0,0,0,.544.321l1.6.832L10,274.116c4.987,2.556,11.833,6.172,19.387,10.185s14.435,7.583,19.468,10.058c2.516,1.239,4.56,2.222,5.986,2.875l1.645.746a2.852,2.852,0,0,0,.589.227,2.9,2.9,0,0,0-.544-.321l-1.6-.831-5.911-3.02c-4.988-2.556-11.834-6.175-19.39-10.188s-14.432-7.581-19.464-10.056c-2.517-1.238-4.562-2.222-5.988-2.875l-1.645-.745a2.821,2.821,0,0,0-.589-.228" transform="translate(-0.411 -57.286)" fill="#e0e0e0"/>
        <rect id="Rectángulo_329121" data-name="Rectángulo 329121" width="431.265" height="259.891" transform="translate(87.358)" fill="#f5f5f5"/>
        <rect id="Rectángulo_329122" data-name="Rectángulo 329122" width="431.266" height="259.891" transform="translate(73.97 13.388)" fill="#ebebeb"/>
      </g>
    </g>
    <g id="Grupo_879792" data-name="Grupo 879792">
      <g id="Grupo_879791" data-name="Grupo 879791" clip-path="url(#clip-path)">
        <path id="Trazado_631273" data-name="Trazado 631273" d="M46.694,326.258a13.139,13.139,0,0,0-7.113,4.105,6.778,6.778,0,0,0-2.14,3.856c-.137,1.493.885,3.17,2.382,3.239a3.859,3.859,0,0,0,2.417-1.011c1.708-1.314,3.391-3.054,5.547-3.052,1.23,0,2.491.592,3.648.177a2.774,2.774,0,0,0,1.626-2.921,4.743,4.743,0,0,0-1.827-3.007,5.346,5.346,0,0,0-4.541-1.387" transform="translate(-7.943 -69.221)" fill="#617a0b"/>
        <path id="Trazado_631274" data-name="Trazado 631274" d="M41.388,306.686c.088,2.642-2.7,3.839-4.584,3.6a11.015,11.015,0,0,1-5.017-2.566c-3.468-2.615-7.066-5.389-8.906-9.323a7.12,7.12,0,0,1-.784-3.766,3.716,3.716,0,0,1,2.111-3.053c1.424-.578,3.037.03,4.4.736a30.528,30.528,0,0,1,10.279,8.66,10.587,10.587,0,0,1,2.5,5.708" transform="translate(-4.683 -61.83)" fill="#617a0b"/>
        <path id="Trazado_631275" data-name="Trazado 631275" d="M51.568,304.321a7.877,7.877,0,0,1-5.336-5.061,13.97,13.97,0,0,1-.309-7.56,23.115,23.115,0,0,1,3.422-8.248,8.2,8.2,0,0,1,2.413-2.547,3.628,3.628,0,0,1,3.375-.34c1.575.748,2.079,2.711,2.326,4.436a58.623,58.623,0,0,1,.582,9.184c-.038,2.47-.268,5.051-1.583,7.143s-3.294,3.448-5.232,2.9" transform="translate(-9.667 -59.482)" fill="#617a0b"/>
        <path id="Trazado_631276" data-name="Trazado 631276" d="M65.95,340.945a4.762,4.762,0,0,1-.7-.7l-1.822-1.99a38.992,38.992,0,0,0-2.849-2.786,30.35,30.35,0,0,0-3.937-2.857,17.125,17.125,0,0,0-4.425-1.937,8.859,8.859,0,0,0-3.9-.192,8.385,8.385,0,0,0-2.494.889,4.761,4.761,0,0,1-.868.475,4.57,4.57,0,0,1,.788-.611,7.659,7.659,0,0,1,2.519-1.035,8.866,8.866,0,0,1,4.043.11,16.746,16.746,0,0,1,4.545,1.953,28.4,28.4,0,0,1,3.975,2.923,33.252,33.252,0,0,1,2.815,2.875c.753.861,1.334,1.58,1.729,2.081a4.568,4.568,0,0,1,.581.807" transform="translate(-9.54 -70.035)" fill="#263238"/>
        <path id="Trazado_631277" data-name="Trazado 631277" d="M61.577,333.188a1.947,1.947,0,0,1-.3-.35l-.781-1.045c-.678-.908-1.664-2.218-2.928-3.8-2.513-3.177-5.41-6.453-9.64-10.96-3.981-4.237-8.7-9.1-12.052-12.051-.752-.679-1.446-1.277-2.063-1.793s-1.138-.974-1.583-1.325l-1.006-.832a1.992,1.992,0,0,1-.335-.312,1.929,1.929,0,0,1,.384.247l1.054.772c.461.333,1,.767,1.63,1.275s1.341,1.085,2.107,1.751a148.277,148.277,0,0,1,11.42,11c4.238,4.518,7.849,8.818,10.31,12.048,1.238,1.608,2.191,2.948,2.831,3.885l.72,1.092a1.879,1.879,0,0,1,.228.4" transform="translate(-6.556 -63.817)" fill="#263238"/>
        <path id="Trazado_631278" data-name="Trazado 631278" d="M59.386,322.122a8.716,8.716,0,0,1-.811-1.1c-.487-.73-1.152-1.816-1.886-3.2a48.715,48.715,0,0,1-2.274-5.026,44.145,44.145,0,0,1-2.027-6.446,33.935,33.935,0,0,1-.9-12.2,16.762,16.762,0,0,1,.375-2.091c.069-.3.117-.592.193-.848l.233-.695a8.772,8.772,0,0,1,.476-1.278,40.752,40.752,0,0,0-.992,4.946,35.756,35.756,0,0,0,1.008,12.074,50.362,50.362,0,0,0,1.981,6.406,54.463,54.463,0,0,0,2.18,5.03c.7,1.4,1.32,2.5,1.763,3.251a8.873,8.873,0,0,1,.678,1.181" transform="translate(-10.882 -61.38)" fill="#263238"/>
        <path id="Trazado_631279" data-name="Trazado 631279" d="M673.371,179.733s-4.846-3.519-11.455,8.152a155.241,155.241,0,0,0-9.216,18.455s-1.718,2.431-3.365.721-3.8-6.452-6.753-5.745c-3.067.733-4.213,4.07-3.854,9.062s.745,15.96.777,16.952c.031.974-.588,2.379-1.9,1.394s-8.689-9.969-12.742-6.212-.766,17.5-.436,19.011.011,2.134-.715,2.472-2.921-2.915-5.125-5.384-5.192-4.946-7.349-2.582-3.259,12.52,5.707,29.488l4.669,7.591,8.951-.1c19.141-1.389,27.17-7.705,28.032-10.787s-2.822-4.3-6.084-4.864-7.185-.7-7.282-1.494.262-1.4,1.717-1.915,14.853-5.016,15.891-10.444-10.49-6.927-12.019-7.514-.665-1.857.177-2.347c.858-.5,10.363-5.984,14.787-8.324s6.647-5.081,5.644-8.07c-.968-2.883-6.128-2.193-8.451-2.683s-1.172-3.235-1.172-3.235a155.267,155.267,0,0,0,10.767-17.6c6.4-11.789.692-14.063.692-14.063" transform="translate(-129.396 -38.037)" fill="#617a0b"/>
        <path id="Trazado_631280" data-name="Trazado 631280" d="M668.744,193.122s-.036.089-.121.254l-.381.732-1.489,2.8c-1.3,2.431-3.2,5.934-5.563,10.254-4.729,8.64-11.364,20.522-18.734,33.618s-14.037,24.966-18.813,33.579L618,284.565l-1.539,2.773-.406.718c-.093.161-.148.239-.148.239s.036-.088.12-.254.218-.419.38-.732c.347-.652.848-1.594,1.489-2.8,1.3-2.43,3.2-5.933,5.563-10.252,4.729-8.641,11.364-20.523,18.737-33.624s14.034-24.959,18.81-33.573l5.648-10.207,1.539-2.774c.174-.306.309-.545.407-.718s.147-.239.147-.239" transform="translate(-130.705 -40.984)" fill="#263238"/>
        <path id="Trazado_631281" data-name="Trazado 631281" d="M654.907,215.836a2.66,2.66,0,0,1,.2.613c.113.4.258.98.432,1.7.343,1.441.764,3.443,1.188,5.661.406,2.184.774,4.157,1.059,5.682q.194,1.013.329,1.72a2.711,2.711,0,0,1,.093.638,2.647,2.647,0,0,1-.208-.611c-.112-.4-.258-.981-.423-1.7-.328-1.444-.724-3.451-1.147-5.669-.422-2.179-.8-4.15-1.1-5.673q-.2-1.013-.338-1.719a2.675,2.675,0,0,1-.088-.639" transform="translate(-138.981 -45.804)" fill="#263238"/>
        <path id="Trazado_631282" data-name="Trazado 631282" d="M660.131,235.222c-.02-.081,4.07-1.134,9.131-2.352s9.184-2.14,9.2-2.058-4.069,1.134-9.133,2.352-9.182,2.139-9.2,2.058" transform="translate(-140.091 -48.981)" fill="#263238"/>
        <path id="Trazado_631283" data-name="Trazado 631283" d="M644.61,261.292a2.784,2.784,0,0,1,.659-.006l1.787.081c1.508.067,3.591.152,5.893.164s4.386-.039,5.895-.091l1.787-.057a2.715,2.715,0,0,1,.659.014,2.82,2.82,0,0,1-.651.1c-.421.046-1.03.1-1.784.154-1.509.106-3.6.2-5.908.179s-4.4-.131-5.9-.253c-.754-.064-1.363-.123-1.783-.176a2.794,2.794,0,0,1-.649-.111" transform="translate(-136.797 -55.447)" fill="#263238"/>
        <path id="Trazado_631284" data-name="Trazado 631284" d="M635.789,243.727a2.374,2.374,0,0,1,.331.511c.2.338.47.832.8,1.446.666,1.227,1.569,2.931,2.548,4.822s1.853,3.612,2.47,4.864c.309.626.555,1.134.718,1.49a2.38,2.38,0,0,1,.227.565,2.305,2.305,0,0,1-.331-.51c-.2-.339-.47-.833-.8-1.446-.666-1.227-1.568-2.931-2.548-4.824s-1.852-3.61-2.47-4.862c-.309-.626-.555-1.135-.718-1.49a2.388,2.388,0,0,1-.227-.565" transform="translate(-134.925 -51.723)" fill="#263238"/>
        <path id="Trazado_631285" data-name="Trazado 631285" d="M619.3,263.956a3.914,3.914,0,0,1,.416.659l1.035,1.85c.862,1.568,2.035,3.744,3.314,6.155s2.422,4.6,3.236,6.2l.95,1.894a3.906,3.906,0,0,1,.312.714,3.81,3.81,0,0,1-.416-.659l-1.035-1.849c-.862-1.568-2.035-3.744-3.314-6.157s-2.422-4.6-3.236-6.2l-.95-1.895a3.925,3.925,0,0,1-.312-.714" transform="translate(-131.425 -56.016)" fill="#263238"/>
        <path id="Trazado_631286" data-name="Trazado 631286" d="M630.923,285.4a4.336,4.336,0,0,1,.834-.028l2.27.021c1.915.017,4.56.033,7.482-.031s5.565-.182,7.478-.282l2.266-.116a4.316,4.316,0,0,1,.834-.008,4.471,4.471,0,0,1-.825.124c-.533.061-1.305.136-2.261.212-1.912.155-4.558.312-7.485.371s-5.577.015-7.493-.057c-.958-.039-1.733-.077-2.268-.117a4.431,4.431,0,0,1-.83-.09" transform="translate(-133.893 -60.469)" fill="#263238"/>
      </g>
    </g>
    <rect id="Rectángulo_329125" data-name="Rectángulo 329125" width="441.652" height="266.15" transform="translate(50.537 31.467)" fill="#fff"/>
    <g id="Grupo_879797" data-name="Grupo 879797">
      <g id="Grupo_879796" data-name="Grupo 879796" clip-path="url(#clip-path)">
        <path id="Trazado_631287" data-name="Trazado 631287" d="M82.01,56.019a2.051,2.051,0,1,1-2.051-2.051,2.05,2.05,0,0,1,2.051,2.051" transform="translate(-16.533 -11.453)" fill="#e8505b"/>
        <path id="Trazado_631288" data-name="Trazado 631288" d="M91.477,56.019a2.051,2.051,0,1,1-2.051-2.051,2.05,2.05,0,0,1,2.051,2.051" transform="translate(-18.542 -11.453)" fill="#e8505b"/>
        <path id="Trazado_631289" data-name="Trazado 631289" d="M100.943,56.019a2.051,2.051,0,1,1-2.051-2.051,2.05,2.05,0,0,1,2.051,2.051" transform="translate(-20.551 -11.453)" fill="#e8505b"/>
        <rect id="Rectángulo_329126" data-name="Rectángulo 329126" width="151.848" height="80.444" transform="translate(50.537 137.551)" fill="#eb6f2d"/>
        <g id="Grupo_879795" data-name="Grupo 879795" transform="translate(50.322 133.373)" opacity="0.4">
          <g id="Grupo_879794" data-name="Grupo 879794" transform="translate(0 0)">
            <g id="Grupo_879793" data-name="Grupo 879793" clip-path="url(#clip-path-5)">
              <rect id="Rectángulo_329127" data-name="Rectángulo 329127" width="151.848" height="80.444" transform="translate(0 0)" fill="#fff"/>
            </g>
          </g>
        </g>
        <path id="Trazado_631290" data-name="Trazado 631290" d="M506.708,73.29c0,.119-99.031.216-221.165.216-122.176,0-221.186-.1-221.186-.216s99.01-.216,221.186-.216c122.134,0,221.165.1,221.165.216" transform="translate(-13.658 -15.508)" fill="#e8505b"/>
        <path id="Trazado_631291" data-name="Trazado 631291" d="M469.094,359.953s.094-.012.279-.025.462-.016.824-.067a9.584,9.584,0,0,0,3.08-.949,9.358,9.358,0,0,0,4.965-6.653,13.784,13.784,0,0,0,.056-3.8,9.219,9.219,0,0,0-4.99-7,9.68,9.68,0,0,0-2.354-.828,13.02,13.02,0,0,0-2.6-.183l-5.582.009-26.2.032-151.732.063a10.131,10.131,0,0,0-2.672.4,9.912,9.912,0,0,0-2.433,1.152,10.163,10.163,0,0,0-1.989,1.8,9.161,9.161,0,0,0-2.035,4.879,19.835,19.835,0,0,0,0,2.685,9.778,9.778,0,0,0,.637,2.571,9.52,9.52,0,0,0,1.339,2.274,9.237,9.237,0,0,0,4.266,2.965,15.868,15.868,0,0,0,5.231.47l10.57,0,40.286.013,68.214.046,45.988.069,12.5.041,3.252.021c.733.007,1.108.022,1.108.022s-.375.015-1.108.022l-3.252.021-12.5.041-45.988.069-68.214.046-40.286.013-10.57,0c-.891-.007-1.771.017-2.676-.016a9.458,9.458,0,0,1-2.689-.474,9.668,9.668,0,0,1-4.466-3.1,10,10,0,0,1-1.4-2.38,10.172,10.172,0,0,1-.666-2.692,20.183,20.183,0,0,1,0-2.77,9.6,9.6,0,0,1,4.212-7,10.412,10.412,0,0,1,2.548-1.207,10.56,10.56,0,0,1,2.8-.414l151.732.063,26.2.032,5.582.009a13.278,13.278,0,0,1,2.646.2,9.928,9.928,0,0,1,2.4.855,9.4,9.4,0,0,1,5.062,7.165,13.832,13.832,0,0,1-.076,3.852A9.394,9.394,0,0,1,470.2,359.9c-.731.06-1.108.049-1.108.049" transform="translate(-58.408 -72.178)" fill="#e8505b"/>
        <path id="Trazado_631292" data-name="Trazado 631292" d="M290.821,350.422h-1.5v-.389h3.442v.389h-1.5v3.867h-.45Z" transform="translate(-61.4 -74.283)" fill="#263238"/>
        <path id="Trazado_631293" data-name="Trazado 631293" d="M296.709,351.376l-1.6,3.581c-.268.627-.608.827-1.064.827a1.1,1.1,0,0,1-.778-.291l.2-.322a.8.8,0,0,0,.584.243c.286,0,.48-.133.663-.535l.139-.31-1.428-3.192h.45l1.2,2.718,1.2-2.718Z" transform="translate(-62.236 -74.568)" fill="#263238"/>
        <path id="Trazado_631294" data-name="Trazado 631294" d="M301.647,352.969a1.55,1.55,0,0,1-1.593,1.631,1.4,1.4,0,0,1-1.216-.633v1.782h-.432V351.37h.413V352a1.394,1.394,0,0,1,1.235-.656,1.547,1.547,0,0,1,1.593,1.623m-.432,0a1.193,1.193,0,1,0-1.192,1.247,1.178,1.178,0,0,0,1.192-1.247" transform="translate(-63.327 -74.562)" fill="#263238"/>
        <path id="Trazado_631295" data-name="Trazado 631295" d="M306.335,353.1H303.66a1.184,1.184,0,0,0,1.259,1.112,1.263,1.263,0,0,0,.978-.419l.243.279a1.69,1.69,0,0,1-2.912-1.107,1.54,1.54,0,0,1,1.562-1.623,1.524,1.524,0,0,1,1.551,1.623c0,.037-.006.086-.006.135m-2.675-.323h2.268a1.136,1.136,0,0,0-2.268,0" transform="translate(-64.35 -74.561)" fill="#263238"/>
        <path id="Trazado_631296" data-name="Trazado 631296" d="M315.595,352.713v1.854h-.432v-1.813c0-.674-.341-1.021-.919-1.021a1.028,1.028,0,0,0-1.07,1.156v1.678h-.432v-1.813c0-.674-.34-1.021-.924-1.021a1.031,1.031,0,0,0-1.07,1.156v1.678h-.432v-3.2h.414v.584a1.3,1.3,0,0,1,1.174-.608,1.15,1.15,0,0,1,1.138.675,1.392,1.392,0,0,1,1.264-.675,1.208,1.208,0,0,1,1.29,1.368" transform="translate(-65.854 -74.561)" fill="#263238"/>
        <path id="Trazado_631297" data-name="Trazado 631297" d="M321.215,353.1H318.54a1.184,1.184,0,0,0,1.259,1.112,1.262,1.262,0,0,0,.978-.419l.243.279a1.69,1.69,0,0,1-2.912-1.107,1.54,1.54,0,0,1,1.562-1.623,1.524,1.524,0,0,1,1.551,1.623c0,.037-.006.086-.006.135m-2.675-.323h2.268a1.136,1.136,0,0,0-2.268,0" transform="translate(-67.508 -74.561)" fill="#263238"/>
        <path id="Trazado_631298" data-name="Trazado 631298" d="M322.613,354.2l.195-.34a1.935,1.935,0,0,0,1.137.359c.608,0,.858-.207.858-.524,0-.833-2.074-.176-2.074-1.441,0-.522.451-.911,1.265-.911a2.165,2.165,0,0,1,1.131.3l-.188.346a1.648,1.648,0,0,0-.943-.273c-.577,0-.833.225-.833.529,0,.863,2.073.213,2.073,1.441,0,.553-.487.912-1.32.912a2.134,2.134,0,0,1-1.3-.4" transform="translate(-68.464 -74.562)" fill="#263238"/>
        <path id="Trazado_631299" data-name="Trazado 631299" d="M326.386,354.2l.195-.34a1.935,1.935,0,0,0,1.137.359c.608,0,.858-.207.858-.524,0-.833-2.074-.176-2.074-1.441,0-.522.451-.911,1.265-.911a2.166,2.166,0,0,1,1.131.3l-.188.346a1.648,1.648,0,0,0-.943-.273c-.577,0-.833.225-.833.529,0,.863,2.073.213,2.073,1.441,0,.553-.487.912-1.32.912a2.134,2.134,0,0,1-1.3-.4" transform="translate(-69.265 -74.562)" fill="#263238"/>
        <path id="Trazado_631300" data-name="Trazado 631300" d="M333.063,352.586v1.982h-.414v-.5a1.2,1.2,0,0,1-1.1.529c-.723,0-1.167-.377-1.167-.93,0-.492.316-.906,1.234-.906h1.015v-.2c0-.547-.31-.845-.906-.845a1.627,1.627,0,0,0-1.064.377l-.195-.323a2.032,2.032,0,0,1,1.3-.432,1.136,1.136,0,0,1,1.3,1.241m-.432,1.022v-.524h-1c-.621,0-.821.244-.821.573,0,.37.3.6.808.6a1.023,1.023,0,0,0,1.015-.651" transform="translate(-70.113 -74.561)" fill="#263238"/>
        <path id="Trazado_631301" data-name="Trazado 631301" d="M338.162,351.369v2.809a1.4,1.4,0,0,1-1.6,1.6,2.227,2.227,0,0,1-1.49-.493l.219-.329a1.906,1.906,0,0,0,1.259.438c.808,0,1.18-.371,1.18-1.161v-.408a1.44,1.44,0,0,1-1.247.621,1.552,1.552,0,1,1,0-3.1,1.443,1.443,0,0,1,1.264.639v-.614Zm-.419,1.52a1.214,1.214,0,1,0-1.216,1.173,1.144,1.144,0,0,0,1.216-1.173" transform="translate(-71.067 -74.561)" fill="#263238"/>
        <path id="Trazado_631302" data-name="Trazado 631302" d="M343.278,353.1H340.6a1.185,1.185,0,0,0,1.259,1.112,1.264,1.264,0,0,0,.979-.419l.243.279a1.69,1.69,0,0,1-2.912-1.107,1.54,1.54,0,0,1,1.562-1.623,1.524,1.524,0,0,1,1.551,1.623c0,.037-.007.086-.007.135m-2.675-.323h2.269a1.137,1.137,0,0,0-2.269,0" transform="translate(-72.19 -74.561)" fill="#263238"/>
        <path id="Trazado_631303" data-name="Trazado 631303" d="M344.884,354.961a.323.323,0,0,1,.323-.328.327.327,0,0,1,.329.328.333.333,0,0,1-.329.335.328.328,0,0,1-.323-.335" transform="translate(-73.19 -75.259)" fill="#263238"/>
        <path id="Trazado_631304" data-name="Trazado 631304" d="M346.52,354.961a.323.323,0,0,1,.323-.328.327.327,0,0,1,.328.328.332.332,0,0,1-.328.335.328.328,0,0,1-.323-.335" transform="translate(-73.537 -75.259)" fill="#263238"/>
        <path id="Trazado_631305" data-name="Trazado 631305" d="M348.155,354.961a.323.323,0,0,1,.323-.328.327.327,0,0,1,.328.328.332.332,0,0,1-.328.335.328.328,0,0,1-.323-.335" transform="translate(-73.884 -75.259)" fill="#263238"/>
        <path id="Trazado_631306" data-name="Trazado 631306" d="M555.821,350.343c-.043.009-.093-.4-.384-1.054a4.576,4.576,0,0,0-2.016-2.151,4.4,4.4,0,1,0,1.034,6.968,4.576,4.576,0,0,0,1.3-2.644c.088-.711.017-1.115.061-1.119.015,0,.039.1.072.288a3.5,3.5,0,0,1,.035.848,4.565,4.565,0,0,1-1.253,2.84,4.738,4.738,0,0,1-6.792.068,4.753,4.753,0,0,1-.833-5.607,4.739,4.739,0,0,1,6.518-1.908,4.565,4.565,0,0,1,2.024,2.354,3.5,3.5,0,0,1,.214.822c.024.193.03.294.015.3" transform="translate(-115.975 -73.482)" fill="#263238"/>
        <path id="Trazado_631307" data-name="Trazado 631307" d="M550.782,351.063a.668.668,0,1,1-.668-.668.668.668,0,0,1,.668.668" transform="translate(-116.602 -74.36)" fill="#263238"/>
        <path id="Trazado_631308" data-name="Trazado 631308" d="M555.257,351.063a.668.668,0,1,1-.668-.668.668.668,0,0,1,.668.668" transform="translate(-117.551 -74.36)" fill="#263238"/>
        <path id="Trazado_631309" data-name="Trazado 631309" d="M553.949,352.77c.05,0,.109.33-.069.836a1.742,1.742,0,0,1-.551.776,1.808,1.808,0,0,1-1.124.359,2.134,2.134,0,0,1-1.772-1c-.281-.451-.3-.785-.251-.8s.187.263.5.617a2.071,2.071,0,0,0,1.531.752,1.5,1.5,0,0,0,1.394-.83c.222-.408.279-.718.346-.709" transform="translate(-116.754 -74.864)" fill="#263238"/>
        <path id="Trazado_631310" data-name="Trazado 631310" d="M572.525,352.729c0-.036.2-.038.486-.182a1.272,1.272,0,0,0,.695-1.052c-.013-.661-.027-1.376-.041-2.14a1.575,1.575,0,0,0-.238-1.086,1.159,1.159,0,0,0-1.024-.449,1.137,1.137,0,0,0-.96.534,1.094,1.094,0,0,0-.169.515c0,.206-.007.409-.011.609,0,.8-.047,1.568-.026,2.125a1.268,1.268,0,0,0,.787.984c.3.113.5.1.5.143,0,.019-.188.092-.551.018a1.417,1.417,0,0,1-1.037-1.09c-.069-.665-.05-1.357-.072-2.179,0-.209-.01-.4,0-.636a1.509,1.509,0,0,1,.22-.71,1.55,1.55,0,0,1,1.32-.744,1.576,1.576,0,0,1,1.362.627,1.5,1.5,0,0,1,.284.686,4.907,4.907,0,0,1,.013.653c-.013.816-.02,1.528-.053,2.166a1.418,1.418,0,0,1-.933,1.181c-.353.111-.555.048-.552.027" transform="translate(-121.146 -73.721)" fill="#263238"/>
        <path id="Trazado_631311" data-name="Trazado 631311" d="M574.525,350.53a5.294,5.294,0,0,1,.153,1.5,2.408,2.408,0,0,1-.535,1.633,2.455,2.455,0,0,1-3.811,0,2.409,2.409,0,0,1-.535-1.633,5.3,5.3,0,0,1,.153-1.5,5.285,5.285,0,0,1,.152,1.5,2.206,2.206,0,0,0,.534,1.378,2.118,2.118,0,0,0,3.2,0,2.2,2.2,0,0,0,.533-1.378,5.3,5.3,0,0,1,.153-1.5" transform="translate(-120.92 -74.388)" fill="#263238"/>
        <path id="Trazado_631312" data-name="Trazado 631312" d="M573.01,357.528c-.119,0-.216-.469-.216-1.046s.1-1.046.216-1.046.216.468.216,1.046-.1,1.046-.216,1.046" transform="translate(-121.557 -75.43)" fill="#263238"/>
        <path id="Trazado_631313" data-name="Trazado 631313" d="M595.312,350.709a4,4,0,0,1-.084-.945,2.127,2.127,0,0,0-.182-1.027,1.271,1.271,0,0,0-1.083-.653,1.24,1.24,0,0,0-1.2.838,1.294,1.294,0,0,0-.065.419q0,.248,0,.5,0,.514.009,1.052c0,.723.008,1.477.013,2.257q0,.587,0,1.194a1.188,1.188,0,0,0,2.189.677,1.623,1.623,0,0,0,.189-1q0-.564.008-1.105t.009-1.051a3.169,3.169,0,0,0-.047-.918.847.847,0,0,0-1.231-.414.86.86,0,0,0-.384.522,4.276,4.276,0,0,0-.039.659c-.014.408-.026.776-.037,1.108a4.007,4.007,0,0,1-.084.945,4.091,4.091,0,0,1-.084-.945c-.011-.332-.023-.7-.037-1.108a4.03,4.03,0,0,1,.013-.721,1.139,1.139,0,0,1,.485-.717,1.169,1.169,0,0,1,1.731.539,1.364,1.364,0,0,1,.088.545q0,.248.006.5,0,.513.009,1.051t.007,1.105a2.022,2.022,0,0,1-.244,1.224,1.61,1.61,0,0,1-2.43.35,1.616,1.616,0,0,1-.545-1.253q0-.606,0-1.194c0-.78.009-1.534.013-2.257q0-.538.009-1.052,0-.255,0-.5a1.63,1.63,0,0,1,.1-.538,1.562,1.562,0,0,1,1.55-1.024,1.526,1.526,0,0,1,1.285.846,2.2,2.2,0,0,1,.136,1.139,4.006,4.006,0,0,1-.084.945" transform="translate(-125.695 -73.804)" fill="#263238"/>
        <path id="Trazado_631314" data-name="Trazado 631314" d="M292.58,126.944h-3.058a15.32,15.32,0,0,1-15.32-15.32v-3.058a15.32,15.32,0,0,1,15.32-15.32h3.058a15.32,15.32,0,0,1,15.32,15.32v3.058a15.32,15.32,0,0,1-15.32,15.32" transform="translate(-58.19 -19.788)" fill="#ebebeb"/>
        <path id="Trazado_631315" data-name="Trazado 631315" d="M280.261,128.867a39.848,39.848,0,0,1,10.879-2.475c9.2-.475,13.677,2.044,13.677,2.044s-4.334,5.809-13.434,5.553c-7.742-.217-11.123-5.121-11.123-5.121" transform="translate(-59.476 -26.81)" fill="#263238"/>
        <path id="Trazado_631316" data-name="Trazado 631316" d="M294.518,127.824h0a4.828,4.828,0,0,1-4.733-4.626c-.079-1.866-.143-3.58-.143-3.58s-3.906-.415-4.141-4.289,0-12.806,0-12.806a13.488,13.488,0,0,1,13.618,1.045l.6.414-.283,19.086a4.829,4.829,0,0,1-4.918,4.755" transform="translate(-60.566 -21.467)" fill="#ffbe9d"/>
        <path id="Trazado_631317" data-name="Trazado 631317" d="M290.774,124.069a9.025,9.025,0,0,0,4.983-1.681s-1.06,2.848-4.944,2.686Z" transform="translate(-61.707 -25.973)" fill="#eb996e"/>
        <path id="Trazado_631318" data-name="Trazado 631318" d="M303.218,109.826c.065-.032,2.625-.917,2.669,1.737a2,2,0,0,1-2.636,2.074c-.006-.076-.033-3.811-.033-3.811" transform="translate(-64.348 -23.272)" fill="#ffbe9d"/>
        <path id="Trazado_631319" data-name="Trazado 631319" d="M304.267,112.848c.012-.009.046.032.125.066a.464.464,0,0,0,.346,0,1.146,1.146,0,0,0,.513-1.035,1.53,1.53,0,0,0-.141-.66.534.534,0,0,0-.354-.349.235.235,0,0,0-.27.132c-.035.075-.017.127-.031.132s-.057-.044-.039-.154a.3.3,0,0,1,.1-.169.353.353,0,0,1,.255-.072.649.649,0,0,1,.489.4,1.568,1.568,0,0,1,.173.737,1.2,1.2,0,0,1-.655,1.157.493.493,0,0,1-.424-.063c-.084-.065-.1-.124-.089-.128" transform="translate(-64.57 -23.501)" fill="#eb996e"/>
        <path id="Trazado_631320" data-name="Trazado 631320" d="M287.887,110.871a.554.554,0,0,0,.534.559.53.53,0,0,0,.571-.5.554.554,0,0,0-.533-.559.53.53,0,0,0-.572.5" transform="translate(-61.094 -23.422)" fill="#263238"/>
        <path id="Trazado_631321" data-name="Trazado 631321" d="M287.029,109.471c.069.072.488-.239,1.085-.237s1.034.3,1.1.227c.032-.032-.038-.162-.229-.3a1.526,1.526,0,0,0-.879-.27,1.46,1.46,0,0,0-.863.278c-.184.141-.246.272-.212.3" transform="translate(-60.91 -23.108)" fill="#263238"/>
        <path id="Trazado_631322" data-name="Trazado 631322" d="M295.155,110.957a.555.555,0,0,0,.534.559.53.53,0,0,0,.571-.5.554.554,0,0,0-.533-.559.531.531,0,0,0-.572.5" transform="translate(-62.637 -23.441)" fill="#263238"/>
        <path id="Trazado_631323" data-name="Trazado 631323" d="M294.47,109.612c.069.072.489-.239,1.085-.237s1.034.3,1.1.227c.032-.032-.038-.162-.228-.3a1.518,1.518,0,0,0-.879-.271,1.454,1.454,0,0,0-.863.279c-.183.14-.246.271-.212.3" transform="translate(-62.49 -23.138)" fill="#263238"/>
        <path id="Trazado_631324" data-name="Trazado 631324" d="M291.316,114.044a3.974,3.974,0,0,0-.969-.175c-.152-.016-.3-.046-.321-.15a.77.77,0,0,1,.1-.451q.214-.553.45-1.16a19.871,19.871,0,0,0,1.012-3.033,20,20,0,0,0-1.253,2.945c-.151.407-.295.795-.432,1.166a.881.881,0,0,0-.079.6.385.385,0,0,0,.25.223,1.037,1.037,0,0,0,.259.035,3.856,3.856,0,0,0,.982,0" transform="translate(-61.5 -23.148)" fill="#263238"/>
        <path id="Trazado_631325" data-name="Trazado 631325" d="M293.441,115.907c-.1-.006-.1.641-.652,1.1s-1.243.388-1.249.478c-.009.041.154.126.444.134a1.613,1.613,0,0,0,1.042-.363,1.4,1.4,0,0,0,.506-.923c.024-.27-.047-.431-.091-.427" transform="translate(-61.87 -24.597)" fill="#263238"/>
        <path id="Trazado_631326" data-name="Trazado 631326" d="M294.276,106.683c.059.162.655.085,1.354.169s1.265.276,1.358.13c.041-.069-.057-.222-.285-.379a2.37,2.37,0,0,0-2.066-.228c-.257.1-.386.231-.361.308" transform="translate(-62.45 -22.545)" fill="#263238"/>
        <path id="Trazado_631327" data-name="Trazado 631327" d="M287.306,107.271c.1.136.516-.006,1.01-.012.494-.024.912.091,1.008-.05.043-.069-.024-.2-.206-.332a1.462,1.462,0,0,0-1.626.05c-.175.139-.232.279-.186.345" transform="translate(-60.968 -22.634)" fill="#263238"/>
        <path id="Trazado_631328" data-name="Trazado 631328" d="M283.02,98.759a1.429,1.429,0,0,1,.529-1.28,1.017,1.017,0,0,1,1.316.1,1.185,1.185,0,0,1,1.019-1.438c.633-.04,1.173.438,1.784.606a2.881,2.881,0,0,0,1.813-.21c.574-.231,1.111-.55,1.692-.763a4.962,4.962,0,0,1,6.346,2.914,2.2,2.2,0,0,1,2.336.884,3.612,3.612,0,0,1,.554,2.546,8.112,8.112,0,0,1-.444,1.742c0,.05.006.1.006.149-.04,2.133-.281,4.639-1.192,4.653-1.587.024-1.208-2.965-1.208-2.965-1.948-.752-1.222-3.67-1.709-4.112s-1.506-1.471-5.582.612a7.9,7.9,0,0,1-4.838.523c-.034-.007-.068-.012-.1-.02l-.024,0c-.012,0-.021-.01-.034-.013a3.667,3.667,0,0,1-1.045-.444,2.068,2.068,0,0,1-.86-.958,1.131,1.131,0,0,1,.221-1.215,2.486,2.486,0,0,1-.577-1.305" transform="translate(-60.061 -20.262)" fill="#263238"/>
        <path id="Trazado_631329" data-name="Trazado 631329" d="M340.815,202.526h16.332a7.029,7.029,0,0,0,7.029-7.029v-1.4a7.029,7.029,0,0,0-7.029-7.029h-23.36V195.5a7.029,7.029,0,0,0,7.029,7.029" transform="translate(-70.835 -39.699)" fill="#f5f5f5"/>
        <path id="Trazado_631330" data-name="Trazado 631330" d="M356.277,196.454a1.576,1.576,0,1,0,1.576-1.576,1.575,1.575,0,0,0-1.576,1.576" transform="translate(-75.608 -41.356)" fill="#263238"/>
        <path id="Trazado_631331" data-name="Trazado 631331" d="M350.151,196.454a1.576,1.576,0,1,0,1.576-1.576,1.576,1.576,0,0,0-1.576,1.576" transform="translate(-74.308 -41.356)" fill="#263238"/>
        <path id="Trazado_631332" data-name="Trazado 631332" d="M344.237,196.454a1.576,1.576,0,1,0,1.576-1.576,1.576,1.576,0,0,0-1.576,1.576" transform="translate(-73.053 -41.356)" fill="#263238"/>
        <path id="Trazado_631333" data-name="Trazado 631333" d="M413.213,129.367H347.944a14.158,14.158,0,0,1-14.158-14.159V98.224h79.427a14.159,14.159,0,0,1,14.159,14.159v2.826a14.159,14.159,0,0,1-14.159,14.159" transform="translate(-70.835 -20.845)" fill="#f5f5f5"/>
        <path id="Trazado_631334" data-name="Trazado 631334" d="M414.679,111.264c0,.119-14.309.216-31.957.216s-31.961-.1-31.961-.216,14.307-.216,31.961-.216,31.957.1,31.957.216" transform="translate(-74.437 -23.566)" fill="#263238"/>
        <path id="Trazado_631335" data-name="Trazado 631335" d="M414.679,117.889c0,.119-14.309.216-31.957.216s-31.961-.1-31.961-.216,14.307-.216,31.961-.216,31.957.1,31.957.216" transform="translate(-74.437 -24.972)" fill="#263238"/>
        <path id="Trazado_631336" data-name="Trazado 631336" d="M388.156,124.039c0,.119-8.372.216-18.7.216s-18.7-.1-18.7-.216,8.37-.216,18.7-.216,18.7.1,18.7.216" transform="translate(-74.437 -26.277)" fill="#263238"/>
        <path id="Trazado_631337" data-name="Trazado 631337" d="M442.377,174.325H348.032a14.246,14.246,0,0,1-14.246-14.246V142.989H442.377a14.246,14.246,0,0,1,14.246,14.246v2.843a14.246,14.246,0,0,1-14.246,14.246" transform="translate(-70.835 -30.345)" fill="#f5f5f5"/>
        <path id="Trazado_631338" data-name="Trazado 631338" d="M446.475,156.195c0,.119-21.428.216-47.855.216s-47.859-.1-47.859-.216,21.424-.216,47.859-.216,47.855.1,47.855.216" transform="translate(-74.437 -33.101)" fill="#263238"/>
        <path id="Trazado_631339" data-name="Trazado 631339" d="M446.475,162.82c0,.119-21.428.216-47.855.216s-47.859-.1-47.859-.216,21.424-.216,47.859-.216,47.855.1,47.855.216" transform="translate(-74.437 -34.507)" fill="#263238"/>
        <path id="Trazado_631340" data-name="Trazado 631340" d="M406.758,168.97c0,.119-12.537.216-28,.216s-28-.1-28-.216,12.534-.216,28-.216,28,.1,28,.216" transform="translate(-74.437 -35.812)" fill="#263238"/>
        <path id="Trazado_631341" data-name="Trazado 631341" d="M537.3,293.468H520.969a7.029,7.029,0,0,1-7.029-7.029v-1.4a7.029,7.029,0,0,1,7.029-7.029h23.361v8.432a7.029,7.029,0,0,1-7.029,7.029" transform="translate(-109.067 -58.998)" fill="#f5f5f5"/>
        <path id="Trazado_631342" data-name="Trazado 631342" d="M529.177,287.4a1.576,1.576,0,1,1-1.576-1.576,1.576,1.576,0,0,1,1.576,1.576" transform="translate(-111.632 -60.656)" fill="#263238"/>
        <path id="Trazado_631343" data-name="Trazado 631343" d="M535.3,287.4a1.576,1.576,0,1,1-1.576-1.576A1.575,1.575,0,0,1,535.3,287.4" transform="translate(-112.932 -60.656)" fill="#263238"/>
        <path id="Trazado_631344" data-name="Trazado 631344" d="M541.216,287.4a1.576,1.576,0,1,1-1.576-1.576,1.576,1.576,0,0,1,1.576,1.576" transform="translate(-114.187 -60.656)" fill="#263238"/>
        <path id="Trazado_631345" data-name="Trazado 631345" d="M587.036,221.069h-3.058a15.32,15.32,0,0,1-15.32-15.32v-3.058a15.32,15.32,0,0,1,15.32-15.32h3.058a15.32,15.32,0,0,1,15.32,15.32v3.058a15.32,15.32,0,0,1-15.32,15.32" transform="translate(-120.679 -39.763)" fill="#ebebeb"/>
        <path id="Trazado_631346" data-name="Trazado 631346" d="M574.217,222.581a34.518,34.518,0,0,1,10.652-2.083c5.345-.032,13.788,2.609,13.788,2.609s-4.7,5.539-13.788,4.992c-7.731-.466-10.652-5.518-10.652-5.518" transform="translate(-121.859 -46.793)" fill="#455a64"/>
        <path id="Trazado_631347" data-name="Trazado 631347" d="M578.148,194.509c-1.254.733-1.558,2.382-1.7,3.828s-.349,3.083-1.528,3.932c-.971.7-2.515.8-2.921,1.923a1.362,1.362,0,0,0,1.986,1.628,2.355,2.355,0,0,0,.207,2.75,1.618,1.618,0,0,0,2.51-.281,1.2,1.2,0,1,0,2.234.853" transform="translate(-121.372 -41.278)" fill="#263238"/>
        <path id="Trazado_631348" data-name="Trazado 631348" d="M597.087,206.731a1.442,1.442,0,1,0,2.818-.6c-.146-.587-.658-1.086-.6-1.689.067-.729.893-1.1,1.6-1.294s1.542-.455,1.746-1.159c.2-.679-.321-1.333-.752-1.893s-.809-1.37-.373-1.928c.222-.285.6-.4.869-.641a1.588,1.588,0,0,0,0-2.162,2.893,2.893,0,0,0-2.176-.835,21.8,21.8,0,0,0-2.385.262,9.571,9.571,0,0,1-7.313-2.384" transform="translate(-125.318 -40.832)" fill="#263238"/>
        <path id="Trazado_631349" data-name="Trazado 631349" d="M579.832,199.511l.562,16.375a5.2,5.2,0,0,0,10.383.069c.069-1.435.121-2.625.121-2.625s4.148-.478,4.362-4.6c.1-1.991-.017-6.109-.17-9.834a7.685,7.685,0,0,0-7.378-7.359l-.4-.016a7.635,7.635,0,0,0-7.482,7.989" transform="translate(-123.048 -40.644)" fill="#eb996e"/>
        <path id="Trazado_631350" data-name="Trazado 631350" d="M592.462,218.66a9.6,9.6,0,0,1-5.314-1.739s1.153,3.016,5.281,2.808Z" transform="translate(-124.603 -46.034)" fill="#aa6550"/>
        <path id="Trazado_631351" data-name="Trazado 631351" d="M596.666,204.184a.588.588,0,0,1-.591.571.563.563,0,0,1-.586-.555.59.59,0,0,1,.591-.572.564.564,0,0,1,.586.555" transform="translate(-126.373 -43.214)" fill="#263238"/>
        <path id="Trazado_631352" data-name="Trazado 631352" d="M597.35,203.229c-.076.074-.509-.274-1.142-.3s-1.111.275-1.176.195c-.032-.035.047-.171.256-.31a1.611,1.611,0,0,1,.945-.251,1.557,1.557,0,0,1,.906.332c.189.158.249.3.212.332" transform="translate(-126.274 -42.987)" fill="#263238"/>
        <path id="Trazado_631353" data-name="Trazado 631353" d="M588.916,203.965a.589.589,0,0,1-.591.571.563.563,0,0,1-.586-.555.59.59,0,0,1,.591-.572.564.564,0,0,1,.586.555" transform="translate(-124.728 -43.167)" fill="#263238"/>
        <path id="Trazado_631354" data-name="Trazado 631354" d="M589.44,203.066c-.076.074-.51-.273-1.143-.3s-1.11.275-1.175.195c-.032-.035.046-.171.255-.31a1.619,1.619,0,0,1,.945-.251,1.558,1.558,0,0,1,.906.332c.188.158.249.3.212.332" transform="translate(-124.596 -42.953)" fill="#263238"/>
        <path id="Trazado_631355" data-name="Trazado 631355" d="M592.725,207.9a4.159,4.159,0,0,1,1.036-.145c.162-.01.317-.036.349-.146a.826.826,0,0,0-.089-.484l-.43-1.251a21.248,21.248,0,0,1-.947-3.264,21.278,21.278,0,0,1,1.208,3.18l.409,1.257a.934.934,0,0,1,.059.638.407.407,0,0,1-.276.226,1.087,1.087,0,0,1-.276.027,4.113,4.113,0,0,1-1.043-.039" transform="translate(-125.767 -42.997)" fill="#263238"/>
        <path id="Trazado_631356" data-name="Trazado 631356" d="M590.328,209.787c.1,0,.077.685.647,1.2s1.3.465,1.305.562c.008.043-.169.127-.478.123a1.714,1.714,0,0,1-1.091-.429,1.5,1.5,0,0,1-.5-1c-.014-.288.069-.455.116-.45" transform="translate(-125.253 -44.52)" fill="#263238"/>
        <path id="Trazado_631357" data-name="Trazado 631357" d="M589.616,199.96c-.069.169-.7.063-1.446.124-.747.045-1.356.239-1.448.08-.041-.076.069-.233.318-.391a2.519,2.519,0,0,1,2.205-.155c.269.121.4.262.37.342" transform="translate(-124.511 -42.324)" fill="#263238"/>
        <path id="Trazado_631358" data-name="Trazado 631358" d="M597.193,200.88c-.118.139-.547-.027-1.073-.055-.523-.046-.972.058-1.068-.1-.042-.075.033-.216.232-.344a1.553,1.553,0,0,1,1.725.121c.18.155.235.306.183.374" transform="translate(-126.278 -42.481)" fill="#263238"/>
        <path id="Trazado_631359" data-name="Trazado 631359" d="M584.278,195.446l-.023.017a3.244,3.244,0,0,0-1.289,2.049c0,.029-.01.057-.014.083-.208,1.169-.226,2.366-.445,3.534a5.334,5.334,0,0,1-1.573,3.12c-.37.318-1.011.522-1.289.121a1.007,1.007,0,0,1-.126-.545c-.107-2.847-.783-5.4-.66-8.365a2.5,2.5,0,0,1,1.119-2c.639-.421,1.416-.853,2.094-.5s1.522,1.683,2.036,2.252" transform="translate(-122.84 -40.923)" fill="#263238"/>
        <path id="Trazado_631360" data-name="Trazado 631360" d="M580.745,204.055c-.069-.033-2.8-.949-2.821,1.872a2.121,2.121,0,0,0,2.821,2.181c.006-.081,0-4.052,0-4.052" transform="translate(-122.645 -43.268)" fill="#eb996e"/>
        <path id="Trazado_631361" data-name="Trazado 631361" d="M580.085,207.277c-.013-.009-.05.034-.133.072a.493.493,0,0,1-.367,0,1.218,1.218,0,0,1-.555-1.1,1.622,1.622,0,0,1,.143-.7.569.569,0,0,1,.373-.374.249.249,0,0,1,.289.137c.038.079.019.135.034.14s.061-.047.039-.164a.318.318,0,0,0-.109-.177.373.373,0,0,0-.272-.074.691.691,0,0,0-.517.433,1.677,1.677,0,0,0-.177.785,1.277,1.277,0,0,0,.708,1.224.527.527,0,0,0,.45-.072c.088-.069.1-.132.094-.137" transform="translate(-122.838 -43.513)" fill="#aa6550"/>
        <path id="Trazado_631362" data-name="Trazado 631362" d="M582.758,192.691c-.649-1.155,1.316-2.7,2.724-3.082s3.213.366,4.579.88a7.662,7.662,0,0,0,2.638.761,6.2,6.2,0,0,0,1.8-.384,4.564,4.564,0,0,1,1.818-.284,1.7,1.7,0,0,1,1.446,1,1.066,1.066,0,0,1-.769,1.411,1.385,1.385,0,1,1,.268,2.579c.413-.288,1.007.238.938.737a1.46,1.46,0,0,1-1.006,1.028,5.276,5.276,0,0,1-3.76-.206c-1.2-.458-2.3-1.14-3.491-1.627s-3.177-1.357-4.4-.978c-.9.28-1.566,1.328-2.06,1.071a1.724,1.724,0,0,1-.842-1.3,4.985,4.985,0,0,1,.119-1.6" transform="translate(-123.64 -40.216)" fill="#263238"/>
        <path id="Trazado_631363" data-name="Trazado 631363" d="M595.809,193.115a.769.769,0,0,1,.7.121,1.47,1.47,0,0,1,.518,1.8,2.493,2.493,0,0,1-2.552,1.168,6.913,6.913,0,0,1-3.229-1.4,17.184,17.184,0,0,0-2.921-1.862,4.563,4.563,0,0,0-1.431-.377,3.5,3.5,0,0,0-1.272.161,2.643,2.643,0,0,0-1.472,1.093,5.4,5.4,0,0,0-.281.636c-.009,0,0-.064.015-.184a1.706,1.706,0,0,1,.176-.5,2.663,2.663,0,0,1,1.5-1.218,3.625,3.625,0,0,1,1.346-.2,4.676,4.676,0,0,1,1.513.373,16.344,16.344,0,0,1,2.976,1.869,6.826,6.826,0,0,0,3.1,1.375,2.312,2.312,0,0,0,2.362-1.008,1.248,1.248,0,0,0,.045-1,1.33,1.33,0,0,0-.453-.633,1.2,1.2,0,0,0-.64-.206" transform="translate(-123.906 -40.818)" fill="#455a64"/>
        <path id="Trazado_631364" data-name="Trazado 631364" d="M587.908,191.033c-.014.042-.373-.091-.97-.133a4,4,0,0,0-3.849,2.089c-.29.523-.373.9-.417.885a1.961,1.961,0,0,1,.251-.97,3.835,3.835,0,0,1,4.034-2.19,1.958,1.958,0,0,1,.95.318" transform="translate(-123.651 -40.465)" fill="#455a64"/>
        <path id="Trazado_631365" data-name="Trazado 631365" d="M579.384,198.987a1.36,1.36,0,0,1-.209-.772,2.879,2.879,0,0,1,2.122-2.963,1.36,1.36,0,0,1,.8-.051c0,.043-.3.063-.741.228a3,3,0,0,0-1.993,2.782c-.015.471.065.764.023.775" transform="translate(-122.909 -41.418)" fill="#455a64"/>
        <path id="Trazado_631366" data-name="Trazado 631366" d="M515.558,255.751H446.942a15.19,15.19,0,0,1-15.19-15.19V212.068a15.19,15.19,0,0,1,15.19-15.19h83.806v43.683a15.19,15.19,0,0,1-15.19,15.19" transform="translate(-91.625 -41.781)" fill="#f5f5f5"/>
        <path id="Trazado_631367" data-name="Trazado 631367" d="M518.717,216.383c0,.119-14.309.216-31.957.216s-31.961-.1-31.961-.216,14.307-.216,31.961-.216,31.957.1,31.957.216" transform="translate(-96.516 -45.874)" fill="#263238"/>
        <path id="Trazado_631368" data-name="Trazado 631368" d="M518.717,223.008c0,.119-14.309.216-31.957.216s-31.961-.1-31.961-.216,14.307-.216,31.961-.216,31.957.1,31.957.216" transform="translate(-96.516 -47.28)" fill="#263238"/>
        <path id="Trazado_631369" data-name="Trazado 631369" d="M518.717,229.158c0,.119-14.309.216-31.957.216s-31.961-.1-31.961-.216,14.307-.216,31.961-.216,31.957.1,31.957.216" transform="translate(-96.516 -48.585)" fill="#263238"/>
        <path id="Trazado_631370" data-name="Trazado 631370" d="M518.717,235.848c0,.119-14.309.216-31.957.216s-31.961-.1-31.961-.216,14.307-.216,31.961-.216,31.957.1,31.957.216" transform="translate(-96.516 -50.005)" fill="#263238"/>
        <path id="Trazado_631371" data-name="Trazado 631371" d="M463.5,242.618a2.213,2.213,0,0,0-.591-1.19,2.127,2.127,0,0,0-1.12-.66,1.743,1.743,0,0,0-1.335.289,1.723,1.723,0,0,0-.536.629,1.713,1.713,0,0,0-1.867-.779,2.125,2.125,0,0,0-1.094.7,2.212,2.212,0,0,0-.544,1.212,2.69,2.69,0,0,0,.366,1.649,3.817,3.817,0,0,0,1.335,1.2c.867.5,2.008,1.124,2.008,1.124s.941-.732,1.787-1.264a3.81,3.81,0,0,0,1.288-1.254,2.69,2.69,0,0,0,.3-1.662" transform="translate(-96.856 -51.088)" fill="#fd4c1b"/>
        <path id="Trazado_631372" data-name="Trazado 631372" d="M475.319,242.618a2.213,2.213,0,0,0-.591-1.19,2.127,2.127,0,0,0-1.12-.66,1.743,1.743,0,0,0-1.335.289,1.723,1.723,0,0,0-.536.629,1.713,1.713,0,0,0-1.867-.779,2.126,2.126,0,0,0-1.094.7,2.212,2.212,0,0,0-.544,1.212,2.691,2.691,0,0,0,.366,1.649,3.817,3.817,0,0,0,1.335,1.2c.867.5,2.008,1.124,2.008,1.124s.941-.732,1.788-1.264a3.81,3.81,0,0,0,1.288-1.254,2.69,2.69,0,0,0,.3-1.662" transform="translate(-99.364 -51.088)" fill="#fd4c1b"/>
        <path id="Trazado_631373" data-name="Trazado 631373" d="M487.139,242.618a2.224,2.224,0,0,0-.591-1.19,2.132,2.132,0,0,0-1.121-.66,1.271,1.271,0,0,1-2.392.376,1.742,1.742,0,0,0-1.346-.236,2.117,2.117,0,0,0-1.093.7,2.207,2.207,0,0,0-.544,1.212,2.685,2.685,0,0,0,.366,1.649,3.811,3.811,0,0,0,1.335,1.2c.867.5,2.007,1.124,2.007,1.124s.941-.732,1.788-1.264a3.817,3.817,0,0,0,1.288-1.254,2.7,2.7,0,0,0,.3-1.662" transform="translate(-101.872 -51.088)" fill="#fd4c1b"/>
        <path id="Trazado_631374" data-name="Trazado 631374" d="M498.958,242.618a2.213,2.213,0,0,0-.591-1.19,2.129,2.129,0,0,0-1.121-.66,1.27,1.27,0,0,1-2.392.376,1.742,1.742,0,0,0-1.345-.236,2.126,2.126,0,0,0-1.094.7,2.212,2.212,0,0,0-.544,1.212,2.69,2.69,0,0,0,.366,1.649,3.818,3.818,0,0,0,1.335,1.2c.867.5,2.008,1.124,2.008,1.124s.94-.732,1.787-1.264a3.81,3.81,0,0,0,1.288-1.254,2.69,2.69,0,0,0,.3-1.662" transform="translate(-104.381 -51.088)" fill="#fd4c1b"/>
        <path id="Trazado_631375" data-name="Trazado 631375" d="M510.777,242.618a2.212,2.212,0,0,0-.591-1.19,2.129,2.129,0,0,0-1.121-.66,1.27,1.27,0,0,1-2.392.376,1.742,1.742,0,0,0-1.346-.236,2.126,2.126,0,0,0-1.094.7,2.213,2.213,0,0,0-.544,1.212,2.69,2.69,0,0,0,.366,1.649,3.818,3.818,0,0,0,1.335,1.2c.867.5,2.008,1.124,2.008,1.124s.94-.732,1.787-1.264a3.811,3.811,0,0,0,1.288-1.254,2.69,2.69,0,0,0,.3-1.662" transform="translate(-106.889 -51.088)" fill="#fd4c1b"/>
        <path id="Trazado_631376" data-name="Trazado 631376" d="M305.318,302.419a5.711,5.711,0,0,1-1.672-.355l.043,2.927a25.483,25.483,0,0,1,5.5,1.663,16.865,16.865,0,0,0,4.67-6.97c-1.706.765-3.444,1.459-5.212,2.069a9.021,9.021,0,0,1-3.33.666" transform="translate(-64.439 -63.598)" fill="#ebebeb"/>
        <path id="Trazado_631377" data-name="Trazado 631377" d="M291.9,271.2h0a16.846,16.846,0,0,0-10.308,30.173,22.787,22.787,0,0,1,6.678-2.343V297.2c-.137,0-.275,0-.411-.011-2.567-.139-5.143-.675-7.691-.321a1.975,1.975,0,0,1-1.2-.062,1.785,1.785,0,0,1-.715-1.3c-.233-1.112-.36-2.426.433-3.241.533-.548,1.439-.816,1.618-1.561.169-.7-.429-1.323-.786-1.95a3.245,3.245,0,0,1,.42-3.7c.6-.655,1.481-1.06,1.92-1.833a6.388,6.388,0,0,0,.448-2.414,4.455,4.455,0,0,1,1.956-3.285,3.22,3.22,0,0,1,2.315-.377c1.143-1.531,3.569-.659,4.787-.714a9.117,9.117,0,0,1,4.7.63l0-.013,0,.013.01,0a2.76,2.76,0,0,1,.567-1.867,3.027,3.027,0,0,1,2.7-1.082,2.118,2.118,0,0,1,1.437.734,2.17,2.17,0,0,1,.2,2.021,2.961,2.961,0,0,1-2.462,1.988c-.009,0-.02,0-.03,0,.006.018.014.039.019.057a2.024,2.024,0,0,1,.059.369c.267.492.477,1.015.742,1.509a3.263,3.263,0,0,0,1.527,1.572c.49.2,1.045.2,1.527.425a3.1,3.1,0,0,1,1.483,2.255,7.432,7.432,0,0,0,.325,1.257,1.594,1.594,0,0,0,.864.921,10.921,10.921,0,0,0,1.188.16,1.916,1.916,0,0,1,1.125.893,5.7,5.7,0,0,1,.547,1.364q.265.87.529,1.74A16.86,16.86,0,0,0,291.9,271.2" transform="translate(-58.37 -57.553)" fill="#ebebeb"/>
        <path id="Trazado_631378" data-name="Trazado 631378" d="M288.088,312.078a19.959,19.959,0,0,1-4.725-2.57,16.805,16.805,0,0,0,4.725,2.57" transform="translate(-60.134 -65.683)" fill="#ebebeb"/>
        <path id="Trazado_631379" data-name="Trazado 631379" d="M299.389,306.9a4.681,4.681,0,0,1-9.361-.092v-.31a22.824,22.824,0,0,0-6.679,2.342l.011.009a19.969,19.969,0,0,0,4.724,2.57,16.82,16.82,0,0,0,5.573.948h0a16.786,16.786,0,0,0,11.224-4.286,25.487,25.487,0,0,0-5.5-1.663Z" transform="translate(-60.131 -65.028)" fill="#e8505b"/>
        <path id="Trazado_631380" data-name="Trazado 631380" d="M295.376,306.049a4.682,4.682,0,0,0,4.68-4.589l-.007-.484-.043-2.927a9.377,9.377,0,0,1-1.3-.585,3.848,3.848,0,0,1-1.994-3.287c-.012-.431-.008-.929.023-1.5l.594-3.885c-1.814-.66-2.34-3.387-2.34-3.387a6.083,6.083,0,0,1-2.068.669,2.067,2.067,0,0,1-1.911-.824,2.955,2.955,0,0,1-.17-2.075,2.389,2.389,0,0,0-.352-1.788,1.316,1.316,0,0,0-2.1-.187,7.123,7.123,0,0,0-1.728,4.243,45.973,45.973,0,0,0,.052,8.512c.683,4.3,3.979,4.848,3.979,4.848a10.935,10.935,0,0,0,5.759-1.537s-1.4,2.955-5.7,2.552l-.058-1.015v2.563a4.681,4.681,0,0,0,4.681,4.681m-2.03-18.544a1.45,1.45,0,0,1,.86-.277,1.51,1.51,0,0,1,.874.269c.191.138.259.268.228.3-.064.072-.5-.232-1.093-.226s-1.012.308-1.08.236c-.033-.032.029-.162.211-.3m1.52,2.455a.124.124,0,1,1-.068-.164.126.126,0,0,1,.068.164m-1.891-3.5a2.359,2.359,0,0,1,2.057.228c.227.156.325.308.284.377-.092.145-.654-.059-1.352-.128-.7-.084-1.289-.008-1.348-.169-.025-.077.1-.2.359-.307m-5.409-.143a1.457,1.457,0,0,1,1.619-.05c.182.128.247.263.206.331-.1.141-.513.027-1,.05-.492.007-.9.146-1,.012-.047-.065.011-.2.184-.343m.932,2.544a.551.551,0,0,1-.532-.556.529.529,0,0,1,.57-.5.552.552,0,0,1,.531.557.527.527,0,0,1-.569.5m.974-1.065c-.065.072-.5-.232-1.093-.226s-1.011.308-1.079.236c-.034-.032.028-.163.21-.3a1.45,1.45,0,0,1,.859-.277,1.513,1.513,0,0,1,.875.269c.189.138.259.268.228.3m.655,4.471a.994.994,0,0,1-.258-.035.382.382,0,0,1-.249-.221.876.876,0,0,1,.079-.595l.429-1.161a19.9,19.9,0,0,1,1.247-2.931,19.883,19.883,0,0,1-1.007,3.019q-.235.6-.448,1.154a.768.768,0,0,0-.1.449c.025.1.169.133.321.149a3.9,3.9,0,0,1,.963.174,3.864,3.864,0,0,1-.977,0m3.009,1.949a1,1,0,0,1-.95.591,1.089,1.089,0,0,1-.786-.422c-.288-.009-.45-.093-.44-.133s.127-.048.307-.08c0-.006-.006-.009-.008-.014l.009.014.032-.006a.52.52,0,0,1,.638-.641.462.462,0,0,1,.315-.473.621.621,0,0,1,.436.024c.087-.228.113-.4.163-.4s.116.156.091.425a1.119,1.119,0,0,1-.024.132.908.908,0,0,1,.219.979m.57-5.911a.528.528,0,0,1,.569-.5.553.553,0,0,1,.532.557.527.527,0,0,1-.569.5.551.551,0,0,1-.532-.556" transform="translate(-60.799 -59.584)" fill="#ffbe9d"/>
        <path id="Trazado_631381" data-name="Trazado 631381" d="M288.934,289.706a.527.527,0,0,0-.569.5.551.551,0,0,0,.532.556.527.527,0,0,0,.568-.5.552.552,0,0,0-.531-.557" transform="translate(-61.196 -61.48)" fill="#263238"/>
        <path id="Trazado_631382" data-name="Trazado 631382" d="M289.46,289.237a1.517,1.517,0,0,0-.875-.269,1.446,1.446,0,0,0-.859.277c-.183.14-.245.27-.211.3.069.072.486-.238,1.08-.236s1.028.3,1.093.226c.031-.032-.038-.162-.228-.3" transform="translate(-61.014 -61.324)" fill="#263238"/>
        <path id="Trazado_631383" data-name="Trazado 631383" d="M296.182,290.76a.528.528,0,0,0,.569-.5.552.552,0,0,0-.532-.557.527.527,0,0,0-.569.5.552.552,0,0,0,.532.556" transform="translate(-62.742 -61.48)" fill="#263238"/>
        <path id="Trazado_631384" data-name="Trazado 631384" d="M294.923,289.548c.069.072.487-.237,1.08-.236s1.028.3,1.093.225c.032-.032-.037-.161-.228-.3a1.516,1.516,0,0,0-.874-.269,1.454,1.454,0,0,0-.859.277c-.183.14-.244.27-.211.3" transform="translate(-62.586 -61.324)" fill="#263238"/>
        <path id="Trazado_631385" data-name="Trazado 631385" d="M290.976,293.863c-.151-.016-.295-.046-.321-.149a.772.772,0,0,1,.1-.45q.213-.549.448-1.154a19.7,19.7,0,0,0,1.006-3.018,19.9,19.9,0,0,0-1.247,2.931q-.225.607-.429,1.16a.879.879,0,0,0-.079.6.383.383,0,0,0,.25.221,1.054,1.054,0,0,0,.257.035,3.871,3.871,0,0,0,.978,0,3.922,3.922,0,0,0-.964-.174" transform="translate(-61.634 -61.35)" fill="#263238"/>
        <path id="Trazado_631386" data-name="Trazado 631386" d="M291.885,304.266c4.3.4,5.7-2.552,5.7-2.552a10.942,10.942,0,0,1-5.76,1.536Z" transform="translate(-61.931 -64.029)" fill="#eb996e"/>
        <path id="Trazado_631387" data-name="Trazado 631387" d="M293.979,296.377a.621.621,0,0,0-.436-.024.462.462,0,0,0-.315.473.52.52,0,0,0-.638.641,1.907,1.907,0,0,0,.9-.391,1.649,1.649,0,0,0,.486-.7" transform="translate(-62.089 -62.885)" fill="#eb996e"/>
        <path id="Trazado_631388" data-name="Trazado 631388" d="M293.762,297.384a1.606,1.606,0,0,1-1.037.362h0a1.087,1.087,0,0,0,.786.423,1,1,0,0,0,.95-.592.908.908,0,0,0-.219-.979,1.407,1.407,0,0,1-.478.787" transform="translate(-62.121 -62.943)" fill="#eb996e"/>
        <path id="Trazado_631389" data-name="Trazado 631389" d="M292.544,297.767l.009.013h0Z" transform="translate(-62.083 -63.191)" fill="#eb996e"/>
        <path id="Trazado_631390" data-name="Trazado 631390" d="M293.643,297.234a1.406,1.406,0,0,0,.478-.787,1.265,1.265,0,0,0,.025-.132c.024-.269-.047-.429-.091-.425s-.076.168-.163.4a1.653,1.653,0,0,1-.486.7,1.907,1.907,0,0,1-.9.391l-.032.006c-.181.032-.306.043-.308.08s.152.124.44.132h0a1.605,1.605,0,0,0,1.037-.362" transform="translate(-62.002 -62.793)" fill="#263238"/>
        <path id="Trazado_631391" data-name="Trazado 631391" d="M295.613,288.434c.7.07,1.26.273,1.352.129.041-.069-.057-.221-.284-.377a2.363,2.363,0,0,0-2.057-.227c-.255.1-.384.229-.358.306.058.161.651.084,1.347.169" transform="translate(-62.448 -61.08)" fill="#263238"/>
        <path id="Trazado_631392" data-name="Trazado 631392" d="M288.623,288.072c.492-.024.908.091,1-.05.043-.068-.024-.2-.206-.331a1.453,1.453,0,0,0-1.618.05c-.174.139-.231.277-.185.343.1.135.514-.005,1.005-.012" transform="translate(-61.034 -61.006)" fill="#263238"/>
        <path id="Trazado_631393" data-name="Trazado 631393" d="M308.152,289.065a1.916,1.916,0,0,0-1.125-.893,11.156,11.156,0,0,1-1.189-.16,1.592,1.592,0,0,1-.863-.922,7.49,7.49,0,0,1-.326-1.257,3.093,3.093,0,0,0-1.483-2.255c-.481-.22-1.037-.225-1.528-.425a3.263,3.263,0,0,1-1.526-1.572c-.265-.494-.476-1.018-.742-1.509.006.113,0,.183-.017.184-.031.007-.072-.169-.169-.427,0,.038,0,.068,0,.109a3.03,3.03,0,0,1-.633,1.633,4.589,4.589,0,0,1-5.372,1.075,2.533,2.533,0,0,1-1.212-1.162,10.272,10.272,0,0,1-.473-1.465,3.2,3.2,0,0,0-1.546-1.891,3.444,3.444,0,0,0-1.631-.436c-.406,0-.628.057-.633.035a.485.485,0,0,1,.158-.054,2.42,2.42,0,0,1,.473-.07,3.414,3.414,0,0,1,3.381,2.352,10.77,10.77,0,0,0,.473,1.429,2.319,2.319,0,0,0,1.11,1.055,4.2,4.2,0,0,0,1.535.383,5.271,5.271,0,0,0,1.483-.1,3.672,3.672,0,0,0,2.125-1.251,3.094,3.094,0,0,0,.672-1.542c.012-.1.018-.191.02-.269a3.345,3.345,0,0,0-.62-.979,5.043,5.043,0,0,0-1.483-1.009c0-.027.221-.021.547.1a2.886,2.886,0,0,1,1.733,1.876c.01,0,.02,0,.03,0a2.961,2.961,0,0,0,2.462-1.988,2.168,2.168,0,0,0-.2-2.021,2.116,2.116,0,0,0-1.437-.735,3.029,3.029,0,0,0-2.7,1.082,2.755,2.755,0,0,0-.567,1.867l-.01,0,0-.013,0,.013a9.114,9.114,0,0,0-4.694-.629c-1.217.054-3.644-.818-4.787.713a3.222,3.222,0,0,0-2.315.377,4.456,4.456,0,0,0-1.957,3.286,6.361,6.361,0,0,1-.448,2.414c-.438.774-1.317,1.178-1.919,1.832a3.244,3.244,0,0,0-.42,3.7c.357.628.955,1.249.786,1.951-.179.744-1.085,1.012-1.618,1.561-.793.815-.667,2.128-.433,3.241a1.784,1.784,0,0,0,.715,1.3,1.981,1.981,0,0,0,1.2.062c2.547-.355,5.123.181,7.691.321.135.008.274.007.411.012v-.424s-3.3-.548-3.979-4.848a45.969,45.969,0,0,1-.052-8.512,7.122,7.122,0,0,1,1.728-4.243,1.316,1.316,0,0,1,2.1.187,2.39,2.39,0,0,1,.352,1.788A2.954,2.954,0,0,0,289.4,284a2.068,2.068,0,0,0,1.911.824,6.083,6.083,0,0,0,2.068-.669s.526,2.727,2.34,3.387l-.594,3.885c-.031.567-.035,1.065-.023,1.5a3.848,3.848,0,0,0,1.994,3.287,9.416,9.416,0,0,0,1.3.585,5.711,5.711,0,0,0,1.672.355,9.039,9.039,0,0,0,3.331-.665q2.651-.917,5.211-2.07a16.557,16.557,0,0,0,.622-2.25q-.264-.871-.528-1.741a5.7,5.7,0,0,0-.547-1.364" transform="translate(-59.184 -58.335)" fill="#263238"/>
        <path id="Trazado_631394" data-name="Trazado 631394" d="M296.828,292.3a.124.124,0,1,0,.162-.072.126.126,0,0,0-.162.072" transform="translate(-62.99 -62.014)" fill="#263238"/>
        <path id="Trazado_631395" data-name="Trazado 631395" d="M302.442,278.519c-.325-.117-.542-.123-.547-.1a5.056,5.056,0,0,1,1.483,1.01,3.337,3.337,0,0,1,.62.979,3.137,3.137,0,0,1,0-.363.472.472,0,0,1,.043.162,2.294,2.294,0,0,1,.021.369c.1.258.139.434.169.426.014,0,.024-.07.017-.184a1.963,1.963,0,0,0-.06-.369c0-.018-.013-.039-.018-.057a2.886,2.886,0,0,0-1.733-1.876" transform="translate(-64.067 -59.083)" fill="#e8505b"/>
        <path id="Trazado_631396" data-name="Trazado 631396" d="M301.532,280.194c-.02-.108-.035-.163-.043-.162a3.092,3.092,0,0,0,0,.362c0,.079-.009.169-.02.269a3.094,3.094,0,0,1-.672,1.542,3.668,3.668,0,0,1-2.125,1.251,5.274,5.274,0,0,1-1.483.1,4.2,4.2,0,0,1-1.535-.383,2.315,2.315,0,0,1-1.11-1.055,10.764,10.764,0,0,1-.473-1.429,3.414,3.414,0,0,0-3.381-2.352,2.419,2.419,0,0,0-.473.07.486.486,0,0,0-.158.054c0,.023.227-.035.633-.035a3.444,3.444,0,0,1,1.631.436,3.2,3.2,0,0,1,1.546,1.891,10.269,10.269,0,0,0,.473,1.464,2.533,2.533,0,0,0,1.212,1.162,4.591,4.591,0,0,0,5.373-1.075,3.034,3.034,0,0,0,.633-1.633c0-.041,0-.071,0-.109a2.3,2.3,0,0,0-.021-.369" transform="translate(-61.554 -59.067)" fill="#455a64"/>
        <path id="Trazado_631397" data-name="Trazado 631397" d="M407.775,316.627H342.506a14.158,14.158,0,0,1-14.158-14.159V285.484h79.427a14.159,14.159,0,0,1,14.159,14.159v2.826a14.159,14.159,0,0,1-14.159,14.159" transform="translate(-69.681 -60.585)" fill="#f5f5f5"/>
        <path id="Trazado_631398" data-name="Trazado 631398" d="M411.1,299.1c0,.119-14.309.216-31.957.216s-31.961-.1-31.961-.216,14.307-.216,31.961-.216,31.957.1,31.957.216" transform="translate(-73.677 -63.429)" fill="#263238"/>
        <path id="Trazado_631399" data-name="Trazado 631399" d="M411.1,305.728c0,.119-14.309.216-31.957.216s-31.961-.1-31.961-.216,14.307-.216,31.961-.216,31.957.1,31.957.216" transform="translate(-73.677 -64.835)" fill="#263238"/>
        <path id="Trazado_631400" data-name="Trazado 631400" d="M384.572,311.878c0,.119-8.372.216-18.7.216s-18.7-.1-18.7-.216,8.37-.216,18.7-.216,18.7.1,18.7.216" transform="translate(-73.677 -66.14)" fill="#263238"/>
        <rect id="Rectángulo_329129" data-name="Rectángulo 329129" width="151.848" height="80.444" transform="translate(50.537 57.782)" fill="#eb6f2d"/>
        <path id="Trazado_631401" data-name="Trazado 631401" d="M204.183,111.111c0,.119-11.569.216-25.838.216s-25.839-.1-25.839-.216,11.567-.216,25.839-.216,25.838.1,25.838.216" transform="translate(-32.364 -23.534)" fill="#fafafa"/>
        <path id="Trazado_631402" data-name="Trazado 631402" d="M204.183,132.661c0,.119-11.569.216-25.838.216s-25.839-.1-25.839-.216,11.567-.216,25.839-.216,25.838.1,25.838.216" transform="translate(-32.364 -28.107)" fill="#fafafa"/>
        <path id="Trazado_631403" data-name="Trazado 631403" d="M223.789,124.347c0,.119-15.958.216-35.639.216s-35.643-.1-35.643-.216,15.955-.216,35.643-.216,35.639.1,35.639.216" transform="translate(-32.364 -26.343)" fill="#fafafa"/>
        <path id="Trazado_631404" data-name="Trazado 631404" d="M212.2,214.008c0,.119-11.569.216-25.837.216s-25.84-.1-25.84-.216,11.567-.216,25.84-.216,25.837.1,25.837.216" transform="translate(-34.067 -45.37)" fill="#fafafa"/>
        <path id="Trazado_631405" data-name="Trazado 631405" d="M212.2,235.558c0,.119-11.569.216-25.837.216s-25.84-.1-25.84-.216,11.567-.216,25.84-.216,25.837.1,25.837.216" transform="translate(-34.067 -49.944)" fill="#fafafa"/>
        <path id="Trazado_631406" data-name="Trazado 631406" d="M231.811,227.243c0,.119-15.958.216-35.639.216s-35.643-.1-35.643-.216,15.955-.216,35.643-.216,35.639.1,35.639.216" transform="translate(-34.067 -48.179)" fill="#fafafa"/>
        <rect id="Rectángulo_329130" data-name="Rectángulo 329130" width="152.046" height="80.444" transform="translate(50.339 217.174)" fill="#eb6f2d"/>
        <path id="Trazado_631407" data-name="Trazado 631407" d="M212.2,318.755c0,.119-11.569.216-25.837.216s-25.84-.1-25.84-.216,11.567-.216,25.84-.216,25.837.1,25.837.216" transform="translate(-34.067 -67.599)" fill="#fafafa"/>
        <path id="Trazado_631408" data-name="Trazado 631408" d="M212.2,340.3c0,.119-11.569.216-25.837.216s-25.84-.1-25.84-.216,11.567-.216,25.84-.216,25.837.1,25.837.216" transform="translate(-34.067 -72.173)" fill="#fafafa"/>
        <path id="Trazado_631409" data-name="Trazado 631409" d="M231.811,331.991c0,.119-15.958.216-35.639.216s-35.643-.1-35.643-.216,15.955-.216,35.643-.216,35.639.1,35.639.216" transform="translate(-34.067 -70.408)" fill="#fafafa"/>
        <path id="Trazado_631410" data-name="Trazado 631410" d="M505.746,306.036c0-1.359-.065-103.07-.168-266.15l.168.168L64.128,40.1h-.034l.215-.216c-.006,94.291-.01,184.269-.016,266.15l-.2-.2,441.652.2-441.652.2h-.2v-.2c0-81.881-.01-171.86-.016-266.15V39.67h.25l441.618.048h.169v.168c-.1,163.08-.167,264.792-.168,266.15" transform="translate(-13.556 -8.419)" fill="#e8505b"/>
        <path id="Trazado_631411" data-name="Trazado 631411" d="M629.039,129.989H537.583a14.246,14.246,0,0,1-14.246-14.246V99.39h105.7a14.247,14.247,0,0,1,14.246,14.246v2.107a14.246,14.246,0,0,1-14.246,14.246" transform="translate(-111.061 -21.092)" fill="#ffb338"/>
        <path id="Trazado_631412" data-name="Trazado 631412" d="M633.376,112.284c0,.119-20.925.216-46.731.216s-46.734-.1-46.734-.216,20.92-.216,46.734-.216,46.731.1,46.731.216" transform="translate(-114.578 -23.783)" fill="#fff"/>
        <path id="Trazado_631413" data-name="Trazado 631413" d="M633.376,118.753c0,.119-20.925.216-46.731.216s-46.734-.1-46.734-.216,20.92-.216,46.734-.216,46.731.1,46.731.216" transform="translate(-114.578 -25.156)" fill="#fff"/>
        <path id="Trazado_631414" data-name="Trazado 631414" d="M594.593,124.758c0,.119-12.241.216-27.339.216s-27.342-.1-27.342-.216,12.239-.216,27.342-.216,27.339.1,27.339.216" transform="translate(-114.578 -26.43)" fill="#fff"/>
      </g>
    </g>
    <g id="Grupo_879799" data-name="Grupo 879799">
      <g id="Grupo_879798" data-name="Grupo 879798" clip-path="url(#clip-path)">
        <path id="Trazado_631415" data-name="Trazado 631415" d="M109.611,345.983H104.82a24,24,0,0,1-24-24V317.19a24,24,0,0,1,24-24h4.791a24,24,0,0,1,24,24v4.791a24,24,0,0,1-24,24" transform="translate(-17.151 -62.219)" fill="#fff"/>
        <path id="Trazado_631416" data-name="Trazado 631416" d="M89.106,348.695s8.647-3.556,17.021-3.606,22.112,4.252,22.112,4.252S120.6,358.555,106.127,357c-12.066-1.3-17.021-8.3-17.021-8.3" transform="translate(-18.91 -73.234)" fill="#455a64"/>
        <path id="Trazado_631417" data-name="Trazado 631417" d="M95.685,304.371c-1.965,1.149-2.441,3.732-2.663,6s-.548,4.83-2.393,6.16c-1.522,1.1-3.94,1.249-4.577,3.013a2.133,2.133,0,0,0,3.111,2.549,3.689,3.689,0,0,0,.325,4.308c1.084,1.1,3.27.958,3.932-.44a1.876,1.876,0,1,0,3.5,1.337" transform="translate(-18.236 -64.593)" fill="#263238"/>
        <path id="Trazado_631418" data-name="Trazado 631418" d="M125.357,323.519a2.259,2.259,0,1,0,4.415-.946c-.229-.919-1.03-1.7-.945-2.645.1-1.143,1.4-1.729,2.506-2.029s2.415-.713,2.735-1.815c.309-1.064-.5-2.088-1.179-2.965s-1.267-2.147-.585-3.02c.349-.447.935-.632,1.361-1.005a2.488,2.488,0,0,0,.006-3.387,4.536,4.536,0,0,0-3.41-1.308,33.861,33.861,0,0,0-3.737.41,15,15,0,0,1-11.458-3.735" transform="translate(-24.419 -63.893)" fill="#263238"/>
        <path id="Trazado_631419" data-name="Trazado 631419" d="M98.323,312.207l.88,25.655a8.14,8.14,0,0,0,16.267.107c.108-2.248.191-4.112.191-4.112s6.5-.749,6.834-7.2c.162-3.119-.028-9.572-.267-15.407a12.041,12.041,0,0,0-11.558-11.531l-.623-.024a11.962,11.962,0,0,0-11.723,12.516" transform="translate(-20.863 -63.6)" fill="#eb996e"/>
        <path id="Trazado_631420" data-name="Trazado 631420" d="M118.11,342.21a15.028,15.028,0,0,1-8.325-2.726s1.806,4.727,8.274,4.4Z" transform="translate(-23.298 -72.044)" fill="#aa6550"/>
        <path id="Trazado_631421" data-name="Trazado 631421" d="M124.7,319.531a.924.924,0,0,1-.926.9.884.884,0,0,1-.918-.87.923.923,0,0,1,.926-.9.884.884,0,0,1,.919.87" transform="translate(-26.072 -67.625)" fill="#263238"/>
        <path id="Trazado_631422" data-name="Trazado 631422" d="M125.77,318.032c-.119.116-.8-.429-1.79-.466s-1.739.431-1.843.306c-.05-.056.073-.269.4-.487a2.526,2.526,0,0,1,1.481-.393,2.422,2.422,0,0,1,1.419.521c.3.246.392.468.333.519" transform="translate(-25.917 -67.271)" fill="#263238"/>
        <path id="Trazado_631423" data-name="Trazado 631423" d="M112.555,319.187a.924.924,0,0,1-.926.9.884.884,0,0,1-.919-.87.923.923,0,0,1,.926-.9.884.884,0,0,1,.919.87" transform="translate(-23.495 -67.552)" fill="#263238"/>
        <path id="Trazado_631424" data-name="Trazado 631424" d="M113.377,317.777c-.119.116-.8-.429-1.791-.466s-1.739.431-1.842.306c-.05-.056.073-.269.4-.487a2.52,2.52,0,0,1,1.48-.393,2.429,2.429,0,0,1,1.419.521c.3.246.391.467.332.519" transform="translate(-23.287 -67.217)" fill="#263238"/>
        <path id="Trazado_631425" data-name="Trazado 631425" d="M118.523,325.349a6.571,6.571,0,0,1,1.624-.227c.254-.017.5-.057.546-.228a1.291,1.291,0,0,0-.139-.758q-.321-.935-.674-1.959a33.065,33.065,0,0,1-1.483-5.115,33.3,33.3,0,0,1,1.891,4.983q.336,1.03.641,1.969a1.47,1.47,0,0,1,.092,1,.636.636,0,0,1-.431.355,1.742,1.742,0,0,1-.433.043,6.465,6.465,0,0,1-1.634-.062" transform="translate(-25.123 -67.286)" fill="#263238"/>
        <path id="Trazado_631426" data-name="Trazado 631426" d="M114.769,328.307c.161,0,.121,1.075,1.013,1.875s2.044.729,2.046.879c.013.069-.264.2-.749.193a2.684,2.684,0,0,1-1.71-.673,2.337,2.337,0,0,1-.781-1.569c-.023-.452.108-.715.181-.705" transform="translate(-24.317 -69.672)" fill="#263238"/>
        <path id="Trazado_631427" data-name="Trazado 631427" d="M113.653,312.912c-.109.265-1.094.1-2.264.193-1.172.071-2.125.375-2.27.127-.065-.119.109-.366.5-.612a3.946,3.946,0,0,1,3.454-.243c.421.189.628.409.581.536" transform="translate(-23.154 -66.231)" fill="#263238"/>
        <path id="Trazado_631428" data-name="Trazado 631428" d="M125.522,314.352c-.184.218-.858-.043-1.68-.086-.82-.072-1.524.091-1.676-.15-.065-.117.053-.339.366-.54a2.438,2.438,0,0,1,2.7.191c.281.243.367.479.286.586" transform="translate(-25.922 -66.478)" fill="#263238"/>
        <path id="Trazado_631429" data-name="Trazado 631429" d="M105.289,305.839l-.036.027a5.085,5.085,0,0,0-2.018,3.21l-.023.13c-.326,1.832-.354,3.707-.7,5.537a8.36,8.36,0,0,1-2.465,4.889c-.58.5-1.583.819-2.019.19a1.578,1.578,0,0,1-.2-.853c-.169-4.461-1.227-8.455-1.035-13.106a3.924,3.924,0,0,1,1.753-3.128c1-.659,2.219-1.336,3.281-.781s2.384,2.636,3.189,3.529" transform="translate(-20.537 -64.036)" fill="#263238"/>
        <path id="Trazado_631430" data-name="Trazado 631430" d="M99.754,319.327c-.108-.052-4.386-1.488-4.419,2.933s4.412,3.543,4.42,3.416,0-6.349,0-6.349" transform="translate(-20.232 -67.711)" fill="#eb996e"/>
        <path id="Trazado_631431" data-name="Trazado 631431" d="M98.72,324.374c-.02-.014-.077.054-.208.112a.771.771,0,0,1-.576.008,1.907,1.907,0,0,1-.869-1.717,2.549,2.549,0,0,1,.224-1.1.888.888,0,0,1,.584-.586.391.391,0,0,1,.453.214c.058.124.03.212.053.22s.1-.073.061-.256a.49.49,0,0,0-.172-.279.587.587,0,0,0-.425-.116,1.083,1.083,0,0,0-.809.68,2.611,2.611,0,0,0-.277,1.23,2,2,0,0,0,1.109,1.918.825.825,0,0,0,.705-.112c.138-.108.161-.207.147-.215" transform="translate(-20.534 -68.094)" fill="#aa6550"/>
        <path id="Trazado_631432" data-name="Trazado 631432" d="M102.909,301.524c-1.017-1.81,2.062-4.228,4.267-4.829s5.036.575,7.175,1.38a12.063,12.063,0,0,0,4.132,1.192,9.756,9.756,0,0,0,2.827-.6,7.149,7.149,0,0,1,2.847-.446,2.666,2.666,0,0,1,2.265,1.565,1.669,1.669,0,0,1-1.2,2.21,2.17,2.17,0,1,1,.419,4.041c.647-.451,1.578.373,1.47,1.154a2.287,2.287,0,0,1-1.576,1.611,8.273,8.273,0,0,1-5.891-.324c-1.88-.717-3.608-1.786-5.47-2.549s-4.978-2.124-6.9-1.531c-1.416.437-2.454,2.081-3.228,1.679a2.7,2.7,0,0,1-1.319-2.04,7.809,7.809,0,0,1,.186-2.511" transform="translate(-21.791 -62.929)" fill="#263238"/>
        <path id="Trazado_631433" data-name="Trazado 631433" d="M123.355,302.188a1.208,1.208,0,0,1,1.093.19,2.306,2.306,0,0,1,.812,2.815,3.9,3.9,0,0,1-4,1.83,10.83,10.83,0,0,1-5.061-2.193,26.787,26.787,0,0,0-4.576-2.917,7.127,7.127,0,0,0-2.241-.592,5.5,5.5,0,0,0-1.993.252,4.141,4.141,0,0,0-2.306,1.713,8.471,8.471,0,0,0-.44,1c-.014,0-.006-.1.024-.288a2.667,2.667,0,0,1,.277-.787A4.169,4.169,0,0,1,107.3,301.3a5.672,5.672,0,0,1,2.107-.317,7.3,7.3,0,0,1,2.37.584,25.6,25.6,0,0,1,4.664,2.928,10.707,10.707,0,0,0,4.861,2.154,3.624,3.624,0,0,0,3.7-1.579,1.957,1.957,0,0,0,.07-1.563,2.074,2.074,0,0,0-.711-.991,1.889,1.889,0,0,0-1-.323" transform="translate(-22.206 -63.872)" fill="#455a64"/>
        <path id="Trazado_631434" data-name="Trazado 631434" d="M110.977,298.924c-.023.065-.584-.143-1.52-.208a6.266,6.266,0,0,0-6.03,3.272c-.455.82-.585,1.4-.653,1.387a3.058,3.058,0,0,1,.393-1.52,6.009,6.009,0,0,1,6.32-3.43,3.069,3.069,0,0,1,1.489.5" transform="translate(-21.807 -63.318)" fill="#455a64"/>
        <path id="Trazado_631435" data-name="Trazado 631435" d="M97.622,311.387a2.119,2.119,0,0,1-.328-1.21,4.513,4.513,0,0,1,3.325-4.642,2.124,2.124,0,0,1,1.251-.08c0,.068-.47.1-1.162.357a4.7,4.7,0,0,0-3.123,4.36c-.023.738.1,1.2.036,1.215" transform="translate(-20.645 -64.812)" fill="#455a64"/>
      </g>
    </g>
    <g id="Grupo_879801" data-name="Grupo 879801">
      <g id="Grupo_879800" data-name="Grupo 879800" clip-path="url(#clip-path)">
        <path id="Trazado_631436" data-name="Trazado 631436" d="M127.675,236.292a9.338,9.338,0,0,1-2.727-.573l.071,4.768a41.64,41.64,0,0,1,8.971,2.712,27.5,27.5,0,0,0,7.616-11.363q-4.173,1.871-8.5,3.37a14.738,14.738,0,0,1-5.432,1.086" transform="translate(-26.516 -49.2)" fill="#fff"/>
        <path id="Trazado_631437" data-name="Trazado 631437" d="M105.783,185.366h0A27.476,27.476,0,0,0,88.97,234.578a37.213,37.213,0,0,1,10.893-3.821v-2.974c-.225-.007-.448-.016-.671-.028-4.188-.228-8.39-1.1-12.544-.524a3.23,3.23,0,0,1-1.961-.1,2.914,2.914,0,0,1-1.166-2.114c-.381-1.815-.587-3.957.707-5.286.87-.895,2.348-1.332,2.639-2.545.275-1.145-.7-2.158-1.282-3.181a5.293,5.293,0,0,1,.684-6.03c.982-1.067,2.416-1.727,3.131-2.989.663-1.171.565-2.6.731-3.937a7.263,7.263,0,0,1,3.191-5.358,5.251,5.251,0,0,1,3.758-.618c1.86-2.515,5.837-1.072,7.825-1.16,2.606-.115,5.359-.191,7.658,1.027l-.006-.021c0,.007,0,.013.006.021l.017.008a4.505,4.505,0,0,1,.925-3.046,4.942,4.942,0,0,1,4.411-1.764,3.448,3.448,0,0,1,2.343,1.2,3.535,3.535,0,0,1,.323,3.3,4.828,4.828,0,0,1-4.015,3.242c-.016,0-.032,0-.049,0,.009.03.023.065.03.094a3.181,3.181,0,0,1,.1.6c.435.8.778,1.656,1.21,2.461a5.319,5.319,0,0,0,2.489,2.564c.8.325,1.706.334,2.491.692a5.047,5.047,0,0,1,2.42,3.677,12.28,12.28,0,0,0,.531,2.05,2.6,2.6,0,0,0,1.409,1.5,17.643,17.643,0,0,0,1.938.261,3.126,3.126,0,0,1,1.835,1.457,9.251,9.251,0,0,1,.892,2.225q.431,1.419.862,2.839a27.5,27.5,0,0,0-26.939-32.932" transform="translate(-16.617 -39.338)" fill="#fff"/>
        <path id="Trazado_631438" data-name="Trazado 631438" d="M99.509,252.023a32.6,32.6,0,0,1-7.636-4.165,27.43,27.43,0,0,0,7.636,4.165" transform="translate(-19.497 -52.6)" fill="#fff"/>
        <path id="Trazado_631439" data-name="Trazado 631439" d="M118.006,243.606a7.635,7.635,0,0,1-15.269-.15v-.507a37.175,37.175,0,0,0-10.892,3.821l.022.018c2.611,1.888,3.431,3,7.561,4.3a30.717,30.717,0,0,0,9.229,1.43h0a27.377,27.377,0,0,0,18.307-6.992,41.6,41.6,0,0,0-8.971-2.712Z" transform="translate(-19.491 -51.53)" fill="#ffb338"/>
        <path id="Trazado_631440" data-name="Trazado 631440" d="M111.461,242.213a7.635,7.635,0,0,0,7.634-7.485l-.012-.79-.071-4.768a15.319,15.319,0,0,1-2.118-.962,6.278,6.278,0,0,1-3.253-5.362c-.019-.7-.012-1.515.039-2.44l.968-6.339c-2.959-1.076-3.817-5.523-3.817-5.523a9.932,9.932,0,0,1-3.374,1.092,3.371,3.371,0,0,1-3.116-1.345,4.82,4.82,0,0,1-.278-3.384,3.9,3.9,0,0,0-.574-2.917,2.147,2.147,0,0,0-3.42-.306,11.618,11.618,0,0,0-2.817,6.921c-.295,4.675-.47,10.395.084,13.883,1.114,7.014,6.49,7.907,6.49,7.907a17.838,17.838,0,0,0,9.394-2.506s-2.279,4.819-9.3,4.163l-.1-1.657v4.182a7.635,7.635,0,0,0,7.635,7.635m-3.311-30.247a2.371,2.371,0,0,1,1.4-.453,2.465,2.465,0,0,1,1.427.44c.311.225.423.436.372.489-.1.119-.815-.38-1.783-.368s-1.65.5-1.761.384c-.054-.053.047-.265.344-.493m2.48,4a.2.2,0,1,1-.111-.268.2.2,0,0,1,.111.268m-3.083-5.706a3.851,3.851,0,0,1,3.354.37c.371.254.53.5.463.615-.15.236-1.067-.1-2.205-.21-1.136-.137-2.1-.013-2.2-.276-.041-.124.169-.332.586-.5m-8.822-.234a2.372,2.372,0,0,1,2.64-.081c.3.208.4.428.336.54-.157.23-.836.043-1.638.083-.8.01-1.468.239-1.639.019-.076-.107.017-.334.3-.56m1.52,4.15a.9.9,0,0,1-.867-.908.86.86,0,0,1,.928-.811.9.9,0,0,1,.867.908.86.86,0,0,1-.927.811m1.587-1.738c-.106.119-.816-.38-1.783-.368s-1.65.5-1.761.384c-.054-.053.046-.265.344-.493a2.369,2.369,0,0,1,1.4-.453,2.467,2.467,0,0,1,1.427.44c.31.225.423.436.372.489m1.069,7.292a1.681,1.681,0,0,1-.42-.058.618.618,0,0,1-.406-.362,1.425,1.425,0,0,1,.128-.97q.333-.9.7-1.894a32.482,32.482,0,0,1,2.034-4.779,32.243,32.243,0,0,1-1.642,4.923l-.731,1.883a1.257,1.257,0,0,0-.165.733c.042.169.276.217.522.243a6.386,6.386,0,0,1,1.572.284,6.3,6.3,0,0,1-1.594,0m4.908,3.178a1.626,1.626,0,0,1-1.549.964,1.771,1.771,0,0,1-1.283-.689c-.47-.013-.733-.15-.718-.217s.207-.079.5-.13c0-.009-.01-.014-.014-.023l.015.022.051-.009a.848.848,0,0,1,1.041-1.045.754.754,0,0,1,.514-.773,1.014,1.014,0,0,1,.711.039c.143-.371.184-.649.265-.644s.189.254.149.693c-.006.06-.024.13-.037.2a1.5,1.5,0,0,1,.353,1.617m.93-9.64a.861.861,0,0,1,.928-.811.9.9,0,0,1,.867.908.86.86,0,0,1-.927.811.9.9,0,0,1-.867-.908" transform="translate(-20.58 -42.651)" fill="#ffbe9d"/>
        <path id="Trazado_631441" data-name="Trazado 631441" d="M100.952,215.554a.861.861,0,0,0-.928.811.9.9,0,0,0,.867.908.86.86,0,0,0,.927-.811.9.9,0,0,0-.867-.908" transform="translate(-21.227 -45.744)" fill="#263238"/>
        <path id="Trazado_631442" data-name="Trazado 631442" d="M101.81,214.792a2.461,2.461,0,0,0-1.427-.44,2.369,2.369,0,0,0-1.4.452c-.3.228-.4.44-.344.493.112.117.793-.387,1.761-.384s1.677.487,1.783.368c.051-.052-.062-.264-.372-.489" transform="translate(-20.93 -45.489)" fill="#263238"/>
        <path id="Trazado_631443" data-name="Trazado 631443" d="M112.774,217.274a.86.86,0,0,0,.927-.811.9.9,0,0,0-.867-.908.861.861,0,0,0-.928.811.9.9,0,0,0,.867.908" transform="translate(-23.748 -45.744)" fill="#263238"/>
        <path id="Trazado_631444" data-name="Trazado 631444" d="M110.719,215.3c.112.117.794-.387,1.761-.384s1.677.487,1.783.368c.051-.052-.061-.264-.372-.489a2.463,2.463,0,0,0-1.427-.44,2.376,2.376,0,0,0-1.4.452c-.3.228-.4.44-.343.493" transform="translate(-23.494 -45.489)" fill="#263238"/>
        <path id="Trazado_631445" data-name="Trazado 631445" d="M104.283,222.335c-.247-.025-.481-.075-.523-.243a1.259,1.259,0,0,1,.165-.733l.731-1.882a32.448,32.448,0,0,0,1.642-4.924,32.325,32.325,0,0,0-2.034,4.779q-.366.991-.7,1.894a1.431,1.431,0,0,0-.128.971.62.62,0,0,0,.406.361,1.645,1.645,0,0,0,.42.058,6.3,6.3,0,0,0,1.594,0,6.4,6.4,0,0,0-1.572-.284" transform="translate(-21.941 -45.532)" fill="#263238"/>
        <path id="Trazado_631446" data-name="Trazado 631446" d="M105.766,239.3c7.02.656,9.3-4.162,9.3-4.162a17.848,17.848,0,0,1-9.394,2.506Z" transform="translate(-22.425 -49.901)" fill="#eb996e"/>
        <path id="Trazado_631447" data-name="Trazado 631447" d="M109.611,226.77a2.287,2.287,0,0,1-.784,1.3,2.617,2.617,0,0,1-1.691.589h0a1.768,1.768,0,0,0,1.283.689,1.625,1.625,0,0,0,1.549-.963,1.5,1.5,0,0,0-.353-1.617" transform="translate(-22.735 -48.124)" fill="#eb996e"/>
        <path id="Trazado_631448" data-name="Trazado 631448" d="M109.181,226.436a1.013,1.013,0,0,0-.711-.039.756.756,0,0,0-.514.773.849.849,0,0,0-1.041,1.046,3.111,3.111,0,0,0,1.472-.637,2.694,2.694,0,0,0,.793-1.143" transform="translate(-22.683 -48.035)" fill="#eb996e"/>
        <path id="Trazado_631449" data-name="Trazado 631449" d="M106.84,228.7c0,.008.01.014.014.022h0Z" transform="translate(-22.673 -48.534)" fill="#eb996e"/>
        <path id="Trazado_631450" data-name="Trazado 631450" d="M108.634,227.832a2.292,2.292,0,0,0,.784-1.3c.013-.066.032-.136.036-.2.04-.44-.077-.7-.149-.694s-.123.273-.265.644a2.689,2.689,0,0,1-.793,1.143,3.111,3.111,0,0,1-1.472.637l-.05.009h0c-.3.051-.5.069-.5.131s.249.2.719.216h0a2.618,2.618,0,0,0,1.691-.589" transform="translate(-22.542 -47.885)" fill="#263238"/>
        <path id="Trazado_631451" data-name="Trazado 631451" d="M111.846,213.48c1.138.114,2.055.447,2.205.21.067-.113-.092-.36-.462-.615a3.853,3.853,0,0,0-3.354-.37c-.417.168-.627.375-.586.5.1.263,1.063.139,2.2.276" transform="translate(-23.268 -45.092)" fill="#263238"/>
        <path id="Trazado_631452" data-name="Trazado 631452" d="M100.445,212.89c.8-.039,1.481.147,1.637-.082.069-.112-.039-.332-.335-.54a2.374,2.374,0,0,0-2.64.082c-.284.226-.377.452-.3.559.17.22.837-.008,1.639-.019" transform="translate(-20.963 -44.97)" fill="#263238"/>
        <path id="Trazado_631453" data-name="Trazado 631453" d="M132.3,214.51a3.125,3.125,0,0,0-1.836-1.457,18,18,0,0,1-1.937-.261,2.6,2.6,0,0,1-1.409-1.5,12.277,12.277,0,0,1-.531-2.05,5.047,5.047,0,0,0-2.42-3.677c-.785-.358-1.691-.367-2.491-.692a5.324,5.324,0,0,1-2.49-2.564c-.431-.805-.775-1.66-1.209-2.462.01.185-.006.3-.029.3-.05.013-.118-.274-.276-.7,0,.061,0,.111,0,.178a4.938,4.938,0,0,1-1.033,2.663c-1.416,2.043-5.267,3.272-8.763,1.751a4.125,4.125,0,0,1-1.976-1.895,16.921,16.921,0,0,1-.773-2.388,5.212,5.212,0,0,0-2.521-3.084,5.626,5.626,0,0,0-2.661-.712c-.661,0-1.024.095-1.031.058,0-.013.085-.043.257-.087a3.87,3.87,0,0,1,.771-.116,5.571,5.571,0,0,1,5.514,3.837,17.546,17.546,0,0,0,.772,2.33,3.784,3.784,0,0,0,1.811,1.721,6.843,6.843,0,0,0,2.5.623,8.574,8.574,0,0,0,2.42-.161,5.98,5.98,0,0,0,3.466-2.04,5.039,5.039,0,0,0,1.1-2.514c.02-.165.029-.312.034-.439a5.435,5.435,0,0,0-1.012-1.6,8.245,8.245,0,0,0-2.418-1.646c.008-.043.36-.034.891.158a4.712,4.712,0,0,1,2.827,3.061c.017,0,.033,0,.049,0a4.828,4.828,0,0,0,4.015-3.242,3.537,3.537,0,0,0-.323-3.3,3.449,3.449,0,0,0-2.343-1.2,4.942,4.942,0,0,0-4.411,1.764,4.505,4.505,0,0,0-.925,3.046l-.017-.008c0-.008,0-.014-.006-.021l.006.02c-2.3-1.217-5.051-1.142-7.657-1.026-1.988.087-5.965-1.355-7.825,1.16a5.258,5.258,0,0,0-3.759.617,7.266,7.266,0,0,0-3.191,5.358c-.166,1.335-.068,2.766-.731,3.937-.715,1.262-2.15,1.921-3.131,2.989a5.292,5.292,0,0,0-.684,6.03c.582,1.023,1.557,2.036,1.282,3.181-.292,1.213-1.769,1.65-2.639,2.545-1.294,1.33-1.088,3.471-.707,5.286a2.912,2.912,0,0,0,1.166,2.115,3.23,3.23,0,0,0,1.961.1c4.154-.577,8.356.3,12.544.524.222.012.447.02.671.028v-.7s-5.377-.893-6.491-7.907c-.554-3.488-.379-9.208-.084-13.883a11.616,11.616,0,0,1,2.817-6.921,2.147,2.147,0,0,1,3.42.306,3.9,3.9,0,0,1,.574,2.916,4.82,4.82,0,0,0,.278,3.384,3.369,3.369,0,0,0,3.116,1.345,9.925,9.925,0,0,0,3.374-1.091s.858,4.447,3.818,5.523l-.969,6.338c-.05.926-.058,1.737-.038,2.441a6.277,6.277,0,0,0,3.252,5.362,15.38,15.38,0,0,0,2.119.962,9.379,9.379,0,0,0,2.727.573,14.738,14.738,0,0,0,5.432-1.086q4.321-1.494,8.5-3.371a27.3,27.3,0,0,0,1.016-3.675q-.431-1.42-.862-2.839a9.316,9.316,0,0,0-.892-2.225" transform="translate(-17.945 -40.614)" fill="#263238"/>
        <path id="Trazado_631454" data-name="Trazado 631454" d="M113.827,219.783a.2.2,0,1,0,.265-.117.205.205,0,0,0-.265.117" transform="translate(-24.153 -46.614)" fill="#263238"/>
        <path id="Trazado_631455" data-name="Trazado 631455" d="M122.984,197.309c-.531-.191-.884-.2-.891-.158a8.247,8.247,0,0,1,2.417,1.646,5.449,5.449,0,0,1,1.012,1.6,4.836,4.836,0,0,1,.007-.592c.013,0,.036.088.069.264a3.726,3.726,0,0,1,.035.6c.158.421.226.708.277.7.024,0,.039-.115.028-.3a3.18,3.18,0,0,0-.1-.6c-.007-.029-.021-.064-.029-.094a4.712,4.712,0,0,0-2.827-3.061" transform="translate(-25.91 -41.834)" fill="#e8505b"/>
        <path id="Trazado_631456" data-name="Trazado 631456" d="M121.5,200.04c-.033-.176-.056-.265-.069-.264a4.9,4.9,0,0,0-.008.592c0,.128-.014.274-.033.439a5.033,5.033,0,0,1-1.1,2.515,5.978,5.978,0,0,1-3.465,2.04,8.577,8.577,0,0,1-2.42.161,6.847,6.847,0,0,1-2.5-.624,3.779,3.779,0,0,1-1.81-1.721,17.5,17.5,0,0,1-.773-2.329,5.57,5.57,0,0,0-5.514-3.837,3.849,3.849,0,0,0-.77.116c-.173.045-.261.074-.258.087.008.038.37-.057,1.032-.057a5.624,5.624,0,0,1,2.66.711,5.22,5.22,0,0,1,2.522,3.085,16.771,16.771,0,0,0,.772,2.387,4.126,4.126,0,0,0,1.976,1.9c3.5,1.52,7.346.291,8.763-1.751a4.943,4.943,0,0,0,1.032-2.663c0-.067,0-.117,0-.178a3.719,3.719,0,0,0-.035-.6" transform="translate(-21.811 -41.808)" fill="#455a64"/>
      </g>
    </g>
    <g id="Grupo_879803" data-name="Grupo 879803">
      <g id="Grupo_879802" data-name="Grupo 879802" clip-path="url(#clip-path)">
        <path id="Trazado_631457" data-name="Trazado 631457" d="M106.772,141.671h-4.617a23.13,23.13,0,0,1-23.13-23.13v-4.617a23.13,23.13,0,0,1,23.13-23.13h4.617a23.13,23.13,0,0,1,23.13,23.13v4.617a23.13,23.13,0,0,1-23.13,23.13" transform="translate(-16.77 -19.268)" fill="#fff"/>
        <path id="Trazado_631458" data-name="Trazado 631458" d="M87.651,144.813s8.78-3.559,16.838-3.974c13.893-.716,21,3.383,21,3.383s-6.483,8.949-20.982,8.139c-11.677-.652-16.855-7.548-16.855-7.548" transform="translate(-18.601 -29.87)" fill="#263238"/>
        <path id="Trazado_631459" data-name="Trazado 631459" d="M109.7,143h0a7.29,7.29,0,0,1-7.146-6.984c-.118-2.817-.215-5.4-.215-5.4s-5.9-.626-6.253-6.475.007-19.335.007-19.335a20.363,20.363,0,0,1,20.56,1.578l.9.625-.428,28.815A7.289,7.289,0,0,1,109.7,143" transform="translate(-20.358 -21.802)" fill="#ffbe9d"/>
        <path id="Trazado_631460" data-name="Trazado 631460" d="M104.047,137.33a13.626,13.626,0,0,0,7.524-2.538s-1.6,4.3-7.464,4.056Z" transform="translate(-22.081 -28.605)" fill="#eb996e"/>
        <path id="Trazado_631461" data-name="Trazado 631461" d="M122.834,115.826c.1-.048,3.963-1.384,4.029,2.623s-3.97,3.247-3.979,3.132-.05-5.755-.05-5.755" transform="translate(-26.067 -24.527)" fill="#ffbe9d"/>
        <path id="Trazado_631462" data-name="Trazado 631462" d="M124.419,120.389c.017-.013.071.048.189.1a.7.7,0,0,0,.522,0,1.727,1.727,0,0,0,.774-1.562,2.308,2.308,0,0,0-.212-1,.807.807,0,0,0-.534-.527.355.355,0,0,0-.409.2c-.051.113-.025.192-.046.2s-.087-.065-.057-.232a.448.448,0,0,1,.153-.254.53.53,0,0,1,.384-.109.982.982,0,0,1,.74.61,2.372,2.372,0,0,1,.26,1.112,1.811,1.811,0,0,1-.989,1.747.749.749,0,0,1-.64-.1c-.126-.1-.149-.187-.135-.194" transform="translate(-26.403 -24.873)" fill="#eb996e"/>
        <path id="Trazado_631463" data-name="Trazado 631463" d="M99.688,117.4a.835.835,0,0,0,.806.844.8.8,0,0,0,.863-.754.837.837,0,0,0-.806-.845.8.8,0,0,0-.863.755" transform="translate(-21.155 -24.755)" fill="#263238"/>
        <path id="Trazado_631464" data-name="Trazado 631464" d="M98.392,115.291c.1.109.737-.36,1.638-.358s1.561.453,1.658.343c.047-.049-.058-.246-.346-.455a2.286,2.286,0,0,0-1.327-.409,2.2,2.2,0,0,0-1.3.421c-.277.212-.371.41-.32.458" transform="translate(-20.878 -24.28)" fill="#263238"/>
        <path id="Trazado_631465" data-name="Trazado 631465" d="M110.661,117.534a.837.837,0,0,0,.807.845.8.8,0,0,0,.863-.755.837.837,0,0,0-.806-.844.8.8,0,0,0-.863.755" transform="translate(-23.484 -24.782)" fill="#263238"/>
        <path id="Trazado_631466" data-name="Trazado 631466" d="M109.626,115.5c.1.11.739-.36,1.639-.358s1.56.453,1.658.343c.048-.049-.057-.246-.346-.455a2.292,2.292,0,0,0-1.327-.409,2.206,2.206,0,0,0-1.3.421c-.277.213-.37.41-.32.458" transform="translate(-23.262 -24.325)" fill="#263238"/>
        <path id="Trazado_631467" data-name="Trazado 631467" d="M104.864,122.2a6,6,0,0,0-1.462-.264c-.23-.024-.447-.069-.486-.226a1.171,1.171,0,0,1,.153-.681l.681-1.75a30.209,30.209,0,0,0,1.527-4.579,30.168,30.168,0,0,0-1.892,4.445q-.34.922-.652,1.761a1.331,1.331,0,0,0-.119.9.58.58,0,0,0,.378.336,1.574,1.574,0,0,0,.39.054,5.856,5.856,0,0,0,1.483,0" transform="translate(-21.767 -24.34)" fill="#263238"/>
        <path id="Trazado_631468" data-name="Trazado 631468" d="M108.072,125.007c-.147-.009-.148.969-.985,1.662s-1.876.586-1.884.723c-.013.061.232.19.672.2a2.434,2.434,0,0,0,1.572-.548,2.117,2.117,0,0,0,.763-1.394c.037-.409-.072-.651-.139-.645" transform="translate(-22.326 -26.529)" fill="#263238"/>
        <path id="Trazado_631469" data-name="Trazado 631469" d="M109.333,111.08c.089.245.988.128,2.044.256,1.059.106,1.91.415,2.051.2.062-.106-.086-.336-.43-.573a3.584,3.584,0,0,0-3.12-.344c-.388.156-.583.348-.545.465" transform="translate(-23.201 -23.43)" fill="#263238"/>
        <path id="Trazado_631470" data-name="Trazado 631470" d="M98.81,111.969c.158.2.778-.008,1.524-.017.745-.036,1.377.137,1.523-.077.064-.1-.035-.308-.312-.5a2.209,2.209,0,0,0-2.455.076c-.264.21-.351.421-.28.521" transform="translate(-20.964 -23.564)" fill="#263238"/>
        <path id="Trazado_631471" data-name="Trazado 631471" d="M92.34,99.117a2.161,2.161,0,0,1,.8-1.932,1.535,1.535,0,0,1,1.988.149,1.79,1.79,0,0,1,1.539-2.171c.956-.061,1.77.661,2.694.915a4.355,4.355,0,0,0,2.735-.316c.867-.349,1.677-.831,2.555-1.152a7.492,7.492,0,0,1,9.583,4.4,3.326,3.326,0,0,1,3.527,1.335,5.458,5.458,0,0,1,.836,3.844,12.223,12.223,0,0,1-.67,2.629c0,.075.008.149.006.225-.061,3.222-.425,7-1.8,7.026-2.395.036-1.825-4.477-1.825-4.477-2.94-1.136-1.845-5.54-2.58-6.209s-2.273-2.221-8.428.925a11.924,11.924,0,0,1-7.3.789c-.051-.011-.1-.018-.154-.031l-.035-.007c-.019,0-.032-.016-.05-.02a5.557,5.557,0,0,1-1.579-.67,3.117,3.117,0,0,1-1.3-1.446,1.707,1.707,0,0,1,.336-1.834,3.757,3.757,0,0,1-.873-1.971" transform="translate(-19.594 -19.983)" fill="#263238"/>
      </g>
    </g>
  </g>
</svg>
