<svg xmlns="http://www.w3.org/2000/svg" xmlns:xlink="http://www.w3.org/1999/xlink" width="149" height="125" viewBox="0 0 149 125">
  <defs>
    <filter id="Trazado_501745" x="-3.119" y="14.215" width="153.022" height="120.256" filterUnits="userSpaceOnUse">
      <feOffset dy="3" input="SourceAlpha"/>
      <feGaussianBlur stdDeviation="3" result="blur"/>
      <feFlood flood-opacity="0.161"/>
      <feComposite operator="in" in2="blur"/>
      <feComposite in="SourceGraphic"/>
    </filter>
    <clipPath id="clip-path">
      <rect id="Rectángulo_287342" data-name="Rectángulo 287342" width="149" height="125" fill="#fff" stroke="#707070" stroke-width="1" opacity="0.13"/>
    </clipPath>
    <clipPath id="clip-path-2">
      <rect id="Rectángulo_287341" data-name="Rectángulo 287341" width="134.306" height="113.235" fill="#fff"/>
    </clipPath>
    <clipPath id="clip-path-3">
      <path id="Trazado_504168" data-name="Trazado 504168" d="M149.649,18.233c36.4-.146,7.584,36.156,23.232,58.267,11.705,16.54,33.866,32.3,23.056,46.378-11.861,15.441-38.26-6.816-76.872,6.768C86.788,141,53.837,96.893,67.825,62.99c7.437-18.024,57.545-44.66,81.824-44.757" transform="translate(-64.52 -18.232)" fill="#fff"/>
    </clipPath>
    <clipPath id="clip-path-4">
      <rect id="Rectángulo_275969" data-name="Rectángulo 275969" width="5.164" height="5.163" fill="#ffb338"/>
    </clipPath>
    <clipPath id="clip-path-5">
      <path id="Trazado_501742" data-name="Trazado 501742" d="M51.878,44.325,50.322,45.88l-.927-.927L50.95,43.4l-1.64-1.64.955-.955,1.64,1.64,1.556-1.555.927.927L52.832,43.37l1.641,1.641-.955.955Z" transform="translate(-49.31 -40.802)" fill="#ffb338"/>
    </clipPath>
    <clipPath id="clip-path-6">
      <rect id="Rectángulo_275974" data-name="Rectángulo 275974" width="140.483" height="113.025" fill="none"/>
    </clipPath>
    <linearGradient id="linear-gradient" x1="-0.084" y1="1.037" x2="-0.079" y2="1.037" gradientUnits="objectBoundingBox">
      <stop offset="0" stop-color="#0078b2"/>
      <stop offset="0.184" stop-color="#0078b2"/>
      <stop offset="1" stop-color="#86cff2"/>
    </linearGradient>
    <clipPath id="clip-path-7">
      <g transform="matrix(1, 0, 0, 1, 0, 0)" filter="url(#Trazado_501745)">
        <path id="Trazado_501745-2" data-name="Trazado 501745" d="M175.814,41.377c-15.687-4.766-28.58,4.039-40.057,13.037s-24.941-.439-32.531-9.013c-9.282-10.484-26.474-10.887-35.035.953-6.858,9.485-6.24,25.365,8.826,32.786,14.457,7.122,25.937,16.117,28.941,28.96s5.33,26.548,20.3,30.858c11.567,3.33,21-4.062,21.615-15.677.619-11.763,6.681-15.374,15.979-17.113s16.856-2.7,23.388-8.125,10.956-12.337,11.729-24.823-7.464-27.078-23.15-31.843" transform="translate(-63.99 -37.5)" fill="#ffb338"/>
      </g>
    </clipPath>
    <filter id="Trazado_501751" x="-27.258" y="-11.244" width="199.365" height="170.713" filterUnits="userSpaceOnUse">
      <feOffset dy="3" input="SourceAlpha"/>
      <feGaussianBlur stdDeviation="9" result="blur-2"/>
      <feFlood flood-opacity="0.161"/>
      <feComposite operator="in" in2="blur-2"/>
      <feComposite in="SourceGraphic"/>
    </filter>
    <clipPath id="clip-path-8">
      <rect id="Rectángulo_275974-2" data-name="Rectángulo 275974" width="147.176" height="118.41" fill="none"/>
    </clipPath>
    <filter id="Trazado_501750" x="100.036" y="29.1" width="35.719" height="35.721" filterUnits="userSpaceOnUse">
      <feOffset dy="3" input="SourceAlpha"/>
      <feGaussianBlur stdDeviation="3" result="blur-3"/>
      <feFlood flood-opacity="0.161"/>
      <feComposite operator="in" in2="blur-3"/>
      <feComposite in="SourceGraphic"/>
    </filter>
    <filter id="Trazado_501957" x="15.187" y="77.887" width="32.616" height="32.617" filterUnits="userSpaceOnUse">
      <feOffset dy="3" input="SourceAlpha"/>
      <feGaussianBlur stdDeviation="3" result="blur-4"/>
      <feFlood flood-opacity="0.161"/>
      <feComposite operator="in" in2="blur-4"/>
      <feComposite in="SourceGraphic"/>
    </filter>
    <clipPath id="clip-path-11">
      <rect id="Rectángulo_329178" data-name="Rectángulo 329178" width="98.822" height="98.822" fill="none"/>
    </clipPath>
    <clipPath id="clip-path-12">
      <rect id="Rectángulo_329177" data-name="Rectángulo 329177" width="98.822" height="98.822" transform="translate(0 0)" fill="none"/>
    </clipPath>
    <clipPath id="clip-path-13">
      <rect id="Rectángulo_329173" data-name="Rectángulo 329173" width="31.641" height="31.642" transform="translate(12.22 21.855)" fill="none"/>
    </clipPath>
    <clipPath id="clip-path-14">
      <rect id="Rectángulo_329174" data-name="Rectángulo 329174" width="22.736" height="22.736" transform="translate(55.832 66.803)" fill="none"/>
    </clipPath>
    <clipPath id="clip-path-15">
      <rect id="Rectángulo_329175" data-name="Rectángulo 329175" width="30.301" height="30.301" transform="translate(42.29 7.049)" fill="none"/>
    </clipPath>
    <clipPath id="clip-path-16">
      <rect id="Rectángulo_329176" data-name="Rectángulo 329176" width="22.736" height="22.736" transform="translate(32.663 59.726)" fill="none"/>
    </clipPath>
  </defs>
  <g id="Grupo_1034308" data-name="Grupo 1034308" transform="translate(-303.5 -21530.969)">
    <g id="Enmascarar_grupo_736363" data-name="Enmascarar grupo 736363" transform="translate(303.5 21530.969)" clip-path="url(#clip-path)">
      <g id="Grupo_741180" data-name="Grupo 741180" transform="translate(-27.841 0.033)">
        <g id="Grupo_741179" data-name="Grupo 741179" transform="translate(33.722 7.108)" opacity="0.41" clip-path="url(#clip-path-2)">
          <g id="Grupo_741178" data-name="Grupo 741178" transform="translate(0 0)">
            <g id="Grupo_741177" data-name="Grupo 741177" clip-path="url(#clip-path-3)">
              <path id="Trazado_504167" data-name="Trazado 504167" d="M216.78,92.84,53.76,177.719,6.468-.187l163.02-84.88Z" transform="translate(-45.852 14.985)" fill="#fff"/>
            </g>
          </g>
        </g>
        <g id="Grupo_733941" data-name="Grupo 733941" transform="translate(31.14 20.183)">
          <g id="Grupo_733900" data-name="Grupo 733900" transform="translate(0 0)">
            <g id="Grupo_733899" data-name="Grupo 733899" clip-path="url(#clip-path-4)">
              <g id="Grupo_733898" data-name="Grupo 733898" transform="translate(0)">
                <g id="Grupo_733897" data-name="Grupo 733897" clip-path="url(#clip-path-5)">
                  <rect id="Rectángulo_275968" data-name="Rectángulo 275968" width="5.163" height="5.163" transform="translate(0)" fill="#ffb338"/>
                </g>
              </g>
            </g>
          </g>
        </g>
        <g id="Grupo_733943" data-name="Grupo 733943" transform="translate(0 2.785)" opacity="0.75">
          <g id="Grupo_733918" data-name="Grupo 733918" transform="translate(0 0)">
            <g id="Grupo_733917" data-name="Grupo 733917" clip-path="url(#clip-path-6)">
              <path id="Trazado_501748" data-name="Trazado 501748" d="M96.161,19.792h0c-11.274,12.236-24.045,19.77-44.148,19.77q-2.942,0-6.1-.218-1.027-.071-2.037-.071c-14.345,0-25.8,10.644-25.8,25.629,0,8.639,3.807,18.721,13.063,29.037a80.511,80.511,0,0,0,60.111,26.693,66.481,66.481,0,0,0,26.163-4.971c29.646-12.926,40.5-37.305,40.5-59.159,0-12.753-3.7-24.647-9.51-32.9C140.664,12.61,130.924,8.254,121.547,8.254c-9.737,0-19.082,4.7-25.386,11.538h0c6.3-6.841,15.649-11.538,25.386-11.538,9.377,0,19.117,4.356,26.856,15.345,5.814,8.256,9.51,20.149,9.51,32.9,0,21.854-10.852,46.233-40.5,59.159a66.481,66.481,0,0,1-26.163,4.971A80.511,80.511,0,0,1,31.14,93.939C21.884,83.623,18.077,73.541,18.077,64.9c0-14.985,11.455-25.629,25.8-25.629q1.009,0,2.037.071,3.161.22,6.1.218c20.1,0,32.874-7.534,44.148-19.77Z" transform="translate(-17.753 -7.93)" fill="url(#linear-gradient)"/>
            </g>
          </g>
        </g>
        <rect id="Rectángulo_275984" data-name="Rectángulo 275984" width="102.915" height="88.868" transform="translate(15.188 17.211)" fill="none"/>
        <g id="Grupo_733907" data-name="Grupo 733907" transform="translate(33.722 20.183)" opacity="0.51" clip-path="url(#clip-path-7)">
          <g transform="matrix(1, 0, 0, 1, -5.88, -20.22)" filter="url(#Trazado_501751)">
            <path id="Trazado_501751-2" data-name="Trazado 501751" d="M0,0H141.814V112.189H0Z" transform="translate(-0.26 17.34) rotate(-1.85)" fill="#ffb338"/>
          </g>
        </g>
        <rect id="Rectángulo_275972" data-name="Rectángulo 275972" width="135.022" height="102.255" transform="translate(33.722 20.183)" fill="none"/>
        <g id="Grupo_733919" data-name="Grupo 733919" transform="translate(2.232 0)" opacity="0.75">
          <g id="Grupo_733918-2" data-name="Grupo 733918" transform="translate(0)">
            <g id="Grupo_733917-2" data-name="Grupo 733917" clip-path="url(#clip-path-8)">
              <path id="Trazado_501748-2" data-name="Trazado 501748" d="M99.882,20.342h0C88.071,33.161,74.691,41.053,53.63,41.053q-3.082,0-6.391-.229-1.076-.074-2.134-.074c-15.028,0-27.029,11.151-27.029,26.85,0,9.051,3.989,19.613,13.685,30.421a84.347,84.347,0,0,0,62.975,27.964,69.648,69.648,0,0,0,27.41-5.208C153.206,107.236,164.575,81.7,164.575,58.8c0-13.361-3.872-25.821-9.963-34.47C146.5,12.817,136.3,8.254,126.477,8.254c-10.2,0-19.991,4.921-26.6,12.088h0c6.6-7.167,16.394-12.088,26.6-12.088,9.824,0,20.028,4.563,28.135,16.076,6.091,8.649,9.963,21.109,9.963,34.47,0,22.9-11.369,48.435-42.428,61.977a69.648,69.648,0,0,1-27.41,5.208A84.347,84.347,0,0,1,31.762,98.021c-9.7-10.808-13.685-21.37-13.685-30.421,0-15.7,12-26.85,27.029-26.85q1.057,0,2.134.074,3.311.23,6.391.229c21.061,0,34.441-7.893,46.251-20.712Z" transform="translate(-17.738 -7.915)" fill="url(#linear-gradient)"/>
            </g>
          </g>
        </g>
        <rect id="Rectángulo_275973" data-name="Rectángulo 275973" width="107.818" height="93.101" transform="translate(18.142 15.113)" fill="none"/>
        <g id="Grupo_733982" data-name="Grupo 733982" transform="translate(163.374 81.27)">
          <g id="Grupo_733900-2" data-name="Grupo 733900" transform="translate(0 0)">
            <g id="Grupo_733899-2" data-name="Grupo 733899" clip-path="url(#clip-path-4)">
              <g id="Grupo_733898-2" data-name="Grupo 733898" transform="translate(0)">
                <g id="Grupo_733897-2" data-name="Grupo 733897" clip-path="url(#clip-path-5)">
                  <rect id="Rectángulo_275968-2" data-name="Rectángulo 275968" width="5.163" height="5.163" transform="translate(0)" fill="#ffb338"/>
                </g>
              </g>
            </g>
          </g>
        </g>
        <g transform="matrix(1, 0, 0, 1, 27.84, -0.03)" filter="url(#Trazado_501750)">
          <path id="Trazado_501750-2" data-name="Trazado 501750" d="M236.768,93.091a8.86,8.86,0,1,1-8.86-8.86,8.86,8.86,0,0,1,8.86,8.86" transform="translate(-110.01 -49.13)" fill="#ffb338"/>
        </g>
        <g transform="matrix(1, 0, 0, 1, 27.84, -0.03)" filter="url(#Trazado_501957)">
          <path id="Trazado_501957-2" data-name="Trazado 501957" d="M233.665,91.539a7.308,7.308,0,1,1-7.308-7.308,7.308,7.308,0,0,1,7.308,7.308" transform="translate(-194.86 -0.34)" fill="#ffb338"/>
        </g>
      </g>
    </g>
    <g id="Grupo_879895" data-name="Grupo 879895" transform="translate(328.589 21548.059)">
      <g id="Grupo_879894" data-name="Grupo 879894" clip-path="url(#clip-path-11)">
        <g id="Grupo_879893" data-name="Grupo 879893">
          <g id="Grupo_879892" data-name="Grupo 879892" clip-path="url(#clip-path-12)">
            <path id="Trazado_631872" data-name="Trazado 631872" d="M98.822,49.411A49.411,49.411,0,1,0,49.411,98.822,49.411,49.411,0,0,0,98.822,49.411" fill="#b6e1fd"/>
            <g id="Grupo_879882" data-name="Grupo 879882" opacity="0.6" style="mix-blend-mode: multiply;isolation: isolate">
              <g id="Grupo_879881" data-name="Grupo 879881">
                <g id="Grupo_879880" data-name="Grupo 879880" clip-path="url(#clip-path-13)">
                  <path id="Trazado_631873" data-name="Trazado 631873" d="M31.986,52.227l.159-3.408a.866.866,0,0,1,.028-.345,11.472,11.472,0,0,0,2.186-1.115.863.863,0,0,1,.764.137l3.038,1.553a.719.719,0,0,0,1.007-.135l2.086-2.732a.718.718,0,0,0-.135-1.007l-2.3-2.522a.853.853,0,0,1-.224-.264,11.538,11.538,0,0,0,.758-2.334.865.865,0,0,1,.636-.444l3.246-1.049a.718.718,0,0,0,.617-.808L43.4,34.347a.72.72,0,0,0-.808-.617l-3.407-.158a.866.866,0,0,1-.345-.028,11.511,11.511,0,0,0-1.115-2.187.861.861,0,0,1,.136-.763l1.554-3.038a.72.72,0,0,0-.135-1.007l-2.733-2.087a.718.718,0,0,0-1.006.135l-2.522,2.3a.845.845,0,0,1-.265.224,11.529,11.529,0,0,0-2.333-.758.862.862,0,0,1-.444-.636l-1.049-3.247a.719.719,0,0,0-.808-.616l-3.407.456a.718.718,0,0,0-.617.808l-.158,3.407a.866.866,0,0,1-.028.345,11.481,11.481,0,0,0-2.187,1.115.863.863,0,0,1-.764-.136L17.921,26.3a.719.719,0,0,0-1.007.135L14.827,29.17a.718.718,0,0,0,.135,1.007l2.3,2.522a.849.849,0,0,1,.225.265,11.529,11.529,0,0,0-.758,2.333.864.864,0,0,1-.637.444L12.843,36.79a.718.718,0,0,0-.616.808l.456,3.407a.719.719,0,0,0,.807.617l3.408.158a.86.86,0,0,1,.344.028,11.515,11.515,0,0,0,1.116,2.187.864.864,0,0,1-.137.764L16.668,47.8A.719.719,0,0,0,16.8,48.8l2.732,2.087a.719.719,0,0,0,1.007-.135l2.521-2.3a.857.857,0,0,1,.265-.224,11.539,11.539,0,0,0,2.334.758.861.861,0,0,1,.443.637l1.05,3.246a.718.718,0,0,0,.807.616l3.408-.456a.718.718,0,0,0,.616-.807m-8.842-13.9A4.941,4.941,0,1,1,28.7,42.573a4.941,4.941,0,0,1-5.553-4.241" fill="#55d6d2"/>
                </g>
              </g>
            </g>
            <g id="Grupo_879885" data-name="Grupo 879885" opacity="0.6" style="mix-blend-mode: multiply;isolation: isolate">
              <g id="Grupo_879884" data-name="Grupo 879884">
                <g id="Grupo_879883" data-name="Grupo 879883" clip-path="url(#clip-path-14)">
                  <path id="Trazado_631874" data-name="Trazado 631874" d="M70.036,88.626l.113-2.448a.605.605,0,0,1,.021-.248,8.3,8.3,0,0,0,1.571-.8.622.622,0,0,1,.549.1l2.182,1.116a.517.517,0,0,0,.724-.1l1.5-1.964a.515.515,0,0,0-.1-.723l-1.651-1.812a.621.621,0,0,1-.161-.19,8.263,8.263,0,0,0,.545-1.677.622.622,0,0,1,.457-.319l2.333-.754a.516.516,0,0,0,.443-.58l-.328-2.448a.516.516,0,0,0-.58-.443l-2.449-.114a.62.62,0,0,1-.247-.02,8.268,8.268,0,0,0-.8-1.571.621.621,0,0,1,.1-.549L75.372,70.9a.517.517,0,0,0-.1-.724l-1.964-1.5a.515.515,0,0,0-.723.1l-1.812,1.651a.621.621,0,0,1-.19.161,8.325,8.325,0,0,0-1.677-.545.617.617,0,0,1-.319-.457l-.754-2.333a.517.517,0,0,0-.58-.443l-2.449.328a.518.518,0,0,0-.443.581l-.113,2.448a.607.607,0,0,1-.021.248,8.236,8.236,0,0,0-1.571.8.622.622,0,0,1-.549-.1L59.929,70a.516.516,0,0,0-.724.1l-1.5,1.963a.516.516,0,0,0,.1.724l1.651,1.811a.624.624,0,0,1,.161.191,8.3,8.3,0,0,0-.545,1.676.619.619,0,0,1-.457.319l-2.333.754a.517.517,0,0,0-.443.58l.328,2.449a.517.517,0,0,0,.58.443l2.449.114a.618.618,0,0,1,.247.02,8.268,8.268,0,0,0,.8,1.571.621.621,0,0,1-.1.549l-1.116,2.183a.515.515,0,0,0,.1.723l1.963,1.5a.515.515,0,0,0,.723-.1l1.812-1.65a.622.622,0,0,1,.19-.162,8.262,8.262,0,0,0,1.677.545.621.621,0,0,1,.319.457l.754,2.333a.516.516,0,0,0,.58.443l2.449-.328a.517.517,0,0,0,.443-.58m-6.354-9.984a3.55,3.55,0,1,1,3.99,3.047,3.55,3.55,0,0,1-3.99-3.047" fill="#55d6d2"/>
                </g>
              </g>
            </g>
            <g id="Grupo_879888" data-name="Grupo 879888" opacity="0.6" style="mix-blend-mode: multiply;isolation: isolate">
              <g id="Grupo_879887" data-name="Grupo 879887">
                <g id="Grupo_879886" data-name="Grupo 879886" clip-path="url(#clip-path-15)">
                  <path id="Trazado_631875" data-name="Trazado 631875" d="M61.219,36.134l.152-3.263a.828.828,0,0,1,.026-.33,11,11,0,0,0,2.094-1.068.829.829,0,0,1,.732.13l2.909,1.488a.688.688,0,0,0,.964-.129l2-2.617a.687.687,0,0,0-.129-.964l-2.2-2.415a.822.822,0,0,1-.215-.253,11.062,11.062,0,0,0,.726-2.235.826.826,0,0,1,.61-.425l3.108-1a.688.688,0,0,0,.591-.773l-.437-3.263a.689.689,0,0,0-.773-.591l-3.263-.151a.833.833,0,0,1-.331-.027,10.917,10.917,0,0,0-1.068-2.094.829.829,0,0,1,.131-.732l1.487-2.909a.687.687,0,0,0-.129-.964l-2.616-2a.688.688,0,0,0-.965.129l-2.414,2.2a.826.826,0,0,1-.254.215,11.041,11.041,0,0,0-2.235-.726.825.825,0,0,1-.424-.61l-1-3.108a.689.689,0,0,0-.774-.591l-3.263.437a.688.688,0,0,0-.59.774l-.152,3.263a.812.812,0,0,1-.027.33,10.967,10.967,0,0,0-2.093,1.068.826.826,0,0,1-.732-.131l-2.909-1.487a.687.687,0,0,0-.964.129l-2,2.616a.689.689,0,0,0,.13.965l2.2,2.414a.826.826,0,0,1,.215.254,10.979,10.979,0,0,0-.726,2.235.829.829,0,0,1-.61.424l-3.109,1a.688.688,0,0,0-.59.774l.437,3.263a.688.688,0,0,0,.773.59l3.263.152a.81.81,0,0,1,.33.027,11.009,11.009,0,0,0,1.069,2.094.827.827,0,0,1-.131.731l-1.488,2.909a.688.688,0,0,0,.13.964l2.616,2a.688.688,0,0,0,.964-.129l2.415-2.2a.828.828,0,0,1,.254-.215,10.99,10.99,0,0,0,2.234.726.83.83,0,0,1,.425.61l1,3.109a.688.688,0,0,0,.773.59l3.263-.437a.688.688,0,0,0,.591-.773M52.751,22.828a4.731,4.731,0,1,1,5.318,4.061,4.731,4.731,0,0,1-5.318-4.061" fill="#55d6d2"/>
                </g>
              </g>
            </g>
            <g id="Grupo_879891" data-name="Grupo 879891" opacity="0.6" style="mix-blend-mode: multiply;isolation: isolate">
              <g id="Grupo_879890" data-name="Grupo 879890">
                <g id="Grupo_879889" data-name="Grupo 879889" clip-path="url(#clip-path-16)">
                  <path id="Trazado_631876" data-name="Trazado 631876" d="M46.866,81.549,46.98,79.1a.605.605,0,0,1,.02-.248,8.268,8.268,0,0,0,1.571-.8.622.622,0,0,1,.549.1L51.3,79.266a.517.517,0,0,0,.724-.1l1.5-1.964a.515.515,0,0,0-.1-.723l-1.65-1.812a.611.611,0,0,1-.162-.19,8.263,8.263,0,0,0,.545-1.677.622.622,0,0,1,.457-.319l2.333-.754a.516.516,0,0,0,.443-.58L55.066,68.7a.516.516,0,0,0-.58-.443l-2.449-.114a.619.619,0,0,1-.247-.02,8.277,8.277,0,0,0-.8-1.572.625.625,0,0,1,.1-.549L52.2,63.822a.517.517,0,0,0-.1-.724l-1.964-1.5a.515.515,0,0,0-.723.1l-1.812,1.651a.621.621,0,0,1-.19.161,8.325,8.325,0,0,0-1.677-.545.617.617,0,0,1-.319-.457l-.754-2.333a.517.517,0,0,0-.58-.443l-2.448.328a.516.516,0,0,0-.443.581l-.114,2.448a.624.624,0,0,1-.02.248,8.215,8.215,0,0,0-1.572.8.619.619,0,0,1-.548-.1l-2.183-1.116a.516.516,0,0,0-.724.1l-1.5,1.963a.515.515,0,0,0,.1.723l1.651,1.812a.624.624,0,0,1,.161.191,8.3,8.3,0,0,0-.545,1.676.617.617,0,0,1-.457.319l-2.333.754a.517.517,0,0,0-.443.58l.328,2.449a.517.517,0,0,0,.58.443l2.449.114a.607.607,0,0,1,.248.02,8.207,8.207,0,0,0,.8,1.571.621.621,0,0,1-.1.549l-1.116,2.182a.516.516,0,0,0,.1.724l1.963,1.5a.515.515,0,0,0,.723-.1l1.812-1.65a.614.614,0,0,1,.191-.162,8.234,8.234,0,0,0,1.676.545.619.619,0,0,1,.319.457l.754,2.333a.516.516,0,0,0,.58.443l2.449-.328a.517.517,0,0,0,.443-.58m-6.354-9.984a3.55,3.55,0,1,1,3.99,3.047,3.55,3.55,0,0,1-3.99-3.047" fill="#55d6d2"/>
                </g>
              </g>
            </g>
            <path id="Trazado_631877" data-name="Trazado 631877" d="M73.337,40.565a16.688,16.688,0,0,0-4.859.721,19.287,19.287,0,0,0-38.134,0,16.677,16.677,0,1,0-4.859,32.63H73.337a16.676,16.676,0,0,0,0-33.351" fill="#fff"/>
            <path id="Trazado_631878" data-name="Trazado 631878" d="M63.606,68.6l.125-2.694a.675.675,0,0,1,.022-.273,9.076,9.076,0,0,0,1.729-.882.686.686,0,0,1,.6.108l2.4,1.228a.568.568,0,0,0,.8-.106l1.65-2.161a.569.569,0,0,0-.107-.8L69.01,61.032a.682.682,0,0,1-.177-.21,9.046,9.046,0,0,0,.6-1.845.685.685,0,0,1,.5-.35L72.5,57.8a.569.569,0,0,0,.488-.639l-.361-2.694a.568.568,0,0,0-.639-.487L69.3,53.851a.67.67,0,0,1-.272-.022,9.106,9.106,0,0,0-.882-1.729.682.682,0,0,1,.108-.6l1.228-2.4a.569.569,0,0,0-.107-.8l-2.16-1.649a.567.567,0,0,0-.8.106l-1.994,1.817a.678.678,0,0,1-.209.177,9.148,9.148,0,0,0-1.845-.6.683.683,0,0,1-.351-.5l-.83-2.567a.569.569,0,0,0-.638-.488l-2.694.361a.569.569,0,0,0-.488.639l-.125,2.694a.686.686,0,0,1-.022.272,9.076,9.076,0,0,0-1.729.882.682.682,0,0,1-.6-.108l-2.4-1.228a.568.568,0,0,0-.8.107l-1.65,2.16a.568.568,0,0,0,.107.8l1.816,1.994a.669.669,0,0,1,.178.209,9.151,9.151,0,0,0-.6,1.845.681.681,0,0,1-.5.351l-2.567.83a.567.567,0,0,0-.487.638l.361,2.694a.567.567,0,0,0,.638.488l2.694.125a.693.693,0,0,1,.273.022,9.076,9.076,0,0,0,.882,1.729.685.685,0,0,1-.108.6l-1.228,2.4a.567.567,0,0,0,.106.8l2.161,1.65a.568.568,0,0,0,.8-.107l1.993-1.816a.672.672,0,0,1,.21-.178,9.11,9.11,0,0,0,1.845.6.678.678,0,0,1,.35.5l.83,2.567a.568.568,0,0,0,.639.487l2.694-.361a.568.568,0,0,0,.488-.638M56.614,57.615A3.907,3.907,0,1,1,61,60.968a3.908,3.908,0,0,1-4.39-3.353" fill="#fa7564"/>
            <path id="Trazado_631879" data-name="Trazado 631879" d="M39.026,43.58l1.983-.12a.51.51,0,0,1,.2,0,6.661,6.661,0,0,0,.781,1.2.5.5,0,0,1-.032.451l-.71,1.855a.419.419,0,0,0,.14.575L43.1,48.571a.419.419,0,0,0,.575-.14l1.317-1.487a.5.5,0,0,1,.14-.147,6.7,6.7,0,0,0,1.4.295.5.5,0,0,1,.3.341l.809,1.814a.418.418,0,0,0,.506.307l1.945-.476a.418.418,0,0,0,.307-.5l-.12-1.983a.51.51,0,0,1-.005-.2,6.661,6.661,0,0,0,1.2-.781.5.5,0,0,1,.451.031l1.855.711a.419.419,0,0,0,.575-.14L55.386,44.5a.419.419,0,0,0-.14-.575L53.759,42.6a.5.5,0,0,1-.147-.14,6.647,6.647,0,0,0,.294-1.4.5.5,0,0,1,.342-.3l1.814-.81a.417.417,0,0,0,.307-.5h0l-.476-1.944a.417.417,0,0,0-.505-.307l-1.983.12a.51.51,0,0,1-.2,0,6.661,6.661,0,0,0-.781-1.2.5.5,0,0,1,.031-.451l.711-1.855a.419.419,0,0,0-.14-.575l-1.712-1.039a.418.418,0,0,0-.575.141L49.42,33.84a.488.488,0,0,1-.14.146,6.775,6.775,0,0,0-1.4-.294.5.5,0,0,1-.3-.341l-.81-1.815a.418.418,0,0,0-.506-.306l-1.944.475a.418.418,0,0,0-.307.506l.12,1.983a.51.51,0,0,1,.005.2,6.661,6.661,0,0,0-1.2.781.5.5,0,0,1-.451-.032l-1.855-.71a.419.419,0,0,0-.575.14l-1.039,1.712a.418.418,0,0,0,.141.575l1.487,1.317a.51.51,0,0,1,.146.139,6.785,6.785,0,0,0-.294,1.4.5.5,0,0,1-.341.3l-1.815.81a.418.418,0,0,0-.307.5l.476,1.945a.419.419,0,0,0,.506.307m7.5-5.983a2.877,2.877,0,1,1-2.111,3.479A2.877,2.877,0,0,1,46.523,37.6" fill="#ffca00"/>
            <path id="Trazado_631880" data-name="Trazado 631880" d="M34.828,57.525l1.4-.084a.345.345,0,0,1,.143,0,4.681,4.681,0,0,0,.552.846.357.357,0,0,1-.022.319l-.5,1.311a.3.3,0,0,0,.1.407l1.21.734a.3.3,0,0,0,.406-.1l.931-1.052a.348.348,0,0,1,.1-.1,4.757,4.757,0,0,0,.988.208.358.358,0,0,1,.21.241l.572,1.283a.3.3,0,0,0,.357.217l1.375-.337a.3.3,0,0,0,.217-.357l-.085-1.4a.358.358,0,0,1,0-.142,4.776,4.776,0,0,0,.846-.553.357.357,0,0,1,.319.022l1.311.5a.3.3,0,0,0,.406-.1l.735-1.21a.3.3,0,0,0-.1-.407l-1.051-.931a.348.348,0,0,1-.1-.1,4.741,4.741,0,0,0,.207-.988.36.36,0,0,1,.242-.21l1.282-.572a.3.3,0,0,0,.217-.357l-.336-1.375a.3.3,0,0,0-.358-.217l-1.4.085a.363.363,0,0,1-.143,0,4.771,4.771,0,0,0-.552-.846.355.355,0,0,1,.022-.318l.5-1.312a.3.3,0,0,0-.1-.406l-1.21-.735a.3.3,0,0,0-.406.1l-.931,1.051a.364.364,0,0,1-.1.1,4.706,4.706,0,0,0-.988-.208.353.353,0,0,1-.21-.242l-.572-1.282a.3.3,0,0,0-.357-.217l-1.375.336a.3.3,0,0,0-.217.358l.084,1.4a.346.346,0,0,1,0,.143,4.771,4.771,0,0,0-.846.552.357.357,0,0,1-.319-.022l-1.311-.5a.3.3,0,0,0-.407.1l-.734,1.21a.3.3,0,0,0,.1.406l1.051.931a.348.348,0,0,1,.1.1,4.766,4.766,0,0,0-.208.989.355.355,0,0,1-.241.209l-1.283.572a.3.3,0,0,0-.216.358l.336,1.374a.3.3,0,0,0,.357.217m5.3-4.229a2.034,2.034,0,1,1-1.492,2.459A2.034,2.034,0,0,1,40.128,53.3" fill="#025a82"/>
          </g>
        </g>
      </g>
    </g>
  </g>
</svg>
