<svg id="Grupo_879711" data-name="Grupo 879711" xmlns="http://www.w3.org/2000/svg" xmlns:xlink="http://www.w3.org/1999/xlink" width="503.978" height="286.566" viewBox="0 0 503.978 286.566">
  <defs>
    <clipPath id="clip-path">
      <rect id="Rectángulo_329078" data-name="Rectángulo 329078" width="503.978" height="286.566" fill="none"/>
    </clipPath>
    <clipPath id="clip-path-5">
      <rect id="Rectángulo_329063" data-name="Rectángulo 329063" width="32.762" height="39.917" fill="none"/>
    </clipPath>
    <clipPath id="clip-path-8">
      <rect id="Rectángulo_329070" data-name="Rectángulo 329070" width="16.366" height="34.719" fill="none"/>
    </clipPath>
    <clipPath id="clip-path-9">
      <rect id="Rectángulo_329071" data-name="Rectángulo 329071" width="22.471" height="39.686" fill="none"/>
    </clipPath>
    <clipPath id="clip-path-10">
      <rect id="Rectángulo_329072" data-name="Rectángulo 329072" width="16.349" height="26.54" fill="none"/>
    </clipPath>
    <clipPath id="clip-path-11">
      <rect id="Rectángulo_329073" data-name="Rectángulo 329073" width="16.932" height="30.5" fill="none"/>
    </clipPath>
    <clipPath id="clip-path-12">
      <rect id="Rectángulo_329074" data-name="Rectángulo 329074" width="24.974" height="11.068" fill="none"/>
    </clipPath>
    <clipPath id="clip-path-13">
      <rect id="Rectángulo_329075" data-name="Rectángulo 329075" width="23.728" height="11.786" fill="none"/>
    </clipPath>
  </defs>
  <g id="Grupo_879710" data-name="Grupo 879710" clip-path="url(#clip-path)">
    <g id="Grupo_879678" data-name="Grupo 879678">
      <g id="Grupo_879677" data-name="Grupo 879677" clip-path="url(#clip-path)">
        <path id="Trazado_630633" data-name="Trazado 630633" d="M560.951,157.119h101.8l-16.584,11.967V192.63a4.916,4.916,0,0,1-4.916,4.917h-80.3a4.917,4.917,0,0,1-4.916-4.917V162.035a4.916,4.916,0,0,1,4.916-4.916" transform="translate(-158.777 -44.866)" fill="#f5f5f5"/>
        <path id="Trazado_630634" data-name="Trazado 630634" d="M568.86,180.337c0,.1,15.354.178,34.29.178s34.293-.08,34.293-.178-15.351-.178-34.293-.178-34.29.08-34.29.178" transform="translate(-162.44 -51.445)" fill="#e0e0e0"/>
        <path id="Trazado_630635" data-name="Trazado 630635" d="M568.86,192.99c0,.1,15.354.178,34.29.178s34.293-.08,34.293-.178-15.351-.178-34.293-.178-34.29.08-34.29.178" transform="translate(-162.44 -55.058)" fill="#e0e0e0"/>
        <rect id="Rectángulo_329040" data-name="Rectángulo 329040" width="4.764" height="15.959" transform="translate(242.795 25.377)" fill="#e0e0e0"/>
        <rect id="Rectángulo_329041" data-name="Rectángulo 329041" width="4.764" height="18.271" transform="translate(203.002 23.064)" fill="#e0e0e0"/>
        <rect id="Rectángulo_329042" data-name="Rectángulo 329042" width="4.764" height="22.079" transform="translate(212.951 19.256)" fill="#e0e0e0"/>
        <rect id="Rectángulo_329043" data-name="Rectángulo 329043" width="4.764" height="20.868" transform="translate(222.899 20.467)" fill="#e0e0e0"/>
        <rect id="Rectángulo_329044" data-name="Rectángulo 329044" width="4.764" height="27.927" transform="translate(232.847 13.408)" fill="#e0e0e0"/>
        <rect id="Rectángulo_329045" data-name="Rectángulo 329045" width="4.764" height="27.791" transform="translate(252.744 13.544)" fill="#e0e0e0"/>
        <rect id="Rectángulo_329046" data-name="Rectángulo 329046" width="4.764" height="18.663" transform="translate(262.692 22.672)" fill="#e0e0e0"/>
        <rect id="Rectángulo_329047" data-name="Rectángulo 329047" width="4.764" height="26.567" transform="translate(272.64 14.768)" fill="#e0e0e0"/>
        <rect id="Rectángulo_329048" data-name="Rectángulo 329048" width="4.764" height="32.552" transform="translate(282.588 8.783)" fill="#e0e0e0"/>
        <rect id="Rectángulo_329049" data-name="Rectángulo 329049" width="4.764" height="26.703" transform="translate(292.536 14.633)" fill="#e0e0e0"/>
        <path id="Trazado_630636" data-name="Trazado 630636" d="M575.9,39.855l39.4-6.02A39.855,39.855,0,1,1,580.273.241Z" transform="translate(-153.069 0)" fill="#ebebeb"/>
        <path id="Trazado_630637" data-name="Trazado 630637" d="M607.807.513l-4.783,30.54L633,25.424S628.594,8.308,607.807.513" transform="translate(-172.195 -0.146)" fill="#e0e0e0"/>
        <path id="Trazado_630638" data-name="Trazado 630638" d="M28.746,151.514a19.536,19.536,0,1,1,19.847,19.308,19.607,19.607,0,0,1-19.847-19.308m28.872-.466a9.341,9.341,0,1,0-9.189,9.534,9.372,9.372,0,0,0,9.189-9.534" transform="translate(-8.208 -37.571)" fill="#f5f5f5"/>
        <path id="Trazado_630639" data-name="Trazado 630639" d="M28.746,151.515a19.606,19.606,0,0,1,19.219-19.938l.164,10.24a9.384,9.384,0,0,0,.3,18.765l.164,10.24a19.6,19.6,0,0,1-19.847-19.307" transform="translate(-8.208 -37.572)" fill="#e0e0e0"/>
        <path id="Trazado_630640" data-name="Trazado 630640" d="M53.193,129.371a22.32,22.32,0,0,1,22.854,22.234l-11.925.192c-.1-6.052-4.7-9.863-10.727-9.766Z" transform="translate(-15.189 -36.941)" fill="#ebebeb"/>
        <rect id="Rectángulo_329050" data-name="Rectángulo 329050" width="24.831" height="29.52" transform="translate(122.622 182.845)" fill="#f5f5f5"/>
        <rect id="Rectángulo_329051" data-name="Rectángulo 329051" width="112.215" height="33.3" transform="translate(11.262 180.92)" fill="#e0e0e0"/>
        <path id="Trazado_630641" data-name="Trazado 630641" d="M196.354,256.032H168.618v-2.8h27.736a1.4,1.4,0,1,1,0,2.8" transform="translate(-48.149 -72.311)" fill="#e0e0e0"/>
        <path id="Trazado_630642" data-name="Trazado 630642" d="M196.354,298.722H168.618v-2.8h27.736a1.4,1.4,0,1,1,0,2.8" transform="translate(-48.149 -84.501)" fill="#e0e0e0"/>
        <rect id="Rectángulo_329052" data-name="Rectángulo 329052" width="13.257" height="33.3" transform="translate(101.396 180.92)" fill="#ebebeb"/>
        <rect id="Rectángulo_329053" data-name="Rectángulo 329053" width="13.258" height="33.3" transform="translate(21.934 181.289)" fill="#ebebeb"/>
        <path id="Trazado_630643" data-name="Trazado 630643" d="M196.793,262.7c0,.081-5.374.147-12,.147s-12-.066-12-.147,5.373-.147,12-.147,12,.066,12,.147" transform="translate(-49.34 -74.973)" fill="#e0e0e0"/>
        <path id="Trazado_630644" data-name="Trazado 630644" d="M196.793,268.9c0,.081-5.374.147-12,.147s-12-.066-12-.147,5.373-.147,12-.147,12,.066,12,.147" transform="translate(-49.34 -76.742)" fill="#e0e0e0"/>
        <path id="Trazado_630645" data-name="Trazado 630645" d="M196.793,276.525c0,.081-5.374.147-12,.147s-12-.066-12-.147,5.373-.148,12-.148,12,.066,12,.148" transform="translate(-49.34 -78.92)" fill="#e0e0e0"/>
        <path id="Trazado_630646" data-name="Trazado 630646" d="M196.793,284.154c0,.081-5.374.147-12,.147s-12-.066-12-.147,5.373-.147,12-.147,12,.066,12,.147" transform="translate(-49.34 -81.099)" fill="#e0e0e0"/>
        <path id="Trazado_630647" data-name="Trazado 630647" d="M196.793,291.783c0,.081-5.374.147-12,.147s-12-.066-12-.147,5.373-.147,12-.147,12,.066,12,.147" transform="translate(-49.34 -83.277)" fill="#e0e0e0"/>
        <rect id="Rectángulo_329054" data-name="Rectángulo 329054" width="50.484" height="5.996" transform="translate(43.785 194.606)" fill="#ebebeb"/>
        <rect id="Rectángulo_329055" data-name="Rectángulo 329055" width="25.211" height="17.987" transform="translate(121.988 214.873)" fill="#fafafa"/>
        <rect id="Rectángulo_329056" data-name="Rectángulo 329056" width="107.293" height="19.292" transform="translate(14.978 214.221)" fill="#f5f5f5"/>
        <path id="Trazado_630648" data-name="Trazado 630648" d="M170.048,301.146h27.1a.653.653,0,0,0,0-1.305h-27.1Z" transform="translate(-48.558 -85.62)" fill="#f5f5f5"/>
        <path id="Trazado_630649" data-name="Trazado 630649" d="M170.048,326.322H197.5a.3.3,0,0,0,.3-.3v-.707a.3.3,0,0,0-.3-.3H170.048Z" transform="translate(-48.558 -92.809)" fill="#f5f5f5"/>
        <path id="Trazado_630650" data-name="Trazado 630650" d="M196.069,305.478c0,.081-5.581.148-12.464.148s-12.465-.066-12.465-.148,5.58-.147,12.465-.147,12.464.066,12.464.147" transform="translate(-48.869 -87.188)" fill="#e0e0e0"/>
        <path id="Trazado_630651" data-name="Trazado 630651" d="M196.069,310.241c0,.081-5.581.148-12.464.148s-12.465-.066-12.465-.148,5.58-.147,12.465-.147,12.464.066,12.464.147" transform="translate(-48.869 -88.548)" fill="#e0e0e0"/>
        <path id="Trazado_630652" data-name="Trazado 630652" d="M196.069,315c0,.081-5.581.147-12.464.147s-12.465-.066-12.465-.147,5.58-.147,12.465-.147,12.464.066,12.464.147" transform="translate(-48.869 -89.908)" fill="#e0e0e0"/>
        <path id="Trazado_630653" data-name="Trazado 630653" d="M196.069,319.767c0,.081-5.581.147-12.464.147s-12.465-.066-12.465-.147,5.58-.147,12.465-.147,12.464.066,12.464.147" transform="translate(-48.869 -91.268)" fill="#e0e0e0"/>
        <rect id="Rectángulo_329057" data-name="Rectángulo 329057" width="25.733" height="48.759" transform="translate(125.291 235.227)" fill="#ebebeb"/>
        <rect id="Rectángulo_329058" data-name="Rectángulo 329058" width="120.792" height="52.868" transform="translate(4.5 233.513)" fill="#e0e0e0"/>
        <path id="Trazado_630654" data-name="Trazado 630654" d="M201.795,399.472h-31.05v-3.429h31.05a1.714,1.714,0,1,1,0,3.429" transform="translate(-48.757 -113.091)" fill="#e0e0e0"/>
        <path id="Trazado_630655" data-name="Trazado 630655" d="M202.723,330.273H170.746v-3.429h31.977a.787.787,0,0,1,.787.787v1.855a.787.787,0,0,1-.787.787" transform="translate(-48.757 -93.331)" fill="#e0e0e0"/>
        <path id="Trazado_630656" data-name="Trazado 630656" d="M201.1,338.333c0,.081-5.761.147-12.866.147s-12.867-.066-12.867-.147,5.76-.147,12.867-.147,12.866.066,12.866.147" transform="translate(-50.077 -96.57)" fill="#e0e0e0"/>
        <path id="Trazado_630657" data-name="Trazado 630657" d="M201.1,347.086c0,.081-5.761.147-12.866.147s-12.867-.066-12.867-.147,5.76-.147,12.867-.147,12.866.066,12.866.147" transform="translate(-50.077 -99.069)" fill="#e0e0e0"/>
        <path id="Trazado_630658" data-name="Trazado 630658" d="M201.1,355.839c0,.081-5.761.147-12.866.147s-12.867-.066-12.867-.147,5.76-.147,12.867-.147,12.866.066,12.866.147" transform="translate(-50.077 -101.569)" fill="#e0e0e0"/>
        <path id="Trazado_630659" data-name="Trazado 630659" d="M201.1,364.592c0,.081-5.761.148-12.866.148s-12.867-.066-12.867-.148,5.76-.147,12.867-.147,12.866.066,12.866.147" transform="translate(-50.077 -104.068)" fill="#e0e0e0"/>
        <path id="Trazado_630660" data-name="Trazado 630660" d="M201.1,373.345c0,.081-5.761.147-12.866.147s-12.867-.066-12.867-.147,5.76-.147,12.867-.147,12.866.066,12.866.147" transform="translate(-50.077 -106.568)" fill="#e0e0e0"/>
        <path id="Trazado_630661" data-name="Trazado 630661" d="M201.1,382.1c0,.081-5.761.147-12.866.147s-12.867-.066-12.867-.147,5.76-.147,12.867-.147,12.866.066,12.866.147" transform="translate(-50.077 -109.067)" fill="#e0e0e0"/>
        <path id="Trazado_630662" data-name="Trazado 630662" d="M201.1,390.852c0,.081-5.761.147-12.866.147s-12.867-.066-12.867-.147,5.76-.147,12.867-.147,12.866.066,12.866.147" transform="translate(-50.077 -111.567)" fill="#e0e0e0"/>
        <path id="Trazado_630663" data-name="Trazado 630663" d="M60,362.241v2.941c0,3.543-1.771,5.567-5.188,5.567s-5.187-2.024-5.187-5.567V353.669c0-3.542,1.771-5.567,5.187-5.567S60,350.127,60,353.669v2.151H56.715v-2.373c0-1.581-.7-2.182-1.8-2.182s-1.8.6-1.8,2.182V365.4c0,1.582.7,2.151,1.8,2.151s1.8-.569,1.8-2.151v-3.163Z" transform="translate(-14.172 -99.401)" fill="#ebebeb"/>
        <path id="Trazado_630664" data-name="Trazado 630664" d="M66.715,353.669c0-3.543,1.866-5.567,5.282-5.567s5.283,2.024,5.283,5.567v11.513c0,3.543-1.866,5.567-5.283,5.567s-5.282-2.024-5.282-5.567ZM70.194,365.4c0,1.582.7,2.183,1.8,2.183s1.8-.6,1.8-2.183V353.447c0-1.582-.7-2.183-1.8-2.183s-1.8.6-1.8,2.183Z" transform="translate(-19.051 -99.401)" fill="#ebebeb"/>
        <path id="Trazado_630665" data-name="Trazado 630665" d="M84.642,348.457h3.479v18.979h5.725V370.6h-9.2Z" transform="translate(-24.17 -99.503)" fill="#ebebeb"/>
        <path id="Trazado_630666" data-name="Trazado 630666" d="M99.248,353.669c0-3.543,1.866-5.567,5.283-5.567s5.282,2.024,5.282,5.567v11.513c0,3.543-1.866,5.567-5.282,5.567s-5.283-2.024-5.283-5.567Zm3.479,11.735c0,1.582.7,2.183,1.8,2.183s1.8-.6,1.8-2.183V353.447c0-1.582-.7-2.183-1.8-2.183s-1.8.6-1.8,2.183Z" transform="translate(-28.341 -99.401)" fill="#ebebeb"/>
        <path id="Trazado_630667" data-name="Trazado 630667" d="M120.433,348.457v17.08c0,1.582.7,2.151,1.8,2.151s1.8-.569,1.8-2.151v-17.08h3.29v16.859c0,3.543-1.772,5.567-5.188,5.567s-5.188-2.024-5.188-5.567V348.457Z" transform="translate(-33.397 -99.503)" fill="#ebebeb"/>
        <path id="Trazado_630668" data-name="Trazado 630668" d="M142.067,370.6a6.8,6.8,0,0,1-.316-2.721V364.4c0-2.056-.7-2.815-2.278-2.815h-1.2V370.6h-3.479V348.457h5.25c3.606,0,5.156,1.676,5.156,5.093v1.74c0,2.277-.728,3.764-2.278,4.491,1.74.728,2.309,2.4,2.309,4.713v3.416a6.522,6.522,0,0,0,.379,2.689Zm-3.8-18.979v6.8h1.36c1.3,0,2.088-.569,2.088-2.341V353.9c0-1.582-.538-2.278-1.772-2.278Z" transform="translate(-38.49 -99.503)" fill="#ebebeb"/>
        <path id="Trazado_630669" data-name="Trazado 630669" d="M62.084,310.214H59.546l.134-.657H65.5l-.144.657H62.833l-1.3,6.532h-.749Z" transform="translate(-17.004 -88.395)" fill="#e0e0e0"/>
        <path id="Trazado_630670" data-name="Trazado 630670" d="M71.855,312.057l-3.944,6.1c-.667,1.027-1.171,1.345-1.951,1.345a1.751,1.751,0,0,1-1.284-.482l.39-.534a1.262,1.262,0,0,0,.955.39c.462,0,.822-.216,1.243-.873l.38-.574L66.3,312.057h.739l1.12,4.6,2.948-4.6Z" transform="translate(-18.468 -89.109)" fill="#e0e0e0"/>
        <path id="Trazado_630671" data-name="Trazado 630671" d="M80.548,314.281a3.044,3.044,0,0,1-3.061,3.214,2.021,2.021,0,0,1-2.055-1.182l-.616,3.124h-.73l1.47-7.4h.7l-.174.863a2.736,2.736,0,0,1,2.106-.9,2.184,2.184,0,0,1,2.362,2.28m-.739.041a1.582,1.582,0,0,0-1.778-1.685,2.358,2.358,0,0,0-2.331,2.536,1.575,1.575,0,0,0,1.777,1.675,2.355,2.355,0,0,0,2.332-2.526" transform="translate(-21.156 -89.093)" fill="#e0e0e0"/>
        <path id="Trazado_630672" data-name="Trazado 630672" d="M84.32,315.205a3.065,3.065,0,0,1,3.122-3.2,2.212,2.212,0,0,1,2.455,2.28,3.068,3.068,0,0,1-3.122,3.214,2.225,2.225,0,0,1-2.455-2.29m4.848-.883a1.582,1.582,0,0,0-1.777-1.685,2.372,2.372,0,0,0-2.342,2.536,1.575,1.575,0,0,0,1.777,1.675,2.363,2.363,0,0,0,2.342-2.526" transform="translate(-24.078 -89.093)" fill="#e0e0e0"/>
        <path id="Trazado_630673" data-name="Trazado 630673" d="M99.317,312.04l-.945,4.746c-.38,1.91-1.387,2.7-3.143,2.7a3.427,3.427,0,0,1-2.4-.812l.432-.554a2.825,2.825,0,0,0,2.023.719,2.114,2.114,0,0,0,2.341-1.93l.124-.6a2.8,2.8,0,0,1-2.158.926,2.141,2.141,0,0,1-2.383-2.179A2.984,2.984,0,0,1,96.287,312a2.07,2.07,0,0,1,2.105,1.232l.226-1.192Zm-1.232,2.168c0-.986-.668-1.57-1.788-1.57a2.29,2.29,0,0,0-2.352,2.382c0,.986.657,1.572,1.787,1.572a2.3,2.3,0,0,0,2.353-2.383" transform="translate(-26.507 -89.093)" fill="#e0e0e0"/>
        <path id="Trazado_630674" data-name="Trazado 630674" d="M107.059,312l-.134.708c-.072,0-.124-.011-.206-.011a2.138,2.138,0,0,0-2.188,2l-.544,2.743h-.729l1.068-5.4h.7l-.185.986A2.444,2.444,0,0,1,107.059,312" transform="translate(-29.486 -89.093)" fill="#e0e0e0"/>
        <path id="Trazado_630675" data-name="Trazado 630675" d="M114.822,312.041l-1.078,5.4h-.7l.174-.852a2.767,2.767,0,0,1-2.105.9,2.178,2.178,0,0,1-2.352-2.29,3.038,3.038,0,0,1,3.051-3.2,2.028,2.028,0,0,1,2.054,1.17l.226-1.13Zm-1.212,2.281a1.582,1.582,0,0,0-1.777-1.685,2.372,2.372,0,0,0-2.342,2.536,1.575,1.575,0,0,0,1.777,1.675,2.363,2.363,0,0,0,2.342-2.526" transform="translate(-31.057 -89.093)" fill="#e0e0e0"/>
        <path id="Trazado_630676" data-name="Trazado 630676" d="M124.476,314.281a3.044,3.044,0,0,1-3.061,3.214,2.021,2.021,0,0,1-2.055-1.182l-.616,3.124h-.729l1.469-7.4h.7l-.174.863a2.736,2.736,0,0,1,2.106-.9,2.184,2.184,0,0,1,2.362,2.28m-.739.041a1.582,1.582,0,0,0-1.777-1.685,2.358,2.358,0,0,0-2.332,2.536,1.575,1.575,0,0,0,1.777,1.675,2.355,2.355,0,0,0,2.332-2.526" transform="translate(-33.7 -89.093)" fill="#e0e0e0"/>
        <path id="Trazado_630677" data-name="Trazado 630677" d="M133.958,312.886a3.266,3.266,0,0,1-.062.616l-.616,3.071h-.729l.617-3.082a2.945,2.945,0,0,0,.051-.492c0-.77-.462-1.212-1.4-1.212a2.106,2.106,0,0,0-2.2,1.89l-.574,2.9h-.729l1.52-7.622h.729l-.606,3.03a2.634,2.634,0,0,1,2.065-.852,1.694,1.694,0,0,1,1.931,1.756" transform="translate(-36.642 -88.222)" fill="#e0e0e0"/>
        <path id="Trazado_630678" data-name="Trazado 630678" d="M142.9,312.057l-3.944,6.1c-.667,1.027-1.171,1.345-1.951,1.345a1.751,1.751,0,0,1-1.284-.482l.39-.534a1.262,1.262,0,0,0,.955.39c.462,0,.822-.216,1.243-.873l.38-.574-1.346-5.373h.739l1.12,4.6,2.948-4.6Z" transform="translate(-38.755 -89.109)" fill="#e0e0e0"/>
        <path id="Trazado_630679" data-name="Trazado 630679" d="M124.747,1.277H15.159L33.01,14.159V39.5A5.292,5.292,0,0,0,38.3,44.8h86.444a5.292,5.292,0,0,0,5.293-5.292V6.569a5.292,5.292,0,0,0-5.293-5.292" transform="translate(-4.329 -0.365)" fill="#f5f5f5"/>
        <path id="Trazado_630680" data-name="Trazado 630680" d="M132.641,26.27c0,.106-16.528.191-36.912.191s-36.915-.086-36.915-.191,16.524-.191,36.915-.191,36.912.086,36.912.191" transform="translate(-16.794 -7.447)" fill="#e0e0e0"/>
        <path id="Trazado_630681" data-name="Trazado 630681" d="M132.641,39.89c0,.106-16.528.191-36.912.191S58.814,40,58.814,39.89,75.338,39.7,95.729,39.7s36.912.086,36.912.191" transform="translate(-16.794 -11.336)" fill="#e0e0e0"/>
      </g>
    </g>
    <g id="Grupo_879680" data-name="Grupo 879680">
      <g id="Grupo_879679" data-name="Grupo 879679" clip-path="url(#clip-path)">
        <path id="Trazado_630682" data-name="Trazado 630682" d="M500.495,400.768c0,.1-112.049.186-250.235.186C112.025,400.954,0,400.871,0,400.768s112.025-.186,250.259-.186c138.186,0,250.235.083,250.235.186" transform="translate(0 -114.387)" fill="#263238"/>
      </g>
    </g>
    <g id="Grupo_879685" data-name="Grupo 879685">
      <g id="Grupo_879684" data-name="Grupo 879684" clip-path="url(#clip-path)">
        <path id="Trazado_630683" data-name="Trazado 630683" d="M622.469,324.631s-18.939-21.8-26.084-43.593-3.752-19.3-3.752-19.3,9.648,21.173,16.973,31.4,20.367,25.236,20.367,25.236Z" transform="translate(-168.998 -74.716)" fill="#617a0b"/>
        <path id="Trazado_630684" data-name="Trazado 630684" d="M639.172,266.3a1.1,1.1,0,0,0-2.054.7c1.155,7.657,3.65,25.624,3.552,37.277-.127,15.138.005,20.99.005,20.99h7.882s-1.4-31.294-3.181-40.835c-1.249-6.69-3.9-14.117-6.205-18.133" transform="translate(-181.927 -75.882)" fill="#617a0b"/>
        <path id="Trazado_630685" data-name="Trazado 630685" d="M646.013,321.649a83.484,83.484,0,0,0,6.488-23.535c.649-5.573-.509-13.1-2.231-23.152a62.289,62.289,0,0,1-1-11.14,1.88,1.88,0,0,1,3.531-.882c.952,1.7,3.7,7.5,4.4,11.132,1.908,9.922,4.071,14.883,2.417,24.3s-7.76,23.915-7.76,23.915Z" transform="translate(-184.471 -74.803)" fill="#617a0b"/>
        <path id="Trazado_630686" data-name="Trazado 630686" d="M655.951,317.463s20.793-44.686,22.234-51.314,6.341-21.906,6.918-21.041,1.441,8.935-2.306,18.158-19.746,55.559-19.746,55.559h-7.1" transform="translate(-187.309 -69.981)" fill="#617a0b"/>
        <path id="Trazado_630687" data-name="Trazado 630687" d="M628.365,320.434a4.224,4.224,0,0,1-.583-.4c-.369-.28-.93-.673-1.61-1.23a73.541,73.541,0,0,1-5.588-4.933A93.78,93.78,0,0,1,605.5,294.509,126.822,126.822,0,0,1,595.2,272.2c-1.046-2.968-1.809-5.4-2.3-7.084-.254-.842-.429-1.5-.552-1.949a4.19,4.19,0,0,1-.161-.689,4.309,4.309,0,0,1,.246.663l.632,1.923c.545,1.67,1.352,4.082,2.434,7.029a134.838,134.838,0,0,0,10.384,22.186A97.888,97.888,0,0,0,620.8,313.648c2.225,2.212,4.13,3.9,5.478,5.023.663.577,1.205.991,1.556,1.293a4.2,4.2,0,0,1,.528.471" transform="translate(-169.099 -74.952)" fill="#263238"/>
        <path id="Trazado_630688" data-name="Trazado 630688" d="M643.878,300.336a7.518,7.518,0,0,1-.186-1.311c-.1-.925-.228-2.13-.383-3.582-.329-3.023-.843-7.192-1.578-11.772s-1.557-8.7-2.192-11.675c-.308-1.427-.563-2.612-.759-3.522a7.61,7.61,0,0,1-.234-1.3,7.465,7.465,0,0,1,.4,1.262c.233.819.542,2.013.9,3.493.714,2.961,1.585,7.082,2.324,11.674s1.2,8.777,1.452,11.813c.126,1.518.207,2.748.243,3.6a7.489,7.489,0,0,1,.014,1.325" transform="translate(-182.337 -76.291)" fill="#263238"/>
        <path id="Trazado_630689" data-name="Trazado 630689" d="M651.979,262.841a3.2,3.2,0,0,1,.246.568c.158.42.364.972.623,1.66.275.72.592,1.608.892,2.661s.709,2.232,1.011,3.578q.247,1.005.515,2.1c.174.732.3,1.505.457,2.3.339,1.587.549,3.307.8,5.113a76.336,76.336,0,0,1-.847,23.621c-.381,1.783-.713,3.484-1.165,5.043-.216.782-.394,1.545-.622,2.262s-.452,1.4-.664,2.059c-.4,1.32-.881,2.471-1.265,3.5s-.755,1.891-1.08,2.59l-.741,1.611a3.293,3.293,0,0,1-.285.549,3.2,3.2,0,0,1,.2-.586l.663-1.642c.3-.707.655-1.577,1.007-2.61s.822-2.183,1.2-3.505l.634-2.058c.217-.717.387-1.478.594-2.258.434-1.555.752-3.251,1.12-5.026a78.879,78.879,0,0,0,.842-23.5c-.24-1.8-.435-3.511-.757-5.093-.151-.792-.265-1.564-.43-2.295s-.33-1.429-.485-2.1c-.28-1.345-.658-2.529-.944-3.582s-.569-1.949-.818-2.676l-.544-1.685a3.251,3.251,0,0,1-.161-.6" transform="translate(-185.568 -75.055)" fill="#263238"/>
        <path id="Trazado_630690" data-name="Trazado 630690" d="M686.223,246.378a.687.687,0,0,1-.016.2c-.025.156-.055.347-.092.58-.091.509-.206,1.263-.41,2.224-.4,1.923-1.07,4.689-2.11,8.045s-2.456,7.293-4.141,11.617-3.626,9.039-5.473,14.057c-1.875,5.009-3.319,9.9-4.675,14.335s-2.621,8.425-3.854,11.715a74.661,74.661,0,0,1-3.283,7.641c-.425.886-.809,1.546-1.056,2l-.291.511a.7.7,0,0,1-.112.167.663.663,0,0,1,.072-.189l.252-.531c.221-.467.579-1.139.979-2.033.837-1.771,1.965-4.375,3.144-7.675s2.433-7.28,3.756-11.725,2.771-9.346,4.65-14.37c1.85-5.029,3.812-9.738,5.509-14.052s3.151-8.226,4.222-11.562,1.789-6.081,2.241-7.987c.229-.953.371-1.7.491-2.2l.135-.572a.688.688,0,0,1,.061-.192" transform="translate(-188.667 -70.354)" fill="#263238"/>
        <path id="Trazado_630691" data-name="Trazado 630691" d="M605.464,232.355a1.79,1.79,0,0,0-2.947,1.825,51.158,51.158,0,0,0,2.613,6.719c2.858,6.075,11.255,27.872,15.186,39.842s9.469,34.3,9.469,34.3l8.393-1.362S630.5,276.99,623,263.768c-6.029-10.622-12.058-25.974-17.532-31.413" transform="translate(-172.026 -66.202)" fill="#617a0b"/>
        <path id="Trazado_630692" data-name="Trazado 630692" d="M630.677,310.767a5.181,5.181,0,0,1,.432,1.006c.249.658.587,1.619.968,2.818.773,2.395,1.719,5.739,2.672,9.454s1.742,7.1,2.295,9.549l.631,2.909a5.106,5.106,0,0,1,.174,1.081,5.268,5.268,0,0,1-.341-1.04l-.769-2.875c-.642-2.525-1.486-5.843-2.419-9.514-.952-3.711-1.848-7.061-2.543-9.473-.331-1.138-.609-2.095-.831-2.854a5.183,5.183,0,0,1-.269-1.061" transform="translate(-180.09 -88.74)" fill="#263238"/>
        <path id="Trazado_630693" data-name="Trazado 630693" d="M634.389,314.515a.859.859,0,0,1-.047-.224c-.026-.174-.057-.392-.1-.661-.088-.581-.166-1.442-.344-2.542-.308-2.2-.858-5.383-1.76-9.259a132.51,132.51,0,0,0-3.929-13.409c-1.722-4.973-3.882-10.346-6.328-15.906-4.938-11.108-9.871-20.961-13.113-28.247-1.638-3.634-2.907-6.6-3.742-8.668-.426-1.03-.731-1.84-.944-2.388l-.233-.626a.868.868,0,0,1-.065-.219.9.9,0,0,1,.107.2l.274.609c.247.569.588,1.357,1.02,2.354.884,2.045,2.195,4.99,3.869,8.605,3.312,7.246,8.288,17.072,13.233,28.2,2.451,5.569,4.6,10.959,6.309,15.952a125.927,125.927,0,0,1,3.848,13.473,93.741,93.741,0,0,1,1.625,9.306c.151,1.105.2,1.971.261,2.556.021.271.038.49.052.665a.883.883,0,0,1,0,.229" transform="translate(-172.413 -66.353)" fill="#263238"/>
        <path id="Trazado_630694" data-name="Trazado 630694" d="M648.792,332.3a8.784,8.784,0,0,1-.283-1.41l-.654-3.859c-.579-3.252-1.461-7.731-2.731-12.606s-2.673-9.221-3.762-12.339c-.535-1.5-.977-2.746-1.313-3.687a9.015,9.015,0,0,1-.446-1.367,8.847,8.847,0,0,1,.608,1.3c.362.852.867,2.093,1.447,3.643a121.917,121.917,0,0,1,3.9,12.334,128.435,128.435,0,0,1,2.611,12.666c.239,1.638.422,2.965.515,3.886a8.973,8.973,0,0,1,.111,1.435" transform="translate(-182.639 -84.818)" fill="#263238"/>
        <rect id="Rectángulo_329061" data-name="Rectángulo 329061" width="32.762" height="39.918" transform="translate(450.618 246.276)" fill="#eb6f2d"/>
        <g id="Grupo_879683" data-name="Grupo 879683" transform="translate(450.25 246.276)" opacity="0.3">
          <g id="Grupo_879682" data-name="Grupo 879682">
            <g id="Grupo_879681" data-name="Grupo 879681" clip-path="url(#clip-path-5)">
              <rect id="Rectángulo_329062" data-name="Rectángulo 329062" width="32.762" height="39.918" transform="translate(0 0)"/>
            </g>
          </g>
        </g>
        <rect id="Rectángulo_329064" data-name="Rectángulo 329064" width="29.067" height="39.918" transform="translate(443.862 246.276)" fill="#eb6f2d"/>
        <path id="Trazado_630695" data-name="Trazado 630695" d="M55.278,324.209a17.275,17.275,0,0,0-18.747.154c-5.157,3.605-7.775,10.165-7.547,16.452s3.275,13.97,8.971,17.273l16.72-.066a22.466,22.466,0,0,0,9.2-16.873,19.518,19.518,0,0,0-8.6-16.941" transform="translate(-8.272 -91.811)" fill="#617a0b"/>
        <path id="Trazado_630696" data-name="Trazado 630696" d="M53.618,358.938a7.536,7.536,0,0,1-.105-1.439c-.029-1.028-.066-2.345-.111-3.922-.084-3.311-.215-7.883-.436-12.93s-.5-9.615-.7-12.921c-.094-1.575-.173-2.889-.234-3.916a7.451,7.451,0,0,1-.021-1.442,7.506,7.506,0,0,1,.228,1.424c.114.92.252,2.255.4,3.905.3,3.3.635,7.87.858,12.926s.292,9.634.28,12.949c-.005,1.658-.026,3-.059,3.926a7.427,7.427,0,0,1-.1,1.439" transform="translate(-14.845 -92.053)" fill="#263238"/>
        <path id="Trazado_630697" data-name="Trazado 630697" d="M29.743,346.343c-.012.147-.92.192-2.029.1s-2-.284-1.985-.431.92-.192,2.029-.1,2,.284,1.985.431" transform="translate(-7.347 -98.763)" fill="#263238"/>
        <path id="Trazado_630698" data-name="Trazado 630698" d="M30.47,338.041c-.06.135-.844-.082-1.75-.484s-1.593-.837-1.533-.972.843.082,1.75.484,1.594.838,1.534.972" transform="translate(-7.762 -96.101)" fill="#263238"/>
        <path id="Trazado_630699" data-name="Trazado 630699" d="M34.54,331.7c-.076.123-.957-.292-1.873-1.052S31.176,329.1,31.283,329s.836.5,1.725,1.232,1.613,1.337,1.532,1.464" transform="translate(-8.929 -93.943)" fill="#263238"/>
        <path id="Trazado_630700" data-name="Trazado 630700" d="M39.358,325.982c-.135.059-.557-.6-.943-1.473s-.589-1.63-.454-1.69.557.6.943,1.474.589,1.63.454,1.689" transform="translate(-10.828 -92.181)" fill="#263238"/>
        <path id="Trazado_630701" data-name="Trazado 630701" d="M45.881,321.945c-.131.061-.586-.641-.887-1.615s-.328-1.809-.185-1.833.4.738.694,1.674.514,1.711.378,1.773" transform="translate(-12.771 -90.948)" fill="#263238"/>
        <path id="Trazado_630702" data-name="Trazado 630702" d="M56.661,318.9c.139.049.054.649-.189,1.34s-.554,1.21-.694,1.162-.054-.649.19-1.34.554-1.211.693-1.162" transform="translate(-15.909 -91.061)" fill="#263238"/>
        <path id="Trazado_630703" data-name="Trazado 630703" d="M64.175,322.3c.1.109-.264.607-.812,1.115s-1.075.831-1.175.723.264-.607.812-1.115,1.075-.831,1.175-.723" transform="translate(-17.753 -92.027)" fill="#263238"/>
        <path id="Trazado_630704" data-name="Trazado 630704" d="M71.047,326.8c.082.122-.362.567-.99.993s-1.208.674-1.29.552.36-.567.991-.993,1.206-.674,1.29-.552" transform="translate(-19.633 -93.311)" fill="#263238"/>
        <path id="Trazado_630705" data-name="Trazado 630705" d="M75.588,333.525c.058.136-.641.564-1.561.956s-1.713.6-1.77.465.641-.564,1.561-.956,1.713-.6,1.77-.465" transform="translate(-20.632 -95.227)" fill="#263238"/>
        <path id="Trazado_630706" data-name="Trazado 630706" d="M77.578,340.825c.018.146-.693.354-1.588.466s-1.636.082-1.654-.064.693-.354,1.588-.466,1.635-.082,1.653.064" transform="translate(-21.227 -97.286)" fill="#263238"/>
        <path id="Trazado_630707" data-name="Trazado 630707" d="M78.622,349.339c-.059.135-.817-.064-1.692-.444s-1.538-.8-1.48-.935.817.064,1.693.445,1.537.8,1.479.934" transform="translate(-21.544 -99.349)" fill="#263238"/>
        <path id="Trazado_630708" data-name="Trazado 630708" d="M77.593,356.737c-.046.134-1-.094-2.005-.751s-1.6-1.439-1.492-1.535.836.473,1.785,1.089,1.768,1.055,1.713,1.2" transform="translate(-21.155 -101.211)" fill="#263238"/>
        <path id="Trazado_630709" data-name="Trazado 630709" d="M73.92,363.594c-.088.114-.85-.334-1.582-1.124s-1.125-1.582-1-1.661.692.544,1.4,1.3,1.285,1.37,1.191,1.487" transform="translate(-20.363 -103.028)" fill="#263238"/>
        <path id="Trazado_630710" data-name="Trazado 630710" d="M35.124,365.527c.068.131-.732.682-1.788,1.232s-1.966.889-2.035.759.732-.682,1.788-1.232,1.967-.889,2.035-.758" transform="translate(-8.937 -104.369)" fill="#263238"/>
        <path id="Trazado_630711" data-name="Trazado 630711" d="M31.919,359.142c.061.134-.582.557-1.434.943s-1.594.592-1.655.457.582-.557,1.434-.943,1.594-.592,1.655-.457" transform="translate(-8.231 -102.542)" fill="#263238"/>
        <path id="Trazado_630712" data-name="Trazado 630712" d="M29.141,353.462c.021.146-.769.379-1.765.52s-1.82.137-1.84-.009.769-.379,1.765-.52,1.819-.137,1.84.009" transform="translate(-7.292 -100.9)" fill="#263238"/>
        <path id="Trazado_630713" data-name="Trazado 630713" d="M37.579,350.365c.044.137-.727.5-1.755.612s-1.86-.061-1.848-.2.814-.214,1.788-.326,1.772-.225,1.815-.081" transform="translate(-9.702 -100.029)" fill="#263238"/>
        <path id="Trazado_630714" data-name="Trazado 630714" d="M44.88,343.384c.044.138-.57.448-1.4.528s-1.49-.1-1.474-.245.652-.208,1.422-.286,1.407-.141,1.45,0" transform="translate(-11.996 -98.03)" fill="#263238"/>
        <path id="Trazado_630715" data-name="Trazado 630715" d="M46.251,337.421c-.049.139-.713.036-1.483-.23s-1.358-.6-1.31-.735.712-.036,1.483.23,1.357.6,1.31.735" transform="translate(-12.409 -96.058)" fill="#263238"/>
        <path id="Trazado_630716" data-name="Trazado 630716" d="M49.465,331.416c-.1.1-.559-.2-.884-.764s-.359-1.11-.219-1.148.389.38.682.882.53.927.422,1.031" transform="translate(-13.787 -94.09)" fill="#263238"/>
        <path id="Trazado_630717" data-name="Trazado 630717" d="M45.852,355.276c.035.144-.54.407-1.285.589a4.88,4.88,0,0,1-1.079.159l-.106-.311c.193-.035.317-.027.342.03s-.054.154-.21.272l-.105-.311a4.857,4.857,0,0,1,1.031-.357c.744-.181,1.376-.213,1.411-.07" transform="translate(-12.388 -101.424)" fill="#263238"/>
        <path id="Trazado_630718" data-name="Trazado 630718" d="M46.895,365.2c.054.137-.679.554-1.638.93s-1.779.571-1.833.434.679-.554,1.638-.93,1.779-.571,1.833-.434" transform="translate(-12.399 -104.271)" fill="#263238"/>
        <path id="Trazado_630719" data-name="Trazado 630719" d="M39.423,360.788c.048.139-.442.432-1.092.654s-1.217.288-1.264.148.442-.432,1.092-.653,1.217-.288,1.264-.149" transform="translate(-10.584 -103.003)" fill="#263238"/>
        <path id="Trazado_630720" data-name="Trazado 630720" d="M39.569,340.144c-.034.141-.885.057-1.869-.293s-1.7-.818-1.636-.949.858.109,1.815.446,1.726.651,1.69.8" transform="translate(-10.297 -96.764)" fill="#263238"/>
        <path id="Trazado_630721" data-name="Trazado 630721" d="M59.154,338.453c.081.123-.4.582-1.071,1.026s-1.283.7-1.365.58.4-.582,1.071-1.026,1.284-.7,1.365-.58" transform="translate(-16.194 -96.637)" fill="#263238"/>
        <path id="Trazado_630722" data-name="Trazado 630722" d="M60.23,348.365c.03.144-.474.371-1.125.507s-1.2.127-1.234-.016.474-.372,1.125-.507,1.2-.128,1.234.016" transform="translate(-16.525 -99.444)" fill="#263238"/>
        <path id="Trazado_630723" data-name="Trazado 630723" d="M61.176,359.019c-.062.134-.787-.071-1.62-.456s-1.457-.807-1.4-.941.787.071,1.62.457,1.458.807,1.4.94" transform="translate(-16.606 -102.108)" fill="#263238"/>
        <path id="Trazado_630724" data-name="Trazado 630724" d="M59.135,369.654c-.114.094-.585-.292-1.052-.86s-.754-1.106-.639-1.2.585.292,1.052.861.753,1.105.639,1.2" transform="translate(-16.396 -104.964)" fill="#263238"/>
        <path id="Trazado_630725" data-name="Trazado 630725" d="M58.566,331.126c.09.114-.221.506-.754.773s-1.033.283-1.071.143.351-.377.832-.62.9-.414.994-.3" transform="translate(-16.202 -94.543)" fill="#263238"/>
        <path id="Trazado_630726" data-name="Trazado 630726" d="M67.507,341.145c.049.136-.572.477-1.421.594s-1.539-.04-1.529-.184.664-.233,1.456-.345,1.445-.207,1.494-.065" transform="translate(-18.434 -97.395)" fill="#263238"/>
        <path id="Trazado_630727" data-name="Trazado 630727" d="M65.583,332.15c.066.129-.551.569-1.427.847s-1.633.281-1.654.138.659-.378,1.491-.646,1.523-.474,1.59-.339" transform="translate(-17.848 -94.834)" fill="#263238"/>
        <path id="Trazado_630728" data-name="Trazado 630728" d="M68.935,354.775a4.067,4.067,0,0,1-2.327,0,4.068,4.068,0,0,1-2.177-.821,7.145,7.145,0,0,1,2.272.3,7.144,7.144,0,0,1,2.232.521" transform="translate(-18.398 -101.061)" fill="#263238"/>
        <path id="Trazado_630729" data-name="Trazado 630729" d="M66.139,367.093c-.089.114-.864-.342-1.639-1.122s-1.229-1.556-1.115-1.644.742.515,1.493,1.267,1.353,1.38,1.26,1.5" transform="translate(-18.095 -104.032)" fill="#263238"/>
        <path id="Trazado_630730" data-name="Trazado 630730" d="M47.44,321.521a24.142,24.142,0,0,0-4.679,3.7A22.836,22.836,0,0,0,36.933,338.1,28.925,28.925,0,0,0,37.285,346a60.1,60.1,0,0,0,1.479,6.334c.512,1.784.982,3.212,1.3,4.2a9.918,9.918,0,0,1,.449,1.555,8.888,8.888,0,0,1-.645-1.485c-.377-.971-.9-2.385-1.464-4.163a53.4,53.4,0,0,1-1.6-6.359,28.314,28.314,0,0,1-.4-8.04,22.462,22.462,0,0,1,6.087-13.083,16.7,16.7,0,0,1,3.49-2.728,10.472,10.472,0,0,1,1.069-.555,1.258,1.258,0,0,1,.392-.153" transform="translate(-10.356 -91.81)" fill="#263238"/>
        <path id="Trazado_630731" data-name="Trazado 630731" d="M59.022,358.519a58.5,58.5,0,0,0,2.4-5.732,32.445,32.445,0,0,0,1.434-14.741,27.739,27.739,0,0,0-2.273-7.86,18.538,18.538,0,0,0-3.876-5.4,14.1,14.1,0,0,0-3.8-2.4c-.987-.411-1.579-.508-1.57-.554a1.3,1.3,0,0,1,.437.034,8.041,8.041,0,0,1,1.209.325,13.141,13.141,0,0,1,3.972,2.311,18.261,18.261,0,0,1,4.07,5.469,27.3,27.3,0,0,1,2.358,8,31.344,31.344,0,0,1-1.606,14.938c-.3.922-.689,1.712-.979,2.423-.344.689-.627,1.287-.888,1.761a10.061,10.061,0,0,1-.889,1.425" transform="translate(-14.66 -91.898)" fill="#263238"/>
        <path id="Trazado_630732" data-name="Trazado 630732" d="M33.155,371.417H62.577l.181,5.888h-29.6Z" transform="translate(-9.467 -106.059)" fill="#eb6f2d"/>
        <path id="Trazado_630733" data-name="Trazado 630733" d="M36.654,375.538l1.69,17.977H59.853l1.728-17.78Z" transform="translate(-10.467 -107.236)" fill="#eb6f2d"/>
        <path id="Trazado_630734" data-name="Trazado 630734" d="M62.761,379.651c0,.147-6.626.267-14.8.267s-14.8-.12-14.8-.267,6.624-.267,14.8-.267,14.8.12,14.8.267" transform="translate(-9.471 -108.334)" fill="#263238"/>
        <path id="Trazado_630735" data-name="Trazado 630735" d="M61.331,386.71a4.457,4.457,0,0,1-.63,1.123,16.23,16.23,0,0,1-2.282,2.695l-.136.129-.133-.14a42.388,42.388,0,0,0-5.766-5.048l.325-.014L50.153,387.7l-3.022,2.631-.167.145-.167-.141-4.913-4.13.286-.031-2.542,3.1a7.237,7.237,0,0,1-1,1.092,7.144,7.144,0,0,1,.821-1.23l2.4-3.211.122-.164.164.133,4.986,4.042-.334.005L49.8,387.3l2.565-2.234.158-.138.167.124a37.6,37.6,0,0,1,5.738,5.21l-.269-.011a29.878,29.878,0,0,0,3.17-3.539" transform="translate(-11.03 -109.916)" fill="#263238"/>
      </g>
    </g>
    <g id="Grupo_879687" data-name="Grupo 879687">
      <g id="Grupo_879686" data-name="Grupo 879686" clip-path="url(#clip-path)">
        <path id="Trazado_630736" data-name="Trazado 630736" d="M436.582,305.976H125.139a10.407,10.407,0,0,1-10.407-10.407V96.665a10.408,10.408,0,0,1,10.407-10.408H436.582a10.408,10.408,0,0,1,10.407,10.408v198.9a10.407,10.407,0,0,1-10.407,10.407" transform="translate(-32.762 -24.631)" fill="#455a64"/>
        <path id="Trazado_630737" data-name="Trazado 630737" d="M446.768,393.158H112.223a12.716,12.716,0,0,1-12.716-12.716v-6.509H459.483v6.509a12.716,12.716,0,0,1-12.716,12.716" transform="translate(-28.414 -106.778)" fill="#455a64"/>
        <path id="Trazado_630738" data-name="Trazado 630738" d="M301.414,371.048l4.467,7.105h62.856l4.148-7.105Z" transform="translate(-86.07 -105.954)" fill="#263238"/>
        <path id="Trazado_630739" data-name="Trazado 630739" d="M444.134,370.962c0,.119-73.745.215-164.693.215-90.98,0-164.709-.1-164.709-.215s73.73-.215,164.709-.215c90.948,0,164.693.1,164.693.215" transform="translate(-32.762 -105.868)" fill="#263238"/>
        <path id="Trazado_630740" data-name="Trazado 630740" d="M437.639,288.966H130.387a2.339,2.339,0,0,1-2.338-2.338V106.279a2.339,2.339,0,0,1,2.338-2.338H437.639a2.338,2.338,0,0,1,2.338,2.338V286.628a2.338,2.338,0,0,1-2.338,2.338" transform="translate(-36.565 -29.681)" fill="#ebebeb"/>
        <path id="Trazado_630741" data-name="Trazado 630741" d="M439.51,294.763H127.581l.334-171.468H439.51Z" transform="translate(-36.431 -35.207)" fill="#fff"/>
        <path id="Trazado_630742" data-name="Trazado 630742" d="M161.866,112.948a2.491,2.491,0,1,1-2.491-2.491,2.491,2.491,0,0,1,2.491,2.491" transform="translate(-44.799 -31.541)" fill="#263238"/>
        <path id="Trazado_630743" data-name="Trazado 630743" d="M140.733,112.948a2.491,2.491,0,1,1-2.491-2.491,2.491,2.491,0,0,1,2.491,2.491" transform="translate(-38.764 -31.541)" fill="#263238"/>
        <path id="Trazado_630744" data-name="Trazado 630744" d="M150.877,112.948a2.491,2.491,0,1,1-2.491-2.491,2.491,2.491,0,0,1,2.491,2.491" transform="translate(-41.66 -31.541)" fill="#263238"/>
        <rect id="Rectángulo_329066" data-name="Rectángulo 329066" width="312.262" height="16.558" transform="translate(91.151 242.998)" fill="#263238"/>
        <path id="Trazado_630745" data-name="Trazado 630745" d="M143.048,353.235v.53h-2.486v-.419l1.34-1.272c.328-.313.386-.51.386-.7,0-.309-.212-.487-.627-.487a.951.951,0,0,0-.79.352l-.438-.337a1.557,1.557,0,0,1,1.282-.559c.732,0,1.2.371,1.2.969a1.349,1.349,0,0,1-.559,1.065l-.9.858Z" transform="translate(-40.101 -100.042)" fill="#fff"/>
        <path id="Trazado_630746" data-name="Trazado 630746" d="M144.569,351.89a.4.4,0,1,1,.79,0,.4.4,0,1,1-.79,0m0,1.836a.4.4,0,1,1,.79,0,.4.4,0,1,1-.79,0" transform="translate(-41.282 -100.369)" fill="#fff"/>
        <path id="Trazado_630747" data-name="Trazado 630747" d="M147.336,350.411v3.374h-.626v-2.848H146v-.526Z" transform="translate(-41.69 -100.061)" fill="#fff"/>
        <path id="Trazado_630748" data-name="Trazado 630748" d="M151.795,353.019h-.6v.766h-.607v-.766h-1.851v-.434l1.663-2.173h.67l-1.567,2.078h1.1v-.68h.588v.68h.6Z" transform="translate(-42.473 -100.061)" fill="#fff"/>
        <rect id="Rectángulo_329067" data-name="Rectángulo 329067" width="255.942" height="1.167" transform="translate(114.833 251.609)" fill="#fff"/>
        <rect id="Rectángulo_329068" data-name="Rectángulo 329068" width="79.982" height="3.111" transform="translate(114.641 250.352)" fill="#ffb338"/>
        <path id="Trazado_630749" data-name="Trazado 630749" d="M272.912,351.433a3.894,3.894,0,1,1-3.894-3.894,3.894,3.894,0,0,1,3.894,3.894" transform="translate(-75.707 -99.241)" fill="#ffb338"/>
        <path id="Trazado_630750" data-name="Trazado 630750" d="M526.914,351.987a1.125,1.125,0,0,1-1.234,1.1c-.92,0-1.46-.593-1.46-1.677a1.6,1.6,0,0,1,1.653-1.793,1.7,1.7,0,0,1,.887.216l-.232.473a1.144,1.144,0,0,0-.641-.164c-.636,0-1.036.4-1.036,1.162v.006a1.152,1.152,0,0,1,.9-.352,1.054,1.054,0,0,1,1.162,1.035m-.607.029c0-.352-.265-.573-.674-.573a.614.614,0,0,0-.684.578c0,.318.25.569.7.569a.586.586,0,0,0,.66-.574" transform="translate(-149.692 -99.832)" fill="#fff"/>
        <path id="Trazado_630751" data-name="Trazado 630751" d="M528.417,351.159a.4.4,0,1,1,.79,0,.4.4,0,1,1-.79,0m0,1.836a.4.4,0,1,1,.79,0,.4.4,0,1,1-.79,0" transform="translate(-150.891 -100.16)" fill="#fff"/>
        <path id="Trazado_630752" data-name="Trazado 630752" d="M530.088,351.347c0-1.109.607-1.735,1.407-1.735s1.412.627,1.412,1.735-.607,1.735-1.412,1.735-1.407-.628-1.407-1.735m2.188,0c0-.814-.317-1.19-.781-1.19s-.776.376-.776,1.19.319,1.19.776,1.19.781-.375.781-1.19" transform="translate(-151.368 -99.833)" fill="#fff"/>
        <path id="Trazado_630753" data-name="Trazado 630753" d="M534.621,351.347c0-1.109.607-1.735,1.407-1.735s1.412.627,1.412,1.735-.607,1.735-1.412,1.735-1.407-.628-1.407-1.735m2.188,0c0-.814-.317-1.19-.781-1.19s-.776.376-.776,1.19.319,1.19.776,1.19.781-.375.781-1.19" transform="translate(-152.662 -99.833)" fill="#fff"/>
        <path id="Trazado_630754" data-name="Trazado 630754" d="M545.73,350.4h-1.167v-3.364h3.357v1.167h-2.19Z" transform="translate(-155.501 -99.098)" fill="#fff"/>
        <path id="Trazado_630755" data-name="Trazado 630755" d="M547.922,356.55h-3.364v-3.357h1.167v2.19h2.2Z" transform="translate(-155.5 -100.855)" fill="#fff"/>
        <path id="Trazado_630756" data-name="Trazado 630756" d="M555.423,356.547h-3.358v-1.167h2.191v-2.2h1.167Z" transform="translate(-157.644 -100.852)" fill="#fff"/>
        <path id="Trazado_630757" data-name="Trazado 630757" d="M555.424,350.4h-1.167v-2.19h-2.2v-1.167h3.364Z" transform="translate(-157.643 -99.098)" fill="#fff"/>
        <path id="Trazado_630758" data-name="Trazado 630758" d="M176.431,137.566H158.046l-9.193,15.922,9.193,15.922h18.386l9.193-15.922Z" transform="translate(-42.505 -39.282)" fill="#ebebeb"/>
        <path id="Trazado_630759" data-name="Trazado 630759" d="M162.6,157.157a16.412,16.412,0,0,1-2.249-2.9,5.516,5.516,0,0,1-.758-3.527c.116-.707.417-1.381.464-2.1.066-.985-.348-2.013,0-2.935.545-1.442,2.486-1.664,3.662-2.66.917-.776,1.362-2.035,2.371-2.687a4.454,4.454,0,0,1,3.05-.411,11.5,11.5,0,0,0,3.123.269,20.567,20.567,0,0,0,2.164-.579,2.955,2.955,0,0,1,2.182.148,1.42,1.42,0,0,1,.586,1.91,2.374,2.374,0,0,1,3.064,1.668,3.608,3.608,0,0,1-1.35,3.52,7.9,7.9,0,0,1-3.644,1.487,15.244,15.244,0,0,1-10.872-1.694" transform="translate(-45.555 -39.834)" fill="#263238"/>
        <path id="Trazado_630760" data-name="Trazado 630760" d="M180.632,162.245c-.125-2.279-.762-6.951-1.389-11.173a8.809,8.809,0,0,0-9.3-7.5l-.455.031c-4.888.614-7.1,5.109-6.346,9.978l1.435,17.538h11.928s-.283-3.077-.285-3.107c0,0,4.668-1.05,4.412-5.769" transform="translate(-46.545 -40.992)" fill="#ffbe9d"/>
        <path id="Trazado_630761" data-name="Trazado 630761" d="M179.006,177.16a10.994,10.994,0,0,1-6.265-1.336s1.68,3.3,6.358,2.557Z" transform="translate(-49.327 -50.207)" fill="#eb996e"/>
        <path id="Trazado_630762" data-name="Trazado 630762" d="M183.075,159.513a.675.675,0,0,1-.6.723.646.646,0,0,1-.735-.561.675.675,0,0,1,.6-.723.646.646,0,0,1,.736.561" transform="translate(-51.894 -45.388)" fill="#263238"/>
        <path id="Trazado_630763" data-name="Trazado 630763" d="M183.468,157.148c-.078.094-.613-.25-1.338-.2s-1.231.448-1.315.364c-.041-.036.033-.2.253-.385a1.854,1.854,0,0,1,1.047-.4,1.779,1.779,0,0,1,1.072.268c.234.156.321.31.282.352" transform="translate(-51.629 -44.696)" fill="#263238"/>
        <path id="Trazado_630764" data-name="Trazado 630764" d="M173.493,160.2a.675.675,0,0,1-.6.723.646.646,0,0,1-.735-.561.676.676,0,0,1,.6-.724.646.646,0,0,1,.735.562" transform="translate(-49.158 -45.583)" fill="#263238"/>
        <path id="Trazado_630765" data-name="Trazado 630765" d="M173.51,158c-.078.094-.614-.25-1.338-.2s-1.231.448-1.316.364c-.041-.036.033-.2.254-.384a1.854,1.854,0,0,1,1.047-.4,1.784,1.784,0,0,1,1.072.269c.234.156.321.31.282.352" transform="translate(-48.785 -44.94)" fill="#263238"/>
        <path id="Trazado_630766" data-name="Trazado 630766" d="M178.463,163.125a4.808,4.808,0,0,1,1.163-.292c.184-.031.357-.08.379-.208a.939.939,0,0,0-.16-.54l-.642-1.373a24.246,24.246,0,0,1-1.475-3.6,24.383,24.383,0,0,1,1.762,3.477c.216.483.423.942.619,1.382a1.079,1.079,0,0,1,.144.72.464.464,0,0,1-.286.291,1.252,1.252,0,0,1-.311.065,4.75,4.75,0,0,1-1.193.081" transform="translate(-50.749 -44.863)" fill="#263238"/>
        <path id="Trazado_630767" data-name="Trazado 630767" d="M173.257,154.078c-.059.2-.788.157-1.632.316-.847.142-1.515.437-1.64.268-.056-.081.051-.275.316-.484a2.884,2.884,0,0,1,2.493-.445c.321.1.488.249.464.344" transform="translate(-48.536 -43.867)" fill="#263238"/>
        <path id="Trazado_630768" data-name="Trazado 630768" d="M182.974,154.218c-.116.173-.627.036-1.228.068-.6.011-1.1.184-1.23.02-.057-.08.012-.25.224-.421a1.78,1.78,0,0,1,1.98-.071c.224.155.3.319.254.4" transform="translate(-51.541 -43.846)" fill="#263238"/>
        <path id="Trazado_630769" data-name="Trazado 630769" d="M162.864,162.407c-.083-.029-3.3-.742-2.986,2.476s3.805,2.169,3.8,2.075-.816-4.551-.816-4.551" transform="translate(-45.647 -46.351)" fill="#ffbe9d"/>
        <path id="Trazado_630770" data-name="Trazado 630770" d="M162.587,166.34c-.015-.009-.052.045-.143.1a.564.564,0,0,1-.418.05,1.393,1.393,0,0,1-.764-1.181,1.852,1.852,0,0,1,.077-.818.65.65,0,0,1,.379-.472.287.287,0,0,1,.347.121c.051.086.038.151.055.156s.064-.061.025-.191a.363.363,0,0,0-.146-.189.429.429,0,0,0-.319-.051.793.793,0,0,0-.536.557,1.923,1.923,0,0,0-.106.917,1.463,1.463,0,0,0,.956,1.308.6.6,0,0,0,.5-.136c.092-.089.1-.163.09-.168" transform="translate(-45.98 -46.788)" fill="#eb996e"/>
        <path id="Trazado_630771" data-name="Trazado 630771" d="M178.8,146.339c-.221,1.281-2.819,2.454-4.972,2.391-1.985-.058-2.966-1.043-4.409-1.743-.913-.444-.913-.444-2.152-.242-1,.163-1.522,1.345-2.085,2.19,1.072,2.336.639,5.052.184,7.582a1.285,1.285,0,0,1-.325.769,1.026,1.026,0,0,1-1.3-.2,4,4,0,0,1-1.016-2.044,13.305,13.305,0,0,1-.319-5.232,9.053,9.053,0,0,1,2.177-4.723,8.573,8.573,0,0,1,5.848-2.669,10.528,10.528,0,0,1,6.239,1.771,6.164,6.164,0,0,1,2.133,2.148" transform="translate(-46.336 -40.665)" fill="#263238"/>
        <path id="Trazado_630772" data-name="Trazado 630772" d="M178.393,167.474l-1.64-.765a.559.559,0,0,0-.3-.075.479.479,0,0,0-.284.193,1.525,1.525,0,0,0-.181,1.676,1.281,1.281,0,0,0,1.539.565,1.746,1.746,0,0,0,.909-1.543Z" transform="translate(-50.205 -47.582)" fill="#eb996e"/>
        <path id="Trazado_630773" data-name="Trazado 630773" d="M177.475,169.078c.026.032-.342.264-.962.086a1.5,1.5,0,0,1-.85-.691,1.564,1.564,0,0,1-.108-1.345,1.629,1.629,0,0,1,.4-.6,1.5,1.5,0,0,1,.279-.209.473.473,0,0,1,.432-.025c.375.209.627.387.879.548.481.319.765.538.739.582s-.357-.1-.872-.355l-.875-.457c-.068-.019-.061-.019-.126.016a1.252,1.252,0,0,0-.2.162,1.342,1.342,0,0,0-.3.467,1.273,1.273,0,0,0,.061,1.047,1.325,1.325,0,0,0,.642.609,3.482,3.482,0,0,0,.869.16" transform="translate(-50.101 -47.475)" fill="#263238"/>
        <path id="Trazado_630774" data-name="Trazado 630774" d="M174.8,158.446c-.036,0-.032-.3-.175-.8a3.365,3.365,0,0,0-1.232-1.764,3.2,3.2,0,1,0,0,5.133,3.36,3.36,0,0,0,1.232-1.765c.143-.5.139-.8.175-.8.013,0,.021.074.026.217a2.49,2.49,0,0,1-.061.621,3.34,3.34,0,0,1-1.212,1.937,3.476,3.476,0,0,1-3.316.542,3.519,3.519,0,0,1,0-6.634,3.481,3.481,0,0,1,3.316.541,3.347,3.347,0,0,1,1.212,1.938,2.49,2.49,0,0,1,.061.621c-.005.143-.014.216-.026.216" transform="translate(-47.943 -44.24)" fill="#263238"/>
        <path id="Trazado_630775" data-name="Trazado 630775" d="M186.1,158.039c-.036,0-.033-.291-.174-.782a3.265,3.265,0,0,0-1.2-1.716,3.114,3.114,0,1,0,0,5,3.266,3.266,0,0,0,1.2-1.716c.141-.49.138-.783.174-.782.012,0,.021.072.026.211a2.457,2.457,0,0,1-.059.607,3.26,3.26,0,0,1-1.181,1.89,3.4,3.4,0,0,1-3.235.529,3.433,3.433,0,0,1,0-6.472,3.4,3.4,0,0,1,3.235.529,3.262,3.262,0,0,1,1.181,1.89,2.457,2.457,0,0,1,.059.607c0,.139-.014.211-.026.211" transform="translate(-51.218 -44.148)" fill="#263238"/>
        <path id="Trazado_630776" data-name="Trazado 630776" d="M178.965,158.176c-.074.069-.392-.137-.821-.124s-.739.219-.815.154c-.1-.051.2-.515.809-.526s.922.44.827.5" transform="translate(-50.631 -45.026)" fill="#263238"/>
        <path id="Trazado_630777" data-name="Trazado 630777" d="M167.233,159.18c.061.082-.562.652-1.394,1.272a4.9,4.9,0,0,1-1.616.975c-.061-.082.562-.652,1.394-1.272a4.9,4.9,0,0,1,1.616-.975" transform="translate(-46.893 -45.451)" fill="#263238"/>
        <path id="Trazado_630778" data-name="Trazado 630778" d="M246.5,159.551c0,.1-8.265.186-18.458.186s-18.46-.082-18.46-.186,8.263-.186,18.46-.186,18.458.083,18.458.186" transform="translate(-59.846 -45.507)" fill="#263238"/>
        <path id="Trazado_630779" data-name="Trazado 630779" d="M229.522,164.959c0,.1-4.389.186-9.8.186s-9.8-.083-9.8-.186,4.388-.186,9.8-.186,9.8.083,9.8.186" transform="translate(-59.943 -47.051)" fill="#263238"/>
      </g>
    </g>
    <g id="Grupo_879707" data-name="Grupo 879707">
      <g id="Grupo_879706" data-name="Grupo 879706" clip-path="url(#clip-path)">
        <path id="Trazado_630780" data-name="Trazado 630780" d="M412.573,199.581a28.15,28.15,0,0,1,13.258,17.126c3.447,12.344,14,44.494,14,44.494s6.031,7.094,6.676,12.348-.646,17.961-2.584,20.33a5.461,5.461,0,0,1-4.7,1.977l-25.383-2.408-9.994-66.926Z" transform="translate(-115.318 -56.991)" fill="#2b95f9"/>
        <path id="Trazado_630781" data-name="Trazado 630781" d="M289.512,194.365s-18.149,5.693-22.672,10.646L281.7,274.147l-.237,21.813H367.51c0-1.077.772-72.426.772-72.426l5.169-28-30.583-5.385-6.031-4.738-34.029,1.723-5.169,5.169Z" transform="translate(-76.197 -52.945)" fill="#2b95f9"/>
        <g id="Grupo_879690" data-name="Grupo 879690" transform="translate(205.329 200.024)" opacity="0.3">
          <g id="Grupo_879689" data-name="Grupo 879689">
            <g id="Grupo_879688" data-name="Grupo 879688" clip-path="url(#clip-path-8)">
              <path id="Trazado_630782" data-name="Trazado 630782" d="M302.275,281.345c-.265-.587-.644-1.22-1.275-1.35-1.037-.214-1.73,1.012-2.082,2.01a90.894,90.894,0,0,1-11.3,22.07l-.221,10.615c5.016-4.222,9.963-8.743,13.16-14.466s4.421-12.9,1.721-18.879" transform="translate(-287.395 -279.97)"/>
            </g>
          </g>
        </g>
        <path id="Trazado_630783" data-name="Trazado 630783" d="M253.13,212.845s-5.98,8.153-8.463,13.474-23.06,50.022-24.3,54.634-4.435,19.157,4.967,22.527h19.334l19.407-39.242.992-45.547Z" transform="translate(-62.487 -60.778)" fill="#2b95f9"/>
        <path id="Trazado_630784" data-name="Trazado 630784" d="M247.315,298.779c-.026.029-.431-.38-1.321-.887a14.83,14.83,0,0,0-4.058-1.47,19.436,19.436,0,0,0-2.959-.416,11.756,11.756,0,0,0-3.391.221,12.643,12.643,0,0,0-6.509,4.086,17.646,17.646,0,0,0-3.686,6.852,34.132,34.132,0,0,0-1.162,6.325c-.181,1.828-.249,3.318-.312,4.345-.03.481-.055.873-.074,1.185a1.742,1.742,0,0,1-.051.412,1.762,1.762,0,0,1-.024-.415c0-.312,0-.7,0-1.187.019-1.03.047-2.523.2-4.364a32.7,32.7,0,0,1,1.1-6.4,17.7,17.7,0,0,1,3.736-7,12.848,12.848,0,0,1,6.713-4.174A11.922,11.922,0,0,1,239,295.7a18.959,18.959,0,0,1,3,.467,13.96,13.96,0,0,1,4.073,1.6,6.943,6.943,0,0,1,.96.711,1.767,1.767,0,0,1,.288.3" transform="translate(-63.898 -84.425)" fill="#263238"/>
        <path id="Trazado_630785" data-name="Trazado 630785" d="M243.894,289.031a2.234,2.234,0,0,1,.65-.1,11.025,11.025,0,0,1,1.793-.025,14.836,14.836,0,0,1,2.637.39,15.69,15.69,0,0,1,5.866,2.8,14.763,14.763,0,0,1,1.963,1.8,11.05,11.05,0,0,1,1.11,1.409,2.217,2.217,0,0,1,.328.571c-.057.04-.582-.734-1.628-1.8a16.918,16.918,0,0,0-1.977-1.711,16.8,16.8,0,0,0-5.745-2.74,16.906,16.906,0,0,0-2.574-.46c-1.486-.144-2.418-.063-2.423-.133" transform="translate(-69.645 -82.49)" fill="#263238"/>
        <path id="Trazado_630786" data-name="Trazado 630786" d="M259.456,285.782a4.241,4.241,0,0,1-.895-.068c-.57-.074-1.4-.157-2.422-.233a41.274,41.274,0,0,0-15.814,1.892c-.976.315-1.761.592-2.3.8a4.142,4.142,0,0,1-.853.277,4.154,4.154,0,0,1,.8-.411c.522-.248,1.3-.564,2.269-.913a36.562,36.562,0,0,1,15.922-1.9c1.027.11,1.855.234,2.421.351a4.16,4.16,0,0,1,.872.212" transform="translate(-67.726 -81.391)" fill="#263238"/>
        <path id="Trazado_630787" data-name="Trazado 630787" d="M335.307,221.9a1.253,1.253,0,0,1-.2-.233l-.527-.707-1.944-2.693-6.734-9.5.3-.043c-1.042,3.06-2.191,6.435-3.4,9.987l-.076.225-.2-.125-.4-.259a20.625,20.625,0,0,1-4.21-3.554,25.064,25.064,0,0,1-3.006-4.157,34.682,34.682,0,0,1-3.308-8,54.045,54.045,0,0,1-1.252-5.7l-.271-1.558c-.032-.178-.069-.309-.091-.4a.45.45,0,0,1-.045-.132,6.524,6.524,0,0,1,.549,2.063c.278,1.345.666,3.3,1.363,5.649a35.468,35.468,0,0,0,3.351,7.9,25.059,25.059,0,0,0,2.98,4.084,20.46,20.46,0,0,0,4.139,3.485l.394.254-.271.1c1.22-3.549,2.38-6.921,3.431-9.977l.109-.319.191.276,6.624,9.579,1.865,2.748.483.737a1.254,1.254,0,0,1,.151.264" transform="translate(-88.506 -55.699)" fill="#263238"/>
        <g id="Grupo_879693" data-name="Grupo 879693" transform="translate(269.015 199.204)" opacity="0.3">
          <g id="Grupo_879692" data-name="Grupo 879692">
            <g id="Grupo_879691" data-name="Grupo 879691" clip-path="url(#clip-path-9)">
              <path id="Trazado_630788" data-name="Trazado 630788" d="M376.723,278.822a39.086,39.086,0,0,0,4.972,23.185c4,6.963,9.87,13.169,17.18,16.5.236-7.1-.105-15.453.131-22.549Z" transform="translate(-376.536 -278.822)"/>
            </g>
          </g>
        </g>
        <path id="Trazado_630789" data-name="Trazado 630789" d="M375,258.979s-3.126.867-.782,7.271,3.126,6.016,4.688,12.006,3.386,11.457,6.121,14.843,12.893,10.288,12.893,10.288l9.116-8.595s-1.5-6.406-1.142-10.756,1.272-15.03,1.142-16.852-2.084-6.251-2.084-6.251V257.9l-4.688-14.422s-2.6-1.172-3.516,2.995l-1.563-4.423s-2.474-.4-3.125,4.684.521,12.111.521,12.111l-1.3,8.856L389.33,273.7l-1.693.26s-2.548-.7-3.944-5.492-5.173-10.526-8.688-9.484" transform="translate(-106.611 -69.117)" fill="#ffbe9d"/>
        <path id="Trazado_630790" data-name="Trazado 630790" d="M412.175,290.2a1.406,1.406,0,0,1-.042-.329c-.017-.248-.039-.564-.066-.954-.047-.874-.112-2.082-.193-3.587-.14-3.11-.336-7.437-.564-12.489l.041.105a1.829,1.829,0,0,0-1.845-.481,2.694,2.694,0,0,0-1.69,1.239c-.8,1.281-.839,2.951-1.089,4.562-.494,3.65-.965,7.125-1.394,10.293-.217,1.583-.446,3.089-.754,4.481a29.249,29.249,0,0,1-1.13,3.8,32.032,32.032,0,0,0-.981,3.093,9.5,9.5,0,0,0-.294,2.411,7.545,7.545,0,0,0,.361,2.043,2.909,2.909,0,0,1-.219-.5,5.646,5.646,0,0,1-.286-1.538,9.213,9.213,0,0,1,.236-2.463,29.979,29.979,0,0,1,.935-3.132,29.916,29.916,0,0,0,1.077-3.778c.292-1.382.509-2.88.716-4.462.42-3.169.881-6.646,1.365-10.3.114-.814.2-1.618.344-2.42a6.35,6.35,0,0,1,.8-2.289,3.06,3.06,0,0,1,1.918-1.392,2.176,2.176,0,0,1,2.193.605l.039.047,0,.058c.174,5.054.322,9.383.429,12.494.039,1.506.07,2.716.093,3.591,0,.391.007.707.01.956a1.449,1.449,0,0,1-.016.331" transform="translate(-114.798 -77.682)" fill="#eb996e"/>
        <path id="Trazado_630791" data-name="Trazado 630791" d="M408.506,269.512a3.693,3.693,0,0,1-.384-.815,20.767,20.767,0,0,1-.763-2.334,23.55,23.55,0,0,1-.655-3.589,10.489,10.489,0,0,1-.039-2.175,4.648,4.648,0,0,1,.786-2.233,3.189,3.189,0,0,1,1.667-1.251l.14-.041.071.126c1.32,2.329,2.467,4.385,3.274,5.864l.934,1.748a3.011,3.011,0,0,1,.3.656,3.043,3.043,0,0,1-.412-.591l-1.029-1.694c-.863-1.447-2.049-3.479-3.383-5.8l.211.085a2.842,2.842,0,0,0-1.467,1.115,4.338,4.338,0,0,0-.728,2.058,10.458,10.458,0,0,0,.018,2.1,26.418,26.418,0,0,0,.569,3.558c.23,1,.474,1.8.644,2.349a4.781,4.781,0,0,1,.248.864" transform="translate(-116.112 -73.408)" fill="#eb996e"/>
        <path id="Trazado_630792" data-name="Trazado 630792" d="M406.055,267.7a3.6,3.6,0,0,1-.084-.83l-.092-2.267c-.061-1.915-.121-4.559-.163-7.481a64.39,64.39,0,0,1,.116-7.5,11.474,11.474,0,0,1,.489-2.23,2.789,2.789,0,0,1,.334-.768,21.059,21.059,0,0,0-.562,3.026c-.181,1.892-.027,4.54,0,7.462.042,2.921.06,5.567.054,7.482-.01.9-.019,1.653-.026,2.268a3.622,3.622,0,0,1-.061.832" transform="translate(-115.84 -70.426)" fill="#eb996e"/>
        <path id="Trazado_630793" data-name="Trazado 630793" d="M395.418,303.84c-.053-.044.518-.715,1.223-1.933a16.1,16.1,0,0,0,1.06-2.223,15.909,15.909,0,0,0,1.065-5.9,16.027,16.027,0,0,0-.216-2.454c-.235-1.387-.535-2.216-.47-2.238a1.971,1.971,0,0,1,.259.564,10.361,10.361,0,0,1,.469,1.625,13.976,13.976,0,0,1,.3,2.5,14.814,14.814,0,0,1-1.09,6.033,14.007,14.007,0,0,1-1.154,2.234,10.331,10.331,0,0,1-1.008,1.358c-.265.3-.421.454-.44.438" transform="translate(-112.912 -82.551)" fill="#eb996e"/>
        <path id="Trazado_630794" data-name="Trazado 630794" d="M414.942,303.464l7.911,2.746s7.554-3.907,12.763,0,9.734,14.2,8.3,18.371c0,0-3.6,4.438-6.33,5.09s-13.367-1.925-17.79-2.856-12.051-5.889-12.051-5.889Z" transform="translate(-116.433 -86.655)" fill="#ffbe9d"/>
        <path id="Trazado_630795" data-name="Trazado 630795" d="M419.005,312.644a2.6,2.6,0,0,1-.084-.7c-.031-.536-.069-1.172-.113-1.911-.084-1.615-.193-3.847-.226-6.316a62.425,62.425,0,0,1,.183-6.326c.069-.807.158-1.459.239-1.905a2.537,2.537,0,0,1,.164-.687c.058.009-.065,1-.141,2.611s-.11,3.839-.073,6.3c.044,2.414.085,4.6.116,6.312.009.809.007,1.464-.006,1.916a2.584,2.584,0,0,1-.06.7" transform="translate(-119.524 -84.181)" fill="#eb996e"/>
        <path id="Trazado_630796" data-name="Trazado 630796" d="M447.081,304.621a25.007,25.007,0,0,0-2.631-2.372,14.472,14.472,0,0,0-16.036-.884,24.965,24.965,0,0,0-2.875,2.068,3.951,3.951,0,0,1,.652-.706,12.845,12.845,0,0,1,2.089-1.588,14.22,14.22,0,0,1,16.329.9,12.838,12.838,0,0,1,1.9,1.808,3.96,3.96,0,0,1,.571.774" transform="translate(-121.513 -85.377)" fill="#263238"/>
        <path id="Trazado_630797" data-name="Trazado 630797" d="M445.108,296.441a15.516,15.516,0,0,0-3.291-1.815,14.562,14.562,0,0,0-8.906-.268,20.743,20.743,0,0,0-4.606,1.917,21.869,21.869,0,0,0-3.336,2.358c-.888.757-1.567,1.418-2.033,1.879a5.778,5.778,0,0,1-.745.7,5.086,5.086,0,0,1,.64-.8,24.951,24.951,0,0,1,1.964-1.978,20.5,20.5,0,0,1,3.338-2.456A20.036,20.036,0,0,1,432.81,294a14.288,14.288,0,0,1,9.1.381,10.452,10.452,0,0,1,2.435,1.374,6.648,6.648,0,0,1,.579.492c.127.118.19.184.181.194" transform="translate(-120.557 -83.793)" fill="#263238"/>
        <path id="Trazado_630798" data-name="Trazado 630798" d="M444.571,289.134c-.02.074-1.4-.349-3.7-.66a29.7,29.7,0,0,0-4.055-.257,29.448,29.448,0,0,0-9.756,1.717,29.785,29.785,0,0,0-3.724,1.626c-2.053,1.077-3.209,1.946-3.252,1.884a5.194,5.194,0,0,1,.792-.634,11.384,11.384,0,0,1,.982-.672c.394-.244.833-.543,1.353-.81a26.837,26.837,0,0,1,3.732-1.717,27.936,27.936,0,0,1,9.873-1.738,26.883,26.883,0,0,1,4.093.339c.581.074,1.095.205,1.549.3a11.025,11.025,0,0,1,1.152.3,5.248,5.248,0,0,1,.961.324" transform="translate(-119.956 -82.203)" fill="#263238"/>
        <path id="Trazado_630799" data-name="Trazado 630799" d="M361.743,191.714a6.614,6.614,0,0,1,.548,2.1,20.519,20.519,0,0,1-.3,6.136,36.525,36.525,0,0,1-1.022,4.277,32.447,32.447,0,0,1-2.078,4.752c-1.7,3.286-3.849,6.869-6.331,10.69l-.29.447v-.534c0-2.525-.008-5.175-.012-7.927l.278.133-6.672,5.386.058-.084a70.252,70.252,0,0,0-2.968,16.038c-.653,8.695-.126,17.01.284,24.555.352,7.555.582,14.358.817,20.071s.433,10.334.605,13.527c.094,1.582.166,2.816.217,3.674.027.407.049.724.064.955.012.215.009.327.009.327s-.022-.109-.047-.323c-.024-.232-.057-.547-.1-.953-.079-.838-.181-2.076-.287-3.672-.216-3.191-.463-7.812-.724-13.524s-.559-12.516-.9-20.065c-.429-7.538-.967-15.872-.312-24.6a70.114,70.114,0,0,1,3-16.121l.016-.051.042-.034,6.684-5.372.279-.224v.357c0,2.752-.009,5.4-.012,7.927l-.291-.088c4.908-7.611,8.9-14.225,9.514-19.576a21.149,21.149,0,0,0,.385-6.093,10.309,10.309,0,0,0-.293-1.583c-.112-.346-.159-.532-.159-.532" transform="translate(-97.738 -54.744)" fill="#263238"/>
        <path id="Trazado_630800" data-name="Trazado 630800" d="M350.7,320.707l-.255-.009a2.014,2.014,0,1,0,.255.009" transform="translate(-99.513 -91.576)" fill="#fff"/>
        <path id="Trazado_630801" data-name="Trazado 630801" d="M350.7,282.165l-.255-.009a2.013,2.013,0,1,0,.255.009" transform="translate(-99.513 -80.57)" fill="#fff"/>
        <path id="Trazado_630802" data-name="Trazado 630802" d="M350.436,246.076a2.016,2.016,0,0,0,.267-4.02l-.255-.009a2.016,2.016,0,0,0-.012,4.029" transform="translate(-99.513 -69.117)" fill="#fff"/>
        <path id="Trazado_630803" data-name="Trazado 630803" d="M304.31,125.034a50.084,50.084,0,0,1-6.858-8.837,16.818,16.818,0,0,1-2.31-10.753c.353-2.156,1.27-4.211,1.415-6.391.2-3-1.061-6.136,0-8.948,1.663-4.4,7.58-5.075,11.167-8.111,2.793-2.365,4.154-6.2,7.227-8.193,2.685-1.738,6.134-1.7,9.3-1.252s6.352,1.247,9.521.821a62.816,62.816,0,0,0,6.6-1.765c2.213-.548,4.681-.692,6.652.453s3.078,3.943,1.785,5.821c3.672-1.693,8.338,1.169,9.342,5.087s-1.007,8.149-4.119,10.732-7.137,3.785-11.11,4.535c-11.252,2.12-23.456.924-33.152-5.165" transform="translate(-84.231 -20.329)" fill="#263238"/>
        <path id="Trazado_630804" data-name="Trazado 630804" d="M346.88,166.392c-.549-4.26-1-7.812-1.027-8.254,0,0,14.233-3.2,13.449-17.59-.379-6.955-2.326-21.217-4.237-34.1a26.847,26.847,0,0,0-28.354-22.831l-1.387.093c-14.9,1.875-21.636,15.579-19.349,30.423l8.04,49.776s3.431,11.011,10.77,12.917l9.263,13.232,1.531-5.7,6.9-6.011a27.2,27.2,0,0,0,3.4-5.067,11.089,11.089,0,0,0,.993-6.9" transform="translate(-87.247 -23.86)" fill="#ffbe9d"/>
        <path id="Trazado_630805" data-name="Trazado 630805" d="M354.346,186.026a33.512,33.512,0,0,1-19.1-4.074s5.124,10.052,19.386,7.8Z" transform="translate(-95.729 -51.957)" fill="#eb996e"/>
        <path id="Trazado_630806" data-name="Trazado 630806" d="M366.751,132.218a2.058,2.058,0,0,1-1.841,2.2,1.969,1.969,0,0,1-2.241-1.71,2.06,2.06,0,0,1,1.84-2.205,1.97,1.97,0,0,1,2.243,1.711" transform="translate(-103.558 -37.262)" fill="#263238"/>
        <path id="Trazado_630807" data-name="Trazado 630807" d="M367.95,125.007c-.236.284-1.869-.763-4.079-.609-2.209.121-3.754,1.367-4.012,1.112-.126-.112.1-.612.772-1.174a5.641,5.641,0,0,1,3.19-1.222,5.418,5.418,0,0,1,3.269.819c.714.476.977.945.859,1.073" transform="translate(-102.749 -35.153)" fill="#263238"/>
        <path id="Trazado_630808" data-name="Trazado 630808" d="M337.532,134.307a2.058,2.058,0,0,1-1.842,2.2,1.968,1.968,0,0,1-2.241-1.71,2.059,2.059,0,0,1,1.84-2.205,1.97,1.97,0,0,1,2.243,1.711" transform="translate(-95.215 -37.859)" fill="#263238"/>
        <path id="Trazado_630809" data-name="Trazado 630809" d="M337.585,127.617c-.237.285-1.872-.762-4.079-.609-2.209.122-3.755,1.367-4.013,1.112-.125-.111.1-.612.774-1.173a5.642,5.642,0,0,1,3.19-1.222,5.426,5.426,0,0,1,3.269.819c.712.476.976.945.859,1.073" transform="translate(-94.078 -35.898)" fill="#263238"/>
        <path id="Trazado_630810" data-name="Trazado 630810" d="M352.688,143.232a14.63,14.63,0,0,1,3.546-.887c.56-.1,1.087-.244,1.156-.636a2.872,2.872,0,0,0-.489-1.647q-.932-2-1.956-4.186c-2.726-5.962-4.74-10.88-4.5-10.988s2.647,4.637,5.373,10.6q.989,2.207,1.888,4.215a3.277,3.277,0,0,1,.441,2.195,1.418,1.418,0,0,1-.872.887,3.839,3.839,0,0,1-.95.2,14.4,14.4,0,0,1-3.638.249" transform="translate(-100.065 -35.662)" fill="#263238"/>
        <path id="Trazado_630811" data-name="Trazado 630811" d="M336.816,115.647c-.178.615-2.4.478-4.975.965-2.582.434-4.622,1.333-5,.817-.171-.248.156-.838.962-1.476a8.81,8.81,0,0,1,7.6-1.357c.977.319,1.488.759,1.414,1.051" transform="translate(-93.317 -32.626)" fill="#263238"/>
        <path id="Trazado_630812" data-name="Trazado 630812" d="M366.442,116.074c-.355.528-1.913.109-3.744.206-1.835.034-3.358.564-3.75.062-.173-.244.037-.763.682-1.284a5.43,5.43,0,0,1,6.039-.216c.681.473.928.975.773,1.232" transform="translate(-102.482 -32.561)" fill="#263238"/>
        <path id="Trazado_630813" data-name="Trazado 630813" d="M305.123,141.044c-.252-.09-10.076-2.262-9.1,7.548s11.6,6.613,11.592,6.33-2.488-13.878-2.488-13.878" transform="translate(-84.51 -40.2)" fill="#ffbe9d"/>
        <path id="Trazado_630814" data-name="Trazado 630814" d="M304.279,153.034c-.046-.027-.159.136-.435.3a1.715,1.715,0,0,1-1.275.152c-1.074-.278-2.11-1.836-2.333-3.6a5.683,5.683,0,0,1,.236-2.495,1.983,1.983,0,0,1,1.155-1.439.875.875,0,0,1,1.055.369c.158.261.116.463.169.475.03.021.194-.185.075-.583a1.1,1.1,0,0,0-.447-.576,1.3,1.3,0,0,0-.97-.156,2.414,2.414,0,0,0-1.635,1.7,5.838,5.838,0,0,0-.321,2.793c.259,1.97,1.454,3.72,2.913,3.989a1.839,1.839,0,0,0,1.537-.414c.28-.273.31-.5.274-.512" transform="translate(-85.525 -41.533)" fill="#eb996e"/>
        <path id="Trazado_630815" data-name="Trazado 630815" d="M353.706,92.047c-.674,3.905-8.594,7.483-15.161,7.292-6.053-.176-9.043-3.18-13.442-5.315-2.784-1.351-2.784-1.351-6.562-.737-3.054.5-4.64,4.1-6.355,6.677,3.267,7.122,1.947,15.4.562,23.117a3.914,3.914,0,0,1-.993,2.344c-1.1.972-2.891.39-3.976-.6-1.736-1.59-2.526-3.947-3.1-6.231a40.531,40.531,0,0,1-.972-15.953,27.6,27.6,0,0,1,6.636-14.4A26.145,26.145,0,0,1,328.182,80.1,32.106,32.106,0,0,1,347.2,85.5a18.811,18.811,0,0,1,6.5,6.551" transform="translate(-86.611 -22.861)" fill="#263238"/>
        <path id="Trazado_630816" data-name="Trazado 630816" d="M352.475,156.494l-5-2.332a1.683,1.683,0,0,0-.91-.229,1.454,1.454,0,0,0-.865.587,4.651,4.651,0,0,0-.554,5.11,3.906,3.906,0,0,0,4.692,1.725c1.773-.734,2.633-2.792,2.772-4.705Z" transform="translate(-98.407 -43.954)" fill="#eb996e"/>
        <path id="Trazado_630817" data-name="Trazado 630817" d="M349.755,161.454c.014.043-.231.187-.732.291a4.326,4.326,0,0,1-2.151-.159,4.485,4.485,0,0,1-2.483-2.063,4.61,4.61,0,0,1-.3-3.944,4.818,4.818,0,0,1,1.16-1.749,4.453,4.453,0,0,1,.811-.613,1.212,1.212,0,0,1,1.157-.071,7.249,7.249,0,0,1,.779.442l.682.419,1.217.762a10.918,10.918,0,0,1,2.323,1.657,10.934,10.934,0,0,1-2.588-1.2l-1.263-.683-.7-.386a7.757,7.757,0,0,0-.707-.372.527.527,0,0,0-.547.052,3.918,3.918,0,0,0-.658.521,4.246,4.246,0,0,0-.972,1.491,4.037,4.037,0,0,0,.211,3.349,4.129,4.129,0,0,0,2.066,1.9,4.892,4.892,0,0,0,1.936.363c.477-.011.747-.058.762,0" transform="translate(-98.166 -43.699)" fill="#263238"/>
        <path id="Trazado_630818" data-name="Trazado 630818" d="M341.672,129.1a17.7,17.7,0,0,0-.391-2.484,10.207,10.207,0,0,0-3.735-5.555A10.082,10.082,0,0,0,328,119.638a10.1,10.1,0,0,0-4.672,3.513,10.024,10.024,0,0,0,0,11.895A10.094,10.094,0,0,0,328,138.559a10.158,10.158,0,0,0,13.286-6.977,17.68,17.68,0,0,0,.391-2.483.554.554,0,0,1,.011.166c0,.132,0,.293-.006.489a4.7,4.7,0,0,1-.062.793,7.244,7.244,0,0,1-.192,1.07,9.684,9.684,0,0,1-1.108,2.766,10.346,10.346,0,0,1-6.967,4.931,10.416,10.416,0,0,1-5.468-.432,10.406,10.406,0,0,1-4.85-3.621,10.356,10.356,0,0,1,0-12.326,10.414,10.414,0,0,1,4.849-3.62,10.413,10.413,0,0,1,5.467-.432,10.342,10.342,0,0,1,6.967,4.93,9.675,9.675,0,0,1,1.109,2.766,7.235,7.235,0,0,1,.192,1.071,4.7,4.7,0,0,1,.062.793c0,.2.005.357.006.489a.554.554,0,0,1-.011.166" transform="translate(-91.661 -33.897)" fill="#263238"/>
        <path id="Trazado_630819" data-name="Trazado 630819" d="M376.127,127.858a17.657,17.657,0,0,0-.382-2.42,9.951,9.951,0,0,0-3.64-5.411,9.82,9.82,0,0,0-9.3-1.385,9.829,9.829,0,0,0-4.55,3.422,9.761,9.761,0,0,0,0,11.585,9.844,9.844,0,0,0,4.551,3.423,9.9,9.9,0,0,0,12.943-6.8,17.657,17.657,0,0,0,.382-2.42,4.048,4.048,0,0,1,.005.639,4.586,4.586,0,0,1-.06.773,7.024,7.024,0,0,1-.187,1.043,10.049,10.049,0,0,1-7.87,7.5,10.148,10.148,0,0,1-5.331-.421,10.151,10.151,0,0,1-4.727-3.529,10.1,10.1,0,0,1,0-12.016,10.149,10.149,0,0,1,4.727-3.529,10.146,10.146,0,0,1,5.33-.421,10.051,10.051,0,0,1,7.87,7.5,7.009,7.009,0,0,1,.187,1.043,4.586,4.586,0,0,1,.06.773,4.048,4.048,0,0,1-.005.639" transform="translate(-101.65 -33.617)" fill="#263238"/>
        <path id="Trazado_630820" data-name="Trazado 630820" d="M354.239,128.292c-.04.041-.276-.157-.711-.363a4.093,4.093,0,0,0-1.8-.4,4.042,4.042,0,0,0-1.784.457c-.426.222-.653.432-.7.392s.131-.313.558-.616a3.53,3.53,0,0,1,3.849-.067c.437.285.616.563.582.592" transform="translate(-99.728 -36.311)" fill="#263238"/>
        <path id="Trazado_630821" data-name="Trazado 630821" d="M318.453,131.215a44.168,44.168,0,0,1-4.477,3.574,44.217,44.217,0,0,1-4.7,3.277,88.188,88.188,0,0,1,9.177-6.852" transform="translate(-88.314 -37.468)" fill="#263238"/>
        <g id="Grupo_879696" data-name="Grupo 879696" transform="translate(221.526 140.247)" opacity="0.3">
          <g id="Grupo_879695" data-name="Grupo 879695">
            <g id="Grupo_879694" data-name="Grupo 879694" clip-path="url(#clip-path-10)">
              <path id="Trazado_630822" data-name="Trazado 630822" d="M310.224,196.3c-.994,9.7,2.693,19.931,10.47,25.807a2.366,2.366,0,0,0,2.1.658,2.3,2.3,0,0,0,1.085-1.12,18.938,18.938,0,0,0,2.318-12.459c-1.232,3.243-2.288,6.426-3.532,9.818-6.777-4.114-11-12.862-12.437-22.7" transform="translate(-310.066 -196.301)"/>
            </g>
          </g>
        </g>
        <g id="Grupo_879699" data-name="Grupo 879699" transform="translate(248.012 139.359)" opacity="0.3">
          <g id="Grupo_879698" data-name="Grupo 879698">
            <g id="Grupo_879697" data-name="Grupo 879697" clip-path="url(#clip-path-11)">
              <path id="Trazado_630823" data-name="Trazado 630823" d="M347.138,217.992l5.706-2.084.945,9.651s6.158-11.223,8.706-16.344,1.237-14.157,1.237-14.157.912,7.871-5.259,17.912l-4.658,7.57v-7.928Z" transform="translate(-347.138 -195.059)"/>
            </g>
          </g>
        </g>
        <g id="Grupo_879702" data-name="Grupo 879702" transform="translate(161.502 210.161)" opacity="0.3">
          <g id="Grupo_879701" data-name="Grupo 879701">
            <g id="Grupo_879700" data-name="Grupo 879700" clip-path="url(#clip-path-12)">
              <path id="Trazado_630824" data-name="Trazado 630824" d="M246.177,295.344a15.254,15.254,0,0,0-8.268-1.037,15.945,15.945,0,0,0-8.23,3.114,9.185,9.185,0,0,0-3.593,7.766l.286.041c1.99-5.389,5.951-9.311,11.059-9.784a16.776,16.776,0,0,1,13.6,5.542c-.341-2.793-2.3-4.44-4.85-5.641" transform="translate(-226.052 -294.159)"/>
            </g>
          </g>
        </g>
        <g id="Grupo_879705" data-name="Grupo 879705" transform="translate(304.814 212.826)" opacity="0.3">
          <g id="Grupo_879704" data-name="Grupo 879704">
            <g id="Grupo_879703" data-name="Grupo 879703" clip-path="url(#clip-path-13)">
              <path id="Trazado_630825" data-name="Trazado 630825" d="M447.764,301.918a13.073,13.073,0,0,0-7.37-3.8,16.564,16.564,0,0,0-13.751,3.98l1.089-.883a17.341,17.341,0,0,1,9.157-2.488,13.256,13.256,0,0,1,8.729,3.487c2.133,2.033,3.415,4.777,4.638,7.457a9.346,9.346,0,0,0-2.492-7.756" transform="translate(-426.643 -297.889)"/>
            </g>
          </g>
        </g>
        <path id="Trazado_630826" data-name="Trazado 630826" d="M404.717,233a3.492,3.492,0,0,1,.256-.78l.812-2.077c.691-1.75,1.64-4.17,2.641-6.86s1.865-5.143,2.486-6.919l.743-2.1a3.482,3.482,0,0,1,.316-.757,3.5,3.5,0,0,1-.178.8c-.137.509-.352,1.241-.632,2.14-.557,1.8-1.384,4.271-2.386,6.967s-1.992,5.1-2.746,6.832c-.377.863-.692,1.557-.921,2.033a3.513,3.513,0,0,1-.389.723" transform="translate(-115.567 -60.966)" fill="#263238"/>
        <path id="Trazado_630827" data-name="Trazado 630827" d="M277.4,235.67c-.1.021-.877-3.379-1.734-7.593s-1.47-7.647-1.37-7.668.877,3.379,1.734,7.594,1.47,7.647,1.37,7.667" transform="translate(-78.324 -62.938)" fill="#263238"/>
        <path id="Trazado_630828" data-name="Trazado 630828" d="M275.714,282.656c.226.114-2.618-22.264-2.618-22.264s1.795-16.982,2.8-17.768l.026-5.991s2.778-1.683,3.523,1.034c0,0,2.463-2.138,2.893,2.952s.52,10.292.52,10.292l5.482,13.707.9.456s1.177-10.737,1.863-12.318,1.155-5.423,3.753-4.846,2.815,2.726,2.348,6.23-1.049,7.119-.832,9.381,1.245,7.243.929,11.2-2.483,8.131-4.757,11.062-6.619,8.991-8.98,10.817c-.825.637-7.855-13.943-7.855-13.943" transform="translate(-77.983 -67.424)" fill="#ffbe9d"/>
        <path id="Trazado_630829" data-name="Trazado 630829" d="M279.651,267.163a4.755,4.755,0,0,1,.015-.958c.046-.687.107-1.559.179-2.6.167-2.194.423-5.222.73-8.564.157-1.667.308-3.254.446-4.71a8.4,8.4,0,0,0,.025-2.02,2.864,2.864,0,0,0-.684-1.544,3.077,3.077,0,0,0-2.238-.982,5.894,5.894,0,0,0-.933.119c0-.011.071-.051.223-.117a2.445,2.445,0,0,1,.706-.147,3.032,3.032,0,0,1,3.231,2.623,8.471,8.471,0,0,1,.011,2.1c-.129,1.457-.27,3.046-.417,4.714-.306,3.342-.6,6.366-.839,8.553-.119,1.037-.218,1.9-.3,2.589a4.889,4.889,0,0,1-.159.944" transform="translate(-79.153 -70.141)" fill="#eb996e"/>
        <path id="Trazado_630830" data-name="Trazado 630830" d="M283.5,262.958a7.738,7.738,0,0,0-.97,1.767,29.848,29.848,0,0,0-.912,4.83c-.3,1.913-.583,3.642-.809,4.89a11.273,11.273,0,0,1-.443,2.009,11.28,11.28,0,0,1,.183-2.049c.16-1.259.406-2.994.7-4.907a23.056,23.056,0,0,1,1.033-4.869,4.635,4.635,0,0,1,.792-1.305c.24-.271.412-.379.424-.366" transform="translate(-80.054 -75.088)" fill="#eb996e"/>
        <path id="Trazado_630831" data-name="Trazado 630831" d="M281.933,237.874a2.765,2.765,0,0,1,.191.7c.1.457.224,1.123.361,1.949.273,1.651.572,3.946.761,6.494s.229,4.863.2,6.536c-.013.837-.038,1.513-.07,1.98a2.732,2.732,0,0,1-.085.724,23.811,23.811,0,0,1-.108-2.7c-.039-1.668-.122-3.972-.309-6.51s-.445-4.828-.651-6.484a23.764,23.764,0,0,1-.291-2.69" transform="translate(-80.503 -67.926)" fill="#eb996e"/>
        <path id="Trazado_630832" data-name="Trazado 630832" d="M302.749,266.836a2,2,0,0,1-1.846.156c-1.049-.313-1.537-1.12-1.445-1.16a4.84,4.84,0,0,0,3.291,1" transform="translate(-85.508 -75.908)" fill="#eb996e"/>
        <path id="Trazado_630833" data-name="Trazado 630833" d="M263.678,297.361,249.2,303.447H240.57s-8.533,2.663-9.847,10.662-1.5,12.117,2.25,13.106,14.348,1.1,19.6-.644,19.008-12.843,19.008-12.843l1.326-8.03Z" transform="translate(-65.639 -84.912)" fill="#ffbe9d"/>
        <path id="Trazado_630834" data-name="Trazado 630834" d="M280.2,304.481c-.019.017-.164-.117-.411-.378a8.963,8.963,0,0,1-.941-1.2,16.378,16.378,0,0,1-2.023-4.58,27.153,27.153,0,0,1-.892-4.921,9.21,9.21,0,0,1-.056-2.069,15.008,15.008,0,0,1,.317,2.039,36.848,36.848,0,0,0,.989,4.849,19.142,19.142,0,0,0,1.888,4.542c.651,1.082,1.181,1.668,1.13,1.715" transform="translate(-78.767 -83.192)" fill="#eb996e"/>
        <path id="Trazado_630835" data-name="Trazado 630835" d="M288.143,305.361a14.938,14.938,0,0,0,.825-3.1,10,10,0,0,0-1.945-7.267c-.879-1.233-1.869-2.306-2.7-3.345a15.5,15.5,0,0,1-1.958-2.959,7.76,7.76,0,0,1-.726-2.284,2.634,2.634,0,0,1-.025-.877,9.917,9.917,0,0,0,.985,3.042,16.577,16.577,0,0,0,1.988,2.861c.839,1.017,1.84,2.086,2.741,3.346a10.431,10.431,0,0,1,1.806,3.962,10.1,10.1,0,0,1,.1,3.557,9.166,9.166,0,0,1-.664,2.3,5.2,5.2,0,0,1-.292.581c-.074.129-.119.193-.13.187" transform="translate(-80.409 -81.532)" fill="#eb996e"/>
        <path id="Trazado_630836" data-name="Trazado 630836" d="M256.827,259.284a72.29,72.29,0,0,1-3.529-6.42,72.1,72.1,0,0,1-3.2-6.591,72.246,72.246,0,0,1,3.529,6.421,72.3,72.3,0,0,1,3.2,6.591" transform="translate(-71.415 -70.324)" fill="#fff"/>
        <path id="Trazado_630837" data-name="Trazado 630837" d="M292.293,223.776a45.123,45.123,0,0,1,2.181-5.353,44.925,44.925,0,0,1,2.521-5.2,44.955,44.955,0,0,1-2.181,5.353,45.012,45.012,0,0,1-2.521,5.2" transform="translate(-83.463 -60.886)" fill="#fff"/>
        <path id="Trazado_630838" data-name="Trazado 630838" d="M321.884,248.646a65.241,65.241,0,0,1-6.277-7.582,65.2,65.2,0,0,1,6.277,7.582" transform="translate(-90.121 -68.836)" fill="#fff"/>
        <path id="Trazado_630839" data-name="Trazado 630839" d="M317.007,281.356a53.762,53.762,0,0,1,5.248-7.236,53.819,53.819,0,0,1-5.248,7.236" transform="translate(-90.521 -78.275)" fill="#fff"/>
        <path id="Trazado_630840" data-name="Trazado 630840" d="M305.3,326.1a6.925,6.925,0,0,1-.839-1.435c-.469-.912-1.077-2.191-1.69-3.631s-1.11-2.766-1.441-3.737a6.939,6.939,0,0,1-.451-1.6,7.879,7.879,0,0,1,.7,1.507l1.538,3.684c.589,1.363,1.122,2.6,1.585,3.665a7.875,7.875,0,0,1,.6,1.547" transform="translate(-85.914 -90.147)" fill="#fff"/>
        <path id="Trazado_630841" data-name="Trazado 630841" d="M331.872,310.023a51.726,51.726,0,0,1-8.6-1.665,51.728,51.728,0,0,1,8.6,1.665" transform="translate(-92.31 -88.047)" fill="#fff"/>
        <path id="Trazado_630842" data-name="Trazado 630842" d="M357.212,264.025a106.2,106.2,0,0,1,8.545-9.215,53.367,53.367,0,0,1-4.136,4.734,53.385,53.385,0,0,1-4.409,4.481" transform="translate(-102.002 -72.761)" fill="#fff"/>
        <path id="Trazado_630843" data-name="Trazado 630843" d="M375.237,320.174c-.079.065-2.39-2.608-5.16-5.971s-4.953-6.143-4.873-6.208,2.389,2.608,5.16,5.971,4.952,6.143,4.872,6.208" transform="translate(-104.284 -87.948)" fill="#fff"/>
        <path id="Trazado_630844" data-name="Trazado 630844" d="M239.128,300.6c.052.1-2.059,1.173-4.359,2.938s-3.9,3.505-3.985,3.427a5.369,5.369,0,0,1,.972-1.213,23.143,23.143,0,0,1,5.944-4.535,5.393,5.393,0,0,1,1.428-.617" transform="translate(-65.9 -85.836)" fill="#fff"/>
        <path id="Trazado_630845" data-name="Trazado 630845" d="M249.235,278.507a29.58,29.58,0,0,1-3.666,5.513,29.583,29.583,0,0,1,3.666-5.513" transform="translate(-70.121 -79.528)" fill="#fff"/>
        <path id="Trazado_630846" data-name="Trazado 630846" d="M268.672,297.767a9.445,9.445,0,0,1-1.387-6.106c.111,0,.148,1.41.536,3.089s.952,2.969.852,3.017" transform="translate(-76.296 -83.285)" fill="#fff"/>
        <path id="Trazado_630847" data-name="Trazado 630847" d="M269.8,231.27a21.241,21.241,0,0,1-5.558.79,21.252,21.252,0,0,1,5.558-.79" transform="translate(-75.454 -66.028)" fill="#fff"/>
        <path id="Trazado_630848" data-name="Trazado 630848" d="M283.962,206.557a22.012,22.012,0,0,1-5,2.771,22.014,22.014,0,0,1,5-2.771" transform="translate(-79.658 -58.98)" fill="#fff"/>
        <path id="Trazado_630849" data-name="Trazado 630849" d="M323.082,214.267a49.962,49.962,0,0,1-5.216-6.849,24.883,24.883,0,0,1,2.756,3.312,25.151,25.151,0,0,1,2.46,3.537" transform="translate(-90.766 -59.228)" fill="#fff"/>
        <path id="Trazado_630850" data-name="Trazado 630850" d="M373.211,239.093a17.5,17.5,0,0,1-4.322-6.947c.1-.044.87,1.623,2.065,3.534s2.341,3.342,2.257,3.414" transform="translate(-105.335 -66.29)" fill="#fff"/>
        <path id="Trazado_630851" data-name="Trazado 630851" d="M392.622,248.132a42.452,42.452,0,0,1-3.284,7.237,42.446,42.446,0,0,1,3.284-7.237" transform="translate(-111.174 -70.854)" fill="#fff"/>
        <path id="Trazado_630852" data-name="Trazado 630852" d="M393.822,218.871a39.536,39.536,0,0,1-3.609-4.047,39.589,39.589,0,0,1-3.324-4.285,79.187,79.187,0,0,1,6.933,8.332" transform="translate(-110.476 -60.12)" fill="#fff"/>
        <path id="Trazado_630853" data-name="Trazado 630853" d="M367.432,198.365a32.458,32.458,0,0,1-.274-6.939,32.468,32.468,0,0,1,.274,6.939" transform="translate(-104.816 -54.662)" fill="#fff"/>
        <path id="Trazado_630854" data-name="Trazado 630854" d="M387.689,199.816A54.038,54.038,0,0,1,378.817,201a53.86,53.86,0,0,1,8.872-1.187" transform="translate(-108.172 -57.05)" fill="#fff"/>
        <path id="Trazado_630855" data-name="Trazado 630855" d="M426.506,223.087a43.919,43.919,0,0,1-2.654-5.059,44,44,0,0,1-2.32-5.222,43.981,43.981,0,0,1,2.655,5.06,44.012,44.012,0,0,1,2.319,5.221" transform="translate(-120.368 -60.767)" fill="#fff"/>
        <path id="Trazado_630856" data-name="Trazado 630856" d="M422.214,247.624a45.471,45.471,0,0,1,1.61-8.06,45.47,45.47,0,0,1-1.61,8.06" transform="translate(-120.558 -68.408)" fill="#fff"/>
        <path id="Trazado_630857" data-name="Trazado 630857" d="M437.949,265.052a46.454,46.454,0,0,1-2.118-5.49,46.486,46.486,0,0,1-1.768-5.613,93.166,93.166,0,0,1,3.886,11.1" transform="translate(-123.945 -72.516)" fill="#fff"/>
        <path id="Trazado_630858" data-name="Trazado 630858" d="M434.434,278.95a12.55,12.55,0,0,1-6.661-3.609c.073-.086,1.39,1,3.23,1.992s3.464,1.509,3.431,1.617" transform="translate(-122.151 -78.623)" fill="#fff"/>
        <path id="Trazado_630859" data-name="Trazado 630859" d="M458.343,303.264a20.2,20.2,0,0,1-2.223-5,20.135,20.135,0,0,1,2.223,5" transform="translate(-130.243 -85.171)" fill="#fff"/>
        <path id="Trazado_630860" data-name="Trazado 630860" d="M328.164,337.392a27.741,27.741,0,0,1-.741-6.37,27.746,27.746,0,0,1,.741,6.37" transform="translate(-93.484 -94.524)" fill="#fff"/>
        <path id="Trazado_630861" data-name="Trazado 630861" d="M396.4,335.78a26.283,26.283,0,0,1,1.3-6.11,26.263,26.263,0,0,1-1.3,6.11" transform="translate(-113.185 -94.138)" fill="#fff"/>
      </g>
    </g>
    <g id="Grupo_879709" data-name="Grupo 879709">
      <g id="Grupo_879708" data-name="Grupo 879708" clip-path="url(#clip-path)">
        <path id="Trazado_630862" data-name="Trazado 630862" d="M409.432,117.5l6.276-11.06a29.634,29.634,0,1,1,7.1,7.895l.01.014Z" transform="translate(-116.914 -17.522)" fill="#fafafa"/>
        <path id="Trazado_630863" data-name="Trazado 630863" d="M409.432,117.438l13.4-3.063.137-.031-.086-.112-.01-.014-.128.127a30.316,30.316,0,0,0,6.085,3.669,29.692,29.692,0,0,0,8.114,2.317,26.627,26.627,0,0,0,4.685.236c.807-.046,1.627-.065,2.454-.134l2.5-.378a29.857,29.857,0,0,0,18.493-11.871,29.5,29.5,0,0,0,5-11.432,30.16,30.16,0,0,0-.349-13.164,29.19,29.19,0,0,0-6.343-12.171l-1.209-1.33c-.4-.447-.871-.816-1.3-1.226-.451-.388-.857-.827-1.342-1.17l-1.42-1.062a12.5,12.5,0,0,0-1.47-.973l-1.5-.912-1.571-.763a13.819,13.819,0,0,0-1.587-.706,30.2,30.2,0,0,0-13.265-2.038,29.2,29.2,0,0,0-12.176,3.6A30.02,30.02,0,0,0,412.5,82.121a31.988,31.988,0,0,0-1.286,9.625,29.424,29.424,0,0,0,1.45,8.31,29.991,29.991,0,0,0,2.968,6.368v-.089l-6.2,11.1,6.351-11.016.026-.044-.027-.045a30.054,30.054,0,0,1-2.912-6.343,29.332,29.332,0,0,1-1.4-8.25,31.8,31.8,0,0,1,1.306-9.534A29.763,29.763,0,0,1,426.709,65.13a28.886,28.886,0,0,1,12.039-3.541,29.869,29.869,0,0,1,13.1,2.023,13.592,13.592,0,0,1,1.567.7l1.553.754,1.482.9a12.361,12.361,0,0,1,1.452.961l1.4,1.05c.479.338.88.773,1.325,1.156.425.406.894.769,1.286,1.211l1.193,1.314a28.859,28.859,0,0,1,6.269,12.02,29.859,29.859,0,0,1,.355,13.007,29.2,29.2,0,0,1-4.93,11.305,29.586,29.586,0,0,1-18.274,11.784l-2.475.382c-.819.071-1.633.093-2.431.141a26.4,26.4,0,0,1-4.645-.219,29.542,29.542,0,0,1-8.057-2.265,30.3,30.3,0,0,1-6.064-3.61l-.552-.422.423.549.011.013.051-.144-13.362,3.24" transform="translate(-116.914 -17.465)" fill="#263238"/>
        <path id="Trazado_630864" data-name="Trazado 630864" d="M464.669,99.884a2.891,2.891,0,1,0,2.891-2.891,2.89,2.89,0,0,0-2.891,2.891" transform="translate(-132.687 -27.697)" fill="#263238"/>
        <path id="Trazado_630865" data-name="Trazado 630865" d="M448.476,99.884a2.891,2.891,0,1,0,2.891-2.891,2.891,2.891,0,0,0-2.891,2.891" transform="translate(-128.064 -27.697)" fill="#263238"/>
        <path id="Trazado_630866" data-name="Trazado 630866" d="M432.169,98.438a2.891,2.891,0,1,0,3.949-1.058,2.892,2.892,0,0,0-3.949,1.058" transform="translate(-123.296 -27.696)" fill="#263238"/>
      </g>
    </g>
  </g>
</svg>
