<svg xmlns="http://www.w3.org/2000/svg" xmlns:xlink="http://www.w3.org/1999/xlink" width="150" height="150" viewBox="0 0 150 150">
  <defs>
    <filter id="Elipse_6666" x="0" y="0" width="150" height="150" filterUnits="userSpaceOnUse">
      <feOffset dy="3" input="SourceAlpha"/>
      <feGaussianBlur stdDeviation="3" result="blur"/>
      <feFlood flood-opacity="0.161"/>
      <feComposite operator="in" in2="blur"/>
      <feComposite in="SourceGraphic"/>
    </filter>
  </defs>
  <g id="Grupo_1034308" data-name="Grupo 1034308" transform="translate(6279.763 10908.081)">
    <g transform="matrix(1, 0, 0, 1, -6279.76, -10908.08)" filter="url(#Elipse_6666)">
      <circle id="Elipse_6666-2" data-name="Elipse 6666" cx="66" cy="66" r="66" transform="translate(9 6)" fill="#b6e1fd"/>
    </g>
    <g id="Grupo_878890" data-name="Grupo 878890" transform="translate(-6241.951 -10878.488)">
      <path id="Trazado_628051" data-name="Trazado 628051" d="M57.319,20.248,18.44,9.83,20.351,2.7,59.229,13.118a16.319,16.319,0,1,1-8.447,31.527L20.258,36.466a8.069,8.069,0,0,0-4.177,15.589l36.713,9.837-1.91,7.13L14.171,59.185a15.451,15.451,0,1,1,8-29.849l30.523,8.179a8.938,8.938,0,0,0,4.627-17.267Z" transform="translate(0.529 6.167)" fill="#12263f" fill-rule="evenodd"/>
      <path id="Trazado_628052" data-name="Trazado 628052" d="M13.713,7.9a3.027,3.027,0,1,0,2.14,3.707A3.027,3.027,0,0,0,13.713,7.9ZM2.876,8.125a10.408,10.408,0,1,1,7.36,12.747A10.408,10.408,0,0,1,2.876,8.125Z" transform="translate(0 0)" fill="#12263f" fill-rule="evenodd"/>
      <path id="Trazado_628053" data-name="Trazado 628053" d="M26.441,25.013a3.026,3.026,0,1,0,2.14,3.707,3.026,3.026,0,0,0-2.14-3.707Zm-10.837.23a10.408,10.408,0,1,1,7.36,12.748A10.408,10.408,0,0,1,15.6,25.242Z" transform="translate(34.249 46.06)" fill="#12263f" fill-rule="evenodd"/>
    </g>
  </g>
</svg>
