<svg xmlns="http://www.w3.org/2000/svg" xmlns:xlink="http://www.w3.org/1999/xlink" width="150" height="150" viewBox="0 0 150 150">
  <defs>
    <filter id="Trazado_634253" x="0" y="0" width="150" height="150" filterUnits="userSpaceOnUse">
      <feOffset dy="3" input="SourceAlpha"/>
      <feGaussianBlur stdDeviation="3" result="blur"/>
      <feFlood flood-opacity="0.161"/>
      <feComposite operator="in" in2="blur"/>
      <feComposite in="SourceGraphic"/>
    </filter>
  </defs>
  <g id="Grupo_1034304" data-name="Grupo 1034304" transform="translate(-382.07 -791.884)">
    <g id="Grupo_881013" data-name="Grupo 881013">
      <g transform="matrix(1, 0, 0, 1, 382.07, 791.88)" filter="url(#Trazado_634253)">
        <path id="Trazado_634253-2" data-name="Trazado 634253" d="M66,0A66,66,0,1,1,0,66,66,66,0,0,1,66,0Z" transform="translate(9 6)" fill="#b6e1fd"/>
      </g>
      <g id="Grupo_878886" data-name="Grupo 878886" transform="translate(354.694 824.114)">
        <g id="Grupo_878885" data-name="Grupo 878885" transform="translate(75.6 0)">
          <path id="Trazado_628044" data-name="Trazado 628044" d="M133.29,19.06a1.551,1.551,0,0,0-.371-1.01L117.583.532a.067.067,0,0,0-.012-.01,1.535,1.535,0,0,0-.309-.26c-.034-.022-.067-.042-.1-.061a1.625,1.625,0,0,0-.308-.129c-.029-.008-.055-.021-.085-.027A1.512,1.512,0,0,0,116.41,0H78.719A3.123,3.123,0,0,0,75.6,3.119v73.3a3.123,3.123,0,0,0,3.119,3.119h51.467a3.123,3.123,0,0,0,3.119-3.119V19.235A1.747,1.747,0,0,0,133.29,19.06ZM78.719,3.119H114.85V19.078a1.559,1.559,0,0,0,1.56,1.56h13.776l0,32.324H78.719ZM90.742,72.1H87.617V66.146H82.455V72.1H79.312V57.864h3.144v5.472h5.162V57.864h3.125Zm12.335-11.536H99.3V72.1H96.15V60.569H92.43v-2.7h10.647ZM116.585,72.1l-.206-5.451c-.061-1.711-.123-3.782-.123-5.853H116.2c-.433,1.817-1.008,3.846-1.543,5.515l-1.685,5.556h-2.446l-1.48-5.513c-.452-1.669-.926-3.7-1.255-5.558h-.041c-.081,1.924-.145,4.121-.244,5.9l-.248,5.409h-2.9l.883-14.24h4.174l1.357,4.753c.432,1.648.863,3.423,1.173,5.092H112c.391-1.649.863-3.527,1.316-5.113l1.48-4.733h4.091l.76,14.24h-3.064Zm14.126,0h-8.656V57.864H125.2V69.4h5.51v2.7Z" transform="translate(-75.6 0)" fill="#12263f"/>
          <path id="Trazado_628045" data-name="Trazado 628045" d="M154.132,203.518l11.948,5.551V206.43l-9.037-3.957v-.05l9.037-3.958v-2.638l-11.948,5.55Z" transform="translate(-142.791 -167.548)" fill="#12263f"/>
          <path id="Trazado_628046" data-name="Trazado 628046" d="M249.642,187.5h2.513l5.326-18.046h-2.513Z" transform="translate(-224.509 -144.982)" fill="#12263f"/>
          <path id="Trazado_628047" data-name="Trazado 628047" d="M313.938,198.465l9.236,3.958v.05l-9.236,3.957v2.638l11.947-5.476V201.3l-11.947-5.476Z" transform="translate(-279.52 -167.548)" fill="#12263f"/>
        </g>
      </g>
    </g>
  </g>
</svg>
