<svg xmlns="http://www.w3.org/2000/svg" xmlns:xlink="http://www.w3.org/1999/xlink" width="1258" height="253.119" viewBox="0 0 1258 253.119">
  <defs>
    <filter id="Trazado_583443" x="0" y="0" width="313" height="253.119" filterUnits="userSpaceOnUse">
      <feOffset dy="3" input="SourceAlpha"/>
      <feGaussianBlur stdDeviation="3" result="blur"/>
      <feFlood flood-opacity="0.161"/>
      <feComposite operator="in" in2="blur"/>
      <feComposite in="SourceGraphic"/>
    </filter>
    <clipPath id="clip-path">
      <rect id="Rectángulo_292092" data-name="Rectángulo 292092" width="6.363" height="6.363" fill="#7ab8f6"/>
    </clipPath>
    <clipPath id="clip-path-2">
      <path id="Trazado_517234" data-name="Trazado 517234" d="M52.474,45.143,50.557,47.06l-1.143-1.143L51.331,44,49.31,41.978,50.486,40.8l2.021,2.021,1.918-1.917,1.143,1.143L53.65,43.966l2.022,2.022L54.5,47.165Z" transform="translate(-49.31 -40.802)" fill="#7ab8f6"/>
    </clipPath>
    <filter id="Elipse_6866" x="84.349" y="19" width="146" height="146" filterUnits="userSpaceOnUse">
      <feOffset dy="3" input="SourceAlpha"/>
      <feGaussianBlur stdDeviation="3" result="blur-2"/>
      <feFlood flood-opacity="0.161"/>
      <feComposite operator="in" in2="blur-2"/>
      <feComposite in="SourceGraphic"/>
    </filter>
    <clipPath id="clip-path-3">
      <rect id="Rectángulo_292085" data-name="Rectángulo 292085" width="11.379" height="11.378" fill="#7ab8f6"/>
    </clipPath>
    <clipPath id="clip-path-4">
      <path id="Trazado_517229" data-name="Trazado 517229" d="M54.968,48.565l-3.428,3.428L49.5,49.95l3.428-3.429L49.31,42.906l2.1-2.1,3.615,3.615,3.429-3.428L60.5,43.033,57.072,46.46l3.616,3.616-2.1,2.1Z" transform="translate(-49.31 -40.802)" fill="#7ab8f6"/>
    </clipPath>
    <filter id="Trazado_583444" x="183.657" y="29.45" width="46.692" height="46.692" filterUnits="userSpaceOnUse">
      <feOffset dy="3" input="SourceAlpha"/>
      <feGaussianBlur stdDeviation="3" result="blur-3"/>
      <feFlood flood-opacity="0.161"/>
      <feComposite operator="in" in2="blur-3"/>
      <feComposite in="SourceGraphic"/>
    </filter>
    <filter id="Trazado_583445" x="72.525" y="88.06" width="36.011" height="36.011" filterUnits="userSpaceOnUse">
      <feOffset dy="3" input="SourceAlpha"/>
      <feGaussianBlur stdDeviation="3" result="blur-4"/>
      <feFlood flood-opacity="0.161"/>
      <feComposite operator="in" in2="blur-4"/>
      <feComposite in="SourceGraphic"/>
    </filter>
    <filter id="Trazado_583443-2" x="315" y="0" width="313" height="253.119" filterUnits="userSpaceOnUse">
      <feOffset dy="3" input="SourceAlpha"/>
      <feGaussianBlur stdDeviation="3" result="blur-5"/>
      <feFlood flood-opacity="0.161"/>
      <feComposite operator="in" in2="blur-5"/>
      <feComposite in="SourceGraphic"/>
    </filter>
    <filter id="Elipse_6866-2" x="399.349" y="19" width="146" height="146" filterUnits="userSpaceOnUse">
      <feOffset dy="3" input="SourceAlpha"/>
      <feGaussianBlur stdDeviation="3" result="blur-6"/>
      <feFlood flood-opacity="0.161"/>
      <feComposite operator="in" in2="blur-6"/>
      <feComposite in="SourceGraphic"/>
    </filter>
    <filter id="Trazado_583444-2" x="498.657" y="29.45" width="46.692" height="46.692" filterUnits="userSpaceOnUse">
      <feOffset dy="3" input="SourceAlpha"/>
      <feGaussianBlur stdDeviation="3" result="blur-7"/>
      <feFlood flood-opacity="0.161"/>
      <feComposite operator="in" in2="blur-7"/>
      <feComposite in="SourceGraphic"/>
    </filter>
    <filter id="Trazado_583445-2" x="387.525" y="88.06" width="36.011" height="36.011" filterUnits="userSpaceOnUse">
      <feOffset dy="3" input="SourceAlpha"/>
      <feGaussianBlur stdDeviation="3" result="blur-8"/>
      <feFlood flood-opacity="0.161"/>
      <feComposite operator="in" in2="blur-8"/>
      <feComposite in="SourceGraphic"/>
    </filter>
    <filter id="Trazado_583443-3" x="630" y="0" width="313" height="253.119" filterUnits="userSpaceOnUse">
      <feOffset dy="3" input="SourceAlpha"/>
      <feGaussianBlur stdDeviation="3" result="blur-9"/>
      <feFlood flood-opacity="0.161"/>
      <feComposite operator="in" in2="blur-9"/>
      <feComposite in="SourceGraphic"/>
    </filter>
    <filter id="Elipse_6866-3" x="714.349" y="19" width="146" height="146" filterUnits="userSpaceOnUse">
      <feOffset dy="3" input="SourceAlpha"/>
      <feGaussianBlur stdDeviation="3" result="blur-10"/>
      <feFlood flood-opacity="0.161"/>
      <feComposite operator="in" in2="blur-10"/>
      <feComposite in="SourceGraphic"/>
    </filter>
    <filter id="Trazado_583444-3" x="813.657" y="29.45" width="46.692" height="46.692" filterUnits="userSpaceOnUse">
      <feOffset dy="3" input="SourceAlpha"/>
      <feGaussianBlur stdDeviation="3" result="blur-11"/>
      <feFlood flood-opacity="0.161"/>
      <feComposite operator="in" in2="blur-11"/>
      <feComposite in="SourceGraphic"/>
    </filter>
    <filter id="Trazado_583445-3" x="702.525" y="88.06" width="36.011" height="36.011" filterUnits="userSpaceOnUse">
      <feOffset dy="3" input="SourceAlpha"/>
      <feGaussianBlur stdDeviation="3" result="blur-12"/>
      <feFlood flood-opacity="0.161"/>
      <feComposite operator="in" in2="blur-12"/>
      <feComposite in="SourceGraphic"/>
    </filter>
    <filter id="Trazado_583443-4" x="945" y="0" width="313" height="253.119" filterUnits="userSpaceOnUse">
      <feOffset dy="3" input="SourceAlpha"/>
      <feGaussianBlur stdDeviation="3" result="blur-13"/>
      <feFlood flood-opacity="0.161"/>
      <feComposite operator="in" in2="blur-13"/>
      <feComposite in="SourceGraphic"/>
    </filter>
    <filter id="Elipse_6866-4" x="1029.349" y="19" width="146" height="146" filterUnits="userSpaceOnUse">
      <feOffset dy="3" input="SourceAlpha"/>
      <feGaussianBlur stdDeviation="3" result="blur-14"/>
      <feFlood flood-opacity="0.161"/>
      <feComposite operator="in" in2="blur-14"/>
      <feComposite in="SourceGraphic"/>
    </filter>
    <filter id="Trazado_583444-4" x="1128.657" y="29.45" width="46.692" height="46.692" filterUnits="userSpaceOnUse">
      <feOffset dy="3" input="SourceAlpha"/>
      <feGaussianBlur stdDeviation="3" result="blur-15"/>
      <feFlood flood-opacity="0.161"/>
      <feComposite operator="in" in2="blur-15"/>
      <feComposite in="SourceGraphic"/>
    </filter>
    <filter id="Trazado_583445-4" x="1017.525" y="88.06" width="36.011" height="36.011" filterUnits="userSpaceOnUse">
      <feOffset dy="3" input="SourceAlpha"/>
      <feGaussianBlur stdDeviation="3" result="blur-16"/>
      <feFlood flood-opacity="0.161"/>
      <feComposite operator="in" in2="blur-16"/>
      <feComposite in="SourceGraphic"/>
    </filter>
  </defs>
  <g id="Grupo_1034308" data-name="Grupo 1034308" transform="translate(-171 -5740.302)">
    <g transform="matrix(1, 0, 0, 1, 171, 5740.3)" filter="url(#Trazado_583443)">
      <path id="Trazado_583443-5" data-name="Trazado 583443" d="M18.859,0H276.141C286.556,0,295,5.592,295,12.49V222.629c0,6.9-8.444,12.49-18.859,12.49H18.859C8.444,235.119,0,229.527,0,222.629V12.49C0,5.592,8.444,0,18.859,0Z" transform="translate(9 6)" fill="#fff0d8"/>
    </g>
    <path id="Trazado_634280" data-name="Trazado 634280" d="M50.156,17.313a4.045,4.045,0,0,1-1.868,1.393,7.3,7.3,0,0,1-2.8.47,4.383,4.383,0,0,1-2.2-.589,3.886,3.886,0,0,1-1.477-1.613,5.967,5.967,0,0,1-.615-2.386,12.691,12.691,0,0,1,.259-2.83A8.815,8.815,0,0,1,42.58,8.673a5.615,5.615,0,0,1,2-1.986,5.251,5.251,0,0,1,2.747-.659,4.038,4.038,0,0,1,2.843,1.059,4.328,4.328,0,0,1,1.208,2.878H49.743a2.928,2.928,0,0,0-.729-1.87,2.437,2.437,0,0,0-1.749-.688A3.368,3.368,0,0,0,44.5,8.6a6.9,6.9,0,0,0-1.463,3.654l-.167,1.233-.026.669a4.387,4.387,0,0,0,.712,2.681,2.4,2.4,0,0,0,2,.964,4.145,4.145,0,0,0,2.944-.914l.527-2.874H46.14l.246-1.38h4.5Zm7.453-8a3.428,3.428,0,0,1,2.048.65,3.7,3.7,0,0,1,1.261,1.745,5.4,5.4,0,0,1,.277,2.43l-.018.193a6.4,6.4,0,0,1-.826,2.509,4.848,4.848,0,0,1-1.705,1.745,4.158,4.158,0,0,1-2.294.589,3.434,3.434,0,0,1-2.043-.65A3.611,3.611,0,0,1,53.057,16.8a5.547,5.547,0,0,1-.281-2.4,6.48,6.48,0,0,1,.8-2.654,4.96,4.96,0,0,1,1.718-1.824A4.109,4.109,0,0,1,57.609,9.314Zm-3.234,5.1a5.4,5.4,0,0,0,0,1.151,2.821,2.821,0,0,0,.62,1.652,1.86,1.86,0,0,0,1.419.642,2.534,2.534,0,0,0,1.459-.391A3.284,3.284,0,0,0,59,16.205a5.311,5.311,0,0,0,.589-1.872,8.431,8.431,0,0,0,.026-1.362,2.927,2.927,0,0,0-.642-1.679,1.9,1.9,0,0,0-1.424-.65,2.592,2.592,0,0,0-2.092.967,4.776,4.776,0,0,0-1.063,2.6Zm13.28-5.1a3.428,3.428,0,0,1,2.048.65,3.7,3.7,0,0,1,1.261,1.745,5.4,5.4,0,0,1,.277,2.43l-.018.193a6.4,6.4,0,0,1-.826,2.509,4.848,4.848,0,0,1-1.705,1.745,4.158,4.158,0,0,1-2.294.589,3.434,3.434,0,0,1-2.043-.65A3.611,3.611,0,0,1,63.1,16.8a5.547,5.547,0,0,1-.281-2.4,6.48,6.48,0,0,1,.8-2.654,4.96,4.96,0,0,1,1.718-1.824A4.109,4.109,0,0,1,67.655,9.314Zm-3.234,5.1a5.4,5.4,0,0,0,0,1.151,2.821,2.821,0,0,0,.62,1.652,1.86,1.86,0,0,0,1.419.642,2.534,2.534,0,0,0,1.459-.391,3.284,3.284,0,0,0,1.125-1.261,5.311,5.311,0,0,0,.589-1.872,8.431,8.431,0,0,0,.026-1.362,2.927,2.927,0,0,0-.642-1.679,1.9,1.9,0,0,0-1.424-.65,2.592,2.592,0,0,0-2.092.967,4.776,4.776,0,0,0-1.063,2.6Zm8.464-.185a7.75,7.75,0,0,1,.839-2.7,4.39,4.39,0,0,1,1.529-1.7,3.545,3.545,0,0,1,1.973-.523,2.926,2.926,0,0,1,2.5,1.248l.316-1.063H81.5L79.916,18.8a4.627,4.627,0,0,1-1.477,2.914,4.159,4.159,0,0,1-3.015,1.042,4.281,4.281,0,0,1-1.85-.457,3.518,3.518,0,0,1-1.393-1.2l.905-.976a2.853,2.853,0,0,0,4.2.677,3.265,3.265,0,0,0,1.042-1.9l.176-.844a3.6,3.6,0,0,1-2.716,1.125,2.8,2.8,0,0,1-1.542-.479,2.913,2.913,0,0,1-1.015-1.31,5.354,5.354,0,0,1-.4-1.912A9.825,9.825,0,0,1,72.885,14.228Zm1.538.9a3.345,3.345,0,0,0,.435,1.944,1.644,1.644,0,0,0,1.393.724A2.881,2.881,0,0,0,78.7,16.4l.747-4.363a2,2,0,0,0-1.907-1.352,2.468,2.468,0,0,0-2.123,1.053,5.488,5.488,0,0,0-.98,2.941ZM84.029,19H82.447L84.785,5.5h1.591Zm6.715.176a3.429,3.429,0,0,1-2.777-1.31,4.507,4.507,0,0,1-.844-3.261l.044-.378a6.327,6.327,0,0,1,.839-2.584,4.882,4.882,0,0,1,1.683-1.762,3.927,3.927,0,0,1,2.145-.567,3.024,3.024,0,0,1,2.3.976,4.012,4.012,0,0,1,.914,2.549,7.448,7.448,0,0,1-.035,1.143l-.1.729H88.705a3.212,3.212,0,0,0,.426,2.2,2.019,2.019,0,0,0,1.745.94,3.383,3.383,0,0,0,2.6-1.266l.914.773a4.183,4.183,0,0,1-1.542,1.349A4.371,4.371,0,0,1,90.744,19.176Zm1.011-8.534a2.324,2.324,0,0,0-1.718.668,4.748,4.748,0,0,0-1.165,2.065l4.623.009.035-.141a2.6,2.6,0,0,0-.356-1.841A1.674,1.674,0,0,0,91.755,10.642Zm12.27,4.412-.035,1.547.6-1.512L108.41,6.2h1.4l1.011,9,.088,1.459.554-1.767,3.27-8.692h1.7L111.416,19h-1.5l-1.107-9.4-.035-.879-.369,1.02L104.323,19h-1.5l-1-12.8h1.608Zm16.04,4.122a3.429,3.429,0,0,1-2.777-1.31,4.507,4.507,0,0,1-.844-3.261l.044-.378a6.327,6.327,0,0,1,.839-2.584,4.882,4.882,0,0,1,1.683-1.762,3.927,3.927,0,0,1,2.145-.567,3.024,3.024,0,0,1,2.3.976,4.012,4.012,0,0,1,.914,2.549,7.448,7.448,0,0,1-.035,1.143l-.1.729h-6.214a3.212,3.212,0,0,0,.426,2.2,2.019,2.019,0,0,0,1.745.94,3.383,3.383,0,0,0,2.6-1.266l.914.773a4.183,4.183,0,0,1-1.542,1.349A4.371,4.371,0,0,1,120.064,19.176Zm1.011-8.534a2.324,2.324,0,0,0-1.718.668,4.748,4.748,0,0,0-1.165,2.065l4.623.009.035-.141a2.6,2.6,0,0,0-.356-1.841A1.674,1.674,0,0,0,121.075,10.642Zm12.841,3.647a7.41,7.41,0,0,1-.8,2.628,4.48,4.48,0,0,1-1.512,1.731,3.44,3.44,0,0,1-1.969.536,2.936,2.936,0,0,1-2.558-1.292L126.753,19h-1.468l2.347-13.5h1.591l-.958,5.045a3.5,3.5,0,0,1,2.777-1.23,2.653,2.653,0,0,1,2.136,1.011,4.448,4.448,0,0,1,.809,2.689,8.283,8.283,0,0,1-.053,1.09Zm-1.512-.917a3.385,3.385,0,0,0-.431-1.962,1.648,1.648,0,0,0-1.4-.715,2.9,2.9,0,0,0-2.514,1.492l-.712,4.134a2.024,2.024,0,0,0,1.978,1.484,2.311,2.311,0,0,0,1.63-.553,3.613,3.613,0,0,0,1.059-1.646A7.4,7.4,0,0,0,132.4,13.372Zm8.657,3.053q.132-.984-1.081-1.389l-1.652-.483q-2.092-.721-2.021-2.391a2.634,2.634,0,0,1,1.147-2.061,4.085,4.085,0,0,1,2.553-.787,3.406,3.406,0,0,1,2.342.839,2.659,2.659,0,0,1,.866,2.14l-1.582-.009a1.484,1.484,0,0,0-.448-1.16,1.774,1.774,0,0,0-1.239-.466,2.316,2.316,0,0,0-1.424.4,1.48,1.48,0,0,0-.642,1.037q-.114.826,1.011,1.2l.8.22a5.15,5.15,0,0,1,2.32,1.1,2.1,2.1,0,0,1,.633,1.679,2.666,2.666,0,0,1-.58,1.547,3.317,3.317,0,0,1-1.406,1.006,4.7,4.7,0,0,1-1.872.321,3.71,3.71,0,0,1-2.5-.883,2.731,2.731,0,0,1-.949-2.228l1.591.009a1.686,1.686,0,0,0,.51,1.283,1.948,1.948,0,0,0,1.4.483,2.741,2.741,0,0,0,1.5-.365A1.4,1.4,0,0,0,141.061,16.425ZM145.983,19H144.4l1.652-9.51h1.582Zm1.31-12.981a.87.87,0,0,1,.672.242.9.9,0,0,1,.268.681.938.938,0,0,1-.94.958.876.876,0,0,1-.677-.237.86.86,0,0,1-.255-.668,1,1,0,0,1,.264-.686A.93.93,0,0,1,147.293,6.019Zm5.493,1.169-.4,2.3h1.731l-.22,1.257h-1.723l-.993,5.915a2.062,2.062,0,0,0-.009.422.67.67,0,0,0,.747.686,4.556,4.556,0,0,0,.773-.088l-.123,1.327a4.328,4.328,0,0,1-1.16.158,1.661,1.661,0,0,1-1.424-.7,2.7,2.7,0,0,1-.369-1.833l.967-5.889H148.9l.22-1.257H150.8l.4-2.3Zm5.7,11.988a3.429,3.429,0,0,1-2.777-1.31,4.507,4.507,0,0,1-.844-3.261l.044-.378a6.327,6.327,0,0,1,.839-2.584,4.882,4.882,0,0,1,1.683-1.762,3.927,3.927,0,0,1,2.145-.567,3.024,3.024,0,0,1,2.3.976,4.012,4.012,0,0,1,.914,2.549,7.448,7.448,0,0,1-.035,1.143l-.1.729h-6.214a3.212,3.212,0,0,0,.426,2.2,2.019,2.019,0,0,0,1.745.94,3.383,3.383,0,0,0,2.6-1.266l.914.773a4.183,4.183,0,0,1-1.542,1.349A4.371,4.371,0,0,1,158.49,19.176Zm1.011-8.534a2.324,2.324,0,0,0-1.718.668,4.748,4.748,0,0,0-1.165,2.065l4.623.009.035-.141a2.6,2.6,0,0,0-.356-1.841A1.674,1.674,0,0,0,159.5,10.642ZM69.026,44.176a4.1,4.1,0,0,1-2.123-.589,3.815,3.815,0,0,1-1.419-1.657,6.241,6.241,0,0,1-.571-2.457,11.667,11.667,0,0,1,.237-2.628,9.012,9.012,0,0,1,1-2.821,6.358,6.358,0,0,1,1.731-2.013,4.983,4.983,0,0,1,3.146-.984,3.786,3.786,0,0,1,2.953,1.3,5.391,5.391,0,0,1,1.16,3.415,12.572,12.572,0,0,1-.189,2.347,9.715,9.715,0,0,1-.8,2.646,6.6,6.6,0,0,1-1.463,2.048A5.033,5.033,0,0,1,69.026,44.176Zm4.491-8.033a4.434,4.434,0,0,0-.606-2.685,2.309,2.309,0,0,0-1.96-.989,3.333,3.333,0,0,0-2.1.633,4.791,4.791,0,0,0-1.521,2,10.3,10.3,0,0,0-.751,3.371l-.026.571a4.472,4.472,0,0,0,.615,2.7,2.29,2.29,0,0,0,1.942,1.011,3.386,3.386,0,0,0,2.755-1.2,6.814,6.814,0,0,0,1.455-3.494A15.742,15.742,0,0,0,73.518,36.143Zm11.276,3.146a7.545,7.545,0,0,1-.782,2.61,4.442,4.442,0,0,1-1.5,1.736,3.44,3.44,0,0,1-1.986.549,3.167,3.167,0,0,1-2.531-1.116l-.853,4.588H75.548L77.833,34.49l1.441-.009L79.1,35.545a3.608,3.608,0,0,1,2.821-1.23,2.653,2.653,0,0,1,2.136,1.011,4.448,4.448,0,0,1,.809,2.689,9.464,9.464,0,0,1-.044,1.09Zm-1.564-.18.044-.737a3.34,3.34,0,0,0-.488-1.962,1.715,1.715,0,0,0-1.411-.715A2.821,2.821,0,0,0,78.993,37l-.8,4.556a1.99,1.99,0,0,0,1.925,1.3,2.5,2.5,0,0,0,2.017-.926A5.374,5.374,0,0,0,83.229,39.109Zm7.04-6.922-.4,2.3H91.6l-.22,1.257H89.654l-.993,5.915a2.062,2.062,0,0,0-.009.422.67.67,0,0,0,.747.686,4.556,4.556,0,0,0,.773-.088l-.123,1.327a4.328,4.328,0,0,1-1.16.158,1.661,1.661,0,0,1-1.424-.7,2.7,2.7,0,0,1-.369-1.833l.967-5.889H86.385l.22-1.257h1.679l.4-2.3ZM93.583,44H92l1.652-9.51h1.582Zm1.31-12.981a.87.87,0,0,1,.672.242.9.9,0,0,1,.268.681.938.938,0,0,1-.94.958.876.876,0,0,1-.677-.237.86.86,0,0,1-.255-.668,1,1,0,0,1,.264-.686A.93.93,0,0,1,94.893,31.019Zm4.43,3.463-.2,1.063a3.718,3.718,0,0,1,2.892-1.23,2.934,2.934,0,0,1,1.534.413,2.026,2.026,0,0,1,.866,1.116,3.927,3.927,0,0,1,3.155-1.529,2.515,2.515,0,0,1,2.1.958,3.422,3.422,0,0,1,.5,2.479L109.122,44H107.54l1.037-6.267a3.311,3.311,0,0,0,0-.835q-.167-1.2-1.564-1.222a2.4,2.4,0,0,0-1.578.541,2.5,2.5,0,0,0-.91,1.463L103.444,44h-1.6l1.055-6.258a2.009,2.009,0,0,0-.294-1.5,1.549,1.549,0,0,0-1.27-.545,2.6,2.6,0,0,0-2.364,1.354L97.767,44H96.176l1.652-9.51ZM113.3,44h-1.582l1.652-9.51h1.582Zm1.31-12.981a.87.87,0,0,1,.672.242.9.9,0,0,1,.268.681.938.938,0,0,1-.94.958.876.876,0,0,1-.677-.237.86.86,0,0,1-.255-.668,1,1,0,0,1,.264-.686A.93.93,0,0,1,114.606,31.019Zm3.076,11.654h5.344L122.789,44h-7.33l.22-1.274,6.231-6.891h-4.966l.246-1.345h7l-.211,1.23Zm11.074,1.5a3.429,3.429,0,0,1-2.777-1.31,4.507,4.507,0,0,1-.844-3.261l.044-.378a6.327,6.327,0,0,1,.839-2.584,4.882,4.882,0,0,1,1.683-1.762,3.927,3.927,0,0,1,2.145-.567,3.024,3.024,0,0,1,2.3.976,4.012,4.012,0,0,1,.914,2.549,7.448,7.448,0,0,1-.035,1.143l-.1.729h-6.214a3.212,3.212,0,0,0,.426,2.2,2.019,2.019,0,0,0,1.745.94,3.383,3.383,0,0,0,2.6-1.266l.914.773a4.183,4.183,0,0,1-1.542,1.349A4.371,4.371,0,0,1,128.757,44.176Zm1.011-8.534a2.324,2.324,0,0,0-1.718.668,4.748,4.748,0,0,0-1.165,2.065l4.623.009.035-.141a2.6,2.6,0,0,0-.356-1.841A1.674,1.674,0,0,0,129.768,35.642Zm10.125.3-.747-.079a2.722,2.722,0,0,0-2.408,1.38L135.568,44h-1.591l1.652-9.51,1.538-.009-.237,1.107a2.843,2.843,0,0,1,2.382-1.292,2.918,2.918,0,0,1,.756.132Z" transform="translate(226 5917.96)" fill="#12263f"/>
    <g id="Grupo_845759" data-name="Grupo 845759" transform="translate(371.443 5875.117)">
      <g id="Grupo_751851" data-name="Grupo 751851" transform="translate(0 0)">
        <g id="Grupo_751850" data-name="Grupo 751850" clip-path="url(#clip-path)">
          <g id="Grupo_751849" data-name="Grupo 751849" transform="translate(0)">
            <g id="Grupo_751848" data-name="Grupo 751848" clip-path="url(#clip-path-2)">
              <rect id="Rectángulo_292091" data-name="Rectángulo 292091" width="6.363" height="6.363" transform="translate(0)" fill="#7ab8f6"/>
            </g>
          </g>
        </g>
      </g>
    </g>
    <g id="Grupo_845761" data-name="Grupo 845761" transform="translate(252.525 5765.302)">
      <g id="Grupo_845760" data-name="Grupo 845760">
        <g transform="matrix(1, 0, 0, 1, -81.53, -25)" filter="url(#Elipse_6866)">
          <circle id="Elipse_6866-5" data-name="Elipse 6866" cx="64" cy="64" r="64" transform="translate(93.35 25)" fill="#c2e0ff"/>
        </g>
        <text id="_01" data-name="01" transform="translate(42.132 85.56)" fill="#12263f" font-size="60" font-family="Roboto-Black, Roboto" font-weight="800"><tspan x="0" y="0">01</tspan></text>
        <g id="Grupo_845758" data-name="Grupo 845758" transform="translate(14.752 8.029)">
          <g id="Grupo_751839" data-name="Grupo 751839">
            <g id="Grupo_751838" data-name="Grupo 751838" clip-path="url(#clip-path-3)">
              <g id="Grupo_751837" data-name="Grupo 751837" transform="translate(0.001)">
                <g id="Grupo_751836" data-name="Grupo 751836" clip-path="url(#clip-path-4)">
                  <rect id="Rectángulo_292084" data-name="Rectángulo 292084" width="11.378" height="11.378" transform="translate(0)" fill="#7ab8f6"/>
                </g>
              </g>
            </g>
          </g>
        </g>
        <g transform="matrix(1, 0, 0, 1, -81.53, -25)" filter="url(#Trazado_583444)">
          <path id="Trazado_583444-5" data-name="Trazado 583444" d="M247.741,98.577A14.346,14.346,0,1,1,233.4,84.231a14.346,14.346,0,0,1,14.346,14.346" transform="translate(-26.39 -48.78)" fill="#7ab8f6"/>
        </g>
        <g transform="matrix(1, 0, 0, 1, -81.53, -25)" filter="url(#Trazado_583445)">
          <path id="Trazado_583445-5" data-name="Trazado 583445" d="M237.06,93.237a9.006,9.006,0,1,1-9.006-9.006,9.005,9.005,0,0,1,9.006,9.006" transform="translate(-137.52 9.83)" fill="#7ab8f6"/>
        </g>
      </g>
    </g>
    <g transform="matrix(1, 0, 0, 1, 171, 5740.3)" filter="url(#Trazado_583443-2)">
      <path id="Trazado_583443-6" data-name="Trazado 583443" d="M18.859,0H276.141C286.556,0,295,5.592,295,12.49V222.629c0,6.9-8.444,12.49-18.859,12.49H18.859C8.444,235.119,0,229.527,0,222.629V12.49C0,5.592,8.444,0,18.859,0Z" transform="translate(324 6)" fill="#fff0d8"/>
    </g>
    <path id="Trazado_634281" data-name="Trazado 634281" d="M14.732,7.583H10.75L8.773,19H7.129L9.107,7.583H5.125L5.372,6.2h9.606Zm3.806,11.593a3.429,3.429,0,0,1-2.777-1.31,4.507,4.507,0,0,1-.844-3.261l.044-.378a6.327,6.327,0,0,1,.839-2.584,4.882,4.882,0,0,1,1.683-1.762,3.927,3.927,0,0,1,2.145-.567,3.024,3.024,0,0,1,2.3.976,4.012,4.012,0,0,1,.914,2.549,7.448,7.448,0,0,1-.035,1.143l-.1.729H16.5a3.212,3.212,0,0,0,.426,2.2,2.019,2.019,0,0,0,1.745.94,3.383,3.383,0,0,0,2.6-1.266l.914.773a4.183,4.183,0,0,1-1.542,1.349A4.371,4.371,0,0,1,18.538,19.176Zm1.011-8.534a2.324,2.324,0,0,0-1.718.668,4.748,4.748,0,0,0-1.165,2.065l4.623.009.035-.141a2.6,2.6,0,0,0-.356-1.841A1.674,1.674,0,0,0,19.548,10.642Zm10.1,5.783q.132-.984-1.081-1.389l-1.652-.483q-2.092-.721-2.021-2.391A2.634,2.634,0,0,1,26.039,10.1a4.085,4.085,0,0,1,2.553-.787,3.406,3.406,0,0,1,2.342.839,2.659,2.659,0,0,1,.866,2.14l-1.582-.009a1.484,1.484,0,0,0-.448-1.16,1.774,1.774,0,0,0-1.239-.466,2.316,2.316,0,0,0-1.424.4,1.48,1.48,0,0,0-.642,1.037q-.114.826,1.011,1.2l.8.22a5.15,5.15,0,0,1,2.32,1.1,2.1,2.1,0,0,1,.633,1.679,2.666,2.666,0,0,1-.58,1.547,3.317,3.317,0,0,1-1.406,1.006,4.7,4.7,0,0,1-1.872.321,3.71,3.71,0,0,1-2.5-.883,2.731,2.731,0,0,1-.949-2.228l1.591.009a1.686,1.686,0,0,0,.51,1.283,1.948,1.948,0,0,0,1.4.483,2.741,2.741,0,0,0,1.5-.365A1.4,1.4,0,0,0,29.647,16.425Zm7.4-9.237-.4,2.3h1.731l-.22,1.257H36.432l-.993,5.915a2.062,2.062,0,0,0-.009.422.67.67,0,0,0,.747.686,4.556,4.556,0,0,0,.773-.088l-.123,1.327a4.328,4.328,0,0,1-1.16.158,1.661,1.661,0,0,1-1.424-.7,2.7,2.7,0,0,1-.369-1.833l.967-5.889H33.163l.22-1.257h1.679l.4-2.3Zm1.942,8.438a4.025,4.025,0,0,1,1.951-2.918l1-.668-.378-.677A3.939,3.939,0,0,1,41,9.209a3.393,3.393,0,0,1,1.055-2.333,3.249,3.249,0,0,1,2.391-.848,2.76,2.76,0,0,1,1.96.769,2.283,2.283,0,0,1,.7,1.868,3.729,3.729,0,0,1-1.872,2.769l-1.292.861,2.188,3.349a6.121,6.121,0,0,0,1-2.549h1.415a6.489,6.489,0,0,1-1.591,3.753L48.341,19H46.566l-.642-.993a5.173,5.173,0,0,1-3.366,1.16,3.716,3.716,0,0,1-2.672-1.006A3.055,3.055,0,0,1,38.99,15.625Zm3.621,2.224a4,4,0,0,0,2.5-.993l-2.382-3.727-.378.264a3.583,3.583,0,0,0-1.74,2.241,1.868,1.868,0,0,0,.422,1.573A2.054,2.054,0,0,0,42.611,17.849Zm-.044-8.7A2.8,2.8,0,0,0,43,10.773l.237.413,1.345-.905a2.336,2.336,0,0,0,1.037-1.626,1.119,1.119,0,0,0-.308-.932,1.278,1.278,0,0,0-.958-.369,1.6,1.6,0,0,0-1.222.532A2.105,2.105,0,0,0,42.567,9.147ZM60.391,7.583H56.41L54.432,19H52.789L54.766,7.583H50.785l.246-1.38h9.606ZM64.909,19a2.13,2.13,0,0,1-.062-.5l.026-.5A3.9,3.9,0,0,1,62.1,19.176a2.841,2.841,0,0,1-2.043-.8,2.407,2.407,0,0,1-.716-1.947,2.927,2.927,0,0,1,1.323-2.36,5.631,5.631,0,0,1,3.248-.848l1.661.009.105-.756a1.738,1.738,0,0,0-.33-1.349,1.591,1.591,0,0,0-1.252-.514,2.453,2.453,0,0,0-1.446.4,1.7,1.7,0,0,0-.769,1.1l-1.6.009a2.55,2.55,0,0,1,.65-1.481,3.784,3.784,0,0,1,1.468-1,4.742,4.742,0,0,1,1.854-.338,3.153,3.153,0,0,1,2.312.9,2.794,2.794,0,0,1,.694,2.3l-.773,4.711-.044.677a3.318,3.318,0,0,0,.105.958L66.526,19Zm-2.5-1.23a2.774,2.774,0,0,0,1.446-.365,3.661,3.661,0,0,0,1.173-1.059l.343-1.96-1.2-.009a4.561,4.561,0,0,0-2.3.475,1.748,1.748,0,0,0-.905,1.345,1.361,1.361,0,0,0,.312,1.112A1.486,1.486,0,0,0,62.413,17.77ZM74.594,10.94l-.747-.079a2.722,2.722,0,0,0-2.408,1.38L70.27,19H68.679l1.652-9.51,1.538-.009-.237,1.107A2.843,2.843,0,0,1,74.014,9.3a2.918,2.918,0,0,1,.756.132Zm.545,3.287a7.75,7.75,0,0,1,.839-2.7,4.39,4.39,0,0,1,1.529-1.7,3.545,3.545,0,0,1,1.973-.523,2.926,2.926,0,0,1,2.5,1.248l.316-1.063h1.459L82.17,18.8a4.627,4.627,0,0,1-1.477,2.914,4.159,4.159,0,0,1-3.015,1.042,4.281,4.281,0,0,1-1.85-.457,3.518,3.518,0,0,1-1.393-1.2l.905-.976a2.853,2.853,0,0,0,4.2.677,3.265,3.265,0,0,0,1.042-1.9l.176-.844a3.6,3.6,0,0,1-2.716,1.125A2.8,2.8,0,0,1,76.5,18.7a2.913,2.913,0,0,1-1.015-1.31,5.354,5.354,0,0,1-.4-1.912A9.825,9.825,0,0,1,75.139,14.228Zm1.538.9a3.345,3.345,0,0,0,.435,1.944,1.644,1.644,0,0,0,1.393.724,2.881,2.881,0,0,0,2.452-1.4l.747-4.363A2,2,0,0,0,79.8,10.686a2.468,2.468,0,0,0-2.123,1.053,5.488,5.488,0,0,0-.98,2.941Zm12,4.048a3.429,3.429,0,0,1-2.777-1.31,4.507,4.507,0,0,1-.844-3.261l.044-.378a6.327,6.327,0,0,1,.839-2.584A4.882,4.882,0,0,1,87.62,9.881a3.927,3.927,0,0,1,2.145-.567,3.024,3.024,0,0,1,2.3.976,4.012,4.012,0,0,1,.914,2.549,7.448,7.448,0,0,1-.035,1.143l-.1.729H86.635a3.212,3.212,0,0,0,.426,2.2,2.019,2.019,0,0,0,1.745.94,3.383,3.383,0,0,0,2.6-1.266l.914.773a4.183,4.183,0,0,1-1.542,1.349A4.371,4.371,0,0,1,88.674,19.176Zm1.011-8.534a2.324,2.324,0,0,0-1.718.668A4.748,4.748,0,0,0,86.8,13.375l4.623.009.035-.141A2.6,2.6,0,0,0,91.1,11.4,1.674,1.674,0,0,0,89.685,10.642ZM98.1,7.188l-.4,2.3h1.731l-.22,1.257H97.481l-.993,5.915a2.062,2.062,0,0,0-.009.422.67.67,0,0,0,.747.686A4.556,4.556,0,0,0,98,17.682l-.123,1.327a4.328,4.328,0,0,1-1.16.158,1.661,1.661,0,0,1-1.424-.7,2.7,2.7,0,0,1-.369-1.833l.967-5.889H94.211l.22-1.257H96.11l.4-2.3Zm6.46,7.04a7.4,7.4,0,0,1,.8-2.619,4.534,4.534,0,0,1,1.538-1.749,3.517,3.517,0,0,1,2.013-.554,2.971,2.971,0,0,1,2.443,1.16l.914-4.966h1.591L111.517,19h-1.45l.167-1.02a3.506,3.506,0,0,1-2.777,1.2,2.627,2.627,0,0,1-2.1-1.033,4.5,4.5,0,0,1-.844-2.676A8.547,8.547,0,0,1,104.556,14.228Zm1.529.909a3.3,3.3,0,0,0,.448,1.949,1.617,1.617,0,0,0,1.389.711,2.874,2.874,0,0,0,2.452-1.387l.756-4.389a1.973,1.973,0,0,0-1.916-1.334,2.411,2.411,0,0,0-1.657.566,3.663,3.663,0,0,0-1.09,1.659A6.842,6.842,0,0,0,106.085,15.136Zm12.059,4.04a3.429,3.429,0,0,1-2.777-1.31,4.507,4.507,0,0,1-.844-3.261l.044-.378a6.327,6.327,0,0,1,.839-2.584,4.882,4.882,0,0,1,1.683-1.762,3.927,3.927,0,0,1,2.145-.567,3.024,3.024,0,0,1,2.3.976,4.012,4.012,0,0,1,.914,2.549,7.448,7.448,0,0,1-.035,1.143l-.1.729H116.1a3.212,3.212,0,0,0,.426,2.2,2.019,2.019,0,0,0,1.745.94,3.383,3.383,0,0,0,2.6-1.266l.914.773a4.183,4.183,0,0,1-1.542,1.349A4.371,4.371,0,0,1,118.144,19.176Zm1.011-8.534a2.324,2.324,0,0,0-1.718.668,4.748,4.748,0,0,0-1.165,2.065l4.623.009.035-.141a2.6,2.6,0,0,0-.356-1.841A1.674,1.674,0,0,0,119.155,10.642Zm13.562,8.534a4.1,4.1,0,0,1-2.123-.589,3.815,3.815,0,0,1-1.419-1.657,6.241,6.241,0,0,1-.571-2.457,11.667,11.667,0,0,1,.237-2.628,9.012,9.012,0,0,1,1-2.821,6.358,6.358,0,0,1,1.731-2.013,4.984,4.984,0,0,1,3.146-.984,3.786,3.786,0,0,1,2.953,1.3,5.391,5.391,0,0,1,1.16,3.415,12.572,12.572,0,0,1-.189,2.347,9.715,9.715,0,0,1-.8,2.646,6.6,6.6,0,0,1-1.463,2.048A5.033,5.033,0,0,1,132.716,19.176Zm4.491-8.033a4.434,4.434,0,0,0-.606-2.685,2.309,2.309,0,0,0-1.96-.989,3.333,3.333,0,0,0-2.1.633,4.791,4.791,0,0,0-1.521,2,10.3,10.3,0,0,0-.751,3.371l-.026.571a4.472,4.472,0,0,0,.615,2.7,2.29,2.29,0,0,0,1.942,1.011,3.386,3.386,0,0,0,2.755-1.2,6.814,6.814,0,0,0,1.455-3.494A15.742,15.742,0,0,0,137.207,11.143Zm5.8-1.661-.2,1.063a3.718,3.718,0,0,1,2.892-1.23,2.934,2.934,0,0,1,1.534.413,2.026,2.026,0,0,1,.866,1.116,3.927,3.927,0,0,1,3.155-1.529,2.515,2.515,0,0,1,2.1.958,3.422,3.422,0,0,1,.5,2.479L152.808,19h-1.582l1.037-6.267a3.311,3.311,0,0,0,0-.835q-.167-1.2-1.564-1.222a2.4,2.4,0,0,0-1.578.541,2.5,2.5,0,0,0-.91,1.463L147.13,19h-1.6l1.055-6.258a2.009,2.009,0,0,0-.294-1.5,1.549,1.549,0,0,0-1.27-.545,2.6,2.6,0,0,0-2.364,1.354L141.453,19h-1.591l1.652-9.51Zm15.407,0-.229,1.2A3.749,3.749,0,0,1,161.1,9.314a2.359,2.359,0,0,1,1.986.932,3.619,3.619,0,0,1,.475,2.522L162.529,19h-1.591l1.046-6.251a3.332,3.332,0,0,0,.009-.8,1.314,1.314,0,0,0-1.45-1.255,2.994,2.994,0,0,0-2.514,1.528L156.851,19H155.26l1.652-9.51ZM166.7,19h-1.582l1.652-9.51h1.582Zm1.31-12.981a.87.87,0,0,1,.672.242.9.9,0,0,1,.268.681.938.938,0,0,1-.94.958.876.876,0,0,1-.677-.237.86.86,0,0,1-.255-.668,1,1,0,0,1,.264-.686A.93.93,0,0,1,168.013,6.019Zm5.493,1.169-.4,2.3h1.731l-.22,1.257h-1.723l-.993,5.915a2.062,2.062,0,0,0-.009.422.67.67,0,0,0,.747.686,4.556,4.556,0,0,0,.773-.088l-.123,1.327a4.328,4.328,0,0,1-1.16.158,1.661,1.661,0,0,1-1.424-.7,2.7,2.7,0,0,1-.369-1.833l.967-5.889h-1.679l.22-1.257h1.679l.4-2.3Zm7.629,10.872a3.673,3.673,0,0,1-2.839,1.116,2.37,2.37,0,0,1-2.017-.976,3.731,3.731,0,0,1-.488-2.566l1.02-6.144H178.4l-1.028,6.17a4.1,4.1,0,0,0-.018.756,1.573,1.573,0,0,0,.378.993,1.29,1.29,0,0,0,.932.387,2.854,2.854,0,0,0,2.637-1.38l1.2-6.926h1.591L182.436,19h-1.5Zm9.589-7.119-.747-.079a2.722,2.722,0,0,0-2.408,1.38L186.4,19h-1.591l1.652-9.51L188,9.481l-.237,1.107A2.843,2.843,0,0,1,190.144,9.3a2.918,2.918,0,0,1,.756.132Zm4.192,8.235a3.429,3.429,0,0,1-2.777-1.31,4.507,4.507,0,0,1-.844-3.261l.044-.378a6.327,6.327,0,0,1,.839-2.584,4.882,4.882,0,0,1,1.683-1.762,3.927,3.927,0,0,1,2.145-.567,3.024,3.024,0,0,1,2.3.976,4.012,4.012,0,0,1,.914,2.549,7.448,7.448,0,0,1-.035,1.143l-.1.729h-6.214a3.212,3.212,0,0,0,.426,2.2,2.019,2.019,0,0,0,1.745.94,3.383,3.383,0,0,0,2.6-1.266l.914.773a4.183,4.183,0,0,1-1.542,1.349A4.371,4.371,0,0,1,194.916,19.176Zm1.011-8.534a2.324,2.324,0,0,0-1.718.668,4.748,4.748,0,0,0-1.165,2.065l4.623.009.035-.141a2.6,2.6,0,0,0-.356-1.841A1.674,1.674,0,0,0,195.927,10.642Z" transform="translate(541 5917.96)" fill="#12263f"/>
    <g id="Grupo_845759-2" data-name="Grupo 845759" transform="translate(686.443 5875.117)">
      <g id="Grupo_751851-2" data-name="Grupo 751851" transform="translate(0 0)">
        <g id="Grupo_751850-2" data-name="Grupo 751850" clip-path="url(#clip-path)">
          <g id="Grupo_751849-2" data-name="Grupo 751849" transform="translate(0)">
            <g id="Grupo_751848-2" data-name="Grupo 751848" clip-path="url(#clip-path-2)">
              <rect id="Rectángulo_292091-2" data-name="Rectángulo 292091" width="6.363" height="6.363" transform="translate(0)" fill="#7ab8f6"/>
            </g>
          </g>
        </g>
      </g>
    </g>
    <g id="Grupo_845761-2" data-name="Grupo 845761" transform="translate(567.525 5765.302)">
      <g id="Grupo_845760-2" data-name="Grupo 845760">
        <g transform="matrix(1, 0, 0, 1, -396.53, -25)" filter="url(#Elipse_6866-2)">
          <circle id="Elipse_6866-6" data-name="Elipse 6866" cx="64" cy="64" r="64" transform="translate(408.35 25)" fill="#c2e0ff"/>
        </g>
        <text id="_02" data-name="02" transform="translate(42.132 85.56)" fill="#12263f" font-size="60" font-family="Roboto-Black, Roboto" font-weight="800"><tspan x="0" y="0">02</tspan></text>
        <g id="Grupo_845758-2" data-name="Grupo 845758" transform="translate(14.752 8.029)">
          <g id="Grupo_751839-2" data-name="Grupo 751839">
            <g id="Grupo_751838-2" data-name="Grupo 751838" clip-path="url(#clip-path-3)">
              <g id="Grupo_751837-2" data-name="Grupo 751837" transform="translate(0.001)">
                <g id="Grupo_751836-2" data-name="Grupo 751836" clip-path="url(#clip-path-4)">
                  <rect id="Rectángulo_292084-2" data-name="Rectángulo 292084" width="11.378" height="11.378" transform="translate(0)" fill="#7ab8f6"/>
                </g>
              </g>
            </g>
          </g>
        </g>
        <g transform="matrix(1, 0, 0, 1, -396.53, -25)" filter="url(#Trazado_583444-2)">
          <path id="Trazado_583444-6" data-name="Trazado 583444" d="M247.741,98.577A14.346,14.346,0,1,1,233.4,84.231a14.346,14.346,0,0,1,14.346,14.346" transform="translate(288.61 -48.78)" fill="#7ab8f6"/>
        </g>
        <g transform="matrix(1, 0, 0, 1, -396.53, -25)" filter="url(#Trazado_583445-2)">
          <path id="Trazado_583445-6" data-name="Trazado 583445" d="M237.06,93.237a9.006,9.006,0,1,1-9.006-9.006,9.005,9.005,0,0,1,9.006,9.006" transform="translate(177.48 9.83)" fill="#7ab8f6"/>
        </g>
      </g>
    </g>
    <g transform="matrix(1, 0, 0, 1, 171, 5740.3)" filter="url(#Trazado_583443-3)">
      <path id="Trazado_583443-7" data-name="Trazado 583443" d="M18.859,0H276.141C286.556,0,295,5.592,295,12.49V222.629c0,6.9-8.444,12.49-18.859,12.49H18.859C8.444,235.119,0,229.527,0,222.629V12.49C0,5.592,8.444,0,18.859,0Z" transform="translate(639 6)" fill="#fff0d8"/>
    </g>
    <path id="Trazado_634282" data-name="Trazado 634282" d="M16.586,19.176a4.1,4.1,0,0,1-2.123-.589,3.815,3.815,0,0,1-1.419-1.657,6.241,6.241,0,0,1-.571-2.457,11.667,11.667,0,0,1,.237-2.628,9.012,9.012,0,0,1,1-2.821,6.358,6.358,0,0,1,1.731-2.013,4.984,4.984,0,0,1,3.146-.984,3.786,3.786,0,0,1,2.953,1.3,5.391,5.391,0,0,1,1.16,3.415,12.572,12.572,0,0,1-.189,2.347,9.715,9.715,0,0,1-.8,2.646,6.6,6.6,0,0,1-1.463,2.048A5.033,5.033,0,0,1,16.586,19.176Zm4.491-8.033a4.434,4.434,0,0,0-.606-2.685,2.309,2.309,0,0,0-1.96-.989,3.333,3.333,0,0,0-2.1.633,4.791,4.791,0,0,0-1.521,2,10.3,10.3,0,0,0-.751,3.371l-.026.571a4.472,4.472,0,0,0,.615,2.7,2.29,2.29,0,0,0,1.942,1.011,3.386,3.386,0,0,0,2.755-1.2,6.814,6.814,0,0,0,1.455-3.494A15.742,15.742,0,0,0,21.078,11.143Zm11.276,3.146a7.545,7.545,0,0,1-.782,2.61,4.442,4.442,0,0,1-1.5,1.736,3.44,3.44,0,0,1-1.986.549,3.167,3.167,0,0,1-2.531-1.116L24.7,22.656H23.108L25.393,9.49l1.441-.009-.176,1.063a3.608,3.608,0,0,1,2.821-1.23,2.653,2.653,0,0,1,2.136,1.011,4.448,4.448,0,0,1,.809,2.689,9.464,9.464,0,0,1-.044,1.09Zm-1.564-.18.044-.737a3.34,3.34,0,0,0-.488-1.962,1.715,1.715,0,0,0-1.411-.715A2.821,2.821,0,0,0,26.553,12l-.8,4.556a1.99,1.99,0,0,0,1.925,1.3,2.5,2.5,0,0,0,2.017-.926A5.374,5.374,0,0,0,30.789,14.109Zm7.04-6.922-.4,2.3h1.731l-.22,1.257H37.214l-.993,5.915a2.062,2.062,0,0,0-.009.422.67.67,0,0,0,.747.686,4.556,4.556,0,0,0,.773-.088l-.123,1.327a4.328,4.328,0,0,1-1.16.158,1.661,1.661,0,0,1-1.424-.7,2.7,2.7,0,0,1-.369-1.833l.967-5.889H33.945l.22-1.257h1.679l.4-2.3ZM41.143,19H39.561l1.652-9.51H42.8Zm1.31-12.981a.87.87,0,0,1,.672.242.9.9,0,0,1,.268.681.938.938,0,0,1-.94.958.876.876,0,0,1-.677-.237.86.86,0,0,1-.255-.668,1,1,0,0,1,.264-.686A.93.93,0,0,1,42.453,6.019Zm4.43,3.463-.2,1.063a3.718,3.718,0,0,1,2.892-1.23,2.934,2.934,0,0,1,1.534.413,2.026,2.026,0,0,1,.866,1.116,3.927,3.927,0,0,1,3.155-1.529,2.515,2.515,0,0,1,2.1.958,3.422,3.422,0,0,1,.5,2.479L56.682,19H55.1l1.037-6.267a3.311,3.311,0,0,0,0-.835q-.167-1.2-1.564-1.222A2.4,2.4,0,0,0,53,11.217a2.5,2.5,0,0,0-.91,1.463L51,19H49.4l1.055-6.258a2.009,2.009,0,0,0-.294-1.5,1.549,1.549,0,0,0-1.27-.545,2.6,2.6,0,0,0-2.364,1.354L45.327,19H43.736l1.652-9.51Zm17.534-.167a3.428,3.428,0,0,1,2.048.65,3.7,3.7,0,0,1,1.261,1.745A5.4,5.4,0,0,1,68,14.14l-.018.193a6.4,6.4,0,0,1-.826,2.509,4.848,4.848,0,0,1-1.705,1.745,4.158,4.158,0,0,1-2.294.589,3.434,3.434,0,0,1-2.043-.65A3.611,3.611,0,0,1,59.864,16.8a5.547,5.547,0,0,1-.281-2.4,6.48,6.48,0,0,1,.8-2.654A4.96,4.96,0,0,1,62.1,9.925,4.109,4.109,0,0,1,64.416,9.314Zm-3.234,5.1a5.4,5.4,0,0,0,0,1.151,2.821,2.821,0,0,0,.62,1.652,1.86,1.86,0,0,0,1.419.642,2.534,2.534,0,0,0,1.459-.391,3.284,3.284,0,0,0,1.125-1.261,5.311,5.311,0,0,0,.589-1.872,8.431,8.431,0,0,0,.026-1.362,2.927,2.927,0,0,0-.642-1.679,1.9,1.9,0,0,0-1.424-.65,2.592,2.592,0,0,0-2.092.967,4.776,4.776,0,0,0-1.063,2.6Zm13.887,2.013q.132-.984-1.081-1.389l-1.652-.483q-2.092-.721-2.021-2.391A2.634,2.634,0,0,1,71.461,10.1a4.085,4.085,0,0,1,2.553-.787,3.406,3.406,0,0,1,2.342.839,2.659,2.659,0,0,1,.866,2.14l-1.582-.009a1.484,1.484,0,0,0-.448-1.16,1.774,1.774,0,0,0-1.239-.466,2.316,2.316,0,0,0-1.424.4,1.48,1.48,0,0,0-.642,1.037q-.114.826,1.011,1.2l.8.22a5.15,5.15,0,0,1,2.32,1.1,2.1,2.1,0,0,1,.633,1.679,2.666,2.666,0,0,1-.58,1.547,3.317,3.317,0,0,1-1.406,1.006,4.7,4.7,0,0,1-1.872.321,3.71,3.71,0,0,1-2.5-.883,2.731,2.731,0,0,1-.949-2.228l1.591.009a1.686,1.686,0,0,0,.51,1.283,1.948,1.948,0,0,0,1.4.483,2.741,2.741,0,0,0,1.5-.365A1.4,1.4,0,0,0,75.069,16.425Zm7.4-9.237-.4,2.3H83.8l-.22,1.257H81.854l-.993,5.915a2.062,2.062,0,0,0-.009.422.67.67,0,0,0,.747.686,4.556,4.556,0,0,0,.773-.088l-.123,1.327a4.328,4.328,0,0,1-1.16.158,1.661,1.661,0,0,1-1.424-.7,2.7,2.7,0,0,1-.369-1.833l.967-5.889H78.584L78.8,9.49h1.679l.4-2.3Zm6.46,7.04a7.4,7.4,0,0,1,.8-2.619,4.534,4.534,0,0,1,1.538-1.749,3.517,3.517,0,0,1,2.013-.554,2.971,2.971,0,0,1,2.443,1.16L96.637,5.5h1.591L95.89,19H94.44l.167-1.02a3.506,3.506,0,0,1-2.777,1.2,2.627,2.627,0,0,1-2.1-1.033,4.5,4.5,0,0,1-.844-2.676A8.547,8.547,0,0,1,88.929,14.228Zm1.529.909a3.3,3.3,0,0,0,.448,1.949A1.617,1.617,0,0,0,92.3,17.8a2.874,2.874,0,0,0,2.452-1.387L95.5,12.02a1.973,1.973,0,0,0-1.916-1.334,2.411,2.411,0,0,0-1.657.566,3.663,3.663,0,0,0-1.09,1.659A6.842,6.842,0,0,0,90.458,15.136Zm12.059,4.04a3.429,3.429,0,0,1-2.777-1.31,4.507,4.507,0,0,1-.844-3.261l.044-.378a6.327,6.327,0,0,1,.839-2.584,4.882,4.882,0,0,1,1.683-1.762,3.927,3.927,0,0,1,2.145-.567,3.024,3.024,0,0,1,2.3.976,4.012,4.012,0,0,1,.914,2.549,7.448,7.448,0,0,1-.035,1.143l-.1.729h-6.214a3.212,3.212,0,0,0,.426,2.2,2.019,2.019,0,0,0,1.745.94,3.383,3.383,0,0,0,2.6-1.266l.914.773a4.183,4.183,0,0,1-1.542,1.349A4.371,4.371,0,0,1,102.517,19.176Zm1.011-8.534a2.324,2.324,0,0,0-1.718.668,4.748,4.748,0,0,0-1.165,2.065l4.623.009.035-.141a2.6,2.6,0,0,0-.356-1.841A1.674,1.674,0,0,0,103.528,10.642Zm16.339,5.01h-5.186L112.932,19h-1.767l6.952-12.8h1.45L122.1,19h-1.626Zm-4.456-1.38h4.21L118.557,8.3ZM129.57,18.06a3.673,3.673,0,0,1-2.839,1.116,2.37,2.37,0,0,1-2.017-.976,3.731,3.731,0,0,1-.488-2.566l1.02-6.144h1.591l-1.028,6.17a4.1,4.1,0,0,0-.018.756,1.573,1.573,0,0,0,.378.993,1.29,1.29,0,0,0,.932.387,2.854,2.854,0,0,0,2.637-1.38l1.2-6.926h1.591L130.871,19h-1.5Zm7.875-10.872-.4,2.3h1.731l-.22,1.257H136.83l-.993,5.915a2.062,2.062,0,0,0-.009.422.67.67,0,0,0,.747.686,4.556,4.556,0,0,0,.773-.088l-.123,1.327a4.328,4.328,0,0,1-1.16.158,1.661,1.661,0,0,1-1.424-.7,2.7,2.7,0,0,1-.369-1.833l.967-5.889H133.56l.22-1.257h1.679l.4-2.3Zm6.7,2.127a3.428,3.428,0,0,1,2.048.65,3.7,3.7,0,0,1,1.261,1.745,5.4,5.4,0,0,1,.277,2.43l-.018.193a6.4,6.4,0,0,1-.826,2.509,4.848,4.848,0,0,1-1.705,1.745,4.158,4.158,0,0,1-2.294.589,3.434,3.434,0,0,1-2.043-.65,3.611,3.611,0,0,1-1.252-1.723,5.547,5.547,0,0,1-.281-2.4,6.48,6.48,0,0,1,.8-2.654,4.96,4.96,0,0,1,1.718-1.824A4.109,4.109,0,0,1,144.142,9.314Zm-3.234,5.1a5.4,5.4,0,0,0,0,1.151,2.821,2.821,0,0,0,.62,1.652,1.86,1.86,0,0,0,1.419.642,2.534,2.534,0,0,0,1.459-.391,3.284,3.284,0,0,0,1.125-1.261,5.311,5.311,0,0,0,.589-1.872,8.431,8.431,0,0,0,.026-1.362,2.927,2.927,0,0,0-.642-1.679,1.9,1.9,0,0,0-1.424-.65,2.592,2.592,0,0,0-2.092.967,4.776,4.776,0,0,0-1.063,2.6Zm11.153-4.931-.229,1.2a3.749,3.749,0,0,1,2.918-1.371,2.359,2.359,0,0,1,1.986.932,3.619,3.619,0,0,1,.475,2.522L156.174,19h-1.591l1.046-6.251a3.332,3.332,0,0,0,.009-.8,1.314,1.314,0,0,0-1.45-1.255,2.994,2.994,0,0,0-2.514,1.528L150.5,19h-1.591l1.652-9.51Zm11.848-.167a3.428,3.428,0,0,1,2.048.65,3.7,3.7,0,0,1,1.261,1.745,5.4,5.4,0,0,1,.277,2.43l-.018.193a6.4,6.4,0,0,1-.826,2.509,4.848,4.848,0,0,1-1.705,1.745,4.158,4.158,0,0,1-2.294.589,3.434,3.434,0,0,1-2.043-.65,3.611,3.611,0,0,1-1.252-1.723,5.547,5.547,0,0,1-.281-2.4,6.48,6.48,0,0,1,.8-2.654,4.96,4.96,0,0,1,1.718-1.824A4.109,4.109,0,0,1,163.909,9.314Zm-3.234,5.1a5.4,5.4,0,0,0,0,1.151,2.821,2.821,0,0,0,.62,1.652,1.86,1.86,0,0,0,1.419.642,2.534,2.534,0,0,0,1.459-.391,3.284,3.284,0,0,0,1.125-1.261,5.311,5.311,0,0,0,.589-1.872,8.431,8.431,0,0,0,.026-1.362,2.927,2.927,0,0,0-.642-1.679,1.9,1.9,0,0,0-1.424-.65,2.592,2.592,0,0,0-2.092.967,4.776,4.776,0,0,0-1.063,2.6ZM171.81,9.481l-.2,1.063a3.718,3.718,0,0,1,2.892-1.23,2.934,2.934,0,0,1,1.534.413,2.026,2.026,0,0,1,.866,1.116,3.927,3.927,0,0,1,3.155-1.529,2.515,2.515,0,0,1,2.1.958,3.422,3.422,0,0,1,.5,2.479L181.61,19h-1.582l1.037-6.267a3.311,3.311,0,0,0,0-.835q-.167-1.2-1.564-1.222a2.4,2.4,0,0,0-1.578.541,2.5,2.5,0,0,0-.91,1.463L175.932,19h-1.6l1.055-6.258a2.009,2.009,0,0,0-.294-1.5,1.549,1.549,0,0,0-1.27-.545,2.6,2.6,0,0,0-2.364,1.354L170.254,19h-1.591l1.652-9.51ZM187.472,16.6l3.384-7.11h1.758l-5.643,11.092q-1.178,2.312-3.023,2.285a5.18,5.18,0,0,1-.958-.158l.141-1.318.413.044a2.085,2.085,0,0,0,1.305-.338,3.119,3.119,0,0,0,.971-1.208l.571-1.09L184.747,9.49h1.661Z" transform="translate(856 5917.96)" fill="#12263f"/>
    <g id="Grupo_845759-3" data-name="Grupo 845759" transform="translate(1001.443 5875.117)">
      <g id="Grupo_751851-3" data-name="Grupo 751851" transform="translate(0 0)">
        <g id="Grupo_751850-3" data-name="Grupo 751850" clip-path="url(#clip-path)">
          <g id="Grupo_751849-3" data-name="Grupo 751849" transform="translate(0)">
            <g id="Grupo_751848-3" data-name="Grupo 751848" clip-path="url(#clip-path-2)">
              <rect id="Rectángulo_292091-3" data-name="Rectángulo 292091" width="6.363" height="6.363" transform="translate(0)" fill="#7ab8f6"/>
            </g>
          </g>
        </g>
      </g>
    </g>
    <g id="Grupo_845761-3" data-name="Grupo 845761" transform="translate(882.525 5765.302)">
      <g id="Grupo_845760-3" data-name="Grupo 845760">
        <g transform="matrix(1, 0, 0, 1, -711.53, -25)" filter="url(#Elipse_6866-3)">
          <circle id="Elipse_6866-7" data-name="Elipse 6866" cx="64" cy="64" r="64" transform="translate(723.35 25)" fill="#c2e0ff"/>
        </g>
        <text id="_03" data-name="03" transform="translate(42.132 85.56)" fill="#12263f" font-size="60" font-family="Roboto-Black, Roboto" font-weight="800"><tspan x="0" y="0">03</tspan></text>
        <g id="Grupo_845758-3" data-name="Grupo 845758" transform="translate(14.752 8.029)">
          <g id="Grupo_751839-3" data-name="Grupo 751839">
            <g id="Grupo_751838-3" data-name="Grupo 751838" clip-path="url(#clip-path-3)">
              <g id="Grupo_751837-3" data-name="Grupo 751837" transform="translate(0.001)">
                <g id="Grupo_751836-3" data-name="Grupo 751836" clip-path="url(#clip-path-4)">
                  <rect id="Rectángulo_292084-3" data-name="Rectángulo 292084" width="11.378" height="11.378" transform="translate(0)" fill="#7ab8f6"/>
                </g>
              </g>
            </g>
          </g>
        </g>
        <g transform="matrix(1, 0, 0, 1, -711.53, -25)" filter="url(#Trazado_583444-3)">
          <path id="Trazado_583444-7" data-name="Trazado 583444" d="M247.741,98.577A14.346,14.346,0,1,1,233.4,84.231a14.346,14.346,0,0,1,14.346,14.346" transform="translate(603.61 -48.78)" fill="#7ab8f6"/>
        </g>
        <g transform="matrix(1, 0, 0, 1, -711.53, -25)" filter="url(#Trazado_583445-3)">
          <path id="Trazado_583445-7" data-name="Trazado 583445" d="M237.06,93.237a9.006,9.006,0,1,1-9.006-9.006,9.005,9.005,0,0,1,9.006,9.006" transform="translate(492.48 9.83)" fill="#7ab8f6"/>
        </g>
      </g>
    </g>
    <g transform="matrix(1, 0, 0, 1, 171, 5740.3)" filter="url(#Trazado_583443-4)">
      <path id="Trazado_583443-8" data-name="Trazado 583443" d="M18.859,0H276.141C286.556,0,295,5.592,295,12.49V222.629c0,6.9-8.444,12.49-18.859,12.49H18.859C8.444,235.119,0,229.527,0,222.629V12.49C0,5.592,8.444,0,18.859,0Z" transform="translate(954 6)" fill="#fff0d8"/>
    </g>
    <path id="Trazado_634283" data-name="Trazado 634283" d="M72.168,15.7q.193-1.406-1.459-2.057l-1.521-.554-.51-.22q-2.566-1.169-2.4-3.287a3.438,3.438,0,0,1,.729-1.881,4.151,4.151,0,0,1,1.7-1.261,5.455,5.455,0,0,1,2.254-.417,4.5,4.5,0,0,1,2.07.519,3.333,3.333,0,0,1,1.384,1.375,3.75,3.75,0,0,1,.422,1.991L73.179,9.9a2.292,2.292,0,0,0-.527-1.83,2.361,2.361,0,0,0-1.758-.666,3.274,3.274,0,0,0-2.013.564,2.2,2.2,0,0,0-.932,1.585q-.176,1.312,1.608,1.99l1.31.467.659.281q2.479,1.143,2.294,3.393a3.389,3.389,0,0,1-.729,1.868,4.079,4.079,0,0,1-1.718,1.217,5.924,5.924,0,0,1-2.333.4,4.882,4.882,0,0,1-2.2-.514,3.592,3.592,0,0,1-1.516-1.384,3.462,3.462,0,0,1-.457-2l1.652.009a2.177,2.177,0,0,0,.62,1.815,2.789,2.789,0,0,0,1.973.69,3.523,3.523,0,0,0,2.1-.554A2.156,2.156,0,0,0,72.168,15.7ZM76.906,19H75.324l1.652-9.51h1.582Zm1.31-12.981a.87.87,0,0,1,.672.242.9.9,0,0,1,.268.681.938.938,0,0,1-.94.958.876.876,0,0,1-.677-.237.86.86,0,0,1-.255-.668,1,1,0,0,1,.264-.686A.93.93,0,0,1,78.215,6.019Zm5.493,1.169-.4,2.3h1.731l-.22,1.257H83.093L82.1,16.662a2.062,2.062,0,0,0-.009.422.67.67,0,0,0,.747.686,4.556,4.556,0,0,0,.773-.088l-.123,1.327a4.328,4.328,0,0,1-1.16.158,1.661,1.661,0,0,1-1.424-.7,2.7,2.7,0,0,1-.369-1.833l.967-5.889H79.824l.22-1.257h1.679l.4-2.3Zm5.7,11.988a3.429,3.429,0,0,1-2.777-1.31,4.507,4.507,0,0,1-.844-3.261l.044-.378a6.327,6.327,0,0,1,.839-2.584,4.882,4.882,0,0,1,1.683-1.762A3.927,3.927,0,0,1,90.5,9.314a3.024,3.024,0,0,1,2.3.976,4.012,4.012,0,0,1,.914,2.549,7.448,7.448,0,0,1-.035,1.143l-.1.729H87.373a3.212,3.212,0,0,0,.426,2.2,2.019,2.019,0,0,0,1.745.94,3.383,3.383,0,0,0,2.6-1.266l.914.773a4.183,4.183,0,0,1-1.542,1.349A4.371,4.371,0,0,1,89.413,19.176Zm1.011-8.534a2.324,2.324,0,0,0-1.718.668,4.748,4.748,0,0,0-1.165,2.065l4.623.009.035-.141a2.6,2.6,0,0,0-.356-1.841A1.674,1.674,0,0,0,90.423,10.642ZM102.069,15.7q.193-1.406-1.459-2.057l-1.521-.554-.51-.22q-2.566-1.169-2.4-3.287a3.438,3.438,0,0,1,.729-1.881,4.151,4.151,0,0,1,1.7-1.261,5.455,5.455,0,0,1,2.254-.417,4.5,4.5,0,0,1,2.07.519,3.333,3.333,0,0,1,1.384,1.375,3.75,3.75,0,0,1,.422,1.991L103.08,9.9a2.292,2.292,0,0,0-.527-1.83,2.361,2.361,0,0,0-1.758-.666,3.274,3.274,0,0,0-2.013.564,2.2,2.2,0,0,0-.932,1.585q-.176,1.312,1.608,1.99l1.31.467.659.281q2.479,1.143,2.294,3.393a3.389,3.389,0,0,1-.729,1.868,4.079,4.079,0,0,1-1.718,1.217,5.924,5.924,0,0,1-2.333.4,4.882,4.882,0,0,1-2.2-.514,3.592,3.592,0,0,1-1.516-1.384,3.462,3.462,0,0,1-.457-2l1.652.009a2.177,2.177,0,0,0,.62,1.815,2.789,2.789,0,0,0,1.973.69,3.523,3.523,0,0,0,2.1-.554A2.156,2.156,0,0,0,102.069,15.7ZM113.7,14.289a7.545,7.545,0,0,1-.782,2.61,4.442,4.442,0,0,1-1.5,1.736,3.44,3.44,0,0,1-1.986.549,3.167,3.167,0,0,1-2.531-1.116l-.853,4.588h-1.591L106.736,9.49l1.441-.009L108,10.545a3.608,3.608,0,0,1,2.821-1.23,2.653,2.653,0,0,1,2.136,1.011,4.448,4.448,0,0,1,.809,2.689,9.464,9.464,0,0,1-.044,1.09Zm-1.564-.18.044-.737a3.34,3.34,0,0,0-.488-1.962,1.715,1.715,0,0,0-1.411-.715A2.821,2.821,0,0,0,107.9,12l-.8,4.556a1.99,1.99,0,0,0,1.925,1.3,2.5,2.5,0,0,0,2.017-.926A5.374,5.374,0,0,0,112.132,14.109Zm6.952,5.067a3.429,3.429,0,0,1-2.777-1.31,4.507,4.507,0,0,1-.844-3.261l.044-.378a6.327,6.327,0,0,1,.839-2.584,4.882,4.882,0,0,1,1.683-1.762,3.927,3.927,0,0,1,2.145-.567,3.024,3.024,0,0,1,2.3.976,4.012,4.012,0,0,1,.914,2.549,7.448,7.448,0,0,1-.035,1.143l-.1.729h-6.214a3.212,3.212,0,0,0,.426,2.2,2.019,2.019,0,0,0,1.745.94,3.383,3.383,0,0,0,2.6-1.266l.914.773a4.183,4.183,0,0,1-1.542,1.349A4.371,4.371,0,0,1,119.084,19.176Zm1.011-8.534a2.324,2.324,0,0,0-1.718.668,4.748,4.748,0,0,0-1.165,2.065l4.623.009.035-.141a2.6,2.6,0,0,0-.356-1.841A1.674,1.674,0,0,0,120.1,10.642Zm8.227,7.216a2.413,2.413,0,0,0,1.538-.5,2.362,2.362,0,0,0,.9-1.349l1.5-.009a3.391,3.391,0,0,1-.716,1.635,4.14,4.14,0,0,1-3.292,1.538,3.394,3.394,0,0,1-2.008-.62,3.469,3.469,0,0,1-1.208-1.679,5.593,5.593,0,0,1-.264-2.421l.044-.439a6.306,6.306,0,0,1,.8-2.452,4.624,4.624,0,0,1,1.652-1.683,4.1,4.1,0,0,1,2.25-.567,3.214,3.214,0,0,1,2.391,1,3.465,3.465,0,0,1,.9,2.452l-1.485-.009a2.283,2.283,0,0,0-.519-1.507,1.808,1.808,0,0,0-1.354-.611,2.536,2.536,0,0,0-2.061.923,4.834,4.834,0,0,0-1.024,2.654l-.026.229a7.623,7.623,0,0,0-.018,1.16,2.65,2.65,0,0,0,.58,1.626A1.863,1.863,0,0,0,128.322,17.857Zm9.413-10.67-.4,2.3h1.731l-.22,1.257H137.12l-.993,5.915a2.062,2.062,0,0,0-.009.422.67.67,0,0,0,.747.686,4.556,4.556,0,0,0,.773-.088l-.123,1.327a4.328,4.328,0,0,1-1.16.158,1.661,1.661,0,0,1-1.424-.7,2.7,2.7,0,0,1-.369-1.833l.967-5.889H133.85l.22-1.257h1.679l.4-2.3Z" transform="translate(1171 5917.96)" fill="#12263f"/>
    <g id="Grupo_845759-4" data-name="Grupo 845759" transform="translate(1316.443 5875.117)">
      <g id="Grupo_751851-4" data-name="Grupo 751851" transform="translate(0 0)">
        <g id="Grupo_751850-4" data-name="Grupo 751850" clip-path="url(#clip-path)">
          <g id="Grupo_751849-4" data-name="Grupo 751849" transform="translate(0)">
            <g id="Grupo_751848-4" data-name="Grupo 751848" clip-path="url(#clip-path-2)">
              <rect id="Rectángulo_292091-4" data-name="Rectángulo 292091" width="6.363" height="6.363" transform="translate(0)" fill="#7ab8f6"/>
            </g>
          </g>
        </g>
      </g>
    </g>
    <g id="Grupo_845761-4" data-name="Grupo 845761" transform="translate(1197.525 5765.302)">
      <g id="Grupo_845760-4" data-name="Grupo 845760">
        <g transform="matrix(1, 0, 0, 1, -1026.53, -25)" filter="url(#Elipse_6866-4)">
          <circle id="Elipse_6866-8" data-name="Elipse 6866" cx="64" cy="64" r="64" transform="translate(1038.35 25)" fill="#c2e0ff"/>
        </g>
        <text id="_04" data-name="04" transform="translate(42.132 85.56)" fill="#12263f" font-size="60" font-family="Roboto-Black, Roboto" font-weight="800"><tspan x="0" y="0">04</tspan></text>
        <g id="Grupo_845758-4" data-name="Grupo 845758" transform="translate(14.752 8.029)">
          <g id="Grupo_751839-4" data-name="Grupo 751839">
            <g id="Grupo_751838-4" data-name="Grupo 751838" clip-path="url(#clip-path-3)">
              <g id="Grupo_751837-4" data-name="Grupo 751837" transform="translate(0.001)">
                <g id="Grupo_751836-4" data-name="Grupo 751836" clip-path="url(#clip-path-4)">
                  <rect id="Rectángulo_292084-4" data-name="Rectángulo 292084" width="11.378" height="11.378" transform="translate(0)" fill="#7ab8f6"/>
                </g>
              </g>
            </g>
          </g>
        </g>
        <g transform="matrix(1, 0, 0, 1, -1026.53, -25)" filter="url(#Trazado_583444-4)">
          <path id="Trazado_583444-8" data-name="Trazado 583444" d="M247.741,98.577A14.346,14.346,0,1,1,233.4,84.231a14.346,14.346,0,0,1,14.346,14.346" transform="translate(918.61 -48.78)" fill="#7ab8f6"/>
        </g>
        <g transform="matrix(1, 0, 0, 1, -1026.53, -25)" filter="url(#Trazado_583445-4)">
          <path id="Trazado_583445-8" data-name="Trazado 583445" d="M237.06,93.237a9.006,9.006,0,1,1-9.006-9.006,9.005,9.005,0,0,1,9.006,9.006" transform="translate(807.48 9.83)" fill="#7ab8f6"/>
        </g>
      </g>
    </g>
  </g>
</svg>
