<svg xmlns="http://www.w3.org/2000/svg" xmlns:xlink="http://www.w3.org/1999/xlink" width="820" height="402.316" viewBox="0 0 820 402.316">
  <defs>
    <clipPath id="clip-path">
      <rect id="Rectángulo_277789" data-name="Rectángulo 277789" width="820" height="172.727" fill="none"/>
    </clipPath>
    <filter id="Trazado_501706" x="-7.758" y="-4.76" width="187.42" height="187.421" filterUnits="userSpaceOnUse">
      <feOffset dy="3" input="SourceAlpha"/>
      <feGaussianBlur stdDeviation="9" result="blur"/>
      <feFlood flood-opacity="0.161"/>
      <feComposite operator="in" in2="blur"/>
      <feComposite in="SourceGraphic"/>
    </filter>
    <filter id="Trazado_501703" x="206.704" y="-5.615" width="187.422" height="187.421" filterUnits="userSpaceOnUse">
      <feOffset dy="3" input="SourceAlpha"/>
      <feGaussianBlur stdDeviation="9" result="blur-2"/>
      <feFlood flood-opacity="0.161"/>
      <feComposite operator="in" in2="blur-2"/>
      <feComposite in="SourceGraphic"/>
    </filter>
    <filter id="Rectángulo_277788" x="424.346" y="-4.76" width="187.421" height="187.421" filterUnits="userSpaceOnUse">
      <feOffset dy="3" input="SourceAlpha"/>
      <feGaussianBlur stdDeviation="9" result="blur-3"/>
      <feFlood flood-opacity="0.161"/>
      <feComposite operator="in" in2="blur-3"/>
      <feComposite in="SourceGraphic"/>
    </filter>
    <filter id="Trazado_501704" x="640.337" y="-5.615" width="187.421" height="187.421" filterUnits="userSpaceOnUse">
      <feOffset dy="3" input="SourceAlpha"/>
      <feGaussianBlur stdDeviation="9" result="blur-4"/>
      <feFlood flood-opacity="0.161"/>
      <feComposite operator="in" in2="blur-4"/>
      <feComposite in="SourceGraphic"/>
    </filter>
    <filter id="Trazado_501706-2" x="-7.758" y="224.83" width="187.42" height="187.421" filterUnits="userSpaceOnUse">
      <feOffset dy="3" input="SourceAlpha"/>
      <feGaussianBlur stdDeviation="9" result="blur-5"/>
      <feFlood flood-opacity="0.161"/>
      <feComposite operator="in" in2="blur-5"/>
      <feComposite in="SourceGraphic"/>
    </filter>
    <filter id="Trazado_501703-2" x="206.704" y="223.975" width="187.422" height="187.421" filterUnits="userSpaceOnUse">
      <feOffset dy="3" input="SourceAlpha"/>
      <feGaussianBlur stdDeviation="9" result="blur-6"/>
      <feFlood flood-opacity="0.161"/>
      <feComposite operator="in" in2="blur-6"/>
      <feComposite in="SourceGraphic"/>
    </filter>
    <filter id="Rectángulo_277788-2" x="424.346" y="224.83" width="187.421" height="187.421" filterUnits="userSpaceOnUse">
      <feOffset dy="3" input="SourceAlpha"/>
      <feGaussianBlur stdDeviation="9" result="blur-7"/>
      <feFlood flood-opacity="0.161"/>
      <feComposite operator="in" in2="blur-7"/>
      <feComposite in="SourceGraphic"/>
    </filter>
    <filter id="Trazado_501704-2" x="640.337" y="223.975" width="187.421" height="187.421" filterUnits="userSpaceOnUse">
      <feOffset dy="3" input="SourceAlpha"/>
      <feGaussianBlur stdDeviation="9" result="blur-8"/>
      <feFlood flood-opacity="0.161"/>
      <feComposite operator="in" in2="blur-8"/>
      <feComposite in="SourceGraphic"/>
    </filter>
  </defs>
  <g id="Grupo_1034306" data-name="Grupo 1034306" transform="translate(-390 -4091.145)">
    <g id="Grupo_736622" data-name="Grupo 736622" transform="translate(390 4091.145)">
      <g id="Grupo_736621" data-name="Grupo 736621" transform="translate(0 0)" clip-path="url(#clip-path)">
        <path id="Trazado_501648" data-name="Trazado 501648" d="M429.081,34.9a2.584,2.584,0,1,0,2.584,2.584,2.58,2.58,0,0,0-2.584-2.584" transform="translate(225.906 18.484)" fill="#333"/>
        <path id="Trazado_501649" data-name="Trazado 501649" d="M429.081,28.184a2.584,2.584,0,1,0,2.584,2.584,2.58,2.58,0,0,0-2.584-2.584" transform="translate(225.906 14.928)" fill="#333"/>
        <path id="Trazado_501650" data-name="Trazado 501650" d="M429.081,41.609a2.584,2.584,0,1,0,2.584,2.584,2.58,2.58,0,0,0-2.584-2.584" transform="translate(225.906 22.039)" fill="#333"/>
        <path id="Trazado_501651" data-name="Trazado 501651" d="M429.081,48.322a2.584,2.584,0,1,0,2.584,2.584,2.58,2.58,0,0,0-2.584-2.584" transform="translate(225.906 25.595)" fill="#333"/>
        <path id="Trazado_501652" data-name="Trazado 501652" d="M429.081,21.46a2.584,2.584,0,1,0,2.584,2.584,2.58,2.58,0,0,0-2.584-2.584" transform="translate(225.906 11.367)" fill="#333"/>
        <path id="Trazado_501653" data-name="Trazado 501653" d="M433.657,9.251a2.7,2.7,0,0,0-1.6-.552,2.543,2.543,0,0,0-2.031,1,2.583,2.583,0,1,0,3.635-.448" transform="translate(227.48 4.608)" fill="#333"/>
        <path id="Trazado_501654" data-name="Trazado 501654" d="M429.786,14.81a2.2,2.2,0,0,0-.465-.05,2.619,2.619,0,1,0,.465.05" transform="translate(226.028 7.818)" fill="#333"/>
        <path id="Trazado_501655" data-name="Trazado 501655" d="M532.45,41.575a2.593,2.593,0,1,0,2.584,2.6,2.595,2.595,0,0,0-2.584-2.6" transform="translate(280.658 22.021)" fill="#333"/>
        <path id="Trazado_501656" data-name="Trazado 501656" d="M531.067,13.294a2.575,2.575,0,0,0,.43-3.618V9.659a2.629,2.629,0,0,0-2.031-.982,2.532,2.532,0,0,0-1.6.569,2.581,2.581,0,1,0,3.2,4.048" transform="translate(279.076 4.596)" fill="#333"/>
        <path id="Trazado_501657" data-name="Trazado 501657" d="M532.45,34.863a2.584,2.584,0,1,0,2.584,2.584,2.58,2.58,0,0,0-2.584-2.584" transform="translate(280.658 18.466)" fill="#333"/>
        <path id="Trazado_501658" data-name="Trazado 501658" d="M532.45,48.3a2.584,2.584,0,1,0,2.584,2.585A2.581,2.581,0,0,0,532.45,48.3" transform="translate(280.658 25.583)" fill="#333"/>
        <path id="Trazado_501659" data-name="Trazado 501659" d="M532.45,28.15a2.584,2.584,0,1,0,2.584,2.584,2.58,2.58,0,0,0-2.584-2.584" transform="translate(280.658 14.91)" fill="#333"/>
        <path id="Trazado_501660" data-name="Trazado 501660" d="M437.281,4.589a2.589,2.589,0,1,0,1.068,4.944,2.588,2.588,0,0,0-1.068-4.944" transform="translate(230.247 2.431)" fill="#333"/>
        <path id="Trazado_501661" data-name="Trazado 501661" d="M529.666,17.8a2.586,2.586,0,1,0,2.55-3.067,2.389,2.389,0,0,0-.483.052,2.586,2.586,0,0,0-2.067,3.015" transform="translate(280.529 7.805)" fill="#333"/>
        <path id="Trazado_501662" data-name="Trazado 501662" d="M532.45,21.438a2.584,2.584,0,1,0,2.584,2.584,2.58,2.58,0,0,0-2.584-2.584" transform="translate(280.658 11.355)" fill="#333"/>
        <path id="Trazado_501663" data-name="Trazado 501663" d="M504.26,3.349a2.594,2.594,0,1,0,2.582,2.584,2.592,2.592,0,0,0-2.582-2.584" transform="translate(265.726 1.774)" fill="#333"/>
        <path id="Trazado_501664" data-name="Trazado 501664" d="M497.535,3.349a2.594,2.594,0,1,0,2.584,2.584,2.6,2.6,0,0,0-2.584-2.584" transform="translate(262.164 1.774)" fill="#333"/>
        <path id="Trazado_501665" data-name="Trazado 501665" d="M510.972,3.349a2.594,2.594,0,1,0,2.584,2.584,2.592,2.592,0,0,0-2.584-2.584" transform="translate(269.281 1.774)" fill="#333"/>
        <path id="Trazado_501666" data-name="Trazado 501666" d="M525.28,4.818h.017a2.582,2.582,0,1,0-2.135,4.7,2.579,2.579,0,1,0,2.119-4.7" transform="translate(276.301 2.425)" fill="#333"/>
        <path id="Trazado_501667" data-name="Trazado 501667" d="M443.813,3.349A2.594,2.594,0,1,0,446.4,5.933a2.605,2.605,0,0,0-2.584-2.584" transform="translate(233.708 1.774)" fill="#333"/>
        <path id="Trazado_501668" data-name="Trazado 501668" d="M517.684,3.349a2.594,2.594,0,1,0,2.584,2.584,2.592,2.592,0,0,0-2.584-2.584" transform="translate(272.836 1.774)" fill="#333"/>
        <path id="Trazado_501669" data-name="Trazado 501669" d="M490.823,3.349a2.594,2.594,0,1,0,2.584,2.584,2.592,2.592,0,0,0-2.584-2.584" transform="translate(258.609 1.774)" fill="#333"/>
        <path id="Trazado_501670" data-name="Trazado 501670" d="M457.249,3.349a2.594,2.594,0,1,0,2.584,2.584,2.592,2.592,0,0,0-2.584-2.584" transform="translate(240.826 1.774)" fill="#333"/>
        <path id="Trazado_501671" data-name="Trazado 501671" d="M484.111,3.349a2.594,2.594,0,1,0,2.584,2.584,2.592,2.592,0,0,0-2.584-2.584" transform="translate(255.053 1.774)" fill="#333"/>
        <path id="Trazado_501672" data-name="Trazado 501672" d="M463.961,3.349a2.594,2.594,0,1,0,2.584,2.584,2.592,2.592,0,0,0-2.584-2.584" transform="translate(244.381 1.774)" fill="#333"/>
        <path id="Trazado_501673" data-name="Trazado 501673" d="M450.537,3.349a2.594,2.594,0,1,0,2.584,2.584,2.592,2.592,0,0,0-2.584-2.584" transform="translate(237.27 1.774)" fill="#333"/>
        <path id="Trazado_501674" data-name="Trazado 501674" d="M477.4,3.349a2.594,2.594,0,1,0,2.584,2.584A2.592,2.592,0,0,0,477.4,3.349" transform="translate(251.498 1.774)" fill="#333"/>
        <path id="Trazado_501675" data-name="Trazado 501675" d="M470.685,3.349a2.594,2.594,0,1,0,2.567,2.584,2.581,2.581,0,0,0-2.567-2.584" transform="translate(247.942 1.774)" fill="#333"/>
        <path id="Trazado_501676" data-name="Trazado 501676" d="M532.45,55.034a2.3,2.3,0,0,0-.5.052,2.924,2.924,0,0,0-1.326.705,2.616,2.616,0,0,0-.757,1.826,2.38,2.38,0,0,0,.206,1,2.121,2.121,0,0,0,.223.448,3.445,3.445,0,0,0,.327.4,2.629,2.629,0,0,0,2.327.69,2.757,2.757,0,0,0,.5-.138,3.443,3.443,0,0,0,.431-.242,2.4,2.4,0,0,0,.4-.311,3.431,3.431,0,0,0,.327-.4,3.676,3.676,0,0,0,.242-.448c.051-.154.1-.327.138-.482a2.694,2.694,0,0,0,.05-.517,2.616,2.616,0,0,0-.757-1.826,2.587,2.587,0,0,0-1.826-.757" transform="translate(280.658 29.15)" fill="#333"/>
        <path id="Trazado_501677" data-name="Trazado 501677" d="M6.891,92.842A6.891,6.891,0,0,1,0,85.951V28.245A28.278,28.278,0,0,1,28.247,0h115.41A28.278,28.278,0,0,1,171.9,28.245V59.6a6.891,6.891,0,1,1-13.782,0V28.245a14.481,14.481,0,0,0-14.465-14.463H28.247A14.48,14.48,0,0,0,13.782,28.245V85.951a6.891,6.891,0,0,1-6.891,6.891" transform="translate(0 0)" fill="#efd800"/>
        <path id="Trazado_501678" data-name="Trazado 501678" d="M4.8,84.725a.861.861,0,0,1-.861-.861V26.158A22.241,22.241,0,0,1,26.159,3.941h115.41a22.242,22.242,0,0,1,22.217,22.217V57.509a.861.861,0,1,1-1.722,0V26.158A20.518,20.518,0,0,0,141.569,5.665H26.159A20.517,20.517,0,0,0,5.664,26.158V83.864a.861.861,0,0,1-.861.861" transform="translate(2.088 2.087)" fill="#333"/>
        <path id="Trazado_501679" data-name="Trazado 501679" d="M5.4,59.661a2.595,2.595,0,0,1-1.826-4.427,2.7,2.7,0,0,1,3.651,0,3.587,3.587,0,0,1,.329.4,3.672,3.672,0,0,1,.24.448,4.746,4.746,0,0,1,.138.482,2.578,2.578,0,0,1,.052.517A2.611,2.611,0,0,1,7.224,58.9a2.581,2.581,0,0,1-1.825.757" transform="translate(1.491 28.88)" fill="#333"/>
        <path id="Trazado_501680" data-name="Trazado 501680" d="M138.349,132.593a2.584,2.584,0,1,1,2.584,2.584,2.6,2.6,0,0,1-2.584-2.584m-10.267,0a2.584,2.584,0,1,1,2.584,2.584,2.6,2.6,0,0,1-2.584-2.584m-10.269,0a2.584,2.584,0,1,1,2.584,2.584,2.6,2.6,0,0,1-2.584-2.584m-10.286,0a2.584,2.584,0,1,1,2.584,2.584,2.608,2.608,0,0,1-2.584-2.584m-10.267,0a2.584,2.584,0,1,1,2.584,2.584,2.6,2.6,0,0,1-2.584-2.584m-10.269,0a2.584,2.584,0,1,1,2.584,2.584,2.6,2.6,0,0,1-2.584-2.584m-10.267,0a2.584,2.584,0,1,1,2.584,2.584,2.6,2.6,0,0,1-2.584-2.584m-10.269,0a2.575,2.575,0,1,1,2.585,2.584,2.586,2.586,0,0,1-2.585-2.584m-10.286,0a2.584,2.584,0,1,1,2.584,2.584,2.6,2.6,0,0,1-2.584-2.584m-10.267,0a2.584,2.584,0,1,1,2.584,2.584,2.6,2.6,0,0,1-2.584-2.584m-10.269,0a2.584,2.584,0,1,1,2.585,2.584,2.6,2.6,0,0,1-2.585-2.584m-10.286,0a2.584,2.584,0,1,1,2.585,2.584,2.609,2.609,0,0,1-2.585-2.584m123.234-.828a2.579,2.579,0,1,1,4.7-2.119,2.556,2.556,0,0,1-1.293,3.41h.017a2.557,2.557,0,0,1-3.428-1.291M16.873,133.04a2.559,2.559,0,1,1,1.068.242,2.6,2.6,0,0,1-1.068-.242m140.478-6.581a2.581,2.581,0,1,1,3.636-.431v.017a2.627,2.627,0,0,1-2.033.982,2.542,2.542,0,0,1-1.6-.568M7.915,125.994a2.583,2.583,0,1,1,3.635.448,2.7,2.7,0,0,1-1.6.552,2.543,2.543,0,0,1-2.031-1m154.759-8.288a2.576,2.576,0,1,1,.948-5.063,2.579,2.579,0,0,1-.465,5.115,2.391,2.391,0,0,1-.483-.052m-159.463-2.1a2.585,2.585,0,1,1,3.015,2.067,2.2,2.2,0,0,1-.465.05,2.611,2.611,0,0,1-2.55-2.117m157.723-10.683a2.584,2.584,0,1,1,2.585,2.585,2.582,2.582,0,0,1-2.585-2.585m-158.12-.034A2.584,2.584,0,1,1,5.4,107.474a2.581,2.581,0,0,1-2.584-2.585m158.12-10.234a2.584,2.584,0,1,1,2.585,2.584,2.581,2.581,0,0,1-2.585-2.584M2.815,94.6A2.584,2.584,0,1,1,5.4,97.187,2.593,2.593,0,0,1,2.815,94.6m158.12-10.217a2.584,2.584,0,1,1,2.585,2.585,2.582,2.582,0,0,1-2.585-2.585M2.815,84.335A2.584,2.584,0,1,1,5.4,86.92a2.581,2.581,0,0,1-2.584-2.585M160.935,74.1a2.584,2.584,0,1,1,2.585,2.6,2.591,2.591,0,0,1-2.585-2.6M2.815,74.068A2.584,2.584,0,1,1,5.4,76.651a2.58,2.58,0,0,1-2.584-2.584m158.12-10.234a2.584,2.584,0,1,1,2.585,2.585,2.592,2.592,0,0,1-2.585-2.585M2.815,63.8A2.584,2.584,0,1,1,5.4,66.384,2.58,2.58,0,0,1,2.815,63.8" transform="translate(1.491 32.425)" fill="#333"/>
        <path id="Trazado_501681" data-name="Trazado 501681" d="M108.768,59.671a2.3,2.3,0,0,1-.5-.052,2.216,2.216,0,0,1-.482-.154,2.185,2.185,0,0,1-.448-.242,2.216,2.216,0,0,1-.4-.309,2.617,2.617,0,0,1-.757-1.826,2.381,2.381,0,0,1,.207-1,2.114,2.114,0,0,1,.223-.448,3.576,3.576,0,0,1,.327-.4,2.633,2.633,0,0,1,2.327-.69,2.756,2.756,0,0,1,.5.138,3.655,3.655,0,0,1,.431.242,2.4,2.4,0,0,1,.4.311,3.573,3.573,0,0,1,.327.4,3.679,3.679,0,0,1,.242.448c.05.154.1.327.138.482a2.693,2.693,0,0,1,.05.517,2.617,2.617,0,0,1-.757,1.826,2.587,2.587,0,0,1-1.826.757" transform="translate(56.243 28.87)" fill="#333"/>
        <path id="Trazado_501682" data-name="Trazado 501682" d="M114.2,57.088a2.584,2.584,0,1,1,2.584,2.584,2.58,2.58,0,0,1-2.584-2.584" transform="translate(60.49 28.869)" fill="#333"/>
        <path id="Trazado_501683" data-name="Trazado 501683" d="M124.8,59.661a2.524,2.524,0,0,1-.5-.052,2.229,2.229,0,0,1-.483-.154,2.31,2.31,0,0,1-1.153-.948,2.724,2.724,0,0,1-.4-.93,2.525,2.525,0,0,1-.052-.5,2.616,2.616,0,0,1,.759-1.843,2.7,2.7,0,0,1,3.651,0,2.6,2.6,0,0,1,0,3.67,2.581,2.581,0,0,1-1.826.757" transform="translate(64.738 28.88)" fill="#333"/>
        <path id="Trazado_501684" data-name="Trazado 501684" d="M127.541,70.938a.878.878,0,0,1-.381-.087.867.867,0,0,1-.48-.774V49.888a.861.861,0,0,1,1.387-.682L141.149,59.3a.862.862,0,0,1,0,1.364L128.067,70.757a.86.86,0,0,1-.526.181m.861-19.3V68.324l10.81-8.341Z" transform="translate(67.099 25.969)" fill="#333"/>
        <path id="Trazado_501685" data-name="Trazado 501685" d="M147.092,51.125a6.891,6.891,0,0,0-6.891,6.891v57.706a28.279,28.279,0,0,0,28.247,28.247h115.41A28.279,28.279,0,0,0,312.1,115.722V84.369a6.891,6.891,0,1,0-13.782,0v31.352a14.481,14.481,0,0,1-14.465,14.463H168.448a14.48,14.48,0,0,1-14.465-14.463V58.016a6.891,6.891,0,0,0-6.891-6.891" transform="translate(74.261 27.08)" fill="#94bf10"/>
        <path id="Trazado_501686" data-name="Trazado 501686" d="M145,55.067a.861.861,0,0,0-.861.861v57.706a22.241,22.241,0,0,0,22.217,22.217H281.77a22.242,22.242,0,0,0,22.217-22.217V82.281a.861.861,0,1,0-1.722,0v31.352a20.518,20.518,0,0,1-20.495,20.493H166.36a20.517,20.517,0,0,1-20.495-20.493V55.928a.861.861,0,0,0-.861-.861" transform="translate(76.349 29.168)" fill="#333"/>
        <path id="Trazado_501687" data-name="Trazado 501687" d="M145.6,53.937a2.595,2.595,0,0,0-1.826,4.427,2.7,2.7,0,0,0,3.651,0,3.418,3.418,0,0,0,.329-.4,3.67,3.67,0,0,0,.24-.448,4.745,4.745,0,0,0,.138-.482,2.587,2.587,0,0,0-2.532-3.1" transform="translate(75.753 28.569)" fill="#333"/>
        <path id="Trazado_501688" data-name="Trazado 501688" d="M281.135,2.253h0a2.593,2.593,0,1,1-2.584,2.584,2.591,2.591,0,0,1,2.584-2.584m-10.267,0h0a2.593,2.593,0,1,1-2.585,2.584,2.592,2.592,0,0,1,2.585-2.584m-10.269,0h0a2.593,2.593,0,1,1-2.584,2.584A2.6,2.6,0,0,1,260.6,2.253m-10.286,0h0a2.593,2.593,0,1,1-2.584,2.584,2.591,2.591,0,0,1,2.584-2.584m-10.267,0h0a2.593,2.593,0,1,1-2.585,2.584,2.592,2.592,0,0,1,2.585-2.584m-10.269,0h0a2.593,2.593,0,1,1-2.584,2.584,2.591,2.591,0,0,1,2.584-2.584m-10.267,0h0a2.593,2.593,0,1,1-2.585,2.584,2.592,2.592,0,0,1,2.585-2.584m-10.269,0h0a2.593,2.593,0,1,1-2.584,2.584,2.589,2.589,0,0,1,2.584-2.584m-10.286,0h0a2.593,2.593,0,1,1-2.584,2.584,2.592,2.592,0,0,1,2.584-2.584m-10.267,0h0A2.593,2.593,0,1,1,186.1,4.837a2.592,2.592,0,0,1,2.585-2.584m-10.269,0h0a2.593,2.593,0,1,1-2.584,2.584,2.592,2.592,0,0,1,2.584-2.584m-10.286,0h0a2.593,2.593,0,1,1-2.584,2.584,2.592,2.592,0,0,1,2.584-2.584m123.01,1.878h0a2.614,2.614,0,0,1,1.068.24H292.2a2.58,2.58,0,0,1-2.12,4.7,2.588,2.588,0,0,1,1.069-4.944m-133,.017h0a2.611,2.611,0,1,1-1.068.24,2.59,2.59,0,0,1,1.068-.24M299.156,10.4h0a2.626,2.626,0,0,1,2.031.984V11.4a2.582,2.582,0,1,1-3.635-.431,2.541,2.541,0,0,1,1.6-.569m-149.007.034h0a2.7,2.7,0,0,1,1.6.552,2.589,2.589,0,1,1-3.636.448,2.548,2.548,0,0,1,2.033-1m153.211,9.236h0a2.625,2.625,0,1,1-.483.052,2.39,2.39,0,0,1,.483-.052m-157.4.035h0a2.2,2.2,0,0,1,.467.05,2.545,2.545,0,1,1-.467-.05M303.72,29.922h0a2.584,2.584,0,1,1-2.584,2.584,2.581,2.581,0,0,1,2.584-2.584m-158.12.034h0a2.584,2.584,0,1,1-2.584,2.584,2.581,2.581,0,0,1,2.584-2.584M303.72,40.189h0a2.584,2.584,0,1,1-2.584,2.585,2.582,2.582,0,0,1,2.584-2.585m-158.12.054h0a2.584,2.584,0,1,1-2.584,2.584,2.58,2.58,0,0,1,2.584-2.584M303.72,50.458h0a2.584,2.584,0,1,1-2.584,2.584,2.581,2.581,0,0,1,2.584-2.584M145.6,50.51h0a2.584,2.584,0,1,1-2.584,2.584A2.58,2.58,0,0,1,145.6,50.51M303.72,60.725h0a2.593,2.593,0,1,1-2.584,2.6,2.6,2.6,0,0,1,2.584-2.6m-158.12.054h0a2.584,2.584,0,1,1-2.584,2.584,2.58,2.58,0,0,1,2.584-2.584M303.72,71.01h0a2.584,2.584,0,1,1-2.584,2.585,2.581,2.581,0,0,1,2.584-2.585m-158.12.035h0a2.584,2.584,0,1,1-2.584,2.584,2.581,2.581,0,0,1,2.584-2.584" transform="translate(75.753 1.193)" fill="#333"/>
        <path id="Trazado_501689" data-name="Trazado 501689" d="M248.969,53.937a2.4,2.4,0,0,0-.5.05,2.9,2.9,0,0,0-1.326.707,2.617,2.617,0,0,0-.757,1.826,2.7,2.7,0,0,0,.05.517,2.677,2.677,0,0,0,.156.482,2.114,2.114,0,0,0,.223.448,3.753,3.753,0,0,0,.327.4,2.633,2.633,0,0,0,2.327.69,2.757,2.757,0,0,0,.5-.138,3.659,3.659,0,0,0,.431-.242,2.488,2.488,0,0,0,.4-.311,3.571,3.571,0,0,0,.327-.4,3.679,3.679,0,0,0,.242-.448c.05-.154.1-.327.138-.482a2.7,2.7,0,0,0,.05-.517,2.617,2.617,0,0,0-.757-1.826,2.587,2.587,0,0,0-1.826-.757" transform="translate(130.504 28.569)" fill="#333"/>
        <path id="Trazado_501690" data-name="Trazado 501690" d="M254.4,56.522a2.584,2.584,0,1,0,2.582-2.584,2.58,2.58,0,0,0-2.582,2.584" transform="translate(134.752 28.57)" fill="#333"/>
        <path id="Trazado_501691" data-name="Trazado 501691" d="M265.007,53.937a2.641,2.641,0,0,0-.5.05,2.805,2.805,0,0,0-.93.4,2.078,2.078,0,0,0-.707.708,2.3,2.3,0,0,0-.242.447,2.229,2.229,0,0,0-.155.483,2.578,2.578,0,0,0,.707,2.342,2.7,2.7,0,0,0,3.651,0,2.6,2.6,0,0,0,0-3.67,2.575,2.575,0,0,0-1.825-.757" transform="translate(138.999 28.569)" fill="#333"/>
        <path id="Trazado_501692" data-name="Trazado 501692" d="M268.268,48.648,281.35,58.741a.862.862,0,0,1,0,1.364L268.268,70.2a.861.861,0,0,1-1.387-.682V49.329a.867.867,0,0,1,.48-.774.878.878,0,0,1,.381-.087.86.86,0,0,1,.526.181m11.145,10.775L268.6,51.082V67.765Z" transform="translate(141.361 25.672)" fill="#333"/>
        <path id="Trazado_501693" data-name="Trazado 501693" d="M289.373,92.842a6.891,6.891,0,0,1-6.891-6.891V28.245A28.278,28.278,0,0,1,310.729,0H426.138a28.278,28.278,0,0,1,28.247,28.245V59.6a6.891,6.891,0,1,1-13.782,0V28.245a14.481,14.481,0,0,0-14.465-14.463H310.729a14.48,14.48,0,0,0-14.465,14.463V85.951a6.891,6.891,0,0,1-6.891,6.891" transform="translate(149.624 0)" fill="#08afaf"/>
        <path id="Trazado_501694" data-name="Trazado 501694" d="M287.285,84.725a.861.861,0,0,1-.861-.861V26.158A22.241,22.241,0,0,1,308.641,3.941H424.05a22.242,22.242,0,0,1,22.217,22.217V57.509a.861.861,0,1,1-1.722,0V26.158A20.518,20.518,0,0,0,424.05,5.665H308.641a20.517,20.517,0,0,0-20.495,20.493V83.864a.861.861,0,0,1-.861.861" transform="translate(151.712 2.087)" fill="#333"/>
        <path id="Trazado_501695" data-name="Trazado 501695" d="M287.881,59.661a2.595,2.595,0,0,1-1.826-4.427,2.7,2.7,0,0,1,3.651,0,3.429,3.429,0,0,1,.329.4,3.673,3.673,0,0,1,.24.448,4.758,4.758,0,0,1,.138.482,2.575,2.575,0,0,1,.052.517,2.612,2.612,0,0,1-.759,1.826,2.581,2.581,0,0,1-1.825.757" transform="translate(151.115 28.88)" fill="#333"/>
        <path id="Trazado_501696" data-name="Trazado 501696" d="M420.831,132.593a2.584,2.584,0,1,1,2.584,2.584,2.6,2.6,0,0,1-2.584-2.584m-10.267,0a2.584,2.584,0,1,1,2.584,2.584,2.6,2.6,0,0,1-2.584-2.584m-10.269,0a2.584,2.584,0,1,1,2.584,2.584,2.6,2.6,0,0,1-2.584-2.584m-10.286,0a2.584,2.584,0,1,1,2.584,2.584,2.608,2.608,0,0,1-2.584-2.584m-10.267,0a2.584,2.584,0,1,1,2.584,2.584,2.6,2.6,0,0,1-2.584-2.584m-10.269,0a2.584,2.584,0,1,1,2.584,2.584,2.6,2.6,0,0,1-2.584-2.584m-10.269,0a2.584,2.584,0,1,1,2.585,2.584,2.6,2.6,0,0,1-2.585-2.584m-10.267,0a2.575,2.575,0,1,1,2.584,2.584,2.586,2.586,0,0,1-2.584-2.584m-10.286,0a2.584,2.584,0,1,1,2.584,2.584,2.6,2.6,0,0,1-2.584-2.584m-10.267,0a2.584,2.584,0,1,1,2.584,2.584,2.6,2.6,0,0,1-2.584-2.584m-10.269,0a2.584,2.584,0,1,1,2.584,2.584,2.6,2.6,0,0,1-2.584-2.584m-10.286,0a2.584,2.584,0,1,1,2.584,2.584,2.608,2.608,0,0,1-2.584-2.584m123.234-.828a2.579,2.579,0,0,1,4.7-2.119,2.556,2.556,0,0,1-1.293,3.41h.017a2.557,2.557,0,0,1-3.428-1.291m-131.71,1.274a2.557,2.557,0,1,1,1.068.242,2.6,2.6,0,0,1-1.068-.242m140.478-6.581a2.581,2.581,0,1,1,3.636-.431v.017a2.627,2.627,0,0,1-2.033.982,2.539,2.539,0,0,1-1.6-.568M290.4,125.994a2.583,2.583,0,1,1,3.634.448,2.7,2.7,0,0,1-1.6.552,2.543,2.543,0,0,1-2.031-1m154.759-8.288a2.576,2.576,0,1,1,.948-5.063,2.579,2.579,0,0,1-.465,5.115,2.391,2.391,0,0,1-.483-.052m-159.463-2.1a2.585,2.585,0,1,1,3.015,2.067,2.2,2.2,0,0,1-.465.05,2.611,2.611,0,0,1-2.55-2.117m157.723-10.683A2.584,2.584,0,1,1,446,107.508a2.582,2.582,0,0,1-2.585-2.585m-158.12-.034a2.584,2.584,0,1,1,2.584,2.585,2.581,2.581,0,0,1-2.584-2.585m158.12-10.234A2.584,2.584,0,1,1,446,97.239a2.581,2.581,0,0,1-2.585-2.584M285.3,94.6a2.584,2.584,0,1,1,2.584,2.584A2.593,2.593,0,0,1,285.3,94.6m158.12-10.217A2.584,2.584,0,1,1,446,86.972a2.582,2.582,0,0,1-2.585-2.585M285.3,84.335a2.584,2.584,0,1,1,2.584,2.585,2.581,2.581,0,0,1-2.584-2.585M443.417,74.1A2.584,2.584,0,1,1,446,76.7a2.591,2.591,0,0,1-2.585-2.6M285.3,74.068a2.584,2.584,0,1,1,2.584,2.584,2.58,2.58,0,0,1-2.584-2.584m158.12-10.234A2.584,2.584,0,1,1,446,66.419a2.592,2.592,0,0,1-2.585-2.585M285.3,63.8a2.584,2.584,0,1,1,2.584,2.584A2.58,2.58,0,0,1,285.3,63.8" transform="translate(151.115 32.425)" fill="#333"/>
        <path id="Trazado_501697" data-name="Trazado 501697" d="M391.249,59.671a2.291,2.291,0,0,1-.5-.052,2.215,2.215,0,0,1-.482-.154,2.182,2.182,0,0,1-.448-.242,2.218,2.218,0,0,1-.4-.309,2.617,2.617,0,0,1-.757-1.826,2.379,2.379,0,0,1,.206-1,2.114,2.114,0,0,1,.223-.448,3.573,3.573,0,0,1,.327-.4,2.633,2.633,0,0,1,2.327-.69,2.756,2.756,0,0,1,.5.138,3.78,3.78,0,0,1,.431.242,2.406,2.406,0,0,1,.4.311,3.58,3.58,0,0,1,.327.4,3.689,3.689,0,0,1,.242.448c.05.154.1.327.138.482a2.691,2.691,0,0,1,.05.517,2.616,2.616,0,0,1-.757,1.826,2.587,2.587,0,0,1-1.826.757" transform="translate(205.867 28.87)" fill="#333"/>
        <path id="Trazado_501698" data-name="Trazado 501698" d="M396.684,57.088a2.584,2.584,0,1,1,2.584,2.584,2.58,2.58,0,0,1-2.584-2.584" transform="translate(210.114 28.869)" fill="#333"/>
        <path id="Trazado_501699" data-name="Trazado 501699" d="M407.287,59.661a2.524,2.524,0,0,1-.5-.052,2.2,2.2,0,0,1-.483-.154,2.31,2.31,0,0,1-1.153-.948,2.726,2.726,0,0,1-.4-.93,2.524,2.524,0,0,1-.052-.5,2.616,2.616,0,0,1,.759-1.843,2.7,2.7,0,0,1,3.651,0,2.6,2.6,0,0,1,0,3.67,2.582,2.582,0,0,1-1.826.757" transform="translate(214.362 28.88)" fill="#333"/>
        <path id="Trazado_501700" data-name="Trazado 501700" d="M410.023,70.938a.878.878,0,0,1-.381-.087.867.867,0,0,1-.48-.774V49.888a.861.861,0,0,1,1.387-.682L423.631,59.3a.862.862,0,0,1,0,1.364L410.549,70.757a.86.86,0,0,1-.526.181m.861-19.3V68.324l10.81-8.341Z" transform="translate(216.724 25.969)" fill="#333"/>
        <path id="Trazado_501701" data-name="Trazado 501701" d="M430.573,52.223a6.891,6.891,0,0,0-6.891,6.891V116.82a28.279,28.279,0,0,0,28.247,28.247h115.41a28.279,28.279,0,0,0,28.247-28.247V85.467a6.891,6.891,0,1,0-13.782,0V116.82a14.481,14.481,0,0,1-14.465,14.463H451.929a14.48,14.48,0,0,1-14.465-14.463V59.114a6.891,6.891,0,0,0-6.891-6.891" transform="translate(224.415 27.661)" fill="#04425b"/>
        <path id="Trazado_501702" data-name="Trazado 501702" d="M428.485,56.165a.861.861,0,0,0-.861.861v57.706a22.241,22.241,0,0,0,22.217,22.217H565.25a22.242,22.242,0,0,0,22.217-22.217V83.379a.861.861,0,0,0-1.722,0v31.352a20.518,20.518,0,0,1-20.495,20.493H449.841a20.517,20.517,0,0,1-20.495-20.493V57.026a.861.861,0,0,0-.861-.861" transform="translate(226.503 29.749)" fill="#fff"/>
        <g transform="matrix(1, 0, 0, 1, 0, 0)" filter="url(#Trazado_501706)">
          <path id="Trazado_501706-3" data-name="Trazado 501706" d="M7.887,0H125.533a7.887,7.887,0,0,1,7.887,7.887V125.534a7.887,7.887,0,0,1-7.887,7.887H7.888A7.888,7.888,0,0,1,0,125.533V7.887A7.887,7.887,0,0,1,7.887,0Z" transform="translate(19.24 19.24)" fill="#fff"/>
        </g>
        <g transform="matrix(1, 0, 0, 1, 0, 0)" filter="url(#Trazado_501703)">
          <path id="Trazado_501703-3" data-name="Trazado 501703" d="M152.78,24.085V133.374a12.065,12.065,0,0,0,12.066,12.066H274.135A12.066,12.066,0,0,0,286.2,133.374V24.085a12.067,12.067,0,0,0-12.066-12.066H164.846A12.066,12.066,0,0,0,152.78,24.085" transform="translate(80.92 6.37)" fill="#fff"/>
        </g>
        <g transform="matrix(1, 0, 0, 1, 0, 0)" filter="url(#Rectángulo_277788)">
          <rect id="Rectángulo_277788-3" data-name="Rectángulo 277788" width="133.421" height="133.421" rx="7.888" transform="translate(451.35 19.24)" fill="#fff"/>
        </g>
        <g transform="matrix(1, 0, 0, 1, 0, 0)" filter="url(#Trazado_501704)">
          <path id="Trazado_501704-3" data-name="Trazado 501704" d="M436.26,24.085V133.374a12.065,12.065,0,0,0,12.066,12.066H557.615a12.066,12.066,0,0,0,12.066-12.066V24.085a12.067,12.067,0,0,0-12.066-12.066H448.326A12.066,12.066,0,0,0,436.26,24.085" transform="translate(231.08 6.37)" fill="#fff"/>
        </g>
        <path id="Trazado_501705" data-name="Trazado 501705" d="M429.081,53.937a2.595,2.595,0,0,0-1.826,4.427,2.7,2.7,0,0,0,3.651,0,3.422,3.422,0,0,0,.329-.4,3.681,3.681,0,0,0,.24-.448,4.741,4.741,0,0,0,.138-.482,2.587,2.587,0,0,0-2.532-3.1" transform="translate(225.906 28.569)" fill="#fff"/>
      </g>
    </g>
    <path id="Trazado_634269" data-name="Trazado 634269" d="M37.793,13.008l3.25-9.383h1.641L38.465,15H37.137L32.926,3.625h1.633ZM45.551,15H44.105V6.547h1.445ZM43.988,4.3a.863.863,0,0,1,.215-.594.807.807,0,0,1,.637-.242.819.819,0,0,1,.641.242A.854.854,0,0,1,45.7,4.3a.826.826,0,0,1-.219.586.834.834,0,0,1-.641.234.821.821,0,0,1-.637-.234A.834.834,0,0,1,43.988,4.3Zm8.8,8.453a1.064,1.064,0,0,0-.441-.91,4.249,4.249,0,0,0-1.539-.559,7.277,7.277,0,0,1-1.742-.562,2.479,2.479,0,0,1-.953-.781A1.869,1.869,0,0,1,47.8,8.867a2.193,2.193,0,0,1,.879-1.758,3.432,3.432,0,0,1,2.246-.719,3.532,3.532,0,0,1,2.332.742,2.357,2.357,0,0,1,.895,1.9H52.7a1.3,1.3,0,0,0-.5-1.023,1.888,1.888,0,0,0-1.27-.43,1.976,1.976,0,0,0-1.234.344,1.082,1.082,0,0,0-.445.9.877.877,0,0,0,.414.789,5.1,5.1,0,0,0,1.5.508,7.8,7.8,0,0,1,1.754.578,2.558,2.558,0,0,1,1,.809,1.988,1.988,0,0,1,.324,1.152,2.163,2.163,0,0,1-.906,1.816,3.8,3.8,0,0,1-2.352.684,4.257,4.257,0,0,1-1.8-.359,2.922,2.922,0,0,1-1.223-1,2.42,2.42,0,0,1-.441-1.395h1.445a1.5,1.5,0,0,0,.582,1.152,2.258,2.258,0,0,0,1.434.426,2.331,2.331,0,0,0,1.316-.332A1.02,1.02,0,0,0,52.785,12.758ZM57.684,15H56.238V6.547h1.445ZM56.121,4.3a.863.863,0,0,1,.215-.594.807.807,0,0,1,.637-.242.819.819,0,0,1,.641.242.854.854,0,0,1,.219.594.826.826,0,0,1-.219.586.834.834,0,0,1-.641.234.821.821,0,0,1-.637-.234A.834.834,0,0,1,56.121,4.3Zm5.836.2V6.547h1.578V7.664H61.957v5.249a1.173,1.173,0,0,0,.211.763.888.888,0,0,0,.719.254,3.5,3.5,0,0,0,.688-.094V15a4.215,4.215,0,0,1-1.109.155A1.8,1.8,0,0,1,61,14.57a2.517,2.517,0,0,1-.492-1.664V7.664H58.973V6.547h1.539V4.5ZM70.441,15a3.036,3.036,0,0,1-.2-.891,3.225,3.225,0,0,1-2.406,1.047,2.984,2.984,0,0,1-2.051-.707,2.288,2.288,0,0,1-.8-1.793,2.39,2.39,0,0,1,1-2.051,4.733,4.733,0,0,1,2.824-.73h1.406V9.211A1.623,1.623,0,0,0,69.762,8a1.821,1.821,0,0,0-1.336-.449,2.108,2.108,0,0,0-1.3.391,1.151,1.151,0,0,0-.523.945H65.152A2,2,0,0,1,65.6,7.668a3.066,3.066,0,0,1,1.219-.934,4.1,4.1,0,0,1,1.691-.344,3.342,3.342,0,0,1,2.289.73,2.635,2.635,0,0,1,.859,2.012v3.891a4.757,4.757,0,0,0,.3,1.852V15Zm-2.4-1.1a2.54,2.54,0,0,0,1.289-.352,2.127,2.127,0,0,0,.883-.914V10.9H69.082q-2.656,0-2.656,1.555a1.316,1.316,0,0,0,.453,1.063A1.742,1.742,0,0,0,68.043,13.9Zm10.8-1.141a1.064,1.064,0,0,0-.441-.91,4.249,4.249,0,0,0-1.539-.559,7.277,7.277,0,0,1-1.742-.562,2.479,2.479,0,0,1-.953-.781,1.869,1.869,0,0,1-.309-1.078,2.193,2.193,0,0,1,.879-1.758,3.432,3.432,0,0,1,2.246-.719,3.532,3.532,0,0,1,2.332.742,2.357,2.357,0,0,1,.895,1.9H78.762a1.3,1.3,0,0,0-.5-1.023,1.888,1.888,0,0,0-1.27-.43,1.976,1.976,0,0,0-1.234.344,1.082,1.082,0,0,0-.445.9.877.877,0,0,0,.414.789,5.1,5.1,0,0,0,1.5.508,7.8,7.8,0,0,1,1.754.578,2.558,2.558,0,0,1,1,.809,1.988,1.988,0,0,1,.324,1.152,2.163,2.163,0,0,1-.906,1.816,3.8,3.8,0,0,1-2.352.684,4.257,4.257,0,0,1-1.8-.359,2.922,2.922,0,0,1-1.223-1,2.42,2.42,0,0,1-.441-1.395H75.02a1.5,1.5,0,0,0,.582,1.152,2.258,2.258,0,0,0,1.434.426,2.331,2.331,0,0,0,1.316-.332A1.02,1.02,0,0,0,78.848,12.758Zm3.359,1.484a.905.905,0,0,1,.223-.625.848.848,0,0,1,.668-.25.874.874,0,0,1,.676.25.887.887,0,0,1,.23.625.839.839,0,0,1-.23.6.89.89,0,0,1-.676.242.8.8,0,0,1-.891-.844Z" transform="translate(421 4164.324)" fill="#12263f"/>
    <path id="Trazado_634270" data-name="Trazado 634270" d="M12.383,13.008l3.25-9.383h1.641L13.055,15H11.727L7.516,3.625H9.148ZM20.141,15H18.7V6.547h1.445ZM18.578,4.3a.863.863,0,0,1,.215-.594.807.807,0,0,1,.637-.242.819.819,0,0,1,.641.242.854.854,0,0,1,.219.594.826.826,0,0,1-.219.586.834.834,0,0,1-.641.234.821.821,0,0,1-.637-.234A.834.834,0,0,1,18.578,4.3Zm8.8,8.453a1.064,1.064,0,0,0-.441-.91,4.249,4.249,0,0,0-1.539-.559,7.277,7.277,0,0,1-1.742-.562,2.479,2.479,0,0,1-.953-.781,1.869,1.869,0,0,1-.309-1.078,2.193,2.193,0,0,1,.879-1.758,3.432,3.432,0,0,1,2.246-.719,3.532,3.532,0,0,1,2.332.742,2.357,2.357,0,0,1,.895,1.9H27.289a1.3,1.3,0,0,0-.5-1.023,1.888,1.888,0,0,0-1.27-.43,1.976,1.976,0,0,0-1.234.344,1.082,1.082,0,0,0-.445.9.877.877,0,0,0,.414.789,5.1,5.1,0,0,0,1.5.508A7.8,7.8,0,0,1,27.5,10.7a2.558,2.558,0,0,1,1,.809,1.988,1.988,0,0,1,.324,1.152,2.163,2.163,0,0,1-.906,1.816,3.8,3.8,0,0,1-2.352.684,4.257,4.257,0,0,1-1.8-.359,2.922,2.922,0,0,1-1.223-1A2.42,2.42,0,0,1,22.1,12.4h1.445a1.5,1.5,0,0,0,.582,1.152,2.258,2.258,0,0,0,1.434.426,2.331,2.331,0,0,0,1.316-.332A1.02,1.02,0,0,0,27.375,12.758ZM32.273,15H30.828V6.547h1.445ZM30.711,4.3a.863.863,0,0,1,.215-.594.807.807,0,0,1,.637-.242.819.819,0,0,1,.641.242.854.854,0,0,1,.219.594.826.826,0,0,1-.219.586.834.834,0,0,1-.641.234.821.821,0,0,1-.637-.234A.834.834,0,0,1,30.711,4.3Zm5.836.2V6.547h1.578V7.664H36.547v5.249a1.173,1.173,0,0,0,.211.763.888.888,0,0,0,.719.254,3.5,3.5,0,0,0,.688-.094V15a4.215,4.215,0,0,1-1.109.155,1.8,1.8,0,0,1-1.461-.586,2.517,2.517,0,0,1-.492-1.664V7.664H33.563V6.547H35.1V4.5ZM45.031,15a3.036,3.036,0,0,1-.2-.891,3.225,3.225,0,0,1-2.406,1.047,2.984,2.984,0,0,1-2.051-.707,2.287,2.287,0,0,1-.8-1.793,2.39,2.39,0,0,1,1-2.051,4.733,4.733,0,0,1,2.824-.73H44.8V9.211A1.623,1.623,0,0,0,44.352,8a1.821,1.821,0,0,0-1.336-.449,2.107,2.107,0,0,0-1.3.391,1.151,1.151,0,0,0-.523.945H39.742a2,2,0,0,1,.449-1.223,3.066,3.066,0,0,1,1.219-.934A4.1,4.1,0,0,1,43.1,6.391a3.342,3.342,0,0,1,2.289.73,2.635,2.635,0,0,1,.859,2.012v3.891a4.757,4.757,0,0,0,.3,1.852V15Zm-2.4-1.1a2.54,2.54,0,0,0,1.289-.352,2.127,2.127,0,0,0,.883-.914V10.9H43.672q-2.656,0-2.656,1.555a1.316,1.316,0,0,0,.453,1.063A1.742,1.742,0,0,0,42.633,13.9Zm10.8-1.141a1.064,1.064,0,0,0-.441-.91,4.249,4.249,0,0,0-1.539-.559,7.277,7.277,0,0,1-1.742-.562,2.479,2.479,0,0,1-.953-.781,1.869,1.869,0,0,1-.309-1.078,2.193,2.193,0,0,1,.879-1.758,3.432,3.432,0,0,1,2.246-.719,3.532,3.532,0,0,1,2.332.742,2.357,2.357,0,0,1,.895,1.9H53.352a1.3,1.3,0,0,0-.5-1.023,1.888,1.888,0,0,0-1.27-.43,1.976,1.976,0,0,0-1.234.344,1.082,1.082,0,0,0-.445.9.877.877,0,0,0,.414.789,5.1,5.1,0,0,0,1.5.508,7.8,7.8,0,0,1,1.754.578,2.558,2.558,0,0,1,1,.809,1.988,1.988,0,0,1,.324,1.152,2.163,2.163,0,0,1-.906,1.816,3.8,3.8,0,0,1-2.352.684,4.257,4.257,0,0,1-1.8-.359,2.922,2.922,0,0,1-1.223-1,2.42,2.42,0,0,1-.441-1.395h1.445a1.5,1.5,0,0,0,.582,1.152,2.258,2.258,0,0,0,1.434.426,2.331,2.331,0,0,0,1.316-.332A1.02,1.02,0,0,0,53.438,12.758Zm12.508,1.406a3.07,3.07,0,0,1-2.477.992,2.628,2.628,0,0,1-2.059-.785,3.4,3.4,0,0,1-.715-2.324v-5.5h1.445v5.461q0,1.922,1.563,1.922a2.163,2.163,0,0,0,2.2-1.234V6.547h1.445V15H65.977ZM64.773,3h1.75L64.43,5.3l-1.164,0Zm6.141,3.547.047,1.063a3.08,3.08,0,0,1,2.531-1.219q2.68,0,2.7,3.023V15H74.75V9.406a1.946,1.946,0,0,0-.418-1.352,1.675,1.675,0,0,0-1.277-.437,2.086,2.086,0,0,0-1.234.375,2.546,2.546,0,0,0-.828.984V15H69.547V6.547ZM79.945,15H78.5V6.547h1.445ZM78.383,4.3a.863.863,0,0,1,.215-.594.807.807,0,0,1,.637-.242.819.819,0,0,1,.641.242.854.854,0,0,1,.219.594.826.826,0,0,1-.219.586.834.834,0,0,1-.641.234.821.821,0,0,1-.637-.234A.834.834,0,0,1,78.383,4.3Zm7.266,9.672A2.082,2.082,0,0,0,87,13.508a1.649,1.649,0,0,0,.641-1.172h1.367a2.621,2.621,0,0,1-.5,1.383,3.293,3.293,0,0,1-1.23,1.047,3.55,3.55,0,0,1-1.629.391A3.482,3.482,0,0,1,82.9,14a4.59,4.59,0,0,1-1.02-3.152v-.242a5.089,5.089,0,0,1,.453-2.2,3.451,3.451,0,0,1,1.3-1.492,3.7,3.7,0,0,1,2-.531A3.39,3.39,0,0,1,88,7.242a3.043,3.043,0,0,1,1,2.211H87.641a1.992,1.992,0,0,0-.621-1.348,1.932,1.932,0,0,0-1.379-.527,2.023,2.023,0,0,0-1.707.793,3.724,3.724,0,0,0-.605,2.293v.273a3.65,3.65,0,0,0,.6,2.25A2.033,2.033,0,0,0,85.648,13.977ZM95.852,15a3.036,3.036,0,0,1-.2-.891,3.225,3.225,0,0,1-2.406,1.047,2.984,2.984,0,0,1-2.051-.707,2.288,2.288,0,0,1-.8-1.793,2.39,2.39,0,0,1,1-2.051,4.733,4.733,0,0,1,2.824-.73h1.406V9.211A1.623,1.623,0,0,0,95.172,8a1.821,1.821,0,0,0-1.336-.449,2.108,2.108,0,0,0-1.3.391,1.151,1.151,0,0,0-.523.945H90.563a2,2,0,0,1,.449-1.223,3.066,3.066,0,0,1,1.219-.934,4.1,4.1,0,0,1,1.691-.344,3.342,3.342,0,0,1,2.289.73,2.635,2.635,0,0,1,.859,2.012v3.891a4.757,4.757,0,0,0,.3,1.852V15Zm-2.4-1.1a2.54,2.54,0,0,0,1.289-.352,2.127,2.127,0,0,0,.883-.914V10.9H94.492q-2.656,0-2.656,1.555a1.316,1.316,0,0,0,.453,1.063A1.742,1.742,0,0,0,93.453,13.9Zm10.8-1.141a1.064,1.064,0,0,0-.441-.91,4.249,4.249,0,0,0-1.539-.559,7.277,7.277,0,0,1-1.742-.562,2.479,2.479,0,0,1-.953-.781,1.869,1.869,0,0,1-.309-1.078,2.193,2.193,0,0,1,.879-1.758,3.432,3.432,0,0,1,2.246-.719,3.532,3.532,0,0,1,2.332.742,2.357,2.357,0,0,1,.895,1.9h-1.453a1.3,1.3,0,0,0-.5-1.023,1.888,1.888,0,0,0-1.27-.43,1.976,1.976,0,0,0-1.234.344,1.082,1.082,0,0,0-.445.9.877.877,0,0,0,.414.789,5.1,5.1,0,0,0,1.5.508,7.8,7.8,0,0,1,1.754.578,2.558,2.558,0,0,1,1,.809,1.988,1.988,0,0,1,.324,1.152,2.163,2.163,0,0,1-.906,1.816,3.8,3.8,0,0,1-2.352.684,4.257,4.257,0,0,1-1.8-.359,2.922,2.922,0,0,1-1.223-1,2.42,2.42,0,0,1-.441-1.395h1.445a1.5,1.5,0,0,0,.582,1.152,2.258,2.258,0,0,0,1.434.426,2.331,2.331,0,0,0,1.316-.332A1.02,1.02,0,0,0,104.258,12.758Zm3.359,1.484a.905.905,0,0,1,.223-.625.848.848,0,0,1,.668-.25.874.874,0,0,1,.676.25.887.887,0,0,1,.23.625.839.839,0,0,1-.23.6.89.89,0,0,1-.676.242.8.8,0,0,1-.891-.844Z" transform="translate(631 4162.824)" fill="#12263f"/>
    <path id="Trazado_634271" data-name="Trazado 634271" d="M22.258,4.852H18.6V15H17.109V4.852H13.461V3.625h8.8ZM25.289,15H23.844V6.547h1.445ZM23.727,4.3a.863.863,0,0,1,.215-.594.807.807,0,0,1,.637-.242.819.819,0,0,1,.641.242.854.854,0,0,1,.219.594.826.826,0,0,1-.219.586.834.834,0,0,1-.641.234.821.821,0,0,1-.637-.234A.834.834,0,0,1,23.727,4.3Zm7.383,10.852a3.693,3.693,0,0,1-2.8-1.129,4.19,4.19,0,0,1-1.078-3.02v-.266a5.073,5.073,0,0,1,.48-2.246,3.748,3.748,0,0,1,1.344-1.547,3.378,3.378,0,0,1,1.871-.559,3.166,3.166,0,0,1,2.563,1.086,4.7,4.7,0,0,1,.914,3.109v.6H28.68a3,3,0,0,0,.73,2.02,2.3,2.3,0,0,0,1.777.77,2.517,2.517,0,0,0,1.3-.312,3.259,3.259,0,0,0,.93-.828l.883.688A3.55,3.55,0,0,1,31.109,15.156Zm-.18-7.578a1.928,1.928,0,0,0-1.469.637A3.1,3.1,0,0,0,28.727,10h4.234V9.891a2.753,2.753,0,0,0-.594-1.707A1.815,1.815,0,0,0,30.93,7.578Zm6.508-1.031.039.938a3.122,3.122,0,0,1,2.508-1.094A2.417,2.417,0,0,1,42.4,7.75a3.2,3.2,0,0,1,1.1-.984,3.242,3.242,0,0,1,1.6-.375q2.781,0,2.828,2.945V15H46.477V9.422a1.941,1.941,0,0,0-.414-1.355,1.823,1.823,0,0,0-1.391-.449,1.917,1.917,0,0,0-1.336.48,1.949,1.949,0,0,0-.617,1.293V15H41.266V9.461a1.613,1.613,0,0,0-1.8-1.844,1.934,1.934,0,0,0-1.945,1.211V15H36.07V6.547Zm19.8,4.32a5.062,5.062,0,0,1-.883,3.109,2.829,2.829,0,0,1-2.391,1.18,3.1,3.1,0,0,1-2.422-.977v4.07H50.1V6.547h1.32l.07.938a2.977,2.977,0,0,1,2.453-1.094,2.882,2.882,0,0,1,2.41,1.148,5.117,5.117,0,0,1,.887,3.2ZM55.8,10.7a3.735,3.735,0,0,0-.609-2.258,1.963,1.963,0,0,0-1.672-.828,2.125,2.125,0,0,0-1.969,1.164V12.82a2.129,2.129,0,0,0,1.984,1.156,1.954,1.954,0,0,0,1.652-.824A4.077,4.077,0,0,0,55.8,10.7Zm2.9-.008a4.993,4.993,0,0,1,.488-2.234A3.643,3.643,0,0,1,60.543,6.93a3.7,3.7,0,0,1,1.988-.539,3.565,3.565,0,0,1,2.793,1.2,4.6,4.6,0,0,1,1.066,3.18v.1a5.036,5.036,0,0,1-.473,2.215,3.589,3.589,0,0,1-1.352,1.527,3.743,3.743,0,0,1-2.02.547,3.556,3.556,0,0,1-2.785-1.2A4.575,4.575,0,0,1,58.7,10.8Zm1.453.172a3.616,3.616,0,0,0,.652,2.258,2.211,2.211,0,0,0,3.5-.012,3.955,3.955,0,0,0,.648-2.418,3.61,3.61,0,0,0-.66-2.254,2.1,2.1,0,0,0-1.754-.863A2.075,2.075,0,0,0,60.8,8.43,3.925,3.925,0,0,0,60.148,10.867Zm15.523,4.289a3.693,3.693,0,0,1-2.8-1.129,4.19,4.19,0,0,1-1.078-3.02v-.266a5.073,5.073,0,0,1,.48-2.246,3.748,3.748,0,0,1,1.344-1.547,3.378,3.378,0,0,1,1.871-.559,3.166,3.166,0,0,1,2.563,1.086,4.7,4.7,0,0,1,.914,3.109v.6H73.242a3,3,0,0,0,.73,2.02,2.3,2.3,0,0,0,1.777.77,2.517,2.517,0,0,0,1.3-.312,3.259,3.259,0,0,0,.93-.828l.883.688A3.55,3.55,0,0,1,75.672,15.156Zm-.18-7.578a1.928,1.928,0,0,0-1.469.637A3.1,3.1,0,0,0,73.289,10h4.234V9.891a2.753,2.753,0,0,0-.594-1.707A1.815,1.815,0,0,0,75.492,7.578Zm6.516-1.031.047,1.063a3.08,3.08,0,0,1,2.531-1.219q2.68,0,2.7,3.023V15H85.844V9.406a1.946,1.946,0,0,0-.418-1.352,1.675,1.675,0,0,0-1.277-.437,2.086,2.086,0,0,0-1.234.375,2.546,2.546,0,0,0-.828.984V15H80.641V6.547ZM95,15H93.555V3H95Zm7.531,0a3.036,3.036,0,0,1-.2-.891,3.225,3.225,0,0,1-2.406,1.047,2.984,2.984,0,0,1-2.051-.707,2.288,2.288,0,0,1-.8-1.793,2.39,2.39,0,0,1,1-2.051,4.733,4.733,0,0,1,2.824-.73H102.3V9.211A1.623,1.623,0,0,0,101.852,8a1.821,1.821,0,0,0-1.336-.449,2.108,2.108,0,0,0-1.3.391,1.151,1.151,0,0,0-.523.945H97.242a2,2,0,0,1,.449-1.223,3.066,3.066,0,0,1,1.219-.934,4.1,4.1,0,0,1,1.691-.344,3.342,3.342,0,0,1,2.289.73,2.635,2.635,0,0,1,.859,2.012v3.891a4.757,4.757,0,0,0,.3,1.852V15Zm-2.4-1.1a2.54,2.54,0,0,0,1.289-.352,2.127,2.127,0,0,0,.883-.914V10.9h-1.133q-2.656,0-2.656,1.555a1.316,1.316,0,0,0,.453,1.063A1.742,1.742,0,0,0,100.133,13.9ZM41.094,34.867a5.062,5.062,0,0,1-.883,3.109,2.829,2.829,0,0,1-2.391,1.18A3.1,3.1,0,0,1,35.4,38.18v4.07H33.953v-11.7h1.32l.07.938A2.977,2.977,0,0,1,37.8,30.391a2.882,2.882,0,0,1,2.41,1.148,5.117,5.117,0,0,1,.887,3.2ZM39.648,34.7a3.735,3.735,0,0,0-.609-2.258,1.963,1.963,0,0,0-1.672-.828A2.125,2.125,0,0,0,35.4,32.781V36.82a2.129,2.129,0,0,0,1.984,1.156,1.954,1.954,0,0,0,1.652-.824A4.077,4.077,0,0,0,39.648,34.7Zm8.5,4.3a3.036,3.036,0,0,1-.2-.891,3.225,3.225,0,0,1-2.406,1.047,2.984,2.984,0,0,1-2.051-.707,2.287,2.287,0,0,1-.8-1.793,2.39,2.39,0,0,1,1-2.051,4.733,4.733,0,0,1,2.824-.73h1.406v-.664A1.623,1.623,0,0,0,47.469,32a1.821,1.821,0,0,0-1.336-.449,2.107,2.107,0,0,0-1.3.391,1.151,1.151,0,0,0-.523.945H42.859a2,2,0,0,1,.449-1.223,3.066,3.066,0,0,1,1.219-.934,4.1,4.1,0,0,1,1.691-.344,3.342,3.342,0,0,1,2.289.73,2.635,2.635,0,0,1,.859,2.012v3.891a4.757,4.757,0,0,0,.3,1.852V39Zm-2.4-1.1a2.54,2.54,0,0,0,1.289-.352,2.127,2.127,0,0,0,.883-.914V34.9H46.789q-2.656,0-2.656,1.555a1.316,1.316,0,0,0,.453,1.063A1.742,1.742,0,0,0,45.75,37.9ZM47.086,27h1.75l-2.094,2.3-1.164,0Zm4.2,7.7a4.968,4.968,0,0,1,.914-3.145,3.151,3.151,0,0,1,4.836-.074l.07-.937h1.32V38.8a3.439,3.439,0,0,1-.973,2.586,3.589,3.589,0,0,1-2.613.945,4.348,4.348,0,0,1-1.789-.391,3.08,3.08,0,0,1-1.336-1.07l.75-.867a2.826,2.826,0,0,0,2.273,1.148,2.214,2.214,0,0,0,1.645-.594,2.269,2.269,0,0,0,.59-1.672v-.727a2.971,2.971,0,0,1-2.367,1,2.887,2.887,0,0,1-2.4-1.2A5.224,5.224,0,0,1,51.289,34.7Zm1.453.164a3.79,3.79,0,0,0,.586,2.246,1.9,1.9,0,0,0,1.641.816,2.117,2.117,0,0,0,2.008-1.242V32.828a2.142,2.142,0,0,0-1.992-1.211,1.921,1.921,0,0,0-1.648.82A4.128,4.128,0,0,0,52.742,34.867ZM62.18,39H60.734V30.547H62.18ZM60.617,28.3a.863.863,0,0,1,.215-.594.807.807,0,0,1,.637-.242.819.819,0,0,1,.641.242.854.854,0,0,1,.219.594.826.826,0,0,1-.219.586.834.834,0,0,1-.641.234.821.821,0,0,1-.637-.234A.834.834,0,0,1,60.617,28.3Zm5.242,2.242.047,1.063a3.08,3.08,0,0,1,2.531-1.219q2.68,0,2.7,3.023V39H69.7V33.406a1.946,1.946,0,0,0-.418-1.352A1.675,1.675,0,0,0,68,31.617a2.086,2.086,0,0,0-1.234.375,2.546,2.546,0,0,0-.828.984V39H64.492V30.547ZM78.539,39a3.036,3.036,0,0,1-.2-.891,3.225,3.225,0,0,1-2.406,1.047,2.984,2.984,0,0,1-2.051-.707,2.288,2.288,0,0,1-.8-1.793,2.39,2.39,0,0,1,1-2.051,4.733,4.733,0,0,1,2.824-.73h1.406v-.664A1.623,1.623,0,0,0,77.859,32a1.821,1.821,0,0,0-1.336-.449,2.108,2.108,0,0,0-1.3.391,1.151,1.151,0,0,0-.523.945H73.25a2,2,0,0,1,.449-1.223,3.066,3.066,0,0,1,1.219-.934,4.1,4.1,0,0,1,1.691-.344,3.342,3.342,0,0,1,2.289.73,2.635,2.635,0,0,1,.859,2.012v3.891a4.757,4.757,0,0,0,.3,1.852V39Zm-2.4-1.1a2.54,2.54,0,0,0,1.289-.352,2.127,2.127,0,0,0,.883-.914V34.9H77.18q-2.656,0-2.656,1.555a1.316,1.316,0,0,0,.453,1.063A1.742,1.742,0,0,0,76.141,37.9Zm5.914.344a.905.905,0,0,1,.223-.625.848.848,0,0,1,.668-.25.874.874,0,0,1,.676.25.887.887,0,0,1,.23.625.839.839,0,0,1-.23.6.89.89,0,0,1-.676.242.8.8,0,0,1-.891-.844Z" transform="translate(848 4155.324)" fill="#12263f"/>
    <path id="Trazado_634272" data-name="Trazado 634272" d="M22.371,4.852H18.715V15H17.223V4.852H13.574V3.625h8.8ZM25.4,15H23.957V6.547H25.4ZM23.84,4.3a.863.863,0,0,1,.215-.594.807.807,0,0,1,.637-.242.819.819,0,0,1,.641.242.854.854,0,0,1,.219.594.826.826,0,0,1-.219.586.834.834,0,0,1-.641.234.821.821,0,0,1-.637-.234A.834.834,0,0,1,23.84,4.3Zm7.383,10.852a3.693,3.693,0,0,1-2.8-1.129,4.19,4.19,0,0,1-1.078-3.02v-.266a5.073,5.073,0,0,1,.48-2.246,3.748,3.748,0,0,1,1.344-1.547,3.378,3.378,0,0,1,1.871-.559,3.166,3.166,0,0,1,2.563,1.086,4.7,4.7,0,0,1,.914,3.109v.6H28.793a3,3,0,0,0,.73,2.02,2.3,2.3,0,0,0,1.777.77,2.517,2.517,0,0,0,1.3-.312,3.259,3.259,0,0,0,.93-.828l.883.688A3.55,3.55,0,0,1,31.223,15.156Zm-.18-7.578a1.928,1.928,0,0,0-1.469.637A3.1,3.1,0,0,0,28.84,10h4.234V9.891a2.753,2.753,0,0,0-.594-1.707A1.815,1.815,0,0,0,31.043,7.578Zm6.508-1.031.039.938A3.122,3.122,0,0,1,40.1,6.391,2.417,2.417,0,0,1,42.512,7.75a3.2,3.2,0,0,1,1.1-.984,3.242,3.242,0,0,1,1.6-.375q2.781,0,2.828,2.945V15H46.59V9.422a1.941,1.941,0,0,0-.414-1.355,1.823,1.823,0,0,0-1.391-.449,1.917,1.917,0,0,0-1.336.48,1.949,1.949,0,0,0-.617,1.293V15H41.379V9.461a1.613,1.613,0,0,0-1.8-1.844,1.934,1.934,0,0,0-1.945,1.211V15H36.184V6.547Zm19.8,4.32a5.062,5.062,0,0,1-.883,3.109,2.829,2.829,0,0,1-2.391,1.18,3.1,3.1,0,0,1-2.422-.977v4.07H50.215V6.547h1.32l.07.938a2.977,2.977,0,0,1,2.453-1.094,2.882,2.882,0,0,1,2.41,1.148,5.117,5.117,0,0,1,.887,3.2ZM55.91,10.7A3.735,3.735,0,0,0,55.3,8.445a1.963,1.963,0,0,0-1.672-.828A2.125,2.125,0,0,0,51.66,8.781V12.82a2.129,2.129,0,0,0,1.984,1.156,1.954,1.954,0,0,0,1.652-.824A4.077,4.077,0,0,0,55.91,10.7Zm2.9-.008A4.993,4.993,0,0,1,59.3,8.461,3.643,3.643,0,0,1,60.656,6.93a3.7,3.7,0,0,1,1.988-.539,3.565,3.565,0,0,1,2.793,1.2,4.6,4.6,0,0,1,1.066,3.18v.1a5.036,5.036,0,0,1-.473,2.215,3.589,3.589,0,0,1-1.352,1.527,3.743,3.743,0,0,1-2.02.547,3.556,3.556,0,0,1-2.785-1.2A4.575,4.575,0,0,1,58.809,10.8Zm1.453.172a3.616,3.616,0,0,0,.652,2.258,2.211,2.211,0,0,0,3.5-.012,3.955,3.955,0,0,0,.648-2.418,3.61,3.61,0,0,0-.66-2.254,2.1,2.1,0,0,0-1.754-.863,2.075,2.075,0,0,0-1.727.852A3.925,3.925,0,0,0,60.262,10.867Zm15.523,4.289a3.693,3.693,0,0,1-2.8-1.129,4.19,4.19,0,0,1-1.078-3.02v-.266a5.073,5.073,0,0,1,.48-2.246,3.748,3.748,0,0,1,1.344-1.547,3.378,3.378,0,0,1,1.871-.559,3.166,3.166,0,0,1,2.563,1.086,4.7,4.7,0,0,1,.914,3.109v.6H73.355a3,3,0,0,0,.73,2.02,2.3,2.3,0,0,0,1.777.77,2.517,2.517,0,0,0,1.3-.312,3.259,3.259,0,0,0,.93-.828l.883.688A3.55,3.55,0,0,1,75.785,15.156Zm-.18-7.578a1.928,1.928,0,0,0-1.469.637A3.1,3.1,0,0,0,73.4,10h4.234V9.891a2.753,2.753,0,0,0-.594-1.707A1.815,1.815,0,0,0,75.605,7.578Zm6.516-1.031.047,1.063A3.08,3.08,0,0,1,84.7,6.391q2.68,0,2.7,3.023V15H85.957V9.406a1.946,1.946,0,0,0-.418-1.352,1.675,1.675,0,0,0-1.277-.437,2.086,2.086,0,0,0-1.234.375,2.546,2.546,0,0,0-.828.984V15H80.754V6.547Zm14.93,8.609a3.693,3.693,0,0,1-2.8-1.129,4.19,4.19,0,0,1-1.078-3.02v-.266a5.073,5.073,0,0,1,.48-2.246A3.748,3.748,0,0,1,95,6.949a3.378,3.378,0,0,1,1.871-.559,3.166,3.166,0,0,1,2.563,1.086,4.7,4.7,0,0,1,.914,3.109v.6H94.621a3,3,0,0,0,.73,2.02,2.3,2.3,0,0,0,1.777.77,2.517,2.517,0,0,0,1.3-.312,3.259,3.259,0,0,0,.93-.828l.883.688A3.55,3.55,0,0,1,97.051,15.156Zm-.18-7.578a1.928,1.928,0,0,0-1.469.637A3.1,3.1,0,0,0,94.668,10H98.9V9.891a2.753,2.753,0,0,0-.594-1.707A1.815,1.815,0,0,0,96.871,7.578ZM103.59,15h-1.445V3h1.445ZM47.727,36.758a1.064,1.064,0,0,0-.441-.91,4.249,4.249,0,0,0-1.539-.559A7.277,7.277,0,0,1,44,34.727a2.479,2.479,0,0,1-.953-.781,1.869,1.869,0,0,1-.309-1.078,2.193,2.193,0,0,1,.879-1.758,3.432,3.432,0,0,1,2.246-.719,3.532,3.532,0,0,1,2.332.742,2.357,2.357,0,0,1,.895,1.9H47.641a1.3,1.3,0,0,0-.5-1.023,1.888,1.888,0,0,0-1.27-.43,1.976,1.976,0,0,0-1.234.344,1.082,1.082,0,0,0-.445.9.877.877,0,0,0,.414.789,5.1,5.1,0,0,0,1.5.508,7.8,7.8,0,0,1,1.754.578,2.558,2.558,0,0,1,1,.809,1.988,1.988,0,0,1,.324,1.152,2.163,2.163,0,0,1-.906,1.816,3.8,3.8,0,0,1-2.352.684,4.257,4.257,0,0,1-1.8-.359,2.922,2.922,0,0,1-1.223-1,2.42,2.42,0,0,1-.441-1.395H43.9a1.5,1.5,0,0,0,.582,1.152,2.258,2.258,0,0,0,1.434.426,2.331,2.331,0,0,0,1.316-.332A1.02,1.02,0,0,0,47.727,36.758ZM52.625,39H51.18V30.547h1.445ZM51.063,28.3a.863.863,0,0,1,.215-.594.807.807,0,0,1,.637-.242.819.819,0,0,1,.641.242.854.854,0,0,1,.219.594.826.826,0,0,1-.219.586.834.834,0,0,1-.641.234.821.821,0,0,1-.637-.234A.834.834,0,0,1,51.063,28.3Zm5.836.2v2.047h1.578v1.117H56.9v5.249a1.173,1.173,0,0,0,.211.763.888.888,0,0,0,.719.254,3.5,3.5,0,0,0,.688-.094V39a4.215,4.215,0,0,1-1.109.155,1.8,1.8,0,0,1-1.461-.586,2.517,2.517,0,0,1-.492-1.664V31.664H53.914V30.547h1.539V28.5ZM61.734,39H60.289V30.547h1.445ZM60.172,28.3a.863.863,0,0,1,.215-.594.807.807,0,0,1,.637-.242.819.819,0,0,1,.641.242.854.854,0,0,1,.219.594.826.826,0,0,1-.219.586.834.834,0,0,1-.641.234.821.821,0,0,1-.637-.234A.834.834,0,0,1,60.172,28.3ZM63.664,34.7a4.993,4.993,0,0,1,.488-2.234,3.643,3.643,0,0,1,1.359-1.531,3.7,3.7,0,0,1,1.988-.539,3.565,3.565,0,0,1,2.793,1.2,4.6,4.6,0,0,1,1.066,3.18v.1a5.036,5.036,0,0,1-.473,2.215,3.589,3.589,0,0,1-1.352,1.527,3.743,3.743,0,0,1-2.02.547,3.556,3.556,0,0,1-2.785-1.2A4.575,4.575,0,0,1,63.664,34.8Zm1.453.172a3.616,3.616,0,0,0,.652,2.258,2.211,2.211,0,0,0,3.5-.012,3.955,3.955,0,0,0,.648-2.418,3.61,3.61,0,0,0-.66-2.254,2.1,2.1,0,0,0-1.754-.863,2.075,2.075,0,0,0-1.727.852A3.925,3.925,0,0,0,65.117,34.867ZM73.2,38.242a.905.905,0,0,1,.223-.625.848.848,0,0,1,.668-.25.874.874,0,0,1,.676.25.887.887,0,0,1,.23.625.839.839,0,0,1-.23.6.89.89,0,0,1-.676.242.8.8,0,0,1-.891-.844Z" transform="translate(1065 4154.824)" fill="#12263f"/>
    <g id="Grupo_736622-2" data-name="Grupo 736622" transform="translate(390 4320.734)">
      <g id="Grupo_736621-2" data-name="Grupo 736621" transform="translate(0 0)" clip-path="url(#clip-path)">
        <path id="Trazado_501648-2" data-name="Trazado 501648" d="M429.081,34.9a2.584,2.584,0,1,0,2.584,2.584,2.58,2.58,0,0,0-2.584-2.584" transform="translate(225.906 18.484)" fill="#333"/>
        <path id="Trazado_501649-2" data-name="Trazado 501649" d="M429.081,28.184a2.584,2.584,0,1,0,2.584,2.584,2.58,2.58,0,0,0-2.584-2.584" transform="translate(225.906 14.928)" fill="#333"/>
        <path id="Trazado_501650-2" data-name="Trazado 501650" d="M429.081,41.609a2.584,2.584,0,1,0,2.584,2.584,2.58,2.58,0,0,0-2.584-2.584" transform="translate(225.906 22.039)" fill="#333"/>
        <path id="Trazado_501651-2" data-name="Trazado 501651" d="M429.081,48.322a2.584,2.584,0,1,0,2.584,2.584,2.58,2.58,0,0,0-2.584-2.584" transform="translate(225.906 25.595)" fill="#333"/>
        <path id="Trazado_501652-2" data-name="Trazado 501652" d="M429.081,21.46a2.584,2.584,0,1,0,2.584,2.584,2.58,2.58,0,0,0-2.584-2.584" transform="translate(225.906 11.367)" fill="#333"/>
        <path id="Trazado_501653-2" data-name="Trazado 501653" d="M433.657,9.251a2.7,2.7,0,0,0-1.6-.552,2.543,2.543,0,0,0-2.031,1,2.583,2.583,0,1,0,3.635-.448" transform="translate(227.48 4.608)" fill="#333"/>
        <path id="Trazado_501654-2" data-name="Trazado 501654" d="M429.786,14.81a2.2,2.2,0,0,0-.465-.05,2.619,2.619,0,1,0,.465.05" transform="translate(226.028 7.818)" fill="#333"/>
        <path id="Trazado_501655-2" data-name="Trazado 501655" d="M532.45,41.575a2.593,2.593,0,1,0,2.584,2.6,2.595,2.595,0,0,0-2.584-2.6" transform="translate(280.658 22.021)" fill="#333"/>
        <path id="Trazado_501656-2" data-name="Trazado 501656" d="M531.067,13.294a2.575,2.575,0,0,0,.43-3.618V9.659a2.629,2.629,0,0,0-2.031-.982,2.532,2.532,0,0,0-1.6.569,2.581,2.581,0,1,0,3.2,4.048" transform="translate(279.076 4.596)" fill="#333"/>
        <path id="Trazado_501657-2" data-name="Trazado 501657" d="M532.45,34.863a2.584,2.584,0,1,0,2.584,2.584,2.58,2.58,0,0,0-2.584-2.584" transform="translate(280.658 18.466)" fill="#333"/>
        <path id="Trazado_501658-2" data-name="Trazado 501658" d="M532.45,48.3a2.584,2.584,0,1,0,2.584,2.585A2.581,2.581,0,0,0,532.45,48.3" transform="translate(280.658 25.583)" fill="#333"/>
        <path id="Trazado_501659-2" data-name="Trazado 501659" d="M532.45,28.15a2.584,2.584,0,1,0,2.584,2.584,2.58,2.58,0,0,0-2.584-2.584" transform="translate(280.658 14.91)" fill="#333"/>
        <path id="Trazado_501660-2" data-name="Trazado 501660" d="M437.281,4.589a2.589,2.589,0,1,0,1.068,4.944,2.588,2.588,0,0,0-1.068-4.944" transform="translate(230.247 2.431)" fill="#333"/>
        <path id="Trazado_501661-2" data-name="Trazado 501661" d="M529.666,17.8a2.586,2.586,0,1,0,2.55-3.067,2.389,2.389,0,0,0-.483.052,2.586,2.586,0,0,0-2.067,3.015" transform="translate(280.529 7.805)" fill="#333"/>
        <path id="Trazado_501662-2" data-name="Trazado 501662" d="M532.45,21.438a2.584,2.584,0,1,0,2.584,2.584,2.58,2.58,0,0,0-2.584-2.584" transform="translate(280.658 11.355)" fill="#333"/>
        <path id="Trazado_501663-2" data-name="Trazado 501663" d="M504.26,3.349a2.594,2.594,0,1,0,2.582,2.584,2.592,2.592,0,0,0-2.582-2.584" transform="translate(265.726 1.774)" fill="#333"/>
        <path id="Trazado_501664-2" data-name="Trazado 501664" d="M497.535,3.349a2.594,2.594,0,1,0,2.584,2.584,2.6,2.6,0,0,0-2.584-2.584" transform="translate(262.164 1.774)" fill="#333"/>
        <path id="Trazado_501665-2" data-name="Trazado 501665" d="M510.972,3.349a2.594,2.594,0,1,0,2.584,2.584,2.592,2.592,0,0,0-2.584-2.584" transform="translate(269.281 1.774)" fill="#333"/>
        <path id="Trazado_501666-2" data-name="Trazado 501666" d="M525.28,4.818h.017a2.582,2.582,0,1,0-2.135,4.7,2.579,2.579,0,1,0,2.119-4.7" transform="translate(276.301 2.425)" fill="#333"/>
        <path id="Trazado_501667-2" data-name="Trazado 501667" d="M443.813,3.349A2.594,2.594,0,1,0,446.4,5.933a2.605,2.605,0,0,0-2.584-2.584" transform="translate(233.708 1.774)" fill="#333"/>
        <path id="Trazado_501668-2" data-name="Trazado 501668" d="M517.684,3.349a2.594,2.594,0,1,0,2.584,2.584,2.592,2.592,0,0,0-2.584-2.584" transform="translate(272.836 1.774)" fill="#333"/>
        <path id="Trazado_501669-2" data-name="Trazado 501669" d="M490.823,3.349a2.594,2.594,0,1,0,2.584,2.584,2.592,2.592,0,0,0-2.584-2.584" transform="translate(258.609 1.774)" fill="#333"/>
        <path id="Trazado_501670-2" data-name="Trazado 501670" d="M457.249,3.349a2.594,2.594,0,1,0,2.584,2.584,2.592,2.592,0,0,0-2.584-2.584" transform="translate(240.826 1.774)" fill="#333"/>
        <path id="Trazado_501671-2" data-name="Trazado 501671" d="M484.111,3.349a2.594,2.594,0,1,0,2.584,2.584,2.592,2.592,0,0,0-2.584-2.584" transform="translate(255.053 1.774)" fill="#333"/>
        <path id="Trazado_501672-2" data-name="Trazado 501672" d="M463.961,3.349a2.594,2.594,0,1,0,2.584,2.584,2.592,2.592,0,0,0-2.584-2.584" transform="translate(244.381 1.774)" fill="#333"/>
        <path id="Trazado_501673-2" data-name="Trazado 501673" d="M450.537,3.349a2.594,2.594,0,1,0,2.584,2.584,2.592,2.592,0,0,0-2.584-2.584" transform="translate(237.27 1.774)" fill="#333"/>
        <path id="Trazado_501674-2" data-name="Trazado 501674" d="M477.4,3.349a2.594,2.594,0,1,0,2.584,2.584A2.592,2.592,0,0,0,477.4,3.349" transform="translate(251.498 1.774)" fill="#333"/>
        <path id="Trazado_501675-2" data-name="Trazado 501675" d="M470.685,3.349a2.594,2.594,0,1,0,2.567,2.584,2.581,2.581,0,0,0-2.567-2.584" transform="translate(247.942 1.774)" fill="#333"/>
        <path id="Trazado_501676-2" data-name="Trazado 501676" d="M532.45,55.034a2.3,2.3,0,0,0-.5.052,2.924,2.924,0,0,0-1.326.705,2.616,2.616,0,0,0-.757,1.826,2.38,2.38,0,0,0,.206,1,2.121,2.121,0,0,0,.223.448,3.445,3.445,0,0,0,.327.4,2.629,2.629,0,0,0,2.327.69,2.757,2.757,0,0,0,.5-.138,3.443,3.443,0,0,0,.431-.242,2.4,2.4,0,0,0,.4-.311,3.431,3.431,0,0,0,.327-.4,3.676,3.676,0,0,0,.242-.448c.051-.154.1-.327.138-.482a2.694,2.694,0,0,0,.05-.517,2.616,2.616,0,0,0-.757-1.826,2.587,2.587,0,0,0-1.826-.757" transform="translate(280.658 29.15)" fill="#333"/>
        <path id="Trazado_501677-2" data-name="Trazado 501677" d="M6.891,92.842A6.891,6.891,0,0,1,0,85.951V28.245A28.278,28.278,0,0,1,28.247,0h115.41A28.278,28.278,0,0,1,171.9,28.245V59.6a6.891,6.891,0,1,1-13.782,0V28.245a14.481,14.481,0,0,0-14.465-14.463H28.247A14.48,14.48,0,0,0,13.782,28.245V85.951a6.891,6.891,0,0,1-6.891,6.891" transform="translate(0 0)" fill="#03415a"/>
        <path id="Trazado_501678-2" data-name="Trazado 501678" d="M4.8,84.725a.861.861,0,0,1-.861-.861V26.158A22.241,22.241,0,0,1,26.159,3.941h115.41a22.242,22.242,0,0,1,22.217,22.217V57.509a.861.861,0,1,1-1.722,0V26.158A20.518,20.518,0,0,0,141.569,5.665H26.159A20.517,20.517,0,0,0,5.664,26.158V83.864a.861.861,0,0,1-.861.861" transform="translate(2.088 2.087)" fill="#fff"/>
        <path id="Trazado_501679-2" data-name="Trazado 501679" d="M5.4,59.661a2.595,2.595,0,0,1-1.826-4.427,2.7,2.7,0,0,1,3.651,0,3.587,3.587,0,0,1,.329.4,3.672,3.672,0,0,1,.24.448,4.746,4.746,0,0,1,.138.482,2.578,2.578,0,0,1,.052.517A2.611,2.611,0,0,1,7.224,58.9a2.581,2.581,0,0,1-1.825.757" transform="translate(1.491 28.88)" fill="#fff"/>
        <path id="Trazado_501680-2" data-name="Trazado 501680" d="M138.349,132.593a2.584,2.584,0,1,1,2.584,2.584,2.6,2.6,0,0,1-2.584-2.584m-10.267,0a2.584,2.584,0,1,1,2.584,2.584,2.6,2.6,0,0,1-2.584-2.584m-10.269,0a2.584,2.584,0,1,1,2.584,2.584,2.6,2.6,0,0,1-2.584-2.584m-10.286,0a2.584,2.584,0,1,1,2.584,2.584,2.608,2.608,0,0,1-2.584-2.584m-10.267,0a2.584,2.584,0,1,1,2.584,2.584,2.6,2.6,0,0,1-2.584-2.584m-10.269,0a2.584,2.584,0,1,1,2.584,2.584,2.6,2.6,0,0,1-2.584-2.584m-10.267,0a2.584,2.584,0,1,1,2.584,2.584,2.6,2.6,0,0,1-2.584-2.584m-10.269,0a2.575,2.575,0,1,1,2.585,2.584,2.586,2.586,0,0,1-2.585-2.584m-10.286,0a2.584,2.584,0,1,1,2.584,2.584,2.6,2.6,0,0,1-2.584-2.584m-10.267,0a2.584,2.584,0,1,1,2.584,2.584,2.6,2.6,0,0,1-2.584-2.584m-10.269,0a2.584,2.584,0,1,1,2.585,2.584,2.6,2.6,0,0,1-2.585-2.584m-10.286,0a2.584,2.584,0,1,1,2.585,2.584,2.609,2.609,0,0,1-2.585-2.584m123.234-.828a2.579,2.579,0,1,1,4.7-2.119,2.556,2.556,0,0,1-1.293,3.41h.017a2.557,2.557,0,0,1-3.428-1.291M16.873,133.04a2.559,2.559,0,1,1,1.068.242,2.6,2.6,0,0,1-1.068-.242m140.478-6.581a2.581,2.581,0,1,1,3.636-.431v.017a2.627,2.627,0,0,1-2.033.982,2.542,2.542,0,0,1-1.6-.568M7.915,125.994a2.583,2.583,0,1,1,3.635.448,2.7,2.7,0,0,1-1.6.552,2.543,2.543,0,0,1-2.031-1m154.759-8.288a2.576,2.576,0,1,1,.948-5.063,2.579,2.579,0,0,1-.465,5.115,2.391,2.391,0,0,1-.483-.052m-159.463-2.1a2.585,2.585,0,1,1,3.015,2.067,2.2,2.2,0,0,1-.465.05,2.611,2.611,0,0,1-2.55-2.117m157.723-10.683a2.584,2.584,0,1,1,2.585,2.585,2.582,2.582,0,0,1-2.585-2.585m-158.12-.034A2.584,2.584,0,1,1,5.4,107.474a2.581,2.581,0,0,1-2.584-2.585m158.12-10.234a2.584,2.584,0,1,1,2.585,2.584,2.581,2.581,0,0,1-2.585-2.584M2.815,94.6A2.584,2.584,0,1,1,5.4,97.187,2.593,2.593,0,0,1,2.815,94.6m158.12-10.217a2.584,2.584,0,1,1,2.585,2.585,2.582,2.582,0,0,1-2.585-2.585M2.815,84.335A2.584,2.584,0,1,1,5.4,86.92a2.581,2.581,0,0,1-2.584-2.585M160.935,74.1a2.584,2.584,0,1,1,2.585,2.6,2.591,2.591,0,0,1-2.585-2.6M2.815,74.068A2.584,2.584,0,1,1,5.4,76.651a2.58,2.58,0,0,1-2.584-2.584m158.12-10.234a2.584,2.584,0,1,1,2.585,2.585,2.592,2.592,0,0,1-2.585-2.585M2.815,63.8A2.584,2.584,0,1,1,5.4,66.384,2.58,2.58,0,0,1,2.815,63.8" transform="translate(1.491 32.425)" fill="#333"/>
        <path id="Trazado_501681-2" data-name="Trazado 501681" d="M108.768,59.671a2.3,2.3,0,0,1-.5-.052,2.216,2.216,0,0,1-.482-.154,2.185,2.185,0,0,1-.448-.242,2.216,2.216,0,0,1-.4-.309,2.617,2.617,0,0,1-.757-1.826,2.381,2.381,0,0,1,.207-1,2.114,2.114,0,0,1,.223-.448,3.576,3.576,0,0,1,.327-.4,2.633,2.633,0,0,1,2.327-.69,2.756,2.756,0,0,1,.5.138,3.655,3.655,0,0,1,.431.242,2.4,2.4,0,0,1,.4.311,3.573,3.573,0,0,1,.327.4,3.679,3.679,0,0,1,.242.448c.05.154.1.327.138.482a2.693,2.693,0,0,1,.05.517,2.617,2.617,0,0,1-.757,1.826,2.587,2.587,0,0,1-1.826.757" transform="translate(56.243 28.87)" fill="#333"/>
        <path id="Trazado_501682-2" data-name="Trazado 501682" d="M114.2,57.088a2.584,2.584,0,1,1,2.584,2.584,2.58,2.58,0,0,1-2.584-2.584" transform="translate(60.49 28.869)" fill="#333"/>
        <path id="Trazado_501683-2" data-name="Trazado 501683" d="M124.8,59.661a2.524,2.524,0,0,1-.5-.052,2.229,2.229,0,0,1-.483-.154,2.31,2.31,0,0,1-1.153-.948,2.724,2.724,0,0,1-.4-.93,2.525,2.525,0,0,1-.052-.5,2.616,2.616,0,0,1,.759-1.843,2.7,2.7,0,0,1,3.651,0,2.6,2.6,0,0,1,0,3.67,2.581,2.581,0,0,1-1.826.757" transform="translate(64.738 28.88)" fill="#333"/>
        <path id="Trazado_501684-2" data-name="Trazado 501684" d="M127.541,70.938a.878.878,0,0,1-.381-.087.867.867,0,0,1-.48-.774V49.888a.861.861,0,0,1,1.387-.682L141.149,59.3a.862.862,0,0,1,0,1.364L128.067,70.757a.86.86,0,0,1-.526.181m.861-19.3V68.324l10.81-8.341Z" transform="translate(67.099 25.969)" fill="#333"/>
        <path id="Trazado_501685-2" data-name="Trazado 501685" d="M147.092,51.125a6.891,6.891,0,0,0-6.891,6.891v57.706a28.279,28.279,0,0,0,28.247,28.247h115.41A28.279,28.279,0,0,0,312.1,115.722V84.369a6.891,6.891,0,1,0-13.782,0v31.352a14.481,14.481,0,0,1-14.465,14.463H168.448a14.48,14.48,0,0,1-14.465-14.463V58.016a6.891,6.891,0,0,0-6.891-6.891" transform="translate(74.261 27.08)" fill="#08afaf"/>
        <path id="Trazado_501686-2" data-name="Trazado 501686" d="M145,55.067a.861.861,0,0,0-.861.861v57.706a22.241,22.241,0,0,0,22.217,22.217H281.77a22.242,22.242,0,0,0,22.217-22.217V82.281a.861.861,0,1,0-1.722,0v31.352a20.518,20.518,0,0,1-20.495,20.493H166.36a20.517,20.517,0,0,1-20.495-20.493V55.928a.861.861,0,0,0-.861-.861" transform="translate(76.349 29.168)" fill="#333"/>
        <path id="Trazado_501687-2" data-name="Trazado 501687" d="M145.6,53.937a2.595,2.595,0,0,0-1.826,4.427,2.7,2.7,0,0,0,3.651,0,3.418,3.418,0,0,0,.329-.4,3.67,3.67,0,0,0,.24-.448,4.745,4.745,0,0,0,.138-.482,2.587,2.587,0,0,0-2.532-3.1" transform="translate(75.753 28.569)" fill="#333"/>
        <path id="Trazado_501688-2" data-name="Trazado 501688" d="M281.135,2.253h0a2.593,2.593,0,1,1-2.584,2.584,2.591,2.591,0,0,1,2.584-2.584m-10.267,0h0a2.593,2.593,0,1,1-2.585,2.584,2.592,2.592,0,0,1,2.585-2.584m-10.269,0h0a2.593,2.593,0,1,1-2.584,2.584A2.6,2.6,0,0,1,260.6,2.253m-10.286,0h0a2.593,2.593,0,1,1-2.584,2.584,2.591,2.591,0,0,1,2.584-2.584m-10.267,0h0a2.593,2.593,0,1,1-2.585,2.584,2.592,2.592,0,0,1,2.585-2.584m-10.269,0h0a2.593,2.593,0,1,1-2.584,2.584,2.591,2.591,0,0,1,2.584-2.584m-10.267,0h0a2.593,2.593,0,1,1-2.585,2.584,2.592,2.592,0,0,1,2.585-2.584m-10.269,0h0a2.593,2.593,0,1,1-2.584,2.584,2.589,2.589,0,0,1,2.584-2.584m-10.286,0h0a2.593,2.593,0,1,1-2.584,2.584,2.592,2.592,0,0,1,2.584-2.584m-10.267,0h0A2.593,2.593,0,1,1,186.1,4.837a2.592,2.592,0,0,1,2.585-2.584m-10.269,0h0a2.593,2.593,0,1,1-2.584,2.584,2.592,2.592,0,0,1,2.584-2.584m-10.286,0h0a2.593,2.593,0,1,1-2.584,2.584,2.592,2.592,0,0,1,2.584-2.584m123.01,1.878h0a2.614,2.614,0,0,1,1.068.24H292.2a2.58,2.58,0,0,1-2.12,4.7,2.588,2.588,0,0,1,1.069-4.944m-133,.017h0a2.611,2.611,0,1,1-1.068.24,2.59,2.59,0,0,1,1.068-.24M299.156,10.4h0a2.626,2.626,0,0,1,2.031.984V11.4a2.582,2.582,0,1,1-3.635-.431,2.541,2.541,0,0,1,1.6-.569m-149.007.034h0a2.7,2.7,0,0,1,1.6.552,2.589,2.589,0,1,1-3.636.448,2.548,2.548,0,0,1,2.033-1m153.211,9.236h0a2.625,2.625,0,1,1-.483.052,2.39,2.39,0,0,1,.483-.052m-157.4.035h0a2.2,2.2,0,0,1,.467.05,2.545,2.545,0,1,1-.467-.05M303.72,29.922h0a2.584,2.584,0,1,1-2.584,2.584,2.581,2.581,0,0,1,2.584-2.584m-158.12.034h0a2.584,2.584,0,1,1-2.584,2.584,2.581,2.581,0,0,1,2.584-2.584M303.72,40.189h0a2.584,2.584,0,1,1-2.584,2.585,2.582,2.582,0,0,1,2.584-2.585m-158.12.054h0a2.584,2.584,0,1,1-2.584,2.584,2.58,2.58,0,0,1,2.584-2.584M303.72,50.458h0a2.584,2.584,0,1,1-2.584,2.584,2.581,2.581,0,0,1,2.584-2.584M145.6,50.51h0a2.584,2.584,0,1,1-2.584,2.584A2.58,2.58,0,0,1,145.6,50.51M303.72,60.725h0a2.593,2.593,0,1,1-2.584,2.6,2.6,2.6,0,0,1,2.584-2.6m-158.12.054h0a2.584,2.584,0,1,1-2.584,2.584,2.58,2.58,0,0,1,2.584-2.584M303.72,71.01h0a2.584,2.584,0,1,1-2.584,2.585,2.581,2.581,0,0,1,2.584-2.585m-158.12.035h0a2.584,2.584,0,1,1-2.584,2.584,2.581,2.581,0,0,1,2.584-2.584" transform="translate(75.753 1.193)" fill="#333"/>
        <path id="Trazado_501689-2" data-name="Trazado 501689" d="M248.969,53.937a2.4,2.4,0,0,0-.5.05,2.9,2.9,0,0,0-1.326.707,2.617,2.617,0,0,0-.757,1.826,2.7,2.7,0,0,0,.05.517,2.677,2.677,0,0,0,.156.482,2.114,2.114,0,0,0,.223.448,3.753,3.753,0,0,0,.327.4,2.633,2.633,0,0,0,2.327.69,2.757,2.757,0,0,0,.5-.138,3.659,3.659,0,0,0,.431-.242,2.488,2.488,0,0,0,.4-.311,3.571,3.571,0,0,0,.327-.4,3.679,3.679,0,0,0,.242-.448c.05-.154.1-.327.138-.482a2.7,2.7,0,0,0,.05-.517,2.617,2.617,0,0,0-.757-1.826,2.587,2.587,0,0,0-1.826-.757" transform="translate(130.504 28.569)" fill="#333"/>
        <path id="Trazado_501690-2" data-name="Trazado 501690" d="M254.4,56.522a2.584,2.584,0,1,0,2.582-2.584,2.58,2.58,0,0,0-2.582,2.584" transform="translate(134.752 28.57)" fill="#333"/>
        <path id="Trazado_501691-2" data-name="Trazado 501691" d="M265.007,53.937a2.641,2.641,0,0,0-.5.05,2.805,2.805,0,0,0-.93.4,2.078,2.078,0,0,0-.707.708,2.3,2.3,0,0,0-.242.447,2.229,2.229,0,0,0-.155.483,2.578,2.578,0,0,0,.707,2.342,2.7,2.7,0,0,0,3.651,0,2.6,2.6,0,0,0,0-3.67,2.575,2.575,0,0,0-1.825-.757" transform="translate(138.999 28.569)" fill="#333"/>
        <path id="Trazado_501692-2" data-name="Trazado 501692" d="M268.268,48.648,281.35,58.741a.862.862,0,0,1,0,1.364L268.268,70.2a.861.861,0,0,1-1.387-.682V49.329a.867.867,0,0,1,.48-.774.878.878,0,0,1,.381-.087.86.86,0,0,1,.526.181m11.145,10.775L268.6,51.082V67.765Z" transform="translate(141.361 25.672)" fill="#333"/>
        <path id="Trazado_501693-2" data-name="Trazado 501693" d="M289.373,92.842a6.891,6.891,0,0,1-6.891-6.891V28.245A28.278,28.278,0,0,1,310.729,0H426.138a28.278,28.278,0,0,1,28.247,28.245V59.6a6.891,6.891,0,1,1-13.782,0V28.245a14.481,14.481,0,0,0-14.465-14.463H310.729a14.48,14.48,0,0,0-14.465,14.463V85.951a6.891,6.891,0,0,1-6.891,6.891" transform="translate(149.624 0)" fill="#92bd0f"/>
        <path id="Trazado_501694-2" data-name="Trazado 501694" d="M287.285,84.725a.861.861,0,0,1-.861-.861V26.158A22.241,22.241,0,0,1,308.641,3.941H424.05a22.242,22.242,0,0,1,22.217,22.217V57.509a.861.861,0,1,1-1.722,0V26.158A20.518,20.518,0,0,0,424.05,5.665H308.641a20.517,20.517,0,0,0-20.495,20.493V83.864a.861.861,0,0,1-.861.861" transform="translate(151.712 2.087)" fill="#333"/>
        <path id="Trazado_501695-2" data-name="Trazado 501695" d="M287.881,59.661a2.595,2.595,0,0,1-1.826-4.427,2.7,2.7,0,0,1,3.651,0,3.429,3.429,0,0,1,.329.4,3.673,3.673,0,0,1,.24.448,4.758,4.758,0,0,1,.138.482,2.575,2.575,0,0,1,.052.517,2.612,2.612,0,0,1-.759,1.826,2.581,2.581,0,0,1-1.825.757" transform="translate(151.115 28.88)" fill="#333"/>
        <path id="Trazado_501696-2" data-name="Trazado 501696" d="M420.831,132.593a2.584,2.584,0,1,1,2.584,2.584,2.6,2.6,0,0,1-2.584-2.584m-10.267,0a2.584,2.584,0,1,1,2.584,2.584,2.6,2.6,0,0,1-2.584-2.584m-10.269,0a2.584,2.584,0,1,1,2.584,2.584,2.6,2.6,0,0,1-2.584-2.584m-10.286,0a2.584,2.584,0,1,1,2.584,2.584,2.608,2.608,0,0,1-2.584-2.584m-10.267,0a2.584,2.584,0,1,1,2.584,2.584,2.6,2.6,0,0,1-2.584-2.584m-10.269,0a2.584,2.584,0,1,1,2.584,2.584,2.6,2.6,0,0,1-2.584-2.584m-10.269,0a2.584,2.584,0,1,1,2.585,2.584,2.6,2.6,0,0,1-2.585-2.584m-10.267,0a2.575,2.575,0,1,1,2.584,2.584,2.586,2.586,0,0,1-2.584-2.584m-10.286,0a2.584,2.584,0,1,1,2.584,2.584,2.6,2.6,0,0,1-2.584-2.584m-10.267,0a2.584,2.584,0,1,1,2.584,2.584,2.6,2.6,0,0,1-2.584-2.584m-10.269,0a2.584,2.584,0,1,1,2.584,2.584,2.6,2.6,0,0,1-2.584-2.584m-10.286,0a2.584,2.584,0,1,1,2.584,2.584,2.608,2.608,0,0,1-2.584-2.584m123.234-.828a2.579,2.579,0,0,1,4.7-2.119,2.556,2.556,0,0,1-1.293,3.41h.017a2.557,2.557,0,0,1-3.428-1.291m-131.71,1.274a2.557,2.557,0,1,1,1.068.242,2.6,2.6,0,0,1-1.068-.242m140.478-6.581a2.581,2.581,0,1,1,3.636-.431v.017a2.627,2.627,0,0,1-2.033.982,2.539,2.539,0,0,1-1.6-.568M290.4,125.994a2.583,2.583,0,1,1,3.634.448,2.7,2.7,0,0,1-1.6.552,2.543,2.543,0,0,1-2.031-1m154.759-8.288a2.576,2.576,0,1,1,.948-5.063,2.579,2.579,0,0,1-.465,5.115,2.391,2.391,0,0,1-.483-.052m-159.463-2.1a2.585,2.585,0,1,1,3.015,2.067,2.2,2.2,0,0,1-.465.05,2.611,2.611,0,0,1-2.55-2.117m157.723-10.683A2.584,2.584,0,1,1,446,107.508a2.582,2.582,0,0,1-2.585-2.585m-158.12-.034a2.584,2.584,0,1,1,2.584,2.585,2.581,2.581,0,0,1-2.584-2.585m158.12-10.234A2.584,2.584,0,1,1,446,97.239a2.581,2.581,0,0,1-2.585-2.584M285.3,94.6a2.584,2.584,0,1,1,2.584,2.584A2.593,2.593,0,0,1,285.3,94.6m158.12-10.217A2.584,2.584,0,1,1,446,86.972a2.582,2.582,0,0,1-2.585-2.585M285.3,84.335a2.584,2.584,0,1,1,2.584,2.585,2.581,2.581,0,0,1-2.584-2.585M443.417,74.1A2.584,2.584,0,1,1,446,76.7a2.591,2.591,0,0,1-2.585-2.6M285.3,74.068a2.584,2.584,0,1,1,2.584,2.584,2.58,2.58,0,0,1-2.584-2.584m158.12-10.234A2.584,2.584,0,1,1,446,66.419a2.592,2.592,0,0,1-2.585-2.585M285.3,63.8a2.584,2.584,0,1,1,2.584,2.584A2.58,2.58,0,0,1,285.3,63.8" transform="translate(151.115 32.425)" fill="#333"/>
        <path id="Trazado_501697-2" data-name="Trazado 501697" d="M391.249,59.671a2.291,2.291,0,0,1-.5-.052,2.215,2.215,0,0,1-.482-.154,2.182,2.182,0,0,1-.448-.242,2.218,2.218,0,0,1-.4-.309,2.617,2.617,0,0,1-.757-1.826,2.379,2.379,0,0,1,.206-1,2.114,2.114,0,0,1,.223-.448,3.573,3.573,0,0,1,.327-.4,2.633,2.633,0,0,1,2.327-.69,2.756,2.756,0,0,1,.5.138,3.78,3.78,0,0,1,.431.242,2.406,2.406,0,0,1,.4.311,3.58,3.58,0,0,1,.327.4,3.689,3.689,0,0,1,.242.448c.05.154.1.327.138.482a2.691,2.691,0,0,1,.05.517,2.616,2.616,0,0,1-.757,1.826,2.587,2.587,0,0,1-1.826.757" transform="translate(205.867 28.87)" fill="#333"/>
        <path id="Trazado_501698-2" data-name="Trazado 501698" d="M396.684,57.088a2.584,2.584,0,1,1,2.584,2.584,2.58,2.58,0,0,1-2.584-2.584" transform="translate(210.114 28.869)" fill="#333"/>
        <path id="Trazado_501699-2" data-name="Trazado 501699" d="M407.287,59.661a2.524,2.524,0,0,1-.5-.052,2.2,2.2,0,0,1-.483-.154,2.31,2.31,0,0,1-1.153-.948,2.726,2.726,0,0,1-.4-.93,2.524,2.524,0,0,1-.052-.5,2.616,2.616,0,0,1,.759-1.843,2.7,2.7,0,0,1,3.651,0,2.6,2.6,0,0,1,0,3.67,2.582,2.582,0,0,1-1.826.757" transform="translate(214.362 28.88)" fill="#333"/>
        <path id="Trazado_501700-2" data-name="Trazado 501700" d="M410.023,70.938a.878.878,0,0,1-.381-.087.867.867,0,0,1-.48-.774V49.888a.861.861,0,0,1,1.387-.682L423.631,59.3a.862.862,0,0,1,0,1.364L410.549,70.757a.86.86,0,0,1-.526.181m.861-19.3V68.324l10.81-8.341Z" transform="translate(216.724 25.969)" fill="#333"/>
        <path id="Trazado_501701-2" data-name="Trazado 501701" d="M430.573,52.223a6.891,6.891,0,0,0-6.891,6.891V116.82a28.279,28.279,0,0,0,28.247,28.247h115.41a28.279,28.279,0,0,0,28.247-28.247V85.467a6.891,6.891,0,1,0-13.782,0V116.82a14.481,14.481,0,0,1-14.465,14.463H451.929a14.48,14.48,0,0,1-14.465-14.463V59.114a6.891,6.891,0,0,0-6.891-6.891" transform="translate(224.415 27.661)" fill="#e7d428"/>
        <path id="Trazado_501702-2" data-name="Trazado 501702" d="M428.485,56.165a.861.861,0,0,0-.861.861v57.706a22.241,22.241,0,0,0,22.217,22.217H565.25a22.242,22.242,0,0,0,22.217-22.217V83.379a.861.861,0,0,0-1.722,0v31.352a20.518,20.518,0,0,1-20.495,20.493H449.841a20.517,20.517,0,0,1-20.495-20.493V57.026a.861.861,0,0,0-.861-.861" transform="translate(226.503 29.749)" fill="#12263f"/>
        <g transform="matrix(1, 0, 0, 1, 0, -229.59)" filter="url(#Trazado_501706-2)">
          <path id="Trazado_501706-4" data-name="Trazado 501706" d="M7.887,0H125.533a7.887,7.887,0,0,1,7.887,7.887V125.534a7.887,7.887,0,0,1-7.887,7.887H7.888A7.888,7.888,0,0,1,0,125.533V7.887A7.887,7.887,0,0,1,7.887,0Z" transform="translate(19.24 248.83)" fill="#fff"/>
        </g>
        <g transform="matrix(1, 0, 0, 1, 0, -229.59)" filter="url(#Trazado_501703-2)">
          <path id="Trazado_501703-4" data-name="Trazado 501703" d="M152.78,24.085V133.374a12.065,12.065,0,0,0,12.066,12.066H274.135A12.066,12.066,0,0,0,286.2,133.374V24.085a12.067,12.067,0,0,0-12.066-12.066H164.846A12.066,12.066,0,0,0,152.78,24.085" transform="translate(80.92 235.96)" fill="#fff"/>
        </g>
        <g transform="matrix(1, 0, 0, 1, 0, -229.59)" filter="url(#Rectángulo_277788-2)">
          <rect id="Rectángulo_277788-4" data-name="Rectángulo 277788" width="133.421" height="133.421" rx="7.888" transform="translate(451.35 248.83)" fill="#fff"/>
        </g>
        <g transform="matrix(1, 0, 0, 1, 0, -229.59)" filter="url(#Trazado_501704-2)">
          <path id="Trazado_501704-4" data-name="Trazado 501704" d="M436.26,24.085V133.374a12.065,12.065,0,0,0,12.066,12.066H557.615a12.066,12.066,0,0,0,12.066-12.066V24.085a12.067,12.067,0,0,0-12.066-12.066H448.326A12.066,12.066,0,0,0,436.26,24.085" transform="translate(231.08 235.96)" fill="#fff"/>
        </g>
        <path id="Trazado_501705-2" data-name="Trazado 501705" d="M429.081,53.937a2.595,2.595,0,0,0-1.826,4.427,2.7,2.7,0,0,0,3.651,0,3.422,3.422,0,0,0,.329-.4,3.681,3.681,0,0,0,.24-.448,4.741,4.741,0,0,0,.138-.482,2.587,2.587,0,0,0-2.532-3.1" transform="translate(225.906 28.569)" fill="#12263f"/>
      </g>
    </g>
    <path id="Trazado_634273" data-name="Trazado 634273" d="M13.43,4.852H9.773V15H8.281V4.852H4.633V3.625h8.8ZM19.227,15a3.036,3.036,0,0,1-.2-.891,3.225,3.225,0,0,1-2.406,1.047,2.984,2.984,0,0,1-2.051-.707,2.287,2.287,0,0,1-.8-1.793,2.39,2.39,0,0,1,1-2.051,4.733,4.733,0,0,1,2.824-.73H19V9.211A1.623,1.623,0,0,0,18.547,8a1.821,1.821,0,0,0-1.336-.449,2.108,2.108,0,0,0-1.3.391,1.151,1.151,0,0,0-.523.945H13.938a2,2,0,0,1,.449-1.223,3.066,3.066,0,0,1,1.219-.934A4.1,4.1,0,0,1,17.3,6.391a3.342,3.342,0,0,1,2.289.73,2.635,2.635,0,0,1,.859,2.012v3.891a4.757,4.757,0,0,0,.3,1.852V15Zm-2.4-1.1a2.54,2.54,0,0,0,1.289-.352A2.127,2.127,0,0,0,19,12.633V10.9H17.867q-2.656,0-2.656,1.555a1.316,1.316,0,0,0,.453,1.063A1.742,1.742,0,0,0,16.828,13.9Zm10.8-1.141a1.064,1.064,0,0,0-.441-.91,4.249,4.249,0,0,0-1.539-.559,7.277,7.277,0,0,1-1.742-.562,2.479,2.479,0,0,1-.953-.781,1.869,1.869,0,0,1-.309-1.078,2.193,2.193,0,0,1,.879-1.758,3.432,3.432,0,0,1,2.246-.719,3.532,3.532,0,0,1,2.332.742A2.357,2.357,0,0,1,29,9.031H27.547a1.3,1.3,0,0,0-.5-1.023,1.888,1.888,0,0,0-1.27-.43,1.976,1.976,0,0,0-1.234.344,1.082,1.082,0,0,0-.445.9.877.877,0,0,0,.414.789,5.1,5.1,0,0,0,1.5.508,7.8,7.8,0,0,1,1.754.578,2.558,2.558,0,0,1,1,.809,1.988,1.988,0,0,1,.324,1.152,2.163,2.163,0,0,1-.906,1.816,3.8,3.8,0,0,1-2.352.684,4.257,4.257,0,0,1-1.8-.359,2.922,2.922,0,0,1-1.223-1,2.42,2.42,0,0,1-.441-1.395H23.8a1.5,1.5,0,0,0,.582,1.152,2.258,2.258,0,0,0,1.434.426,2.331,2.331,0,0,0,1.316-.332A1.02,1.02,0,0,0,27.633,12.758ZM36.18,15a3.036,3.036,0,0,1-.2-.891,3.225,3.225,0,0,1-2.406,1.047,2.984,2.984,0,0,1-2.051-.707,2.287,2.287,0,0,1-.8-1.793,2.39,2.39,0,0,1,1-2.051,4.733,4.733,0,0,1,2.824-.73h1.406V9.211A1.623,1.623,0,0,0,35.5,8a1.821,1.821,0,0,0-1.336-.449,2.107,2.107,0,0,0-1.3.391,1.151,1.151,0,0,0-.523.945H30.891a2,2,0,0,1,.449-1.223,3.066,3.066,0,0,1,1.219-.934,4.1,4.1,0,0,1,1.691-.344,3.342,3.342,0,0,1,2.289.73A2.635,2.635,0,0,1,37.4,9.133v3.891a4.757,4.757,0,0,0,.3,1.852V15Zm-2.4-1.1a2.54,2.54,0,0,0,1.289-.352,2.127,2.127,0,0,0,.883-.914V10.9H34.82q-2.656,0-2.656,1.555a1.316,1.316,0,0,0,.453,1.063A1.742,1.742,0,0,0,33.781,13.9Zm9.492-3.2A4.952,4.952,0,0,1,44.2,7.574a3.137,3.137,0,0,1,4.766-.168V3h1.445V15H49.078l-.07-.906a2.943,2.943,0,0,1-2.414,1.063,2.887,2.887,0,0,1-2.395-1.2,5.008,5.008,0,0,1-.926-3.141Zm1.445.164a3.749,3.749,0,0,0,.594,2.25,1.92,1.92,0,0,0,1.641.813A2.108,2.108,0,0,0,48.961,12.7V8.813a2.125,2.125,0,0,0-1.992-1.2,1.929,1.929,0,0,0-1.656.82A4.128,4.128,0,0,0,44.719,10.867Zm11.438,4.289a3.693,3.693,0,0,1-2.8-1.129,4.19,4.19,0,0,1-1.078-3.02v-.266a5.073,5.073,0,0,1,.48-2.246,3.748,3.748,0,0,1,1.344-1.547,3.378,3.378,0,0,1,1.871-.559,3.166,3.166,0,0,1,2.563,1.086,4.7,4.7,0,0,1,.914,3.109v.6H53.727a3,3,0,0,0,.73,2.02,2.3,2.3,0,0,0,1.777.77,2.517,2.517,0,0,0,1.3-.312,3.259,3.259,0,0,0,.93-.828l.883.688A3.55,3.55,0,0,1,56.156,15.156Zm-.18-7.578a1.928,1.928,0,0,0-1.469.637A3.1,3.1,0,0,0,53.773,10h4.234V9.891a2.753,2.753,0,0,0-.594-1.707A1.815,1.815,0,0,0,55.977,7.578Zm13.2.266a4.331,4.331,0,0,0-.711-.055A1.9,1.9,0,0,0,66.531,9v6H65.086V6.547h1.406l.023.977a2.251,2.251,0,0,1,2.016-1.133,1.477,1.477,0,0,1,.641.109Zm4.688,7.313a3.693,3.693,0,0,1-2.8-1.129,4.19,4.19,0,0,1-1.078-3.02v-.266a5.073,5.073,0,0,1,.48-2.246,3.748,3.748,0,0,1,1.344-1.547,3.378,3.378,0,0,1,1.871-.559,3.166,3.166,0,0,1,2.563,1.086,4.7,4.7,0,0,1,.914,3.109v.6H71.43a3,3,0,0,0,.73,2.02,2.3,2.3,0,0,0,1.777.77,2.517,2.517,0,0,0,1.3-.312,3.259,3.259,0,0,0,.93-.828l.883.688A3.55,3.55,0,0,1,73.859,15.156Zm-.18-7.578a1.928,1.928,0,0,0-1.469.637A3.1,3.1,0,0,0,71.477,10h4.234V9.891a2.753,2.753,0,0,0-.594-1.707A1.815,1.815,0,0,0,73.68,7.578Zm12.3,3.289a5.026,5.026,0,0,1-.891,3.113A2.846,2.846,0,0,1,82.7,15.156a2.947,2.947,0,0,1-2.477-1.133l-.07.977H78.828V3h1.445V7.477a2.93,2.93,0,0,1,2.414-1.086,2.863,2.863,0,0,1,2.418,1.164,5.177,5.177,0,0,1,.879,3.188ZM84.539,10.7a3.906,3.906,0,0,0-.57-2.281,1.888,1.888,0,0,0-1.641-.8,2.122,2.122,0,0,0-2.055,1.328V12.6a2.181,2.181,0,0,0,2.07,1.328,1.878,1.878,0,0,0,1.617-.8A4.153,4.153,0,0,0,84.539,10.7Zm2.883-.008a4.993,4.993,0,0,1,.488-2.234A3.643,3.643,0,0,1,89.27,6.93a3.7,3.7,0,0,1,1.988-.539,3.565,3.565,0,0,1,2.793,1.2,4.6,4.6,0,0,1,1.066,3.18v.1a5.036,5.036,0,0,1-.473,2.215,3.589,3.589,0,0,1-1.352,1.527,3.743,3.743,0,0,1-2.02.547,3.556,3.556,0,0,1-2.785-1.2A4.575,4.575,0,0,1,87.422,10.8Zm1.453.172a3.616,3.616,0,0,0,.652,2.258,2.211,2.211,0,0,0,3.5-.012,3.955,3.955,0,0,0,.648-2.418,3.61,3.61,0,0,0-.66-2.254,2.1,2.1,0,0,0-1.754-.863,2.075,2.075,0,0,0-1.727.852A3.925,3.925,0,0,0,88.875,10.867ZM98.891,4.5V6.547h1.578V7.664H98.891v5.249a1.173,1.173,0,0,0,.211.763.888.888,0,0,0,.719.254,3.5,3.5,0,0,0,.688-.094V15a4.215,4.215,0,0,1-1.109.155,1.8,1.8,0,0,1-1.461-.586,2.517,2.517,0,0,1-.492-1.664V7.664H95.906V6.547h1.539V4.5Zm6.773,10.656a3.693,3.693,0,0,1-2.8-1.129,4.19,4.19,0,0,1-1.078-3.02v-.266a5.073,5.073,0,0,1,.48-2.246,3.748,3.748,0,0,1,1.344-1.547,3.378,3.378,0,0,1,1.871-.559,3.166,3.166,0,0,1,2.563,1.086,4.7,4.7,0,0,1,.914,3.109v.6h-5.727a3,3,0,0,0,.73,2.02,2.3,2.3,0,0,0,1.777.77,2.517,2.517,0,0,0,1.3-.312,3.259,3.259,0,0,0,.93-.828l.883.688A3.55,3.55,0,0,1,105.664,15.156Zm-.18-7.578a1.928,1.928,0,0,0-1.469.637A3.1,3.1,0,0,0,103.281,10h4.234V9.891a2.753,2.753,0,0,0-.594-1.707A1.815,1.815,0,0,0,105.484,7.578Zm5.18,6.664a.905.905,0,0,1,.223-.625.848.848,0,0,1,.668-.25.874.874,0,0,1,.676.25.887.887,0,0,1,.23.625.839.839,0,0,1-.23.6.89.89,0,0,1-.676.242.8.8,0,0,1-.891-.844Z" transform="translate(421 4393.914)" fill="#12263f"/>
    <path id="Trazado_634274" data-name="Trazado 634274" d="M14.98,4.852H11.324V15H9.832V4.852H6.184V3.625h8.8ZM20.777,15a3.036,3.036,0,0,1-.2-.891,3.225,3.225,0,0,1-2.406,1.047,2.984,2.984,0,0,1-2.051-.707,2.287,2.287,0,0,1-.8-1.793,2.39,2.39,0,0,1,1-2.051,4.733,4.733,0,0,1,2.824-.73h1.406V9.211A1.623,1.623,0,0,0,20.1,8a1.821,1.821,0,0,0-1.336-.449,2.108,2.108,0,0,0-1.3.391,1.151,1.151,0,0,0-.523.945H15.488a2,2,0,0,1,.449-1.223,3.066,3.066,0,0,1,1.219-.934,4.1,4.1,0,0,1,1.691-.344,3.342,3.342,0,0,1,2.289.73A2.635,2.635,0,0,1,22,9.133v3.891a4.757,4.757,0,0,0,.3,1.852V15Zm-2.4-1.1a2.54,2.54,0,0,0,1.289-.352,2.127,2.127,0,0,0,.883-.914V10.9H19.418q-2.656,0-2.656,1.555a1.316,1.316,0,0,0,.453,1.063A1.742,1.742,0,0,0,18.379,13.9Zm10.8-1.141a1.064,1.064,0,0,0-.441-.91,4.249,4.249,0,0,0-1.539-.559,7.277,7.277,0,0,1-1.742-.562,2.479,2.479,0,0,1-.953-.781A1.869,1.869,0,0,1,24.2,8.867a2.193,2.193,0,0,1,.879-1.758,3.432,3.432,0,0,1,2.246-.719,3.532,3.532,0,0,1,2.332.742,2.357,2.357,0,0,1,.895,1.9H29.1a1.3,1.3,0,0,0-.5-1.023,1.888,1.888,0,0,0-1.27-.43,1.976,1.976,0,0,0-1.234.344,1.082,1.082,0,0,0-.445.9.877.877,0,0,0,.414.789,5.1,5.1,0,0,0,1.5.508,7.8,7.8,0,0,1,1.754.578,2.558,2.558,0,0,1,1,.809,1.988,1.988,0,0,1,.324,1.152,2.163,2.163,0,0,1-.906,1.816,3.8,3.8,0,0,1-2.352.684,4.257,4.257,0,0,1-1.8-.359,2.922,2.922,0,0,1-1.223-1A2.42,2.42,0,0,1,23.91,12.4h1.445a1.5,1.5,0,0,0,.582,1.152,2.258,2.258,0,0,0,1.434.426,2.331,2.331,0,0,0,1.316-.332A1.02,1.02,0,0,0,29.184,12.758ZM37.73,15a3.036,3.036,0,0,1-.2-.891,3.225,3.225,0,0,1-2.406,1.047,2.984,2.984,0,0,1-2.051-.707,2.287,2.287,0,0,1-.8-1.793,2.39,2.39,0,0,1,1-2.051,4.733,4.733,0,0,1,2.824-.73H37.5V9.211A1.623,1.623,0,0,0,37.051,8a1.821,1.821,0,0,0-1.336-.449,2.107,2.107,0,0,0-1.3.391,1.151,1.151,0,0,0-.523.945H32.441a2,2,0,0,1,.449-1.223,3.066,3.066,0,0,1,1.219-.934A4.1,4.1,0,0,1,35.8,6.391a3.342,3.342,0,0,1,2.289.73,2.635,2.635,0,0,1,.859,2.012v3.891a4.757,4.757,0,0,0,.3,1.852V15Zm-2.4-1.1a2.54,2.54,0,0,0,1.289-.352,2.127,2.127,0,0,0,.883-.914V10.9H36.371q-2.656,0-2.656,1.555a1.316,1.316,0,0,0,.453,1.063A1.742,1.742,0,0,0,35.332,13.9Zm9.492-3.2a4.952,4.952,0,0,1,.922-3.129,3.137,3.137,0,0,1,4.766-.168V3h1.445V15H50.629l-.07-.906a2.943,2.943,0,0,1-2.414,1.063,2.887,2.887,0,0,1-2.395-1.2,5.008,5.008,0,0,1-.926-3.141Zm1.445.164a3.749,3.749,0,0,0,.594,2.25,1.92,1.92,0,0,0,1.641.813A2.108,2.108,0,0,0,50.512,12.7V8.813a2.125,2.125,0,0,0-1.992-1.2,1.929,1.929,0,0,0-1.656.82A4.128,4.128,0,0,0,46.27,10.867Zm11.438,4.289a3.693,3.693,0,0,1-2.8-1.129,4.19,4.19,0,0,1-1.078-3.02v-.266a5.073,5.073,0,0,1,.48-2.246,3.748,3.748,0,0,1,1.344-1.547,3.378,3.378,0,0,1,1.871-.559A3.166,3.166,0,0,1,60.09,7.477,4.7,4.7,0,0,1,61,10.586v.6H55.277a3,3,0,0,0,.73,2.02,2.3,2.3,0,0,0,1.777.77,2.517,2.517,0,0,0,1.3-.312,3.259,3.259,0,0,0,.93-.828l.883.688A3.55,3.55,0,0,1,57.707,15.156Zm-.18-7.578a1.928,1.928,0,0,0-1.469.637A3.1,3.1,0,0,0,55.324,10h4.234V9.891a2.753,2.753,0,0,0-.594-1.707A1.815,1.815,0,0,0,57.527,7.578Zm14.031,5.18a1.064,1.064,0,0,0-.441-.91,4.249,4.249,0,0,0-1.539-.559,7.277,7.277,0,0,1-1.742-.562,2.479,2.479,0,0,1-.953-.781,1.869,1.869,0,0,1-.309-1.078,2.193,2.193,0,0,1,.879-1.758A3.432,3.432,0,0,1,69.7,6.391a3.532,3.532,0,0,1,2.332.742,2.357,2.357,0,0,1,.895,1.9H71.473a1.3,1.3,0,0,0-.5-1.023,1.888,1.888,0,0,0-1.27-.43,1.976,1.976,0,0,0-1.234.344,1.082,1.082,0,0,0-.445.9.877.877,0,0,0,.414.789,5.1,5.1,0,0,0,1.5.508,7.8,7.8,0,0,1,1.754.578,2.558,2.558,0,0,1,1,.809A1.988,1.988,0,0,1,73,12.656a2.163,2.163,0,0,1-.906,1.816,3.8,3.8,0,0,1-2.352.684,4.257,4.257,0,0,1-1.8-.359,2.922,2.922,0,0,1-1.223-1,2.42,2.42,0,0,1-.441-1.395H67.73a1.5,1.5,0,0,0,.582,1.152,2.258,2.258,0,0,0,1.434.426,2.331,2.331,0,0,0,1.316-.332A1.02,1.02,0,0,0,71.559,12.758ZM80.105,15a3.036,3.036,0,0,1-.2-.891A3.225,3.225,0,0,1,77.5,15.156a2.984,2.984,0,0,1-2.051-.707,2.288,2.288,0,0,1-.8-1.793,2.39,2.39,0,0,1,1-2.051,4.733,4.733,0,0,1,2.824-.73h1.406V9.211A1.623,1.623,0,0,0,79.426,8a1.821,1.821,0,0,0-1.336-.449,2.108,2.108,0,0,0-1.3.391,1.151,1.151,0,0,0-.523.945H74.816a2,2,0,0,1,.449-1.223,3.066,3.066,0,0,1,1.219-.934,4.1,4.1,0,0,1,1.691-.344,3.342,3.342,0,0,1,2.289.73,2.635,2.635,0,0,1,.859,2.012v3.891a4.757,4.757,0,0,0,.3,1.852V15Zm-2.4-1.1A2.54,2.54,0,0,0,79,13.547a2.127,2.127,0,0,0,.883-.914V10.9H78.746q-2.656,0-2.656,1.555a1.316,1.316,0,0,0,.453,1.063A1.742,1.742,0,0,0,77.707,13.9ZM85.16,15H83.715V3H85.16Zm3.883,0H87.6V6.547h1.445ZM87.48,4.3a.863.863,0,0,1,.215-.594.807.807,0,0,1,.637-.242.819.819,0,0,1,.641.242.854.854,0,0,1,.219.594.826.826,0,0,1-.219.586.834.834,0,0,1-.641.234.821.821,0,0,1-.637-.234A.834.834,0,0,1,87.48,4.3ZM91,10.7a4.952,4.952,0,0,1,.922-3.129,3.137,3.137,0,0,1,4.766-.168V3h1.445V15H96.809l-.07-.906a2.943,2.943,0,0,1-2.414,1.063,2.887,2.887,0,0,1-2.395-1.2A5.008,5.008,0,0,1,91,10.813Zm1.445.164a3.749,3.749,0,0,0,.594,2.25,1.92,1.92,0,0,0,1.641.813A2.108,2.108,0,0,0,96.691,12.7V8.813a2.125,2.125,0,0,0-1.992-1.2,1.929,1.929,0,0,0-1.656.82A4.128,4.128,0,0,0,92.449,10.867ZM105.6,15a3.036,3.036,0,0,1-.2-.891,3.225,3.225,0,0,1-2.406,1.047,2.984,2.984,0,0,1-2.051-.707,2.288,2.288,0,0,1-.8-1.793,2.39,2.39,0,0,1,1-2.051,4.733,4.733,0,0,1,2.824-.73h1.406V9.211A1.623,1.623,0,0,0,104.918,8a1.821,1.821,0,0,0-1.336-.449,2.108,2.108,0,0,0-1.3.391,1.151,1.151,0,0,0-.523.945h-1.453a2,2,0,0,1,.449-1.223,3.066,3.066,0,0,1,1.219-.934,4.1,4.1,0,0,1,1.691-.344,3.342,3.342,0,0,1,2.289.73,2.635,2.635,0,0,1,.859,2.012v3.891a4.757,4.757,0,0,0,.3,1.852V15Zm-2.4-1.1a2.54,2.54,0,0,0,1.289-.352,2.127,2.127,0,0,0,.883-.914V10.9h-1.133q-2.656,0-2.656,1.555a1.316,1.316,0,0,0,.453,1.063A1.742,1.742,0,0,0,103.2,13.9Zm5.914.344a.905.905,0,0,1,.223-.625.848.848,0,0,1,.668-.25.874.874,0,0,1,.676.25.887.887,0,0,1,.23.625.839.839,0,0,1-.23.6.89.89,0,0,1-.676.242.8.8,0,0,1-.891-.844Z" transform="translate(631 4392.414)" fill="#12263f"/>
    <path id="Trazado_634275" data-name="Trazado 634275" d="M40.289,4.852H36.633V15H35.141V4.852H31.492V3.625h8.8ZM46.086,15a3.036,3.036,0,0,1-.2-.891,3.225,3.225,0,0,1-2.406,1.047,2.984,2.984,0,0,1-2.051-.707,2.287,2.287,0,0,1-.8-1.793,2.39,2.39,0,0,1,1-2.051,4.733,4.733,0,0,1,2.824-.73h1.406V9.211A1.623,1.623,0,0,0,45.406,8a1.821,1.821,0,0,0-1.336-.449,2.107,2.107,0,0,0-1.3.391,1.151,1.151,0,0,0-.523.945H40.8a2,2,0,0,1,.449-1.223,3.066,3.066,0,0,1,1.219-.934,4.1,4.1,0,0,1,1.691-.344,3.342,3.342,0,0,1,2.289.73A2.635,2.635,0,0,1,47.3,9.133v3.891a4.757,4.757,0,0,0,.3,1.852V15Zm-2.4-1.1a2.54,2.54,0,0,0,1.289-.352,2.127,2.127,0,0,0,.883-.914V10.9H44.727q-2.656,0-2.656,1.555a1.316,1.316,0,0,0,.453,1.063A1.742,1.742,0,0,0,43.688,13.9Zm10.8-1.141a1.064,1.064,0,0,0-.441-.91,4.249,4.249,0,0,0-1.539-.559,7.277,7.277,0,0,1-1.742-.562,2.479,2.479,0,0,1-.953-.781,1.869,1.869,0,0,1-.309-1.078,2.193,2.193,0,0,1,.879-1.758,3.432,3.432,0,0,1,2.246-.719,3.532,3.532,0,0,1,2.332.742,2.357,2.357,0,0,1,.895,1.9H54.406a1.3,1.3,0,0,0-.5-1.023,1.888,1.888,0,0,0-1.27-.43,1.976,1.976,0,0,0-1.234.344,1.082,1.082,0,0,0-.445.9.877.877,0,0,0,.414.789,5.1,5.1,0,0,0,1.5.508,7.8,7.8,0,0,1,1.754.578,2.558,2.558,0,0,1,1,.809,1.988,1.988,0,0,1,.324,1.152,2.163,2.163,0,0,1-.906,1.816,3.8,3.8,0,0,1-2.352.684,4.257,4.257,0,0,1-1.8-.359,2.922,2.922,0,0,1-1.223-1,2.42,2.42,0,0,1-.441-1.395h1.445a1.5,1.5,0,0,0,.582,1.152,2.258,2.258,0,0,0,1.434.426A2.331,2.331,0,0,0,54,13.645,1.02,1.02,0,0,0,54.492,12.758ZM63.039,15a3.036,3.036,0,0,1-.2-.891,3.225,3.225,0,0,1-2.406,1.047,2.984,2.984,0,0,1-2.051-.707,2.287,2.287,0,0,1-.8-1.793,2.39,2.39,0,0,1,1-2.051,4.733,4.733,0,0,1,2.824-.73h1.406V9.211A1.623,1.623,0,0,0,62.359,8a1.821,1.821,0,0,0-1.336-.449,2.107,2.107,0,0,0-1.3.391,1.151,1.151,0,0,0-.523.945H57.75A2,2,0,0,1,58.2,7.668a3.066,3.066,0,0,1,1.219-.934,4.1,4.1,0,0,1,1.691-.344,3.342,3.342,0,0,1,2.289.73,2.635,2.635,0,0,1,.859,2.012v3.891a4.757,4.757,0,0,0,.3,1.852V15Zm-2.4-1.1a2.54,2.54,0,0,0,1.289-.352,2.127,2.127,0,0,0,.883-.914V10.9H61.68q-2.656,0-2.656,1.555a1.316,1.316,0,0,0,.453,1.063A1.742,1.742,0,0,0,60.641,13.9Zm9.492-3.2a4.952,4.952,0,0,1,.922-3.129,3.137,3.137,0,0,1,4.766-.168V3h1.445V15H75.938l-.07-.906a2.943,2.943,0,0,1-2.414,1.063,2.887,2.887,0,0,1-2.395-1.2,5.008,5.008,0,0,1-.926-3.141Zm1.445.164a3.749,3.749,0,0,0,.594,2.25,1.92,1.92,0,0,0,1.641.813A2.108,2.108,0,0,0,75.82,12.7V8.813a2.125,2.125,0,0,0-1.992-1.2,1.929,1.929,0,0,0-1.656.82A4.128,4.128,0,0,0,71.578,10.867Zm11.438,4.289a3.693,3.693,0,0,1-2.8-1.129,4.19,4.19,0,0,1-1.078-3.02v-.266a5.073,5.073,0,0,1,.48-2.246,3.748,3.748,0,0,1,1.344-1.547,3.378,3.378,0,0,1,1.871-.559A3.166,3.166,0,0,1,85.4,7.477a4.7,4.7,0,0,1,.914,3.109v.6H80.586a3,3,0,0,0,.73,2.02,2.3,2.3,0,0,0,1.777.77,2.517,2.517,0,0,0,1.3-.312,3.259,3.259,0,0,0,.93-.828l.883.688A3.55,3.55,0,0,1,83.016,15.156Zm-.18-7.578a1.928,1.928,0,0,0-1.469.637A3.1,3.1,0,0,0,80.633,10h4.234V9.891a2.753,2.753,0,0,0-.594-1.707A1.815,1.815,0,0,0,82.836,7.578ZM22.4,37.977a2.082,2.082,0,0,0,1.352-.469,1.649,1.649,0,0,0,.641-1.172h1.367a2.621,2.621,0,0,1-.5,1.383,3.293,3.293,0,0,1-1.23,1.047,3.55,3.55,0,0,1-1.629.391A3.482,3.482,0,0,1,19.656,38a4.59,4.59,0,0,1-1.02-3.152v-.242a5.089,5.089,0,0,1,.453-2.2,3.451,3.451,0,0,1,1.3-1.492,3.7,3.7,0,0,1,2-.531,3.39,3.39,0,0,1,2.363.852,3.043,3.043,0,0,1,1,2.211H24.395a1.992,1.992,0,0,0-.621-1.348,1.932,1.932,0,0,0-1.379-.527,2.023,2.023,0,0,0-1.707.793,3.724,3.724,0,0,0-.605,2.293v.273a3.65,3.65,0,0,0,.6,2.25A2.033,2.033,0,0,0,22.4,37.977ZM27,34.7a4.993,4.993,0,0,1,.488-2.234,3.643,3.643,0,0,1,1.359-1.531,3.7,3.7,0,0,1,1.988-.539,3.565,3.565,0,0,1,2.793,1.2,4.6,4.6,0,0,1,1.066,3.18v.1a5.036,5.036,0,0,1-.473,2.215,3.589,3.589,0,0,1-1.352,1.527,3.743,3.743,0,0,1-2.02.547,3.556,3.556,0,0,1-2.785-1.2A4.575,4.575,0,0,1,27,34.8Zm1.453.172a3.616,3.616,0,0,0,.652,2.258,2.211,2.211,0,0,0,3.5-.012,3.955,3.955,0,0,0,.648-2.418,3.61,3.61,0,0,0-.66-2.254,2.1,2.1,0,0,0-1.754-.863,2.075,2.075,0,0,0-1.727.852A3.925,3.925,0,0,0,28.457,34.867Zm9.422-4.32.047,1.063a3.08,3.08,0,0,1,2.531-1.219q2.68,0,2.7,3.023V39H41.715V33.406a1.946,1.946,0,0,0-.418-1.352,1.675,1.675,0,0,0-1.277-.437,2.086,2.086,0,0,0-1.234.375,2.546,2.546,0,0,0-.828.984V39H36.512V30.547Zm10.25,6.492,2.094-6.492H51.7L48.668,39h-1.1L44.5,30.547H45.98ZM56.5,39.156a3.693,3.693,0,0,1-2.8-1.129,4.19,4.19,0,0,1-1.078-3.02v-.266A5.073,5.073,0,0,1,53.1,32.5a3.748,3.748,0,0,1,1.344-1.547,3.378,3.378,0,0,1,1.871-.559,3.166,3.166,0,0,1,2.563,1.086,4.7,4.7,0,0,1,.914,3.109v.6H54.066a3,3,0,0,0,.73,2.02,2.3,2.3,0,0,0,1.777.77,2.517,2.517,0,0,0,1.3-.312,3.258,3.258,0,0,0,.93-.828l.883.688A3.55,3.55,0,0,1,56.5,39.156Zm-.18-7.578a1.928,1.928,0,0,0-1.469.637A3.1,3.1,0,0,0,54.113,34h4.234v-.109a2.753,2.753,0,0,0-.594-1.707A1.815,1.815,0,0,0,56.316,31.578Zm9.234.266a4.331,4.331,0,0,0-.711-.055A1.9,1.9,0,0,0,62.91,33v6H61.465V30.547h1.406l.023.977a2.251,2.251,0,0,1,2.016-1.133,1.477,1.477,0,0,1,.641.109Zm6.25,4.914a1.064,1.064,0,0,0-.441-.91,4.249,4.249,0,0,0-1.539-.559,7.277,7.277,0,0,1-1.742-.562,2.479,2.479,0,0,1-.953-.781,1.869,1.869,0,0,1-.309-1.078,2.193,2.193,0,0,1,.879-1.758,3.432,3.432,0,0,1,2.246-.719,3.532,3.532,0,0,1,2.332.742,2.357,2.357,0,0,1,.895,1.9H71.715a1.3,1.3,0,0,0-.5-1.023,1.888,1.888,0,0,0-1.27-.43,1.976,1.976,0,0,0-1.234.344,1.082,1.082,0,0,0-.445.9.877.877,0,0,0,.414.789,5.1,5.1,0,0,0,1.5.508,7.8,7.8,0,0,1,1.754.578,2.558,2.558,0,0,1,1,.809,1.988,1.988,0,0,1,.324,1.152,2.163,2.163,0,0,1-.906,1.816,3.8,3.8,0,0,1-2.352.684,4.257,4.257,0,0,1-1.8-.359,2.922,2.922,0,0,1-1.223-1,2.42,2.42,0,0,1-.441-1.395h1.445a1.5,1.5,0,0,0,.582,1.152,2.258,2.258,0,0,0,1.434.426,2.331,2.331,0,0,0,1.316-.332A1.02,1.02,0,0,0,71.8,36.758ZM76.7,39H75.254V30.547H76.7ZM75.137,28.3a.863.863,0,0,1,.215-.594.807.807,0,0,1,.637-.242.819.819,0,0,1,.641.242.854.854,0,0,1,.219.594.826.826,0,0,1-.219.586.834.834,0,0,1-.641.234.821.821,0,0,1-.637-.234A.834.834,0,0,1,75.137,28.3ZM78.629,34.7a4.993,4.993,0,0,1,.488-2.234,3.643,3.643,0,0,1,1.359-1.531,3.7,3.7,0,0,1,1.988-.539,3.565,3.565,0,0,1,2.793,1.2,4.6,4.6,0,0,1,1.066,3.18v.1a5.036,5.036,0,0,1-.473,2.215A3.589,3.589,0,0,1,84.5,38.609a3.743,3.743,0,0,1-2.02.547,3.556,3.556,0,0,1-2.785-1.2A4.575,4.575,0,0,1,78.629,34.8Zm1.453.172a3.616,3.616,0,0,0,.652,2.258,2.211,2.211,0,0,0,3.5-.012,3.955,3.955,0,0,0,.648-2.418,3.61,3.61,0,0,0-.66-2.254,2.1,2.1,0,0,0-1.754-.863,2.075,2.075,0,0,0-1.727.852A3.925,3.925,0,0,0,80.082,34.867ZM83.121,27h1.75l-2.094,2.3-1.164,0ZM89.5,30.547l.047,1.063a3.08,3.08,0,0,1,2.531-1.219q2.68,0,2.7,3.023V39H93.34V33.406a1.946,1.946,0,0,0-.418-1.352,1.675,1.675,0,0,0-1.277-.437,2.086,2.086,0,0,0-1.234.375,2.546,2.546,0,0,0-.828.984V39H88.137V30.547ZM97,38.242a.905.905,0,0,1,.223-.625.848.848,0,0,1,.668-.25.874.874,0,0,1,.676.25.887.887,0,0,1,.23.625.839.839,0,0,1-.23.6.89.89,0,0,1-.676.242A.8.8,0,0,1,97,38.242Z" transform="translate(848 4384.914)" fill="#12263f"/>
    <path id="Trazado_634276" data-name="Trazado 634276" d="M22.586,11.391a4.185,4.185,0,0,1-1.332,2.785,4.365,4.365,0,0,1-2.98.98,4.008,4.008,0,0,1-3.23-1.445,5.815,5.815,0,0,1-1.215-3.867V8.75a6.481,6.481,0,0,1,.566-2.789A4.231,4.231,0,0,1,16,4.113a4.47,4.47,0,0,1,2.406-.645A4.11,4.11,0,0,1,21.313,4.48a4.235,4.235,0,0,1,1.273,2.8H21.078a3.268,3.268,0,0,0-.848-1.975A2.565,2.565,0,0,0,18.406,4.7a2.684,2.684,0,0,0-2.254,1.063,4.882,4.882,0,0,0-.816,3.026v1.1a5.018,5.018,0,0,0,.773,2.948,2.5,2.5,0,0,0,2.164,1.095,2.886,2.886,0,0,0,1.918-.566,3.143,3.143,0,0,0,.887-1.973Zm1.438-.7a4.993,4.993,0,0,1,.488-2.234A3.643,3.643,0,0,1,25.871,6.93a3.7,3.7,0,0,1,1.988-.539,3.565,3.565,0,0,1,2.793,1.2,4.6,4.6,0,0,1,1.066,3.18v.1a5.036,5.036,0,0,1-.473,2.215,3.589,3.589,0,0,1-1.352,1.527,3.743,3.743,0,0,1-2.02.547,3.556,3.556,0,0,1-2.785-1.2A4.575,4.575,0,0,1,24.023,10.8Zm1.453.172a3.616,3.616,0,0,0,.652,2.258,2.211,2.211,0,0,0,3.5-.012,3.955,3.955,0,0,0,.648-2.418,3.61,3.61,0,0,0-.66-2.254,2.1,2.1,0,0,0-1.754-.863,2.075,2.075,0,0,0-1.727.852A3.925,3.925,0,0,0,25.477,10.867Zm9.414-4.32.039.938a3.122,3.122,0,0,1,2.508-1.094A2.417,2.417,0,0,1,39.852,7.75a3.2,3.2,0,0,1,1.1-.984,3.242,3.242,0,0,1,1.6-.375q2.781,0,2.828,2.945V15H43.93V9.422a1.941,1.941,0,0,0-.414-1.355,1.823,1.823,0,0,0-1.391-.449,1.917,1.917,0,0,0-1.336.48,1.949,1.949,0,0,0-.617,1.293V15H38.719V9.461a1.613,1.613,0,0,0-1.8-1.844,1.934,1.934,0,0,0-1.945,1.211V15H33.523V6.547Zm19.8,4.32a5.062,5.062,0,0,1-.883,3.109,2.829,2.829,0,0,1-2.391,1.18A3.1,3.1,0,0,1,49,14.18v4.07H47.555V6.547h1.32l.07.938A2.977,2.977,0,0,1,51.4,6.391a2.882,2.882,0,0,1,2.41,1.148,5.117,5.117,0,0,1,.887,3.2ZM53.25,10.7a3.735,3.735,0,0,0-.609-2.258,1.963,1.963,0,0,0-1.672-.828A2.125,2.125,0,0,0,49,8.781V12.82a2.129,2.129,0,0,0,1.984,1.156,1.954,1.954,0,0,0,1.652-.824A4.077,4.077,0,0,0,53.25,10.7Zm7.367-2.859a4.331,4.331,0,0,0-.711-.055A1.9,1.9,0,0,0,57.977,9v6H56.531V6.547h1.406l.023.977a2.251,2.251,0,0,1,2.016-1.133,1.477,1.477,0,0,1,.641.109Zm.789,2.852a4.993,4.993,0,0,1,.488-2.234A3.643,3.643,0,0,1,63.254,6.93a3.7,3.7,0,0,1,1.988-.539,3.565,3.565,0,0,1,2.793,1.2,4.6,4.6,0,0,1,1.066,3.18v.1a5.036,5.036,0,0,1-.473,2.215,3.589,3.589,0,0,1-1.352,1.527,3.743,3.743,0,0,1-2.02.547,3.556,3.556,0,0,1-2.785-1.2A4.575,4.575,0,0,1,61.406,10.8Zm1.453.172a3.616,3.616,0,0,0,.652,2.258,2.211,2.211,0,0,0,3.5-.012,3.955,3.955,0,0,0,.648-2.418A3.61,3.61,0,0,0,67,8.441a2.1,2.1,0,0,0-1.754-.863,2.075,2.075,0,0,0-1.727.852A3.925,3.925,0,0,0,62.859,10.867Zm9.414-4.32.039.938A3.122,3.122,0,0,1,74.82,6.391,2.417,2.417,0,0,1,77.234,7.75a3.2,3.2,0,0,1,1.1-.984,3.242,3.242,0,0,1,1.6-.375q2.781,0,2.828,2.945V15H81.313V9.422A1.941,1.941,0,0,0,80.9,8.066a1.823,1.823,0,0,0-1.391-.449,1.916,1.916,0,0,0-1.336.48,1.949,1.949,0,0,0-.617,1.293V15H76.1V9.461a1.613,1.613,0,0,0-1.8-1.844,1.934,1.934,0,0,0-1.945,1.211V15H70.906V6.547ZM86.508,15H85.063V6.547h1.445ZM84.945,4.3a.863.863,0,0,1,.215-.594.807.807,0,0,1,.637-.242.819.819,0,0,1,.641.242.854.854,0,0,1,.219.594.826.826,0,0,1-.219.586.834.834,0,0,1-.641.234.821.821,0,0,1-.637-.234A.834.834,0,0,1,84.945,4.3Zm8.8,8.453a1.064,1.064,0,0,0-.441-.91,4.249,4.249,0,0,0-1.539-.559,7.277,7.277,0,0,1-1.742-.562,2.479,2.479,0,0,1-.953-.781,1.869,1.869,0,0,1-.309-1.078,2.193,2.193,0,0,1,.879-1.758,3.432,3.432,0,0,1,2.246-.719,3.532,3.532,0,0,1,2.332.742,2.357,2.357,0,0,1,.895,1.9H93.656a1.3,1.3,0,0,0-.5-1.023,1.888,1.888,0,0,0-1.27-.43,1.976,1.976,0,0,0-1.234.344,1.082,1.082,0,0,0-.445.9.877.877,0,0,0,.414.789,5.1,5.1,0,0,0,1.5.508,7.8,7.8,0,0,1,1.754.578,2.558,2.558,0,0,1,1,.809,1.988,1.988,0,0,1,.324,1.152,2.163,2.163,0,0,1-.906,1.816,3.8,3.8,0,0,1-2.352.684,4.257,4.257,0,0,1-1.8-.359,2.922,2.922,0,0,1-1.223-1,2.42,2.42,0,0,1-.441-1.395h1.445a1.5,1.5,0,0,0,.582,1.152,2.258,2.258,0,0,0,1.434.426,2.331,2.331,0,0,0,1.316-.332A1.02,1.02,0,0,0,93.742,12.758ZM96.688,10.7a4.993,4.993,0,0,1,.488-2.234A3.643,3.643,0,0,1,98.535,6.93a3.7,3.7,0,0,1,1.988-.539,3.565,3.565,0,0,1,2.793,1.2,4.6,4.6,0,0,1,1.066,3.18v.1a5.036,5.036,0,0,1-.473,2.215,3.589,3.589,0,0,1-1.352,1.527,3.743,3.743,0,0,1-2.02.547,3.556,3.556,0,0,1-2.785-1.2A4.575,4.575,0,0,1,96.688,10.8Zm1.453.172a3.616,3.616,0,0,0,.652,2.258,2.211,2.211,0,0,0,3.5-.012,3.955,3.955,0,0,0,.648-2.418,3.61,3.61,0,0,0-.66-2.254,2.1,2.1,0,0,0-1.754-.863A2.075,2.075,0,0,0,98.8,8.43,3.925,3.925,0,0,0,98.141,10.867ZM8.867,34.383a12.079,12.079,0,0,1,.473-3.391,9.85,9.85,0,0,1,1.41-2.953A6,6,0,0,1,12.7,26.164l.3.953a6.222,6.222,0,0,0-1.871,2.672,11.583,11.583,0,0,0-.8,4.023l-.008.664a11.643,11.643,0,0,0,1.1,5.234,6.252,6.252,0,0,0,1.578,2.078l-.3.883a6.192,6.192,0,0,1-1.984-1.937A10.859,10.859,0,0,1,8.867,34.383ZM17.2,39.156a3.048,3.048,0,0,1-2.469-1.164,4.006,4.006,0,0,1-.75-2.9l.039-.336a5.624,5.624,0,0,1,.746-2.3,4.339,4.339,0,0,1,1.5-1.566,3.491,3.491,0,0,1,1.906-.5,2.688,2.688,0,0,1,2.047.867,3.566,3.566,0,0,1,.813,2.266,6.621,6.621,0,0,1-.031,1.016l-.086.648H15.383a2.856,2.856,0,0,0,.379,1.953,1.8,1.8,0,0,0,1.551.836,3.007,3.007,0,0,0,2.313-1.125l.813.688a3.718,3.718,0,0,1-1.371,1.2A3.886,3.886,0,0,1,17.2,39.156Zm.9-7.586a2.066,2.066,0,0,0-1.527.594A4.22,4.22,0,0,0,15.531,34l4.109.008.031-.125a2.313,2.313,0,0,0-.316-1.637A1.488,1.488,0,0,0,18.094,31.57Zm6.547-1.031-.2,1.07a3.333,3.333,0,0,1,2.594-1.219,2.1,2.1,0,0,1,1.766.828,3.217,3.217,0,0,1,.422,2.242L28.3,39H26.883l.93-5.557a2.962,2.962,0,0,0,.008-.71,1.168,1.168,0,0,0-1.289-1.116A2.661,2.661,0,0,0,24.3,32.975L23.25,39H21.836L23.3,30.547Zm6.25,4.219a6.889,6.889,0,0,1,.746-2.4A3.9,3.9,0,0,1,33,30.848a3.151,3.151,0,0,1,1.754-.465,2.6,2.6,0,0,1,2.219,1.109l.281-.945h1.3L37.141,38.82a4.113,4.113,0,0,1-1.312,2.59,3.7,3.7,0,0,1-2.68.926A3.8,3.8,0,0,1,31.5,41.93a3.127,3.127,0,0,1-1.238-1.07l.8-.867a2.536,2.536,0,0,0,3.73.6,2.9,2.9,0,0,0,.926-1.687l.156-.75a3.2,3.2,0,0,1-2.414,1A2.486,2.486,0,0,1,32.1,38.73a2.589,2.589,0,0,1-.9-1.164,4.759,4.759,0,0,1-.352-1.7A8.733,8.733,0,0,1,30.891,34.758Zm1.367.8a2.974,2.974,0,0,0,.387,1.728,1.461,1.461,0,0,0,1.238.644,2.561,2.561,0,0,0,2.18-1.241l.664-3.878a1.776,1.776,0,0,0-1.7-1.2,2.194,2.194,0,0,0-1.887.936,4.878,4.878,0,0,0-.871,2.614ZM44.438,39a1.894,1.894,0,0,1-.055-.445l.023-.445a3.465,3.465,0,0,1-2.469,1.047,2.526,2.526,0,0,1-1.816-.707,2.14,2.14,0,0,1-.637-1.73,2.6,2.6,0,0,1,1.176-2.1,5.005,5.005,0,0,1,2.887-.754l1.477.008.094-.672a1.545,1.545,0,0,0-.293-1.2,1.414,1.414,0,0,0-1.113-.457,2.181,2.181,0,0,0-1.285.355,1.513,1.513,0,0,0-.684.98l-1.422.008a2.266,2.266,0,0,1,.578-1.316,3.363,3.363,0,0,1,1.3-.891,4.215,4.215,0,0,1,1.648-.3,2.8,2.8,0,0,1,2.055.8,2.484,2.484,0,0,1,.617,2.043l-.687,4.188-.039.6a2.949,2.949,0,0,0,.094.852L45.875,39Zm-2.219-1.094a2.466,2.466,0,0,0,1.285-.324,3.254,3.254,0,0,0,1.043-.941l.3-1.742-1.07-.008a4.054,4.054,0,0,0-2.047.422,1.554,1.554,0,0,0-.8,1.2,1.21,1.21,0,0,0,.277.988A1.321,1.321,0,0,0,42.219,37.906ZM48.2,34.758a6.889,6.889,0,0,1,.746-2.4,3.9,3.9,0,0,1,1.359-1.508,3.151,3.151,0,0,1,1.754-.465,2.6,2.6,0,0,1,2.219,1.109l.281-.945h1.3L54.453,38.82a4.113,4.113,0,0,1-1.312,2.59,3.7,3.7,0,0,1-2.68.926,3.8,3.8,0,0,1-1.645-.406,3.127,3.127,0,0,1-1.238-1.07l.8-.867a2.536,2.536,0,0,0,3.73.6,2.9,2.9,0,0,0,.926-1.687l.156-.75a3.2,3.2,0,0,1-2.414,1,2.486,2.486,0,0,1-1.371-.426,2.589,2.589,0,0,1-.9-1.164,4.759,4.759,0,0,1-.352-1.7A8.733,8.733,0,0,1,48.2,34.758Zm1.367.8a2.974,2.974,0,0,0,.387,1.728,1.461,1.461,0,0,0,1.238.644,2.561,2.561,0,0,0,2.18-1.241l.664-3.878a1.776,1.776,0,0,0-1.7-1.2,2.194,2.194,0,0,0-1.887.936,4.878,4.878,0,0,0-.871,2.614Zm10.664,3.6a3.048,3.048,0,0,1-2.469-1.164,4.006,4.006,0,0,1-.75-2.9l.039-.336a5.624,5.624,0,0,1,.746-2.3,4.339,4.339,0,0,1,1.5-1.566,3.491,3.491,0,0,1,1.906-.5,2.688,2.688,0,0,1,2.047.867,3.566,3.566,0,0,1,.813,2.266,6.62,6.62,0,0,1-.031,1.016l-.086.648H58.422a2.856,2.856,0,0,0,.379,1.953,1.8,1.8,0,0,0,1.551.836,3.007,3.007,0,0,0,2.313-1.125l.813.688a3.718,3.718,0,0,1-1.371,1.2A3.886,3.886,0,0,1,60.234,39.156Zm.9-7.586a2.066,2.066,0,0,0-1.527.594A4.22,4.22,0,0,0,58.57,34l4.109.008.031-.125a2.313,2.313,0,0,0-.316-1.637A1.488,1.488,0,0,0,61.133,31.57Zm6.531-1.031-.18.945a3.305,3.305,0,0,1,2.57-1.094,2.608,2.608,0,0,1,1.363.367,1.8,1.8,0,0,1,.77.992,3.49,3.49,0,0,1,2.8-1.359,2.235,2.235,0,0,1,1.867.852,3.042,3.042,0,0,1,.445,2.2L76.375,39H74.969l.922-5.57a2.943,2.943,0,0,0,0-.742Q75.742,31.625,74.5,31.6a2.136,2.136,0,0,0-1.4.48,2.222,2.222,0,0,0-.809,1.3L71.328,39H69.906l.938-5.562a1.786,1.786,0,0,0-.262-1.336,1.377,1.377,0,0,0-1.129-.484,2.315,2.315,0,0,0-2.1,1.2L66.281,39H64.867l1.469-8.453Zm14.547,8.617a3.048,3.048,0,0,1-2.469-1.164,4.006,4.006,0,0,1-.75-2.9l.039-.336a5.624,5.624,0,0,1,.746-2.3,4.339,4.339,0,0,1,1.5-1.566,3.491,3.491,0,0,1,1.906-.5,2.688,2.688,0,0,1,2.047.867,3.566,3.566,0,0,1,.813,2.266,6.62,6.62,0,0,1-.031,1.016l-.086.648H80.4a2.856,2.856,0,0,0,.379,1.953,1.8,1.8,0,0,0,1.551.836,3.007,3.007,0,0,0,2.313-1.125l.813.688a3.718,3.718,0,0,1-1.371,1.2A3.886,3.886,0,0,1,82.211,39.156Zm.9-7.586a2.066,2.066,0,0,0-1.527.594A4.22,4.22,0,0,0,80.547,34l4.109.008.031-.125a2.313,2.313,0,0,0-.316-1.637A1.488,1.488,0,0,0,83.109,31.57Zm6.547-1.031-.2,1.07a3.333,3.333,0,0,1,2.594-1.219,2.1,2.1,0,0,1,1.766.828,3.217,3.217,0,0,1,.422,2.242L93.313,39H91.9l.93-5.557a2.962,2.962,0,0,0,.008-.71,1.168,1.168,0,0,0-1.289-1.116,2.661,2.661,0,0,0-2.234,1.358L88.266,39H86.852l1.469-8.453Zm9.57-2.039-.359,2.047h1.539l-.2,1.117H98.68L97.8,36.922a1.833,1.833,0,0,0-.008.375.6.6,0,0,0,.664.609,4.05,4.05,0,0,0,.688-.078l-.109,1.18A3.847,3.847,0,0,1,98,39.148a1.476,1.476,0,0,1-1.266-.621,2.4,2.4,0,0,1-.328-1.629l.859-5.234H95.773l.2-1.117h1.492L97.82,28.5Zm5.6,5.961a12.085,12.085,0,0,1-.457,3.34,9.876,9.876,0,0,1-1.4,2.949A6.127,6.127,0,0,1,101,42.672l-.3-.883a6.281,6.281,0,0,0,1.934-2.863,12.387,12.387,0,0,0,.746-4.309v-.25a12.861,12.861,0,0,0-.344-3.051,10.3,10.3,0,0,0-.957-2.527,5.838,5.838,0,0,0-1.379-1.742l.3-.883a6.1,6.1,0,0,1,1.965,1.906,9.9,9.9,0,0,1,1.4,2.945A12.363,12.363,0,0,1,104.828,34.461Zm2.258,3.781a.905.905,0,0,1,.223-.625.848.848,0,0,1,.668-.25.874.874,0,0,1,.676.25.887.887,0,0,1,.23.625.839.839,0,0,1-.23.6.89.89,0,0,1-.676.242.8.8,0,0,1-.891-.844Z" transform="translate(1065 4384.414)" fill="#12263f"/>
    <path id="Trazado_634255" data-name="Trazado 634255" d="M127.541,70.938a.878.878,0,0,1-.381-.087.867.867,0,0,1-.48-.774V49.888a.861.861,0,0,1,1.387-.682L141.149,59.3a.862.862,0,0,1,0,1.364L128.067,70.757a.86.86,0,0,1-.526.181m.861-19.3V68.324l10.81-8.341Z" transform="translate(546.164 4177.604) rotate(90)" fill="#333"/>
    <path id="Trazado_634256" data-name="Trazado 634256" d="M-2703.181-7436.129v14.8H-3342v24.8" transform="translate(3828.181 11700)" fill="none" stroke="#535050" stroke-linecap="round" stroke-width="3" stroke-dasharray="1 8"/>
  </g>
</svg>
