<svg xmlns="http://www.w3.org/2000/svg" width="95.339" height="95.339" viewBox="0 0 95.339 95.339">
  <g id="Grupo_877212" data-name="Grupo 877212" transform="translate(-25.156 -62.081)">
    <g id="Grupo_880048" data-name="Grupo 880048" transform="translate(25.156 62.081)">
      <path id="Trazado_632092" data-name="Trazado 632092" d="M23.407,88.527H17.448A7.448,7.448,0,0,1,10,81.079V17.448A7.448,7.448,0,0,1,17.448,10H94.166a7.448,7.448,0,0,1,7.448,7.448V81.079a7.448,7.448,0,0,1-7.448,7.448H23.407Z" transform="translate(-8.138 -8.138)" fill="#fff"/>
      <path id="Trazado_632093" data-name="Trazado 632093" d="M94.166,10H17.448A7.448,7.448,0,0,0,10,17.448v5.959h91.615V17.448A7.448,7.448,0,0,0,94.166,10Z" transform="translate(-8.138 -8.138)" fill="#fd4c1b"/>
      <path id="Trazado_632094" data-name="Trazado 632094" d="M21,82h88.448" transform="translate(-17.093 -66.731)" fill="#231f20"/>
      <rect id="Rectángulo_329242" data-name="Rectángulo 329242" width="12" height="20" transform="translate(10 73)" fill="#a5dc69"/>
      <rect id="Rectángulo_329243" data-name="Rectángulo 329243" width="12" height="25" transform="translate(52 68)" fill="#2b95f9"/>
      <rect id="Rectángulo_329244" data-name="Rectángulo 329244" width="11.917" height="41.072" transform="translate(31.283 52.405)" fill="#ffb338"/>
      <rect id="Rectángulo_329245" data-name="Rectángulo 329245" width="11.917" height="43.852" transform="translate(72.994 49.625)" fill="#fd4c1b"/>
      <circle id="Elipse_6688" data-name="Elipse 6688" cx="4.841" cy="4.841" r="4.841" transform="translate(31.352 27.175)" fill="#ffb338"/>
      <circle id="Elipse_6689" data-name="Elipse 6689" cx="4.841" cy="4.841" r="4.841" transform="translate(53.083 49.345)" fill="#2b95f9"/>
      <circle id="Elipse_6690" data-name="Elipse 6690" cx="4.841" cy="4.841" r="4.841" transform="translate(74.111 27.175)" fill="#fd4c1b"/>
      <circle id="Elipse_6691" data-name="Elipse 6691" cx="4.841" cy="4.841" r="4.841" transform="translate(11.422 47.563)" fill="#a5dc69"/>
      <path id="Trazado_632095" data-name="Trazado 632095" d="M88.837,82.025a6.509,6.509,0,0,0,6.5-6.5V9.31A9.321,9.321,0,0,0,86.028,0H9.31A9.321,9.321,0,0,0,0,9.31V75.523a6.509,6.509,0,0,0,6.5,6.5H8.566v9.589h-6.7a1.862,1.862,0,1,0,0,3.724H93.477a1.862,1.862,0,0,0,0-3.724h-6.7V82.025ZM9.31,3.724H86.028A5.593,5.593,0,0,1,91.615,9.31v4.1H3.911c-.063,0-.126,0-.187.009V9.31A5.593,5.593,0,0,1,9.31,3.724ZM12.29,91.615V74.856h8.193V91.615Zm20.855,0V54.267h8.193V91.615Zm20.855,0v-21.6h8.193v21.6Zm20.855,0V71.551a1.862,1.862,0,1,0-3.724,0V91.615H65.918V68.152a1.862,1.862,0,0,0-1.862-1.862H52.138a1.862,1.862,0,0,0-1.862,1.862V91.615H45.063V52.405A1.862,1.862,0,0,0,43.2,50.543H31.283a1.862,1.862,0,0,0-1.862,1.862v39.21H24.207V72.994a1.862,1.862,0,0,0-1.862-1.862H10.428a1.862,1.862,0,0,0-1.862,1.862V78.3H6.5a2.781,2.781,0,0,1-2.778-2.778v-58.4c.061.006.124.009.187.009h87.7V75.523A2.781,2.781,0,0,1,88.837,78.3H86.773V49.625a1.862,1.862,0,0,0-1.862-1.862H72.994a1.862,1.862,0,0,0-1.862,1.862v9.4a1.862,1.862,0,1,0,3.724,0V51.487h8.193V91.615Z"/>
      <path id="Trazado_632096" data-name="Trazado 632096" d="M213.927,39.724H256A1.862,1.862,0,0,0,256,36H213.927a1.862,1.862,0,1,0,0,3.724Z" transform="translate(-172.577 -29.296)"/>
      <path id="Trazado_632097" data-name="Trazado 632097" d="M95.862,39.724a1.863,1.863,0,1,0-1.316-.546A1.876,1.876,0,0,0,95.862,39.724Z" transform="translate(-76.496 -29.296)"/>
      <path id="Trazado_632098" data-name="Trazado 632098" d="M55.862,39.724a1.863,1.863,0,1,0-1.316-.546A1.876,1.876,0,0,0,55.862,39.724Z" transform="translate(-43.945 -29.296)"/>
      <path id="Trazado_632099" data-name="Trazado 632099" d="M135.862,39.724a1.863,1.863,0,1,0-1.316-.546A1.876,1.876,0,0,0,135.862,39.724Z" transform="translate(-109.048 -29.296)"/>
      <path id="Trazado_632100" data-name="Trazado 632100" d="M383.862,342.64a1.863,1.863,0,1,0,1.316.546A1.869,1.869,0,0,0,383.862,342.64Z" transform="translate(-310.868 -278.837)"/>
      <path id="Trazado_632101" data-name="Trazado 632101" d="M120.729,149.346a6.714,6.714,0,1,0-5.424-2.771l-12.369,12.369a6.687,6.687,0,0,0-6.182-.151L83.839,145.878a6.7,6.7,0,1,0-11.568.288l-11,11a6.709,6.709,0,1,0,2.634,2.633l11.127-11.127a6.688,6.688,0,0,0,6.17-.157L93.994,161.3a6.7,6.7,0,1,0,11.575.277l12.7-12.7A6.66,6.66,0,0,0,120.729,149.346Zm0-9.683a2.979,2.979,0,1,1-2.979,2.979A2.983,2.983,0,0,1,120.729,139.663ZM58.04,166.01a2.979,2.979,0,1,1,2.979-2.979A2.983,2.983,0,0,1,58.04,166.01Zm19.931-20.389a2.979,2.979,0,1,1,2.979-2.979A2.983,2.983,0,0,1,77.971,145.622ZM99.7,167.792a2.979,2.979,0,1,1,2.979-2.979A2.983,2.983,0,0,1,99.7,167.792Z" transform="translate(-41.777 -110.626)"/>
      <path id="Trazado_632102" data-name="Trazado 632102" d="M133.122,129.744a1.86,1.86,0,1,0-1.318-.546A1.879,1.879,0,0,0,133.122,129.744Z" transform="translate(-106.818 -102.554)"/>
      <path id="Trazado_632103" data-name="Trazado 632103" d="M47.862,129.745H56.8a1.862,1.862,0,0,0,0-3.724H47.862a1.862,1.862,0,0,0,0,3.724Z" transform="translate(-37.434 -102.555)"/>
      <path id="Trazado_632104" data-name="Trazado 632104" d="M56.8,177.745a1.862,1.862,0,0,0,0-3.724H47.862a1.862,1.862,0,0,0,0,3.724Z" transform="translate(-37.434 -141.617)"/>
    </g>
  </g>
</svg>
