<svg xmlns="http://www.w3.org/2000/svg" width="78.227" height="58.079" viewBox="0 0 78.227 58.079">
  <g id="Grupo_1034306" data-name="Grupo 1034306" transform="translate(-180 -7560.922)">
    <path id="Trazado_194609" data-name="Trazado 194609" d="M0,0,78.227,36.813H0Z" transform="translate(180 7567.188)" fill="#5f914e"/>
    <g id="Grupo_880474" data-name="Grupo 880474" transform="translate(165.328 7560.922)">
      <path id="Trazado_633369" data-name="Trazado 633369" d="M279.068,304.268l-6-6a16.222,16.222,0,0,1-2.712,2.712l6,6Z" transform="translate(-214.942 -264.434)" fill="#8abbd5"/>
      <path id="Trazado_633370" data-name="Trazado 633370" d="M277.685,317.093l-5.92-5.92a16.217,16.217,0,0,1-1.409,1.248l6,6Z" transform="translate(-214.943 -275.875)" fill="#6cabca"/>
      <g id="Grupo_880452" data-name="Grupo 880452" transform="translate(60.997 39.417)">
        <g id="Grupo_880451" data-name="Grupo 880451" transform="translate(0 0)">
          <path id="Trazado_633371" data-name="Trazado 633371" d="M324.5,347.847a1.231,1.231,0,0,0-1.741,0l-2.825,2.825a1.231,1.231,0,0,0,0,1.741l2.036,2.037,4.565-4.565Z" transform="translate(-319.573 -347.487)" fill="#d8ecfe"/>
        </g>
        <path id="Trazado_633372" data-name="Trazado 633372" d="M322.818,352.13a1.231,1.231,0,0,1,0-1.741l2.112-2.112-.431-.43a1.231,1.231,0,0,0-1.741,0l-2.825,2.825a1.231,1.231,0,0,0,0,1.741l2.036,2.036,1.583-1.583Z" transform="translate(-319.573 -347.486)" fill="#c4e2ff"/>
      </g>
      <g id="Grupo_880453" data-name="Grupo 880453" transform="translate(63.394 41.814)">
        <path id="Trazado_633373" data-name="Trazado 633373" d="M355.579,381.537l-1.954,1.954a1.847,1.847,0,0,1-2.611,0l-10.308-10.308,4.565-4.565,10.308,10.308A1.847,1.847,0,0,1,355.579,381.537Z" transform="translate(-340.706 -368.618)" fill="#2ed1e2"/>
      </g>
      <g id="Grupo_880454" data-name="Grupo 880454" transform="translate(63.394 41.814)">
        <path id="Trazado_633374" data-name="Trazado 633374" d="M345.525,372.381l1.755-1.755-2.008-2.008-4.565,4.565,10.308,10.308a1.847,1.847,0,0,0,2.611,0l.7-.7-8.8-8.8A1.135,1.135,0,0,1,345.525,372.381Z" transform="translate(-340.706 -368.618)" fill="#0082ff"/>
      </g>
      <path id="Trazado_633375" data-name="Trazado 633375" d="M72.526,84.327H65.058a.568.568,0,0,0-.4.166l-4.071,4.071a.567.567,0,0,1-.968-.4V84.894a.567.567,0,0,0-.567-.567H54.7a.567.567,0,0,1-.567-.567V69.718a16.137,16.137,0,0,0-12.913,21.25h8.85a.34.34,0,0,1,.241.1l3.027,3.027a.34.34,0,0,1,.1.241v7.185A16.135,16.135,0,0,0,72.582,85.677C72.582,85.222,72.563,84.772,72.526,84.327Z" transform="translate(-11.009 -61.809)" fill="#0082ff"/>
      <path id="Trazado_633376" data-name="Trazado 633376" d="M97.68,113.585H93.922a.568.568,0,0,0-.4.166l-4.071,4.071a.567.567,0,0,1-.968-.4v-3.269a.567.567,0,0,0-.567-.567H83.562a.567.567,0,0,1-.567-.567v-10.3a12.439,12.439,0,0,0-8.929,17.506h4.867a.34.34,0,0,1,.241.1l3.027,3.027a.34.34,0,0,1,.1.241V127a12.441,12.441,0,0,0,15.453-12.063A12.585,12.585,0,0,0,97.68,113.585Z" transform="translate(-39.872 -91.068)" fill="#d8ecfe"/>
      <g id="Grupo_880455" data-name="Grupo 880455" transform="translate(33.014 11.652)">
        <path id="Trazado_633377" data-name="Trazado 633377" d="M78.843,120.226A12.438,12.438,0,0,1,83,104.733V102.72a12.439,12.439,0,0,0-8.929,17.506Z" transform="translate(-72.887 -102.72)" fill="#b3dafe"/>
      </g>
      <g id="Grupo_880460" data-name="Grupo 880460" transform="translate(43.122 0.851)">
        <g id="Grupo_880456" data-name="Grupo 880456">
          <path id="Trazado_633378" data-name="Trazado 633378" d="M183.1,7.5H162.566a.567.567,0,0,0-.567.567V28.6a.567.567,0,0,0,.567.567h4.353a.567.567,0,0,1,.567.567V33a.567.567,0,0,0,.968.4l4.071-4.071a.567.567,0,0,1,.4-.166H183.1a.567.567,0,0,0,.567-.567V8.067A.567.567,0,0,0,183.1,7.5Z" transform="translate(-161.999 -7.5)" fill="#b6e1fd"/>
        </g>
        <g id="Grupo_880458" data-name="Grupo 880458">
          <g id="Grupo_880457" data-name="Grupo 880457">
            <path id="Trazado_633379" data-name="Trazado 633379" d="M165.856,28.6V8.067a.567.567,0,0,1,.567-.567h-3.857a.567.567,0,0,0-.567.567V28.6a.567.567,0,0,0,.567.567h3.857A.567.567,0,0,1,165.856,28.6Z" transform="translate(-161.999 -7.5)" fill="#0082ff"/>
          </g>
        </g>
        <g id="Grupo_880459" data-name="Grupo 880459" transform="translate(9.249 3.573)">
          <path id="Trazado_633380" data-name="Trazado 633380" d="M246.74,97.467h-3.205V89.082h2.956a.249.249,0,0,1,.249.249Z" transform="translate(-243.535 -83.401)" fill="#fff"/>
          <path id="Trazado_633381" data-name="Trazado 633381" d="M246.491,42.205h-2.707a.249.249,0,0,1-.249-.249V39.249a.249.249,0,0,1,.249-.249h2.707a.249.249,0,0,1,.249.249v2.707A.249.249,0,0,1,246.491,42.205Z" transform="translate(-243.535 -39)" fill="#fff"/>
        </g>
      </g>
      <g id="Grupo_880461" data-name="Grupo 880461" transform="translate(65.217 25.85)">
        <path id="Trazado_633382" data-name="Trazado 633382" d="M364.808,236.252h-7.69a.34.34,0,0,1-.34-.34v-7.69a.34.34,0,0,1,.34-.34h7.69a.34.34,0,0,1,.34.34v7.69A.34.34,0,0,1,364.808,236.252Z" transform="translate(-356.777 -227.881)" fill="#b1de19"/>
      </g>
      <g id="Grupo_880462" data-name="Grupo 880462" transform="translate(65.217 25.85)">
        <path id="Trazado_633383" data-name="Trazado 633383" d="M359.638,235.912v-7.69a.34.34,0,0,1,.34-.34h-2.861a.34.34,0,0,0-.34.34v7.69a.34.34,0,0,0,.34.34h2.861A.34.34,0,0,1,359.638,235.912Z" transform="translate(-356.777 -227.881)" fill="#5f914e"/>
      </g>
      <g id="Grupo_880463" data-name="Grupo 880463" transform="translate(46.997 43.946)">
        <path id="Trazado_633384" data-name="Trazado 633384" d="M201.608,393.2H196.5a.34.34,0,0,1-.34-.34V387.75a.34.34,0,0,1,.34-.34h5.105a.34.34,0,0,1,.34.34v5.105A.34.34,0,0,1,201.608,393.2Z" transform="translate(-196.162 -387.41)" fill="#febbac"/>
      </g>
      <g id="Grupo_880464" data-name="Grupo 880464" transform="translate(46.997 43.946)">
        <path id="Trazado_633385" data-name="Trazado 633385" d="M198.639,392.856V387.75a.34.34,0,0,1,.34-.34H196.5a.34.34,0,0,0-.34.34v5.105a.34.34,0,0,0,.34.34h2.477A.34.34,0,0,1,198.639,392.856Z" transform="translate(-196.162 -387.41)" fill="#e44e00"/>
      </g>
      <g id="Grupo_880465" data-name="Grupo 880465" transform="translate(31.552 2.722)">
        <path id="Trazado_633386" data-name="Trazado 633386" d="M64.593,28.933H60.34a.34.34,0,0,1-.34-.34V24.34a.34.34,0,0,1,.34-.34h4.252a.34.34,0,0,1,.34.34v4.252A.34.34,0,0,1,64.593,28.933Z" transform="translate(-60 -24)" fill="#ffe177"/>
      </g>
      <g id="Grupo_880466" data-name="Grupo 880466" transform="translate(31.552 2.722)">
        <path id="Trazado_633387" data-name="Trazado 633387" d="M62.246,28.593V24.34a.34.34,0,0,1,.34-.34H60.34a.34.34,0,0,0-.34.34v4.252a.34.34,0,0,0,.34.34h2.246A.34.34,0,0,1,62.246,28.593Z" transform="translate(-60 -24)" fill="#ffc344"/>
      </g>
      <g id="Grupo_880469" data-name="Grupo 880469" transform="translate(28.763 29.158)">
        <g id="Grupo_880467" data-name="Grupo 880467" transform="translate(0)">
          <path id="Trazado_633388" data-name="Trazado 633388" d="M45.709,257.047H35.752a.34.34,0,0,0-.34.34v16.4a.34.34,0,0,0,.34.34H48.736a.34.34,0,0,0,.34-.34V260.414a.34.34,0,0,0-.1-.241l-3.027-3.027A.34.34,0,0,0,45.709,257.047Z" transform="translate(-35.412 -257.047)" fill="#ffe177"/>
        </g>
        <g id="Grupo_880468" data-name="Grupo 880468" transform="translate(0)">
          <path id="Trazado_633389" data-name="Trazado 633389" d="M39.222,273.787v-16.4a.34.34,0,0,1,.34-.34h-3.81a.34.34,0,0,0-.34.34v16.4a.34.34,0,0,0,.34.34h3.81A.34.34,0,0,1,39.222,273.787Z" transform="translate(-35.412 -257.047)" fill="#ffc344"/>
        </g>
      </g>
      <g id="Grupo_880472" data-name="Grupo 880472" transform="translate(68.418 8.123)">
        <g id="Grupo_880470" data-name="Grupo 880470">
          <path id="Trazado_633390" data-name="Trazado 633390" d="M392.347,71.607h-7.014a.34.34,0,0,0-.34.34V83.531a.34.34,0,0,0,.34.34h9.131a.34.34,0,0,0,.34-.34V74.065a.34.34,0,0,0-.1-.241l-2.117-2.117A.34.34,0,0,0,392.347,71.607Z" transform="translate(-384.993 -71.607)" fill="#d8ecfe"/>
        </g>
        <g id="Grupo_880471" data-name="Grupo 880471" transform="translate(0 0)">
          <path id="Trazado_633391" data-name="Trazado 633391" d="M388.227,83.531V71.947a.34.34,0,0,1,.34-.34h-3.235a.34.34,0,0,0-.34.34V83.531a.34.34,0,0,0,.34.34h3.235A.34.34,0,0,1,388.227,83.531Z" transform="translate(-384.993 -71.607)" fill="#c4e2ff"/>
        </g>
      </g>
      <g id="Grupo_880473" data-name="Grupo 880473" transform="translate(27.912 0)">
        <path id="Trazado_633392" data-name="Trazado 633392" d="M78.868,51.52l-4.03-4.03a.851.851,0,0,0-1.2,1.2l4.03,4.03a1,1,0,0,1,0,1.408l-1.954,1.954a1,1,0,0,1-1.408,0L64.6,46.38l3.362-3.362,2.869,2.869a.851.851,0,0,0,1.2-1.2l-5.507-5.507a2.084,2.084,0,0,0-2.293-.439l-4.988-4.988a16.884,16.884,0,0,0,3.18-9.882c0-.167,0-.334-.008-.5h1.8a1.419,1.419,0,0,0,1.418-1.418v-8a.851.851,0,1,0-1.7,0v7.714H54.049a1.409,1.409,0,0,0-1,.415L49.46,25.669V23.084a1.419,1.419,0,0,0-1.418-1.418H43.973V1.7H63.938V9.982a.851.851,0,1,0,1.7,0V1.418A1.419,1.419,0,0,0,64.221,0H43.689a1.419,1.419,0,0,0-1.418,1.418V7.19A16.977,16.977,0,0,0,29.061,28.31,1.192,1.192,0,0,0,27.912,29.5V45.9A1.192,1.192,0,0,0,29.1,47.09h5.965a.851.851,0,0,0,0-1.7H29.613V30.009h9.235l2.728,2.728V45.388H39.039a.851.851,0,1,0,0,1.7h3.048A1.192,1.192,0,0,0,43.278,45.9V40.706a16.951,16.951,0,0,0,12.051-3.041l4.986,4.986a2.082,2.082,0,0,0,.441,2.294L73.1,57.289a2.7,2.7,0,0,0,3.815,0l1.954-1.954a2.7,2.7,0,0,0,0-3.815Zm-36.6-42.6v2.043a13.283,13.283,0,0,0-9.344,17.34h-2.1A15.278,15.278,0,0,1,42.271,8.925ZM39.9,28.656a1.183,1.183,0,0,0-.842-.349H34.75A11.579,11.579,0,0,1,42.271,12.73v9.22a1.419,1.419,0,0,0,1.418,1.418h4.069v2.986a1.417,1.417,0,0,0,2.42,1l3.988-3.988h2.851c.007.166.012.332.012.5A11.579,11.579,0,0,1,43.278,35.245V32.526a1.183,1.183,0,0,0-.349-.842Zm3.376,10.332V36.974A13.283,13.283,0,0,0,58.731,23.868c0-.167,0-.334-.01-.5h1.993c.006.166.009.332.009.5A15.274,15.274,0,0,1,43.278,38.988ZM56.668,36.6a17.128,17.128,0,0,0,1.509-1.509l4.746,4.746-1.509,1.509Zm5.291,7.145a.381.381,0,0,1,0-.538l2.825-2.825a.381.381,0,0,1,.538,0l1.435,1.435-3.362,3.362Z" transform="translate(-27.912 0)"/>
        <path id="Trazado_633393" data-name="Trazado 633393" d="M239.841,36.407a1.1,1.1,0,0,0,1.1-1.1V32.6a1.1,1.1,0,0,0-1.1-1.1h-2.707a1.1,1.1,0,0,0-1.1,1.1v2.707a1.1,1.1,0,0,0,1.1,1.1ZM237.736,33.2h1.5v1.5h-1.5Z" transform="translate(-212.426 -27.927)"/>
        <path id="Trazado_633394" data-name="Trazado 633394" d="M226.831,89.966a.851.851,0,1,0,0,1.7h5.42a.851.851,0,0,0,0-1.7h-.257V82.681a1.1,1.1,0,0,0-1.1-1.1h-4.1a.851.851,0,0,0,0,1.7h.294v6.684Zm1.958-6.683h1.5v6.683h-1.5Z" transform="translate(-203.479 -72.327)"/>
        <path id="Trazado_633395" data-name="Trazado 633395" d="M350.468,220.381a1.192,1.192,0,0,0-1.191,1.191v7.69a1.192,1.192,0,0,0,1.191,1.191h7.69a1.192,1.192,0,0,0,1.191-1.191v-7.69a1.192,1.192,0,0,0-1.191-1.191Zm7.18,8.371h-6.67v-6.67h6.67Z" transform="translate(-312.823 -195.382)"/>
        <path id="Trazado_633396" data-name="Trazado 633396" d="M194.958,379.911h-5.105a1.192,1.192,0,0,0-1.191,1.191v5.105a1.192,1.192,0,0,0,1.191,1.191h5.105a1.192,1.192,0,0,0,1.191-1.191V381.1A1.192,1.192,0,0,0,194.958,379.911Zm-.51,5.786h-4.084v-4.084h4.084Z" transform="translate(-170.427 -336.816)"/>
        <path id="Trazado_633397" data-name="Trazado 633397" d="M53.691,23.134h4.252a1.192,1.192,0,0,0,1.191-1.191V17.691A1.192,1.192,0,0,0,57.943,16.5H53.691A1.192,1.192,0,0,0,52.5,17.691v4.252A1.192,1.192,0,0,0,53.691,23.134ZM54.2,18.2h3.231v3.231H54.2Z" transform="translate(-49.711 -14.628)"/>
        <path id="Trazado_633398" data-name="Trazado 633398" d="M64.9,360.266h5.466a.851.851,0,1,0,0-1.7H64.9a.851.851,0,1,0,0,1.7Z" transform="translate(-59.951 -317.89)"/>
        <path id="Trazado_633399" data-name="Trazado 633399" d="M64.9,326.536h5.466a.851.851,0,1,0,0-1.7H64.9a.851.851,0,1,0,0,1.7Z" transform="translate(-59.951 -287.987)"/>
        <path id="Trazado_633400" data-name="Trazado 633400" d="M64.9,292.807H68a.851.851,0,1,0,0-1.7H64.9a.851.851,0,1,0,0,1.7Z" transform="translate(-59.951 -258.083)"/>
        <path id="Trazado_633401" data-name="Trazado 633401" d="M378.683,78.072h9.131a1.192,1.192,0,0,0,1.191-1.191V67.414a1.183,1.183,0,0,0-.349-.842l-2.117-2.117a1.184,1.184,0,0,0-.842-.349h-7.014a1.192,1.192,0,0,0-1.191,1.191V76.881A1.193,1.193,0,0,0,378.683,78.072Zm.51-12.264h6.292l1.818,1.818V76.37h-8.11Z" transform="translate(-337.837 -56.834)"/>
        <path id="Trazado_633402" data-name="Trazado 633402" d="M408.217,142.383h-3.924a.851.851,0,0,0,0,1.7h3.924a.851.851,0,1,0,0-1.7Z" transform="translate(-360.844 -126.232)"/>
        <path id="Trazado_633403" data-name="Trazado 633403" d="M408.217,118.165h-3.924a.851.851,0,1,0,0,1.7h3.924a.851.851,0,1,0,0-1.7Z" transform="translate(-360.844 -104.761)"/>
        <path id="Trazado_633404" data-name="Trazado 633404" d="M404.292,95.649h2.224a.851.851,0,1,0,0-1.7h-2.224a.851.851,0,1,0,0,1.7Z" transform="translate(-360.843 -83.29)"/>
      </g>
    </g>
  </g>
</svg>
