<svg xmlns="http://www.w3.org/2000/svg" xmlns:xlink="http://www.w3.org/1999/xlink" width="1258" height="253.119" viewBox="0 0 1258 253.119">
  <defs>
    <filter id="Trazado_583443" x="0" y="0" width="313" height="253.119" filterUnits="userSpaceOnUse">
      <feOffset dy="3" input="SourceAlpha"/>
      <feGaussianBlur stdDeviation="3" result="blur"/>
      <feFlood flood-opacity="0.161"/>
      <feComposite operator="in" in2="blur"/>
      <feComposite in="SourceGraphic"/>
    </filter>
    <clipPath id="clip-path">
      <rect id="Rectángulo_292092" data-name="Rectángulo 292092" width="6.363" height="6.363" fill="#7ab8f6"/>
    </clipPath>
    <clipPath id="clip-path-2">
      <path id="Trazado_517234" data-name="Trazado 517234" d="M52.474,45.143,50.557,47.06l-1.143-1.143L51.331,44,49.31,41.978,50.486,40.8l2.021,2.021,1.918-1.917,1.143,1.143L53.65,43.966l2.022,2.022L54.5,47.165Z" transform="translate(-49.31 -40.802)" fill="#7ab8f6"/>
    </clipPath>
    <filter id="Elipse_6866" x="84.349" y="19" width="146" height="146" filterUnits="userSpaceOnUse">
      <feOffset dy="3" input="SourceAlpha"/>
      <feGaussianBlur stdDeviation="3" result="blur-2"/>
      <feFlood flood-opacity="0.161"/>
      <feComposite operator="in" in2="blur-2"/>
      <feComposite in="SourceGraphic"/>
    </filter>
    <clipPath id="clip-path-3">
      <rect id="Rectángulo_292085" data-name="Rectángulo 292085" width="11.379" height="11.378" fill="#7ab8f6"/>
    </clipPath>
    <clipPath id="clip-path-4">
      <path id="Trazado_517229" data-name="Trazado 517229" d="M54.968,48.565l-3.428,3.428L49.5,49.95l3.428-3.429L49.31,42.906l2.1-2.1,3.615,3.615,3.429-3.428L60.5,43.033,57.072,46.46l3.616,3.616-2.1,2.1Z" transform="translate(-49.31 -40.802)" fill="#7ab8f6"/>
    </clipPath>
    <filter id="Trazado_583444" x="183.657" y="29.45" width="46.692" height="46.692" filterUnits="userSpaceOnUse">
      <feOffset dy="3" input="SourceAlpha"/>
      <feGaussianBlur stdDeviation="3" result="blur-3"/>
      <feFlood flood-opacity="0.161"/>
      <feComposite operator="in" in2="blur-3"/>
      <feComposite in="SourceGraphic"/>
    </filter>
    <filter id="Trazado_583445" x="72.525" y="88.06" width="36.011" height="36.011" filterUnits="userSpaceOnUse">
      <feOffset dy="3" input="SourceAlpha"/>
      <feGaussianBlur stdDeviation="3" result="blur-4"/>
      <feFlood flood-opacity="0.161"/>
      <feComposite operator="in" in2="blur-4"/>
      <feComposite in="SourceGraphic"/>
    </filter>
    <filter id="Trazado_583443-2" x="315" y="0" width="313" height="253.119" filterUnits="userSpaceOnUse">
      <feOffset dy="3" input="SourceAlpha"/>
      <feGaussianBlur stdDeviation="3" result="blur-5"/>
      <feFlood flood-opacity="0.161"/>
      <feComposite operator="in" in2="blur-5"/>
      <feComposite in="SourceGraphic"/>
    </filter>
    <filter id="Elipse_6866-2" x="399.349" y="19" width="146" height="146" filterUnits="userSpaceOnUse">
      <feOffset dy="3" input="SourceAlpha"/>
      <feGaussianBlur stdDeviation="3" result="blur-6"/>
      <feFlood flood-opacity="0.161"/>
      <feComposite operator="in" in2="blur-6"/>
      <feComposite in="SourceGraphic"/>
    </filter>
    <filter id="Trazado_583444-2" x="498.657" y="29.45" width="46.692" height="46.692" filterUnits="userSpaceOnUse">
      <feOffset dy="3" input="SourceAlpha"/>
      <feGaussianBlur stdDeviation="3" result="blur-7"/>
      <feFlood flood-opacity="0.161"/>
      <feComposite operator="in" in2="blur-7"/>
      <feComposite in="SourceGraphic"/>
    </filter>
    <filter id="Trazado_583445-2" x="387.525" y="88.06" width="36.011" height="36.011" filterUnits="userSpaceOnUse">
      <feOffset dy="3" input="SourceAlpha"/>
      <feGaussianBlur stdDeviation="3" result="blur-8"/>
      <feFlood flood-opacity="0.161"/>
      <feComposite operator="in" in2="blur-8"/>
      <feComposite in="SourceGraphic"/>
    </filter>
    <filter id="Trazado_583443-3" x="630" y="0" width="313" height="253.119" filterUnits="userSpaceOnUse">
      <feOffset dy="3" input="SourceAlpha"/>
      <feGaussianBlur stdDeviation="3" result="blur-9"/>
      <feFlood flood-opacity="0.161"/>
      <feComposite operator="in" in2="blur-9"/>
      <feComposite in="SourceGraphic"/>
    </filter>
    <filter id="Elipse_6866-3" x="714.349" y="19" width="146" height="146" filterUnits="userSpaceOnUse">
      <feOffset dy="3" input="SourceAlpha"/>
      <feGaussianBlur stdDeviation="3" result="blur-10"/>
      <feFlood flood-opacity="0.161"/>
      <feComposite operator="in" in2="blur-10"/>
      <feComposite in="SourceGraphic"/>
    </filter>
    <filter id="Trazado_583444-3" x="813.657" y="29.45" width="46.692" height="46.692" filterUnits="userSpaceOnUse">
      <feOffset dy="3" input="SourceAlpha"/>
      <feGaussianBlur stdDeviation="3" result="blur-11"/>
      <feFlood flood-opacity="0.161"/>
      <feComposite operator="in" in2="blur-11"/>
      <feComposite in="SourceGraphic"/>
    </filter>
    <filter id="Trazado_583445-3" x="702.525" y="88.06" width="36.011" height="36.011" filterUnits="userSpaceOnUse">
      <feOffset dy="3" input="SourceAlpha"/>
      <feGaussianBlur stdDeviation="3" result="blur-12"/>
      <feFlood flood-opacity="0.161"/>
      <feComposite operator="in" in2="blur-12"/>
      <feComposite in="SourceGraphic"/>
    </filter>
    <filter id="Trazado_583443-4" x="945" y="0" width="313" height="253.119" filterUnits="userSpaceOnUse">
      <feOffset dy="3" input="SourceAlpha"/>
      <feGaussianBlur stdDeviation="3" result="blur-13"/>
      <feFlood flood-opacity="0.161"/>
      <feComposite operator="in" in2="blur-13"/>
      <feComposite in="SourceGraphic"/>
    </filter>
    <filter id="Elipse_6866-4" x="1029.349" y="19" width="146" height="146" filterUnits="userSpaceOnUse">
      <feOffset dy="3" input="SourceAlpha"/>
      <feGaussianBlur stdDeviation="3" result="blur-14"/>
      <feFlood flood-opacity="0.161"/>
      <feComposite operator="in" in2="blur-14"/>
      <feComposite in="SourceGraphic"/>
    </filter>
    <filter id="Trazado_583444-4" x="1128.657" y="29.45" width="46.692" height="46.692" filterUnits="userSpaceOnUse">
      <feOffset dy="3" input="SourceAlpha"/>
      <feGaussianBlur stdDeviation="3" result="blur-15"/>
      <feFlood flood-opacity="0.161"/>
      <feComposite operator="in" in2="blur-15"/>
      <feComposite in="SourceGraphic"/>
    </filter>
    <filter id="Trazado_583445-4" x="1017.525" y="88.06" width="36.011" height="36.011" filterUnits="userSpaceOnUse">
      <feOffset dy="3" input="SourceAlpha"/>
      <feGaussianBlur stdDeviation="3" result="blur-16"/>
      <feFlood flood-opacity="0.161"/>
      <feComposite operator="in" in2="blur-16"/>
      <feComposite in="SourceGraphic"/>
    </filter>
  </defs>
  <g id="Grupo_1034308" data-name="Grupo 1034308" transform="translate(-171 -5740.302)">
    <g transform="matrix(1, 0, 0, 1, 171, 5740.3)" filter="url(#Trazado_583443)">
      <path id="Trazado_583443-5" data-name="Trazado 583443" d="M18.859,0H276.141C286.556,0,295,5.592,295,12.49V222.629c0,6.9-8.444,12.49-18.859,12.49H18.859C8.444,235.119,0,229.527,0,222.629V12.49C0,5.592,8.444,0,18.859,0Z" transform="translate(9 6)" fill="#fff0d8"/>
    </g>
    <path id="Trazado_634296" data-name="Trazado 634296" d="M49.866,15.321a3.9,3.9,0,0,1-1.815,1.393,7.331,7.331,0,0,1-2.711.461,5.258,5.258,0,0,1-2.777-.734,4.889,4.889,0,0,1-1.876-2.087A7.21,7.21,0,0,1,40,11.217V10.1a6.73,6.73,0,0,1,1.349-4.482,4.7,4.7,0,0,1,3.792-1.591,4.856,4.856,0,0,1,3.226,1.024,4.461,4.461,0,0,1,1.494,2.9H48.179a2.79,2.79,0,0,0-3.023-2.549A2.987,2.987,0,0,0,42.584,6.6a5.82,5.82,0,0,0-.883,3.453V11.1a5.454,5.454,0,0,0,.984,3.426A3.191,3.191,0,0,0,45.349,15.8a5.882,5.882,0,0,0,1.661-.21,2.569,2.569,0,0,0,1.178-.71V12.008H45.226v-1.38h4.641Zm2.127-3.164a5.617,5.617,0,0,1,.549-2.514,4.1,4.1,0,0,1,1.529-1.723,4.163,4.163,0,0,1,2.237-.606,4.01,4.01,0,0,1,3.142,1.345,5.174,5.174,0,0,1,1.2,3.577v.114a5.666,5.666,0,0,1-.532,2.492A4.038,4.038,0,0,1,58.6,16.561a4.211,4.211,0,0,1-2.272.615,4,4,0,0,1-3.133-1.345,5.147,5.147,0,0,1-1.2-3.56Zm1.635.193a4.068,4.068,0,0,0,.734,2.54,2.487,2.487,0,0,0,3.933-.013,4.449,4.449,0,0,0,.729-2.72,4.061,4.061,0,0,0-.743-2.536,2.361,2.361,0,0,0-1.973-.971,2.335,2.335,0,0,0-1.942.958A4.416,4.416,0,0,0,53.628,12.351Zm8.631-.193a5.617,5.617,0,0,1,.549-2.514,4.1,4.1,0,0,1,1.529-1.723,4.163,4.163,0,0,1,2.237-.606,4.01,4.01,0,0,1,3.142,1.345,5.174,5.174,0,0,1,1.2,3.577v.114a5.666,5.666,0,0,1-.532,2.492,4.038,4.038,0,0,1-1.521,1.718,4.211,4.211,0,0,1-2.272.615,4,4,0,0,1-3.133-1.345,5.147,5.147,0,0,1-1.2-3.56Zm1.635.193a4.068,4.068,0,0,0,.734,2.54,2.487,2.487,0,0,0,3.933-.013,4.449,4.449,0,0,0,.729-2.72,4.061,4.061,0,0,0-.743-2.536,2.361,2.361,0,0,0-1.973-.971,2.335,2.335,0,0,0-1.942.958A4.416,4.416,0,0,0,63.893,12.351Zm8.675-.185A5.589,5.589,0,0,1,73.6,8.628a3.545,3.545,0,0,1,5.44-.083l.079-1.055H80.6v9.281a3.869,3.869,0,0,1-1.094,2.909,4.038,4.038,0,0,1-2.94,1.063,4.891,4.891,0,0,1-2.013-.439,3.465,3.465,0,0,1-1.5-1.2l.844-.976a3.18,3.18,0,0,0,2.558,1.292,2.491,2.491,0,0,0,1.85-.668,2.553,2.553,0,0,0,.664-1.881v-.817A3.342,3.342,0,0,1,76.3,17.176a3.248,3.248,0,0,1-2.7-1.345A5.876,5.876,0,0,1,72.568,12.166Zm1.635.185a4.264,4.264,0,0,0,.659,2.527,2.142,2.142,0,0,0,1.846.918,2.382,2.382,0,0,0,2.259-1.4V10.057a2.41,2.41,0,0,0-2.241-1.362,2.161,2.161,0,0,0-1.854.923A4.644,4.644,0,0,0,74.2,12.351ZM84.82,17H83.194V3.5H84.82Zm6.548.176a4.155,4.155,0,0,1-3.146-1.27,4.714,4.714,0,0,1-1.213-3.4v-.3a5.707,5.707,0,0,1,.541-2.527,4.217,4.217,0,0,1,1.512-1.74,3.8,3.8,0,0,1,2.1-.628,3.562,3.562,0,0,1,2.883,1.222,5.289,5.289,0,0,1,1.028,3.5v.677H88.635a3.38,3.38,0,0,0,.822,2.272,2.583,2.583,0,0,0,2,.866,2.832,2.832,0,0,0,1.459-.352,3.666,3.666,0,0,0,1.046-.932l.993.773A3.993,3.993,0,0,1,91.368,17.176Zm-.2-8.525a2.169,2.169,0,0,0-1.652.716,3.482,3.482,0,0,0-.826,2.008h4.764v-.123a3.1,3.1,0,0,0-.668-1.92A2.042,2.042,0,0,0,91.166,8.65Zm13.263,4.315.246,1.688.36-1.521,2.531-8.93h1.424l2.47,8.93.352,1.547.272-1.723L114.07,4.2h1.7l-3.1,12.8h-1.538l-2.637-9.325-.2-.976-.2.976L105.352,17h-1.538L100.72,4.2h1.688Zm16.629,4.21a4.155,4.155,0,0,1-3.146-1.27,4.714,4.714,0,0,1-1.213-3.4v-.3a5.707,5.707,0,0,1,.541-2.527,4.217,4.217,0,0,1,1.512-1.74,3.8,3.8,0,0,1,2.1-.628,3.562,3.562,0,0,1,2.883,1.222,5.289,5.289,0,0,1,1.028,3.5v.677h-6.442a3.38,3.38,0,0,0,.822,2.272,2.583,2.583,0,0,0,2,.866A2.832,2.832,0,0,0,122.6,15.5a3.666,3.666,0,0,0,1.046-.932l.993.773A3.993,3.993,0,0,1,121.058,17.176Zm-.2-8.525a2.169,2.169,0,0,0-1.652.716,3.482,3.482,0,0,0-.826,2.008h4.764v-.123a3.1,3.1,0,0,0-.668-1.92A2.042,2.042,0,0,0,120.855,8.65Zm13.843,3.7a5.654,5.654,0,0,1-1,3.5,3.2,3.2,0,0,1-2.689,1.323,3.315,3.315,0,0,1-2.786-1.274l-.079,1.1h-1.494V3.5h1.626V8.536a3.3,3.3,0,0,1,2.716-1.222,3.221,3.221,0,0,1,2.72,1.31,5.824,5.824,0,0,1,.989,3.586Zm-1.626-.185a4.394,4.394,0,0,0-.642-2.566,2.124,2.124,0,0,0-1.846-.905,2.387,2.387,0,0,0-2.312,1.494V14.3A2.454,2.454,0,0,0,130.6,15.8a2.112,2.112,0,0,0,1.819-.905A4.672,4.672,0,0,0,133.072,12.166Zm9.211,2.312a1.2,1.2,0,0,0-.5-1.024,4.78,4.78,0,0,0-1.731-.628,8.186,8.186,0,0,1-1.96-.633,2.788,2.788,0,0,1-1.072-.879,2.1,2.1,0,0,1-.347-1.213,2.467,2.467,0,0,1,.989-1.978,3.861,3.861,0,0,1,2.527-.809,3.974,3.974,0,0,1,2.624.835,2.652,2.652,0,0,1,1.006,2.136h-1.635a1.468,1.468,0,0,0-.567-1.151,2.124,2.124,0,0,0-1.428-.483,2.223,2.223,0,0,0-1.389.387,1.217,1.217,0,0,0-.5,1.011.986.986,0,0,0,.466.888,5.731,5.731,0,0,0,1.683.571,8.77,8.77,0,0,1,1.973.65,2.878,2.878,0,0,1,1.121.91,2.237,2.237,0,0,1,.365,1.3,2.434,2.434,0,0,1-1.02,2.043,4.277,4.277,0,0,1-2.646.769,4.789,4.789,0,0,1-2.021-.4,3.288,3.288,0,0,1-1.375-1.129,2.722,2.722,0,0,1-.5-1.569h1.626a1.683,1.683,0,0,0,.655,1.3,2.54,2.54,0,0,0,1.613.479,2.622,2.622,0,0,0,1.481-.374A1.148,1.148,0,0,0,142.283,14.478ZM147.794,17h-1.626V7.49h1.626ZM146.036,4.968a.971.971,0,0,1,.242-.668.907.907,0,0,1,.716-.272.922.922,0,0,1,.721.272.96.96,0,0,1,.246.668.929.929,0,0,1-.246.659.938.938,0,0,1-.721.264.924.924,0,0,1-.716-.264A.938.938,0,0,1,146.036,4.968Zm6.565.22v2.3h1.775V8.747H152.6v5.9a1.32,1.32,0,0,0,.237.858,1,1,0,0,0,.809.286,3.937,3.937,0,0,0,.773-.105V17a4.742,4.742,0,0,1-1.248.175,2.025,2.025,0,0,1-1.644-.659,2.832,2.832,0,0,1-.554-1.872v-5.9h-1.731V7.49h1.731v-2.3Zm7.62,11.988a4.155,4.155,0,0,1-3.146-1.27,4.714,4.714,0,0,1-1.213-3.4v-.3a5.707,5.707,0,0,1,.541-2.527,4.217,4.217,0,0,1,1.512-1.74,3.8,3.8,0,0,1,2.1-.628A3.562,3.562,0,0,1,162.9,8.536a5.289,5.289,0,0,1,1.028,3.5v.677h-6.442a3.38,3.38,0,0,0,.822,2.272,2.583,2.583,0,0,0,2,.866,2.832,2.832,0,0,0,1.459-.352,3.666,3.666,0,0,0,1.046-.932l.993.773A3.993,3.993,0,0,1,160.222,17.176Zm-.2-8.525a2.169,2.169,0,0,0-1.652.716,3.482,3.482,0,0,0-.826,2.008H162.3v-.123a3.1,3.1,0,0,0-.668-1.92A2.042,2.042,0,0,0,160.019,8.65ZM74.449,36.015a7.916,7.916,0,0,1-.633,3.283,4.793,4.793,0,0,1-1.793,2.14,4.948,4.948,0,0,1-7.2-2.123,7.6,7.6,0,0,1-.664-3.186v-.923a7.822,7.822,0,0,1,.642-3.261,4.745,4.745,0,0,1,4.5-2.918,4.961,4.961,0,0,1,2.711.743,4.784,4.784,0,0,1,1.806,2.153,7.955,7.955,0,0,1,.633,3.283Zm-1.679-.826a5.738,5.738,0,0,0-.914-3.494A3.015,3.015,0,0,0,69.3,30.478a2.982,2.982,0,0,0-2.518,1.217,5.62,5.62,0,0,0-.945,3.379v.94a5.746,5.746,0,0,0,.927,3.467,3.249,3.249,0,0,0,5.084.07,5.714,5.714,0,0,0,.923-3.415Zm11.988,2.162a5.694,5.694,0,0,1-.993,3.5,3.183,3.183,0,0,1-2.689,1.327,3.488,3.488,0,0,1-2.725-1.1v4.579H76.726V32.49h1.485l.079,1.055a3.35,3.35,0,0,1,2.76-1.23,3.243,3.243,0,0,1,2.711,1.292,5.756,5.756,0,0,1,1,3.595Zm-1.626-.185a4.2,4.2,0,0,0-.686-2.54,2.208,2.208,0,0,0-1.881-.932A2.39,2.39,0,0,0,78.352,35v4.544a2.4,2.4,0,0,0,2.232,1.3,2.2,2.2,0,0,0,1.859-.927A4.587,4.587,0,0,0,83.133,37.166Zm5.9-6.979v2.3h1.775v1.257H89.03v5.9a1.32,1.32,0,0,0,.237.858,1,1,0,0,0,.809.286,3.937,3.937,0,0,0,.773-.105V42a4.742,4.742,0,0,1-1.248.175,2.025,2.025,0,0,1-1.644-.659,2.832,2.832,0,0,1-.554-1.872v-5.9H85.673V32.49H87.4v-2.3ZM94.471,42H92.845V32.49h1.626ZM92.713,29.968a.971.971,0,0,1,.242-.668.907.907,0,0,1,.716-.272.922.922,0,0,1,.721.272.96.96,0,0,1,.246.668.929.929,0,0,1-.246.659.938.938,0,0,1-.721.264.924.924,0,0,1-.716-.264A.938.938,0,0,1,92.713,29.968ZM98.6,32.49l.044,1.055a3.512,3.512,0,0,1,2.821-1.23,2.719,2.719,0,0,1,2.716,1.529,3.6,3.6,0,0,1,1.235-1.107,3.647,3.647,0,0,1,1.8-.422q3.129,0,3.182,3.313V42H108.77V35.725A2.184,2.184,0,0,0,108.3,34.2a2.051,2.051,0,0,0-1.564-.505,2.156,2.156,0,0,0-1.5.541,2.193,2.193,0,0,0-.694,1.455V42h-1.635V35.769a1.814,1.814,0,0,0-2.03-2.074,2.175,2.175,0,0,0-2.188,1.362V42H97.063V32.49ZM114.615,42h-1.626V32.49h1.626Zm-1.758-12.032a.971.971,0,0,1,.242-.668.907.907,0,0,1,.716-.272.922.922,0,0,1,.721.272.96.96,0,0,1,.246.668.929.929,0,0,1-.246.659.938.938,0,0,1-.721.264.924.924,0,0,1-.716-.264A.938.938,0,0,1,112.857,29.968Zm5.889,10.705h5.563V42h-7.55V40.8l5.247-6.97h-5.168V32.49h7.207v1.151Zm11.2,1.5a4.155,4.155,0,0,1-3.146-1.27,4.714,4.714,0,0,1-1.213-3.4v-.3a5.707,5.707,0,0,1,.541-2.527,4.217,4.217,0,0,1,1.512-1.74,3.8,3.8,0,0,1,2.1-.628,3.562,3.562,0,0,1,2.883,1.222,5.289,5.289,0,0,1,1.028,3.5v.677H127.21a3.38,3.38,0,0,0,.822,2.272,2.583,2.583,0,0,0,2,.866,2.832,2.832,0,0,0,1.459-.352,3.666,3.666,0,0,0,1.046-.932l.993.773A3.993,3.993,0,0,1,129.943,42.176Zm-.2-8.525a2.169,2.169,0,0,0-1.652.716,3.482,3.482,0,0,0-.826,2.008h4.764v-.123a3.1,3.1,0,0,0-.668-1.92A2.042,2.042,0,0,0,129.741,33.65Zm10.389.3a4.873,4.873,0,0,0-.8-.062,2.143,2.143,0,0,0-2.171,1.362V42h-1.626V32.49h1.582l.026,1.1a2.532,2.532,0,0,1,2.268-1.274,1.661,1.661,0,0,1,.721.123Z" transform="translate(226 5917.96)" fill="#12263f"/>
    <g id="Grupo_845759" data-name="Grupo 845759" transform="translate(371.443 5875.117)">
      <g id="Grupo_751851" data-name="Grupo 751851" transform="translate(0 0)">
        <g id="Grupo_751850" data-name="Grupo 751850" clip-path="url(#clip-path)">
          <g id="Grupo_751849" data-name="Grupo 751849" transform="translate(0)">
            <g id="Grupo_751848" data-name="Grupo 751848" clip-path="url(#clip-path-2)">
              <rect id="Rectángulo_292091" data-name="Rectángulo 292091" width="6.363" height="6.363" transform="translate(0)" fill="#7ab8f6"/>
            </g>
          </g>
        </g>
      </g>
    </g>
    <g id="Grupo_845761" data-name="Grupo 845761" transform="translate(252.525 5765.302)">
      <g id="Grupo_845760" data-name="Grupo 845760">
        <g transform="matrix(1, 0, 0, 1, -81.53, -25)" filter="url(#Elipse_6866)">
          <circle id="Elipse_6866-5" data-name="Elipse 6866" cx="64" cy="64" r="64" transform="translate(93.35 25)" fill="#c2e0ff"/>
        </g>
        <text id="_01" data-name="01" transform="translate(42.132 85.56)" fill="#12263f" font-size="60" font-family="Roboto-Black, Roboto" font-weight="800"><tspan x="0" y="0">01</tspan></text>
        <g id="Grupo_845758" data-name="Grupo 845758" transform="translate(14.752 8.029)">
          <g id="Grupo_751839" data-name="Grupo 751839">
            <g id="Grupo_751838" data-name="Grupo 751838" clip-path="url(#clip-path-3)">
              <g id="Grupo_751837" data-name="Grupo 751837" transform="translate(0.001)">
                <g id="Grupo_751836" data-name="Grupo 751836" clip-path="url(#clip-path-4)">
                  <rect id="Rectángulo_292084" data-name="Rectángulo 292084" width="11.378" height="11.378" transform="translate(0)" fill="#7ab8f6"/>
                </g>
              </g>
            </g>
          </g>
        </g>
        <g transform="matrix(1, 0, 0, 1, -81.53, -25)" filter="url(#Trazado_583444)">
          <path id="Trazado_583444-5" data-name="Trazado 583444" d="M247.741,98.577A14.346,14.346,0,1,1,233.4,84.231a14.346,14.346,0,0,1,14.346,14.346" transform="translate(-26.39 -48.78)" fill="#7ab8f6"/>
        </g>
        <g transform="matrix(1, 0, 0, 1, -81.53, -25)" filter="url(#Trazado_583445)">
          <path id="Trazado_583445-5" data-name="Trazado 583445" d="M237.06,93.237a9.006,9.006,0,1,1-9.006-9.006,9.005,9.005,0,0,1,9.006,9.006" transform="translate(-137.52 9.83)" fill="#7ab8f6"/>
        </g>
      </g>
    </g>
    <g transform="matrix(1, 0, 0, 1, 171, 5740.3)" filter="url(#Trazado_583443-2)">
      <path id="Trazado_583443-6" data-name="Trazado 583443" d="M18.859,0H276.141C286.556,0,295,5.592,295,12.49V222.629c0,6.9-8.444,12.49-18.859,12.49H18.859C8.444,235.119,0,229.527,0,222.629V12.49C0,5.592,8.444,0,18.859,0Z" transform="translate(324 6)" fill="#fff0d8"/>
    </g>
    <path id="Trazado_634295" data-name="Trazado 634295" d="M12.561,5.583H8.448V17H6.769V5.583h-4.1V4.2h9.9Zm4.72,11.593a4.155,4.155,0,0,1-3.146-1.27,4.714,4.714,0,0,1-1.213-3.4v-.3a5.707,5.707,0,0,1,.541-2.527,4.217,4.217,0,0,1,1.512-1.74,3.8,3.8,0,0,1,2.1-.628,3.562,3.562,0,0,1,2.883,1.222,5.289,5.289,0,0,1,1.028,3.5v.677H14.547a3.38,3.38,0,0,0,.822,2.272,2.583,2.583,0,0,0,2,.866,2.832,2.832,0,0,0,1.459-.352,3.666,3.666,0,0,0,1.046-.932l.993.773A3.993,3.993,0,0,1,17.281,17.176Zm-.2-8.525a2.169,2.169,0,0,0-1.652.716,3.482,3.482,0,0,0-.826,2.008h4.764v-.123a3.1,3.1,0,0,0-.668-1.92A2.042,2.042,0,0,0,17.079,8.65Zm11.329,5.827a1.2,1.2,0,0,0-.5-1.024,4.78,4.78,0,0,0-1.731-.628,8.186,8.186,0,0,1-1.96-.633,2.788,2.788,0,0,1-1.072-.879A2.1,2.1,0,0,1,22.8,10.1a2.467,2.467,0,0,1,.989-1.978,3.861,3.861,0,0,1,2.527-.809,3.974,3.974,0,0,1,2.624.835,2.652,2.652,0,0,1,1.006,2.136H28.311a1.468,1.468,0,0,0-.567-1.151,2.124,2.124,0,0,0-1.428-.483,2.223,2.223,0,0,0-1.389.387,1.217,1.217,0,0,0-.5,1.011.986.986,0,0,0,.466.888,5.731,5.731,0,0,0,1.683.571,8.77,8.77,0,0,1,1.973.65,2.878,2.878,0,0,1,1.121.91,2.237,2.237,0,0,1,.365,1.3,2.434,2.434,0,0,1-1.02,2.043,4.277,4.277,0,0,1-2.646.769,4.789,4.789,0,0,1-2.021-.4,3.288,3.288,0,0,1-1.375-1.129,2.722,2.722,0,0,1-.5-1.569H24.1a1.683,1.683,0,0,0,.655,1.3,2.54,2.54,0,0,0,1.613.479,2.622,2.622,0,0,0,1.481-.374A1.148,1.148,0,0,0,28.408,14.478Zm5.95-9.29v2.3h1.775V8.747H34.358v5.9a1.32,1.32,0,0,0,.237.858,1,1,0,0,0,.809.286,3.937,3.937,0,0,0,.773-.105V17a4.742,4.742,0,0,1-1.248.175,2.025,2.025,0,0,1-1.644-.659,2.832,2.832,0,0,1-.554-1.872v-5.9H31V7.49h1.731v-2.3Zm3.331,8.376a3,3,0,0,1,.514-1.7,7.835,7.835,0,0,1,1.964-1.8A8.483,8.483,0,0,1,39.025,8.4a3,3,0,0,1-.29-1.257A3.017,3.017,0,0,1,39.6,4.854a3.236,3.236,0,0,1,2.338-.826,3.15,3.15,0,0,1,2.18.769,2.487,2.487,0,0,1,.861,1.938,2.735,2.735,0,0,1-.391,1.428,5.082,5.082,0,0,1-1.367,1.375l-.94.694,2.848,3.4a5.4,5.4,0,0,0,.6-2.54H47.19a6.127,6.127,0,0,1-1.081,3.718L47.937,17H45.986l-.853-1.011a4.455,4.455,0,0,1-1.525.883,5.4,5.4,0,0,1-1.78.3,4.4,4.4,0,0,1-3.006-.993A3.313,3.313,0,0,1,37.689,13.563Zm4.14,2.285a3.422,3.422,0,0,0,2.364-.984l-3.12-3.735-.29.211a2.926,2.926,0,0,0-1.468,2.224,2.158,2.158,0,0,0,.672,1.661A2.6,2.6,0,0,0,41.829,15.849ZM40.361,7.086A3.692,3.692,0,0,0,41.4,9.2l1.037-.729a2.76,2.76,0,0,0,.817-.8,1.833,1.833,0,0,0,.22-.927,1.257,1.257,0,0,0-.439-.98,1.6,1.6,0,0,0-1.107-.391,1.433,1.433,0,0,0-1.143.488A1.82,1.82,0,0,0,40.361,7.086Zm17.956-1.5H54.2V17H52.525V5.583h-4.1V4.2h9.9ZM64.838,17a3.416,3.416,0,0,1-.229-1A3.628,3.628,0,0,1,61.9,17.176a3.357,3.357,0,0,1-2.307-.8,2.573,2.573,0,0,1-.9-2.017,2.688,2.688,0,0,1,1.129-2.307A5.325,5.325,0,0,1,63,11.234h1.582v-.747a1.826,1.826,0,0,0-.51-1.358,2.049,2.049,0,0,0-1.5-.505,2.371,2.371,0,0,0-1.459.439,1.3,1.3,0,0,0-.589,1.063H58.888a2.244,2.244,0,0,1,.505-1.375A3.449,3.449,0,0,1,60.765,7.7a4.613,4.613,0,0,1,1.9-.387,3.759,3.759,0,0,1,2.575.822,2.964,2.964,0,0,1,.967,2.263v4.377a5.351,5.351,0,0,0,.334,2.083V17Zm-2.7-1.239a2.858,2.858,0,0,0,1.45-.4,2.392,2.392,0,0,0,.993-1.028V12.386H63.309q-2.988,0-2.988,1.749a1.48,1.48,0,0,0,.51,1.2A1.959,1.959,0,0,0,62.14,15.761ZM73.355,8.949a4.873,4.873,0,0,0-.8-.062,2.143,2.143,0,0,0-2.171,1.362V17H68.758V7.49H70.34l.026,1.1a2.532,2.532,0,0,1,2.268-1.274,1.661,1.661,0,0,1,.721.123Zm.94,3.217a5.589,5.589,0,0,1,1.028-3.538,3.545,3.545,0,0,1,5.44-.083l.079-1.055h1.485v9.281a3.869,3.869,0,0,1-1.094,2.909,4.038,4.038,0,0,1-2.94,1.063,4.891,4.891,0,0,1-2.013-.439,3.465,3.465,0,0,1-1.5-1.2l.844-.976a3.18,3.18,0,0,0,2.558,1.292,2.491,2.491,0,0,0,1.85-.668,2.553,2.553,0,0,0,.664-1.881v-.817a3.342,3.342,0,0,1-2.663,1.125,3.248,3.248,0,0,1-2.7-1.345A5.876,5.876,0,0,1,74.3,12.166Zm1.635.185a4.264,4.264,0,0,0,.659,2.527,2.142,2.142,0,0,0,1.846.918,2.382,2.382,0,0,0,2.259-1.4V10.057a2.41,2.41,0,0,0-2.241-1.362,2.161,2.161,0,0,0-1.854.923A4.644,4.644,0,0,0,75.93,12.351Zm12.8,4.825a4.155,4.155,0,0,1-3.146-1.27,4.714,4.714,0,0,1-1.213-3.4v-.3a5.707,5.707,0,0,1,.541-2.527,4.217,4.217,0,0,1,1.512-1.74,3.8,3.8,0,0,1,2.1-.628,3.562,3.562,0,0,1,2.883,1.222,5.289,5.289,0,0,1,1.028,3.5v.677H85.994a3.38,3.38,0,0,0,.822,2.272,2.583,2.583,0,0,0,2,.866,2.832,2.832,0,0,0,1.459-.352,3.666,3.666,0,0,0,1.046-.932l.993.773A3.993,3.993,0,0,1,88.727,17.176Zm-.2-8.525a2.169,2.169,0,0,0-1.652.716,3.482,3.482,0,0,0-.826,2.008H90.81v-.123a3.1,3.1,0,0,0-.668-1.92A2.042,2.042,0,0,0,88.525,8.65Zm8-3.463v2.3H98.3V8.747H96.523v5.9a1.32,1.32,0,0,0,.237.858,1,1,0,0,0,.809.286,3.937,3.937,0,0,0,.773-.105V17a4.742,4.742,0,0,1-1.248.175,2.025,2.025,0,0,1-1.644-.659,2.832,2.832,0,0,1-.554-1.872v-5.9H93.165V7.49H94.9v-2.3Zm7.734,6.979a5.571,5.571,0,0,1,1.037-3.52,3.529,3.529,0,0,1,5.361-.189V3.5h1.626V17h-1.494l-.079-1.02a3.311,3.311,0,0,1-2.716,1.2,3.248,3.248,0,0,1-2.694-1.354,5.634,5.634,0,0,1-1.042-3.533Zm1.626.185a4.218,4.218,0,0,0,.668,2.531,2.159,2.159,0,0,0,1.846.914,2.372,2.372,0,0,0,2.259-1.389V10.039a2.39,2.39,0,0,0-2.241-1.345,2.17,2.17,0,0,0-1.863.923A4.644,4.644,0,0,0,105.883,12.351Zm12.867,4.825a4.155,4.155,0,0,1-3.146-1.27,4.714,4.714,0,0,1-1.213-3.4v-.3a5.707,5.707,0,0,1,.541-2.527,4.217,4.217,0,0,1,1.512-1.74,3.8,3.8,0,0,1,2.1-.628,3.562,3.562,0,0,1,2.883,1.222,5.289,5.289,0,0,1,1.028,3.5v.677h-6.442a3.38,3.38,0,0,0,.822,2.272,2.583,2.583,0,0,0,2,.866A2.832,2.832,0,0,0,120.3,15.5a3.666,3.666,0,0,0,1.046-.932l.993.773A3.993,3.993,0,0,1,118.75,17.176Zm-.2-8.525a2.169,2.169,0,0,0-1.652.716,3.482,3.482,0,0,0-.826,2.008h4.764v-.123a3.1,3.1,0,0,0-.668-1.92A2.042,2.042,0,0,0,118.548,8.65Zm20.347,2.364a7.916,7.916,0,0,1-.633,3.283,4.793,4.793,0,0,1-1.793,2.14,4.948,4.948,0,0,1-7.2-2.123,7.6,7.6,0,0,1-.664-3.186v-.923a7.822,7.822,0,0,1,.642-3.261,4.745,4.745,0,0,1,4.5-2.918,4.961,4.961,0,0,1,2.711.743,4.784,4.784,0,0,1,1.806,2.153,7.955,7.955,0,0,1,.633,3.283Zm-1.679-.826a5.738,5.738,0,0,0-.914-3.494,3.015,3.015,0,0,0-2.558-1.217,2.982,2.982,0,0,0-2.518,1.217,5.62,5.62,0,0,0-.945,3.379v.94a5.746,5.746,0,0,0,.927,3.467,3.249,3.249,0,0,0,5.084.07,5.714,5.714,0,0,0,.923-3.415Zm5.484-2.7.044,1.055a3.512,3.512,0,0,1,2.821-1.23,2.719,2.719,0,0,1,2.716,1.529,3.6,3.6,0,0,1,1.235-1.107,3.647,3.647,0,0,1,1.8-.422q3.129,0,3.182,3.313V17H152.87V10.725A2.184,2.184,0,0,0,152.4,9.2a2.051,2.051,0,0,0-1.564-.505,2.156,2.156,0,0,0-1.5.541,2.193,2.193,0,0,0-.694,1.455V17h-1.635V10.769a1.814,1.814,0,0,0-2.03-2.074,2.175,2.175,0,0,0-2.188,1.362V17h-1.626V7.49Zm15.785,0,.053,1.2a3.465,3.465,0,0,1,2.848-1.371q3.015,0,3.041,3.4V17H162.8V10.707a2.189,2.189,0,0,0-.47-1.521,1.884,1.884,0,0,0-1.437-.492,2.347,2.347,0,0,0-1.389.422,2.865,2.865,0,0,0-.932,1.107V17h-1.626V7.49ZM168.646,17H167.02V7.49h1.626ZM166.888,4.968a.971.971,0,0,1,.242-.668.907.907,0,0,1,.716-.272.922.922,0,0,1,.721.272.96.96,0,0,1,.246.668.929.929,0,0,1-.246.659.938.938,0,0,1-.721.264.924.924,0,0,1-.716-.264A.938.938,0,0,1,166.888,4.968Zm6.565.22v2.3h1.775V8.747h-1.775v5.9a1.32,1.32,0,0,0,.237.858,1,1,0,0,0,.809.286,3.937,3.937,0,0,0,.773-.105V17a4.742,4.742,0,0,1-1.248.175,2.025,2.025,0,0,1-1.644-.659,2.832,2.832,0,0,1-.554-1.872v-5.9H170.1V7.49h1.731v-2.3ZM183,16.06a3.454,3.454,0,0,1-2.786,1.116,2.956,2.956,0,0,1-2.316-.883,3.823,3.823,0,0,1-.8-2.615V7.49h1.626v6.144q0,2.162,1.758,2.162a2.434,2.434,0,0,0,2.479-1.389V7.49h1.626V17h-1.547Zm8.648-7.11a4.873,4.873,0,0,0-.8-.062,2.143,2.143,0,0,0-2.171,1.362V17H187.05V7.49h1.582l.026,1.1a2.532,2.532,0,0,1,2.268-1.274,1.661,1.661,0,0,1,.721.123Zm5.273,8.227a4.155,4.155,0,0,1-3.146-1.27,4.714,4.714,0,0,1-1.213-3.4v-.3a5.707,5.707,0,0,1,.541-2.527,4.217,4.217,0,0,1,1.512-1.74,3.8,3.8,0,0,1,2.1-.628A3.562,3.562,0,0,1,199.6,8.536a5.289,5.289,0,0,1,1.028,3.5v.677h-6.442a3.38,3.38,0,0,0,.822,2.272,2.583,2.583,0,0,0,2,.866,2.832,2.832,0,0,0,1.459-.352,3.666,3.666,0,0,0,1.046-.932l.993.773A3.993,3.993,0,0,1,196.92,17.176Zm-.2-8.525a2.169,2.169,0,0,0-1.652.716,3.482,3.482,0,0,0-.826,2.008H199v-.123a3.1,3.1,0,0,0-.668-1.92A2.042,2.042,0,0,0,196.718,8.65Z" transform="translate(541 5917.96)" fill="#12263f"/>
    <g id="Grupo_845759-2" data-name="Grupo 845759" transform="translate(686.443 5875.117)">
      <g id="Grupo_751851-2" data-name="Grupo 751851" transform="translate(0 0)">
        <g id="Grupo_751850-2" data-name="Grupo 751850" clip-path="url(#clip-path)">
          <g id="Grupo_751849-2" data-name="Grupo 751849" transform="translate(0)">
            <g id="Grupo_751848-2" data-name="Grupo 751848" clip-path="url(#clip-path-2)">
              <rect id="Rectángulo_292091-2" data-name="Rectángulo 292091" width="6.363" height="6.363" transform="translate(0)" fill="#7ab8f6"/>
            </g>
          </g>
        </g>
      </g>
    </g>
    <g id="Grupo_845761-2" data-name="Grupo 845761" transform="translate(567.525 5765.302)">
      <g id="Grupo_845760-2" data-name="Grupo 845760">
        <g transform="matrix(1, 0, 0, 1, -396.53, -25)" filter="url(#Elipse_6866-2)">
          <circle id="Elipse_6866-6" data-name="Elipse 6866" cx="64" cy="64" r="64" transform="translate(408.35 25)" fill="#c2e0ff"/>
        </g>
        <text id="_02" data-name="02" transform="translate(42.132 85.56)" fill="#12263f" font-size="60" font-family="Roboto-Black, Roboto" font-weight="800"><tspan x="0" y="0">02</tspan></text>
        <g id="Grupo_845758-2" data-name="Grupo 845758" transform="translate(14.752 8.029)">
          <g id="Grupo_751839-2" data-name="Grupo 751839">
            <g id="Grupo_751838-2" data-name="Grupo 751838" clip-path="url(#clip-path-3)">
              <g id="Grupo_751837-2" data-name="Grupo 751837" transform="translate(0.001)">
                <g id="Grupo_751836-2" data-name="Grupo 751836" clip-path="url(#clip-path-4)">
                  <rect id="Rectángulo_292084-2" data-name="Rectángulo 292084" width="11.378" height="11.378" transform="translate(0)" fill="#7ab8f6"/>
                </g>
              </g>
            </g>
          </g>
        </g>
        <g transform="matrix(1, 0, 0, 1, -396.53, -25)" filter="url(#Trazado_583444-2)">
          <path id="Trazado_583444-6" data-name="Trazado 583444" d="M247.741,98.577A14.346,14.346,0,1,1,233.4,84.231a14.346,14.346,0,0,1,14.346,14.346" transform="translate(288.61 -48.78)" fill="#7ab8f6"/>
        </g>
        <g transform="matrix(1, 0, 0, 1, -396.53, -25)" filter="url(#Trazado_583445-2)">
          <path id="Trazado_583445-6" data-name="Trazado 583445" d="M237.06,93.237a9.006,9.006,0,1,1-9.006-9.006,9.005,9.005,0,0,1,9.006,9.006" transform="translate(177.48 9.83)" fill="#7ab8f6"/>
        </g>
      </g>
    </g>
    <g transform="matrix(1, 0, 0, 1, 171, 5740.3)" filter="url(#Trazado_583443-3)">
      <path id="Trazado_583443-7" data-name="Trazado 583443" d="M18.859,0H276.141C286.556,0,295,5.592,295,12.49V222.629c0,6.9-8.444,12.49-18.859,12.49H18.859C8.444,235.119,0,229.527,0,222.629V12.49C0,5.592,8.444,0,18.859,0Z" transform="translate(639 6)" fill="#fff0d8"/>
    </g>
    <path id="Trazado_634294" data-name="Trazado 634294" d="M20.81,11.015a7.916,7.916,0,0,1-.633,3.283,4.793,4.793,0,0,1-1.793,2.14,4.933,4.933,0,0,1-2.707.738,4.774,4.774,0,0,1-4.5-2.861,7.6,7.6,0,0,1-.664-3.186v-.923a7.822,7.822,0,0,1,.642-3.261,4.745,4.745,0,0,1,4.5-2.918,4.961,4.961,0,0,1,2.711.743,4.784,4.784,0,0,1,1.806,2.153,7.955,7.955,0,0,1,.633,3.283Zm-1.679-.826a5.738,5.738,0,0,0-.914-3.494,3.015,3.015,0,0,0-2.558-1.217,2.982,2.982,0,0,0-2.518,1.217,5.62,5.62,0,0,0-.945,3.379v.94a5.746,5.746,0,0,0,.927,3.467,3,3,0,0,0,2.553,1.261,2.983,2.983,0,0,0,2.531-1.191,5.714,5.714,0,0,0,.923-3.415Zm11.988,2.162a5.694,5.694,0,0,1-.993,3.5,3.183,3.183,0,0,1-2.689,1.327,3.488,3.488,0,0,1-2.725-1.1v4.579H23.086V7.49h1.485l.079,1.055a3.35,3.35,0,0,1,2.76-1.23,3.243,3.243,0,0,1,2.711,1.292,5.756,5.756,0,0,1,1,3.595Zm-1.626-.185a4.2,4.2,0,0,0-.686-2.54,2.208,2.208,0,0,0-1.881-.932A2.39,2.39,0,0,0,24.712,10v4.544a2.4,2.4,0,0,0,2.232,1.3,2.2,2.2,0,0,0,1.859-.927A4.587,4.587,0,0,0,29.493,12.166Zm5.9-6.979v2.3h1.775V8.747H35.391v5.9a1.32,1.32,0,0,0,.237.858,1,1,0,0,0,.809.286,3.937,3.937,0,0,0,.773-.105V17a4.742,4.742,0,0,1-1.248.175,2.025,2.025,0,0,1-1.644-.659,2.832,2.832,0,0,1-.554-1.872v-5.9H32.033V7.49h1.731v-2.3ZM40.831,17H39.205V7.49h1.626ZM39.073,4.968a.971.971,0,0,1,.242-.668.907.907,0,0,1,.716-.272.922.922,0,0,1,.721.272A.96.96,0,0,1,41,4.968a.929.929,0,0,1-.246.659.938.938,0,0,1-.721.264.924.924,0,0,1-.716-.264A.938.938,0,0,1,39.073,4.968ZM44.962,7.49l.044,1.055a3.512,3.512,0,0,1,2.821-1.23,2.719,2.719,0,0,1,2.716,1.529,3.6,3.6,0,0,1,1.235-1.107,3.647,3.647,0,0,1,1.8-.422q3.129,0,3.182,3.313V17H55.131V10.725A2.184,2.184,0,0,0,54.665,9.2,2.051,2.051,0,0,0,53.1,8.694a2.156,2.156,0,0,0-1.5.541,2.193,2.193,0,0,0-.694,1.455V17H49.268V10.769a1.814,1.814,0,0,0-2.03-2.074,2.175,2.175,0,0,0-2.188,1.362V17H43.424V7.49Zm13.816,4.667a5.617,5.617,0,0,1,.549-2.514,4.1,4.1,0,0,1,1.529-1.723,4.163,4.163,0,0,1,2.237-.606,4.01,4.01,0,0,1,3.142,1.345,5.174,5.174,0,0,1,1.2,3.577v.114a5.666,5.666,0,0,1-.532,2.492,4.038,4.038,0,0,1-1.521,1.718,4.211,4.211,0,0,1-2.272.615,4,4,0,0,1-3.133-1.345,5.147,5.147,0,0,1-1.2-3.56Zm1.635.193a4.068,4.068,0,0,0,.734,2.54,2.487,2.487,0,0,0,3.933-.013,4.449,4.449,0,0,0,.729-2.72,4.061,4.061,0,0,0-.743-2.536,2.361,2.361,0,0,0-1.973-.971,2.335,2.335,0,0,0-1.942.958A4.416,4.416,0,0,0,60.413,12.351Zm14.6,2.127a1.2,1.2,0,0,0-.5-1.024,4.78,4.78,0,0,0-1.731-.628,8.186,8.186,0,0,1-1.96-.633,2.788,2.788,0,0,1-1.072-.879A2.1,2.1,0,0,1,69.4,10.1a2.467,2.467,0,0,1,.989-1.978,3.861,3.861,0,0,1,2.527-.809,3.974,3.974,0,0,1,2.624.835,2.652,2.652,0,0,1,1.006,2.136H74.915a1.468,1.468,0,0,0-.567-1.151A2.124,2.124,0,0,0,72.92,8.65a2.223,2.223,0,0,0-1.389.387,1.217,1.217,0,0,0-.5,1.011.986.986,0,0,0,.466.888,5.731,5.731,0,0,0,1.683.571,8.77,8.77,0,0,1,1.973.65,2.878,2.878,0,0,1,1.121.91,2.237,2.237,0,0,1,.365,1.3,2.434,2.434,0,0,1-1.02,2.043,4.277,4.277,0,0,1-2.646.769,4.789,4.789,0,0,1-2.021-.4,3.288,3.288,0,0,1-1.375-1.129,2.722,2.722,0,0,1-.5-1.569h1.626a1.683,1.683,0,0,0,.655,1.3,2.54,2.54,0,0,0,1.613.479,2.622,2.622,0,0,0,1.481-.374A1.148,1.148,0,0,0,75.012,14.478Zm5.95-9.29v2.3h1.775V8.747H80.962v5.9a1.32,1.32,0,0,0,.237.858,1,1,0,0,0,.809.286,3.937,3.937,0,0,0,.773-.105V17a4.742,4.742,0,0,1-1.248.175,2.025,2.025,0,0,1-1.644-.659,2.832,2.832,0,0,1-.554-1.872v-5.9H77.6V7.49h1.731v-2.3ZM88.7,12.166a5.571,5.571,0,0,1,1.037-3.52,3.529,3.529,0,0,1,5.361-.189V3.5h1.626V17H95.227l-.079-1.02a3.311,3.311,0,0,1-2.716,1.2,3.248,3.248,0,0,1-2.694-1.354A5.634,5.634,0,0,1,88.7,12.289Zm1.626.185a4.218,4.218,0,0,0,.668,2.531,2.159,2.159,0,0,0,1.846.914,2.372,2.372,0,0,0,2.259-1.389V10.039a2.39,2.39,0,0,0-2.241-1.345,2.17,2.17,0,0,0-1.863.923A4.644,4.644,0,0,0,90.322,12.351Zm12.867,4.825a4.155,4.155,0,0,1-3.146-1.27,4.714,4.714,0,0,1-1.213-3.4v-.3a5.707,5.707,0,0,1,.541-2.527,4.217,4.217,0,0,1,1.512-1.74,3.8,3.8,0,0,1,2.1-.628,3.562,3.562,0,0,1,2.883,1.222,5.289,5.289,0,0,1,1.028,3.5v.677h-6.442a3.38,3.38,0,0,0,.822,2.272,2.583,2.583,0,0,0,2,.866,2.832,2.832,0,0,0,1.459-.352,3.666,3.666,0,0,0,1.046-.932l.993.773A3.993,3.993,0,0,1,103.189,17.176Zm-.2-8.525a2.169,2.169,0,0,0-1.652.716,3.482,3.482,0,0,0-.826,2.008h4.764v-.123a3.1,3.1,0,0,0-.668-1.92A2.042,2.042,0,0,0,102.987,8.65Zm17.569,5H115.2L113.991,17h-1.74l4.887-12.8h1.477l4.9,12.8h-1.731Zm-4.852-1.38h4.351l-2.18-5.985Zm15.047,3.788a3.454,3.454,0,0,1-2.786,1.116,2.956,2.956,0,0,1-2.316-.883,3.823,3.823,0,0,1-.8-2.615V7.49h1.626v6.144q0,2.162,1.758,2.162a2.434,2.434,0,0,0,2.479-1.389V7.49h1.626V17h-1.547ZM137.01,5.188v2.3h1.775V8.747H137.01v5.9a1.32,1.32,0,0,0,.237.858,1,1,0,0,0,.809.286,3.937,3.937,0,0,0,.773-.105V17a4.742,4.742,0,0,1-1.248.175,2.025,2.025,0,0,1-1.644-.659,2.832,2.832,0,0,1-.554-1.872v-5.9h-1.731V7.49h1.731v-2.3Zm3.067,6.97a5.617,5.617,0,0,1,.549-2.514,4.1,4.1,0,0,1,1.529-1.723,4.163,4.163,0,0,1,2.237-.606,4.01,4.01,0,0,1,3.142,1.345,5.174,5.174,0,0,1,1.2,3.577v.114a5.666,5.666,0,0,1-.532,2.492,4.038,4.038,0,0,1-1.521,1.718,4.211,4.211,0,0,1-2.272.615,4,4,0,0,1-3.133-1.345,5.147,5.147,0,0,1-1.2-3.56Zm1.635.193a4.068,4.068,0,0,0,.734,2.54,2.487,2.487,0,0,0,3.933-.013,4.449,4.449,0,0,0,.729-2.72,4.061,4.061,0,0,0-.743-2.536,2.361,2.361,0,0,0-1.973-.971,2.335,2.335,0,0,0-1.942.958A4.416,4.416,0,0,0,141.712,12.351Zm10.6-4.86.053,1.2a3.465,3.465,0,0,1,2.848-1.371q3.015,0,3.041,3.4V17h-1.626V10.707a2.189,2.189,0,0,0-.47-1.521,1.884,1.884,0,0,0-1.437-.492,2.347,2.347,0,0,0-1.389.422,2.865,2.865,0,0,0-.932,1.107V17h-1.626V7.49Zm7.963,4.667a5.617,5.617,0,0,1,.549-2.514,4.1,4.1,0,0,1,1.529-1.723,4.163,4.163,0,0,1,2.237-.606,4.01,4.01,0,0,1,3.142,1.345,5.174,5.174,0,0,1,1.2,3.577v.114a5.666,5.666,0,0,1-.532,2.492,4.038,4.038,0,0,1-1.521,1.718,4.211,4.211,0,0,1-2.272.615,4,4,0,0,1-3.133-1.345,5.147,5.147,0,0,1-1.2-3.56Zm1.635.193a4.068,4.068,0,0,0,.734,2.54,2.487,2.487,0,0,0,3.933-.013,4.449,4.449,0,0,0,.729-2.72,4.061,4.061,0,0,0-.743-2.536,2.361,2.361,0,0,0-1.973-.971,2.335,2.335,0,0,0-1.942.958A4.416,4.416,0,0,0,161.909,12.351ZM172.5,7.49l.044,1.055a3.512,3.512,0,0,1,2.821-1.23,2.719,2.719,0,0,1,2.716,1.529,3.6,3.6,0,0,1,1.235-1.107,3.647,3.647,0,0,1,1.8-.422q3.129,0,3.182,3.313V17h-1.626V10.725A2.184,2.184,0,0,0,182.2,9.2a2.051,2.051,0,0,0-1.564-.505,2.156,2.156,0,0,0-1.5.541,2.193,2.193,0,0,0-.694,1.455V17h-1.635V10.769a1.814,1.814,0,0,0-2.03-2.074,2.175,2.175,0,0,0-2.188,1.362V17h-1.626V7.49Zm17.358,7.128,2.215-7.128h1.74L189.99,18.468q-.888,2.373-2.821,2.373l-.308-.026-.606-.114V19.382l.439.035a2.164,2.164,0,0,0,1.288-.334,2.417,2.417,0,0,0,.76-1.222l.36-.967-3.393-9.4h1.775Z" transform="translate(856 5917.96)" fill="#12263f"/>
    <g id="Grupo_845759-3" data-name="Grupo 845759" transform="translate(1001.443 5875.117)">
      <g id="Grupo_751851-3" data-name="Grupo 751851" transform="translate(0 0)">
        <g id="Grupo_751850-3" data-name="Grupo 751850" clip-path="url(#clip-path)">
          <g id="Grupo_751849-3" data-name="Grupo 751849" transform="translate(0)">
            <g id="Grupo_751848-3" data-name="Grupo 751848" clip-path="url(#clip-path-2)">
              <rect id="Rectángulo_292091-3" data-name="Rectángulo 292091" width="6.363" height="6.363" transform="translate(0)" fill="#7ab8f6"/>
            </g>
          </g>
        </g>
      </g>
    </g>
    <g id="Grupo_845761-3" data-name="Grupo 845761" transform="translate(882.525 5765.302)">
      <g id="Grupo_845760-3" data-name="Grupo 845760">
        <g transform="matrix(1, 0, 0, 1, -711.53, -25)" filter="url(#Elipse_6866-3)">
          <circle id="Elipse_6866-7" data-name="Elipse 6866" cx="64" cy="64" r="64" transform="translate(723.35 25)" fill="#c2e0ff"/>
        </g>
        <text id="_03" data-name="03" transform="translate(42.132 85.56)" fill="#12263f" font-size="60" font-family="Roboto-Black, Roboto" font-weight="800"><tspan x="0" y="0">03</tspan></text>
        <g id="Grupo_845758-3" data-name="Grupo 845758" transform="translate(14.752 8.029)">
          <g id="Grupo_751839-3" data-name="Grupo 751839">
            <g id="Grupo_751838-3" data-name="Grupo 751838" clip-path="url(#clip-path-3)">
              <g id="Grupo_751837-3" data-name="Grupo 751837" transform="translate(0.001)">
                <g id="Grupo_751836-3" data-name="Grupo 751836" clip-path="url(#clip-path-4)">
                  <rect id="Rectángulo_292084-3" data-name="Rectángulo 292084" width="11.378" height="11.378" transform="translate(0)" fill="#7ab8f6"/>
                </g>
              </g>
            </g>
          </g>
        </g>
        <g transform="matrix(1, 0, 0, 1, -711.53, -25)" filter="url(#Trazado_583444-3)">
          <path id="Trazado_583444-7" data-name="Trazado 583444" d="M247.741,98.577A14.346,14.346,0,1,1,233.4,84.231a14.346,14.346,0,0,1,14.346,14.346" transform="translate(603.61 -48.78)" fill="#7ab8f6"/>
        </g>
        <g transform="matrix(1, 0, 0, 1, -711.53, -25)" filter="url(#Trazado_583445-3)">
          <path id="Trazado_583445-7" data-name="Trazado 583445" d="M237.06,93.237a9.006,9.006,0,1,1-9.006-9.006,9.005,9.005,0,0,1,9.006,9.006" transform="translate(492.48 9.83)" fill="#7ab8f6"/>
        </g>
      </g>
    </g>
    <g transform="matrix(1, 0, 0, 1, 171, 5740.3)" filter="url(#Trazado_583443-4)">
      <path id="Trazado_583443-8" data-name="Trazado 583443" d="M18.859,0H276.141C286.556,0,295,5.592,295,12.49V222.629c0,6.9-8.444,12.49-18.859,12.49H18.859C8.444,235.119,0,229.527,0,222.629V12.49C0,5.592,8.444,0,18.859,0Z" transform="translate(954 6)" fill="#fff0d8"/>
    </g>
    <path id="Trazado_634293" data-name="Trazado 634293" d="M68.974,11.3a7.935,7.935,0,0,1-3.16-1.534,2.93,2.93,0,0,1-.989-2.246,3.1,3.1,0,0,1,1.208-2.5,4.8,4.8,0,0,1,3.142-.989,5.243,5.243,0,0,1,2.351.51,3.866,3.866,0,0,1,1.6,1.406,3.6,3.6,0,0,1,.567,1.96H72a2.34,2.34,0,0,0-.738-1.83,3,3,0,0,0-2.083-.666,3.074,3.074,0,0,0-1.947.55,1.836,1.836,0,0,0-.7,1.528,1.652,1.652,0,0,0,.664,1.325,6.509,6.509,0,0,0,2.259.991,10.481,10.481,0,0,1,2.5.99,3.788,3.788,0,0,1,1.336,1.261,3.219,3.219,0,0,1,.435,1.7,2.99,2.99,0,0,1-1.213,2.492,5.171,5.171,0,0,1-3.243.936A6.015,6.015,0,0,1,66.8,16.67a4.142,4.142,0,0,1-1.762-1.384,3.378,3.378,0,0,1-.62-2h1.7a2.2,2.2,0,0,0,.857,1.833,3.608,3.608,0,0,0,2.29.672,3.317,3.317,0,0,0,2.048-.545,1.77,1.77,0,0,0,.712-1.485,1.738,1.738,0,0,0-.659-1.455A7.6,7.6,0,0,0,68.974,11.3Zm8.42,5.7H75.768V7.49h1.626ZM75.636,4.968a.971.971,0,0,1,.242-.668.907.907,0,0,1,.716-.272.922.922,0,0,1,.721.272.96.96,0,0,1,.246.668.929.929,0,0,1-.246.659.938.938,0,0,1-.721.264.924.924,0,0,1-.716-.264A.938.938,0,0,1,75.636,4.968Zm6.565.22v2.3h1.775V8.747H82.2v5.9a1.32,1.32,0,0,0,.237.858,1,1,0,0,0,.809.286,3.937,3.937,0,0,0,.773-.105V17a4.742,4.742,0,0,1-1.248.175,2.025,2.025,0,0,1-1.644-.659,2.832,2.832,0,0,1-.554-1.872v-5.9H78.844V7.49h1.731v-2.3Zm7.62,11.988a4.155,4.155,0,0,1-3.146-1.27,4.714,4.714,0,0,1-1.213-3.4v-.3A5.707,5.707,0,0,1,86,9.683a4.217,4.217,0,0,1,1.512-1.74,3.8,3.8,0,0,1,2.1-.628A3.562,3.562,0,0,1,92.5,8.536a5.289,5.289,0,0,1,1.028,3.5v.677H87.088a3.38,3.38,0,0,0,.822,2.272,2.583,2.583,0,0,0,2,.866,2.832,2.832,0,0,0,1.459-.352,3.666,3.666,0,0,0,1.046-.932l.993.773A3.993,3.993,0,0,1,89.821,17.176Zm-.2-8.525a2.169,2.169,0,0,0-1.652.716,3.482,3.482,0,0,0-.826,2.008H91.9v-.123a3.1,3.1,0,0,0-.668-1.92A2.042,2.042,0,0,0,89.619,8.65ZM99.436,11.3a7.935,7.935,0,0,1-3.16-1.534,2.93,2.93,0,0,1-.989-2.246,3.1,3.1,0,0,1,1.208-2.5,4.8,4.8,0,0,1,3.142-.989,5.243,5.243,0,0,1,2.351.51,3.866,3.866,0,0,1,1.6,1.406,3.6,3.6,0,0,1,.567,1.96h-1.7a2.34,2.34,0,0,0-.738-1.83,3,3,0,0,0-2.083-.666,3.074,3.074,0,0,0-1.947.55,1.836,1.836,0,0,0-.7,1.528,1.652,1.652,0,0,0,.664,1.325,6.509,6.509,0,0,0,2.259.991,10.481,10.481,0,0,1,2.5.99,3.788,3.788,0,0,1,1.336,1.261,3.219,3.219,0,0,1,.435,1.7,2.99,2.99,0,0,1-1.213,2.492,5.171,5.171,0,0,1-3.243.936,6.015,6.015,0,0,1-2.461-.505A4.142,4.142,0,0,1,95.5,15.286a3.378,3.378,0,0,1-.62-2h1.7a2.2,2.2,0,0,0,.857,1.833,3.608,3.608,0,0,0,2.29.672,3.317,3.317,0,0,0,2.048-.545,1.77,1.77,0,0,0,.712-1.485,1.738,1.738,0,0,0-.659-1.455A7.6,7.6,0,0,0,99.436,11.3Zm14.687,1.055a5.694,5.694,0,0,1-.993,3.5,3.183,3.183,0,0,1-2.689,1.327,3.488,3.488,0,0,1-2.725-1.1v4.579H106.09V7.49h1.485l.079,1.055a3.35,3.35,0,0,1,2.76-1.23,3.243,3.243,0,0,1,2.711,1.292,5.756,5.756,0,0,1,1,3.595Zm-1.626-.185a4.2,4.2,0,0,0-.686-2.54,2.208,2.208,0,0,0-1.881-.932A2.39,2.39,0,0,0,107.716,10v4.544a2.4,2.4,0,0,0,2.232,1.3,2.2,2.2,0,0,0,1.859-.927A4.587,4.587,0,0,0,112.5,12.166Zm7.638,5.01a4.155,4.155,0,0,1-3.146-1.27,4.714,4.714,0,0,1-1.213-3.4v-.3a5.707,5.707,0,0,1,.541-2.527,4.217,4.217,0,0,1,1.512-1.74,3.8,3.8,0,0,1,2.1-.628,3.562,3.562,0,0,1,2.883,1.222,5.289,5.289,0,0,1,1.028,3.5v.677H117.4a3.38,3.38,0,0,0,.822,2.272,2.583,2.583,0,0,0,2,.866,2.832,2.832,0,0,0,1.459-.352,3.666,3.666,0,0,0,1.046-.932l.993.773A3.993,3.993,0,0,1,120.135,17.176Zm-.2-8.525a2.169,2.169,0,0,0-1.652.716,3.482,3.482,0,0,0-.826,2.008h4.764v-.123a3.1,3.1,0,0,0-.668-1.92A2.042,2.042,0,0,0,119.933,8.65Zm9.606,7.2a2.342,2.342,0,0,0,1.521-.527A1.855,1.855,0,0,0,131.78,14h1.538a2.949,2.949,0,0,1-.562,1.556,3.7,3.7,0,0,1-1.384,1.178,3.994,3.994,0,0,1-1.833.439,3.918,3.918,0,0,1-3.089-1.3,5.163,5.163,0,0,1-1.147-3.546v-.272a5.725,5.725,0,0,1,.51-2.47,3.883,3.883,0,0,1,1.463-1.679,4.157,4.157,0,0,1,2.254-.6,3.814,3.814,0,0,1,2.659.958,3.424,3.424,0,0,1,1.129,2.487H131.78a2.241,2.241,0,0,0-.7-1.516,2.174,2.174,0,0,0-1.551-.593,2.276,2.276,0,0,0-1.92.892,4.19,4.19,0,0,0-.681,2.58v.308a4.106,4.106,0,0,0,.677,2.531A2.287,2.287,0,0,0,129.539,15.849Zm7.813-10.661v2.3h1.775V8.747h-1.775v5.9a1.32,1.32,0,0,0,.237.858,1,1,0,0,0,.809.286,3.937,3.937,0,0,0,.773-.105V17a4.742,4.742,0,0,1-1.248.175,2.025,2.025,0,0,1-1.644-.659,2.832,2.832,0,0,1-.554-1.872v-5.9H134V7.49h1.731v-2.3Z" transform="translate(1171 5917.96)" fill="#12263f"/>
    <g id="Grupo_845759-4" data-name="Grupo 845759" transform="translate(1316.443 5875.117)">
      <g id="Grupo_751851-4" data-name="Grupo 751851" transform="translate(0 0)">
        <g id="Grupo_751850-4" data-name="Grupo 751850" clip-path="url(#clip-path)">
          <g id="Grupo_751849-4" data-name="Grupo 751849" transform="translate(0)">
            <g id="Grupo_751848-4" data-name="Grupo 751848" clip-path="url(#clip-path-2)">
              <rect id="Rectángulo_292091-4" data-name="Rectángulo 292091" width="6.363" height="6.363" transform="translate(0)" fill="#7ab8f6"/>
            </g>
          </g>
        </g>
      </g>
    </g>
    <g id="Grupo_845761-4" data-name="Grupo 845761" transform="translate(1197.525 5765.302)">
      <g id="Grupo_845760-4" data-name="Grupo 845760">
        <g transform="matrix(1, 0, 0, 1, -1026.53, -25)" filter="url(#Elipse_6866-4)">
          <circle id="Elipse_6866-8" data-name="Elipse 6866" cx="64" cy="64" r="64" transform="translate(1038.35 25)" fill="#c2e0ff"/>
        </g>
        <text id="_04" data-name="04" transform="translate(42.132 85.56)" fill="#12263f" font-size="60" font-family="Roboto-Black, Roboto" font-weight="800"><tspan x="0" y="0">04</tspan></text>
        <g id="Grupo_845758-4" data-name="Grupo 845758" transform="translate(14.752 8.029)">
          <g id="Grupo_751839-4" data-name="Grupo 751839">
            <g id="Grupo_751838-4" data-name="Grupo 751838" clip-path="url(#clip-path-3)">
              <g id="Grupo_751837-4" data-name="Grupo 751837" transform="translate(0.001)">
                <g id="Grupo_751836-4" data-name="Grupo 751836" clip-path="url(#clip-path-4)">
                  <rect id="Rectángulo_292084-4" data-name="Rectángulo 292084" width="11.378" height="11.378" transform="translate(0)" fill="#7ab8f6"/>
                </g>
              </g>
            </g>
          </g>
        </g>
        <g transform="matrix(1, 0, 0, 1, -1026.53, -25)" filter="url(#Trazado_583444-4)">
          <path id="Trazado_583444-8" data-name="Trazado 583444" d="M247.741,98.577A14.346,14.346,0,1,1,233.4,84.231a14.346,14.346,0,0,1,14.346,14.346" transform="translate(918.61 -48.78)" fill="#7ab8f6"/>
        </g>
        <g transform="matrix(1, 0, 0, 1, -1026.53, -25)" filter="url(#Trazado_583445-4)">
          <path id="Trazado_583445-8" data-name="Trazado 583445" d="M237.06,93.237a9.006,9.006,0,1,1-9.006-9.006,9.005,9.005,0,0,1,9.006,9.006" transform="translate(807.48 9.83)" fill="#7ab8f6"/>
        </g>
      </g>
    </g>
  </g>
</svg>
