<svg xmlns="http://www.w3.org/2000/svg" xmlns:xlink="http://www.w3.org/1999/xlink" width="781" height="197" viewBox="0 0 781 197">
  <defs>
    <filter id="Trazado_634273" x="193" y="0" width="203" height="197" filterUnits="userSpaceOnUse">
      <feOffset dy="3" input="SourceAlpha"/>
      <feGaussianBlur stdDeviation="3" result="blur"/>
      <feFlood flood-opacity="0.161"/>
      <feComposite operator="in" in2="blur"/>
      <feComposite in="SourceGraphic"/>
    </filter>
    <filter id="Trazado_634270" x="385" y="0" width="203" height="197" filterUnits="userSpaceOnUse">
      <feOffset dy="3" input="SourceAlpha"/>
      <feGaussianBlur stdDeviation="3" result="blur-2"/>
      <feFlood flood-opacity="0.161"/>
      <feComposite operator="in" in2="blur-2"/>
      <feComposite in="SourceGraphic"/>
    </filter>
    <filter id="Trazado_634269" x="578" y="0" width="203" height="197" filterUnits="userSpaceOnUse">
      <feOffset dy="3" input="SourceAlpha"/>
      <feGaussianBlur stdDeviation="3" result="blur-3"/>
      <feFlood flood-opacity="0.161"/>
      <feComposite operator="in" in2="blur-3"/>
      <feComposite in="SourceGraphic"/>
    </filter>
    <filter id="Trazado_634275" x="0" y="0" width="203" height="197" filterUnits="userSpaceOnUse">
      <feOffset dy="3" input="SourceAlpha"/>
      <feGaussianBlur stdDeviation="3" result="blur-4"/>
      <feFlood flood-opacity="0.161"/>
      <feComposite operator="in" in2="blur-4"/>
      <feComposite in="SourceGraphic"/>
    </filter>
  </defs>
  <g id="Grupo_1034306" data-name="Grupo 1034306" transform="translate(-606 -6329.465)">
    <g transform="matrix(1, 0, 0, 1, 606, 6329.46)" filter="url(#Trazado_634273)">
      <path id="Trazado_634273-2" data-name="Trazado 634273" d="M13,0H172a13,13,0,0,1,13,13V166a13,13,0,0,1-13,13H13A13,13,0,0,1,0,166V13A13,13,0,0,1,13,0Z" transform="translate(202 6)" fill="#fff"/>
    </g>
    <g transform="matrix(1, 0, 0, 1, 606, 6329.46)" filter="url(#Trazado_634270)">
      <path id="Trazado_634270-2" data-name="Trazado 634270" d="M13,0H172a13,13,0,0,1,13,13V166a13,13,0,0,1-13,13H13A13,13,0,0,1,0,166V13A13,13,0,0,1,13,0Z" transform="translate(394 6)" fill="#fff"/>
    </g>
    <g transform="matrix(1, 0, 0, 1, 606, 6329.46)" filter="url(#Trazado_634269)">
      <path id="Trazado_634269-2" data-name="Trazado 634269" d="M13,0H172a13,13,0,0,1,13,13V166a13,13,0,0,1-13,13H13A13,13,0,0,1,0,166V13A13,13,0,0,1,13,0Z" transform="translate(587 6)" fill="#fff"/>
    </g>
    <path id="Trazado_634271" data-name="Trazado 634271" d="M35.223,10.547V15h-1.5V3.625h4.2a4.215,4.215,0,0,1,2.926.953A3.231,3.231,0,0,1,41.9,7.1a3.189,3.189,0,0,1-1.035,2.551,4.4,4.4,0,0,1-2.965.895Zm0-1.227h2.7a2.7,2.7,0,0,0,1.844-.567,2.075,2.075,0,0,0,.641-1.64,2.143,2.143,0,0,0-.641-1.628A2.525,2.525,0,0,0,38,4.852H35.223ZM47.676,7.844a4.331,4.331,0,0,0-.711-.055A1.9,1.9,0,0,0,45.035,9v6H43.59V6.547H45l.023.977a2.251,2.251,0,0,1,2.016-1.133,1.477,1.477,0,0,1,.641.109Zm6.547,6.32a3.07,3.07,0,0,1-2.477.992,2.628,2.628,0,0,1-2.059-.785,3.4,3.4,0,0,1-.715-2.324v-5.5h1.445v5.461q0,1.922,1.563,1.922a2.163,2.163,0,0,0,2.2-1.234V6.547h1.445V15H54.254Zm7.109.992a3.693,3.693,0,0,1-2.8-1.129,4.19,4.19,0,0,1-1.078-3.02v-.266a5.073,5.073,0,0,1,.48-2.246,3.748,3.748,0,0,1,1.344-1.547,3.378,3.378,0,0,1,1.871-.559,3.166,3.166,0,0,1,2.563,1.086,4.7,4.7,0,0,1,.914,3.109v.6H58.9a3,3,0,0,0,.73,2.02,2.3,2.3,0,0,0,1.777.77,2.517,2.517,0,0,0,1.3-.312,3.259,3.259,0,0,0,.93-.828l.883.688A3.55,3.55,0,0,1,61.332,15.156Zm-.18-7.578a1.928,1.928,0,0,0-1.469.637A3.1,3.1,0,0,0,58.949,10h4.234V9.891a2.753,2.753,0,0,0-.594-1.707A1.815,1.815,0,0,0,61.152,7.578Zm12.3,3.289a5.026,5.026,0,0,1-.891,3.113,2.846,2.846,0,0,1-2.391,1.176A2.947,2.947,0,0,1,67.7,14.023l-.07.977H66.3V3h1.445V7.477A2.93,2.93,0,0,1,70.16,6.391a2.863,2.863,0,0,1,2.418,1.164,5.177,5.177,0,0,1,.879,3.188ZM72.012,10.7a3.906,3.906,0,0,0-.57-2.281,1.888,1.888,0,0,0-1.641-.8,2.122,2.122,0,0,0-2.055,1.328V12.6a2.181,2.181,0,0,0,2.07,1.328,1.878,1.878,0,0,0,1.617-.8A4.153,4.153,0,0,0,72.012,10.7ZM80.5,15a3.036,3.036,0,0,1-.2-.891,3.225,3.225,0,0,1-2.406,1.047,2.984,2.984,0,0,1-2.051-.707,2.288,2.288,0,0,1-.8-1.793,2.39,2.39,0,0,1,1-2.051,4.733,4.733,0,0,1,2.824-.73H80.27V9.211A1.623,1.623,0,0,0,79.816,8a1.821,1.821,0,0,0-1.336-.449,2.108,2.108,0,0,0-1.3.391,1.151,1.151,0,0,0-.523.945H75.207a2,2,0,0,1,.449-1.223,3.066,3.066,0,0,1,1.219-.934,4.1,4.1,0,0,1,1.691-.344,3.342,3.342,0,0,1,2.289.73,2.635,2.635,0,0,1,.859,2.012v3.891a4.757,4.757,0,0,0,.3,1.852V15Zm-2.4-1.1a2.54,2.54,0,0,0,1.289-.352,2.127,2.127,0,0,0,.883-.914V10.9H79.137q-2.656,0-2.656,1.555a1.316,1.316,0,0,0,.453,1.063A1.742,1.742,0,0,0,78.1,13.9Zm10.8-1.141a1.064,1.064,0,0,0-.441-.91,4.249,4.249,0,0,0-1.539-.559,7.277,7.277,0,0,1-1.742-.562,2.479,2.479,0,0,1-.953-.781,1.869,1.869,0,0,1-.309-1.078A2.193,2.193,0,0,1,84.8,7.109a3.432,3.432,0,0,1,2.246-.719,3.532,3.532,0,0,1,2.332.742,2.357,2.357,0,0,1,.895,1.9H88.816a1.3,1.3,0,0,0-.5-1.023,1.888,1.888,0,0,0-1.27-.43,1.976,1.976,0,0,0-1.234.344,1.082,1.082,0,0,0-.445.9.877.877,0,0,0,.414.789,5.1,5.1,0,0,0,1.5.508,7.8,7.8,0,0,1,1.754.578,2.558,2.558,0,0,1,1,.809,1.988,1.988,0,0,1,.324,1.152,2.163,2.163,0,0,1-.906,1.816,3.8,3.8,0,0,1-2.352.684,4.257,4.257,0,0,1-1.8-.359,2.922,2.922,0,0,1-1.223-1,2.42,2.42,0,0,1-.441-1.395h1.445a1.5,1.5,0,0,0,.582,1.152,2.258,2.258,0,0,0,1.434.426,2.331,2.331,0,0,0,1.316-.332A1.02,1.02,0,0,0,88.9,12.758ZM95.84,10.7a4.952,4.952,0,0,1,.922-3.129,3.137,3.137,0,0,1,4.766-.168V3h1.445V15h-1.328l-.07-.906a2.943,2.943,0,0,1-2.414,1.063,2.887,2.887,0,0,1-2.395-1.2,5.008,5.008,0,0,1-.926-3.141Zm1.445.164a3.749,3.749,0,0,0,.594,2.25,1.92,1.92,0,0,0,1.641.813,2.108,2.108,0,0,0,2.008-1.234V8.813a2.125,2.125,0,0,0-1.992-1.2,1.929,1.929,0,0,0-1.656.82A4.128,4.128,0,0,0,97.285,10.867Zm11.438,4.289a3.693,3.693,0,0,1-2.8-1.129,4.19,4.19,0,0,1-1.078-3.02v-.266a5.073,5.073,0,0,1,.48-2.246,3.748,3.748,0,0,1,1.344-1.547,3.378,3.378,0,0,1,1.871-.559,3.166,3.166,0,0,1,2.563,1.086,4.7,4.7,0,0,1,.914,3.109v.6h-5.727a3,3,0,0,0,.73,2.02,2.3,2.3,0,0,0,1.777.77,2.517,2.517,0,0,0,1.3-.312,3.259,3.259,0,0,0,.93-.828l.883.688A3.55,3.55,0,0,1,108.723,15.156Zm-.18-7.578a1.928,1.928,0,0,0-1.469.637A3.1,3.1,0,0,0,106.34,10h4.234V9.891a2.753,2.753,0,0,0-.594-1.707A1.815,1.815,0,0,0,108.543,7.578ZM10.723,37.164a3.07,3.07,0,0,1-2.477.992,2.628,2.628,0,0,1-2.059-.785,3.4,3.4,0,0,1-.715-2.324v-5.5H6.918v5.461q0,1.922,1.563,1.922a2.163,2.163,0,0,0,2.2-1.234V29.547h1.445V38H10.754Zm8.523-1.406a1.064,1.064,0,0,0-.441-.91,4.249,4.249,0,0,0-1.539-.559,7.277,7.277,0,0,1-1.742-.562,2.479,2.479,0,0,1-.953-.781,1.869,1.869,0,0,1-.309-1.078,2.193,2.193,0,0,1,.879-1.758,3.432,3.432,0,0,1,2.246-.719,3.532,3.532,0,0,1,2.332.742,2.357,2.357,0,0,1,.895,1.9H19.16a1.3,1.3,0,0,0-.5-1.023,1.888,1.888,0,0,0-1.27-.43,1.976,1.976,0,0,0-1.234.344,1.082,1.082,0,0,0-.445.9.877.877,0,0,0,.414.789,5.1,5.1,0,0,0,1.5.508,7.8,7.8,0,0,1,1.754.578,2.558,2.558,0,0,1,1,.809,1.988,1.988,0,0,1,.324,1.152,2.163,2.163,0,0,1-.906,1.816,3.8,3.8,0,0,1-2.352.684,4.257,4.257,0,0,1-1.8-.359,2.922,2.922,0,0,1-1.223-1,2.42,2.42,0,0,1-.441-1.395h1.445A1.5,1.5,0,0,0,16,36.551a2.258,2.258,0,0,0,1.434.426,2.331,2.331,0,0,0,1.316-.332A1.02,1.02,0,0,0,19.246,35.758ZM27.793,38a3.036,3.036,0,0,1-.2-.891,3.225,3.225,0,0,1-2.406,1.047,2.984,2.984,0,0,1-2.051-.707,2.287,2.287,0,0,1-.8-1.793,2.39,2.39,0,0,1,1-2.051,4.733,4.733,0,0,1,2.824-.73h1.406v-.664A1.623,1.623,0,0,0,27.113,31a1.821,1.821,0,0,0-1.336-.449,2.108,2.108,0,0,0-1.3.391,1.151,1.151,0,0,0-.523.945H22.5a2,2,0,0,1,.449-1.223,3.066,3.066,0,0,1,1.219-.934,4.1,4.1,0,0,1,1.691-.344,3.342,3.342,0,0,1,2.289.73,2.635,2.635,0,0,1,.859,2.012v3.891a4.757,4.757,0,0,0,.3,1.852V38Zm-2.4-1.1a2.54,2.54,0,0,0,1.289-.352,2.127,2.127,0,0,0,.883-.914V33.9H26.434q-2.656,0-2.656,1.555a1.316,1.316,0,0,0,.453,1.063A1.742,1.742,0,0,0,25.395,36.9Zm13.039-3.031a5.026,5.026,0,0,1-.891,3.113,2.846,2.846,0,0,1-2.391,1.176,2.947,2.947,0,0,1-2.477-1.133l-.07.977H31.277V26h1.445v4.477a2.93,2.93,0,0,1,2.414-1.086,2.863,2.863,0,0,1,2.418,1.164,5.177,5.177,0,0,1,.879,3.188ZM36.988,33.7a3.906,3.906,0,0,0-.57-2.281,1.888,1.888,0,0,0-1.641-.8,2.122,2.122,0,0,0-2.055,1.328V35.6a2.181,2.181,0,0,0,2.07,1.328,1.878,1.878,0,0,0,1.617-.8A4.153,4.153,0,0,0,36.988,33.7ZM41.824,38H40.379V29.547h1.445ZM40.262,27.3a.863.863,0,0,1,.215-.594.807.807,0,0,1,.637-.242.819.819,0,0,1,.641.242.854.854,0,0,1,.219.594.826.826,0,0,1-.219.586.834.834,0,0,1-.641.234.821.821,0,0,1-.637-.234A.834.834,0,0,1,40.262,27.3ZM45.707,38H44.262V26h1.445Zm3.883,0H48.145V29.547H49.59ZM48.027,27.3a.863.863,0,0,1,.215-.594.807.807,0,0,1,.637-.242.819.819,0,0,1,.641.242.854.854,0,0,1,.219.594.826.826,0,0,1-.219.586.834.834,0,0,1-.641.234.821.821,0,0,1-.637-.234A.834.834,0,0,1,48.027,27.3Zm3.523,6.4a4.952,4.952,0,0,1,.922-3.129,3.137,3.137,0,0,1,4.766-.168V26h1.445V38H57.355l-.07-.906a2.943,2.943,0,0,1-2.414,1.063,2.887,2.887,0,0,1-2.395-1.2,5.008,5.008,0,0,1-.926-3.141ZM53,33.867a3.749,3.749,0,0,0,.594,2.25,1.919,1.919,0,0,0,1.641.813A2.108,2.108,0,0,0,57.238,35.7V31.813a2.125,2.125,0,0,0-1.992-1.2,1.929,1.929,0,0,0-1.656.82A4.128,4.128,0,0,0,53,33.867ZM66.145,38a3.036,3.036,0,0,1-.2-.891,3.225,3.225,0,0,1-2.406,1.047,2.984,2.984,0,0,1-2.051-.707,2.287,2.287,0,0,1-.8-1.793,2.39,2.39,0,0,1,1-2.051,4.733,4.733,0,0,1,2.824-.73h1.406v-.664A1.623,1.623,0,0,0,65.465,31a1.821,1.821,0,0,0-1.336-.449,2.107,2.107,0,0,0-1.3.391,1.151,1.151,0,0,0-.523.945H60.855a2,2,0,0,1,.449-1.223,3.066,3.066,0,0,1,1.219-.934,4.1,4.1,0,0,1,1.691-.344,3.342,3.342,0,0,1,2.289.73,2.635,2.635,0,0,1,.859,2.012v3.891a4.757,4.757,0,0,0,.3,1.852V38Zm-2.4-1.1a2.54,2.54,0,0,0,1.289-.352,2.127,2.127,0,0,0,.883-.914V33.9H64.785q-2.656,0-2.656,1.555a1.316,1.316,0,0,0,.453,1.063A1.742,1.742,0,0,0,63.746,36.9Zm5.531-3.2a4.952,4.952,0,0,1,.922-3.129,3.137,3.137,0,0,1,4.766-.168V26H76.41V38H75.082l-.07-.906A2.943,2.943,0,0,1,72.6,38.156a2.887,2.887,0,0,1-2.395-1.2,5.008,5.008,0,0,1-.926-3.141Zm1.445.164a3.749,3.749,0,0,0,.594,2.25,1.92,1.92,0,0,0,1.641.813A2.108,2.108,0,0,0,74.965,35.7V31.813a2.125,2.125,0,0,0-1.992-1.2,1.929,1.929,0,0,0-1.656.82A4.128,4.128,0,0,0,70.723,33.867ZM86.7,30.844a4.331,4.331,0,0,0-.711-.055A1.9,1.9,0,0,0,84.059,32v6H82.613V29.547H84.02l.023.977a2.251,2.251,0,0,1,2.016-1.133,1.477,1.477,0,0,1,.641.109Zm4.688,7.313a3.693,3.693,0,0,1-2.8-1.129,4.19,4.19,0,0,1-1.078-3.02v-.266a5.073,5.073,0,0,1,.48-2.246,3.748,3.748,0,0,1,1.344-1.547,3.378,3.378,0,0,1,1.871-.559,3.166,3.166,0,0,1,2.563,1.086,4.7,4.7,0,0,1,.914,3.109v.6H88.957a3,3,0,0,0,.73,2.02,2.3,2.3,0,0,0,1.777.77,2.517,2.517,0,0,0,1.3-.312,3.259,3.259,0,0,0,.93-.828l.883.688A3.55,3.55,0,0,1,91.387,38.156Zm-.18-7.578a1.928,1.928,0,0,0-1.469.637A3.1,3.1,0,0,0,89,33h4.234v-.109a2.753,2.753,0,0,0-.594-1.707A1.815,1.815,0,0,0,91.207,30.578Zm6.508-1.031.039.938a3.122,3.122,0,0,1,2.508-1.094,2.417,2.417,0,0,1,2.414,1.359,3.2,3.2,0,0,1,1.1-.984,3.242,3.242,0,0,1,1.6-.375q2.781,0,2.828,2.945V38h-1.445V32.422a1.941,1.941,0,0,0-.414-1.355,1.823,1.823,0,0,0-1.391-.449,1.916,1.916,0,0,0-1.336.48A1.949,1.949,0,0,0,103,32.391V38h-1.453V32.461a1.613,1.613,0,0,0-1.8-1.844,1.934,1.934,0,0,0-1.945,1.211V38H96.348V29.547ZM110,33.7a4.993,4.993,0,0,1,.488-2.234,3.643,3.643,0,0,1,1.359-1.531,3.7,3.7,0,0,1,1.988-.539,3.565,3.565,0,0,1,2.793,1.2,4.6,4.6,0,0,1,1.066,3.18v.1a5.036,5.036,0,0,1-.473,2.215,3.589,3.589,0,0,1-1.352,1.527,3.743,3.743,0,0,1-2.02.547,3.556,3.556,0,0,1-2.785-1.2A4.575,4.575,0,0,1,110,33.8Zm1.453.172a3.616,3.616,0,0,0,.652,2.258,2.211,2.211,0,0,0,3.5-.012,3.955,3.955,0,0,0,.648-2.418,3.61,3.61,0,0,0-.66-2.254,2.1,2.1,0,0,0-1.754-.863,2.075,2.075,0,0,0-1.727.852A3.925,3.925,0,0,0,111.449,33.867ZM121.465,27.5v2.047h1.578v1.117h-1.578v5.249a1.173,1.173,0,0,0,.211.763.888.888,0,0,0,.719.254,3.5,3.5,0,0,0,.688-.094V38a4.215,4.215,0,0,1-1.109.155,1.8,1.8,0,0,1-1.461-.586,2.517,2.517,0,0,1-.492-1.664V30.664H118.48V29.547h1.539V27.5ZM129.949,38a3.036,3.036,0,0,1-.2-.891,3.225,3.225,0,0,1-2.406,1.047,2.984,2.984,0,0,1-2.051-.707,2.288,2.288,0,0,1-.8-1.793,2.39,2.39,0,0,1,1-2.051,4.733,4.733,0,0,1,2.824-.73h1.406v-.664A1.623,1.623,0,0,0,129.27,31a1.821,1.821,0,0,0-1.336-.449,2.108,2.108,0,0,0-1.3.391,1.151,1.151,0,0,0-.523.945H124.66a2,2,0,0,1,.449-1.223,3.066,3.066,0,0,1,1.219-.934,4.1,4.1,0,0,1,1.691-.344,3.342,3.342,0,0,1,2.289.73,2.635,2.635,0,0,1,.859,2.012v3.891a4.757,4.757,0,0,0,.3,1.852V38Zm-2.4-1.1a2.54,2.54,0,0,0,1.289-.352,2.127,2.127,0,0,0,.883-.914V33.9H128.59q-2.656,0-2.656,1.555a1.316,1.316,0,0,0,.453,1.063A1.742,1.742,0,0,0,127.551,36.9Zm10.8-1.141a1.064,1.064,0,0,0-.441-.91,4.249,4.249,0,0,0-1.539-.559,7.277,7.277,0,0,1-1.742-.562,2.479,2.479,0,0,1-.953-.781,1.869,1.869,0,0,1-.309-1.078,2.193,2.193,0,0,1,.879-1.758,3.432,3.432,0,0,1,2.246-.719,3.532,3.532,0,0,1,2.332.742,2.357,2.357,0,0,1,.895,1.9H138.27a1.3,1.3,0,0,0-.5-1.023,1.888,1.888,0,0,0-1.27-.43,1.976,1.976,0,0,0-1.234.344,1.082,1.082,0,0,0-.445.9.877.877,0,0,0,.414.789,5.1,5.1,0,0,0,1.5.508,7.8,7.8,0,0,1,1.754.578,2.558,2.558,0,0,1,1,.809,1.988,1.988,0,0,1,.324,1.152,2.163,2.163,0,0,1-.906,1.816,3.8,3.8,0,0,1-2.352.684,4.257,4.257,0,0,1-1.8-.359,2.922,2.922,0,0,1-1.223-1,2.42,2.42,0,0,1-.441-1.395h1.445a1.5,1.5,0,0,0,.582,1.152,2.258,2.258,0,0,0,1.434.426,2.331,2.331,0,0,0,1.316-.332A1.02,1.02,0,0,0,138.355,35.758Z" transform="translate(1020 6454.309)" fill="#12263f"/>
    <path id="Trazado_634272" data-name="Trazado 634272" d="M47.617,4.852H43.961V15H42.469V4.852H38.82V3.625h8.8Zm4.2,10.3a3.693,3.693,0,0,1-2.8-1.129,4.19,4.19,0,0,1-1.078-3.02v-.266a5.073,5.073,0,0,1,.48-2.246,3.748,3.748,0,0,1,1.344-1.547,3.378,3.378,0,0,1,1.871-.559A3.166,3.166,0,0,1,54.2,7.477a4.7,4.7,0,0,1,.914,3.109v.6H49.383a3,3,0,0,0,.73,2.02,2.3,2.3,0,0,0,1.777.77,2.517,2.517,0,0,0,1.3-.312,3.259,3.259,0,0,0,.93-.828l.883.688A3.55,3.55,0,0,1,51.813,15.156Zm-.18-7.578a1.928,1.928,0,0,0-1.469.637A3.1,3.1,0,0,0,49.43,10h4.234V9.891a2.753,2.753,0,0,0-.594-1.707A1.815,1.815,0,0,0,51.633,7.578ZM52.336,3h1.75L51.992,5.3l-1.164,0Zm7.836,10.977a2.082,2.082,0,0,0,1.352-.469,1.649,1.649,0,0,0,.641-1.172h1.367a2.621,2.621,0,0,1-.5,1.383,3.293,3.293,0,0,1-1.23,1.047,3.55,3.55,0,0,1-1.629.391A3.482,3.482,0,0,1,57.426,14a4.59,4.59,0,0,1-1.02-3.152v-.242a5.089,5.089,0,0,1,.453-2.2,3.451,3.451,0,0,1,1.3-1.492,3.7,3.7,0,0,1,2-.531,3.39,3.39,0,0,1,2.363.852,3.043,3.043,0,0,1,1,2.211H62.164a1.992,1.992,0,0,0-.621-1.348,1.932,1.932,0,0,0-1.379-.527,2.023,2.023,0,0,0-1.707.793,3.724,3.724,0,0,0-.605,2.293v.273a3.65,3.65,0,0,0,.6,2.25A2.033,2.033,0,0,0,60.172,13.977Zm6.352-7.43.047,1.063A3.08,3.08,0,0,1,69.1,6.391q2.68,0,2.7,3.023V15H70.359V9.406a1.946,1.946,0,0,0-.418-1.352,1.675,1.675,0,0,0-1.277-.437,2.086,2.086,0,0,0-1.234.375,2.546,2.546,0,0,0-.828.984V15H65.156V6.547ZM75.555,15H74.109V6.547h1.445ZM73.992,4.3a.863.863,0,0,1,.215-.594.807.807,0,0,1,.637-.242.819.819,0,0,1,.641.242A.854.854,0,0,1,75.7,4.3a.826.826,0,0,1-.219.586.834.834,0,0,1-.641.234.821.821,0,0,1-.637-.234A.834.834,0,0,1,73.992,4.3Zm7.266,9.672a2.082,2.082,0,0,0,1.352-.469,1.649,1.649,0,0,0,.641-1.172h1.367a2.621,2.621,0,0,1-.5,1.383,3.293,3.293,0,0,1-1.23,1.047,3.55,3.55,0,0,1-1.629.391A3.482,3.482,0,0,1,78.512,14a4.59,4.59,0,0,1-1.02-3.152v-.242a5.089,5.089,0,0,1,.453-2.2,3.451,3.451,0,0,1,1.3-1.492,3.7,3.7,0,0,1,2-.531,3.39,3.39,0,0,1,2.363.852,3.043,3.043,0,0,1,1,2.211H83.25a1.992,1.992,0,0,0-.621-1.348,1.932,1.932,0,0,0-1.379-.527,2.023,2.023,0,0,0-1.707.793,3.724,3.724,0,0,0-.605,2.293v.273a3.65,3.65,0,0,0,.6,2.25A2.033,2.033,0,0,0,81.258,13.977ZM91.461,15a3.036,3.036,0,0,1-.2-.891,3.225,3.225,0,0,1-2.406,1.047,2.984,2.984,0,0,1-2.051-.707,2.288,2.288,0,0,1-.8-1.793,2.39,2.39,0,0,1,1-2.051,4.733,4.733,0,0,1,2.824-.73h1.406V9.211A1.623,1.623,0,0,0,90.781,8a1.821,1.821,0,0,0-1.336-.449,2.108,2.108,0,0,0-1.3.391,1.151,1.151,0,0,0-.523.945H86.172a2,2,0,0,1,.449-1.223,3.066,3.066,0,0,1,1.219-.934,4.1,4.1,0,0,1,1.691-.344,3.342,3.342,0,0,1,2.289.73,2.635,2.635,0,0,1,.859,2.012v3.891a4.757,4.757,0,0,0,.3,1.852V15Zm-2.4-1.1a2.54,2.54,0,0,0,1.289-.352,2.127,2.127,0,0,0,.883-.914V10.9H90.1q-2.656,0-2.656,1.555a1.316,1.316,0,0,0,.453,1.063A1.742,1.742,0,0,0,89.063,13.9Zm10.8-1.141a1.064,1.064,0,0,0-.441-.91,4.249,4.249,0,0,0-1.539-.559,7.277,7.277,0,0,1-1.742-.562,2.479,2.479,0,0,1-.953-.781,1.869,1.869,0,0,1-.309-1.078,2.193,2.193,0,0,1,.879-1.758,3.432,3.432,0,0,1,2.246-.719,3.532,3.532,0,0,1,2.332.742,2.357,2.357,0,0,1,.895,1.9H99.781a1.3,1.3,0,0,0-.5-1.023,1.888,1.888,0,0,0-1.27-.43,1.976,1.976,0,0,0-1.234.344,1.082,1.082,0,0,0-.445.9.877.877,0,0,0,.414.789,5.1,5.1,0,0,0,1.5.508,7.8,7.8,0,0,1,1.754.578,2.558,2.558,0,0,1,1,.809,1.988,1.988,0,0,1,.324,1.152,2.163,2.163,0,0,1-.906,1.816,3.8,3.8,0,0,1-2.352.684,4.257,4.257,0,0,1-1.8-.359,2.922,2.922,0,0,1-1.223-1,2.42,2.42,0,0,1-.441-1.395h1.445a1.5,1.5,0,0,0,.582,1.152,2.258,2.258,0,0,0,1.434.426,2.331,2.331,0,0,0,1.316-.332A1.02,1.02,0,0,0,99.867,12.758ZM106.8,10.7a4.952,4.952,0,0,1,.922-3.129,3.137,3.137,0,0,1,4.766-.168V3h1.445V15h-1.328l-.07-.906a2.943,2.943,0,0,1-2.414,1.063,2.887,2.887,0,0,1-2.395-1.2,5.008,5.008,0,0,1-.926-3.141Zm1.445.164a3.749,3.749,0,0,0,.594,2.25,1.92,1.92,0,0,0,1.641.813,2.108,2.108,0,0,0,2.008-1.234V8.813a2.125,2.125,0,0,0-1.992-1.2,1.929,1.929,0,0,0-1.656.82A4.128,4.128,0,0,0,108.25,10.867Zm11.438,4.289a3.693,3.693,0,0,1-2.8-1.129,4.19,4.19,0,0,1-1.078-3.02v-.266a5.073,5.073,0,0,1,.48-2.246,3.748,3.748,0,0,1,1.344-1.547,3.378,3.378,0,0,1,1.871-.559,3.166,3.166,0,0,1,2.563,1.086,4.7,4.7,0,0,1,.914,3.109v.6h-5.727a3,3,0,0,0,.73,2.02,2.3,2.3,0,0,0,1.777.77,2.517,2.517,0,0,0,1.3-.312,3.259,3.259,0,0,0,.93-.828l.883.688A3.55,3.55,0,0,1,119.688,15.156Zm-.18-7.578a1.928,1.928,0,0,0-1.469.637A3.1,3.1,0,0,0,117.3,10h4.234V9.891a2.753,2.753,0,0,0-.594-1.707A1.815,1.815,0,0,0,119.508,7.578ZM44.8,37.984a2.145,2.145,0,0,0,1.367-.441,2.1,2.1,0,0,0,.8-1.2l1.336-.008a3.014,3.014,0,0,1-.637,1.453,3.68,3.68,0,0,1-2.926,1.367,3.017,3.017,0,0,1-1.785-.551,3.084,3.084,0,0,1-1.074-1.492,4.972,4.972,0,0,1-.234-2.152l.039-.391a5.605,5.605,0,0,1,.711-2.18,4.11,4.11,0,0,1,1.469-1.5,3.648,3.648,0,0,1,2-.5,2.857,2.857,0,0,1,2.125.891,3.08,3.08,0,0,1,.8,2.18l-1.32-.008A2.029,2.029,0,0,0,47,32.113a1.607,1.607,0,0,0-1.2-.543,2.254,2.254,0,0,0-1.832.82,4.3,4.3,0,0,0-.91,2.359l-.023.2a6.776,6.776,0,0,0-.016,1.031,2.355,2.355,0,0,0,.516,1.445A1.656,1.656,0,0,0,44.8,37.984ZM54.6,39a1.894,1.894,0,0,1-.055-.445l.023-.445A3.465,3.465,0,0,1,52.1,39.156a2.526,2.526,0,0,1-1.816-.707,2.14,2.14,0,0,1-.637-1.73,2.6,2.6,0,0,1,1.176-2.1,5.005,5.005,0,0,1,2.887-.754l1.477.008.094-.672a1.545,1.545,0,0,0-.293-1.2,1.414,1.414,0,0,0-1.113-.457,2.181,2.181,0,0,0-1.285.355,1.513,1.513,0,0,0-.684.98l-1.422.008a2.266,2.266,0,0,1,.578-1.316,3.363,3.363,0,0,1,1.3-.891,4.215,4.215,0,0,1,1.648-.3,2.8,2.8,0,0,1,2.055.8,2.484,2.484,0,0,1,.617,2.043L56,37.414l-.039.6a2.949,2.949,0,0,0,.094.852L56.039,39Zm-2.219-1.094a2.466,2.466,0,0,0,1.285-.324,3.254,3.254,0,0,0,1.043-.941l.3-1.742-1.07-.008a4.054,4.054,0,0,0-2.047.422,1.554,1.554,0,0,0-.8,1.2,1.21,1.21,0,0,0,.277.988A1.321,1.321,0,0,0,52.383,37.906Zm10.828-6.07-.664-.07a2.42,2.42,0,0,0-2.141,1.227L59.367,39H57.953l1.469-8.453,1.367-.008-.211.984A2.527,2.527,0,0,1,62.7,30.375a2.594,2.594,0,0,1,.672.117Zm.477,2.922A6.578,6.578,0,0,1,64.4,32.43a4.03,4.03,0,0,1,1.367-1.555,3.127,3.127,0,0,1,1.789-.492,2.64,2.64,0,0,1,2.172,1.031L70.539,27h1.414L69.875,39H68.586l.148-.906a3.116,3.116,0,0,1-2.469,1.063,2.335,2.335,0,0,1-1.867-.918,4,4,0,0,1-.75-2.379A7.6,7.6,0,0,1,63.688,34.758Zm1.359.808a2.929,2.929,0,0,0,.4,1.732,1.437,1.437,0,0,0,1.234.632,2.554,2.554,0,0,0,2.18-1.233l.672-3.9a1.754,1.754,0,0,0-1.7-1.186,2.143,2.143,0,0,0-1.473.5,3.256,3.256,0,0,0-.969,1.475A6.082,6.082,0,0,0,65.047,35.565Zm12.3,1.146q.117-.875-.961-1.234l-1.469-.43q-1.859-.641-1.8-2.125a2.341,2.341,0,0,1,1.02-1.832,3.631,3.631,0,0,1,2.27-.7,3.027,3.027,0,0,1,2.082.746,2.363,2.363,0,0,1,.77,1.9l-1.406-.008a1.319,1.319,0,0,0-.4-1.031,1.576,1.576,0,0,0-1.1-.414,2.059,2.059,0,0,0-1.266.359,1.316,1.316,0,0,0-.57.922q-.1.734.9,1.07l.711.2a4.577,4.577,0,0,1,2.063.977A1.865,1.865,0,0,1,78.75,36.6a2.37,2.37,0,0,1-.516,1.375,2.948,2.948,0,0,1-1.25.895,4.18,4.18,0,0,1-1.664.285,3.3,3.3,0,0,1-2.219-.785,2.427,2.427,0,0,1-.844-1.98l1.414.008a1.5,1.5,0,0,0,.453,1.141,1.732,1.732,0,0,0,1.242.43,2.436,2.436,0,0,0,1.336-.324A1.247,1.247,0,0,0,77.344,36.711Zm7.539-6.32a3.047,3.047,0,0,1,1.82.578,3.285,3.285,0,0,1,1.121,1.551,4.8,4.8,0,0,1,.246,2.16l-.016.172a5.685,5.685,0,0,1-.734,2.23A4.309,4.309,0,0,1,85.8,38.633a3.7,3.7,0,0,1-2.039.523,3.052,3.052,0,0,1-1.816-.578,3.21,3.21,0,0,1-1.113-1.531,4.931,4.931,0,0,1-.25-2.133,5.76,5.76,0,0,1,.711-2.359,4.409,4.409,0,0,1,1.527-1.621A3.652,3.652,0,0,1,84.883,30.391Zm-2.875,4.531a4.8,4.8,0,0,0,0,1.023,2.507,2.507,0,0,0,.551,1.469,1.653,1.653,0,0,0,1.262.57,2.253,2.253,0,0,0,1.3-.348,2.919,2.919,0,0,0,1-1.121,4.721,4.721,0,0,0,.523-1.664,7.5,7.5,0,0,0,.023-1.211,2.6,2.6,0,0,0-.57-1.492,1.69,1.69,0,0,0-1.266-.578,2.3,2.3,0,0,0-1.859.859,4.245,4.245,0,0,0-.945,2.313Zm12.367-3.086-.664-.07a2.42,2.42,0,0,0-2.141,1.227L90.531,39H89.117l1.469-8.453,1.367-.008-.211.984a2.527,2.527,0,0,1,2.117-1.148,2.594,2.594,0,0,1,.672.117Zm4.2-3.336-.359,2.047H99.75l-.2,1.117H98.023l-.883,5.258a1.833,1.833,0,0,0-.008.375.6.6,0,0,0,.664.609,4.05,4.05,0,0,0,.688-.078l-.109,1.18a3.847,3.847,0,0,1-1.031.141,1.476,1.476,0,0,1-1.266-.621A2.4,2.4,0,0,1,95.75,36.9l.859-5.234H95.117l.2-1.117H96.8l.359-2.047ZM101.516,39h-1.406l1.469-8.453h1.406Zm1.164-11.539a.774.774,0,0,1,.6.215.8.8,0,0,1,.238.605.834.834,0,0,1-.836.852.779.779,0,0,1-.6-.211.764.764,0,0,1-.227-.594.886.886,0,0,1,.234-.609A.826.826,0,0,1,102.68,27.461Zm3.953,3.078-.2,1.07a3.333,3.333,0,0,1,2.594-1.219,2.1,2.1,0,0,1,1.766.828,3.217,3.217,0,0,1,.422,2.242L110.289,39h-1.414l.93-5.557a2.962,2.962,0,0,0,.008-.71,1.168,1.168,0,0,0-1.289-1.116,2.661,2.661,0,0,0-2.234,1.358L105.242,39h-1.414l1.469-8.453Zm6.25,4.219a6.889,6.889,0,0,1,.746-2.4,3.9,3.9,0,0,1,1.359-1.508,3.151,3.151,0,0,1,1.754-.465,2.6,2.6,0,0,1,2.219,1.109l.281-.945h1.3l-1.406,8.273a4.113,4.113,0,0,1-1.312,2.59,3.7,3.7,0,0,1-2.68.926,3.8,3.8,0,0,1-1.645-.406,3.127,3.127,0,0,1-1.238-1.07l.8-.867a2.536,2.536,0,0,0,3.73.6,2.9,2.9,0,0,0,.926-1.687l.156-.75a3.2,3.2,0,0,1-2.414,1,2.486,2.486,0,0,1-1.371-.426,2.589,2.589,0,0,1-.9-1.164,4.759,4.759,0,0,1-.352-1.7A8.734,8.734,0,0,1,112.883,34.758Zm1.367.8a2.974,2.974,0,0,0,.387,1.728,1.461,1.461,0,0,0,1.238.644,2.561,2.561,0,0,0,2.18-1.241l.664-3.878a1.776,1.776,0,0,0-1.7-1.2,2.194,2.194,0,0,0-1.887.936,4.878,4.878,0,0,0-.871,2.614Z" transform="translate(1202.5 6454.309)" fill="#12263f"/>
    <path id="Trazado_634274" data-name="Trazado 634274" d="M8.293,10.547V15h-1.5V3.625h4.2a4.215,4.215,0,0,1,2.926.953A3.231,3.231,0,0,1,14.973,7.1a3.189,3.189,0,0,1-1.035,2.551,4.4,4.4,0,0,1-2.965.895Zm0-1.227h2.7a2.7,2.7,0,0,0,1.844-.567,2.075,2.075,0,0,0,.641-1.64,2.143,2.143,0,0,0-.641-1.628,2.525,2.525,0,0,0-1.758-.634H8.293ZM20.746,7.844a4.331,4.331,0,0,0-.711-.055A1.9,1.9,0,0,0,18.105,9v6H16.66V6.547h1.406l.023.977a2.251,2.251,0,0,1,2.016-1.133,1.477,1.477,0,0,1,.641.109Zm6.547,6.32a3.07,3.07,0,0,1-2.477.992,2.628,2.628,0,0,1-2.059-.785,3.4,3.4,0,0,1-.715-2.324v-5.5h1.445v5.461q0,1.922,1.563,1.922a2.163,2.163,0,0,0,2.2-1.234V6.547H28.7V15H27.324Zm7.109.992a3.693,3.693,0,0,1-2.8-1.129,4.19,4.19,0,0,1-1.078-3.02v-.266a5.073,5.073,0,0,1,.48-2.246,3.748,3.748,0,0,1,1.344-1.547,3.378,3.378,0,0,1,1.871-.559,3.166,3.166,0,0,1,2.563,1.086,4.7,4.7,0,0,1,.914,3.109v.6H31.973a3,3,0,0,0,.73,2.02,2.3,2.3,0,0,0,1.777.77,2.517,2.517,0,0,0,1.3-.312,3.259,3.259,0,0,0,.93-.828l.883.688A3.55,3.55,0,0,1,34.4,15.156Zm-.18-7.578a1.928,1.928,0,0,0-1.469.637A3.1,3.1,0,0,0,32.02,10h4.234V9.891a2.753,2.753,0,0,0-.594-1.707A1.815,1.815,0,0,0,34.223,7.578Zm12.3,3.289a5.026,5.026,0,0,1-.891,3.113,2.846,2.846,0,0,1-2.391,1.176,2.947,2.947,0,0,1-2.477-1.133L40.7,15H39.371V3h1.445V7.477A2.93,2.93,0,0,1,43.23,6.391a2.863,2.863,0,0,1,2.418,1.164,5.177,5.177,0,0,1,.879,3.188ZM45.082,10.7a3.906,3.906,0,0,0-.57-2.281,1.888,1.888,0,0,0-1.641-.8,2.122,2.122,0,0,0-2.055,1.328V12.6a2.181,2.181,0,0,0,2.07,1.328,1.878,1.878,0,0,0,1.617-.8A4.153,4.153,0,0,0,45.082,10.7ZM53.566,15a3.036,3.036,0,0,1-.2-.891,3.225,3.225,0,0,1-2.406,1.047,2.984,2.984,0,0,1-2.051-.707,2.287,2.287,0,0,1-.8-1.793,2.39,2.39,0,0,1,1-2.051,4.733,4.733,0,0,1,2.824-.73H53.34V9.211A1.623,1.623,0,0,0,52.887,8a1.821,1.821,0,0,0-1.336-.449,2.107,2.107,0,0,0-1.3.391,1.151,1.151,0,0,0-.523.945H48.277a2,2,0,0,1,.449-1.223,3.066,3.066,0,0,1,1.219-.934,4.1,4.1,0,0,1,1.691-.344,3.342,3.342,0,0,1,2.289.73,2.635,2.635,0,0,1,.859,2.012v3.891a4.757,4.757,0,0,0,.3,1.852V15Zm-2.4-1.1a2.54,2.54,0,0,0,1.289-.352,2.127,2.127,0,0,0,.883-.914V10.9H52.207q-2.656,0-2.656,1.555A1.316,1.316,0,0,0,50,13.516,1.742,1.742,0,0,0,51.168,13.9Zm10.8-1.141a1.064,1.064,0,0,0-.441-.91,4.249,4.249,0,0,0-1.539-.559,7.277,7.277,0,0,1-1.742-.562,2.479,2.479,0,0,1-.953-.781,1.869,1.869,0,0,1-.309-1.078,2.193,2.193,0,0,1,.879-1.758,3.432,3.432,0,0,1,2.246-.719,3.532,3.532,0,0,1,2.332.742,2.357,2.357,0,0,1,.895,1.9H61.887a1.3,1.3,0,0,0-.5-1.023,1.888,1.888,0,0,0-1.27-.43,1.976,1.976,0,0,0-1.234.344,1.082,1.082,0,0,0-.445.9.877.877,0,0,0,.414.789,5.1,5.1,0,0,0,1.5.508A7.8,7.8,0,0,1,62.1,10.7a2.558,2.558,0,0,1,1,.809,1.988,1.988,0,0,1,.324,1.152,2.163,2.163,0,0,1-.906,1.816,3.8,3.8,0,0,1-2.352.684,4.257,4.257,0,0,1-1.8-.359,2.922,2.922,0,0,1-1.223-1A2.42,2.42,0,0,1,56.7,12.4h1.445a1.5,1.5,0,0,0,.582,1.152,2.258,2.258,0,0,0,1.434.426,2.331,2.331,0,0,0,1.316-.332A1.02,1.02,0,0,0,61.973,12.758ZM68.91,10.7a4.952,4.952,0,0,1,.922-3.129A3.137,3.137,0,0,1,74.6,7.406V3h1.445V15H74.715l-.07-.906a2.943,2.943,0,0,1-2.414,1.063,2.887,2.887,0,0,1-2.395-1.2,5.008,5.008,0,0,1-.926-3.141Zm1.445.164a3.749,3.749,0,0,0,.594,2.25,1.92,1.92,0,0,0,1.641.813A2.108,2.108,0,0,0,74.6,12.7V8.813a2.125,2.125,0,0,0-1.992-1.2,1.929,1.929,0,0,0-1.656.82A4.128,4.128,0,0,0,70.355,10.867Zm11.438,4.289A3.693,3.693,0,0,1,79,14.027a4.19,4.19,0,0,1-1.078-3.02v-.266A5.073,5.073,0,0,1,78.4,8.5a3.748,3.748,0,0,1,1.344-1.547,3.378,3.378,0,0,1,1.871-.559,3.166,3.166,0,0,1,2.563,1.086,4.7,4.7,0,0,1,.914,3.109v.6H79.363a3,3,0,0,0,.73,2.02,2.3,2.3,0,0,0,1.777.77,2.517,2.517,0,0,0,1.3-.312,3.259,3.259,0,0,0,.93-.828l.883.688A3.55,3.55,0,0,1,81.793,15.156Zm-.18-7.578a1.928,1.928,0,0,0-1.469.637A3.1,3.1,0,0,0,79.41,10h4.234V9.891a2.753,2.753,0,0,0-.594-1.707A1.815,1.815,0,0,0,81.613,7.578Zm14.328,6.586a3.07,3.07,0,0,1-2.477.992,2.628,2.628,0,0,1-2.059-.785,3.4,3.4,0,0,1-.715-2.324v-5.5h1.445v5.461q0,1.922,1.563,1.922A2.163,2.163,0,0,0,95.9,12.7V6.547h1.445V15H95.973Zm8.523-1.406a1.064,1.064,0,0,0-.441-.91,4.249,4.249,0,0,0-1.539-.559,7.277,7.277,0,0,1-1.742-.562,2.479,2.479,0,0,1-.953-.781,1.869,1.869,0,0,1-.309-1.078,2.193,2.193,0,0,1,.879-1.758,3.432,3.432,0,0,1,2.246-.719,3.532,3.532,0,0,1,2.332.742,2.357,2.357,0,0,1,.895,1.9h-1.453a1.3,1.3,0,0,0-.5-1.023,1.888,1.888,0,0,0-1.27-.43,1.976,1.976,0,0,0-1.234.344,1.082,1.082,0,0,0-.445.9.877.877,0,0,0,.414.789,5.1,5.1,0,0,0,1.5.508,7.8,7.8,0,0,1,1.754.578,2.558,2.558,0,0,1,1,.809,1.988,1.988,0,0,1,.324,1.152A2.163,2.163,0,0,1,105,14.473a3.8,3.8,0,0,1-2.352.684,4.257,4.257,0,0,1-1.8-.359,2.922,2.922,0,0,1-1.223-1,2.42,2.42,0,0,1-.441-1.395h1.445a1.5,1.5,0,0,0,.582,1.152,2.258,2.258,0,0,0,1.434.426,2.331,2.331,0,0,0,1.316-.332A1.02,1.02,0,0,0,104.465,12.758ZM113.012,15a3.036,3.036,0,0,1-.2-.891,3.225,3.225,0,0,1-2.406,1.047,2.984,2.984,0,0,1-2.051-.707,2.288,2.288,0,0,1-.8-1.793,2.39,2.39,0,0,1,1-2.051,4.733,4.733,0,0,1,2.824-.73h1.406V9.211A1.623,1.623,0,0,0,112.332,8,1.821,1.821,0,0,0,111,7.555a2.108,2.108,0,0,0-1.3.391,1.151,1.151,0,0,0-.523.945h-1.453a2,2,0,0,1,.449-1.223,3.066,3.066,0,0,1,1.219-.934,4.1,4.1,0,0,1,1.691-.344,3.342,3.342,0,0,1,2.289.73,2.635,2.635,0,0,1,.859,2.012v3.891a4.757,4.757,0,0,0,.3,1.852V15Zm-2.4-1.1a2.54,2.54,0,0,0,1.289-.352,2.127,2.127,0,0,0,.883-.914V10.9h-1.133Q109,10.9,109,12.453a1.316,1.316,0,0,0,.453,1.063A1.742,1.742,0,0,0,110.613,13.9Zm13.039-3.031a5.026,5.026,0,0,1-.891,3.113,2.846,2.846,0,0,1-2.391,1.176,2.947,2.947,0,0,1-2.477-1.133l-.07.977H116.5V3h1.445V7.477a2.93,2.93,0,0,1,2.414-1.086,2.863,2.863,0,0,1,2.418,1.164,5.177,5.177,0,0,1,.879,3.188Zm-1.445-.164a3.906,3.906,0,0,0-.57-2.281,1.888,1.888,0,0,0-1.641-.8,2.122,2.122,0,0,0-2.055,1.328V12.6a2.181,2.181,0,0,0,2.07,1.328,1.878,1.878,0,0,0,1.617-.8A4.153,4.153,0,0,0,122.207,10.7Zm4.836,4.3H125.6V6.547h1.445ZM125.48,4.3a.863.863,0,0,1,.215-.594.807.807,0,0,1,.637-.242.819.819,0,0,1,.641.242.854.854,0,0,1,.219.594.826.826,0,0,1-.219.586.834.834,0,0,1-.641.234.821.821,0,0,1-.637-.234A.834.834,0,0,1,125.48,4.3ZM130.926,15H129.48V3h1.445Zm3.883,0h-1.445V6.547h1.445ZM133.246,4.3a.863.863,0,0,1,.215-.594.807.807,0,0,1,.637-.242.819.819,0,0,1,.641.242.854.854,0,0,1,.219.594.826.826,0,0,1-.219.586.834.834,0,0,1-.641.234.821.821,0,0,1-.637-.234A.834.834,0,0,1,133.246,4.3Zm3.523,6.4a4.952,4.952,0,0,1,.922-3.129,3.137,3.137,0,0,1,4.766-.168V3H143.9V15h-1.328l-.07-.906a2.943,2.943,0,0,1-2.414,1.063,2.887,2.887,0,0,1-2.395-1.2,5.008,5.008,0,0,1-.926-3.141Zm1.445.164a3.749,3.749,0,0,0,.594,2.25,1.919,1.919,0,0,0,1.641.813,2.108,2.108,0,0,0,2.008-1.234V8.813a2.125,2.125,0,0,0-1.992-1.2,1.929,1.929,0,0,0-1.656.82A4.128,4.128,0,0,0,138.215,10.867ZM151.363,15a3.036,3.036,0,0,1-.2-.891,3.225,3.225,0,0,1-2.406,1.047,2.984,2.984,0,0,1-2.051-.707,2.287,2.287,0,0,1-.8-1.793,2.39,2.39,0,0,1,1-2.051,4.733,4.733,0,0,1,2.824-.73h1.406V9.211A1.623,1.623,0,0,0,150.684,8a1.821,1.821,0,0,0-1.336-.449,2.107,2.107,0,0,0-1.3.391,1.151,1.151,0,0,0-.523.945h-1.453a2,2,0,0,1,.449-1.223,3.066,3.066,0,0,1,1.219-.934,4.1,4.1,0,0,1,1.691-.344,3.342,3.342,0,0,1,2.289.73,2.635,2.635,0,0,1,.859,2.012v3.891a4.757,4.757,0,0,0,.3,1.852V15Zm-2.4-1.1a2.54,2.54,0,0,0,1.289-.352,2.127,2.127,0,0,0,.883-.914V10.9H150q-2.656,0-2.656,1.555a1.316,1.316,0,0,0,.453,1.063A1.742,1.742,0,0,0,148.965,13.9Zm5.531-3.2a4.952,4.952,0,0,1,.922-3.129,3.137,3.137,0,0,1,4.766-.168V3h1.445V15H160.3l-.07-.906a2.943,2.943,0,0,1-2.414,1.063,2.887,2.887,0,0,1-2.395-1.2,5.008,5.008,0,0,1-.926-3.141Zm1.445.164a3.749,3.749,0,0,0,.594,2.25,1.919,1.919,0,0,0,1.641.813,2.108,2.108,0,0,0,2.008-1.234V8.813a2.125,2.125,0,0,0-1.992-1.2,1.929,1.929,0,0,0-1.656.82A4.128,4.128,0,0,0,155.941,10.867ZM35.582,33.7a4.952,4.952,0,0,1,.922-3.129,3.137,3.137,0,0,1,4.766-.168V26h1.445V38H41.387l-.07-.906A2.943,2.943,0,0,1,38.9,38.156a2.887,2.887,0,0,1-2.395-1.2,5.008,5.008,0,0,1-.926-3.141Zm1.445.164a3.749,3.749,0,0,0,.594,2.25,1.919,1.919,0,0,0,1.641.813A2.108,2.108,0,0,0,41.27,35.7V31.813a2.125,2.125,0,0,0-1.992-1.2,1.929,1.929,0,0,0-1.656.82A4.128,4.128,0,0,0,37.027,33.867Zm11.438,4.289a3.693,3.693,0,0,1-2.8-1.129,4.19,4.19,0,0,1-1.078-3.02v-.266a5.073,5.073,0,0,1,.48-2.246,3.748,3.748,0,0,1,1.344-1.547,3.378,3.378,0,0,1,1.871-.559,3.166,3.166,0,0,1,2.563,1.086,4.7,4.7,0,0,1,.914,3.109v.6H46.035a3,3,0,0,0,.73,2.02,2.3,2.3,0,0,0,1.777.77,2.517,2.517,0,0,0,1.3-.312,3.258,3.258,0,0,0,.93-.828l.883.688A3.55,3.55,0,0,1,48.465,38.156Zm-.18-7.578a1.928,1.928,0,0,0-1.469.637A3.1,3.1,0,0,0,46.082,33h4.234v-.109a2.753,2.753,0,0,0-.594-1.707A1.815,1.815,0,0,0,48.285,30.578ZM58.965,38H57.52V26h1.445ZM66.5,38a3.036,3.036,0,0,1-.2-.891,3.225,3.225,0,0,1-2.406,1.047,2.984,2.984,0,0,1-2.051-.707,2.287,2.287,0,0,1-.8-1.793,2.39,2.39,0,0,1,1-2.051,4.733,4.733,0,0,1,2.824-.73H66.27v-.664A1.623,1.623,0,0,0,65.816,31a1.821,1.821,0,0,0-1.336-.449,2.107,2.107,0,0,0-1.3.391,1.151,1.151,0,0,0-.523.945H61.207a2,2,0,0,1,.449-1.223,3.066,3.066,0,0,1,1.219-.934,4.1,4.1,0,0,1,1.691-.344,3.342,3.342,0,0,1,2.289.73,2.635,2.635,0,0,1,.859,2.012v3.891a4.757,4.757,0,0,0,.3,1.852V38Zm-2.4-1.1a2.54,2.54,0,0,0,1.289-.352,2.127,2.127,0,0,0,.883-.914V33.9H65.137q-2.656,0-2.656,1.555a1.316,1.316,0,0,0,.453,1.063A1.742,1.742,0,0,0,64.1,36.9Zm13.039-3.031a5.026,5.026,0,0,1-.891,3.113,2.846,2.846,0,0,1-2.391,1.176,2.947,2.947,0,0,1-2.477-1.133l-.07.977H69.98V26h1.445v4.477a2.93,2.93,0,0,1,2.414-1.086,2.863,2.863,0,0,1,2.418,1.164,5.177,5.177,0,0,1,.879,3.188ZM75.691,33.7a3.906,3.906,0,0,0-.57-2.281,1.888,1.888,0,0,0-1.641-.8,2.122,2.122,0,0,0-2.055,1.328V35.6A2.181,2.181,0,0,0,73.5,36.93a1.878,1.878,0,0,0,1.617-.8A4.153,4.153,0,0,0,75.691,33.7Zm2.883-.008a4.993,4.993,0,0,1,.488-2.234,3.643,3.643,0,0,1,1.359-1.531,3.7,3.7,0,0,1,1.988-.539,3.565,3.565,0,0,1,2.793,1.2,4.6,4.6,0,0,1,1.066,3.18v.1a5.036,5.036,0,0,1-.473,2.215,3.589,3.589,0,0,1-1.352,1.527,3.743,3.743,0,0,1-2.02.547,3.556,3.556,0,0,1-2.785-1.2A4.575,4.575,0,0,1,78.574,33.8Zm1.453.172a3.616,3.616,0,0,0,.652,2.258,2.211,2.211,0,0,0,3.5-.012,3.955,3.955,0,0,0,.648-2.418,3.61,3.61,0,0,0-.66-2.254,2.1,2.1,0,0,0-1.754-.863,2.075,2.075,0,0,0-1.727.852A3.925,3.925,0,0,0,80.027,33.867Zm12.141-3.023a4.331,4.331,0,0,0-.711-.055A1.9,1.9,0,0,0,89.527,32v6H88.082V29.547h1.406l.023.977a2.251,2.251,0,0,1,2.016-1.133,1.477,1.477,0,0,1,.641.109ZM98.4,38a3.036,3.036,0,0,1-.2-.891,3.225,3.225,0,0,1-2.406,1.047,2.984,2.984,0,0,1-2.051-.707,2.288,2.288,0,0,1-.8-1.793,2.39,2.39,0,0,1,1-2.051,4.733,4.733,0,0,1,2.824-.73h1.406v-.664A1.623,1.623,0,0,0,97.723,31a1.821,1.821,0,0,0-1.336-.449,2.108,2.108,0,0,0-1.3.391,1.151,1.151,0,0,0-.523.945H93.113a2,2,0,0,1,.449-1.223,3.066,3.066,0,0,1,1.219-.934,4.1,4.1,0,0,1,1.691-.344,3.342,3.342,0,0,1,2.289.73,2.635,2.635,0,0,1,.859,2.012v3.891a4.757,4.757,0,0,0,.3,1.852V38ZM96,36.9a2.54,2.54,0,0,0,1.289-.352,2.127,2.127,0,0,0,.883-.914V33.9H97.043q-2.656,0-2.656,1.555a1.316,1.316,0,0,0,.453,1.063A1.742,1.742,0,0,0,96,36.9Zm7.844-9.4v2.047h1.578v1.117h-1.578v5.249a1.173,1.173,0,0,0,.211.763.888.888,0,0,0,.719.254,3.5,3.5,0,0,0,.688-.094V38a4.215,4.215,0,0,1-1.109.155,1.8,1.8,0,0,1-1.461-.586,2.517,2.517,0,0,1-.492-1.664V30.664h-1.539V29.547H102.4V27.5Zm2.727,6.2a4.993,4.993,0,0,1,.488-2.234,3.643,3.643,0,0,1,1.359-1.531,3.7,3.7,0,0,1,1.988-.539,3.565,3.565,0,0,1,2.793,1.2,4.6,4.6,0,0,1,1.066,3.18v.1a5.036,5.036,0,0,1-.473,2.215,3.589,3.589,0,0,1-1.352,1.527,3.743,3.743,0,0,1-2.02.547,3.556,3.556,0,0,1-2.785-1.2,4.575,4.575,0,0,1-1.066-3.164Zm1.453.172a3.616,3.616,0,0,0,.652,2.258,2.211,2.211,0,0,0,3.5-.012,3.955,3.955,0,0,0,.648-2.418,3.61,3.61,0,0,0-.66-2.254,2.1,2.1,0,0,0-1.754-.863,2.075,2.075,0,0,0-1.727.852A3.925,3.925,0,0,0,108.027,33.867Zm12.141-3.023a4.331,4.331,0,0,0-.711-.055A1.9,1.9,0,0,0,117.527,32v6h-1.445V29.547h1.406l.023.977a2.251,2.251,0,0,1,2.016-1.133,1.477,1.477,0,0,1,.641.109Zm2.9,7.156h-1.445V29.547h1.445ZM121.5,27.3a.863.863,0,0,1,.215-.594.807.807,0,0,1,.637-.242.819.819,0,0,1,.641.242.854.854,0,0,1,.219.594.826.826,0,0,1-.219.586.834.834,0,0,1-.641.234.821.821,0,0,1-.637-.234A.834.834,0,0,1,121.5,27.3ZM125,33.7a4.993,4.993,0,0,1,.488-2.234,3.643,3.643,0,0,1,1.359-1.531,3.7,3.7,0,0,1,1.988-.539,3.565,3.565,0,0,1,2.793,1.2,4.6,4.6,0,0,1,1.066,3.18v.1a5.036,5.036,0,0,1-.473,2.215,3.589,3.589,0,0,1-1.352,1.527,3.743,3.743,0,0,1-2.02.547,3.556,3.556,0,0,1-2.785-1.2A4.575,4.575,0,0,1,125,33.8Zm1.453.172a3.616,3.616,0,0,0,.652,2.258,2.211,2.211,0,0,0,3.5-.012,3.954,3.954,0,0,0,.648-2.418,3.61,3.61,0,0,0-.66-2.254,2.1,2.1,0,0,0-1.754-.863,2.075,2.075,0,0,0-1.727.852A3.925,3.925,0,0,0,126.449,33.867Z" transform="translate(816.375 6454.309)" fill="#12263f"/>
    <g transform="matrix(1, 0, 0, 1, 606, 6329.46)" filter="url(#Trazado_634275)">
      <path id="Trazado_634275-2" data-name="Trazado 634275" d="M13,0H172a13,13,0,0,1,13,13V166a13,13,0,0,1-13,13H13A13,13,0,0,1,0,166V13A13,13,0,0,1,13,0Z" transform="translate(9 6)" fill="#fff"/>
    </g>
    <path id="Trazado_634276" data-name="Trazado 634276" d="M33.738,9.742h-4.93v4.031h5.727V15H27.309V3.625h7.148V4.852H28.809V8.516h4.93Zm3.8-3.2.047,1.063a3.08,3.08,0,0,1,2.531-1.219q2.68,0,2.7,3.023V15H41.379V9.406a1.946,1.946,0,0,0-.418-1.352,1.675,1.675,0,0,0-1.277-.437,2.086,2.086,0,0,0-1.234.375,2.546,2.546,0,0,0-.828.984V15H36.176V6.547Zm10.852,7.43a2.082,2.082,0,0,0,1.352-.469,1.649,1.649,0,0,0,.641-1.172h1.367a2.621,2.621,0,0,1-.5,1.383,3.293,3.293,0,0,1-1.23,1.047,3.55,3.55,0,0,1-1.629.391A3.482,3.482,0,0,1,45.648,14a4.59,4.59,0,0,1-1.02-3.152v-.242a5.089,5.089,0,0,1,.453-2.2,3.451,3.451,0,0,1,1.3-1.492,3.7,3.7,0,0,1,2-.531,3.39,3.39,0,0,1,2.363.852,3.043,3.043,0,0,1,1,2.211H50.387a1.992,1.992,0,0,0-.621-1.348,1.932,1.932,0,0,0-1.379-.527,2.023,2.023,0,0,0-1.707.793,3.724,3.724,0,0,0-.605,2.293v.273a3.65,3.65,0,0,0,.6,2.25A2.033,2.033,0,0,0,48.395,13.977Zm10.2.188a3.07,3.07,0,0,1-2.477.992,2.628,2.628,0,0,1-2.059-.785,3.4,3.4,0,0,1-.715-2.324v-5.5h1.445v5.461q0,1.922,1.563,1.922a2.163,2.163,0,0,0,2.2-1.234V6.547H60V15H58.629Zm7.109.992a3.693,3.693,0,0,1-2.8-1.129,4.19,4.19,0,0,1-1.078-3.02v-.266a5.073,5.073,0,0,1,.48-2.246,3.748,3.748,0,0,1,1.344-1.547,3.378,3.378,0,0,1,1.871-.559A3.166,3.166,0,0,1,68.09,7.477,4.7,4.7,0,0,1,69,10.586v.6H63.277a3,3,0,0,0,.73,2.02,2.3,2.3,0,0,0,1.777.77,2.517,2.517,0,0,0,1.3-.312,3.259,3.259,0,0,0,.93-.828l.883.688A3.55,3.55,0,0,1,65.707,15.156Zm-.18-7.578a1.928,1.928,0,0,0-1.469.637A3.1,3.1,0,0,0,63.324,10h4.234V9.891a2.753,2.753,0,0,0-.594-1.707A1.815,1.815,0,0,0,65.527,7.578Zm10.07,5.18a1.064,1.064,0,0,0-.441-.91,4.249,4.249,0,0,0-1.539-.559,7.277,7.277,0,0,1-1.742-.562,2.479,2.479,0,0,1-.953-.781,1.869,1.869,0,0,1-.309-1.078,2.193,2.193,0,0,1,.879-1.758,3.432,3.432,0,0,1,2.246-.719,3.532,3.532,0,0,1,2.332.742,2.357,2.357,0,0,1,.895,1.9H75.512a1.3,1.3,0,0,0-.5-1.023,1.888,1.888,0,0,0-1.27-.43,1.976,1.976,0,0,0-1.234.344,1.082,1.082,0,0,0-.445.9.877.877,0,0,0,.414.789,5.1,5.1,0,0,0,1.5.508,7.8,7.8,0,0,1,1.754.578,2.558,2.558,0,0,1,1,.809,1.988,1.988,0,0,1,.324,1.152,2.163,2.163,0,0,1-.906,1.816,3.8,3.8,0,0,1-2.352.684,4.257,4.257,0,0,1-1.8-.359,2.922,2.922,0,0,1-1.223-1,2.42,2.42,0,0,1-.441-1.395H71.77a1.5,1.5,0,0,0,.582,1.152,2.258,2.258,0,0,0,1.434.426,2.331,2.331,0,0,0,1.316-.332A1.02,1.02,0,0,0,75.6,12.758ZM80.887,4.5V6.547h1.578V7.664H80.887v5.249a1.173,1.173,0,0,0,.211.763.888.888,0,0,0,.719.254,3.5,3.5,0,0,0,.688-.094V15a4.215,4.215,0,0,1-1.109.155,1.8,1.8,0,0,1-1.461-.586,2.517,2.517,0,0,1-.492-1.664V7.664H77.9V6.547h1.539V4.5ZM89.371,15a3.036,3.036,0,0,1-.2-.891,3.225,3.225,0,0,1-2.406,1.047,2.984,2.984,0,0,1-2.051-.707,2.288,2.288,0,0,1-.8-1.793,2.39,2.39,0,0,1,1-2.051,4.733,4.733,0,0,1,2.824-.73h1.406V9.211A1.623,1.623,0,0,0,88.691,8a1.821,1.821,0,0,0-1.336-.449,2.108,2.108,0,0,0-1.3.391,1.151,1.151,0,0,0-.523.945H84.082a2,2,0,0,1,.449-1.223,3.066,3.066,0,0,1,1.219-.934,4.1,4.1,0,0,1,1.691-.344,3.342,3.342,0,0,1,2.289.73,2.635,2.635,0,0,1,.859,2.012v3.891a4.757,4.757,0,0,0,.3,1.852V15Zm-2.4-1.1a2.54,2.54,0,0,0,1.289-.352,2.127,2.127,0,0,0,.883-.914V10.9H88.012q-2.656,0-2.656,1.555a1.316,1.316,0,0,0,.453,1.063A1.742,1.742,0,0,0,86.973,13.9Zm10.8-1.141a1.064,1.064,0,0,0-.441-.91,4.249,4.249,0,0,0-1.539-.559,7.277,7.277,0,0,1-1.742-.562,2.479,2.479,0,0,1-.953-.781,1.869,1.869,0,0,1-.309-1.078,2.193,2.193,0,0,1,.879-1.758,3.432,3.432,0,0,1,2.246-.719,3.532,3.532,0,0,1,2.332.742,2.357,2.357,0,0,1,.895,1.9H97.691a1.3,1.3,0,0,0-.5-1.023,1.888,1.888,0,0,0-1.27-.43,1.976,1.976,0,0,0-1.234.344,1.082,1.082,0,0,0-.445.9.877.877,0,0,0,.414.789,5.1,5.1,0,0,0,1.5.508A7.8,7.8,0,0,1,97.9,10.7a2.558,2.558,0,0,1,1,.809,1.988,1.988,0,0,1,.324,1.152,2.163,2.163,0,0,1-.906,1.816,3.8,3.8,0,0,1-2.352.684,4.257,4.257,0,0,1-1.8-.359,2.922,2.922,0,0,1-1.223-1A2.42,2.42,0,0,1,92.5,12.4h1.445a1.5,1.5,0,0,0,.582,1.152,2.258,2.258,0,0,0,1.434.426,2.331,2.331,0,0,0,1.316-.332A1.02,1.02,0,0,0,97.777,12.758Z" transform="translate(644.5 6454.309)" fill="#12263f"/>
    <g id="Grupo_880175" data-name="Grupo 880175" transform="translate(479.631 6313.122)">
      <g id="Grupo_880167" data-name="Grupo 880167" transform="translate(229.356 85.395)">
        <circle id="Elipse_6700" data-name="Elipse 6700" cx="1.5" cy="1.5" r="1.5" transform="translate(-0.395 -0.395)" fill="#12263f"/>
      </g>
      <g id="Grupo_880168" data-name="Grupo 880168" transform="translate(214.192 64.165)">
        <path id="Trazado_632227" data-name="Trazado 632227" d="M63.444,138.621l3.033,3.033a1.515,1.515,0,0,0,2.144,0l6.066-6.066a1.516,1.516,0,1,0-2.144-2.144l-4.994,4.994-1.961-1.961a1.516,1.516,0,1,0-2.144,2.144Z" transform="translate(-63 -133.001)" fill="#12263f" fill-rule="evenodd"/>
      </g>
      <g id="Grupo_880169" data-name="Grupo 880169" transform="translate(214.192 79.33)">
        <path id="Trazado_632228" data-name="Trazado 632228" d="M63.444,138.621l3.033,3.033a1.515,1.515,0,0,0,2.144,0l6.066-6.066a1.516,1.516,0,1,0-2.144-2.144l-4.994,4.994-1.961-1.961a1.516,1.516,0,1,0-2.144,2.144Z" transform="translate(-63 -133.001)" fill="#12263f" fill-rule="evenodd"/>
      </g>
      <g id="Grupo_880170" data-name="Grupo 880170" transform="translate(229.356 64.165)">
        <path id="Trazado_632229" data-name="Trazado 632229" d="M74.516,138.033H89.681a1.516,1.516,0,0,0,0-3.033H74.516a1.516,1.516,0,1,0,0,3.033Z" transform="translate(-73 -135)" fill="#12263f" fill-rule="evenodd"/>
      </g>
      <g id="Grupo_880171" data-name="Grupo 880171" transform="translate(229.356 79.329)">
        <path id="Trazado_632230" data-name="Trazado 632230" d="M74.516,138.033h6.125a1.516,1.516,0,1,0,0-3.033H74.516a1.516,1.516,0,1,0,0,3.033Z" transform="translate(-73 -135)" fill="#12263f" fill-rule="evenodd"/>
      </g>
      <g id="Grupo_880172" data-name="Grupo 880172" transform="translate(229.356 70.23)">
        <path id="Trazado_632231" data-name="Trazado 632231" d="M74.516,142.033h9.1a1.516,1.516,0,1,0,0-3.033h-9.1a1.516,1.516,0,1,0,0,3.033Z" transform="translate(-73 -139)" fill="#12263f" fill-rule="evenodd"/>
      </g>
      <g id="Grupo_880173" data-name="Grupo 880173" transform="translate(205.093 55.066)">
        <path id="Trazado_632232" data-name="Trazado 632232" d="M60.033,150.78V128.791a.756.756,0,0,1,.758-.758h3.85a1.516,1.516,0,1,0,0-3.033h-3.85A3.79,3.79,0,0,0,57,128.791V150.78a1.516,1.516,0,0,0,3.033,0Z" transform="translate(-57 -125)" fill="#12263f" fill-rule="evenodd"/>
      </g>
      <path id="Trazado_632233" data-name="Trazado 632233" d="M227.138,55.066V53.549a4.549,4.549,0,1,0-9.1,0v1.516h-7.523a1.516,1.516,0,0,0,0,3.033h34.061a.759.759,0,0,1,.758.758l.059,6.838a1.517,1.517,0,0,0,3.033-.027l-.059-6.824a3.793,3.793,0,0,0-3.791-3.777Zm-3.033-1.516a1.516,1.516,0,0,0-3.033,0v1.516h3.033Z" transform="translate(8.284 0)" fill="#12263f" fill-rule="evenodd"/>
      <g id="Grupo_880174" data-name="Grupo 880174" transform="translate(223.349 103.593)">
        <path id="Trazado_632234" data-name="Trazado 632234" d="M99.368,158.507l-.059,9.866a.756.756,0,0,1-.758.758h-28a1.516,1.516,0,1,0,0,3.033h28a3.79,3.79,0,0,0,3.791-3.791c0,.009.059-9.848.059-9.848a1.516,1.516,0,0,0-3.033-.018Z" transform="translate(-69.039 -157)" fill="#12263f" fill-rule="evenodd"/>
      </g>
      <path id="Trazado_632235" data-name="Trazado 632235" d="M199.289,91.3a7.584,7.584,0,0,0-6.328,7.479v3.791a3.791,3.791,0,0,0,3.791,3.791h19.714a3.792,3.792,0,0,0,3.791-3.791V98.78a7.585,7.585,0,0,0-6.33-7.479,10.614,10.614,0,1,0-14.638,0Zm14.9,12.029h2.275a.759.759,0,0,0,.758-.758V98.78a4.549,4.549,0,0,0-4.549-4.549H200.543a4.549,4.549,0,0,0-4.549,4.549v3.791a.759.759,0,0,0,.758.758h2.275V98.78a1.516,1.516,0,0,1,3.033,0v4.549h9.1V98.78a1.516,1.516,0,0,1,3.033,0Zm-7.582-27.3a7.582,7.582,0,1,1-7.582,7.582A7.586,7.586,0,0,1,206.609,76.033Z" transform="translate(0 12.395)" fill="#12263f" fill-rule="evenodd"/>
      <path id="Trazado_632236" data-name="Trazado 632236" d="M243.076,64.11C241.328,65.859,213.5,93.837,213.5,93.837a1.513,1.513,0,0,0-.44,1.068v6.066a1.515,1.515,0,0,0,1.516,1.516h6.066a1.516,1.516,0,0,0,1.075-.447s13.907-14,23.121-23.253l.419.419a.76.76,0,0,1,0,1.072l-5.882,5.882a3.791,3.791,0,0,0,0,5.361l1.425,1.424a1.516,1.516,0,0,0,2.144-2.144l-1.425-1.424a.76.76,0,0,1,0-1.072l5.882-5.882a3.791,3.791,0,0,0,0-5.361l-.422-.423c1.776-1.783,3.273-3.283,4.305-4.317a3.791,3.791,0,0,0,0-5.361l-2.849-2.849A3.791,3.791,0,0,0,243.076,64.11ZM235.809,75.7l3.922,3.922c-7.9,7.943-17.555,17.656-19.719,19.834h-3.919V95.531C218.249,93.361,227.9,83.647,235.809,75.7Zm6.061,1.771-3.922-3.92c3.069-3.083,5.7-5.728,7.271-7.3a.759.759,0,0,1,1.072,0l2.849,2.849a.759.759,0,0,1,0,1.072C247.573,71.744,244.939,74.389,241.871,77.47Z" transform="translate(10.381 7.23)" fill="#12263f" fill-rule="evenodd"/>
    </g>
    <g id="Grupo_880176" data-name="Grupo 880176" transform="translate(813.753 6368.122)">
      <path id="Trazado_632237" data-name="Trazado 632237" d="M121.081,217.43h8.458a1.022,1.022,0,0,0,0-2.043h-8.458a1.022,1.022,0,0,0,0,2.043Z" transform="translate(-46.227 -186.042)" fill="#12263f" stroke="#12263f" stroke-width="1"/>
      <path id="Trazado_632238" data-name="Trazado 632238" d="M130.56,251.26a1.022,1.022,0,0,0-1.022-1.022h-8.458a1.022,1.022,0,1,0,0,2.043h8.458A1.022,1.022,0,0,0,130.56,251.26Z" transform="translate(-46.227 -216.144)" fill="#12263f" stroke="#12263f" stroke-width="1"/>
      <path id="Trazado_632239" data-name="Trazado 632239" d="M118.166,46.218a1.022,1.022,0,1,0-2.043,0v7.961a3.443,3.443,0,0,1-1.4,2.786,2.584,2.584,0,0,0-1.042,2.061v8.427a.262.262,0,0,1-.262.262l-16.55-.007a.263.263,0,0,1-.262-.262V61.929a1.022,1.022,0,0,0-.8-1l-3.49-.773a4.665,4.665,0,0,1-3.679-4.583A3.866,3.866,0,0,0,87.82,53.2L80.854,44.3c-.149-.191.076-.459.222-.58a4.027,4.027,0,0,1,5.644.7l3.725,4.764a1.021,1.021,0,0,0,.8.392H91.3a1.022,1.022,0,0,0,1.022-1.021l.025-26.105a1.479,1.479,0,0,1,1.477-1.477h1.368a1.568,1.568,0,0,1,1.566,1.566V36.495a1.022,1.022,0,0,0,2.043,0,1.548,1.548,0,0,1,1.546-1.546h1.319a1.542,1.542,0,0,1,1.47,1.066,1.154,1.154,0,0,0,2.194,0,1.542,1.542,0,0,1,1.47-1.067h1.32a1.548,1.548,0,0,1,1.546,1.546v.9a1.15,1.15,0,0,0,2.184.5l.013-.027c.319-.658.495-1.021,1.411-1.058h1.3a1.548,1.548,0,0,1,1.546,1.546V41.45a1.022,1.022,0,1,0,2.043,0V38.363a3.593,3.593,0,0,0-3.589-3.589h-1.355a3.653,3.653,0,0,0-1.739.458,3.6,3.6,0,0,0-3.36-2.327H106.8a3.617,3.617,0,0,0-.633.057V3.74A3.744,3.744,0,0,0,102.43,0H70.28a3.744,3.744,0,0,0-3.74,3.74V61.205a3.744,3.744,0,0,0,3.74,3.74H94.563v2.5a2.308,2.308,0,0,0,2.3,2.305l16.549.007a2.308,2.308,0,0,0,2.305-2.305V59.025a.526.526,0,0,1,.219-.422,5.541,5.541,0,0,0,2.224-4.424ZM95.192,18.926H93.824a3.524,3.524,0,0,0-3.52,3.519l0,1.794H75.424a.614.614,0,0,1-.613-.613V16.353a.614.614,0,0,1,.613-.613H97.7a.614.614,0,0,1,.613.613v4.372A3.611,3.611,0,0,0,95.192,18.926ZM70.28,62.9a1.7,1.7,0,0,1-1.7-1.7V54.813H81a1.022,1.022,0,1,0,0-2.043H68.583V9.945H76.7a1.022,1.022,0,0,0,0-2.043H68.583V3.74a1.7,1.7,0,0,1,1.7-1.7h32.15a1.7,1.7,0,0,1,1.7,1.7V7.9H81.469a1.022,1.022,0,0,0,0,2.043h22.657V33.878a3.582,3.582,0,0,0-2.459-.972h-1.319a3.569,3.569,0,0,0-1.546.35V26.042l.022-.009a2.667,2.667,0,0,0,1.531-2.406V16.353A2.659,2.659,0,0,0,97.7,13.7H75.424a2.659,2.659,0,0,0-2.656,2.656v7.273a2.659,2.659,0,0,0,2.656,2.656H90.3l-.018,19.373-1.953-2.5a6.07,6.07,0,0,0-8.521-1.042l-.015.012a2.438,2.438,0,0,0-.549,3.429l6.966,8.907a1.814,1.814,0,0,1,.383,1.112,6.7,6.7,0,0,0,5.28,6.577l2.689.6V62.9H70.28Z" fill="#12263f" stroke="#12263f" stroke-width="1"/>
    </g>
    <g id="Grupo_880177" data-name="Grupo 880177" transform="translate(1045.093 6316.048)">
      <path id="Trazado_632240" data-name="Trazado 632240" d="M85.543,110.661H80.458V69.347A4.454,4.454,0,0,0,76.009,64.9H62.064a16.52,16.52,0,0,0-29.314,0H18.805a4.454,4.454,0,0,0-4.449,4.449v41.314H9.271A1.271,1.271,0,0,0,8,111.932v4.449a4.454,4.454,0,0,0,4.449,4.449H82.365a4.454,4.454,0,0,0,4.449-4.449v-4.449A1.271,1.271,0,0,0,85.543,110.661ZM47.407,58.542A13.983,13.983,0,1,1,33.424,72.525,13.983,13.983,0,0,1,47.407,58.542Zm0,30.509A16.543,16.543,0,0,0,63.933,72.525q0-.641-.048-1.271H74.1v35.594H20.712V71.254H30.929q-.048.629-.048,1.271A16.543,16.543,0,0,0,47.407,89.051ZM16.9,69.347a1.908,1.908,0,0,1,1.907-1.907H31.682q-.2.624-.356,1.271H19.441a1.271,1.271,0,0,0-1.271,1.271v38.136a1.271,1.271,0,0,0,1.271,1.271H75.373a1.271,1.271,0,0,0,1.271-1.271V69.983a1.271,1.271,0,0,0-1.271-1.271H63.488q-.153-.646-.356-1.271H76.009a1.908,1.908,0,0,1,1.907,1.907v41.314H16.9ZM52.492,113.2v1.271H42.322V113.2Zm31.78,3.178a1.908,1.908,0,0,1-1.907,1.907H12.449a1.908,1.908,0,0,1-1.907-1.907V113.2H39.78v2.542a1.271,1.271,0,0,0,1.271,1.271H53.763a1.271,1.271,0,0,0,1.271-1.271V113.2H84.272Z" fill="#12263f"/>
      <path id="Trazado_632241" data-name="Trazado 632241" d="M40.9,424H33.271a1.271,1.271,0,1,0,0,2.542H40.9a1.271,1.271,0,1,0,0-2.542Z" transform="translate(-20.186 -309.525)" fill="#12263f"/>
      <path id="Trazado_632242" data-name="Trazado 632242" d="M106.542,424h-1.271a1.271,1.271,0,1,0,0,2.542h1.271a1.271,1.271,0,1,0,0-2.542Z" transform="translate(-80.746 -309.525)" fill="#12263f"/>
      <path id="Trazado_632243" data-name="Trazado 632243" d="M208.565,144.684l3.814,2.542a1.271,1.271,0,0,0,1.6-.159l8.9-8.9a1.271,1.271,0,0,0-1.8-1.8l-8.162,8.162-2.946-1.964a1.271,1.271,0,1,0-1.41,2.115Z" transform="translate(-168.219 -67.287)" fill="#12263f"/>
    </g>
    <path id="Trazado_632244" data-name="Trazado 632244" d="M36.151,98.229a1.3,1.3,0,0,1-1.3,1.3H23.187a1.3,1.3,0,1,1,0-2.6H34.85A1.3,1.3,0,0,1,36.151,98.229Zm-1.3,6.051H9.9a1.3,1.3,0,1,0,0,2.6H34.85a1.3,1.3,0,1,0,0-2.6Zm0,7.352H9.9a1.3,1.3,0,0,0,0,2.6H34.85a1.3,1.3,0,0,0,0-2.6Zm0,7.352H9.9a1.3,1.3,0,0,0,0,2.6H34.85a1.3,1.3,0,0,0,0-2.6Zm0,7.352H9.9a1.3,1.3,0,1,0,0,2.6H34.85a1.3,1.3,0,1,0,0-2.6ZM23.187,92.178h8.636a1.3,1.3,0,0,0,0-2.6H23.187a1.3,1.3,0,0,0,0,2.6Zm45.377-1.2V88.67H57.959v18.668H68.564v-2.306a3.744,3.744,0,0,1,3.74-3.74h7.214a3.744,3.744,0,0,1,3.74,3.74v7.214a3.744,3.744,0,0,1-3.74,3.74H72.3a3.744,3.744,0,0,1-3.74-3.74v-2.306H57.959v18.668H68.564V126.3a3.744,3.744,0,0,1,3.74-3.74h7.214a3.744,3.744,0,0,1,3.74,3.74v7.214a3.744,3.744,0,0,1-3.74,3.74H72.3a3.744,3.744,0,0,1-3.74-3.74v-2.306H56.658a1.3,1.3,0,0,1-1.3-1.3V109.939h-10.6v26.015a1.3,1.3,0,0,1-1.3,1.3H1.3a1.3,1.3,0,0,1-1.3-1.3V81.323a1.3,1.3,0,0,1,1.3-1.3H36.622a1.3,1.3,0,0,1,.92.381l6.829,6.829a1.3,1.3,0,0,1,.381.92v19.185h10.6V87.369a1.3,1.3,0,0,1,1.3-1.3H68.564V83.762a3.744,3.744,0,0,1,3.74-3.74h7.214a3.744,3.744,0,0,1,3.74,3.74v7.214a3.744,3.744,0,0,1-3.74,3.74H72.3a3.744,3.744,0,0,1-3.74-3.74ZM37.923,86.851h2.388l-2.388-2.388Zm4.227,2.6H36.622a1.3,1.3,0,0,1-1.3-1.3V82.624H2.6v52.029H42.151Zm29.016,44.062a1.14,1.14,0,0,0,1.138,1.138h7.214a1.14,1.14,0,0,0,1.138-1.138V126.3a1.14,1.14,0,0,0-1.138-1.138H72.3a1.14,1.14,0,0,0-1.138,1.138Zm0-21.269a1.14,1.14,0,0,0,1.138,1.138h7.214a1.14,1.14,0,0,0,1.138-1.138v-7.214a1.14,1.14,0,0,0-1.138-1.138H72.3a1.14,1.14,0,0,0-1.138,1.138Zm0-21.269A1.14,1.14,0,0,0,72.3,92.115h7.214a1.14,1.14,0,0,0,1.138-1.138V83.762a1.14,1.14,0,0,0-1.138-1.138H72.3a1.14,1.14,0,0,0-1.138,1.138ZM8.6,98.229V90.877a1.3,1.3,0,0,1,1.3-1.3h7.352a1.3,1.3,0,0,1,1.3,1.3v7.352a1.3,1.3,0,0,1-1.3,1.3H9.9a1.3,1.3,0,0,1-1.3-1.3Zm2.6-1.3h4.75v-4.75H11.2Z" transform="translate(1243.741 6298.488)" fill="#12263f"/>
  </g>
</svg>
