<svg xmlns="http://www.w3.org/2000/svg" xmlns:xlink="http://www.w3.org/1999/xlink" width="482.707" height="666.27" viewBox="0 0 482.707 666.27">
  <defs>
    <clipPath id="clip-path">
      <rect id="Rectángulo_329314" data-name="Rectángulo 329314" width="22.226" height="38.246" fill="none"/>
    </clipPath>
    <clipPath id="clip-path-2">
      <rect id="Rectángulo_329314-2" data-name="Rectángulo 329314" width="18.133" height="31.204" fill="none"/>
    </clipPath>
    <clipPath id="clip-path-3">
      <rect id="Rectángulo_329315" data-name="Rectángulo 329315" width="22.928" height="22.174" fill="none"/>
    </clipPath>
    <clipPath id="clip-path-4">
      <rect id="Rectángulo_329315-2" data-name="Rectángulo 329315" width="18.706" height="18.092" fill="none"/>
    </clipPath>
    <clipPath id="clip-path-5">
      <rect id="Rectángulo_329317" data-name="Rectángulo 329317" width="128.439" height="105.984" fill="#e44e00"/>
    </clipPath>
    <clipPath id="clip-path-6">
      <rect id="Rectángulo_329318" data-name="Rectángulo 329318" width="89.896" height="77.861" fill="#e44e00"/>
    </clipPath>
    <clipPath id="clip-path-7">
      <rect id="Rectángulo_329321" data-name="Rectángulo 329321" width="4.632" height="4.36" fill="none"/>
    </clipPath>
    <clipPath id="clip-path-8">
      <rect id="Rectángulo_329322" data-name="Rectángulo 329322" width="59.36" height="5.936" fill="none"/>
    </clipPath>
    <clipPath id="clip-path-9">
      <rect id="Rectángulo_329323" data-name="Rectángulo 329323" width="4.588" height="4.352" fill="none"/>
    </clipPath>
    <clipPath id="clip-path-10">
      <rect id="Rectángulo_329324" data-name="Rectángulo 329324" width="59.281" height="9.846" fill="none"/>
    </clipPath>
  </defs>
  <g id="Grupo_1034303" data-name="Grupo 1034303" transform="translate(1926.707 4265.62)">
    <path id="Trazado_632245" data-name="Trazado 632245" d="M35.325,213.541,98.99,189.294a8.522,8.522,0,0,0,4.932-11L70.362,90.175a8.524,8.524,0,0,0-11-4.932L18.987,100.62,0,144.736l24.326,63.872a8.524,8.524,0,0,0,11,4.932" transform="translate(-1548.482 -4224.035)" fill="#ebebeb"/>
    <path id="Trazado_632246" data-name="Trazado 632246" d="M67.711,94.964l9.445,24.8a7.928,7.928,0,0,1-4.585,10.231L48.725,139.08Z" transform="translate(-1597.205 -4218.379)" fill="#e0e0e0"/>
    <path id="Trazado_632247" data-name="Trazado 632247" d="M26.866,112.99c.121.319,6.814-1.935,14.946-5.032s14.628-5.867,14.507-6.185-6.811,1.933-14.946,5.032-14.628,5.866-14.508,6.185" transform="translate(-1541.963 -4214.649)" fill="#fff"/>
    <path id="Trazado_632248" data-name="Trazado 632248" d="M23.42,129.276c.121.319,11.072-3.556,24.456-8.654s24.141-9.488,24.021-9.808-11.071,3.554-24.459,8.654S23.3,128.957,23.42,129.276" transform="translate(-1552.201 -4209.669)" fill="#fff"/>
    <path id="Trazado_632249" data-name="Trazado 632249" d="M20.543,138.492c.121.319,12.051-3.928,26.64-9.485s26.324-10.321,26.2-10.64-12.047,3.928-26.642,9.487-26.321,10.321-26.2,10.638" transform="translate(-1549.229 -4205.514)" fill="#fff"/>
    <path id="Trazado_632250" data-name="Trazado 632250" d="M17.829,145.619c.121.319,12.051-3.928,26.639-9.484s26.324-10.322,26.2-10.642-12.047,3.928-26.642,9.487-26.321,10.319-26.2,10.638" transform="translate(-1542.308 -4201.593)" fill="#fff"/>
    <path id="Trazado_632251" data-name="Trazado 632251" d="M15.115,152.746c.121.319,12.051-3.928,26.639-9.484s26.324-10.322,26.2-10.641-12.047,3.928-26.642,9.487-26.321,10.319-26.2,10.638" transform="translate(-1535.387 -4197.672)" fill="#fff"/>
    <path id="Trazado_632252" data-name="Trazado 632252" d="M12.4,159.873c.121.319,12.051-3.928,26.64-9.485s26.322-10.321,26.2-10.638S53.2,143.675,38.6,149.234,12.28,159.553,12.4,159.873" transform="translate(-1528.466 -4193.751)" fill="#fff"/>
    <path id="Trazado_632253" data-name="Trazado 632253" d="M77.761,430.211c0,.223,74.339.4,166.021.4,91.713,0,166.036-.18,166.036-.4s-74.323-.4-166.036-.4c-91.681,0-166.021.18-166.021.4" transform="translate(-1974.356 -4034.177)" fill="#263238"/>
    <path id="Trazado_632254" data-name="Trazado 632254" d="M179.992,108.9l49.98-26.392a7.072,7.072,0,0,0,2.951-9.556L196.393,3.771A7.072,7.072,0,0,0,186.836.82l-31.7,16.738L143.957,55.8l26.479,50.143a7.072,7.072,0,0,0,9.556,2.951" transform="translate(-1895.894 -4265.62)" fill="#617a0b"/>
    <path id="Trazado_632345" data-name="Trazado 632345" d="M29.4,88.848,70.179,67.315a5.77,5.77,0,0,0,2.408-7.8L42.781,3.077a5.77,5.77,0,0,0-7.8-2.408L9.124,14.325,0,45.53,21.6,86.44a5.77,5.77,0,0,0,7.8,2.408" transform="matrix(0.485, 0.875, -0.875, 0.485, -1776.339, -4101.351)" fill="#ebebeb"/>
    <g id="Grupo_880191" data-name="Grupo 880191" transform="translate(-1751.937 -4248.062)">
      <g id="Grupo_880190" data-name="Grupo 880190" transform="translate(0)" clip-path="url(#clip-path)">
        <path id="Trazado_632255" data-name="Trazado 632255" d="M198.724,11.327,209.006,30.8a6.579,6.579,0,0,1-2.745,8.888l-18.719,9.888Z" transform="translate(-187.541 -11.327)" fill="#fff"/>
      </g>
    </g>
    <g id="Grupo_880191-2" data-name="Grupo 880191" transform="matrix(0.485, 0.875, -0.875, 0.485, -1788.868, -4094.405)">
      <g id="Grupo_880190-2" data-name="Grupo 880190" transform="translate(0 0)" clip-path="url(#clip-path-2)">
        <path id="Trazado_632255-2" data-name="Trazado 632255" d="M9.124,0l8.389,15.885a5.368,5.368,0,0,1-2.24,7.252L0,31.2Z" transform="translate(0 0)" fill="#fff"/>
      </g>
    </g>
    <g id="Grupo_880194" data-name="Grupo 880194" transform="translate(-1751.937 -4226.749)">
      <g id="Grupo_880193" data-name="Grupo 880193" clip-path="url(#clip-path-3)">
        <path id="Trazado_632256" data-name="Trazado 632256" d="M209.2,25.076s2.739,4.591-1.817,8.983a6.433,6.433,0,0,1-.543.463c-2.212,1.728-16.792,13.088-16.988,12.719-.212-.4-2.764-5.232-2.764-5.232l18.722-9.887s4.59-2.627,3.389-7.047" transform="translate(-187.089 -25.076)"/>
      </g>
    </g>
    <g id="Grupo_880194-2" data-name="Grupo 880194" transform="matrix(0.485, 0.875, -0.875, 0.485, -1804.076, -4085.975)">
      <g id="Grupo_880193-2" data-name="Grupo 880193" clip-path="url(#clip-path-4)">
        <path id="Trazado_632256-2" data-name="Trazado 632256" d="M18.04,0s2.235,3.746-1.482,7.329a5.249,5.249,0,0,1-.443.378c-1.8,1.41-13.7,10.678-13.86,10.377C2.082,17.758,0,13.816,0,13.816L15.275,5.749S19.02,3.606,18.04,0" transform="translate(0 0)"/>
      </g>
    </g>
    <path id="Trazado_632257" data-name="Trazado 632257" d="M170.685,26.286c.132.25,5.416-2.28,11.8-5.652s11.454-6.309,11.322-6.559-5.415,2.28-11.8,5.652-11.454,6.309-11.322,6.559" transform="translate(-1897.387 -4257.886)" fill="#fafafa"/>
    <path id="Trazado_632350" data-name="Trazado 632350" d="M0,9.976c.107.2,4.419-1.86,9.628-4.611S18.975.217,18.868.014,14.45,1.874,9.239,4.625-.105,9.772,0,9.976" transform="matrix(0.485, 0.875, -0.875, 0.485, -1781.91, -4074.725)" fill="#fafafa"/>
    <path id="Trazado_632258" data-name="Trazado 632258" d="M166.934,41.272c.132.25,8.76-4.046,19.266-9.6s18.922-10.251,18.79-10.5-8.758,4.046-19.269,9.6-18.919,10.251-18.787,10.5" transform="translate(-1902.755 -4253.977)" fill="#fafafa"/>
    <path id="Trazado_632349" data-name="Trazado 632349" d="M0,16.405c.107.2,7.147-3.3,15.719-7.829S31.159.213,31.051.008s-7.146,3.3-15.722,7.83S-.106,16.2,0,16.405" transform="matrix(0.485, 0.875, -0.875, 0.485, -1793.376, -4076.875)" fill="#fafafa"/>
    <path id="Trazado_632259" data-name="Trazado 632259" d="M163.8,49.011c.132.25,9.527-4.45,20.981-10.5s20.635-11.156,20.5-11.407-9.524,4.45-20.982,10.5-20.634,11.156-20.5,11.406" transform="translate(-1898.198 -4250.714)" fill="#fafafa"/>
    <path id="Trazado_632348" data-name="Trazado 632348" d="M0,17.881c.107.2,7.773-3.631,17.118-8.566S33.955.213,33.847.008s-7.77,3.631-17.119,8.567S-.106,17.677,0,17.881" transform="matrix(0.485, 0.875, -0.875, 0.485, -1799.372, -4072.221)" fill="#fafafa"/>
    <path id="Trazado_632260" data-name="Trazado 632260" d="M160.847,54.606c.132.251,9.527-4.45,20.981-10.5s20.635-11.156,20.5-11.407-9.524,4.45-20.982,10.5-20.634,11.156-20.5,11.406" transform="translate(-1890.662 -4247.637)" fill="#fafafa"/>
    <path id="Trazado_632347" data-name="Trazado 632347" d="M0,17.881c.107.2,7.773-3.631,17.118-8.566S33.955.213,33.847.008s-7.77,3.631-17.119,8.567S-.106,17.677,0,17.881" transform="matrix(0.485, 0.875, -0.875, 0.485, -1803.749, -4065.522)" fill="#fafafa"/>
    <path id="Trazado_632261" data-name="Trazado 632261" d="M157.893,60.2c.132.25,9.527-4.45,20.981-10.5s20.635-11.156,20.5-11.407-9.524,4.45-20.982,10.5-20.634,11.156-20.5,11.406" transform="translate(-1883.129 -4244.559)" fill="#fafafa"/>
    <path id="Trazado_632346" data-name="Trazado 632346" d="M0,17.881c.107.2,7.773-3.631,17.118-8.566S33.955.213,33.847.008s-7.77,3.631-17.119,8.567S-.106,17.677,0,17.881" transform="matrix(0.485, 0.875, -0.875, 0.485, -1808.126, -4058.824)" fill="#fafafa"/>
    <path id="Trazado_632262" data-name="Trazado 632262" d="M154.939,65.8c.132.25,9.527-4.452,20.981-10.5s20.635-11.156,20.5-11.407-9.524,4.45-20.982,10.5-20.634,11.156-20.5,11.406" transform="translate(-1875.596 -4241.481)" fill="#fafafa"/>
    <path id="Trazado_632344" data-name="Trazado 632344" d="M0,17.881c.108.2,7.773-3.632,17.118-8.566S33.955.213,33.847.008s-7.77,3.631-17.119,8.567S-.106,17.677,0,17.881" transform="matrix(0.485, 0.875, -0.875, 0.485, -1812.504, -4052.126)" fill="#fafafa"/>
    <path id="Trazado_632263" data-name="Trazado 632263" d="M320.327,423.11a8.064,8.064,0,0,0,6.855-9.122l-10.008-69.333a6.7,6.7,0,0,0-7.769-5.407l-6.545.936a6.973,6.973,0,0,1-6.752-2.82l-1.815-2.641a6.977,6.977,0,0,0-6.752-2.821l-31.066,4.45a7.019,7.019,0,0,0-5.441,3.982l-1.178,2.629a7.024,7.024,0,0,1-5.442,3.982l-39.6,5.672a6.69,6.69,0,0,0-5.924,7.369L209.123,430.9a8.084,8.084,0,0,0,9.158,6.828Z" transform="translate(-2079.466 -4088.078)" fill="#455a64"/>
    <g id="Grupo_880199" data-name="Grupo 880199" transform="translate(-1880.64 -3756.251)">
      <g id="Grupo_880198" data-name="Grupo 880198" clip-path="url(#clip-path-5)">
        <path id="Trazado_632264" data-name="Trazado 632264" d="M320.327,423.11a8.064,8.064,0,0,0,6.855-9.122l-10.008-69.333a6.7,6.7,0,0,0-7.769-5.407l-6.545.936a6.973,6.973,0,0,1-6.752-2.82l-1.815-2.641a6.977,6.977,0,0,0-6.752-2.821l-31.066,4.45a7.019,7.019,0,0,0-5.441,3.982l-1.178,2.629a7.024,7.024,0,0,1-5.442,3.982l-39.6,5.672a6.69,6.69,0,0,0-5.924,7.369L209.123,430.9a8.084,8.084,0,0,0,9.158,6.828Z" transform="translate(-198.826 -331.827)" fill="#e44e00"/>
      </g>
    </g>
    <path id="Trazado_632265" data-name="Trazado 632265" d="M248.451,347.371l25.185-3.664,1.645-4.514a8.774,8.774,0,0,1,7.061-5.542l24.624-3.527a7.772,7.772,0,0,1,9,6.267l.414,2.86,10.866,75.284c.67,4.647-2.823,8.991-7.8,9.7L219.422,438.568c-4.98.713-9.561-2.474-10.231-7.121l-10.265-71.119a5.807,5.807,0,0,1,4.937-6.571Z" transform="translate(-2079.596 -4089.063)" fill="#fd4c1b"/>
    <path id="Trazado_632266" data-name="Trazado 632266" d="M225.649,389.171l59.529-8.527-3.6-24.952-59.529,8.529Z" transform="translate(-2073.377 -4074.949)" fill="#fff"/>
    <path id="Trazado_632267" data-name="Trazado 632267" d="M229.449,369.531c.033.22,9.215-.911,20.508-2.53s20.427-3.11,20.395-3.33-9.212.911-20.51,2.53-20.424,3.109-20.393,3.33" transform="translate(-2070.023 -4070.575)" fill="#263238"/>
    <path id="Trazado_632268" data-name="Trazado 632268" d="M228.954,372.96c.031.22,9.215-.913,20.508-2.53s20.427-3.109,20.395-3.33-9.212.911-20.51,2.53-20.426,3.11-20.393,3.33" transform="translate(-2068.761 -4068.688)" fill="#263238"/>
    <path id="Trazado_632269" data-name="Trazado 632269" d="M319.77,321.564a5.29,5.29,0,0,0,6.831-3.049l16.437-42.941A4.388,4.388,0,0,0,340.328,270l-4.038-1.547a4.549,4.549,0,0,1-2.955-3.767l-.194-2.093a4.551,4.551,0,0,0-2.956-3.765l-19.167-7.338a4.6,4.6,0,0,0-4.382.552l-1.511,1.132a4.592,4.592,0,0,1-4.382.552l-24.433-9.353a4.387,4.387,0,0,0-5.739,2.339l-16.813,43.919a5.29,5.29,0,0,0,3.049,6.831Z" transform="translate(-2180.114 -4136.362)" fill="#ff725e"/>
    <g id="Grupo_880202" data-name="Grupo 880202" transform="translate(-1926.707 -3892.307)">
      <g id="Grupo_880201" data-name="Grupo 880201" clip-path="url(#clip-path-6)">
        <path id="Trazado_632270" data-name="Trazado 632270" d="M319.77,321.564a5.29,5.29,0,0,0,6.831-3.049l16.437-42.941A4.388,4.388,0,0,0,340.328,270l-4.038-1.547a4.549,4.549,0,0,1-2.955-3.767l-.194-2.093a4.551,4.551,0,0,0-2.956-3.765l-19.167-7.338a4.6,4.6,0,0,0-4.382.552l-1.511,1.132a4.592,4.592,0,0,1-4.382.552l-24.433-9.353a4.387,4.387,0,0,0-5.739,2.339l-16.813,43.919a5.29,5.29,0,0,0,3.049,6.831Z" transform="translate(-253.407 -244.055)" fill="#e44e00"/>
      </g>
    </g>
    <path id="Trazado_632271" data-name="Trazado 632271" d="M301.606,254.716l15.557,5.915,2.383-2.065a5.746,5.746,0,0,1,5.8-.93l15.193,5.816a5.086,5.086,0,0,1,3.142,6.461l-.679,1.772-17.848,46.627a5.778,5.778,0,0,1-7.558,3.08l-61.716-23.624a5.778,5.778,0,0,1-3.568-7.34l16.861-44.048a3.811,3.811,0,0,1,4.92-2.2Z" transform="translate(-2178.567 -4136.43)" fill="#ffb338"/>
    <rect id="Rectángulo_329319" data-name="Rectángulo 329319" width="39.329" height="16.547" transform="matrix(-0.934, -0.357, 0.357, -0.934, -1867.569, -3840.871)" fill="#fff"/>
    <path id="Trazado_632272" data-name="Trazado 632272" d="M274.881,264c-.079.208,5.506,2.539,12.474,5.207s12.685,4.663,12.764,4.453-5.5-2.539-12.475-5.207S274.96,263.788,274.881,264" transform="translate(-2170.215 -4125.401)" fill="#263238"/>
    <path id="Trazado_632273" data-name="Trazado 632273" d="M275.694,266.118c-.079.208,5.506,2.539,12.474,5.207s12.685,4.663,12.764,4.453-5.5-2.539-12.475-5.207-12.683-4.661-12.762-4.453" transform="translate(-2172.288 -4124.233)" fill="#263238"/>
    <path id="Trazado_632274" data-name="Trazado 632274" d="M208.181,401.777l.944,45.073-59.329,1.4c.2-5.363,30.616-16.84,30.616-16.84l-1.86-28.855Z" transform="translate(-1885.326 -4049.597)" fill="#455a64"/>
    <g id="Grupo_880207" data-name="Grupo 880207" transform="translate(-1689.479 -3621.137)">
      <g id="Grupo_880206" data-name="Grupo 880206" transform="translate(0)" clip-path="url(#clip-path-7)">
        <path id="Trazado_632275" data-name="Trazado 632275" d="M158.22,419.075a2.291,2.291,0,0,1,1.744,2.575,2.331,2.331,0,0,1-2.683,1.656,2.413,2.413,0,0,1-1.832-2.734,2.452,2.452,0,0,1,2.995-1.431" transform="translate(-155.373 -418.991)" fill="#fff"/>
      </g>
    </g>
    <g id="Grupo_880210" data-name="Grupo 880210" transform="translate(-1735.561 -3607.287)">
      <g id="Grupo_880209" data-name="Grupo 880209" clip-path="url(#clip-path-8)">
        <path id="Trazado_632276" data-name="Trazado 632276" d="M209.158,432.465l-.284-4.539L152.1,430.963s-2.613,1.147-2.269,2.9Z" transform="translate(-149.798 -427.926)" fill="#fff"/>
      </g>
    </g>
    <path id="Trazado_632277" data-name="Trazado 632277" d="M165.406,420.82c.017.273,1.468.363,2.917,1.211,1.473.811,2.238,1.98,2.5,1.865.265-.06-.209-1.686-1.983-2.682-1.764-1.012-3.506-.643-3.437-.394" transform="translate(-1871.288 -4039.274)" fill="#263238"/>
    <path id="Trazado_632278" data-name="Trazado 632278" d="M170.319,422.427c-.059.267,1.208.7,2.221,1.838,1.051,1.105,1.332,2.352,1.62,2.333.274.037.432-1.57-.859-2.959-1.276-1.4-2.982-1.474-2.982-1.212" transform="translate(-1882.36 -4038.303)" fill="#263238"/>
    <path id="Trazado_632279" data-name="Trazado 632279" d="M177.312,428.638c.265.053.632-1.325-.152-2.807s-2.155-2.046-2.271-1.815c-.158.228.744,1.012,1.367,2.238.653,1.211.767,2.364,1.056,2.384" transform="translate(-1892.702 -4037.391)" fill="#263238"/>
    <path id="Trazado_632280" data-name="Trazado 632280" d="M164.747,416.824c.129.246,1.448-.163,3.088-.1,1.642.036,2.93.526,3.074.287.163-.2-1.108-1.186-3.041-1.239s-3.268.837-3.12,1.048" transform="translate(-1870.282 -4041.898)" fill="#263238"/>
    <path id="Trazado_632281" data-name="Trazado 632281" d="M162.156,413.8c0,.113,1.149.256,2.972-.085a13.815,13.815,0,0,0,3.085-.975,14.332,14.332,0,0,0,1.683-.9,3.55,3.55,0,0,0,.879-.682,1.14,1.14,0,0,0,.095-1.459,1.625,1.625,0,0,0-1.285-.6,4.038,4.038,0,0,0-1.11.172,11.213,11.213,0,0,0-1.832.642,10.526,10.526,0,0,0-2.7,1.766c-1.344,1.235-1.787,2.271-1.687,2.32.133.087.781-.786,2.155-1.814a12.07,12.07,0,0,1,2.613-1.473,11.444,11.444,0,0,1,1.693-.538c.625-.171,1.159-.188,1.327.074.062.1.07.138-.057.315a2.889,2.889,0,0,1-.646.5,15.849,15.849,0,0,1-1.547.885,16.938,16.938,0,0,1-2.846,1.108,21.306,21.306,0,0,0-2.795.738" transform="translate(-1866.453 -4045.564)" fill="#263238"/>
    <path id="Trazado_632282" data-name="Trazado 632282" d="M171.27,415.528c.1.04.653-.955.713-2.731a8.71,8.71,0,0,0-.487-3.065,9.042,9.042,0,0,0-.8-1.687,2.444,2.444,0,0,0-1.935-1.373,1.383,1.383,0,0,0-1.22.812,3.613,3.613,0,0,0-.277,1.037,5.908,5.908,0,0,0,.048,1.891,6.3,6.3,0,0,0,1.346,2.871c1.2,1.426,2.415,1.724,2.437,1.631.093-.14-.93-.643-1.854-2.02a6.239,6.239,0,0,1-1.009-2.617,5.432,5.432,0,0,1,.011-1.623c.078-.6.3-1.085.539-1.029.295-.012.808.425,1.063.894a9.069,9.069,0,0,1,.775,1.505,9.535,9.535,0,0,1,.65,2.789c.126,1.643-.157,2.675,0,2.714" transform="translate(-1875.179 -4046.905)" fill="#263238"/>
    <path id="Trazado_632283" data-name="Trazado 632283" d="M79.746,405.462l5.669,44.725,58.893-7.31c-.989-5.277-32.752-12.175-32.752-12.175l-2.389-28.817Z" transform="translate(-1711.923 -4049.538)" fill="#455a64"/>
    <g id="Grupo_880213" data-name="Grupo 880213" transform="translate(-1620.338 -3619.16)">
      <g id="Grupo_880212" data-name="Grupo 880212" transform="translate(0)" clip-path="url(#clip-path-9)">
        <path id="Trazado_632284" data-name="Trazado 632284" d="M112.266,420.438a2.291,2.291,0,0,0-1.349,2.8,2.335,2.335,0,0,0,2.9,1.246,2.414,2.414,0,0,0,1.411-2.973,2.452,2.452,0,0,0-3.172-.977" transform="translate(-110.799 -420.266)" fill="#fff"/>
      </g>
    </g>
    <g id="Grupo_880216" data-name="Grupo 880216" transform="translate(-1626.893 -3609.198)">
      <g id="Grupo_880215" data-name="Grupo 880215" clip-path="url(#clip-path-10)">
        <path id="Trazado_632285" data-name="Trazado 632285" d="M80.129,436.539l-.384-4.533,56.61-5.314s2.753.753,2.668,2.538Z" transform="translate(-79.745 -426.693)" fill="#fff"/>
      </g>
    </g>
    <path id="Trazado_632286" data-name="Trazado 632286" d="M105.288,420.275c.023.273-1.4.575-2.708,1.625-1.338,1.018-1.924,2.286-2.2,2.212-.271-.02-.039-1.7,1.569-2.944s3.375-1.15,3.342-.893" transform="translate(-1704.735 -4039.511)" fill="#263238"/>
    <path id="Trazado_632287" data-name="Trazado 632287" d="M99.586,421.308c.1.256-1.091.873-1.928,2.144-.877,1.248-.973,2.522-1.26,2.547-.265.076-.657-1.493.415-3.055,1.057-1.57,2.736-1.894,2.773-1.635" transform="translate(-1692.563 -4038.897)" fill="#263238"/>
    <path id="Trazado_632288" data-name="Trazado 632288" d="M92.669,427.27c-.254.09-.82-1.218-.262-2.8s1.832-2.339,1.981-2.128c.189.2-.587,1.111-1.025,2.415-.468,1.294-.412,2.451-.694,2.513" transform="translate(-1681.29 -4038.303)" fill="#263238"/>
    <path id="Trazado_632289" data-name="Trazado 632289" d="M107.213,416.265c-.091.263-1.456.051-3.068.358-1.62.274-2.823.949-3,.733-.191-.175.922-1.336,2.827-1.671s3.354.349,3.24.58" transform="translate(-1707.974 -4041.999)" fill="#263238"/>
    <path id="Trazado_632290" data-name="Trazado 632290" d="M111.91,413.15c.017.112-1.1.422-2.951.352a13.886,13.886,0,0,1-3.195-.513,14.237,14.237,0,0,1-1.8-.64,3.61,3.61,0,0,1-.97-.546,1.141,1.141,0,0,1-.307-1.429,1.628,1.628,0,0,1,1.184-.778A4.025,4.025,0,0,1,105,409.6a11.091,11.091,0,0,1,1.905.366,10.516,10.516,0,0,1,2.925,1.352c1.511,1.026,2.1,1.984,2.009,2.049-.119.105-.888-.663-2.4-1.479a12.036,12.036,0,0,0-2.8-1.074,11.371,11.371,0,0,0-1.753-.284c-.643-.078-1.175-.016-1.3.267-.047.107-.05.147.1.3a2.938,2.938,0,0,0,.713.4,16.058,16.058,0,0,0,1.66.648,16.939,16.939,0,0,0,2.976.679,21.45,21.45,0,0,1,2.874.321" transform="translate(-1714.876 -4045.317)" fill="#263238"/>
    <path id="Trazado_632291" data-name="Trazado 632291" d="M101.945,415.4c-.1.054-.786-.849-1.105-2.6a8.691,8.691,0,0,1,.033-3.1,8.969,8.969,0,0,1,.546-1.787,2.444,2.444,0,0,1,1.711-1.642,1.385,1.385,0,0,1,1.325.625,3.656,3.656,0,0,1,.428.986,5.94,5.94,0,0,1,.229,1.877,6.311,6.311,0,0,1-.91,3.038c-.977,1.586-2.138,2.059-2.172,1.97-.113-.126.826-.775,1.538-2.271a6.238,6.238,0,0,0,.615-2.736,5.462,5.462,0,0,0-.25-1.6c-.164-.58-.457-1.029-.684-.939-.293.033-.736.539-.921,1.042a9.116,9.116,0,0,0-.547,1.6,9.588,9.588,0,0,0-.234,2.854c.118,1.643.549,2.624.4,2.685" transform="translate(-1705.238 -4047.133)" fill="#263238"/>
    <path id="Trazado_632292" data-name="Trazado 632292" d="M103.474,247.452l92.377,2.955s21.77,145.388,21.17,155.489l13.426,105.46-39.067,1.369s-6.146-34.2-10.432-57.6c-2.851-15.574-8.054-38.423-9.465-51.426s-24.259-103.82-24.259-103.82,1.688,105.42,1.649,109.751,4.517,103.016,4.517,103.016H114.6c-2-17.811-6.765-89.088-7.789-103.492-1.851-26-7.692-99.477-8.543-118.25s5.21-43.447,5.21-43.447" transform="translate(-1826.64 -4134.494)" fill="#263238"/>
    <path id="Trazado_632293" data-name="Trazado 632293" d="M176.286,250.262c.186,0,.338-1.483.338-3.313s-.152-3.314-.338-3.314-.338,1.483-.338,3.314.152,3.313.338,3.313" transform="translate(-1893.363 -4136.593)" fill="#455a64"/>
    <path id="Trazado_632294" data-name="Trazado 632294" d="M179.107,252.006c.175.028.581-1.874.378-4.246s-.908-4.181-1.076-4.125c-.188.056.219,1.891.4,4.182s.1,4.167.294,4.188" transform="translate(-1900.021 -4136.594)" fill="#455a64"/>
    <path id="Trazado_632295" data-name="Trazado 632295" d="M157.042,244.6a3.551,3.551,0,0,1,1.955,1.09,2.736,2.736,0,0,1,.639,2.189,2.539,2.539,0,0,1-4.426.842,2.738,2.738,0,0,1-.209-2.271,3.555,3.555,0,0,1,1.42-1.731c-.008-.029-.26-.036-.653.169a2.81,2.81,0,0,0-1.214,1.394,3.136,3.136,0,0,0,.126,2.764,3.114,3.114,0,0,0,5.568-1.059,3.133,3.133,0,0,0-.9-2.617,2.807,2.807,0,0,0-1.638-.851c-.442-.047-.674.051-.67.082" transform="translate(-1843.45 -4136.113)" fill="#455a64"/>
    <path id="Trazado_632296" data-name="Trazado 632296" d="M116.31,350.905c.071.172,4.5-1.483,9.893-3.7s9.708-4.151,9.637-4.323-4.5,1.483-9.893,3.7-9.708,4.151-9.637,4.323" transform="translate(-1760.134 -4082.002)" fill="#455a64"/>
    <path id="Trazado_632297" data-name="Trazado 632297" d="M172.5,111.354c-.305-5.376-3.612-8.684-8.245-11.429a16.8,16.8,0,0,0-15.506-.7c-3.254,1.549-6.1,4.193-9.673,4.653-5.884.76-11.452-4.692-17.226-3.331a7.652,7.652,0,0,0,.561,15.007c-3.852.558-6.033,5.432-4.609,9.054s5.467,5.725,9.36,5.81,7.633-1.5,11-3.458,6.51-4.3,10.021-5.985,7.552-2.663,11.314-1.66c5.092,1.355,8.7,6.163,10.029,11.263s.756,10.488-.034,15.7-1.8,10.466-1.3,15.713a1.953,1.953,0,0,0,.736,1.62c.783.431,1.68-.307,2.255-.991a77.33,77.33,0,0,0,14.54-26.339c1.778-5.585,2.758-11.023.625-16.482s-9.324-10.657-13.849-8.44" transform="translate(-1811.298 -4216.897)" fill="#263238"/>
    <path id="Trazado_632298" data-name="Trazado 632298" d="M178.248,134.776,169.637,187.9c-1.607,9.921-8.054,19.507-23.624,16.25-13.3-3.846-12.308-13.408-10.575-25.2h0s-14.625-3.8-13.315-18.676c.634-7.188,3.142-21.884,5.566-35.155a27.81,27.81,0,0,1,30.145-22.656l1.434.144c15.363,2.457,21.86,16.878,18.98,32.168" transform="translate(-1812.088 -4214.331)" fill="#ffbe9d"/>
    <path id="Trazado_632299" data-name="Trazado 632299" d="M137.843,153.1a36.077,36.077,0,0,0,19.916-3.773s-5.833,11.049-20.52,8.22Z" transform="translate(-1814.493 -4188.476)" fill="#eb996e"/>
    <path id="Trazado_632300" data-name="Trazado 632300" d="M150.495,126.026a2.13,2.13,0,0,0,1.831,2.345,2.039,2.039,0,0,0,2.378-1.693,2.131,2.131,0,0,0-1.828-2.347,2.041,2.041,0,0,0-2.381,1.694" transform="translate(-1831.976 -4202.238)" fill="#263238"/>
    <path id="Trazado_632301" data-name="Trazado 632301" d="M148.107,122.594c.236.3,1.962-.724,4.244-.488,2.283.2,3.84,1.544,4.116,1.29.133-.112-.084-.637-.76-1.242a5.845,5.845,0,0,0-3.26-1.375,5.6,5.6,0,0,0-3.413.735c-.756.467-1.043.944-.927,1.08" transform="translate(-1830.048 -4204.193)" fill="#263238"/>
    <path id="Trazado_632302" data-name="Trazado 632302" d="M137.084,128.149a2.132,2.132,0,0,0,1.831,2.345,2.037,2.037,0,0,0,2.378-1.693,2.133,2.133,0,0,0-1.828-2.347,2.041,2.041,0,0,0-2.381,1.694" transform="translate(-1797.779 -4201.07)" fill="#263238"/>
    <path id="Trazado_632303" data-name="Trazado 632303" d="M133.935,124.32c.236.3,1.964-.724,4.244-.488,2.283.2,3.841,1.545,4.117,1.29.133-.112-.082-.637-.761-1.242a5.851,5.851,0,0,0-3.26-1.377,5.624,5.624,0,0,0-3.413.735c-.753.468-1.043.946-.927,1.082" transform="translate(-1793.909 -4203.244)" fill="#263238"/>
    <path id="Trazado_632304" data-name="Trazado 632304" d="M149.235,140.766a15.21,15.21,0,0,0-3.64-1.042c-.578-.119-1.118-.29-1.175-.7a2.961,2.961,0,0,1,.563-1.688q1.035-2.034,2.17-4.266c3.029-6.08,5.284-11.1,5.038-11.221s-2.9,4.711-5.929,10.789q-1.1,2.251-2.1,4.3a3.4,3.4,0,0,0-.533,2.257,1.472,1.472,0,0,0,.873.949,3.978,3.978,0,0,0,.977.237,14.972,14.972,0,0,0,3.757.383" transform="translate(-1818.767 -4203.589)" fill="#263238"/>
    <path id="Trazado_632305" data-name="Trazado 632305" d="M132.2,118.327c.164.643,2.472.578,5.118,1.17,2.658.539,4.739,1.541,5.148,1.02.188-.251-.13-.873-.942-1.561a9.116,9.116,0,0,0-7.822-1.668c-1.023.3-1.569.735-1.5,1.039" transform="translate(-1791.437 -4206.25)" fill="#263238"/>
    <path id="Trazado_632306" data-name="Trazado 632306" d="M147.527,118.44c.349.56,1.976.178,3.869.344,1.9.1,3.457.7,3.88.194.188-.246-.011-.792-.662-1.353a5.621,5.621,0,0,0-6.244-.432c-.722.465-1,.977-.843,1.248" transform="translate(-1827.964 -4206.562)" fill="#263238"/>
    <path id="Trazado_632307" data-name="Trazado 632307" d="M120.019,130.344c.265-.084,10.51-1.992,9.164,8.13s-11.231,6.684-11.209,6.391,2.045-14.521,2.045-14.521" transform="translate(-1756.179 -4199.023)" fill="#ffbe9d"/>
    <path id="Trazado_632308" data-name="Trazado 632308" d="M119.7,140.192c.05-.026.16.147.44.322a1.778,1.778,0,0,0,1.314.2c1.121-.251,2.248-1.829,2.539-3.646a5.88,5.88,0,0,0-.158-2.592,2.054,2.054,0,0,0-1.147-1.53.906.906,0,0,0-1.1.346c-.174.265-.136.476-.192.487-.033.02-.2-.2-.057-.606a1.133,1.133,0,0,1,.482-.581,1.343,1.343,0,0,1,1.009-.129,2.5,2.5,0,0,1,1.634,1.814,6.022,6.022,0,0,1,.236,2.9c-.335,2.032-1.634,3.8-3.153,4.03a1.9,1.9,0,0,1-1.576-.484c-.281-.291-.3-.524-.267-.538" transform="translate(-1754.304 -4197.772)" fill="#eb996e"/>
    <path id="Trazado_632309" data-name="Trazado 632309" d="M125.033,112.209a19.484,19.484,0,0,1,6.958-6.557,33.258,33.258,0,0,1,19.88-4.932,27.078,27.078,0,0,1,18.181,9.042,28.591,28.591,0,0,1,6.373,15.141,42,42,0,0,1-1.558,16.482c-.668,2.345-1.569,4.759-3.421,6.345-1.158.991-3.029,1.532-4.137.487a4.056,4.056,0,0,1-.947-2.462c-1.166-8.033-2.246-16.653,1.383-23.914a23.434,23.434,0,0,0-6.349-7.132,12.122,12.122,0,0,0-9.1-2.189c-4.669.938-7.9,5.061-11.821,7.763a21.56,21.56,0,0,1-19.49,2.376Z" transform="translate(-1808.22 -4215.271)" fill="#263238"/>
    <path id="Trazado_632310" data-name="Trazado 632310" d="M142.492,138.524a10.124,10.124,0,0,0,.758,2.79,3.427,3.427,0,0,0,2.093,1.879,3.067,3.067,0,0,0,2.83-.854,4.9,4.9,0,0,0,1.313-2.741c.15-.921-.04-2.1-.924-2.392a2.314,2.314,0,0,0-1.15.014l-5.163.935" transform="translate(-1814.035 -4195.179)" fill="#eb996e"/>
    <path id="Trazado_632311" data-name="Trazado 632311" d="M144.236,142.984a7.029,7.029,0,0,0,2.6.217,3.706,3.706,0,0,0,2.283-1.342,3.9,3.9,0,0,0,.715-3.1,3.426,3.426,0,0,0-.267-.8c-.147-.237-.113-.222-.326-.234-.2.012-.549.093-.825.14s-.572.105-.849.155c-1.105.2-2.1.366-2.942.495a8.879,8.879,0,0,1-2.756.239,8.83,8.83,0,0,1,2.635-.84c.825-.206,1.811-.436,2.906-.677l.843-.183a8.6,8.6,0,0,1,.944-.177,1.14,1.14,0,0,1,.7.167,1.337,1.337,0,0,1,.437.525,4.216,4.216,0,0,1,.347,1.014,4.563,4.563,0,0,1-.942,3.779,4.165,4.165,0,0,1-2.824,1.448,3.935,3.935,0,0,1-2.08-.352c-.446-.223-.634-.431-.606-.474" transform="translate(-1814.696 -4195.324)" fill="#263238"/>
    <path id="Trazado_632312" data-name="Trazado 632312" d="M240.531,128.487l-2.393-.648-37.4,36.359-30.291,3.646s.3-9.16,11.7-20.849c10.167-10.426,33.96-22.864,42.013-29.258a12.71,12.71,0,0,1,3.488-2.082Z" transform="translate(-1948.738 -4206.997)" fill="#ffbe9d"/>
    <path id="Trazado_632313" data-name="Trazado 632313" d="M160.187,114.673l3.827-1.071,9.02-4.283,10.265,3.819s-.228,3.513-2.933,2.555l10.755,3.548s-.88,2.548-1.364,2.717,6.311.741,6.311.741.06,3.457-6.422,3.39-8.929-1.166-8.929-1.166l-5.165,1.378.208,3.069,7.025-.1-.319,3.942c-1.031.49-9.06,1.381-9.06,1.381s-10.854.158-13.791-1.257-6.693-3.466-6.693-3.466l-5.635-10.727Z" transform="translate(-1868.375 -4210.482)" fill="#ffbe9d"/>
    <path id="Trazado_632314" data-name="Trazado 632314" d="M156.937,115.152c.067.085.614-.211,1.55-.637a25.175,25.175,0,0,0,3.649-1.938l-.467.008c.132.087.271.18.414.273a10.676,10.676,0,0,0,4.233,1.55c1.15.147,1.863.036,1.865-.067.031-.24-2.829-.358-5.669-2.167l-.388-.253-.237-.155-.229.163c-1.252.882-2.575,1.524-3.438,2.105-.885.563-1.349,1.037-1.283,1.118" transform="translate(-1855.442 -4209.135)" fill="#eb996e"/>
    <path id="Trazado_632315" data-name="Trazado 632315" d="M152.137,118.594c-.019.068.684.248,1.736-.189,1.063-.389,2.2-1.5,3.668-2.175l-.372-.031a15.326,15.326,0,0,0,2.069,1.181,14.919,14.919,0,0,0,5.8,1.426,5.174,5.174,0,0,0,2.457-.27c.016-.245-3.819.071-7.916-1.888a17.648,17.648,0,0,1-1.984-1.094l-.192-.122-.18.091c-1.666.843-2.649,1.984-3.565,2.443-.884.512-1.527.516-1.524.628" transform="translate(-1847.328 -4207.119)" fill="#eb996e"/>
    <path id="Trazado_632316" data-name="Trazado 632316" d="M160.118,119.894a19.587,19.587,0,0,0,2.021-.095,8.512,8.512,0,0,1,4.466,1.347,7.652,7.652,0,0,1,2.209,2.187l.09.138.138.026c2.172.408,3.655.6,3.688.448s-1.392-.6-3.534-1.142l.228.164a7.384,7.384,0,0,0-2.378-2.5,7.8,7.8,0,0,0-4.932-1.239c-1.319.138-2.032.586-1.995.663" transform="translate(-1864.929 -4205.05)" fill="#eb996e"/>
    <path id="Trazado_632317" data-name="Trazado 632317" d="M152.651,129.994a1.231,1.231,0,0,0,.315.212c.262.147.578.327.964.547l3.751,2.032a12.107,12.107,0,0,0,2.84,1.276,25.915,25.915,0,0,0,3.652.584c2.634.262,5.638.372,8.967.369h.011l.012,0,4.038-.412a26.862,26.862,0,0,0,4.429-.753l.155-.048.034-.2c.22-1.353.46-2.824.707-4.333l.07-.428-.436.019-6.686.27.389.349c-.062-.955-.13-2.006-.2-3.071l-.282.4,5.167-1.367-.26-.022a26.979,26.979,0,0,0,7.761,1.178,18.072,18.072,0,0,0,4.086-.2,5.226,5.226,0,0,0,3.666-2.228,2.906,2.906,0,0,0,.4-1.336l.016-.361-.384-.034c-1.606-.138-3.2-.282-4.763-.459-.389-.045-.781-.091-1.153-.152l-.245-.05c-.028-.006-.008,0,0,.006s-.029-.031.091.071a.367.367,0,0,1,.088.346c.033.136-.279.322-.22.27a.855.855,0,0,0,.253-.169,2.436,2.436,0,0,0,.409-.58,16.291,16.291,0,0,0,.932-2.21l.138-.381-.389-.127-10.761-3.53-.246.719a2.83,2.83,0,0,0,1.35.147,2.054,2.054,0,0,0,1.212-.693,4.241,4.241,0,0,0,.865-2.344l.031-.27-.27-.1q-5.466-2.011-10.277-3.784l-.133-.048-.124.06-9,4.331.043-.017-3.767,1.085-3.28,1.164-5.221,1.877-3.269,1.209a7.173,7.173,0,0,0-1.118.47,7.241,7.241,0,0,0,1.169-.322l3.314-1.071,5.258-1.75,3.294-1.1,3.768-1.028.02-.006.023-.011,9.045-4.232-.257.011L182.9,113.61l-.239-.369a3.572,3.572,0,0,1-.7,1.9,1.492,1.492,0,0,1-1.742.319l-.246.719,10.75,3.565-.251-.508a15.869,15.869,0,0,1-.88,2.083,1.83,1.83,0,0,1-.257.383c-.009.012-.019.02-.009.009a.383.383,0,0,1,.091.174l0,.016,0,.006c-.149-.4-.057-.105-.1-.191a.415.415,0,0,0-.113.071.455.455,0,0,0-.144.228.447.447,0,0,0,.112.375c.127.113.1.071.122.09a.715.715,0,0,0,.144.053,2.987,2.987,0,0,0,.332.07c.4.067.8.113,1.194.161,1.583.18,3.175.324,4.788.463l-.369-.4a2.234,2.234,0,0,1-.294.924,4.466,4.466,0,0,1-3.125,1.835,17.275,17.275,0,0,1-3.9.192,26.786,26.786,0,0,1-7.468-1.091l-.149-.051-.113.029-5.162,1.387-.3.082.022.313c.074,1.063.147,2.113.214,3.069l.026.366.364-.017,6.684-.31-.366-.411c-.236,1.51-.464,2.984-.674,4.337l.188-.251a29.1,29.1,0,0,1-4.213.73l-4.016.453h.022c-3.3.04-6.3-.029-8.915-.245a26.157,26.157,0,0,1-3.6-.507,12.032,12.032,0,0,1-2.792-1.178q-2.409-1.193-3.818-1.888l-1-.473a1.288,1.288,0,0,0-.357-.135" transform="translate(-1868.108 -4210.609)" fill="#eb996e"/>
    <path id="Trazado_632318" data-name="Trazado 632318" d="M160.891,115.049c-.163.13,1.392,2.214,3.982,4.049s5.058,2.64,5.126,2.443c.093-.219-2.166-1.313-4.658-3.1-2.5-1.77-4.275-3.548-4.45-3.39" transform="translate(-1863.383 -4207.335)" fill="#eb996e"/>
    <path id="Trazado_632319" data-name="Trazado 632319" d="M168.848,149.494l30.027-2.524,35.392,13.472,7.8,4.739L230.992,203s-55.477-32.686-57.836-35.484a20.162,20.162,0,0,1-4.308-18.023" transform="translate(-1946.879 -4189.77)" fill="#2b95f9"/>
    <path id="Trazado_632320" data-name="Trazado 632320" d="M214.943,172.863l10.325,6.408-23.839,93.85,4.319,54.034c-6.154,5.363-21.7,9.97-51.2,8.3s-49.118-14.435-49.118-14.435l2.823-55.661,6.7-62.809,7.588-42.933,22.7,1.64,8.839-5.238L158.044,158l5.086,14.1,13.249-9.566,15.5-7.47,5.661,10.566Z" transform="translate(-1832.695 -4185.318)" fill="#2b95f9"/>
    <path id="Trazado_632321" data-name="Trazado 632321" d="M181.681,165.044a11.96,11.96,0,0,0-.817,2.088c-.482,1.359-1.116,3.348-1.846,5.822a187.079,187.079,0,0,0-7.041,39.621c-.167,2.573-.257,4.658-.274,6.1a11.912,11.912,0,0,0,.048,2.241,11.97,11.97,0,0,0,.267-2.226c.138-1.584.315-3.623.529-6.07.476-5.12,1.308-12.179,2.677-19.907s3.027-14.635,4.345-19.607l1.6-5.881a11.937,11.937,0,0,0,.516-2.181" transform="translate(-1891.834 -4179.827)" fill="#263238"/>
    <path id="Trazado_632322" data-name="Trazado 632322" d="M123.539,167.6a6.19,6.19,0,0,0,2.133-.786,13.6,13.6,0,0,0,4.692-4.01l-.558-.155a52.358,52.358,0,0,0,2.762,13.557l.174.5.437-.3,1.09-.75c5.337-3.682,10.144-7.051,13.6-9.522l4.069-2.962a8.194,8.194,0,0,0,1.429-1.177,8.154,8.154,0,0,0-1.607.918l-4.215,2.751c-3.539,2.352-8.4,5.646-13.734,9.327l-1.09.752.609.2a57.342,57.342,0,0,1-2.91-13.342l-.079-.839-.479.685a14.375,14.375,0,0,1-4.359,4.068c-1.229.738-1.99,1.017-1.964,1.087" transform="translate(-1788.865 -4181.635)" fill="#263238"/>
    <path id="Trazado_632323" data-name="Trazado 632323" d="M146.7,160.465c-.119.116,1.967,2.471,5.046,5.726l.279.3.273-.318a34.608,34.608,0,0,1,3.371-3.415c.64-.563,1.284-1.088,1.922-1.575q.479-.349.944-.69a.641.641,0,0,1,.189-.093.481.481,0,0,1,.13.225c.516,1.314,1,2.548,1.451,3.691a16.6,16.6,0,0,0,1.53,3.333,16.536,16.536,0,0,0-1-3.53q-.6-1.746-1.291-3.759a1.049,1.049,0,0,0-.532-.659.967.967,0,0,0-.9.144c-.35.234-.663.459-1,.705-.662.49-1.327,1.025-1.983,1.6a29.764,29.764,0,0,0-3.409,3.545l.552-.022c-3.165-3.168-5.459-5.323-5.579-5.207" transform="translate(-1833.259 -4182.8)" fill="#263238"/>
    <path id="Trazado_632324" data-name="Trazado 632324" d="M194.8,269.261a64.192,64.192,0,1,0,46.378,36,63.874,63.874,0,0,0-46.378-36M171.9,391.23a59.873,59.873,0,1,1,36.338-4.546A59.887,59.887,0,0,1,171.9,391.23" transform="translate(-1875.2 -4123.113)" fill="#455a64"/>
    <path id="Trazado_632325" data-name="Trazado 632325" d="M184.148,400.8a67.6,67.6,0,1,0-23.157-4.123,66.97,66.97,0,0,0,23.157,4.123m-.13-124.192a56.932,56.932,0,1,1-23.945,5.337,56.848,56.848,0,0,1,23.945-5.337" transform="translate(-1876.299 -4124.215)" fill="#455a64"/>
    <path id="Trazado_632326" data-name="Trazado 632326" d="M159.838,271.046l-.569-1.4c-1.22-3-3.889-4.74-5.963-3.9L59.46,303.933c-.463.189-.617.884-.346,1.552l4,9.828c.271.668.867,1.057,1.33.87L158.291,278c2.074-.843,2.767-3.956,1.547-6.952" transform="translate(-1695.866 -4124.544)" fill="#455a64"/>
    <path id="Trazado_632327" data-name="Trazado 632327" d="M90.379,201.79l11.289,37.342-5.658,76.1,16.644,2.1s19.077-64.854,17.175-76.495S120.222,195,120.222,195Z" transform="translate(-1714.06 -4163.349)" fill="#ffbe9d"/>
    <path id="Trazado_632328" data-name="Trazado 632328" d="M112.212,272.217l-7.751,13.236L99.619,297.9l7.31-2.88s3.13,14.971,4.359,15.369,4.746-.823,4.39-3.7A4.776,4.776,0,0,0,119.63,308c2.2-.457,2.72-1.876,2.479-4.609,0,0,2.562,2.086,4.092.786a4.722,4.722,0,0,0,1.387-3.564s3.334.288,3.792-1.443a28.7,28.7,0,0,0,.184-8.55c-.392-1.883-1.992-9.572-1.992-9.572l-.756-6.186Z" transform="translate(-1730.222 -4120.87)" fill="#ffbe9d"/>
    <path id="Trazado_632329" data-name="Trazado 632329" d="M110.044,288.889c.188-.036.708,1.868,1.164,4.252s.67,4.347.482,4.381-.708-1.866-1.164-4.252-.67-4.345-.482-4.381" transform="translate(-1726.234 -4111.699)" fill="#eb996e"/>
    <path id="Trazado_632330" data-name="Trazado 632330" d="M105.83,287.773c.188-.037.651,1.479,1.034,3.387s.541,3.488.353,3.525-.651-1.479-1.034-3.389-.541-3.486-.353-3.523" transform="translate(-1715.222 -4112.313)" fill="#eb996e"/>
    <path id="Trazado_632331" data-name="Trazado 632331" d="M102.517,286.745c.208-.012.364,1.339.606,2.934.26,1.589.679,2.86.49,2.939-.16.076-.891-1.125-1.173-2.826-.256-1.688-.1-3.038.078-3.048" transform="translate(-1706.247 -4112.878)" fill="#eb996e"/>
    <path id="Trazado_632332" data-name="Trazado 632332" d="M114.757,284.14c.192-.034.677,1.843,1.24,4.156s.981,4.207.8,4.264-.907-1.761-1.47-4.1-.752-4.286-.566-4.319" transform="translate(-1738.615 -4114.311)" fill="#eb996e"/>
    <path id="Trazado_632333" data-name="Trazado 632333" d="M133.674,280.111c0-1.268,5.216-19.009,3.632-28.2s-20.5-71.3-23.032-75.737-8.082-6.844-8.082-6.844a30.884,30.884,0,0,0-15.05,18.885c-3.8,13.625-3.8,30.736-3.8,30.736l15.21,37.708-1.815,21.418Z" transform="translate(-1716.992 -4177.469)" fill="#2b95f9"/>
    <path id="Trazado_632334" data-name="Trazado 632334" d="M110.293,216.864c.153-.014-.141-2.782.009-7.248a65.189,65.189,0,0,1,.752-7.8,63.856,63.856,0,0,1,5.771-18.222,65.173,65.173,0,0,1,3.877-6.81c2.448-3.737,4.281-5.832,4.165-5.931a9.107,9.107,0,0,0-1.363,1.4,43.94,43.94,0,0,0-3.277,4.209,57.2,57.2,0,0,0-4.067,6.8,59.441,59.441,0,0,0-5.842,18.442,57.23,57.23,0,0,0-.586,7.9,43.807,43.807,0,0,0,.256,5.326,9.016,9.016,0,0,0,.305,1.933" transform="translate(-1738.969 -4176.63)" fill="#263238"/>
    <path id="Trazado_632335" data-name="Trazado 632335" d="M109.958,205.625a26.747,26.747,0,0,0,1.573,4.7c1.1,2.858,2.764,6.749,4.688,11,1.862,4.139,3.545,7.879,4.9,10.885a34.625,34.625,0,0,0,2.1,4.484,26.789,26.789,0,0,0-1.573-4.7c-1.1-2.858-2.764-6.749-4.689-11-1.862-4.137-3.545-7.878-4.9-10.883a34.62,34.62,0,0,0-2.1-4.484" transform="translate(-1737.658 -4157.503)" fill="#263238"/>
    <path id="Trazado_632336" data-name="Trazado 632336" d="M96.584,228.988c.135.225,4.385-2.747,10.42-4.531,6.019-1.843,11.2-1.708,11.192-1.97a10.566,10.566,0,0,0-3.375-.178,33.305,33.305,0,0,0-15.52,4.669,10.557,10.557,0,0,0-2.717,2.01" transform="translate(-1711.909 -4148.337)" fill="#263238"/>
    <path id="Trazado_632337" data-name="Trazado 632337" d="M138.828,295.521c-.144.169,12.075,10.863,27.293,23.884s27.674,23.442,27.82,23.272-12.074-10.862-27.3-23.886-27.673-23.439-27.817-23.27" transform="translate(-1853.14 -4108.051)" fill="#fff"/>
    <path id="Trazado_632338" data-name="Trazado 632338" d="M154.526,295.521c-.146.169,10.147,9.254,22.987,20.291s23.368,19.849,23.514,19.68-10.146-9.253-22.988-20.292-23.366-19.848-23.512-19.679" transform="translate(-1884.557 -4108.052)" fill="#fff"/>
    <path id="Trazado_632339" data-name="Trazado 632339" d="M120.585,331.308s.045-.335.091-.986c.043-.68.105-1.642.186-2.893.037-.637.081-1.349.127-2.13.082-.78.248-1.625.386-2.544s.3-1.908.471-2.965a33.082,33.082,0,0,1,.8-3.322,58.125,58.125,0,0,1,6.748-16.16,60.542,60.542,0,0,1,15.431-17.2l2.623-1.953c.921-.6,1.891-1.156,2.851-1.747.98-.557,1.907-1.234,2.958-1.71q1.558-.746,3.147-1.508l1.6-.76,1.682-.612,3.41-1.242c1.158-.383,2.372-.629,3.57-.955a31.06,31.06,0,0,1,3.668-.831,56.307,56.307,0,0,1,7.661-.885c1.307-.045,2.623-.172,3.95-.152l4.009.208c.671.046,1.352.042,2.023.132l2.02.31c1.349.225,2.72.381,4.075.662a64.147,64.147,0,0,1,8.075,2.372,62.627,62.627,0,0,1,7.9,3.471c1.279.693,2.5,1.5,3.771,2.252.618.4,1.28.735,1.871,1.183l1.783,1.335a55.363,55.363,0,0,1,12.8,12.854l1.392,1.863,1.218,1.992,1.217,2a15.125,15.125,0,0,1,1.129,2.065l2.055,4.269q.818,2.232,1.642,4.483a59.971,59.971,0,0,1,0,38.2q-.823,2.251-1.642,4.484l-2.057,4.271-.516,1.059-.611,1.006-1.217,2.006-1.218,1.992-1.394,1.863a55.387,55.387,0,0,1-12.8,12.858l-1.783,1.335c-.589.448-1.251.786-1.871,1.183-1.266.752-2.493,1.559-3.771,2.254a63.189,63.189,0,0,1-7.9,3.471,64.2,64.2,0,0,1-8.076,2.372c-1.355.281-2.727.439-4.075.662l-2.02.31c-.673.09-1.352.085-2.023.132l-4.01.208c-1.327.02-2.643-.107-3.95-.152a56.3,56.3,0,0,1-7.661-.887A31.056,31.056,0,0,1,166.66,390c-1.2-.327-2.412-.572-3.57-.956l-3.412-1.242q-.844-.309-1.682-.612l-1.6-.76-3.148-1.508c-1.049-.477-1.978-1.153-2.956-1.71-.96-.592-1.931-1.144-2.851-1.749l-2.623-1.952A60.536,60.536,0,0,1,129.39,362.3a58.107,58.107,0,0,1-6.748-16.16,33.044,33.044,0,0,1-.8-3.32q-.253-1.586-.471-2.965c-.138-.919-.3-1.764-.386-2.544q-.07-1.172-.127-2.13c-.081-1.251-.143-2.21-.186-2.891-.047-.653-.091-.986-.091-.986s-.011.333.009.987c.025.682.059,1.646.105,2.9q.04.96.088,2.138c.07.784.225,1.634.349,2.559s.282,1.921.437,2.982a32.549,32.549,0,0,0,.764,3.345A57.759,57.759,0,0,0,129,362.535a60.736,60.736,0,0,0,15.472,17.428l2.638,1.983c.929.614,1.905,1.175,2.872,1.776.986.566,1.921,1.253,2.979,1.738L156.138,387l1.615.772q.844.309,1.7.625,1.707.625,3.444,1.266c1.169.391,2.393.645,3.606.977a31.073,31.073,0,0,0,3.706.851,56.736,56.736,0,0,0,7.744.916c1.321.05,2.652.181,3.993.164l4.057-.2c.679-.047,1.367-.042,2.048-.129l2.045-.31c1.364-.223,2.751-.381,4.125-.662a64.692,64.692,0,0,0,8.18-2.383,63.844,63.844,0,0,0,8-3.5c1.3-.7,2.539-1.516,3.823-2.276.628-.4,1.3-.742,1.9-1.2l1.807-1.349a56.038,56.038,0,0,0,12.979-13.01l1.412-1.886,1.237-2.017,1.234-2.031.62-1.02.524-1.073q1.039-2.153,2.085-4.326.832-2.262,1.668-4.543a60.732,60.732,0,0,0,0-38.706q-.837-2.279-1.668-4.542-1.046-2.169-2.083-4.325a15.334,15.334,0,0,0-1.146-2.09l-1.234-2.031-1.237-2.017-1.411-1.886a56.089,56.089,0,0,0-12.978-13.005l-1.807-1.349c-.6-.453-1.268-.8-1.9-1.2-1.282-.76-2.525-1.575-3.821-2.276a63.819,63.819,0,0,0-8-3.5,64.744,64.744,0,0,0-8.178-2.383c-1.373-.281-2.761-.439-4.125-.662l-2.045-.31c-.68-.088-1.367-.082-2.048-.129l-4.055-.2c-1.342-.017-2.672.115-3.993.163a56.986,56.986,0,0,0-7.744.918,31.067,31.067,0,0,0-3.706.849c-1.211.333-2.435.588-3.606.977l-3.443,1.266-1.7.625-1.615.772-3.173,1.536c-1.059.485-1.993,1.17-2.981,1.738-.967.6-1.944,1.163-2.871,1.775l-2.64,1.983A60.766,60.766,0,0,0,129,300.078a57.766,57.766,0,0,0-6.665,16.315,33.042,33.042,0,0,0-.764,3.345q-.233,1.6-.436,2.984c-.126.925-.281,1.775-.35,2.559q-.049,1.177-.088,2.139c-.046,1.254-.081,2.218-.105,2.9-.02.653-.009.987-.009.987" transform="translate(-1873.762 -4122.063)" fill="#263238"/>
    <path id="Trazado_632340" data-name="Trazado 632340" d="M198.6,352.115a19,19,0,0,0-1.528-2.074,58.308,58.308,0,0,1-3.878-5.81,53.522,53.522,0,0,1-4.655-44.37,58.224,58.224,0,0,1,2.589-6.489,18.737,18.737,0,0,0,1.063-2.345,2.193,2.193,0,0,0-.388.547c-.222.377-.577.918-.956,1.657A46.542,46.542,0,0,0,188,299.674a51.847,51.847,0,0,0,4.7,44.851,46.957,46.957,0,0,0,4.123,5.712c.525.645.986,1.1,1.28,1.423s.473.473.493.454" transform="translate(-1929.287 -4110.523)" fill="#263238"/>
    <path id="Trazado_632341" data-name="Trazado 632341" d="M181.24,334.058c-.11.194.369.676,1.07,1.076s1.359.569,1.47.375-.367-.674-1.07-1.076-1.359-.569-1.47-.375" transform="translate(-1908.714 -4086.894)" fill="#263238"/>
    <path id="Trazado_632342" data-name="Trazado 632342" d="M147.482,351.968a3.085,3.085,0,0,0,.377-.729c.211-.491.563-1.2.911-2.162a55,55,0,0,0,2.46-8.278,59.646,59.646,0,0,0-14.346-53.11,54.6,54.6,0,0,0-6.292-5.914c-.783-.653-1.446-1.091-1.876-1.411a3.062,3.062,0,0,0-.693-.439,30.905,30.905,0,0,0,2.367,2.09,64.929,64.929,0,0,1,6.069,6.053,61.015,61.015,0,0,1,14.211,52.616,64.993,64.993,0,0,1-2.2,8.285,30.706,30.706,0,0,0-.992,3" transform="translate(-1795.034 -4116.63)" fill="#fff"/>
    <path id="Trazado_632343" data-name="Trazado 632343" d="M149.85,277.456c-.017.222,1.59.538,3.592.7s3.638.122,3.655-.1-1.587-.538-3.589-.705-3.638-.121-3.658.1" transform="translate(-1833.381 -4118.098)" fill="#fff"/>
  </g>
</svg>
