<svg xmlns="http://www.w3.org/2000/svg" width="1031.577" height="436.973" viewBox="0 0 1031.577 436.973">
  <g id="Grupo_1034311" data-name="Grupo 1034311" transform="translate(-284.211 -11540.078)">
    <g id="Grupo_880346" data-name="Grupo 880346" transform="translate(284.211 11540.078)">
      <rect id="Rectángulo_276337" data-name="Rectángulo 276337" width="505.789" height="436.973" rx="20" fill="#f1efee"/>
    </g>
    <g id="Grupo_880352" data-name="Grupo 880352" transform="translate(810 11540.078)">
      <rect id="Rectángulo_276337-2" data-name="Rectángulo 276337" width="505.789" height="436.973" rx="20" fill="#f1efee"/>
    </g>
    <path id="Trazado_634313" data-name="Trazado 634313" d="M75.5,13.6a1.268,1.268,0,0,0-.479-1.055,5.954,5.954,0,0,0-1.683-.782,16.147,16.147,0,0,1-1.969-.782q-2.487-1.222-2.487-3.357a3.011,3.011,0,0,1,.62-1.876A4.008,4.008,0,0,1,71.254,4.48,6.823,6.823,0,0,1,73.8,4.027a5.969,5.969,0,0,1,2.474.492,3.917,3.917,0,0,1,1.7,1.4A3.661,3.661,0,0,1,78.584,8H75.508a1.547,1.547,0,0,0-.479-1.213,1.867,1.867,0,0,0-1.3-.431,2.106,2.106,0,0,0-1.305.365,1.074,1.074,0,0,0,.048,1.819,6.65,6.65,0,0,0,1.854.826,11.36,11.36,0,0,1,2.18.918,3.663,3.663,0,0,1,2.074,3.3,3.125,3.125,0,0,1-1.266,2.637,5.629,5.629,0,0,1-3.472.958,6.888,6.888,0,0,1-2.817-.558,4.247,4.247,0,0,1-1.9-1.529,3.985,3.985,0,0,1-.637-2.237h3.094a1.963,1.963,0,0,0,.532,1.516,2.513,2.513,0,0,0,1.727.488,1.985,1.985,0,0,0,1.208-.33A1.088,1.088,0,0,0,75.5,13.6Zm9.132,3.577a4.889,4.889,0,0,1-3.542-1.305,4.507,4.507,0,0,1-1.354-3.4v-.246a5.84,5.84,0,0,1,.541-2.575,3.955,3.955,0,0,1,1.578-1.727,4.763,4.763,0,0,1,2.461-.611,4.117,4.117,0,0,1,3.164,1.244,4.887,4.887,0,0,1,1.16,3.467v1.151H82.75a2.135,2.135,0,0,0,.694,1.257,2.066,2.066,0,0,0,1.389.457,2.662,2.662,0,0,0,2.2-.984l1.354,1.6a3.784,3.784,0,0,1-1.569,1.217A5.3,5.3,0,0,1,84.631,17.176ZM84.3,9.6q-1.3,0-1.547,1.723h2.988v-.229a1.467,1.467,0,0,0-.36-1.1A1.434,1.434,0,0,0,84.3,9.6Zm5.186,2.575a6.421,6.421,0,0,1,.475-2.549A3.821,3.821,0,0,1,91.32,7.917a3.591,3.591,0,0,1,2.065-.6,2.855,2.855,0,0,1,2.32,1l.105-.826H98.5V16.64a4.009,4.009,0,0,1-.584,2.184,3.75,3.75,0,0,1-1.692,1.424,6.219,6.219,0,0,1-2.566.5,5.365,5.365,0,0,1-2.026-.4,3.657,3.657,0,0,1-1.5-1.028l1.239-1.74a2.716,2.716,0,0,0,2.18.976,1.764,1.764,0,0,0,1.969-2.021v-.3a2.781,2.781,0,0,1-2.153.94,3.437,3.437,0,0,1-2.812-1.332,5.517,5.517,0,0,1-1.072-3.564Zm2.971.185a3.383,3.383,0,0,0,.439,1.85,1.387,1.387,0,0,0,1.23.681,1.573,1.573,0,0,0,1.4-.642v-4a1.534,1.534,0,0,0-1.38-.65,1.4,1.4,0,0,0-1.239.708A3.858,3.858,0,0,0,92.454,12.359Zm13.395,3.612a3.054,3.054,0,0,1-2.54,1.2,3,3,0,0,1-2.369-.91,3.826,3.826,0,0,1-.8-2.615V7.49H103.1v6.179a1.065,1.065,0,0,0,1.187,1.222,1.548,1.548,0,0,0,1.45-.729V7.49h2.979V17h-2.777ZM104.793,3.5h3.129l-2.443,2.76-2.417,0Zm8.262,3.99.1,1.116a3.225,3.225,0,0,1,2.716-1.292,2.713,2.713,0,0,1,2.219.888,4.226,4.226,0,0,1,.76,2.672V17h-2.971V11a1.6,1.6,0,0,0-.29-1.059,1.342,1.342,0,0,0-1.055-.338,1.413,1.413,0,0,0-1.292.686V17h-2.962V7.49ZM128.093,17h-2.971V3.5h2.971Zm7.181,0a3.344,3.344,0,0,1-.281-.853,2.754,2.754,0,0,1-2.285,1.028,3.374,3.374,0,0,1-2.285-.813,2.588,2.588,0,0,1-.94-2.043,2.66,2.66,0,0,1,1.143-2.338,5.821,5.821,0,0,1,3.322-.791h.914v-.5q0-1.316-1.134-1.316a.927.927,0,0,0-1.055,1.042H129.71a2.655,2.655,0,0,1,1.173-2.239,4.931,4.931,0,0,1,2.993-.86,4.323,4.323,0,0,1,2.874.888,3.086,3.086,0,0,1,1.081,2.435v4.21a4.311,4.311,0,0,0,.4,2V17Zm-1.854-1.934a1.652,1.652,0,0,0,.918-.237,1.487,1.487,0,0,0,.523-.536V12.772H134q-1.547,0-1.547,1.389a.848.848,0,0,0,.272.655A.986.986,0,0,0,133.419,15.066Zm10.16-2.892a5.809,5.809,0,0,1,.976-3.56,3.211,3.211,0,0,1,2.725-1.3,2.731,2.731,0,0,1,2.145,1V3.5H152.4V17h-2.663l-.149-1.02a2.8,2.8,0,0,1-2.32,1.2,3.205,3.205,0,0,1-2.689-1.3A5.993,5.993,0,0,1,143.58,12.175Zm2.962.185q0,2.531,1.477,2.531a1.458,1.458,0,0,0,1.406-.826V10.443a1.419,1.419,0,0,0-1.389-.844q-1.371,0-1.485,2.215Zm13.2,3.612a3.054,3.054,0,0,1-2.54,1.2,3,3,0,0,1-2.369-.91,3.826,3.826,0,0,1-.8-2.615V7.49h2.962v6.179a1.065,1.065,0,0,0,1.187,1.222,1.548,1.548,0,0,0,1.45-.729V7.49h2.979V17h-2.777Zm10.239-5.8-.976-.07a1.752,1.752,0,0,0-1.793.879V17h-2.962V7.49h2.777l.1,1.222a2.294,2.294,0,0,1,2.083-1.4,2.888,2.888,0,0,1,.826.105ZM176.143,17a3.344,3.344,0,0,1-.281-.853,2.754,2.754,0,0,1-2.285,1.028,3.374,3.374,0,0,1-2.285-.813,2.588,2.588,0,0,1-.94-2.043,2.66,2.66,0,0,1,1.143-2.338,5.821,5.821,0,0,1,3.322-.791h.914v-.5q0-1.316-1.134-1.316a.927.927,0,0,0-1.055,1.042H170.58a2.655,2.655,0,0,1,1.173-2.239,4.931,4.931,0,0,1,2.993-.86,4.323,4.323,0,0,1,2.874.888,3.086,3.086,0,0,1,1.081,2.435v4.21a4.311,4.311,0,0,0,.4,2V17Zm-1.854-1.934a1.652,1.652,0,0,0,.918-.237,1.487,1.487,0,0,0,.523-.536V12.772h-.861q-1.547,0-1.547,1.389a.848.848,0,0,0,.272.655A.986.986,0,0,0,174.289,15.066Zm10.072-.176a1.317,1.317,0,0,0,.967-.338,1.241,1.241,0,0,0,.334-.945h2.777a3.288,3.288,0,0,1-1.121,2.566,4.168,4.168,0,0,1-2.887,1,4.22,4.22,0,0,1-3.27-1.3,5.125,5.125,0,0,1-1.2-3.6v-.123A5.792,5.792,0,0,1,180.5,9.6a3.872,3.872,0,0,1,1.534-1.7,4.573,4.573,0,0,1,2.373-.593,4.116,4.116,0,0,1,2.944,1.028,3.647,3.647,0,0,1,1.09,2.786h-2.777A1.626,1.626,0,0,0,185.3,10a1.244,1.244,0,0,0-.967-.4q-1.151,0-1.345,1.468a10.357,10.357,0,0,0-.062,1.283,4.068,4.068,0,0,0,.343,1.986A1.187,1.187,0,0,0,184.361,14.891ZM192.816,17h-2.971V7.49h2.971ZM189.669,5.038A1.322,1.322,0,0,1,190.126,4,1.943,1.943,0,0,1,192.5,4a1.322,1.322,0,0,1,.457,1.037,1.322,1.322,0,0,1-.457,1.037,1.943,1.943,0,0,1-2.373,0A1.322,1.322,0,0,1,189.669,5.038Zm4.6,7.119a5.613,5.613,0,0,1,.554-2.536,3.96,3.96,0,0,1,1.591-1.709,4.791,4.791,0,0,1,2.435-.6,4.373,4.373,0,0,1,3.366,1.323,5.076,5.076,0,0,1,1.23,3.6v.105a4.925,4.925,0,0,1-1.235,3.529,4.384,4.384,0,0,1-3.344,1.305,4.434,4.434,0,0,1-3.261-1.217,4.761,4.761,0,0,1-1.327-3.3Zm2.962.185a3.538,3.538,0,0,0,.413,1.934,1.376,1.376,0,0,0,1.222.615q1.582,0,1.617-2.435v-.3q0-2.558-1.635-2.558-1.485,0-1.608,2.206ZM199.25,3.5h3.129l-2.443,2.76-2.417,0Zm8.218,3.99.1,1.116a3.225,3.225,0,0,1,2.716-1.292A2.713,2.713,0,0,1,212.5,8.2a4.226,4.226,0,0,1,.76,2.672V17h-2.971V11A1.6,1.6,0,0,0,210,9.938a1.342,1.342,0,0,0-1.055-.338,1.413,1.413,0,0,0-1.292.686V17H204.69V7.49Z" transform="translate(403 11578.719)" fill="#12263f"/>
    <path id="Trazado_634314" data-name="Trazado 634314" d="M46.381,13.6a1.268,1.268,0,0,0-.479-1.055,5.954,5.954,0,0,0-1.683-.782,16.147,16.147,0,0,1-1.969-.782q-2.487-1.222-2.487-3.357a3.011,3.011,0,0,1,.62-1.876A4.008,4.008,0,0,1,42.136,4.48a6.823,6.823,0,0,1,2.549-.453,5.969,5.969,0,0,1,2.474.492,3.917,3.917,0,0,1,1.7,1.4A3.661,3.661,0,0,1,49.466,8H46.39a1.547,1.547,0,0,0-.479-1.213,1.867,1.867,0,0,0-1.3-.431,2.106,2.106,0,0,0-1.305.365,1.074,1.074,0,0,0,.048,1.819,6.65,6.65,0,0,0,1.854.826,11.36,11.36,0,0,1,2.18.918,3.663,3.663,0,0,1,2.074,3.3A3.125,3.125,0,0,1,48.2,16.218a5.629,5.629,0,0,1-3.472.958,6.888,6.888,0,0,1-2.817-.558,4.247,4.247,0,0,1-1.9-1.529,3.985,3.985,0,0,1-.637-2.237H42.47A1.963,1.963,0,0,0,43,14.368a2.513,2.513,0,0,0,1.727.488,1.985,1.985,0,0,0,1.208-.33A1.088,1.088,0,0,0,46.381,13.6Zm9.132,3.577a4.889,4.889,0,0,1-3.542-1.305,4.507,4.507,0,0,1-1.354-3.4v-.246a5.84,5.84,0,0,1,.541-2.575,3.955,3.955,0,0,1,1.578-1.727A4.763,4.763,0,0,1,55.2,7.314a4.117,4.117,0,0,1,3.164,1.244,4.887,4.887,0,0,1,1.16,3.467v1.151H53.632a2.135,2.135,0,0,0,.694,1.257,2.066,2.066,0,0,0,1.389.457,2.662,2.662,0,0,0,2.2-.984l1.354,1.6A3.784,3.784,0,0,1,57.7,16.723,5.3,5.3,0,0,1,55.513,17.176ZM55.179,9.6q-1.3,0-1.547,1.723h2.988v-.229a1.467,1.467,0,0,0-.36-1.1A1.434,1.434,0,0,0,55.179,9.6Zm5.186,2.575a6.421,6.421,0,0,1,.475-2.549A3.821,3.821,0,0,1,62.2,7.917a3.591,3.591,0,0,1,2.065-.6,2.855,2.855,0,0,1,2.32,1l.105-.826h2.689V16.64a4.009,4.009,0,0,1-.584,2.184,3.75,3.75,0,0,1-1.692,1.424,6.219,6.219,0,0,1-2.566.5,5.365,5.365,0,0,1-2.026-.4,3.657,3.657,0,0,1-1.5-1.028l1.239-1.74a2.716,2.716,0,0,0,2.18.976A1.764,1.764,0,0,0,66.4,16.534v-.3a2.781,2.781,0,0,1-2.153.94,3.437,3.437,0,0,1-2.812-1.332,5.517,5.517,0,0,1-1.072-3.564Zm2.971.185a3.383,3.383,0,0,0,.439,1.85,1.387,1.387,0,0,0,1.23.681,1.573,1.573,0,0,0,1.4-.642v-4a1.534,1.534,0,0,0-1.38-.65,1.4,1.4,0,0,0-1.239.708A3.858,3.858,0,0,0,63.335,12.359ZM76.73,15.972a3.054,3.054,0,0,1-2.54,1.2,3,3,0,0,1-2.369-.91,3.826,3.826,0,0,1-.8-2.615V7.49h2.962v6.179a1.065,1.065,0,0,0,1.187,1.222,1.548,1.548,0,0,0,1.45-.729V7.49H79.6V17H76.818ZM75.675,3.5H78.8L76.361,6.26l-2.417,0Zm8.262,3.99.1,1.116A3.225,3.225,0,0,1,86.75,7.314a2.713,2.713,0,0,1,2.219.888,4.226,4.226,0,0,1,.76,2.672V17H86.758V11a1.6,1.6,0,0,0-.29-1.059A1.342,1.342,0,0,0,85.414,9.6a1.413,1.413,0,0,0-1.292.686V17H81.16V7.49Zm11.54,4.658A5.709,5.709,0,0,1,96.461,8.6a3.233,3.233,0,0,1,2.716-1.283,2.761,2.761,0,0,1,2.338,1.2l.211-1.02h2.566V20.656h-2.971V16.209a2.757,2.757,0,0,1-2.162.967,3.2,3.2,0,0,1-2.685-1.305A6.027,6.027,0,0,1,95.477,12.148Zm2.962.185q0,2.558,1.477,2.558a1.43,1.43,0,0,0,1.406-.773V10.355A1.4,1.4,0,0,0,99.933,9.6q-1.38,0-1.485,2.206Zm13.192,3.639a3.054,3.054,0,0,1-2.54,1.2,3,3,0,0,1-2.369-.91,3.826,3.826,0,0,1-.8-2.615V7.49h2.962v6.179a1.065,1.065,0,0,0,1.187,1.222,1.548,1.548,0,0,0,1.45-.729V7.49H114.5V17h-2.777ZM119.243,17h-2.971V7.49h2.971ZM116.1,5.038A1.322,1.322,0,0,1,116.553,4a1.943,1.943,0,0,1,2.373,0,1.322,1.322,0,0,1,.457,1.037,1.322,1.322,0,0,1-.457,1.037,1.943,1.943,0,0,1-2.373,0A1.322,1.322,0,0,1,116.1,5.038Zm9.571,12.138a4.889,4.889,0,0,1-3.542-1.305,4.507,4.507,0,0,1-1.354-3.4v-.246a5.84,5.84,0,0,1,.541-2.575,3.955,3.955,0,0,1,1.578-1.727,4.763,4.763,0,0,1,2.461-.611,4.117,4.117,0,0,1,3.164,1.244,4.887,4.887,0,0,1,1.16,3.467v1.151h-5.889a2.135,2.135,0,0,0,.694,1.257,2.066,2.066,0,0,0,1.389.457,2.662,2.662,0,0,0,2.2-.984l1.354,1.6a3.784,3.784,0,0,1-1.569,1.217A5.3,5.3,0,0,1,125.667,17.176ZM125.333,9.6q-1.3,0-1.547,1.723h2.988v-.229a1.467,1.467,0,0,0-.36-1.1A1.434,1.434,0,0,0,125.333,9.6ZM125.3,3.491h3.129l-2.443,2.76-2.417,0Zm8.288,4,.1,1.116A3.225,3.225,0,0,1,136.4,7.314a2.713,2.713,0,0,1,2.219.888,4.226,4.226,0,0,1,.76,2.672V17h-2.971V11a1.6,1.6,0,0,0-.29-1.059,1.342,1.342,0,0,0-1.055-.338,1.413,1.413,0,0,0-1.292.686V17h-2.962V7.49ZM148.625,17h-2.971V3.5h2.971Zm7.181,0a3.344,3.344,0,0,1-.281-.853,2.754,2.754,0,0,1-2.285,1.028,3.374,3.374,0,0,1-2.285-.813,2.588,2.588,0,0,1-.94-2.043,2.66,2.66,0,0,1,1.143-2.338,5.821,5.821,0,0,1,3.322-.791h.914v-.5q0-1.316-1.134-1.316a.927.927,0,0,0-1.055,1.042h-2.962a2.655,2.655,0,0,1,1.173-2.239,4.931,4.931,0,0,1,2.993-.86,4.323,4.323,0,0,1,2.874.888,3.086,3.086,0,0,1,1.081,2.435v4.21a4.311,4.311,0,0,0,.4,2V17Zm-1.854-1.934a1.652,1.652,0,0,0,.918-.237,1.487,1.487,0,0,0,.523-.536V12.772h-.861q-1.547,0-1.547,1.389a.848.848,0,0,0,.272.655A.986.986,0,0,0,153.951,15.066Zm11.03-.738a.684.684,0,0,0-.4-.606,6.016,6.016,0,0,0-1.5-.475,6.853,6.853,0,0,1-1.828-.646,3.062,3.062,0,0,1-1.1-.971,2.319,2.319,0,0,1-.378-1.31,2.628,2.628,0,0,1,1.081-2.158,4.453,4.453,0,0,1,2.83-.848,4.934,4.934,0,0,1,3.023.853,2.666,2.666,0,0,1,1.143,2.241h-2.971q0-1.143-1.2-1.143a1.194,1.194,0,0,0-.782.259.8.8,0,0,0-.316.646.737.737,0,0,0,.387.642,3.654,3.654,0,0,0,1.235.4,10.671,10.671,0,0,1,1.49.378,2.706,2.706,0,0,1,2.145,2.646,2.491,2.491,0,0,1-1.156,2.118,5.068,5.068,0,0,1-2.993.817,5.172,5.172,0,0,1-2.18-.439,3.645,3.645,0,0,1-1.494-1.2,2.707,2.707,0,0,1-.536-1.591h2.769a1.145,1.145,0,0,0,.439.962,1.808,1.808,0,0,0,1.081.3,1.422,1.422,0,0,0,.91-.246A.787.787,0,0,0,164.981,14.328Zm8.376-2.153a6.421,6.421,0,0,1,.475-2.549,3.821,3.821,0,0,1,1.362-1.709,3.591,3.591,0,0,1,2.065-.6,2.855,2.855,0,0,1,2.32,1l.105-.826h2.689V16.64a4.009,4.009,0,0,1-.584,2.184,3.75,3.75,0,0,1-1.692,1.424,6.219,6.219,0,0,1-2.566.5,5.365,5.365,0,0,1-2.026-.4,3.657,3.657,0,0,1-1.5-1.028l1.239-1.74a2.716,2.716,0,0,0,2.18.976,1.764,1.764,0,0,0,1.969-2.021v-.3a2.781,2.781,0,0,1-2.153.94,3.437,3.437,0,0,1-2.812-1.332,5.517,5.517,0,0,1-1.072-3.564Zm2.971.185a3.383,3.383,0,0,0,.439,1.85,1.387,1.387,0,0,0,1.23.681,1.573,1.573,0,0,0,1.4-.642v-4a1.534,1.534,0,0,0-1.38-.65,1.4,1.4,0,0,0-1.239.708A3.858,3.858,0,0,0,176.328,12.359Zm12.331,4.816a4.889,4.889,0,0,1-3.542-1.305,4.507,4.507,0,0,1-1.354-3.4v-.246a5.84,5.84,0,0,1,.541-2.575,3.955,3.955,0,0,1,1.578-1.727,4.763,4.763,0,0,1,2.461-.611,4.117,4.117,0,0,1,3.164,1.244,4.887,4.887,0,0,1,1.16,3.467v1.151h-5.889a2.135,2.135,0,0,0,.694,1.257,2.066,2.066,0,0,0,1.389.457,2.662,2.662,0,0,0,2.2-.984l1.354,1.6a3.784,3.784,0,0,1-1.569,1.217A5.3,5.3,0,0,1,188.659,17.176ZM188.325,9.6q-1.3,0-1.547,1.723h2.988v-.229a1.467,1.467,0,0,0-.36-1.1A1.434,1.434,0,0,0,188.325,9.6Zm10.512,4.729a.684.684,0,0,0-.4-.606,6.016,6.016,0,0,0-1.5-.475,6.853,6.853,0,0,1-1.828-.646,3.062,3.062,0,0,1-1.1-.971,2.319,2.319,0,0,1-.378-1.31,2.628,2.628,0,0,1,1.081-2.158,4.453,4.453,0,0,1,2.83-.848,4.934,4.934,0,0,1,3.023.853,2.666,2.666,0,0,1,1.143,2.241H198.74q0-1.143-1.2-1.143a1.194,1.194,0,0,0-.782.259.8.8,0,0,0-.316.646.737.737,0,0,0,.387.642,3.654,3.654,0,0,0,1.235.4,10.671,10.671,0,0,1,1.49.378,2.706,2.706,0,0,1,2.145,2.646,2.491,2.491,0,0,1-1.156,2.118,5.068,5.068,0,0,1-2.993.817,5.172,5.172,0,0,1-2.18-.439,3.645,3.645,0,0,1-1.494-1.2,2.707,2.707,0,0,1-.536-1.591H196.1a1.145,1.145,0,0,0,.439.962,1.808,1.808,0,0,0,1.081.3,1.422,1.422,0,0,0,.91-.246A.787.787,0,0,0,198.836,14.328Zm7.69-9.2V7.49h1.564V9.547h-1.564V13.9a1.111,1.111,0,0,0,.193.747,1.037,1.037,0,0,0,.765.211,4.345,4.345,0,0,0,.738-.053v2.118a5.466,5.466,0,0,1-1.67.255,3.1,3.1,0,0,1-2.259-.721,2.954,2.954,0,0,1-.729-2.188V9.547h-1.213V7.49h1.213V5.126ZM212.38,17H209.41V7.49h2.971ZM209.234,5.038A1.322,1.322,0,0,1,209.691,4a1.943,1.943,0,0,1,2.373,0,1.322,1.322,0,0,1,.457,1.037,1.322,1.322,0,0,1-.457,1.037,1.943,1.943,0,0,1-2.373,0A1.322,1.322,0,0,1,209.234,5.038Zm4.6,7.119a5.613,5.613,0,0,1,.554-2.536,3.96,3.96,0,0,1,1.591-1.709,4.791,4.791,0,0,1,2.435-.6,4.373,4.373,0,0,1,3.366,1.323,5.076,5.076,0,0,1,1.23,3.6v.105a4.925,4.925,0,0,1-1.235,3.529,4.384,4.384,0,0,1-3.344,1.305,4.434,4.434,0,0,1-3.261-1.217,4.761,4.761,0,0,1-1.327-3.3Zm2.962.185a3.538,3.538,0,0,0,.413,1.934,1.376,1.376,0,0,0,1.222.615q1.582,0,1.617-2.435v-.3q0-2.558-1.635-2.558-1.485,0-1.608,2.206ZM227.032,7.49l.1,1.116a3.225,3.225,0,0,1,2.716-1.292,2.713,2.713,0,0,1,2.219.888,4.226,4.226,0,0,1,.76,2.672V17h-2.971V11a1.6,1.6,0,0,0-.29-1.059,1.342,1.342,0,0,0-1.055-.338,1.413,1.413,0,0,0-1.292.686V17h-2.962V7.49ZM239.82,17a3.344,3.344,0,0,1-.281-.853,2.754,2.754,0,0,1-2.285,1.028,3.374,3.374,0,0,1-2.285-.813,2.588,2.588,0,0,1-.94-2.043,2.66,2.66,0,0,1,1.143-2.338,5.821,5.821,0,0,1,3.322-.791h.914v-.5q0-1.316-1.134-1.316a.927.927,0,0,0-1.055,1.042h-2.962a2.655,2.655,0,0,1,1.173-2.239,4.931,4.931,0,0,1,2.993-.86A4.323,4.323,0,0,1,241.3,8.2a3.086,3.086,0,0,1,1.081,2.435v4.21a4.311,4.311,0,0,0,.4,2V17Zm-1.854-1.934a1.652,1.652,0,0,0,.918-.237,1.487,1.487,0,0,0,.523-.536V12.772h-.861q-1.547,0-1.547,1.389a.848.848,0,0,0,.272.655A.986.986,0,0,0,237.965,15.066Z" transform="translate(928 11578.719)" fill="#12263f"/>
    <path id="Trazado_634311" data-name="Trazado 634311" d="M20,0H418a20,20,0,0,1,20,20V124a20,20,0,0,1-20,20H20A20,20,0,0,1,0,124V20A20,20,0,0,1,20,0Z" transform="translate(318 11639.719)" fill="#ee8a56"/>
    <path id="Trazado_634312" data-name="Trazado 634312" d="M20,0H418a20,20,0,0,1,20,20V124a20,20,0,0,1-20,20H20A20,20,0,0,1,0,124V20A20,20,0,0,1,20,0Z" transform="translate(843.789 11639.719)" fill="#b6e1fd"/>
    <path id="Trazado_634310" data-name="Trazado 634310" d="M20,0H418a20,20,0,0,1,20,20V124a20,20,0,0,1-20,20H20A20,20,0,0,1,0,124V20A20,20,0,0,1,20,0Z" transform="translate(318 11803.719)" fill="#d5f36f"/>
    <path id="Trazado_634309" data-name="Trazado 634309" d="M20,0H418a20,20,0,0,1,20,20V124a20,20,0,0,1-20,20H20A20,20,0,0,1,0,124V20A20,20,0,0,1,20,0Z" transform="translate(843.789 11803.719)" fill="#ffb338"/>
    <g id="Grupo_880350" data-name="Grupo 880350" transform="translate(341.566 11641.566)">
      <g id="Grupo_20708" data-name="Grupo 20708" transform="translate(0 16.256)">
        <text id="Cookies_temporales:_se_crean_de_forma_temporal_o_por_sesión_en_una_subcarpeta_en_el_navegador_del_usuario_mientras_visita_la_página_web_de_la_empresa_turística._Una_vez_que_este_abandona_el_sitio_las_cookies_temporales_son_eliminadas." data-name="Cookies temporales: se crean de forma temporal o por sesión en una subcarpeta en el navegador del usuario mientras visita la página web de la empresa turística. Una vez que este abandona el sitio, las cookies temporales son eliminadas." fill="#12263f" font-size="16" font-family="Roboto-BoldItalic, Roboto" font-weight="700" font-style="italic"><tspan x="-193.66" y="17">Cookies </tspan><tspan y="17" font-family="Roboto-Bold, Roboto" font-style="normal">temporales:</tspan><tspan y="17" xml:space="preserve" font-family="Roboto-Regular, Roboto" font-weight="400" font-style="normal"> se crean de forma temporal o por </tspan><tspan x="-190.461" y="39" font-family="Roboto-Regular, Roboto" font-weight="400" font-style="normal">sesión en una subcarpeta en el navegador del usuario </tspan><tspan x="-188.164" y="61" font-family="Roboto-Regular, Roboto" font-weight="400" font-style="normal">mientras visita la página web de la empresa turística. </tspan><tspan x="-166.145" y="83" font-family="Roboto-Regular, Roboto" font-weight="400" font-style="normal">Una vez que este abandona el sitio, las </tspan><tspan y="83" font-family="Roboto-Italic, Roboto" font-weight="400">cookies</tspan><tspan y="83" font-family="Roboto-Regular, Roboto" font-weight="400" font-style="normal"> </tspan><tspan x="-98.117" y="105" font-family="Roboto-Regular, Roboto" font-weight="400" font-style="normal">temporales son eliminadas.</tspan></text>
      </g>
    </g>
    <g id="Grupo_880354" data-name="Grupo 880354" transform="translate(878.461 11658.822)">
      <g id="Grupo_20708-2" data-name="Grupo 20708">
        <text id="Cookies_propias:_estas_son_establecidas_por_el_mismo_dominio_que_aparece_en_el_navegador_del_usuario_es_decir_son_creadas_por_el_sitio_web_de_la_empresa_turística_y_se_muestran_en_la_barra_de_direcciones." data-name="Cookies propias: estas son establecidas por el mismo dominio que aparece en el navegador del usuario, es decir, son creadas por el sitio web de la empresa turística y se muestran en la barra de direcciones." fill="#12263f" font-size="16" font-family="Roboto-BoldItalic, Roboto" font-weight="700" font-style="italic"><tspan x="-165.094" y="17">Cookies </tspan><tspan y="17" font-family="Roboto-Bold, Roboto" font-style="normal">propias: </tspan><tspan y="17" font-family="Roboto-Regular, Roboto" font-weight="400" font-style="normal">estas son establecidas por el </tspan><tspan x="-172.059" y="39" font-family="Roboto-Regular, Roboto" font-weight="400" font-style="normal">mismo dominio que aparece en el navegador del </tspan><tspan x="-179.324" y="61" font-family="Roboto-Regular, Roboto" font-weight="400" font-style="normal">usuario, es decir, son creadas por el sitio web de la </tspan><tspan x="-163.863" y="83" font-family="Roboto-Regular, Roboto" font-weight="400" font-style="normal">empresa turística y se muestran en la barra de </tspan><tspan x="-43.086" y="105" font-family="Roboto-Regular, Roboto" font-weight="400" font-style="normal">direcciones.</tspan></text>
      </g>
    </g>
    <g id="Grupo_880351" data-name="Grupo 880351" transform="translate(344 11785.338)">
      <g id="Grupo_20708-3" data-name="Grupo 20708" transform="translate(0 53.256)">
        <text id="Cookies_permanentes:_siguen_en_la_subcarpeta_del_navegador_del_internauta_durante_el_tiempo_que_se_le_ha_establecido_o_hasta_que_sea_eliminada_por_el_usuario." data-name="Cookies permanentes: siguen en la subcarpeta del navegador del internauta durante el tiempo que se le ha establecido o hasta que sea eliminada por el usuario." fill="#12263f" font-size="16" font-family="Roboto-BoldItalic, Roboto" font-weight="700" font-style="italic"><tspan x="-179.258" y="17">Cookies </tspan><tspan y="17" font-family="Roboto-Bold, Roboto" font-style="normal">permanentes: </tspan><tspan y="17" font-family="Roboto-Regular, Roboto" font-weight="400" font-style="normal">siguen en la subcarpeta del </tspan><tspan x="-185.844" y="39" font-family="Roboto-Regular, Roboto" font-weight="400" font-style="normal">navegador del internauta durante el tiempo que se le </tspan><tspan x="-168.762" y="61" font-family="Roboto-Regular, Roboto" font-weight="400" font-style="normal">ha establecido o hasta que sea eliminada por el </tspan><tspan x="-28.613" y="83" font-family="Roboto-Regular, Roboto" font-weight="400" font-style="normal">usuario.</tspan></text>
      </g>
    </g>
    <g id="Grupo_880353" data-name="Grupo 880353" transform="translate(867 11844.219)">
      <g id="Grupo_20708-4" data-name="Grupo 20708">
        <text id="Cookies_de_terceros:_son_gestionadas_por_un_tercer_sitio_web_que_posee_parte_del_contenido_que_se_ve_en_la_página_que_se_visita_como_anuncios_o_imágenes." data-name="Cookies de terceros: son gestionadas por un tercer sitio web que posee parte del contenido que se ve en la página que se visita, como anuncios o imágenes." fill="#12263f" font-size="16" font-family="Roboto-BoldItalic, Roboto" font-weight="700" font-style="italic"><tspan x="-181.293" y="17">Cookies</tspan><tspan y="17" xml:space="preserve" font-family="Roboto-Bold, Roboto" font-style="normal"> de terceros:</tspan><tspan y="17" xml:space="preserve" font-family="Roboto-Regular, Roboto" font-weight="400" font-style="normal"> son gestionadas por un tercer </tspan><tspan x="-187.578" y="39" font-family="Roboto-Regular, Roboto" font-weight="400" font-style="normal">sitio web que posee parte del contenido que se ve en </tspan><tspan x="-182.355" y="61" font-family="Roboto-Regular, Roboto" font-weight="400" font-style="normal">la página que se visita, como anuncios o imágenes.</tspan></text>
      </g>
    </g>
  </g>
</svg>
