<svg xmlns="http://www.w3.org/2000/svg" xmlns:xlink="http://www.w3.org/1999/xlink" width="513" height="294" viewBox="0 0 513 294">
  <defs>
    <clipPath id="clip-path">
      <rect id="Rectángulo_329363" data-name="Rectángulo 329363" width="513" height="294" transform="translate(835 9260)" fill="#fff" stroke="#707070" stroke-width="1"/>
    </clipPath>
    <clipPath id="clip-path-2">
      <rect id="Rectángulo_329362" data-name="Rectángulo 329362" width="488.991" height="533.614" fill="#2b95f9"/>
    </clipPath>
    <clipPath id="clip-path-3">
      <rect id="Rectángulo_329327" data-name="Rectángulo 329327" width="488.991" height="533.614" fill="none"/>
    </clipPath>
    <clipPath id="clip-path-5">
      <rect id="Rectángulo_329328" data-name="Rectángulo 329328" width="34.698" height="6.428" fill="none"/>
    </clipPath>
    <clipPath id="clip-path-6">
      <rect id="Rectángulo_329329" data-name="Rectángulo 329329" width="75.409" height="23.645" fill="none"/>
    </clipPath>
    <clipPath id="clip-path-7">
      <rect id="Rectángulo_329330" data-name="Rectángulo 329330" width="47.276" height="40.581" fill="none"/>
    </clipPath>
    <clipPath id="clip-path-8">
      <rect id="Rectángulo_329331" data-name="Rectángulo 329331" width="6.269" height="8.143" fill="none"/>
    </clipPath>
    <clipPath id="clip-path-9">
      <rect id="Rectángulo_329332" data-name="Rectángulo 329332" width="49.967" height="82.459" fill="none"/>
    </clipPath>
    <clipPath id="clip-path-10">
      <rect id="Rectángulo_329333" data-name="Rectángulo 329333" width="73" height="7.811" fill="none"/>
    </clipPath>
    <clipPath id="clip-path-11">
      <rect id="Rectángulo_329334" data-name="Rectángulo 329334" width="86.939" height="16.085" fill="none"/>
    </clipPath>
    <clipPath id="clip-path-12">
      <rect id="Rectángulo_329336" data-name="Rectángulo 329336" width="18.236" height="69.9" fill="none"/>
    </clipPath>
    <clipPath id="clip-path-13">
      <rect id="Rectángulo_329337" data-name="Rectángulo 329337" width="12.916" height="113.311" fill="none"/>
    </clipPath>
    <clipPath id="clip-path-15">
      <rect id="Rectángulo_329339" data-name="Rectángulo 329339" width="86.099" height="79.861" fill="none"/>
    </clipPath>
    <clipPath id="clip-path-16">
      <rect id="Rectángulo_329342" data-name="Rectángulo 329342" width="488.991" height="533.614" transform="translate(-7 -6)" fill="none"/>
    </clipPath>
    <clipPath id="clip-path-17">
      <rect id="Rectángulo_329341" data-name="Rectángulo 329341" width="48.529" height="48.407" fill="#b1de19"/>
    </clipPath>
    <clipPath id="clip-path-19">
      <rect id="Rectángulo_329343" data-name="Rectángulo 329343" width="178.726" height="119.369" fill="none"/>
    </clipPath>
    <clipPath id="clip-path-21">
      <rect id="Rectángulo_329346" data-name="Rectángulo 329346" width="12.611" height="2.858" fill="none"/>
    </clipPath>
    <clipPath id="clip-path-22">
      <rect id="Rectángulo_329348" data-name="Rectángulo 329348" width="47.675" height="47.556" fill="#b6e1fd"/>
    </clipPath>
    <clipPath id="clip-path-23">
      <rect id="Rectángulo_329351" data-name="Rectángulo 329351" width="22.405" height="22.35" fill="none"/>
    </clipPath>
  </defs>
  <g id="Enmascarar_grupo_878827" data-name="Enmascarar grupo 878827" transform="translate(-835 -9260)" clip-path="url(#clip-path)">
    <g id="Grupo_880299" data-name="Grupo 880299" transform="translate(846.009 9272.251)">
      <g id="Grupo_880298" data-name="Grupo 880298" transform="translate(0 -9)" clip-path="url(#clip-path-2)">
        <g id="Grupo_880229" data-name="Grupo 880229">
          <g id="Grupo_880228" data-name="Grupo 880228" clip-path="url(#clip-path-3)">
            <path id="Trazado_632351" data-name="Trazado 632351" d="M356.547,160.614a2.349,2.349,0,0,0-.205-.6,7.854,7.854,0,0,0-.881-1.608,9.914,9.914,0,0,0-5.431-3.892,10.1,10.1,0,0,0-4.692-.228,10.241,10.241,0,0,0-4.846,2.366,10.063,10.063,0,0,0-3.125,5.059,10.153,10.153,0,0,0,4.486,11.254,10.115,10.115,0,0,0,5.756,1.535,10.232,10.232,0,0,0,5.151-1.6,10.053,10.053,0,0,0,3.253-3.381,9.871,9.871,0,0,0,1.267-6.55,7.822,7.822,0,0,0-.467-1.771,2.348,2.348,0,0,0-.266-.58c-.071.023.3.834.486,2.384a9.885,9.885,0,0,1-1.409,6.284,9.674,9.674,0,0,1-3.148,3.166,9.772,9.772,0,0,1-4.885,1.46,9.583,9.583,0,0,1-5.405-1.479,9.584,9.584,0,0,1-4.212-10.564,9.54,9.54,0,0,1,2.911-4.778,9.724,9.724,0,0,1,9.022-2.141,9.92,9.92,0,0,1,5.351,3.6c.932,1.254,1.222,2.1,1.289,2.065" transform="translate(-283.018 35)" fill="#e0e0e0"/>
            <path id="Trazado_632352" data-name="Trazado 632352" d="M368.82,154.223a1.886,1.886,0,0,0,.347-.031l1.052-.14,4.157-.6-.111-.064c.866,2.213,2,5.115,3.374,8.625l.059-.194-4.638,3.144-.094.064.012.113a22.544,22.544,0,0,1-.108,5.981l-.02.125.1.076,4.525,3.31-.075-.274c-1.164,2.675-2.4,5.513-3.694,8.493l.277-.147-5.512-1.037-.158-.029-.1.126a22.512,22.512,0,0,1-4.293,4.15l-.134.1.026.166c.267,1.713.561,3.6.861,5.526l.176-.308-8.629,3.41.357.108-3.168-4.616-.1-.151-.183.021a22.611,22.611,0,0,1-5.968-.091l-.185-.028-.112.152c-1.035,1.416-2.165,2.961-3.306,4.521l.378-.1-8.523-3.667.187.35,1.028-5.5.036-.19-.153-.12a22.494,22.494,0,0,1-4.157-4.261l0,0c-.613-.25-.17-.069-.308-.125h-.015l-.022,0-.043.006-.087.015-.175.027-.349.054-.7.109-1.389.218-2.762.433.347.2q-1.74-4.359-3.432-8.6l-.116.378q2.334-1.6,4.622-3.167l.157-.108-.023-.189a22.342,22.342,0,0,1,.082-5.952l.027-.185-.151-.11-4.537-3.291.1.367,3.662-8.506-.325.173,5.516,1.016.172.032.107-.136a22.5,22.5,0,0,1,4.276-4.165l.135-.1-.027-.166c-.3-1.893-.594-3.729-.881-5.523l-.164.288,8.615-3.442-.293-.088,3.186,4.6.079.115.138-.017a22.692,22.692,0,0,1,5.992.067l.127.018.074-.1,3.286-4.534-.228.061,8.542,3.621-.085-.157c-.394,2.2-.717,4-.987,5.509l-.011.063.049.037a23.722,23.722,0,0,1,3.309,3.108l.727.858a1.991,1.991,0,0,0,.246.28,2.327,2.327,0,0,0-.2-.314c-.146-.2-.368-.5-.689-.892a21.852,21.852,0,0,0-3.262-3.2l.038.1,1.067-5.5.022-.112-.107-.045-8.506-3.7-.138-.06-.09.121c-1.027,1.4-2.115,2.871-3.32,4.511l.2-.085a23.027,23.027,0,0,0-6.108-.107l.216.1c-1.006-1.471-2.048-3-3.16-4.621l-.109-.161-.183.072-8.632,3.4-.2.079.032.21c.279,1.8.566,3.632.86,5.527l.11-.265a23.023,23.023,0,0,0-4.4,4.254l.278-.1-5.514-1.032-.231-.043-.093.216q-1.8,4.145-3.682,8.5l-.1.223.2.144,4.531,3.3-.124-.3a22.91,22.91,0,0,0-.092,6.117l.134-.3-4.626,3.163-.209.142.093.236,3.429,8.6.093.237.253-.04,2.762-.432,1.389-.217.7-.109.349-.055.173-.027.087-.014.044-.007.022,0,.01,0h0c-.137-.056.308.124-.306-.125l0,0A23.047,23.047,0,0,0,336.114,186l-.117-.309c-.352,1.89-.7,3.765-1.026,5.5l-.047.249.234.1,8.526,3.659.23.1.148-.2,3.3-4.524-.3.123a23.154,23.154,0,0,0,6.131.083l-.287-.13,3.178,4.609.135.2.221-.088,8.619-3.433.213-.085-.036-.225c-.306-1.923-.608-3.811-.88-5.523l-.108.264a23.051,23.051,0,0,0,4.381-4.267l-.256.1,5.516,1.012.2.037.079-.185,3.65-8.511.073-.168-.148-.107-4.544-3.281.085.2a22.859,22.859,0,0,0,.065-6.088l-.08.177,4.609-3.186.107-.075-.048-.119c-1.42-3.491-2.592-6.38-3.486-8.58l-.032-.076-.079.014-4.1.7-1.06.191a2.427,2.427,0,0,0-.365.081" transform="translate(-286.022 31.855)" fill="#e0e0e0"/>
            <path id="Trazado_632353" data-name="Trazado 632353" d="M356.533,160.644c-.02.02-.153-.391-.552-1.1a9.839,9.839,0,0,0-2.256-2.75,9.969,9.969,0,0,0-12.329-.441,9.915,9.915,0,0,0,1.123,16.694,10.036,10.036,0,0,0,5.585,1.2,10.149,10.149,0,0,0,9.3-10.531,10.742,10.742,0,0,0-.2-1.6c-.049-.265-.109-.529-.177-.79l-.108-.389-.054-.189-.023-.083,0-.023a.15.15,0,0,1,0,.037.319.319,0,0,1-.213.269l-.376-.141a6.2,6.2,0,0,1,.458,1.225,9.393,9.393,0,0,1-.374,6.048,9.762,9.762,0,0,1-3.767,4.551,9.913,9.913,0,1,1-3.953-18.182,10.093,10.093,0,0,1,5.115,2.278,9.653,9.653,0,0,1,2.259,2.778,8.785,8.785,0,0,1,.411.844,2.054,2.054,0,0,0,.128.3.871.871,0,0,0-.066-.318,6.1,6.1,0,0,0-.358-.882,9.266,9.266,0,0,0-2.209-2.906,10.24,10.24,0,0,0-5.227-2.443A10.356,10.356,0,0,0,336.8,163.78a10.479,10.479,0,0,0,16.111,9.38,10.373,10.373,0,0,0,4.024-4.843,10.026,10.026,0,0,0,.4-6.455,6.761,6.761,0,0,0-.523-1.379l-.123-.229-.255.087a.358.358,0,0,0-.226.314.594.594,0,0,0,.006.087l.015.074.03.107.055.191.1.373c.065.248.122.5.17.749a10.419,10.419,0,0,1,.185,1.511,9.478,9.478,0,0,1-8.708,9.9,9.418,9.418,0,0,1-6.4-16.934,9.64,9.64,0,0,1,6.873-1.846,9.924,9.924,0,0,1,5.031,2.117,10.39,10.39,0,0,1,2.3,2.626c.428.677.605,1.08.661,1.036" transform="translate(-283.003 34.97)" fill="#e0e0e0"/>
            <path id="Trazado_632354" data-name="Trazado 632354" d="M369.033,154.288l5.61-.9-.079-.043c.889,2.221,2.066,5.163,3.511,8.773l.041-.137-4.718,3.235.2.164.071-.157-.256-.038a22.762,22.762,0,0,1-.085,6.042l.29-.037c-.022-.052-.048-.115-.075-.178l-.23.182c1.441,1.046,3.018,2.192,4.667,3.388l-.055-.2q-1.79,4.143-3.806,8.817l.205-.11-5.692-1.057.033.378.229-.085-.225-.307a22.808,22.808,0,0,1-4.345,4.215l.317.247c.028-.07.063-.152.1-.236l-.4-.045c.274,1.74.584,3.71.9,5.725l.135-.236-9.011,3.573.277.083-3.291-4.788-.3.353.255.115.07-.456a22.9,22.9,0,0,1-6.056-.09l.059.472.263-.11-.3-.373-3.437,4.7.306-.083-8.935-3.846.156.291c.327-1.746.7-3.724,1.073-5.723l-.519.045c.032.083.068.179.1.275l.421-.307a22.785,22.785,0,0,1-4.223-4.339l-.321.426c.082.034.177.074.273.112l.061-.526-5.765.9.305.174c-1.108-2.787-2.34-5.884-3.588-9.027l-.106.344,4.814-3.287-.432-.361c-.036.081-.078.172-.119.264l.557.086a22.735,22.735,0,0,1,.095-6.03l-.567.071c.034.08.073.171.111.263l.448-.353-4.7-3.43.1.361,3.854-8.888-.336.178,5.719,1.072-.052-.589-.247.093.349.477a22.787,22.787,0,0,1,4.334-4.191l-.471-.366c-.031.072-.064.153-.1.236l.594.07c-.277-1.777-.582-3.74-.888-5.715l-.193.337,8.971-3.535-.376-.115,3.258,4.764.392-.465-.193-.087-.094.6a22.792,22.792,0,0,1,6.018.1l-.076-.606-.178.075.379.481,3.4-4.62-.384.1,8.724,3.8-.186-.352c-.342,1.763-.711,3.676-1.083,5.594l.614-.053-.033-.088-.5.362a20.943,20.943,0,0,1,3.638,3.691l.258.334c.01.018.025.014.063.007a.321.321,0,0,1,.07,0l.021,0h.012c-.094.016.292-.331.421-.184a.3.3,0,0,1,.066.038l.022.018c.009.007-.007-.009-.015-.018l-.555-.658c-.369-.448-.765-.887-1.169-1.306a23.937,23.937,0,0,0-2.593-2.319l.118.309,1-5.564-.6.094.075.14.407-.444-8.541-3.624-.041.6.2-.055-.342-.493-3.354,4.625.3-.128a23.086,23.086,0,0,0-6.317-.07l.3.134-3.256-4.706-.351.48.261.079-.026-.593-8.615,3.442.386.444.146-.256-.578-.106q.456,2.857.9,5.669l.121-.3a22.916,22.916,0,0,0-4.555,4.439l.3-.113-5.669-1.043.089.568.289-.155-.424-.388q-1.853,4.309-3.659,8.508l.565.039-.09-.326-.465.32,4.673,3.388-.119-.282a22.783,22.783,0,0,0-.084,6.371l.124-.275-4.76,3.265.439.321c.036-.117.069-.227.1-.336l-.544.022c1.175,2.94,2.316,5.794,3.438,8.6l.4-.349-.309-.175-.1.52,5.707-.9-.263-.106a22.909,22.909,0,0,0,4.461,4.562l-.1-.261c-.367,1.977-.712,3.837-1.054,5.672l.495-.076-.166-.312-.338.367,8.525,3.658.034-.479-.336.092.272.394,3.4-4.659-.237.1a22.9,22.9,0,0,0,6.37.09l-.226-.1,3.267,4.745.26-.351-.317-.1.018.436,8.622-3.424-.269-.309-.156.275.4.074c-.328-2.084-.615-3.9-.893-5.672l-.082.2a22.76,22.76,0,0,0,4.538-4.4l-.191.071,5.654,1.05-.053-.345-.247.131.257.237,3.673-8.5-.31-.021c.027.1.048.171.068.243l.255-.175-4.624-3.364.059.142a22.647,22.647,0,0,0,.095-6.236l-.057.124L377.985,162l-.172-.128-.053.173.215-.009c-1.49-3.748-2.585-6.5-3.421-8.607l-.1.087.1.055.025-.129-5.545.847a9.521,9.521,0,0,0,1.379-.137l4.185-.572.2-.027-.177-.1-.1-.055-.172-.1.073.185c.817,2.113,1.885,4.877,3.34,8.638l.118.306.1-.314.053-.172.095-.308-.268.18L373.127,165l-.066.044.009.08a22.509,22.509,0,0,1-.128,6.163l-.014.09.074.053c1.361,1,2.79,2.052,4.608,3.387l.379.279-.124-.453c-.02-.074-.039-.147-.066-.244l-.122-.45-.187.428c-1.116,2.549-2.305,5.27-3.711,8.486l-.212.485.469-.248.247-.131.466-.247-.519-.1-5.65-1.071-.118-.022-.074.093a22.364,22.364,0,0,1-4.475,4.312l-.1.074.02.125c.273,1.772.554,3.589.875,5.675l.095.612.309-.539c.05-.086.1-.173.159-.275l.308-.536-.578.227-8.632,3.4-.615.243.632.194.317.1.632.194-.373-.546c-1.035-1.509-2.088-3.049-3.255-4.755l-.082-.119-.144.017a22.41,22.41,0,0,1-6.24-.1l-.148-.023-.09.123-3.41,4.652-.429.584.7-.19.336-.092.7-.19-.668-.288-8.518-3.675-.693-.3.354.666.166.312.356.665.139-.741c.344-1.835.694-3.694,1.065-5.669l.031-.162-.13-.1a22.306,22.306,0,0,1-4.352-4.47l-.1-.131-.166.026-5.709.89-.792.124.7.4.309.177.7.4-.3-.746c-1.117-2.806-2.255-5.662-3.426-8.6l-.3-.763-.24.785c-.033.11-.068.221-.1.336l-.24.787.68-.465,4.765-3.259.146-.1-.022-.175a22.234,22.234,0,0,1,.09-6.215l.027-.177-.146-.107c-1.534-1.114-3.083-2.238-4.669-3.392l-.691-.5.225.823c.03.107.059.215.09.325l.225.826.34-.787,3.668-8.5.343-.8-.768.407-.289.153-.769.41.857.158,5.669,1.048.183.033.114-.146a22.309,22.309,0,0,1,4.441-4.321l.151-.11-.03-.187q-.447-2.814-.9-5.671l-.139-.875-.44.769-.148.256-.443.776.83-.331,8.617-3.437.833-.333-.857-.26-.261-.08-.864-.263.513.742q1.616,2.339,3.253,4.707l.109.158.189-.025a22.548,22.548,0,0,1,6.15.071l.191.029.113-.157q1.668-2.3,3.355-4.624l.53-.731-.873.238-.2.055-.883.242.843.358,8.54,3.626.835.353-.428-.8-.075-.14-.433-.811-.164.9c-.331,1.839-.663,3.685-1,5.564l-.034.19.153.118a23.218,23.218,0,0,1,2.526,2.258c.4.411.774.83,1.14,1.274l.563.67.059.061.032.028a.38.38,0,0,0,.073.04c.129.148.517-.2.423-.184v0l0-.021-.009-.042c-.014-.058-.028-.119-.049-.183a1.447,1.447,0,0,0-.178-.353l-.273-.353a21.587,21.587,0,0,0-3.747-3.8l-.912-.729.411,1.091.033.087.4,1.061.215-1.113c.37-1.918.739-3.83,1.081-5.594l.048-.25-.235-.1-8.726-3.793-.234-.1-.151.2c-1.167,1.589-2.331,3.172-3.4,4.621l-.678.922,1.058-.442.178-.075,1.042-.436-1.117-.171a23.438,23.438,0,0,0-6.187-.1l-1.132.133,1.038.469.193.087,1.028.464-.636-.93c-1.124-1.641-2.243-3.275-3.261-4.762l-.142-.207-.235.092-8.968,3.541-.233.092.038.245c.309,1.974.615,3.938.892,5.713l.172,1.1.422-1.031.1-.236.418-1.021-.889.654a23.431,23.431,0,0,0-4.448,4.308l-.682.866,1.032-.389.247-.093,1.028-.387-1.08-.2-5.72-1.066-.24-.044-.1.223-3.846,8.892-.095.22.193.14,4.709,3.424.861.627-.412-.98c-.039-.091-.077-.182-.111-.263l-.41-.972-.157,1.043a23.272,23.272,0,0,0-.089,6.186l.125,1.037.431-.951c.042-.092.084-.183.119-.264l.432-.951-.864.59c-1.672,1.146-3.331,2.282-4.809,3.294l-.191.13.086.214c1.254,3.141,2.49,6.236,3.6,9.021l.084.209.221-.034,5.763-.908.979-.153-.918-.373-.273-.112-.913-.372.592.8a23.352,23.352,0,0,0,4.323,4.421l.76.593-.341-.9c-.037-.1-.073-.191-.1-.275l-.342-.9-.176.95c-.371,2-.738,3.977-1.062,5.725l-.039.207.194.083,8.943,3.827.187.08.119-.163,3.426-4.71.522-.717-.818.344-.263.11-.816.342.876.129a23.436,23.436,0,0,0,6.187.077l.85-.106-.78-.351-.255-.114-.785-.353.488.707,3.3,4.78.106.152.172-.069,9-3.6.162-.065-.027-.172c-.324-2.012-.641-3.982-.92-5.722l-.118-.734-.282.688c-.033.082-.068.164-.1.234l-.282.691.6-.444a23.222,23.222,0,0,0,4.408-4.307l.432-.555-.657.249-.229.086-.664.25.7.128,5.7,1.034.146.027.059-.136q1.995-4.677,3.768-8.833l.053-.121-.108-.077-4.682-3.366-.44-.318.21.5c.027.063.053.125.075.178l.213.5.078-.54a22.973,22.973,0,0,0,.052-6.12l-.06-.476-.2.437c-.025.056-.049.112-.07.157l-.2.442.4-.276c1.7-1.182,3.281-2.281,4.7-3.265l.076-.053-.036-.085-3.591-8.741-.022-.054-.057.01-4.184.741-1.053.206c-.244.06-.348.093-.348.093" transform="translate(-286.235 31.79)" fill="#e0e0e0"/>
            <path id="Trazado_632355" data-name="Trazado 632355" d="M113.857,184.655a9.576,9.576,0,0,0-1.452-2.1l.821-2.222-3.294-2.132-1.7,1.653a9.663,9.663,0,0,0-2.518-.465l-.994-2.149-3.842.816-.03,2.367a9.664,9.664,0,0,0-2.11,1.448l-2.227-.817-2.138,3.286,1.657,1.7a9.588,9.588,0,0,0-.466,2.511l-2.154.993.818,3.831,2.373.031a9.6,9.6,0,0,0,1.452,2.1l-.819,2.222,3.294,2.132,1.7-1.653a9.615,9.615,0,0,0,2.517.465l1,2.149,3.841-.816.031-2.366a9.589,9.589,0,0,0,2.109-1.449l2.228.819,2.137-3.286-1.656-1.7a9.546,9.546,0,0,0,.465-2.512l2.154-.993-.818-3.831Zm-4.544,3.322a4.213,4.213,0,1,1-5-3.235,4.2,4.2,0,0,1,5,3.235" transform="translate(257.031 40.254)" fill="#e0e0e0"/>
            <path id="Trazado_632356" data-name="Trazado 632356" d="M108.04,186.623a3.15,3.15,0,0,0-.3-1,4.188,4.188,0,0,0-1.988-2,4.246,4.246,0,0,0-1.935-.425,4.326,4.326,0,0,0-2.184.642,4.313,4.313,0,0,0-1.657,1.884,4.28,4.28,0,0,0,1.067,5,4.087,4.087,0,0,0,1.089.7,4.043,4.043,0,0,0,1.2.342,4.311,4.311,0,0,0,2.255-.3,4.231,4.231,0,0,0,1.594-1.176,4.176,4.176,0,0,0,1-2.636,3.186,3.186,0,0,0-.133-1.032c-.03,0,.069.368.038,1.03a4.174,4.174,0,0,1-1.032,2.528,4.12,4.12,0,0,1-3.691,1.367,3.91,3.91,0,0,1-1.129-.331,3.858,3.858,0,0,1-1.027-.671,4.065,4.065,0,0,1-1.009-4.722,4.115,4.115,0,0,1,1.56-1.792,4.123,4.123,0,0,1,3.928-.253,4.2,4.2,0,0,1,1.977,1.889c.3.591.357.964.385.956" transform="translate(258.304 41.608)" fill="#e0e0e0"/>
            <path id="Trazado_632357" data-name="Trazado 632357" d="M113.936,184.674a1.072,1.072,0,0,0,.148.011l.449.015,1.775.043-.037-.031c.2.983.472,2.274.8,3.836l.034-.067-2.158.984-.039.017,0,.043a9.525,9.525,0,0,1-.47,2.49l-.015.045.033.034,1.652,1.7-.011-.107-2.144,3.281.112-.037-2.225-.822-.057-.021-.046.04a9.578,9.578,0,0,1-2.089,1.43l-.055.028v.063c-.011.734-.022,1.542-.034,2.366l.086-.1-3.842.812.125.063-.994-2.15-.028-.064-.07,0a9.611,9.611,0,0,1-2.486-.461l-.068-.022-.05.049-1.7,1.652.148-.015-3.294-2.133.048.141c.258-.7.539-1.459.821-2.221l.025-.069-.049-.054a9.485,9.485,0,0,1-1.432-2.075v0l-.033-.065h-.073l-2.373-.029.117.094-.819-3.831-.066.134,2.153-.994.065-.029,0-.072a9.463,9.463,0,0,1,.459-2.48l.022-.068-.049-.05-1.658-1.695.014.142,2.134-3.287-.132.043,2.228.815.063.023.048-.044a9.568,9.568,0,0,1,2.083-1.436l.057-.028v-.064c.009-.811.017-1.6.027-2.366l-.08.1,3.839-.825-.1-.051,1,2.146.022.048.052,0a9.571,9.571,0,0,1,2.5.454l.047.015.033-.033,1.7-1.659-.089.009,3.3,2.118-.021-.064c-.321.89-.586,1.62-.806,2.227l-.007.022.015.017a9.872,9.872,0,0,1,1.158,1.533c.1.177.183.312.242.41a1.062,1.062,0,0,0,.081.135,1.189,1.189,0,0,0-.064-.145c-.047-.093-.118-.236-.225-.42a9.209,9.209,0,0,0-1.134-1.565l.007.039c.229-.6.5-1.331.835-2.217l.015-.039-.037-.025-3.285-2.146-.048-.031-.041.039-1.706,1.647.08-.018a9.736,9.736,0,0,0-2.538-.476l.075.05-.99-2.151-.031-.066-.073.015-3.842.809-.079.017v.08c-.011.768-.022,1.555-.034,2.366l.058-.091a9.677,9.677,0,0,0-2.134,1.462l.109-.022-2.227-.82-.082-.032-.049.075q-1.043,1.6-2.141,3.284l-.049.077.064.066,1.655,1.7L96,186.016a9.661,9.661,0,0,0-.472,2.541l.068-.1-2.154.991-.086.04.02.093q.4,1.889.817,3.831l.02.095h.1l2.372.031-.106-.066v0a9.8,9.8,0,0,0,1.469,2.128l-.023-.123c-.282.763-.561,1.52-.819,2.222l-.033.09.08.052,3.3,2.13.08.052.068-.065,1.7-1.654-.118.027a9.764,9.764,0,0,0,2.548.469l-.1-.066c.346.744.686,1.479,1,2.147l.037.082.089-.02,3.839-.821.085-.017v-.086c.01-.825.018-1.633.027-2.367l-.057.092a9.78,9.78,0,0,0,2.128-1.468l-.1.02,2.229.814.071.026.042-.064q1.12-1.732,2.129-3.291l.037-.058-.048-.049-1.662-1.691.018.08a9.629,9.629,0,0,0,.461-2.532l-.041.06,2.15-1,.044-.021-.01-.047c-.343-1.558-.626-2.847-.841-3.827l-.006-.031h-1.791l-.455,0a1.234,1.234,0,0,0-.157.006" transform="translate(256.954 40.234)" fill="#e0e0e0"/>
            <path id="Trazado_632358" data-name="Trazado 632358" d="M397.906,160.994a9.629,9.629,0,0,0-1.785-1.831l.434-2.328-3.607-1.55-1.4,1.913a9.655,9.655,0,0,0-2.56-.037l-1.342-1.951L384,156.659l.369,2.338a9.6,9.6,0,0,0-1.835,1.781l-2.334-.433-1.554,3.6,1.918,1.394a9.632,9.632,0,0,0-.037,2.554l-1.956,1.34,1.452,3.64,2.344-.367a9.623,9.623,0,0,0,1.785,1.83l-.434,2.328,3.607,1.55,1.4-1.913a9.656,9.656,0,0,0,2.56.037l1.342,1.951,3.65-1.448L395.9,174.5a9.558,9.558,0,0,0,1.835-1.781l2.334.433,1.554-3.6-1.918-1.394a9.631,9.631,0,0,0,.037-2.554l1.956-1.339-1.452-3.641Zm-3.922,4.035a4.211,4.211,0,1,1-5.472-2.351,4.2,4.2,0,0,1,5.472,2.351" transform="translate(-378.424 35.251)" fill="#e0e0e0"/>
            <path id="Trazado_632359" data-name="Trazado 632359" d="M392.8,163.72a3.168,3.168,0,0,0-.465-.933,4.187,4.187,0,0,0-2.3-1.639,4.248,4.248,0,0,0-1.981-.094,4.3,4.3,0,0,0-2.043,1,4.307,4.307,0,0,0-1.318,2.134,4.286,4.286,0,0,0,1.892,4.745,4.326,4.326,0,0,0,2.428.649,4.322,4.322,0,0,0,2.173-.674,4.247,4.247,0,0,0,1.374-1.426,4.172,4.172,0,0,0,.539-2.766,3.174,3.174,0,0,0-.3-1c-.028.01.13.351.212,1.009a4.18,4.18,0,0,1-.593,2.664,4.094,4.094,0,0,1-1.335,1.345,4.138,4.138,0,0,1-2.073.621,4.115,4.115,0,0,1-2.3-.627,4.068,4.068,0,0,1-1.789-4.486,4.094,4.094,0,0,1,1.236-2.027,4.118,4.118,0,0,1,3.83-.906,4.189,4.189,0,0,1,2.266,1.53c.394.533.514.891.541.877" transform="translate(-377.24 36.561)" fill="#e0e0e0"/>
            <path id="Trazado_632360" data-name="Trazado 632360" d="M397.992,161.015a.758.758,0,0,0,.148-.015l.445-.06,1.757-.254-.042-.025,1.431,3.648.022-.072-1.962,1.331-.034.023,0,.043a9.556,9.556,0,0,1-.045,2.533l-.007.048.039.028,1.914,1.4-.028-.1c-.492,1.131-1.014,2.333-1.562,3.593l.1-.055-2.332-.438-.059-.011-.037.048a9.582,9.582,0,0,1-1.819,1.758l-.05.038.01.063c.113.724.237,1.524.364,2.338l.066-.117-3.65,1.444.134.04-1.341-1.954-.039-.056-.069.007a9.586,9.586,0,0,1-2.529-.038l-.069-.01-.042.056-1.4,1.913.141-.039-3.606-1.551.07.131c.138-.735.285-1.528.436-2.327l.013-.072-.058-.044a9.543,9.543,0,0,1-1.762-1.806v0l-.044-.058-.071.011-2.344.367.13.075-1.453-3.64-.043.142,1.956-1.34.059-.04-.009-.071a9.5,9.5,0,0,1,.034-2.522l.011-.07-.058-.042-1.919-1.393.038.137q.794-1.843,1.55-3.6l-.123.065,2.335.43.064.012.041-.052a9.492,9.492,0,0,1,1.812-1.763l.052-.038-.01-.063c-.128-.8-.252-1.578-.373-2.336l-.062.108,3.645-1.455-.109-.033L389,157.232l.03.044.052-.006a9.6,9.6,0,0,1,2.538.028l.048.007.028-.038,1.391-1.919-.086.023,3.614,1.535-.032-.06c-.167.931-.305,1.695-.419,2.332l0,.022.018.015a9.892,9.892,0,0,1,1.4,1.318l.306.363a.87.87,0,0,0,.1.119,1.286,1.286,0,0,0-.087-.133c-.063-.085-.156-.212-.293-.377a9.354,9.354,0,0,0-1.382-1.352l.015.038c.123-.634.269-1.4.449-2.325l.009-.042-.041-.017-3.6-1.566-.052-.023-.034.047-1.4,1.909.075-.032a9.684,9.684,0,0,0-2.581-.044l.081.037-1.337-1.955-.042-.061-.069.027-3.652,1.441-.074.029.012.08c.118.76.239,1.536.364,2.338l.041-.1a9.7,9.7,0,0,0-1.858,1.8l.1-.04-2.332-.436-.087-.016-.036.081-1.557,3.6-.037.085.075.054,1.917,1.4-.046-.112a9.656,9.656,0,0,0-.039,2.584l.05-.112-1.957,1.339-.079.054.036.088q.714,1.795,1.45,3.64l.036.09.095-.015,2.344-.367-.116-.048,0,0a9.724,9.724,0,0,0,1.806,1.852l-.044-.117c-.149.8-.3,1.593-.434,2.328l-.017.094.089.037,3.607,1.549.087.037.055-.076c.482-.66.96-1.314,1.4-1.914l-.111.047a9.83,9.83,0,0,0,2.59.036l-.108-.049,1.345,1.95.052.074.082-.032,3.648-1.453.08-.032-.014-.085c-.129-.814-.256-1.612-.371-2.338l-.041.1a9.715,9.715,0,0,0,1.851-1.8l-.1.037,2.334.428.075.014.03-.069,1.546-3.6.027-.063-.055-.04-1.923-1.389.032.075a9.725,9.725,0,0,0,.028-2.573l-.031.067,1.951-1.347.041-.028-.017-.044c-.6-1.48-1.1-2.7-1.473-3.632l-.012-.028-.03,0-1.736.292-.449.08a.971.971,0,0,0-.154.033" transform="translate(-378.509 35.231)" fill="#e0e0e0"/>
            <path id="Trazado_632361" data-name="Trazado 632361" d="M394.53,120.326a16.089,16.089,0,0,0-2.983-3.06l.726-3.891-6.028-2.59-2.336,3.2a16.1,16.1,0,0,0-4.28-.061l-2.244-3.263-6.1,2.421.616,3.907a16.062,16.062,0,0,0-3.068,2.977l-3.9-.724-2.6,6.013,3.207,2.332a16.025,16.025,0,0,0-.061,4.268l-3.27,2.238,2.426,6.084,3.917-.615a16.059,16.059,0,0,0,2.984,3.06l-.726,3.891,6.028,2.59,2.337-3.2a16.136,16.136,0,0,0,4.277.061l2.245,3.263,6.1-2.421-.616-3.907a16.025,16.025,0,0,0,3.068-2.977l3.9.724,2.6-6.013-3.207-2.331a16.017,16.017,0,0,0,.061-4.267l3.271-2.238-2.427-6.084Zm-6.554,6.744a7.039,7.039,0,1,1-9.145-3.93,7.018,7.018,0,0,1,9.145,3.93" transform="translate(-357.475 25.133)" fill="#f5f5f5"/>
            <path id="Trazado_632362" data-name="Trazado 632362" d="M386,124.881a5.311,5.311,0,0,0-.776-1.558,7.013,7.013,0,0,0-3.838-2.741,7.125,7.125,0,0,0-3.309-.158,7.228,7.228,0,0,0-3.416,1.67,7.211,7.211,0,0,0-2.2,3.567,7.159,7.159,0,0,0,3.163,7.932,7.223,7.223,0,0,0,4.057,1.085,7.23,7.23,0,0,0,3.633-1.126,7.1,7.1,0,0,0,2.3-2.383,6.985,6.985,0,0,0,.9-4.623,5.31,5.31,0,0,0-.509-1.664c-.048.015.218.588.353,1.685a6.991,6.991,0,0,1-.99,4.454,6.867,6.867,0,0,1-2.23,2.248,6.938,6.938,0,0,1-3.465,1.038,6.9,6.9,0,0,1-3.837-1.048,6.8,6.8,0,0,1-2.989-7.5,6.864,6.864,0,0,1,2.067-3.389,6.888,6.888,0,0,1,6.4-1.514,7.012,7.012,0,0,1,3.788,2.559c.658.89.859,1.489.9,1.466" transform="translate(-355.497 27.322)" fill="#f5f5f5"/>
            <path id="Trazado_632363" data-name="Trazado 632363" d="M394.674,120.361a1.535,1.535,0,0,0,.246-.023l.744-.1,2.938-.425-.07-.04c.613,1.562,1.417,3.615,2.391,6.1l.037-.121-3.28,2.225-.059.04.009.071a15.954,15.954,0,0,1-.075,4.235l-.012.079.065.048,3.2,2.339-.048-.172c-.822,1.891-1.7,3.9-2.61,6.007l.175-.093-3.9-.731-.1-.018-.063.079a15.971,15.971,0,0,1-3.04,2.94l-.085.063.016.1c.189,1.211.4,2.548.61,3.908l.111-.194-6.1,2.413.224.067-2.24-3.264-.066-.1-.116.013a15.951,15.951,0,0,1-4.226-.064l-.117-.017-.07.1-2.339,3.2.239-.065-6.028-2.593.118.221c.229-1.23.477-2.555.727-3.891l.022-.12-.1-.075a15.869,15.869,0,0,1-2.944-3.017l0,0-.074-.1-.121.02-3.917.614.218.124q-1.229-3.083-2.427-6.083l-.073.238q1.652-1.132,3.27-2.239l.1-.069-.015-.118a15.794,15.794,0,0,1,.059-4.216l.017-.117-.1-.07-3.208-2.328.063.231q1.329-3.079,2.592-6.015l-.205.109,3.9.719.108.02.067-.086a15.947,15.947,0,0,1,3.03-2.949l.085-.063-.017-.1-.621-3.906-.1.182c2.143-.857,4.167-1.664,6.093-2.432l-.185-.056,2.253,3.257.049.071.087-.01a15.994,15.994,0,0,1,4.242.049l.08.011.047-.064,2.326-3.206-.144.039,6.04,2.563-.054-.1c-.279,1.556-.509,2.832-.7,3.9l-.006.039.031.023a16.62,16.62,0,0,1,2.339,2.2c.22.261.389.461.513.607a1.616,1.616,0,0,0,.172.2,2.241,2.241,0,0,0-.145-.221c-.1-.141-.262-.356-.49-.63a15.535,15.535,0,0,0-2.309-2.26l.023.063c.205-1.06.451-2.334.752-3.886l.013-.07-.066-.029-6.017-2.617-.087-.037-.057.076-2.347,3.192.127-.053a16.243,16.243,0,0,0-4.316-.075l.137.061-2.235-3.267-.07-.1-.114.045-6.1,2.408-.125.049.021.133c.2,1.269.4,2.568.609,3.908l.069-.167a16.249,16.249,0,0,0-3.106,3.006l.176-.066-3.9-.729-.146-.027-.059.136-2.6,6.01-.06.14.124.091,3.2,2.333-.079-.187a16.164,16.164,0,0,0-.064,4.321l.084-.187-3.271,2.237-.132.09.059.148q1.2,3,2.425,6.084l.059.15.16-.025,3.917-.614-.193-.08,0,0a16.285,16.285,0,0,0,3.02,3.095l-.074-.2c-.25,1.336-.5,2.663-.726,3.891l-.03.157.148.064,6.029,2.588.145.063.094-.128,2.334-3.2-.186.077a16.369,16.369,0,0,0,4.33.059l-.181-.081,2.246,3.259.085.124.14-.055,6.1-2.428.134-.053-.022-.141c-.217-1.361-.429-2.7-.621-3.907l-.069.167a16.27,16.27,0,0,0,3.1-3.014l-.161.06c1.363.252,2.694.5,3.9.717l.124.023.05-.117c.907-2.112,1.769-4.123,2.583-6.019l.046-.106-.094-.068-3.213-2.32.053.125a16.1,16.1,0,0,0,.048-4.3l-.05.112,3.261-2.252.068-.047-.031-.075c-1-2.473-1.831-4.516-2.46-6.071l-.02-.048-.05.009-2.9.488-.749.134a2.08,2.08,0,0,0-.258.055" transform="translate(-357.617 25.098)" fill="#f5f5f5"/>
          </g>
        </g>
        <g id="Grupo_880261" data-name="Grupo 880261">
          <g id="Grupo_880260" data-name="Grupo 880260" clip-path="url(#clip-path-3)">
            <path id="Trazado_632364" data-name="Trazado 632364" d="M270.972,105.78,252.1,114.24s29.477,41.91,35.566,48.658,65.609,15.144,65.609,15.144l2.848-24.826L305.382,144.6Z" transform="translate(-177.265 24.025)" fill="#ffb338"/>
            <path id="Trazado_632365" data-name="Trazado 632365" d="M293.354,157.75c.118.012.244-1.486.887-3.8a26.454,26.454,0,0,1,1.459-3.938,26.231,26.231,0,0,1,6.03-8.251,26.43,26.43,0,0,1,3.312-2.59c2.008-1.317,3.4-1.895,3.351-2a3.429,3.429,0,0,0-1.01.326,17.123,17.123,0,0,0-2.582,1.3,23.06,23.06,0,0,0-3.467,2.535,24.511,24.511,0,0,0-6.172,8.445,22.952,22.952,0,0,0-1.359,4.068,17.091,17.091,0,0,0-.448,2.849,3.353,3.353,0,0,0,0,1.059" transform="translate(-180.245 31.152)" fill="#fff"/>
            <path id="Trazado_632366" data-name="Trazado 632366" d="M261.994,146.223a11.919,11.919,0,0,0,1.893.645c1.229.377,3.019.887,5.239,1.488,4.439,1.2,10.608,2.732,17.477,4.175s13.138,2.52,17.686,3.2c2.275.341,4.119.593,5.4.741a12.107,12.107,0,0,0,1.993.171,11.856,11.856,0,0,0-1.956-.416l-5.36-.942c-4.526-.794-10.767-1.943-17.629-3.379s-13.034-2.9-17.5-3.988l-5.286-1.291a11.961,11.961,0,0,0-1.958-.4" transform="translate(-144.992 33.208)" fill="#fff"/>
            <path id="Trazado_632367" data-name="Trazado 632367" d="M297.115,108c-.133.117,7.5,8.949,17.048,19.727s17.4,19.422,17.53,19.305-7.5-8.948-17.05-19.728-17.395-19.42-17.528-19.3" transform="translate(-208.211 24.529)" fill="#fff"/>
            <path id="Trazado_632368" data-name="Trazado 632368" d="M306.339,132.316a.507.507,0,1,0,.041.028" transform="translate(-193.443 30.036)" fill="#fff"/>
            <path id="Trazado_632369" data-name="Trazado 632369" d="M281.222,148.595a.507.507,0,1,0,.041.028" transform="translate(-137.429 33.733)" fill="#fff"/>
            <path id="Trazado_632370" data-name="Trazado 632370" d="M293.3,145.92a.507.507,0,1,0,.041.028" transform="translate(-164.361 33.125)" fill="#fff"/>
            <path id="Trazado_632371" data-name="Trazado 632371" d="M313.193,124.626a.507.507,0,1,0,.041.028" transform="translate(-208.729 28.289)" fill="#fff"/>
            <path id="Trazado_632372" data-name="Trazado 632372" d="M320.374,116.483a.507.507,0,1,0,.041.028" transform="translate(-224.744 26.44)" fill="#fff"/>
            <g id="Grupo_880232" data-name="Grupo 880232" transform="translate(131.086 170.728)" opacity="0.3">
              <g id="Grupo_880231" data-name="Grupo 880231">
                <g id="Grupo_880230" data-name="Grupo 880230" clip-path="url(#clip-path-5)">
                  <path id="Trazado_632373" data-name="Trazado 632373" d="M262.732,139.543c-.142.871,7.512,2.831,17.09,4.377s17.463,2.093,17.6,1.222-7.51-2.83-17.092-4.377-17.46-2.093-17.6-1.222" transform="translate(-262.731 -139.129)" fill="#fff"/>
                </g>
              </g>
            </g>
            <path id="Trazado_632374" data-name="Trazado 632374" d="M270.765,150.467a.507.507,0,1,0,.041.028" transform="translate(-114.107 34.158)" fill="#fff"/>
            <path id="Trazado_632375" data-name="Trazado 632375" d="M265.93,141.639c-5.067-1.88-11.147.108-14.594,4.263a17.033,17.033,0,0,0-2.885,15.29c1.46,5.192,8.4,12.2,13.1,14.157" transform="translate(-81.755 32.007)" fill="#263238"/>
            <path id="Trazado_632376" data-name="Trazado 632376" d="M325.881,114.039a38.858,38.858,0,0,1-4.158-6.716,13.018,13.018,0,0,1-1.137-7.7,7.921,7.921,0,0,1,4.7-5.942,5.758,5.758,0,0,1,6.906,2.274l-5.008-9.882c-.613-1.209-1.209-2.729-.417-3.83a2.589,2.589,0,0,1,3.413-.337,7.506,7.506,0,0,1,2.291,2.952l7.411,13.858q3.272-5.11,6.542-10.218c.661-1.034,1.61-2.206,2.825-2.016a2.189,2.189,0,0,1,1.623,2.178,6.4,6.4,0,0,1-.828,2.8c-1.91,4.035-5.372,13.19-5.372,13.19Z" transform="translate(-256.033 18.493)" fill="#ffb338"/>
            <path id="Trazado_632377" data-name="Trazado 632377" d="M258.615,174.641c.1-.1-1.685-1.458-3.828-4.267a18.336,18.336,0,0,1-2.855-5.425,19.18,19.18,0,0,1-.754-7.444,27.176,27.176,0,0,1,4.359-12.887,9.521,9.521,0,0,1,2.752-3.052,8.289,8.289,0,0,1,1.394-.606c0-.018-.144-.028-.408.011a3.529,3.529,0,0,0-1.11.379,9.034,9.034,0,0,0-3,3.014,26.192,26.192,0,0,0-4.622,13.1,19.137,19.137,0,0,0,.832,7.672,17.927,17.927,0,0,0,3.057,5.518,22.37,22.37,0,0,0,2.949,3.051,6.252,6.252,0,0,0,1.239.94" transform="translate(-78.815 32.011)" fill="#455a64"/>
            <path id="Trazado_632378" data-name="Trazado 632378" d="M344.442,107.458a129.085,129.085,0,0,1-16.037,8.668c-2.2,1.02-4.933,1.958-6.91.553a4.607,4.607,0,0,1-1.529-4.717,10.325,10.325,0,0,1,2.614-4.491,28.67,28.67,0,0,1,13.535-8.451,11.834,11.834,0,0,1,5.7-.443,5.511,5.511,0,0,1,4.2,3.548,4.667,4.667,0,0,1-1.571,5.333" transform="translate(-250.735 22.347)" fill="#263238"/>
            <path id="Trazado_632379" data-name="Trazado 632379" d="M320.355,113.787c.1.055.821-1.464,2.48-3.556a23.239,23.239,0,0,1,18.056-8.868c2.676-.038,4.318.32,4.338.206a3.757,3.757,0,0,0-1.137-.319,18.934,18.934,0,0,0-3.2-.34,22.116,22.116,0,0,0-18.417,9.048,18.92,18.92,0,0,0-1.682,2.736,3.78,3.78,0,0,0-.439,1.093" transform="translate(-250.329 22.916)" fill="#455a64"/>
            <path id="Trazado_632380" data-name="Trazado 632380" d="M201.532,215.709c-.18.36,2.188,2.047,6.5,3.862a53.78,53.78,0,0,0,7.8,2.556,60.13,60.13,0,0,0,20.034,1.474,54.061,54.061,0,0,0,8.1-1.387c4.533-1.165,7.123-2.487,7-2.869-.143-.458-2.936.085-7.419.649-2.239.295-4.912.526-7.878.67a82.589,82.589,0,0,1-19.2-1.412c-2.911-.576-5.521-1.2-7.694-1.815-4.35-1.214-7.035-2.16-7.243-1.728" transform="translate(-9.892 48.967)" fill="#263238"/>
            <path id="Trazado_632381" data-name="Trazado 632381" d="M204.034,221.231c-.135.4,2.141,1.636,6.1,2.941a70.093,70.093,0,0,0,32.2,2.334c4.1-.72,6.535-1.62,6.458-2.031-.171-.931-10.181.5-22.463-.444-12.286-.839-21.986-3.7-22.29-2.8" transform="translate(-10.792 50.207)" fill="#263238"/>
            <path id="Trazado_632382" data-name="Trazado 632382" d="M231.1,74.31s40.6,7.488,40.086,43.742-34.893,30.165-44.875,28.889c-4.527-.579-13.548-1.858-22.059-3.083-18.052-2.6-31.521-11.355-32.591-29.516a33.262,33.262,0,0,1,.217-6.387c2.559-19.171,20.475-42.242,59.223-33.645" transform="translate(6.7 16.457)" fill="#ffb338"/>
            <path id="Trazado_632383" data-name="Trazado 632383" d="M195.785,107.264l51.806,10.964a10.027,10.027,0,1,0,4.173-19.614L199.958,87.649a10.027,10.027,0,1,0-4.173,19.615" transform="translate(-1.792 19.857)" fill="#263238"/>
            <path id="Trazado_632384" data-name="Trazado 632384" d="M200.752,104.257a3.226,3.226,0,1,0,3.226-3.218,3.222,3.222,0,0,0-3.226,3.218" transform="translate(34.825 22.948)" fill="#fff"/>
            <path id="Trazado_632385" data-name="Trazado 632385" d="M230.17,98a3.226,3.226,0,1,0,3.226-3.217A3.222,3.222,0,0,0,230.17,98" transform="translate(-30.783 21.528)" fill="#fff"/>
            <path id="Trazado_632386" data-name="Trazado 632386" d="M202.215,93a30.368,30.368,0,0,0,1.733-3.653,35.81,35.81,0,0,1,5.038-8.228,18.168,18.168,0,0,1,7.6-5.7,32.5,32.5,0,0,1,3.886-.983,3.294,3.294,0,0,0-1.1-.027,12.669,12.669,0,0,0-2.938.583,17.35,17.35,0,0,0-7.945,5.723,31.347,31.347,0,0,0-4.959,8.455c-.467,1.162-.808,2.114-1.032,2.777A3.6,3.6,0,0,0,202.215,93" transform="translate(19.768 16.896)" fill="#fff"/>
            <path id="Trazado_632387" data-name="Trazado 632387" d="M225.063,136.716c.081-.079-1.084-1.2-2.512-3.328a22.549,22.549,0,0,1-3.563-9.228,38.466,38.466,0,0,1,.084-9.991,32.586,32.586,0,0,0,.555-4.15,3.885,3.885,0,0,0-.341,1.079c-.176.7-.417,1.723-.662,3a33.626,33.626,0,0,0-.271,10.153,21.171,21.171,0,0,0,3.825,9.4,19.589,19.589,0,0,0,2.011,2.346,3.689,3.689,0,0,0,.873.724" transform="translate(-4.383 24.987)" fill="#fff"/>
            <g id="Grupo_880235" data-name="Grupo 880235" transform="translate(182.976 141.071)" opacity="0.3">
              <g id="Grupo_880234" data-name="Grupo 880234">
                <g id="Grupo_880233" data-name="Grupo 880233" clip-path="url(#clip-path-6)">
                  <path id="Trazado_632388" data-name="Trazado 632388" d="M187.455,119.844a32.636,32.636,0,0,1,15.789-4.787,78.821,78.821,0,0,1,16.616,1.136C232.582,118.1,245.6,121.1,255.9,128.786c2.9,2.167,5.628,4.794,6.96,8.159,0,0-5.462,2.242-16.358,1.517s-33.382-4.629-33.382-4.629-11.5-1.935-18-6.779-7.674-7.211-7.674-7.211" transform="translate(-187.455 -114.961)"/>
                </g>
              </g>
            </g>
            <path id="Trazado_632389" data-name="Trazado 632389" d="M185.386,94.871a8.1,8.1,0,0,0-.465,1.86,11.621,11.621,0,0,0,.5,5.459,12.541,12.541,0,0,0,5.5,6.634c2.939,1.81,6.766,2.8,10.93,3.684l29.313,6.4,8.475,1.841c2.895.593,5.813,1.361,8.9,1.76a14.007,14.007,0,0,0,9.262-1.574,13.266,13.266,0,0,0,5.7-7.782,13.066,13.066,0,0,0-1.119-9.568,14.337,14.337,0,0,0-6.938-6.336,24.691,24.691,0,0,0-4.431-1.281l-4.362-1.019L238.2,92.976l-15.615-3.635c-4.912-1.05-9.386-2.428-13.594-3.269a44.221,44.221,0,0,0-6.061-.823,23.472,23.472,0,0,0-5.461.187,17.226,17.226,0,0,0-8.013,3.343,12.029,12.029,0,0,0-3.416,4.291,8.369,8.369,0,0,0-.519,1.334,2.566,2.566,0,0,0-.135.468c.048.017.207-.632.771-1.745a12.26,12.26,0,0,1,3.453-4.153,17.112,17.112,0,0,1,7.914-3.184,23.262,23.262,0,0,1,5.38-.135,44.457,44.457,0,0,1,6,.861c4.168.86,8.643,2.265,13.551,3.339l15.6,3.692L246.5,95.54l4.361,1.027a24.151,24.151,0,0,1,4.328,1.254,13.719,13.719,0,0,1,6.627,6.061,12.434,12.434,0,0,1,1.063,9.1,12.642,12.642,0,0,1-5.417,7.407,13.385,13.385,0,0,1-8.854,1.493c-3.012-.383-5.95-1.147-8.844-1.734l-8.478-1.82-29.343-6.264c-4.169-.855-7.948-1.805-10.84-3.548a12.341,12.341,0,0,1-5.45-6.41,11.848,11.848,0,0,1-.6-5.36c.149-1.241.374-1.868.337-1.877" transform="translate(-2.284 19.345)" fill="#fff"/>
            <path id="Trazado_632390" data-name="Trazado 632390" d="M187.975,115.95A8.881,8.881,0,0,0,186,114.221a35.271,35.271,0,0,0-11.351-5.559,8.9,8.9,0,0,0-2.582-.5c-.055.2,3.831,1.182,8.227,3.346,4.405,2.144,7.563,4.608,7.685,4.446" transform="translate(89.344 24.56)" fill="#fff"/>
            <path id="Trazado_632391" data-name="Trazado 632391" d="M206.97,78.117a.507.507,0,1,0,.041.028" transform="translate(28.169 17.726)" fill="#fff"/>
            <path id="Trazado_632392" data-name="Trazado 632392" d="M212.207,85.764a.507.507,0,1,0,.041.028" transform="translate(16.489 19.463)" fill="#fff"/>
            <path id="Trazado_632393" data-name="Trazado 632393" d="M180.537,107.168a.507.507,0,1,0,.041.028" transform="translate(87.119 24.324)" fill="#fff"/>
            <path id="Trazado_632394" data-name="Trazado 632394" d="M174,110.673a.507.507,0,1,0,.041.028" transform="translate(101.708 25.12)" fill="#fff"/>
            <g id="Grupo_880238" data-name="Grupo 880238" transform="translate(226.83 91.179)" opacity="0.3">
              <g id="Grupo_880237" data-name="Grupo 880237">
                <g id="Grupo_880236" data-name="Grupo 880236" clip-path="url(#clip-path-7)">
                  <path id="Trazado_632395" data-name="Trazado 632395" d="M174.679,74.477c-.1.46,3.559,1.5,9.329,3.343,5.729,1.869,13.686,4.62,21.04,9.865a42.2,42.2,0,0,1,8.978,8.8,35.271,35.271,0,0,1,4.924,9c2.016,5.545,1.768,9.385,2.315,9.4.2.015.5-.918.636-2.67a22.963,22.963,0,0,0-.789-7.4,32.236,32.236,0,0,0-4.683-10.042,40.2,40.2,0,0,0-9.508-9.682,53.789,53.789,0,0,0-11.885-6.328A72.04,72.04,0,0,0,184.6,75.641c-6.037-1.313-9.842-1.566-9.924-1.163" transform="translate(-174.678 -74.303)" fill="#fff"/>
                </g>
              </g>
            </g>
            <g id="Grupo_880241" data-name="Grupo 880241" transform="translate(265.93 141.667)" opacity="0.3">
              <g id="Grupo_880240" data-name="Grupo 880240">
                <g id="Grupo_880239" data-name="Grupo 880239" clip-path="url(#clip-path-8)">
                  <path id="Trazado_632396" data-name="Trazado 632396" d="M176.373,123.372c.533.687,2.879-.268,4.595-2.68s1.863-4.932,1.037-5.209c-.845-.3-2.2,1.357-3.646,3.355-1.42,2.015-2.547,3.836-1.986,4.534" transform="translate(-176.225 -115.447)" fill="#fff"/>
                </g>
              </g>
            </g>
            <path id="Trazado_632397" data-name="Trazado 632397" d="M181.059,138.665c-2.467.7-2.31,36.234-1.783,54.371.283,9.722,1.012,19.861,5.981,28.23,5.536,9.322,16.071,15.268,26.908,16,13.04.879,25.929-5.417,34.849-14.944s14.2-21.983,17.043-34.708,3.4-25.832,3.94-38.858c0,0-42.218-22.73-86.939-10.089" transform="translate(0.845 30.625)" fill="#ffb338"/>
            <g id="Grupo_880244" data-name="Grupo 880244" transform="translate(216.925 184.391)" opacity="0.2">
              <g id="Grupo_880243" data-name="Grupo 880243">
                <g id="Grupo_880242" data-name="Grupo 880242" clip-path="url(#clip-path-9)">
                  <path id="Trazado_632398" data-name="Trazado 632398" d="M230.48,162.431c.293,11.45-1.732,24.674-5.414,34.238-3.982,10.347-9.774,19.685-19.433,27.479a60.389,60.389,0,0,1-8.565,5.356,37.852,37.852,0,0,1-8.095,3.025c-4.587,1.312-7.286-4.35-8.189-9.024s.79-9.573,3.643-13.389,6.775-6.7,10.792-9.267,8.209-4.9,11.914-7.9c6.374-5.164,11.077-12.14,14.577-19.548s5.868-15.289,8.223-23.135" transform="translate(-180.54 -150.263)"/>
                </g>
              </g>
            </g>
            <path id="Trazado_632399" data-name="Trazado 632399" d="M205.666,199.7a.507.507,0,1,0,.041.028" transform="translate(31.076 45.34)" fill="#fff"/>
            <path id="Trazado_632400" data-name="Trazado 632400" d="M218.5,199.192a.507.507,0,1,0,.041.028" transform="translate(2.452 45.225)" fill="#fff"/>
            <path id="Trazado_632401" data-name="Trazado 632401" d="M232.523,185.943a.507.507,0,1,0,.041.028" transform="translate(-28.82 42.215)" fill="#fff"/>
            <path id="Trazado_632402" data-name="Trazado 632402" d="M226.079,153.221a.507.507,0,1,0,.041.028" transform="translate(-14.449 34.784)" fill="#fff"/>
            <path id="Trazado_632403" data-name="Trazado 632403" d="M239.221,158.586a.507.507,0,1,0,.041.028" transform="translate(-43.757 36.002)" fill="#fff"/>
            <path id="Trazado_632404" data-name="Trazado 632404" d="M191.119,195.91a.507.507,0,1,0,.041.028" transform="translate(63.519 44.479)" fill="#fff"/>
            <path id="Trazado_632405" data-name="Trazado 632405" d="M189,185.02a.5.5,0,1,0,.042.028" transform="translate(68.247 42.006)" fill="#fff"/>
            <path id="Trazado_632406" data-name="Trazado 632406" d="M188.072,175.159a.507.507,0,1,0,.041.028" transform="translate(70.314 39.766)" fill="#fff"/>
            <path id="Trazado_632407" data-name="Trazado 632407" d="M187.138,164.68a.507.507,0,1,0,.041.028" transform="translate(72.398 37.386)" fill="#fff"/>
            <path id="Trazado_632408" data-name="Trazado 632408" d="M247.025,156.026a.507.507,0,1,0,.041.028" transform="translate(-61.162 35.421)" fill="#fff"/>
            <path id="Trazado_632409" data-name="Trazado 632409" d="M234.661,198.206a.5.5,0,1,0,.042.028" transform="translate(-33.589 45.001)" fill="#fff"/>
            <path id="Trazado_632410" data-name="Trazado 632410" d="M236.069,208.548a.507.507,0,1,0,.041.028" transform="translate(-36.728 47.349)" fill="#fff"/>
            <g id="Grupo_880247" data-name="Grupo 880247" transform="translate(191.688 178.724)" opacity="0.3">
              <g id="Grupo_880246" data-name="Grupo 880246">
                <g id="Grupo_880245" data-name="Grupo 880245" clip-path="url(#clip-path-10)">
                  <path id="Trazado_632411" data-name="Trazado 632411" d="M182.334,145.77c-.123.382,3.7,2.081,10.215,3.843a110.511,110.511,0,0,0,11.6,2.428,121.341,121.341,0,0,0,28.992.973,110.409,110.409,0,0,0,11.737-1.646c6.62-1.322,10.548-2.76,10.451-3.149-.2-.973-16.387,2.748-36.607,1.983-20.219-.593-36.118-5.391-36.388-4.434" transform="translate(-182.331 -145.645)" fill="#fff"/>
                </g>
              </g>
            </g>
            <path id="Trazado_632412" data-name="Trazado 632412" d="M187.6,227.395a4.206,4.206,0,0,0,.672-.525c.428-.36,1.043-.911,1.794-1.663a24.96,24.96,0,0,0,5.2-7.322,39.536,39.536,0,0,0,2.056-5.867c.641-2.132,1.272-4.426,1.924-6.842,1.289-4.839,2.551-10.2,3.678-15.867a257.113,257.113,0,0,0,4.081-29.3c.29-3.775.454-6.834.528-8.949.025-1.005.046-1.814.06-2.436a4.2,4.2,0,0,0-.022-.852,4.324,4.324,0,0,0-.107.845c-.046.62-.106,1.426-.181,2.428-.15,2.109-.381,5.16-.73,8.924a293.235,293.235,0,0,1-4.258,29.209c-1.124,5.655-2.366,11.007-3.62,15.842-.635,2.416-1.246,4.711-1.863,6.845a40.5,40.5,0,0,1-1.958,5.828,25.966,25.966,0,0,1-4.967,7.336c-.716.774-1.3,1.351-1.7,1.74a4.327,4.327,0,0,0-.584.621" transform="translate(50.614 33.563)" fill="#fff"/>
            <path id="Trazado_632413" data-name="Trazado 632413" d="M232.412,180.8c-.176-.021-1.5,9.751-2.956,21.822s-2.5,21.88-2.321,21.9,1.5-9.748,2.957-21.824,2.5-21.877,2.32-21.9" transform="translate(-22.835 41.063)" fill="#fff"/>
            <path id="Trazado_632414" data-name="Trazado 632414" d="M224.256,135.915c-.034-.028-.347.287-.881.88s-1.294,1.464-2.219,2.549c-1.853,2.17-4.376,5.194-7.134,8.56L213,149.152l-.125.153a.386.386,0,0,0-.144.194,2.556,2.556,0,0,0-.1.269l-.037.2c-.057.276-.084.535-.114.794-.109,1.033-.167,2.022-.216,2.965-.1,1.886-.138,3.583-.165,5.008s-.027,2.579-.016,3.377a4.8,4.8,0,0,0,.08,1.239,32.668,32.668,0,0,0,.389-4.6c.089-1.475.191-3.155.3-4.989.065-.936.135-1.923.251-2.927.032-.25.06-.506.111-.74l.033-.182a.479.479,0,0,0,.034-.1c0-.063.154-.155.214-.264l1.024-1.247c2.757-3.366,5.225-6.436,6.987-8.678.881-1.122,1.586-2.037,2.061-2.678a4.674,4.674,0,0,0,.689-1.037" transform="translate(3.839 30.869)" fill="#fff"/>
            <path id="Trazado_632415" data-name="Trazado 632415" d="M195.638,195.9a7.443,7.443,0,0,0,1.541.319c1,.166,2.447.369,4.242.591,3.59.445,8.567.924,14.08,1.205s10.517.3,14.132.223c1.808-.039,3.271-.1,4.28-.161a7.439,7.439,0,0,0,1.566-.162,7.48,7.48,0,0,0-1.571-.087l-4.277-.042c-3.609-.036-8.6-.134-14.1-.41s-10.469-.686-14.064-1.016l-4.26-.389a7.394,7.394,0,0,0-1.572-.072" transform="translate(12.84 44.488)" fill="#fff"/>
            <path id="Trazado_632416" data-name="Trazado 632416" d="M230.965,157.266c-.022.038.278.252.843.606a27.863,27.863,0,0,0,2.474,1.356,54.03,54.03,0,0,0,8.688,3.333,69,69,0,0,0,9.081,2.011,18.53,18.53,0,0,0,3.837.358,30.153,30.153,0,0,0-3.758-.8c-2.323-.463-5.517-1.163-8.979-2.181a72.864,72.864,0,0,1-8.677-3.128c-2.164-.947-3.458-1.642-3.509-1.554" transform="translate(-51.026 35.716)" fill="#fff"/>
            <path id="Trazado_632417" data-name="Trazado 632417" d="M212.078,172.073a14.414,14.414,0,1,0,14.414-14.378,14.4,14.4,0,0,0-14.414,14.378" transform="translate(-12.812 35.816)" fill="#263238"/>
            <path id="Trazado_632418" data-name="Trazado 632418" d="M215.256,171.351a10.5,10.5,0,1,0,10.5-10.477,10.49,10.49,0,0,0-10.5,10.477" transform="translate(-12.079 36.538)" fill="#fff"/>
            <path id="Trazado_632419" data-name="Trazado 632419" d="M219.027,173a10.785,10.785,0,0,0,.224-1.717c.1-1.079.239-2.617.379-4.5l-.13.2,5.62-2.743-.3-.017,5.215,3.445c.129.255-.173-.347-.143-.285v.05l0,.052-.006.1-.011.2-.025.407L229.8,169q-.046.8-.09,1.584c-.057,1.039-.111,2.049-.164,3.022l.166-.252-5.562,2.857.237.015c-1.6-1.014-2.913-1.825-3.844-2.386a10.9,10.9,0,0,0-1.513-.847,8.257,8.257,0,0,0,1.3,1c.877.626,2.173,1.529,3.8,2.632l.112.075.125-.061,5.62-2.743.155-.075.011-.177q.092-1.46.191-3.021.048-.782.1-1.584l.048-.807.023-.407.012-.2.006-.1,0-.052v-.048h0c.032.061-.272-.542-.145-.287l-5.234-3.414-.149-.1-.154.079c-2.057,1.058-3.943,2.026-5.562,2.857l-.125.064,0,.135c-.086,1.96-.134,3.537-.155,4.612a8.22,8.22,0,0,0,.027,1.632" transform="translate(-10.937 37.161)" fill="#e8505b"/>
            <g id="Grupo_880250" data-name="Grupo 880250" transform="translate(181.903 165.349)" opacity="0.2">
              <g id="Grupo_880249" data-name="Grupo 880249">
                <g id="Grupo_880248" data-name="Grupo 880248" clip-path="url(#clip-path-11)">
                  <path id="Trazado_632420" data-name="Trazado 632420" d="M265.894,148.777s-42.239-23.015-86.939-10.089c0,0,19.131,18.127,86.939,10.089" transform="translate(-178.955 -134.746)"/>
                </g>
              </g>
            </g>
            <path id="Trazado_632421" data-name="Trazado 632421" d="M234.9,376.895a.507.507,0,1,0,.041.028" transform="translate(-34.116 85.584)" fill="#fff"/>
            <path id="Trazado_632424" data-name="Trazado 632424" d="M243.016,260.609a5.231,5.231,0,0,0-.146.931c-.074.674-.172,1.565-.294,2.68-.247,2.4-.592,5.75-1.016,9.864-.864,8.326-2.133,19.822-3.766,32.488s-3.33,24.113-4.61,32.386c-.635,4.086-1.153,7.417-1.522,9.8-.165,1.111-.3,2-.4,2.668a5.354,5.354,0,0,0-.1.938,5.087,5.087,0,0,0,.223-.915l.514-2.648c.437-2.3,1.028-5.637,1.725-9.767,1.394-8.259,3.158-19.7,4.8-32.376s2.833-24.185,3.582-32.527c.375-4.17.651-7.548.813-9.884.073-1.12.13-2.015.175-2.691a5.259,5.259,0,0,0,.017-.942" transform="translate(-38.415 59.189)" fill="#fff"/>
            <path id="Trazado_632426" data-name="Trazado 632426" d="M245.106,337.794c3.929.193,7.221,3.329,8.777,6.934s1.717,7.631,1.854,11.553c.837,23.859,1.673,47.756.349,71.593-.287,5.16-.795,10.644-3.956,14.739s-9.946,5.8-13.52,2.054c-2.042-2.138-2.464-5.3-2.783-8.235q-4.648-42.652-9.294-85.306c-.351-3.215-.65-6.688.994-9.477,1.577-2.676,4.7-4.153,7.787-4.518a30.579,30.579,0,0,1,9.263.8" transform="translate(-46.129 76.543)" fill="#e8505b"/>
            <path id="Trazado_632427" data-name="Trazado 632427" d="M234.793,449.749a.989.989,0,0,0,.059-.285c.03-.228.066-.5.109-.843.085-.742.221-1.836.349-3.249.272-2.825.584-6.921.809-11.991.491-10.141.394-24.171-.082-39.637-.48-15.449-.914-29.431-1.23-39.619-.171-5.075-.914-9.2-2.063-11.829A16.96,16.96,0,0,0,231.2,339.4l-.514-.681c-.119-.151-.185-.225-.193-.218a1.053,1.053,0,0,0,.14.257c.123.193.274.426.459.712a19.574,19.574,0,0,1,1.426,2.916c1.062,2.622,1.728,6.7,1.842,11.755.268,10.188.636,24.169,1.043,39.619.476,15.465.643,29.472.269,39.6-.167,5.066-.41,9.16-.605,11.989q-.144,2.058-.229,3.257c-.018.341-.034.62-.047.849a1.016,1.016,0,0,0,.006.291" transform="translate(-30.997 76.881)" fill="#fff"/>
            <path id="Trazado_632428" data-name="Trazado 632428" d="M248.6,433.585a27.954,27.954,0,0,0,.34-7.311,9.429,9.429,0,0,0-3.3-6.35,12.1,12.1,0,0,0-10.887-1.06c-2.667,1.318-4.236,4.247-4.682,7.182l-1.837,8.9" transform="translate(-40.849 94.94)" fill="#263238"/>
            <path id="Trazado_632429" data-name="Trazado 632429" d="M264.049,430.367l-21.238.222s-15.625,3.525-15.29,4.78,37.149-.245,37.149-.245Z" transform="translate(-55.568 97.745)" fill="#e8505b"/>
            <path id="Trazado_632431" data-name="Trazado 632431" d="M237.849,285.784a.507.507,0,1,0,.041.028" transform="translate(-40.699 64.891)" fill="#fff"/>
            <path id="Trazado_632432" data-name="Trazado 632432" d="M240.385,307.182a.507.507,0,1,0,.041.028" transform="translate(-46.353 69.751)" fill="#fff"/>
            <path id="Trazado_632433" data-name="Trazado 632433" d="M235.306,263.953a.507.507,0,1,0,.041.028" transform="translate(-35.026 59.933)" fill="#fff"/>
            <path id="Trazado_632434" data-name="Trazado 632434" d="M235.306,356.488a.507.507,0,1,0,.041.028" transform="translate(-35.026 80.949)" fill="#fff"/>
            <path id="Trazado_632435" data-name="Trazado 632435" d="M228.054,424.689a10.2,10.2,0,0,0,2.742,1.023,33.784,33.784,0,0,0,14.034.853,10.163,10.163,0,0,0,2.847-.684c-.032-.2-4.419.711-9.87.357-5.453-.309-9.7-1.749-9.753-1.55" transform="translate(-39.236 96.451)" fill="#455a64"/>
            <g id="Grupo_880256" data-name="Grupo 880256" transform="translate(192.433 417.327)" opacity="0.2">
              <g id="Grupo_880255" data-name="Grupo 880255">
                <g id="Grupo_880254" data-name="Grupo 880254" clip-path="url(#clip-path-12)">
                  <path id="Trazado_632436" data-name="Trazado 632436" d="M244.479,409.052c-5.626-4.1-9.235-10.5-11.237-17.155s-2.54-13.654-3.083-20.586-1.111-13.927-3.165-20.571a8.97,8.97,0,0,1-.654-4.441c.509-2.386,2.945-3.783,5.173-4.787,2.757-1.243,6.227-2.271,8.6-.4,1.783,1.41,2.173,3.911,2.4,6.169,2.139,20.811,1.965,41.782,1.787,62.7" transform="translate(-226.242 -340.086)"/>
                </g>
              </g>
            </g>
            <path id="Trazado_632437" data-name="Trazado 632437" d="M228.8,337.489a15.111,15.111,0,1,0,15.112-15.074A15.093,15.093,0,0,0,228.8,337.489" transform="translate(-51.496 73.227)" fill="#263238"/>
            <path id="Trazado_632438" data-name="Trazado 632438" d="M229.15,332.93a3.731,3.731,0,0,0,.785.929,13.011,13.011,0,0,0,2.657,1.99,19.921,19.921,0,0,0,10.605,2.386,39.772,39.772,0,0,0,10.682-2.166c1.322-.437,2.379-.823,3.105-1.1a4.458,4.458,0,0,0,1.1-.5,37.251,37.251,0,0,0-4.343,1.171,45.819,45.819,0,0,1-10.574,1.958,20.823,20.823,0,0,1-10.362-2.143,26.428,26.428,0,0,1-3.661-2.523" transform="translate(-50.993 75.614)" fill="#455a64"/>
            <path id="Trazado_632439" data-name="Trazado 632439" d="M85.313,140.4s2.967-12.123,4.552-12.69,20.618,2.149,20.618,2.149,6.189-8.63,7.14-9.748c.934-1.095,3,1.707,2.345,3.006s-5.2,13.859-8.025,14.279-9.92-.124-9.92-.124l-2.31,7.89Z" transform="translate(263.946 27.223)" fill="#ffb338"/>
            <path id="Trazado_632440" data-name="Trazado 632440" d="M103.975,182.524c12.01,4.361,19.681,6.579,31.706,11.048,6.663,2.476,15.152,5.21,21.441,6.823,4.2,1.075,9,1.405,13.062-.362,3.456-1.5,6-4.506,8.271-7.505,10.669-14.071,16.6-31.9,20.752-49.047l-14.435-2.706-26.1,36.426L111.22,161.01l-7.82,19.245a1.417,1.417,0,0,0,.576,2.269" transform="translate(163.021 31.973)" fill="#ffb338"/>
            <path id="Trazado_632441" data-name="Trazado 632441" d="M175.368,150.015a16.8,16.8,0,0,1,5.752,29.056c-1.966,1.614-4.736,2.851-7.037.4a6.663,6.663,0,0,1-1.5-2.762,35.877,35.877,0,0,1,2.781-26.695" transform="translate(91.142 34.071)" fill="#263238"/>
            <path id="Trazado_632442" data-name="Trazado 632442" d="M183.767,153.979c.016-.015-.043-.11-.176-.275a3.388,3.388,0,0,0-.683-.648,1.439,1.439,0,0,0-.678-.26,2.056,2.056,0,0,0-.843.166,1.9,1.9,0,0,0-.784.6c-.2.261-.406.534-.619.815a25.2,25.2,0,0,0-4.548,10.176,23.919,23.919,0,0,0,.3,11.142,6.394,6.394,0,0,0,1.775,2.923,2.284,2.284,0,0,0,1.092.621c.03-.052-.38-.243-.921-.8a6.688,6.688,0,0,1-1.513-2.874,25.469,25.469,0,0,1-.106-10.885,26.949,26.949,0,0,1,4.286-10.038c.418-.582.711-1.168,1.181-1.355a1.211,1.211,0,0,1,1.245-.021c.647.4.948.761.989.712" transform="translate(90.024 34.703)" fill="#455a64"/>
            <path id="Trazado_632443" data-name="Trazado 632443" d="M126.2,170.459a3.461,3.461,0,0,0-.213,1.054,15.973,15.973,0,0,0-.119,2.93,19.723,19.723,0,0,0,.661,4.312,21.859,21.859,0,0,0,2.053,4.94,22.4,22.4,0,0,0,6.568,7.082,18.606,18.606,0,0,0,2.527,1.492,3.511,3.511,0,0,0,1,.406c.057-.106-1.309-.8-3.259-2.264a24.311,24.311,0,0,1-6.279-7.035,23.209,23.209,0,0,1-2.04-4.78,21.9,21.9,0,0,1-.777-4.183c-.2-2.425,0-3.943-.119-3.955" transform="translate(195.487 38.715)" fill="#fff"/>
            <path id="Trazado_632444" data-name="Trazado 632444" d="M136,160.874c-.063.166,10,4.091,22.473,8.769s22.639,8.337,22.7,8.171-10-4.09-22.476-8.769-22.638-8.337-22.7-8.171" transform="translate(140.506 36.536)" fill="#fff"/>
            <path id="Trazado_632445" data-name="Trazado 632445" d="M134.4,142.657a2.311,2.311,0,0,0-.255.566l-.61,1.659c-.517,1.446-1.274,3.533-2.271,6.087-1.967,5.12-4.926,12.1-8.674,19.584-1.887,3.734-3.794,7.235-5.6,10.38-1.844,3.119-3.539,5.912-5.075,8.185-.744,1.152-1.452,2.17-2.08,3.06s-1.156,1.666-1.618,2.279l-1.032,1.437a2.23,2.23,0,0,0-.325.529c.017.014.164-.141.427-.449l1.128-1.366c.493-.591,1.064-1.34,1.711-2.221s1.394-1.876,2.164-3.016c1.588-2.248,3.33-5.026,5.209-8.141,1.838-3.139,3.768-6.645,5.661-10.391a186.961,186.961,0,0,0,8.525-19.71c.945-2.582,1.639-4.7,2.083-6.166.2-.68.363-1.241.5-1.7a2.26,2.26,0,0,0,.132-.6" transform="translate(223.132 32.4)" fill="#fff"/>
            <path id="Trazado_632446" data-name="Trazado 632446" d="M143.189,174.243a.512.512,0,1,1,.044.023" transform="translate(169.164 39.36)" fill="#fff"/>
            <path id="Trazado_632447" data-name="Trazado 632447" d="M126.835,179.072a.509.509,0,1,1,.043.023" transform="translate(205.637 40.457)" fill="#fff"/>
            <path id="Trazado_632448" data-name="Trazado 632448" d="M119.429,167.464a.512.512,0,1,1,.044.023" transform="translate(222.154 37.821)" fill="#fff"/>
            <path id="Trazado_632449" data-name="Trazado 632449" d="M152.767,170.876a.512.512,0,1,1,.044.023" transform="translate(147.804 38.596)" fill="#fff"/>
            <path id="Trazado_632450" data-name="Trazado 632450" d="M164.59,167a.507.507,0,1,0,.041.028" transform="translate(122.684 37.914)" fill="#fff"/>
            <path id="Trazado_632451" data-name="Trazado 632451" d="M119.257,145.087a105.008,105.008,0,0,1-14.663-2.068c-1.931-.4-4.168-1.1-4.778-2.967a3.74,3.74,0,0,1,1.286-3.815,8.413,8.413,0,0,1,3.881-1.673,23.34,23.34,0,0,1,12.924,1,9.606,9.606,0,0,1,3.934,2.457,4.458,4.458,0,0,1,1.022,4.338,3.8,3.8,0,0,1-3.607,2.724" transform="translate(243.291 30.452)" fill="#263238"/>
            <path id="Trazado_632452" data-name="Trazado 632452" d="M100.055,137.858c.048.1,1.257-.531,3.352-1.085a19,19,0,0,1,16.04,2.9c1.767,1.252,2.676,2.266,2.757,2.189.03-.027-.164-.309-.571-.772a14.885,14.885,0,0,0-1.915-1.779,17.883,17.883,0,0,0-16.438-2.975,14.866,14.866,0,0,0-2.419,1c-.546.291-.825.487-.807.523" transform="translate(243.697 30.777)" fill="#455a64"/>
            <path id="Trazado_632453" data-name="Trazado 632453" d="M210.954,336.931c3.911.423,7.011,3.75,8.351,7.44s1.261,7.72,1.166,11.643c-.579,23.866-1.161,47.771-3.9,71.487-.593,5.134-1.425,10.579-4.824,14.48s-10.273,5.2-13.618,1.253c-1.912-2.254-2.144-5.436-2.289-8.385q-2.111-42.851-4.22-85.7c-.16-3.231-.252-6.715,1.554-9.4,1.733-2.579,4.934-3.868,8.041-4.052a30.545,30.545,0,0,1,9.2,1.346" transform="translate(32.836 76.236)" fill="#e8505b"/>
            <g id="Grupo_880259" data-name="Grupo 880259" transform="translate(249.421 285.135)" opacity="0.3">
              <g id="Grupo_880258" data-name="Grupo 880258">
                <g id="Grupo_880257" data-name="Grupo 880257" clip-path="url(#clip-path-13)">
                  <path id="Trazado_632455" data-name="Trazado 632455" d="M184.385,345.672c.436.066,1.831-6.257,3.737-16.543,1.89-10.286,4.29-24.555,6.145-40.432.94-7.933,1.635-15.534,2.2-22.411.609-6.873,1.021-13.227.336-18.565a27.149,27.149,0,0,0-4.024-12q-.675-.889-1.209-1.593a11.339,11.339,0,0,0-1.016-1.048c-.576-.54-.913-.78-.994-.706s.093.459.493,1.112c.189.335.477.7.741,1.192l.908,1.668a29.883,29.883,0,0,1,2.847,11.584c.37,5.089-.246,11.21-1.019,18.073-.729,6.885-1.508,14.411-2.444,22.323-1.848,15.808-3.885,30.085-5.2,40.457-1.334,10.369-1.939,16.823-1.5,16.89" transform="translate(-184.243 -232.361)" fill="#fff"/>
                </g>
              </g>
            </g>
            <path id="Trazado_632456" data-name="Trazado 632456" d="M191.356,360.137a1.5,1.5,0,0,0,.108-.339l.255-1.01c.221-.936.529-2.24.919-3.9.773-3.391,1.795-8.317,2.918-14.432,2.217-12.236,4.532-29.273,6.164-48.171.839-9.45,1.5-18.461,2.086-26.657.288-4.1.561-7.99.816-11.637a81.431,81.431,0,0,0,.283-10.183,28.089,28.089,0,0,0-1.578-8.263,19.589,19.589,0,0,0-3.084-5.556,14.64,14.64,0,0,0-2.909-2.772,7.987,7.987,0,0,0-1.192-.735,17.785,17.785,0,0,1,3.906,3.66,19.784,19.784,0,0,1,2.943,5.525,28.1,28.1,0,0,1,1.463,8.165,83.15,83.15,0,0,1-.359,10.12c-.274,3.646-.567,7.538-.875,11.633-.618,8.192-1.3,17.2-2.137,26.643-1.631,18.885-3.871,35.906-5.971,48.148-1.067,6.118-2.02,11.055-2.716,14.458-.341,1.668-.609,2.979-.8,3.921-.08.421-.143.757-.193,1.023a1.49,1.49,0,0,0-.044.353" transform="translate(48.618 51.44)" fill="#fff"/>
            <path id="Trazado_632457" data-name="Trazado 632457" d="M195.075,440.98a6.283,6.283,0,0,0,.171-1.023q.137-1.1.367-2.946c.309-2.561.706-6.271,1.158-10.86.905-9.178,1.952-21.877,2.72-35.929s1.1-26.8,1.193-36.016c.05-4.611.057-8.342.027-10.921q-.028-1.865-.044-2.968a6.276,6.276,0,0,0-.059-1.036,6.312,6.312,0,0,0-.07,1.036q-.028,1.1-.076,2.967c-.055,2.639-.134,6.353-.23,10.914-.212,9.216-.619,21.943-1.38,35.99s-1.742,26.739-2.532,35.923c-.4,4.544-.723,8.244-.955,10.875q-.155,1.859-.246,2.959a6.321,6.321,0,0,0-.043,1.037" transform="translate(48.295 77.057)" fill="#fff"/>
            <path id="Trazado_632458" data-name="Trazado 632458" d="M190.477,337.774A15.111,15.111,0,1,0,205.59,322.7a15.094,15.094,0,0,0-15.113,15.074" transform="translate(33.969 73.291)" fill="#263238"/>
            <path id="Trazado_632459" data-name="Trazado 632459" d="M215.516,436.5c-.034-2.447-.043-9.259-.712-11.612a9.439,9.439,0,0,0-4.2-5.8,12.1,12.1,0,0,0-10.924.548c-2.446,1.695-3.564,4.821-3.572,7.791l-.506,9.07" transform="translate(32.85 94.945)" fill="#263238"/>
            <path id="Trazado_632460" data-name="Trazado 632460" d="M232.065,430.69l-21.238-.2s-15.692,3.218-15.382,4.479,37.147.485,37.147.485Z" transform="translate(15.971 97.773)" fill="#e8505b"/>
            <path id="Trazado_632461" data-name="Trazado 632461" d="M196.959,269.067a.507.507,0,1,0,.041.028" transform="translate(50.495 61.094)" fill="#fff"/>
            <path id="Trazado_632462" data-name="Trazado 632462" d="M195.712,250.619a.507.507,0,1,0,.041.028" transform="translate(53.276 56.905)" fill="#fff"/>
            <path id="Trazado_632463" data-name="Trazado 632463" d="M198.5,291.722a.507.507,0,1,0,.041.028" transform="translate(47.06 66.24)" fill="#fff"/>
            <path id="Trazado_632464" data-name="Trazado 632464" d="M201.619,317.181a.507.507,0,1,0,.041.028" transform="translate(40.102 72.022)" fill="#fff"/>
            <path id="Trazado_632465" data-name="Trazado 632465" d="M198.092,356.043a.507.507,0,1,0,.041.028" transform="translate(47.968 80.848)" fill="#fff"/>
            <path id="Trazado_632466" data-name="Trazado 632466" d="M200.045,376.107a.507.507,0,1,0,.041.028" transform="translate(43.613 85.405)" fill="#fff"/>
            <path id="Trazado_632467" data-name="Trazado 632467" d="M200.279,398.6a.507.507,0,1,0,.041.028" transform="translate(43.091 90.514)" fill="#fff"/>
            <path id="Trazado_632468" data-name="Trazado 632468" d="M191.027,332.55a4.254,4.254,0,0,0,.88.9,19.09,19.09,0,0,0,2.783,2.009,22.026,22.026,0,0,0,21.784.518,19.156,19.156,0,0,0,2.876-1.874,4.257,4.257,0,0,0,.921-.857c-.073-.1-1.439,1.071-4,2.328a22.915,22.915,0,0,1-21.354-.507c-2.5-1.378-3.811-2.61-3.887-2.517" transform="translate(33.72 75.527)" fill="#455a64"/>
            <path id="Trazado_632469" data-name="Trazado 632469" d="M195.715,425.387a9.6,9.6,0,0,0,2.673,1.016,30.859,30.859,0,0,0,13.715.652,9.627,9.627,0,0,0,2.758-.757c-.038-.2-4.295.843-9.623.566-5.329-.23-9.468-1.676-9.524-1.476" transform="translate(33.362 96.609)" fill="#455a64"/>
            <path id="Trazado_632470" data-name="Trazado 632470" d="M214.4,99.563a4.118,4.118,0,0,0,.03,2.728,6.357,6.357,0,0,0,10.891,2.482,4.123,4.123,0,0,0,1.215-2.443,13.361,13.361,0,0,1-1.545,2.134,6.446,6.446,0,0,1-2.353,1.484,6.16,6.16,0,0,1-6.3-1.437,6.407,6.407,0,0,1-1.473-2.356,13.236,13.236,0,0,1-.463-2.592" transform="translate(-1.067 22.613)" fill="#fff"/>
          </g>
        </g>
        <g id="Grupo_880267" data-name="Grupo 880267">
          <g id="Grupo_880266" data-name="Grupo 880266" clip-path="url(#clip-path-3)">
            <path id="Trazado_632471" data-name="Trazado 632471" d="M322.409,43.219c4.226-14.7,20.238-28.367,35.571-28.326,12.832-3.78,30.126,3.259,36.991,10.843C403.991,35.7,409.687,49.493,406,62.406S391.95,85.976,379.377,90.779c-14.318,5.469-31.537,3.216-43.459-6.4s-17.736-26.458-13.51-41.16" transform="translate(-313.079 3.143)" fill="#2b95f9"/>
            <g id="Grupo_880264" data-name="Grupo 880264" transform="translate(-5.397 9.983)" opacity="0.8">
              <g id="Grupo_880263" data-name="Grupo 880263" transform="translate(13 7)">
                <g id="Grupo_880262" data-name="Grupo 880262" clip-path="url(#clip-path-15)">
                  <path id="Trazado_632472" data-name="Trazado 632472" d="M322.409,43.219c4.226-14.7,20.238-28.367,35.571-28.326,12.832-3.78,30.126,3.259,36.991,10.843C403.991,35.7,409.687,49.493,406,62.406S391.95,85.976,379.377,90.779c-14.318,5.469-31.537,3.216-43.459-6.4s-17.736-26.458-13.51-41.16" transform="translate(-321.036 -13.84)" fill="#fff"/>
                </g>
              </g>
            </g>
            <path id="Trazado_632473" data-name="Trazado 632473" d="M340.044,61.938a2.5,2.5,0,0,0,.031-.417c.007-.306.017-.7.03-1.187.015-1.082.036-2.6.063-4.523.027-3.946.066-9.572.116-16.489l-.119.2,19.667-11.253h-.3L379.152,39.6c.145.248-.192-.335-.158-.272v2.959q0,1.474,0,2.932,0,2.916,0,5.753c0,3.781.009,7.447.014,10.97l.151-.261-19.6,11.363h.237L345.425,64.9l-3.958-2.208-1.046-.568a2.444,2.444,0,0,0-.378-.182,1.689,1.689,0,0,0,.317.217l.989.6,3.865,2.3c3.433,2.009,8.326,4.872,14.344,8.395l.118.069.121-.069L379.466,62.2l.151-.087v-.174c0-3.523.009-7.19.013-10.97q0-2.836,0-5.753,0-1.456,0-2.932V39.325c.036.058-.3-.528-.164-.281L359.831,27.753l-.151-.087-.151.087-19.6,11.363-.119.07v.136c.049,6.959.089,12.617.116,16.588.027,1.911.048,3.414.063,4.488.012.477.022.859.03,1.157a1.711,1.711,0,0,0,.031.383" transform="translate(-308.673 6.283)" fill="#2b95f9"/>
            <path id="Trazado_632474" data-name="Trazado 632474" d="M340.069,37.166a9.467,9.467,0,0,0,1.481,1l4.157,2.512c3.525,2.1,8.415,4.954,13.836,8.076.643,0,.183,0,.328,0l.007,0,.016-.01.032-.018.064-.036.127-.074.253-.146.5-.29,1-.576,1.947-1.128,3.677-2.139,6.208-3.654,4.157-2.511a9.486,9.486,0,0,0,1.48-1,9.614,9.614,0,0,0-1.605.78l-4.258,2.336L367.2,43.818l-3.7,2.106-1.952,1.119-1,.573-.5.29-.253.146-.127.074-.063.036-.032.018-.016.01-.007,0a2.73,2.73,0,1,0,.312,0c-5.421-3.122-10.348-5.917-13.931-7.914l-4.259-2.335a9.521,9.521,0,0,0-1.605-.782" transform="translate(-308.698 8.44)" fill="#2b95f9"/>
            <path id="Trazado_632475" data-name="Trazado 632475" d="M356.118,68.761c.177,0,.32-5.055.32-11.287s-.143-11.289-.32-11.289-.32,5.053-.32,11.289.143,11.287.32,11.287" transform="translate(-305.146 10.489)" fill="#2b95f9"/>
          </g>
        </g>
        <g id="Grupo_880272" data-name="Grupo 880272">
          <g id="Grupo_880271" data-name="Grupo 880271" clip-path="url(#clip-path-16)">
            <path id="Trazado_632476" data-name="Trazado 632476" d="M166,211.874a19.663,19.663,0,0,0-3-4.308L164.67,203l-6.781-4.354-3.478,3.405a19.785,19.785,0,0,0-5.173-.936l-2.058-4.405-7.881,1.7-.046,4.858a19.8,19.8,0,0,0-4.319,2.989l-4.58-1.663-4.365,6.763,3.414,3.47a19.7,19.7,0,0,0-.939,5.159l-4.416,2.053,1.708,7.861,4.872.045a19.73,19.73,0,0,0,3,4.31l-1.668,4.567,6.781,4.354,3.479-3.405a19.766,19.766,0,0,0,5.172.938l2.058,4.4,7.881-1.7.046-4.859a19.69,19.69,0,0,0,4.319-2.989l4.58,1.664,4.365-6.763-3.414-3.47a19.647,19.647,0,0,0,.939-5.159l4.416-2.054-1.708-7.86Zm-9.308,6.852a8.649,8.649,0,1,1-10.286-6.606,8.628,8.628,0,0,1,10.286,6.606" transform="translate(156.81 38.676)" fill="#e8505b" fill-rule="evenodd"/>
            <g id="Grupo_880270" data-name="Grupo 880270" transform="translate(280.859 235.383)" opacity="0.5">
              <g id="Grupo_880269" data-name="Grupo 880269">
                <g id="Grupo_880268" data-name="Grupo 880268" clip-path="url(#clip-path-17)">
                  <path id="Trazado_632477" data-name="Trazado 632477" d="M166,211.874a19.663,19.663,0,0,0-3-4.308L164.67,203l-6.781-4.354-3.478,3.405a19.785,19.785,0,0,0-5.173-.936l-2.058-4.405-7.881,1.7-.046,4.858a19.8,19.8,0,0,0-4.319,2.989l-4.58-1.663-4.365,6.763,3.414,3.47a19.7,19.7,0,0,0-.939,5.159l-4.416,2.053,1.708,7.861,4.872.045a19.73,19.73,0,0,0,3,4.31l-1.668,4.567,6.781,4.354,3.479-3.405a19.766,19.766,0,0,0,5.172.938l2.058,4.4,7.881-1.7.046-4.859a19.69,19.69,0,0,0,4.319-2.989l4.58,1.664,4.365-6.763-3.414-3.47a19.647,19.647,0,0,0,.939-5.159l4.416-2.054-1.708-7.86Zm-9.308,6.852a8.649,8.649,0,1,1-10.286-6.606,8.628,8.628,0,0,1,10.286,6.606" transform="translate(-124.049 -196.707)" fill="#b1de19" fill-rule="evenodd"/>
                </g>
              </g>
            </g>
            <path id="Trazado_632478" data-name="Trazado 632478" d="M106.974,220.52c.022,0,.007-.141-.041-.4a4.735,4.735,0,0,0-.357-1.1,6.219,6.219,0,0,0-2.959-3.037,6.476,6.476,0,0,0-6.227.3,6.509,6.509,0,0,0,2.565,12.006,6.47,6.47,0,0,0,5.81-2.255,6.2,6.2,0,0,0,1.459-3.977,4.648,4.648,0,0,0-.124-1.151c-.062-.258-.1-.389-.127-.384-.063.01.065.555,0,1.527a6.226,6.226,0,0,1-1.554,3.691,5.972,5.972,0,1,1-2-9.351,6.24,6.24,0,0,1,2.928,2.738c.454.863.56,1.411.621,1.4" transform="translate(265.789 48.904)" fill="#263238"/>
            <path id="Trazado_632479" data-name="Trazado 632479" d="M115.716,217.63a6.257,6.257,0,0,0,.877.059l2.645.088-.1-.081c.3,1.479.688,3.393,1.156,5.7l.09-.182-3.208,1.452-.1.045-.006.115a14.153,14.153,0,0,1-.7,3.672l-.041.12.09.092c.763.79,1.588,1.643,2.447,2.53l-.028-.282-3.194,4.867.3-.1-3.3-1.226-.15-.055-.119.108a14.155,14.155,0,0,1-3.079,2.1l-.149.074,0,.168c-.016,1.09-.036,2.291-.054,3.513l.226-.275-5.707,1.2.333.167c-.459-1-.962-2.087-1.473-3.193l-.076-.167-.185-.01a14.06,14.06,0,0,1-3.656-.681l-.178-.058-.135.13L95.7,239.977l.39-.038-4.89-3.17.125.375,1.219-3.3.066-.182-.13-.144a13.972,13.972,0,0,1-2.1-3.051l0,0-.282-.175h-.218l-.221,0-.443,0-.885-.011-1.755-.022.309.252q-.618-2.882-1.218-5.688l-.177.353,3.2-1.477.172-.08.01-.189a13.878,13.878,0,0,1,.673-3.648l.058-.178-.13-.134q-1.251-1.276-2.464-2.516l.038.379,3.164-4.886-.349.117,3.31,1.206.165.06.128-.117a14.008,14.008,0,0,1,3.063-2.116l.15-.077,0-.167c.011-1.2.023-2.372.034-3.513l-.212.256,5.7-1.233-.273-.136,1.491,3.183.059.128.138.006a14.165,14.165,0,0,1,3.684.66l.123.039.09-.088,2.51-2.469-.235.023,4.917,3.127-.057-.169c-.469,1.315-.855,2.4-1.18,3.314l-.021.059.042.045a15.17,15.17,0,0,1,1.732,2.258c.33.526.488.816.5.8a1.043,1.043,0,0,0-.084-.221c-.066-.141-.17-.353-.325-.63a13.429,13.429,0,0,0-1.671-2.343l.02.106,1.256-3.286.041-.106-.1-.064c-1.382-.909-2.987-1.967-4.868-3.2l-.125-.082-.109.106-2.539,2.438.213-.049a14.568,14.568,0,0,0-3.793-.72l.2.134-1.463-3.2-.081-.177-.193.041-5.708,1.192-.208.044,0,.212c-.018,1.141-.037,2.309-.057,3.514l.153-.243a14.578,14.578,0,0,0-3.2,2.184l.292-.056L90.06,212l-.22-.082-.129.2-3.182,4.874-.133.2.171.175,2.455,2.522-.073-.313a14.577,14.577,0,0,0-.711,3.81l.182-.27q-1.583.729-3.2,1.471l-.23.106.053.248q.6,2.805,1.213,5.69l.053.249.256,0,1.757.022.883.012.443,0,.221,0h.218c-.125-.079.282.174-.28-.175v0a14.582,14.582,0,0,0,2.2,3.189l-.063-.324c-.418,1.133-.833,2.258-1.217,3.3l-.087.238.213.137,4.895,3.162.212.136.178-.175,2.522-2.457-.312.072a14.645,14.645,0,0,0,3.819.7l-.261-.175c.514,1.1,1.021,2.2,1.484,3.188l.1.216.233-.049,5.7-1.225.224-.049,0-.227c.012-1.222.025-2.424.036-3.513l-.15.242a14.591,14.591,0,0,0,3.184-2.2l-.269.052,3.312,1.2.191.07.109-.169c1.1-1.715,2.159-3.351,3.153-4.893l.1-.153-.127-.13-2.473-2.506.049.212a14.394,14.394,0,0,0,.679-3.784l-.108.161,3.187-1.5.119-.055-.028-.125c-.515-2.3-.944-4.205-1.274-5.677l-.017-.082h-.081c-1.106.009-1.971.015-2.6.021l-.68.016a1.143,1.143,0,0,0-.24.02" transform="translate(263.795 46.862)" fill="#263238"/>
            <path id="Trazado_632480" data-name="Trazado 632480" d="M106.881,220.536a4.578,4.578,0,0,0-.2-.749,6.1,6.1,0,0,0-1.095-1.962,6.315,6.315,0,1,0-8.761,9,6.4,6.4,0,0,0,3.389,1.361,6.5,6.5,0,0,0,7-5.641,6.928,6.928,0,0,0,.049-1.032c0-.172-.012-.344-.027-.515l-.026-.255-.014-.121,0-.05v0a.226.226,0,0,1-.006.045.325.325,0,0,1-.257.237l-.349-.2a3.865,3.865,0,0,1,.148.777,5.978,5.978,0,0,1-3.612,6.01,6.119,6.119,0,0,1-8.37-6.941,6.18,6.18,0,0,1,7.867-4.566,6.3,6.3,0,0,1,2.913,1.916,6.64,6.64,0,0,1,1.354,2.691,1.834,1.834,0,0,0-.113-.8,5.748,5.748,0,0,0-1.048-2.054,6.457,6.457,0,0,0-2.994-2.1,6.576,6.576,0,0,0-4.827.269,6.635,6.635,0,0,0-1.728,10.873,6.719,6.719,0,0,0,7.187,1.284,6.6,6.6,0,0,0,4.009-6.652,4.292,4.292,0,0,0-.185-.94l-.082-.247-.267.044c-.23.037-.3.322-.271.264a.507.507,0,0,0-.009.077l0,.056.006.074.015.125.025.239c.014.158.022.315.025.474a6.218,6.218,0,0,1-.044.938,5.844,5.844,0,0,1-9.394,3.9,5.826,5.826,0,0,1,.937-9.763,6,6,0,0,1,4.4-.431,6.2,6.2,0,0,1,2.877,1.808,10.531,10.531,0,0,1,1.484,2.55" transform="translate(265.882 48.888)" fill="#263238"/>
            <path id="Trazado_632481" data-name="Trazado 632481" d="M115.865,217.694l3.569.06-.069-.056c.312,1.479.726,3.422,1.23,5.807l.064-.129-3.266,1.5.167.2c.018-.026.039-.058.062-.09l-.246-.081a14.287,14.287,0,0,1-.7,3.718l.292.014c-.007-.036-.017-.077-.027-.119l-.256.141,2.528,2.593-.021-.206-3.3,5.057.22-.074-3.413-1.257-.03.378.15-.029-.171-.339a14.372,14.372,0,0,1-3.122,2.139l.272.3c.025-.04.054-.088.085-.136l-.386-.112c-.016,1.107-.033,2.36-.05,3.641l.172-.21-5.96,1.259.258.13-1.529-3.313-.352.3.146.1.145-.437a14.347,14.347,0,0,1-3.718-.691l-.021.475.175-.04-.229-.418-2.628,2.55.316-.032-5.126-3.325.1.313,1.271-3.431-.518-.042c.01.054.022.118.034.18l.466-.232a14.291,14.291,0,0,1-2.142-3.113l-.388.366.156.1.15-.509-3.666-.053.272.222c-.391-1.843-.825-3.89-1.266-5.969l-.161.322,3.329-1.529-.364-.427c-.032.045-.066.1-.1.15l.534.178a14.17,14.17,0,0,1,.693-3.7l-.571-.026c.012.054.027.114.041.175l.5-.274-2.551-2.62.037.372c1.033-1.584,2.175-3.332,3.329-5.1l-.362.119,3.429,1.266.048-.589-.162.032.264.529a14.274,14.274,0,0,1,3.1-2.122l-.4-.439-.085.136.574.167c.017-1.129.036-2.377.054-3.632l-.247.3,5.931-1.246-.352-.177c.472,1.03.993,2.16,1.514,3.294l.464-.393-.109-.075-.194.578a14.193,14.193,0,0,1,3.686.692l.028-.61-.119.027.293.537,2.594-2.5-.4.038,5,3.269-.124-.379c-.4,1.058-.828,2.2-1.261,3.351l.614.052-.011-.058-.554.272a13.039,13.039,0,0,1,1.847,2.644l.123.231s0-.032.027-.056a.133.133,0,0,1,.053-.026l.016,0h.01c-.09-.022.372-.268.447-.109a.28.28,0,0,1,.06.048l.02.025c.011.014,0,0,0,0l-.272-.464c-.182-.317-.384-.636-.59-.939a15.215,15.215,0,0,0-1.372-1.722l.065.324c.407-1.128.808-2.237,1.208-3.341l-.605-.007.032.094.476-.368-4.906-3.144-.141.584.132-.014-.255-.542q-1.292,1.263-2.566,2.512l.321-.075a14.649,14.649,0,0,0-3.937-.714l.272.183q-.766-1.638-1.519-3.257l-.427.414.153.076.075-.588-5.7,1.226.308.5.118-.142-.554-.2q-.02,1.819-.038,3.607l.169-.271a14.524,14.524,0,0,0-3.315,2.287l.312-.061-3.4-1.241-.009.574.2-.065-.352-.454-3.165,4.885.551.134-.021-.211-.514.238,2.538,2.589-.069-.3a14.35,14.35,0,0,0-.729,3.966l.169-.25-3.292,1.523.379.39c.034-.067.066-.132.1-.2l-.54-.069c.418,1.945.824,3.832,1.224,5.688l.454-.276-.173-.14-.182.5c1.255.014,2.449.027,3.63.042l-.241-.15a14.47,14.47,0,0,0,2.3,3.316l-.054-.275c-.435,1.187-.845,2.3-1.25,3.4l.5.009c-.025-.074-.047-.142-.07-.21l-.395.3c1.706,1.1,3.322,2.143,4.9,3.159l.113-.465-.218.022.2.433,2.6-2.53-.25.058a14.5,14.5,0,0,0,3.961.728l-.207-.139,1.525,3.281.314-.3-.186-.093-.055.433,5.7-1.219-.214-.351-.125.155.385.14c.015-1.325.028-2.48.042-3.606l-.114.182a14.369,14.369,0,0,0,3.291-2.264l-.2.038c1.277.466,2.352.86,3.393,1.242l.006-.35-.166.055.213.276,3.168-4.883-.3-.074c.006.063.011.11.016.157l.28-.129-2.512-2.567.034.151a14.3,14.3,0,0,0,.715-3.868l-.077.113,3.254-1.5-.149-.155c-.022.044-.036.072-.05.1l.213.028-1.224-5.688-.114.069.055.044.047-.123-3.525-.033a4.778,4.778,0,0,0,.869.074l2.652.1.2.007-.159-.131-.054-.045-.153-.126.039.2,1.139,5.7.064.321.149-.293c.015-.028.03-.056.052-.1l.146-.288-.3.134-3.27,1.47-.071.033,0,.08a14.158,14.158,0,0,1-.736,3.788l-.028.086.064.066,2.492,2.586.326.339-.046-.469c0-.047-.009-.094-.015-.158l-.044-.464-.257.39-3.2,4.862-.29.442.5-.166.167-.055.5-.164-.5-.184-3.385-1.263-.111-.042-.089.08a14,14,0,0,1-3.214,2.186l-.112.055,0,.128c-.018,1.127-.038,2.281-.06,3.607l-.011.62.4-.479c.039-.049.08-.1.127-.153l.394-.477-.608.126-5.707,1.193-.648.135.592.3.186.093.59.3-.276-.6-1.511-3.29-.06-.131-.145-.007a14,14,0,0,1-3.83-.718l-.141-.048-.108.106-2.607,2.52-.522.5.725-.07.218-.021.723-.07-.61-.4-4.885-3.176-.632-.411.237.715.069.211.239.715.262-.708c.408-1.1.822-2.214,1.261-3.4l.058-.155-.111-.12a13.927,13.927,0,0,1-2.207-3.206l-.074-.147-.169,0-3.63-.05-.8-.011.62.508.172.141.621.509-.167-.784c-.394-1.857-.8-3.745-1.209-5.691l-.171-.8-.369.734c-.032.065-.065.13-.1.2l-.369.735.749-.345,3.3-1.515.162-.075.007-.177a13.846,13.846,0,0,1,.709-3.811l.057-.169-.127-.129c-.832-.853-1.672-1.712-2.533-2.594l-.6-.61.084.849.021.211.084.852.467-.718q1.565-2.409,3.173-4.88l.472-.728-.825.274-.2.064-.827.275.818.3,3.4,1.246.176.064.138-.125a13.936,13.936,0,0,1,3.183-2.19l.167-.083,0-.189q.02-1.791.042-3.607l.011-.886-.565.685-.118.144-.567.69.875-.188,5.7-1.222.876-.187-.8-.4-.153-.076-.807-.4.38.817q.755,1.62,1.517,3.258l.081.174.191.009a14.034,14.034,0,0,1,3.771.685l.183.06.138-.135,2.567-2.511.646-.633-.9.09-.132.012-.912.091.77.493,4.906,3.145.764.49-.288-.859-.031-.094-.292-.872-.312.865-1.209,3.34-.066.182.132.142a14.617,14.617,0,0,1,1.315,1.65c.2.3.388.59.567.9l.279.476.037.054.025.029a.318.318,0,0,0,.064.052c.075.158.538-.086.448-.109v-.018l0-.034a1.039,1.039,0,0,0,0-.151.926.926,0,0,0-.082-.3l-.134-.253a13.748,13.748,0,0,0-1.936-2.775l-.775-.871.221,1.145.011.058.215,1.112.4-1.06c.433-1.149.864-2.295,1.261-3.351l.091-.239-.215-.14-5-3.268-.214-.139-.182.177-2.593,2.5-.824.8,1.117-.259.118-.028,1.1-.254-1.074-.356a14.814,14.814,0,0,0-3.85-.72l-1.139-.059.945.636.111.074.935.63-.471-1.022c-.522-1.135-1.042-2.264-1.516-3.294l-.106-.228-.246.053-5.93,1.25-.245.052,0,.249c-.018,1.255-.036,2.5-.052,3.632l-.015,1.113.589-.945.084-.135.584-.936-.987.5a14.819,14.819,0,0,0-3.235,2.219l-.818.74,1.083-.211.164-.032,1.078-.21-1.03-.379c-1.188-.437-2.369-.87-3.431-1.261l-.229-.083-.133.2-3.32,5.1-.13.2.167.171,2.555,2.615.744.761-.242-1.034c-.015-.06-.028-.12-.041-.174l-.241-1.027-.33,1a14.753,14.753,0,0,0-.714,3.851l-.049,1.043.584-.865.1-.151.584-.866-.95.439-3.326,1.535-.209.1.048.223c.445,2.078.884,4.124,1.281,5.966l.047.22.224,0,3.666.043.992.011-.841-.52-.157-.1-.838-.518.449.885a14.793,14.793,0,0,0,2.225,3.21l.651.711-.185-.942c-.012-.064-.025-.128-.036-.182l-.186-.949-.333.907-1.261,3.435-.073.2.177.114,5.136,3.308.172.11.145-.141c.916-.9,1.821-1.781,2.618-2.559l.635-.62-.864.2-.175.042-.862.2.841.274a14.833,14.833,0,0,0,3.848.7l.856.038-.71-.476-.146-.1-.715-.48.363.778c.543,1.161,1.075,2.3,1.544,3.307l.079.168.181-.039,5.954-1.287.171-.037v-.173c.011-1.281.022-2.534.032-3.641l.007-.745-.394.632-.084.135-.394.634.664-.339a14.632,14.632,0,0,0,3.2-2.219l.518-.475-.689.136-.15.029-.7.136.667.242,3.42,1.236.14.052.08-.125,3.262-5.078.073-.113-.093-.093-2.549-2.574-.381-.385.124.526c.01.042.02.083.028.118l.127.533.166-.52a14.5,14.5,0,0,0,.675-3.8l.02-.48-.267.4-.06.091-.269.4.438-.206,3.25-1.535.085-.039-.021-.09c-.54-2.376-.98-4.315-1.315-5.788l-.014-.056h-.057l-2.671.032-.674.023a2.184,2.184,0,0,0-.225.028" transform="translate(263.647 46.798)" fill="#263238"/>
          </g>
        </g>
        <path id="Trazado_632482" data-name="Trazado 632482" d="M178.726,9.66V129.03H0V118.086L166.8,9.66Z" transform="translate(310.265 2.194)" fill="#2b95f9"/>
        <g id="Grupo_880277" data-name="Grupo 880277" transform="translate(6 -3)">
          <g id="Grupo_880276" data-name="Grupo 880276" clip-path="url(#clip-path-3)">
            <g id="Grupo_880275" data-name="Grupo 880275" transform="translate(304.265 13.855)" opacity="0.8">
              <g id="Grupo_880274" data-name="Grupo 880274">
                <g id="Grupo_880273" data-name="Grupo 880273" clip-path="url(#clip-path-19)">
                  <path id="Trazado_632483" data-name="Trazado 632483" d="M0,118.087V129.03H178.725V9.661H166.8" transform="translate(0.001 -9.661)" fill="#fff"/>
                </g>
              </g>
            </g>
          </g>
        </g>
        <rect id="Rectángulo_329345" data-name="Rectángulo 329345" width="178.725" height="119.369" transform="translate(297.79 0.319)" fill="#fff"/>
        <g id="Grupo_880297" data-name="Grupo 880297">
          <g id="Grupo_880296" data-name="Grupo 880296" clip-path="url(#clip-path-3)">
            <path id="Trazado_632484" data-name="Trazado 632484" d="M10.138,119.688s.018-.746.027-2.172.017-3.543.03-6.3c.015-5.524.037-13.63.065-24.007.032-20.738.078-50.549.134-86.892l-.256.255L188.849.639h.014l-.32-.32c.01,42.526.018,82.966.027,119.369l.293-.292L60.1,119.54l-36.786.079-9.785.036-2.527.017c-.57.006-.867.017-.867.017s.276.011.833.017l2.494.017,9.726.036,36.72.079,128.952.145h.294v-.293c.009-36.4.017-76.843.027-119.369V0h-.335L10.138.064H9.882V.319c.057,36.41.1,66.274.134,87.052.028,10.352.05,18.439.065,23.95.012,2.734.022,4.826.028,6.25s.028,2.118.028,2.118" transform="translate(287.651)" fill="#2b95f9"/>
            <path id="Trazado_632485" data-name="Trazado 632485" d="M188.719,9c0-.177-39.979-.319-89.285-.319-49.322,0-89.292.142-89.292.319s39.97.319,89.292.319c49.306,0,89.285-.142,89.285-.319" transform="translate(287.796 1.972)" fill="#2b95f9"/>
            <path id="Trazado_632486" data-name="Trazado 632486" d="M13.545,4.826A1.433,1.433,0,1,0,14.977,3.4a1.43,1.43,0,0,0-1.432,1.428" transform="translate(455.918 0.772)" fill="#e8505b"/>
            <path id="Trazado_632487" data-name="Trazado 632487" d="M17.535,4.826A1.433,1.433,0,1,0,18.967,3.4a1.43,1.43,0,0,0-1.432,1.428" transform="translate(447.02 0.772)" fill="#e8505b"/>
            <path id="Trazado_632488" data-name="Trazado 632488" d="M21.467,4.826A1.433,1.433,0,1,0,22.9,3.4a1.43,1.43,0,0,0-1.432,1.428" transform="translate(438.251 0.772)" fill="#e8505b"/>
            <g id="Grupo_880280" data-name="Grupo 880280" transform="translate(459.717 4.169)" opacity="0.6">
              <g id="Grupo_880279" data-name="Grupo 880279">
                <g id="Grupo_880278" data-name="Grupo 880278" clip-path="url(#clip-path-21)">
                  <path id="Trazado_632489" data-name="Trazado 632489" d="M13.545,4.826A1.433,1.433,0,1,0,14.977,3.4a1.43,1.43,0,0,0-1.432,1.428" transform="translate(-3.799 -3.397)" fill="#fff"/>
                  <path id="Trazado_632490" data-name="Trazado 632490" d="M17.535,4.826A1.433,1.433,0,1,0,18.967,3.4a1.43,1.43,0,0,0-1.432,1.428" transform="translate(-12.697 -3.397)" fill="#fff"/>
                  <path id="Trazado_632491" data-name="Trazado 632491" d="M21.467,4.826A1.433,1.433,0,1,0,22.9,3.4a1.43,1.43,0,0,0-1.432,1.428" transform="translate(-21.466 -3.397)" fill="#fff"/>
                </g>
              </g>
            </g>
            <g id="Grupo_880283" data-name="Grupo 880283" transform="translate(413.475 23.42)" opacity="0.3">
              <g id="Grupo_880282" data-name="Grupo 880282">
                <g id="Grupo_880281" data-name="Grupo 880281" clip-path="url(#clip-path-22)">
                  <rect id="Rectángulo_329347" data-name="Rectángulo 329347" width="47.675" height="47.556" transform="translate(0)" fill="#b6e1fd"/>
                </g>
              </g>
            </g>
            <path id="Trazado_632492" data-name="Trazado 632492" d="M67.989,30.1c0,.177,18.594.319,41.525.319s41.529-.142,41.529-.319-18.589-.319-41.529-.319-41.525.142-41.525.319" transform="translate(254.309 6.763)" fill="#2b95f9"/>
            <path id="Trazado_632493" data-name="Trazado 632493" d="M67.989,37.3c0,.177,18.594.319,41.525.319s41.529-.142,41.529-.319-18.589-.319-41.529-.319-41.525.142-41.525.319" transform="translate(254.309 8.399)" fill="#2b95f9"/>
            <path id="Trazado_632494" data-name="Trazado 632494" d="M67.989,44.5c0,.177,18.594.319,41.525.319s41.529-.142,41.529-.319-18.589-.319-41.529-.319-41.525.142-41.525.319" transform="translate(254.309 10.035)" fill="#2b95f9"/>
            <path id="Trazado_632495" data-name="Trazado 632495" d="M67.989,51.7a11.183,11.183,0,0,0,1.929.124l5.26.1c4.441.058,10.576.093,17.353.093s12.915-.036,17.356-.093l5.26-.1a11.175,11.175,0,0,0,1.928-.124,11.177,11.177,0,0,0-1.928-.124l-5.26-.1c-4.441-.058-10.577-.093-17.356-.093s-12.912.036-17.353.093l-5.26.1a11.185,11.185,0,0,0-1.929.124" transform="translate(288.277 11.67)" fill="#2b95f9"/>
            <rect id="Rectángulo_329349" data-name="Rectángulo 329349" width="22.404" height="22.35" transform="translate(435.761 87.009)" fill="#2b95f9"/>
            <g id="Grupo_880286" data-name="Grupo 880286" transform="translate(435.761 87.009)" opacity="0.6">
              <g id="Grupo_880285" data-name="Grupo 880285">
                <g id="Grupo_880284" data-name="Grupo 880284" clip-path="url(#clip-path-23)">
                  <rect id="Rectángulo_329350" data-name="Rectángulo 329350" width="22.404" height="22.35" transform="translate(0)" fill="#fff"/>
                </g>
              </g>
            </g>
            <rect id="Rectángulo_329352" data-name="Rectángulo 329352" width="22.404" height="22.35" transform="translate(395.129 87.009)" fill="#2b95f9"/>
            <g id="Grupo_880289" data-name="Grupo 880289" transform="translate(395.129 87.009)" opacity="0.6">
              <g id="Grupo_880288" data-name="Grupo 880288">
                <g id="Grupo_880287" data-name="Grupo 880287" clip-path="url(#clip-path-23)">
                  <rect id="Rectángulo_329353" data-name="Rectángulo 329353" width="22.404" height="22.35" transform="translate(0)" fill="#fff"/>
                </g>
              </g>
            </g>
            <rect id="Rectángulo_329355" data-name="Rectángulo 329355" width="22.405" height="22.35" transform="translate(354.497 87.009)" fill="#2b95f9"/>
            <g id="Grupo_880292" data-name="Grupo 880292" transform="translate(354.497 87.009)" opacity="0.6">
              <g id="Grupo_880291" data-name="Grupo 880291">
                <g id="Grupo_880290" data-name="Grupo 880290" clip-path="url(#clip-path-23)">
                  <rect id="Rectángulo_329356" data-name="Rectángulo 329356" width="22.405" height="22.35" transform="translate(0)" fill="#fff"/>
                </g>
              </g>
            </g>
            <rect id="Rectángulo_329358" data-name="Rectángulo 329358" width="22.405" height="22.35" transform="translate(313.865 87.009)" fill="#2b95f9"/>
            <g id="Grupo_880295" data-name="Grupo 880295" transform="translate(313.865 81.009)" opacity="0.6">
              <g id="Grupo_880294" data-name="Grupo 880294" transform="translate(0 6)">
                <g id="Grupo_880293" data-name="Grupo 880293" clip-path="url(#clip-path-23)">
                  <rect id="Rectángulo_329359" data-name="Rectángulo 329359" width="22.405" height="22.35" fill="#fff"/>
                </g>
              </g>
            </g>
          </g>
        </g>
      </g>
    </g>
  </g>
</svg>
