<svg xmlns="http://www.w3.org/2000/svg" xmlns:xlink="http://www.w3.org/1999/xlink" width="1065.301" height="191.633" viewBox="0 0 1065.301 191.633">
  <defs>
    <filter id="Trazado_501706" x="0" y="0.86" width="188.165" height="188.167" filterUnits="userSpaceOnUse">
      <feOffset dy="3" input="SourceAlpha"/>
      <feGaussianBlur stdDeviation="9" result="blur"/>
      <feFlood flood-opacity="0.161"/>
      <feComposite operator="in" in2="blur"/>
      <feComposite in="SourceGraphic"/>
    </filter>
    <filter id="Trazado_501703" x="215.66" y="0" width="188.167" height="188.167" filterUnits="userSpaceOnUse">
      <feOffset dy="3" input="SourceAlpha"/>
      <feGaussianBlur stdDeviation="9" result="blur-2"/>
      <feFlood flood-opacity="0.161"/>
      <feComposite operator="in" in2="blur-2"/>
      <feComposite in="SourceGraphic"/>
    </filter>
    <filter id="Trazado_630626" x="655.149" y="0" width="188.167" height="188.167" filterUnits="userSpaceOnUse">
      <feOffset dy="3" input="SourceAlpha"/>
      <feGaussianBlur stdDeviation="9" result="blur-3"/>
      <feFlood flood-opacity="0.161"/>
      <feComposite operator="in" in2="blur-3"/>
      <feComposite in="SourceGraphic"/>
    </filter>
    <filter id="Trazado_634297" x="434.518" y="0.86" width="188.167" height="188.167" filterUnits="userSpaceOnUse">
      <feOffset dy="3" input="SourceAlpha"/>
      <feGaussianBlur stdDeviation="9" result="blur-4"/>
      <feFlood flood-opacity="0.161"/>
      <feComposite operator="in" in2="blur-4"/>
      <feComposite in="SourceGraphic"/>
    </filter>
    <filter id="Trazado_501704" x="877.135" y="3.466" width="188.167" height="188.167" filterUnits="userSpaceOnUse">
      <feOffset dy="3" input="SourceAlpha"/>
      <feGaussianBlur stdDeviation="9" result="blur-5"/>
      <feFlood flood-opacity="0.161"/>
      <feComposite operator="in" in2="blur-5"/>
      <feComposite in="SourceGraphic"/>
    </filter>
  </defs>
  <g id="Grupo_1034309" data-name="Grupo 1034309" transform="translate(-257.35 -6878.735)">
    <path id="Trazado_501648" data-name="Trazado 501648" d="M429.1,34.9a2.6,2.6,0,1,0,2.6,2.6,2.595,2.595,0,0,0-2.6-2.6" transform="translate(719.971 6906.497)" fill="#333"/>
    <path id="Trazado_501649" data-name="Trazado 501649" d="M429.1,28.184a2.6,2.6,0,1,0,2.6,2.6,2.595,2.595,0,0,0-2.6-2.6" transform="translate(719.971 6902.882)" fill="#333"/>
    <path id="Trazado_501650" data-name="Trazado 501650" d="M429.1,41.609a2.6,2.6,0,1,0,2.6,2.6,2.595,2.595,0,0,0-2.6-2.6" transform="translate(719.971 6910.108)" fill="#333"/>
    <path id="Trazado_501651" data-name="Trazado 501651" d="M429.1,48.322a2.6,2.6,0,1,0,2.6,2.6,2.595,2.595,0,0,0-2.6-2.6" transform="translate(719.971 6913.722)" fill="#333"/>
    <path id="Trazado_501652" data-name="Trazado 501652" d="M429.1,21.46a2.6,2.6,0,1,0,2.6,2.6,2.595,2.595,0,0,0-2.6-2.6" transform="translate(719.971 6899.264)" fill="#333"/>
    <path id="Trazado_501653" data-name="Trazado 501653" d="M433.68,9.254a2.717,2.717,0,0,0-1.612-.555A2.558,2.558,0,0,0,430.025,9.7a2.6,2.6,0,1,0,3.655-.451" transform="translate(721.57 6892.396)" fill="#333"/>
    <path id="Trazado_501654" data-name="Trazado 501654" d="M429.8,14.811a2.209,2.209,0,0,0-.467-.051,2.634,2.634,0,1,0,.467.051" transform="translate(720.095 6895.658)" fill="#333"/>
    <path id="Trazado_501655" data-name="Trazado 501655" d="M532.464,41.575a2.607,2.607,0,1,0,2.6,2.615,2.609,2.609,0,0,0-2.6-2.615" transform="translate(775.605 6910.09)" fill="#333"/>
    <path id="Trazado_501656" data-name="Trazado 501656" d="M531.09,13.319a2.589,2.589,0,0,0,.432-3.638V9.665a2.644,2.644,0,0,0-2.043-.988,2.546,2.546,0,0,0-1.612.572,2.6,2.6,0,1,0,3.223,4.07" transform="translate(773.998 6892.384)" fill="#333"/>
    <path id="Trazado_501657" data-name="Trazado 501657" d="M532.464,34.863a2.6,2.6,0,1,0,2.6,2.6,2.595,2.595,0,0,0-2.6-2.6" transform="translate(775.605 6906.477)" fill="#333"/>
    <path id="Trazado_501658" data-name="Trazado 501658" d="M532.464,48.3a2.6,2.6,0,1,0,2.6,2.6,2.595,2.595,0,0,0-2.6-2.6" transform="translate(775.605 6913.709)" fill="#333"/>
    <path id="Trazado_501659" data-name="Trazado 501659" d="M532.464,28.15a2.6,2.6,0,1,0,2.6,2.6,2.595,2.595,0,0,0-2.6-2.6" transform="translate(775.605 6902.865)" fill="#333"/>
    <path id="Trazado_501660" data-name="Trazado 501660" d="M437.3,4.589a2.6,2.6,0,1,0,1.074,4.972A2.6,2.6,0,0,0,437.3,4.589" transform="translate(724.382 6890.184)" fill="#333"/>
    <path id="Trazado_501661" data-name="Trazado 501661" d="M529.666,17.82a2.6,2.6,0,1,0,2.564-3.084,2.4,2.4,0,0,0-.486.052,2.6,2.6,0,0,0-2.078,3.032" transform="translate(775.474 6895.644)" fill="#333"/>
    <path id="Trazado_501662" data-name="Trazado 501662" d="M532.464,21.438a2.6,2.6,0,1,0,2.6,2.6,2.595,2.595,0,0,0-2.6-2.6" transform="translate(775.605 6899.252)" fill="#333"/>
    <path id="Trazado_501663" data-name="Trazado 501663" d="M504.275,3.349a2.608,2.608,0,1,0,2.6,2.6,2.607,2.607,0,0,0-2.6-2.6" transform="translate(760.433 6889.516)" fill="#333"/>
    <path id="Trazado_501664" data-name="Trazado 501664" d="M497.549,3.349a2.608,2.608,0,1,0,2.6,2.6,2.619,2.619,0,0,0-2.6-2.6" transform="translate(756.813 6889.516)" fill="#333"/>
    <path id="Trazado_501665" data-name="Trazado 501665" d="M510.986,3.349a2.608,2.608,0,1,0,2.6,2.6,2.607,2.607,0,0,0-2.6-2.6" transform="translate(764.045 6889.516)" fill="#333"/>
    <path id="Trazado_501666" data-name="Trazado 501666" d="M525.3,4.82h.017a2.6,2.6,0,1,0-2.147,4.728A2.593,2.593,0,1,0,525.3,4.82" transform="translate(771.18 6890.178)" fill="#333"/>
    <path id="Trazado_501667" data-name="Trazado 501667" d="M443.828,3.349a2.608,2.608,0,1,0,2.6,2.6,2.62,2.62,0,0,0-2.6-2.6" transform="translate(727.897 6889.516)" fill="#333"/>
    <path id="Trazado_501668" data-name="Trazado 501668" d="M517.7,3.349a2.608,2.608,0,1,0,2.6,2.6,2.607,2.607,0,0,0-2.6-2.6" transform="translate(767.658 6889.516)" fill="#333"/>
    <path id="Trazado_501669" data-name="Trazado 501669" d="M490.837,3.349a2.608,2.608,0,1,0,2.6,2.6,2.606,2.606,0,0,0-2.6-2.6" transform="translate(753.201 6889.516)" fill="#333"/>
    <path id="Trazado_501670" data-name="Trazado 501670" d="M457.263,3.349a2.608,2.608,0,1,0,2.6,2.6,2.606,2.606,0,0,0-2.6-2.6" transform="translate(735.131 6889.516)" fill="#333"/>
    <path id="Trazado_501671" data-name="Trazado 501671" d="M484.126,3.349a2.608,2.608,0,1,0,2.6,2.6,2.607,2.607,0,0,0-2.6-2.6" transform="translate(749.588 6889.516)" fill="#333"/>
    <path id="Trazado_501672" data-name="Trazado 501672" d="M463.975,3.349a2.608,2.608,0,1,0,2.6,2.6,2.606,2.606,0,0,0-2.6-2.6" transform="translate(738.744 6889.516)" fill="#333"/>
    <path id="Trazado_501673" data-name="Trazado 501673" d="M450.552,3.349a2.608,2.608,0,1,0,2.6,2.6,2.607,2.607,0,0,0-2.6-2.6" transform="translate(731.518 6889.516)" fill="#333"/>
    <path id="Trazado_501674" data-name="Trazado 501674" d="M477.412,3.349a2.608,2.608,0,1,0,2.6,2.6,2.607,2.607,0,0,0-2.6-2.6" transform="translate(745.976 6889.516)" fill="#333"/>
    <path id="Trazado_501675" data-name="Trazado 501675" d="M470.7,3.349a2.608,2.608,0,1,0,2.581,2.6,2.6,2.6,0,0,0-2.581-2.6" transform="translate(742.361 6889.516)" fill="#333"/>
    <path id="Trazado_501676" data-name="Trazado 501676" d="M532.464,55.034a2.314,2.314,0,0,0-.5.052,2.938,2.938,0,0,0-1.334.709,2.631,2.631,0,0,0-.761,1.837,2.392,2.392,0,0,0,.208,1,2.126,2.126,0,0,0,.225.451,3.454,3.454,0,0,0,.329.4,2.644,2.644,0,0,0,2.34.694,2.772,2.772,0,0,0,.5-.138,3.438,3.438,0,0,0,.434-.243,2.419,2.419,0,0,0,.4-.312,3.466,3.466,0,0,0,.329-.4,3.711,3.711,0,0,0,.243-.451c.051-.155.1-.329.138-.485a2.709,2.709,0,0,0,.051-.52A2.631,2.631,0,0,0,534.3,55.8a2.6,2.6,0,0,0-1.837-.761" transform="translate(775.605 6917.334)" fill="#333"/>
    <path id="Trazado_501677" data-name="Trazado 501677" d="M6.93,93.361A6.93,6.93,0,0,1,0,86.431V28.4A28.436,28.436,0,0,1,28.4,0H144.459a28.436,28.436,0,0,1,28.4,28.4V59.931a6.93,6.93,0,0,1-13.859,0V28.4a14.562,14.562,0,0,0-14.545-14.544H28.4A14.561,14.561,0,0,0,13.859,28.4V86.431a6.93,6.93,0,0,1-6.93,6.93" transform="translate(265 6884.248)" fill="#efd800"/>
    <path id="Trazado_501678" data-name="Trazado 501678" d="M4.808,85.176a.866.866,0,0,1-.866-.866V26.282A22.366,22.366,0,0,1,26.283,3.941H142.337a22.367,22.367,0,0,1,22.341,22.341V57.808a.866.866,0,1,1-1.732,0V26.282A20.632,20.632,0,0,0,142.337,5.675H26.283A20.631,20.631,0,0,0,5.674,26.282V84.31a.866.866,0,0,1-.866.866" transform="translate(267.122 6886.369)" fill="#333"/>
    <path id="Trazado_501680" data-name="Trazado 501680" d="M139.106,132.992a2.6,2.6,0,1,1,2.6,2.6,2.612,2.612,0,0,1-2.6-2.6m-10.325,0a2.6,2.6,0,1,1,2.6,2.6,2.611,2.611,0,0,1-2.6-2.6m-10.326,0a2.6,2.6,0,1,1,2.6,2.6,2.612,2.612,0,0,1-2.6-2.6m-10.343,0a2.6,2.6,0,1,1,2.6,2.6,2.623,2.623,0,0,1-2.6-2.6m-10.325,0a2.6,2.6,0,1,1,2.6,2.6,2.611,2.611,0,0,1-2.6-2.6m-10.326,0a2.6,2.6,0,1,1,2.6,2.6,2.612,2.612,0,0,1-2.6-2.6m-10.325,0a2.6,2.6,0,1,1,2.6,2.6,2.611,2.611,0,0,1-2.6-2.6m-10.326,0a2.59,2.59,0,1,1,2.6,2.6,2.6,2.6,0,0,1-2.6-2.6m-10.343,0a2.6,2.6,0,1,1,2.6,2.6,2.612,2.612,0,0,1-2.6-2.6m-10.325,0a2.6,2.6,0,1,1,2.6,2.6,2.611,2.611,0,0,1-2.6-2.6m-10.326,0a2.6,2.6,0,1,1,2.6,2.6,2.612,2.612,0,0,1-2.6-2.6m-10.343,0a2.6,2.6,0,1,1,2.6,2.6,2.623,2.623,0,0,1-2.6-2.6M149.4,132.16a2.594,2.594,0,1,1,4.73-2.13,2.57,2.57,0,0,1-1.3,3.429h.017a2.571,2.571,0,0,1-3.447-1.3M16.951,133.441a2.573,2.573,0,1,1,1.074.243,2.615,2.615,0,0,1-1.074-.243m141.263-6.617a2.6,2.6,0,1,1,3.656-.434v.017a2.642,2.642,0,0,1-2.044.988,2.556,2.556,0,0,1-1.612-.571m-150.27-.468a2.6,2.6,0,1,1,3.655.451,2.717,2.717,0,0,1-1.612.555,2.557,2.557,0,0,1-2.043-1.006m155.624-8.334a2.59,2.59,0,1,1,.954-5.092,2.593,2.593,0,0,1-.468,5.144,2.4,2.4,0,0,1-.486-.052M3.213,115.91a2.6,2.6,0,1,1,3.032,2.078,2.209,2.209,0,0,1-.468.051,2.626,2.626,0,0,1-2.564-2.129m158.6-10.743a2.6,2.6,0,1,1,2.6,2.6,2.6,2.6,0,0,1-2.6-2.6m-159-.034a2.6,2.6,0,1,1,2.6,2.6,2.6,2.6,0,0,1-2.6-2.6m159-10.291a2.6,2.6,0,1,1,2.6,2.6,2.6,2.6,0,0,1-2.6-2.6m-159-.052a2.6,2.6,0,1,1,2.6,2.6,2.608,2.608,0,0,1-2.6-2.6m159-10.274a2.6,2.6,0,1,1,2.6,2.6,2.6,2.6,0,0,1-2.6-2.6m-159-.052a2.6,2.6,0,1,1,2.6,2.6,2.6,2.6,0,0,1-2.6-2.6m159-10.289a2.6,2.6,0,1,1,2.6,2.615,2.606,2.606,0,0,1-2.6-2.615m-159-.035a2.6,2.6,0,1,1,2.6,2.6,2.595,2.595,0,0,1-2.6-2.6m159-10.291a2.6,2.6,0,1,1,2.6,2.6,2.607,2.607,0,0,1-2.6-2.6m-159-.034a2.6,2.6,0,1,1,2.6,2.6,2.595,2.595,0,0,1-2.6-2.6" transform="translate(266.515 6917.196)" fill="#333"/>
    <path id="Trazado_501681" data-name="Trazado 501681" d="M108.782,59.7a2.315,2.315,0,0,1-.5-.052,2.228,2.228,0,0,1-.484-.155,2.2,2.2,0,0,1-.451-.243,2.227,2.227,0,0,1-.4-.311,2.631,2.631,0,0,1-.761-1.837,2.393,2.393,0,0,1,.208-1,2.126,2.126,0,0,1,.225-.451,3.6,3.6,0,0,1,.329-.4,2.648,2.648,0,0,1,2.34-.694,2.769,2.769,0,0,1,.5.138,3.673,3.673,0,0,1,.434.243,2.417,2.417,0,0,1,.4.312,3.59,3.59,0,0,1,.329.4,3.7,3.7,0,0,1,.243.451c.051.155.1.329.138.485a2.709,2.709,0,0,1,.051.52,2.631,2.631,0,0,1-.761,1.837,2.6,2.6,0,0,1-1.837.761" transform="translate(322.151 6913.583)" fill="#333"/>
    <path id="Trazado_501682" data-name="Trazado 501682" d="M114.2,57.1a2.6,2.6,0,1,1,2.6,2.6,2.595,2.595,0,0,1-2.6-2.6" transform="translate(326.466 6913.583)" fill="#333"/>
    <path id="Trazado_501683" data-name="Trazado 501683" d="M124.819,59.689a2.538,2.538,0,0,1-.5-.052,2.243,2.243,0,0,1-.486-.155,2.323,2.323,0,0,1-1.16-.954,2.74,2.74,0,0,1-.4-.935,2.539,2.539,0,0,1-.052-.5,2.63,2.63,0,0,1,.763-1.854,2.717,2.717,0,0,1,3.672,0,2.616,2.616,0,0,1,0,3.69,2.6,2.6,0,0,1-1.837.761" transform="translate(330.782 6913.593)" fill="#333"/>
    <path id="Trazado_501684" data-name="Trazado 501684" d="M127.546,71.06a.883.883,0,0,1-.383-.088.872.872,0,0,1-.483-.778v-20.3a.866.866,0,0,1,1.4-.686L141.23,59.357a.867.867,0,0,1,0,1.372L128.075,70.879a.865.865,0,0,1-.529.182m.866-19.4V68.431l10.871-8.388Z" transform="translate(333.182 6910.636)" fill="#333"/>
    <path id="Trazado_501685" data-name="Trazado 501685" d="M147.131,51.125a6.93,6.93,0,0,0-6.93,6.93v58.028a28.437,28.437,0,0,0,28.4,28.4H284.66a28.437,28.437,0,0,0,28.4-28.4V84.555a6.93,6.93,0,1,0-13.859,0v31.527a14.562,14.562,0,0,1-14.545,14.544H168.606a14.561,14.561,0,0,1-14.545-14.544V58.055a6.93,6.93,0,0,0-6.93-6.93" transform="translate(340.459 6911.764)" fill="#94bf10"/>
    <path id="Trazado_630624" data-name="Trazado 630624" d="M147.131,51.125a6.93,6.93,0,0,0-6.93,6.93v58.028a28.437,28.437,0,0,0,28.4,28.4H284.66a28.437,28.437,0,0,0,28.4-28.4V84.555a6.93,6.93,0,1,0-13.859,0v31.527a14.562,14.562,0,0,1-14.545,14.544H168.606a14.561,14.561,0,0,1-14.545-14.544V58.055a6.93,6.93,0,0,0-6.93-6.93" transform="translate(779.949 6911.764)" fill="#e44e00"/>
    <path id="Trazado_501686" data-name="Trazado 501686" d="M145.009,55.067a.866.866,0,0,0-.866.866v58.028A22.366,22.366,0,0,0,166.484,136.3H282.538a22.367,22.367,0,0,0,22.341-22.341V82.434a.866.866,0,0,0-1.732,0v31.527a20.632,20.632,0,0,1-20.609,20.608H166.484a20.631,20.631,0,0,1-20.609-20.608V55.933a.866.866,0,0,0-.866-.866" transform="translate(342.581 6913.886)" fill="#333"/>
    <path id="Trazado_630625" data-name="Trazado 630625" d="M145.009,55.067a.866.866,0,0,0-.866.866v58.028A22.366,22.366,0,0,0,166.484,136.3H282.538a22.367,22.367,0,0,0,22.341-22.341V82.434a.866.866,0,0,0-1.732,0v31.527a20.632,20.632,0,0,1-20.609,20.608H166.484a20.631,20.631,0,0,1-20.609-20.608V55.933a.866.866,0,0,0-.866-.866" transform="translate(782.071 6913.886)" fill="#333"/>
    <path id="Trazado_501687" data-name="Trazado 501687" d="M145.615,53.937a2.609,2.609,0,0,0-1.837,4.452,2.717,2.717,0,0,0,3.672,0,3.439,3.439,0,0,0,.331-.4,3.694,3.694,0,0,0,.242-.451,4.773,4.773,0,0,0,.138-.485,2.6,2.6,0,0,0-2.546-3.118" transform="translate(341.975 6913.278)" fill="#333"/>
    <path id="Trazado_630632" data-name="Trazado 630632" d="M145.615,53.937a2.609,2.609,0,0,0-1.837,4.452,2.717,2.717,0,0,0,3.672,0,3.439,3.439,0,0,0,.331-.4,3.694,3.694,0,0,0,.242-.451,4.773,4.773,0,0,0,.138-.485,2.6,2.6,0,0,0-2.546-3.118" transform="translate(781.464 6913.278)" fill="#333"/>
    <path id="Trazado_501688" data-name="Trazado 501688" d="M281.906,2.253h0a2.607,2.607,0,1,1-2.6,2.6,2.606,2.606,0,0,1,2.6-2.6m-10.325,0h0a2.607,2.607,0,1,1-2.6,2.6,2.607,2.607,0,0,1,2.6-2.6m-10.326,0h0a2.607,2.607,0,1,1-2.6,2.6,2.618,2.618,0,0,1,2.6-2.6m-10.343,0h0a2.607,2.607,0,1,1-2.6,2.6,2.606,2.606,0,0,1,2.6-2.6m-10.324,0h0a2.607,2.607,0,1,1-2.6,2.6,2.607,2.607,0,0,1,2.6-2.6m-10.326,0h0a2.607,2.607,0,1,1-2.6,2.6,2.606,2.606,0,0,1,2.6-2.6m-10.325,0h0a2.607,2.607,0,1,1-2.6,2.6,2.607,2.607,0,0,1,2.6-2.6m-10.326,0h0a2.607,2.607,0,1,1-2.6,2.6,2.6,2.6,0,0,1,2.6-2.6m-10.343,0h0a2.607,2.607,0,1,1-2.6,2.6,2.607,2.607,0,0,1,2.6-2.6m-10.325,0h0a2.607,2.607,0,1,1-2.6,2.6,2.607,2.607,0,0,1,2.6-2.6m-10.326,0h0a2.607,2.607,0,1,1-2.6,2.6,2.607,2.607,0,0,1,2.6-2.6m-10.343,0h0a2.607,2.607,0,1,1-2.6,2.6,2.607,2.607,0,0,1,2.6-2.6m123.7,1.889h0a2.629,2.629,0,0,1,1.074.242h-.017a2.594,2.594,0,0,1-2.132,4.73,2.6,2.6,0,0,1,1.075-4.972m-133.745.017h0a2.626,2.626,0,1,1-1.074.242,2.6,2.6,0,0,1,1.074-.242m141.8,6.288h0a2.64,2.64,0,0,1,2.043.989v.017a2.6,2.6,0,1,1-3.655-.434,2.555,2.555,0,0,1,1.612-.572m-149.84.034h0a2.716,2.716,0,0,1,1.612.555,2.6,2.6,0,1,1-3.656.451,2.562,2.562,0,0,1,2.044-1.006m154.067,9.288h0a2.64,2.64,0,1,1-.486.052,2.4,2.4,0,0,1,.486-.052M145.978,19.8h0a2.212,2.212,0,0,1,.469.051,2.56,2.56,0,1,1-.469-.051m158.64,10.272h0a2.6,2.6,0,1,1-2.6,2.6,2.6,2.6,0,0,1,2.6-2.6m-159,.034h0a2.6,2.6,0,1,1-2.6,2.6,2.6,2.6,0,0,1,2.6-2.6m159,10.291h0a2.6,2.6,0,1,1-2.6,2.6,2.6,2.6,0,0,1,2.6-2.6m-159,.054h0a2.6,2.6,0,1,1-2.6,2.6,2.595,2.595,0,0,1,2.6-2.6m159,10.272h0a2.6,2.6,0,1,1-2.6,2.6,2.6,2.6,0,0,1,2.6-2.6m-159,.052h0a2.6,2.6,0,1,1-2.6,2.6,2.595,2.595,0,0,1,2.6-2.6m159,10.272h0a2.607,2.607,0,1,1-2.6,2.617,2.611,2.611,0,0,1,2.6-2.617m-159,.054h0a2.6,2.6,0,1,1-2.6,2.6,2.595,2.595,0,0,1,2.6-2.6m159,10.289h0a2.6,2.6,0,1,1-2.6,2.6,2.6,2.6,0,0,1,2.6-2.6m-159,.035h0a2.6,2.6,0,1,1-2.6,2.6,2.6,2.6,0,0,1,2.6-2.6" transform="translate(341.975 6885.461)" fill="#333"/>
    <path id="Trazado_630631" data-name="Trazado 630631" d="M281.906,2.253h0a2.607,2.607,0,1,1-2.6,2.6,2.606,2.606,0,0,1,2.6-2.6m-10.325,0h0a2.607,2.607,0,1,1-2.6,2.6,2.607,2.607,0,0,1,2.6-2.6m-10.326,0h0a2.607,2.607,0,1,1-2.6,2.6,2.618,2.618,0,0,1,2.6-2.6m-10.343,0h0a2.607,2.607,0,1,1-2.6,2.6,2.606,2.606,0,0,1,2.6-2.6m-10.324,0h0a2.607,2.607,0,1,1-2.6,2.6,2.607,2.607,0,0,1,2.6-2.6m-10.326,0h0a2.607,2.607,0,1,1-2.6,2.6,2.606,2.606,0,0,1,2.6-2.6m-10.325,0h0a2.607,2.607,0,1,1-2.6,2.6,2.607,2.607,0,0,1,2.6-2.6m-10.326,0h0a2.607,2.607,0,1,1-2.6,2.6,2.6,2.6,0,0,1,2.6-2.6m-10.343,0h0a2.607,2.607,0,1,1-2.6,2.6,2.607,2.607,0,0,1,2.6-2.6m-10.325,0h0a2.607,2.607,0,1,1-2.6,2.6,2.607,2.607,0,0,1,2.6-2.6m-10.326,0h0a2.607,2.607,0,1,1-2.6,2.6,2.607,2.607,0,0,1,2.6-2.6m-10.343,0h0a2.607,2.607,0,1,1-2.6,2.6,2.607,2.607,0,0,1,2.6-2.6m123.7,1.889h0a2.629,2.629,0,0,1,1.074.242h-.017a2.594,2.594,0,0,1-2.132,4.73,2.6,2.6,0,0,1,1.075-4.972m-133.745.017h0a2.626,2.626,0,1,1-1.074.242,2.6,2.6,0,0,1,1.074-.242m141.8,6.288h0a2.64,2.64,0,0,1,2.043.989v.017a2.6,2.6,0,1,1-3.655-.434,2.555,2.555,0,0,1,1.612-.572m-149.84.034h0a2.716,2.716,0,0,1,1.612.555,2.6,2.6,0,1,1-3.656.451,2.562,2.562,0,0,1,2.044-1.006m154.067,9.288h0a2.64,2.64,0,1,1-.486.052,2.4,2.4,0,0,1,.486-.052M145.978,19.8h0a2.212,2.212,0,0,1,.469.051,2.56,2.56,0,1,1-.469-.051m158.64,10.272h0a2.6,2.6,0,1,1-2.6,2.6,2.6,2.6,0,0,1,2.6-2.6m-159,.034h0a2.6,2.6,0,1,1-2.6,2.6,2.6,2.6,0,0,1,2.6-2.6m159,10.291h0a2.6,2.6,0,1,1-2.6,2.6,2.6,2.6,0,0,1,2.6-2.6m-159,.054h0a2.6,2.6,0,1,1-2.6,2.6,2.595,2.595,0,0,1,2.6-2.6m159,10.272h0a2.6,2.6,0,1,1-2.6,2.6,2.6,2.6,0,0,1,2.6-2.6m-159,.052h0a2.6,2.6,0,1,1-2.6,2.6,2.595,2.595,0,0,1,2.6-2.6m159,10.272h0a2.607,2.607,0,1,1-2.6,2.617,2.611,2.611,0,0,1,2.6-2.617m-159,.054h0a2.6,2.6,0,1,1-2.6,2.6,2.595,2.595,0,0,1,2.6-2.6m159,10.289h0a2.6,2.6,0,1,1-2.6,2.6,2.6,2.6,0,0,1,2.6-2.6m-159,.035h0a2.6,2.6,0,1,1-2.6,2.6,2.6,2.6,0,0,1,2.6-2.6" transform="translate(781.464 6885.461)" fill="#333"/>
    <path id="Trazado_501689" data-name="Trazado 501689" d="M248.983,53.937a2.415,2.415,0,0,0-.5.051,2.917,2.917,0,0,0-1.334.711,2.632,2.632,0,0,0-.761,1.837,2.723,2.723,0,0,0,.051.52,2.69,2.69,0,0,0,.157.485,2.127,2.127,0,0,0,.225.451,3.777,3.777,0,0,0,.329.4,2.648,2.648,0,0,0,2.34.694,2.772,2.772,0,0,0,.5-.138,3.673,3.673,0,0,0,.434-.243,2.5,2.5,0,0,0,.4-.312,3.6,3.6,0,0,0,.329-.4,3.7,3.7,0,0,0,.243-.451c.051-.155.1-.329.138-.485a2.718,2.718,0,0,0,.051-.52,2.631,2.631,0,0,0-.761-1.837,2.6,2.6,0,0,0-1.837-.761" transform="translate(397.61 6913.278)" fill="#333"/>
    <path id="Trazado_630628" data-name="Trazado 630628" d="M248.983,53.937a2.415,2.415,0,0,0-.5.051,2.917,2.917,0,0,0-1.334.711,2.632,2.632,0,0,0-.761,1.837,2.723,2.723,0,0,0,.051.52,2.69,2.69,0,0,0,.157.485,2.127,2.127,0,0,0,.225.451,3.777,3.777,0,0,0,.329.4,2.648,2.648,0,0,0,2.34.694,2.772,2.772,0,0,0,.5-.138,3.673,3.673,0,0,0,.434-.243,2.5,2.5,0,0,0,.4-.312,3.6,3.6,0,0,0,.329-.4,3.7,3.7,0,0,0,.243-.451c.051-.155.1-.329.138-.485a2.718,2.718,0,0,0,.051-.52,2.631,2.631,0,0,0-.761-1.837,2.6,2.6,0,0,0-1.837-.761" transform="translate(837.099 6913.278)" fill="#333"/>
    <path id="Trazado_501690" data-name="Trazado 501690" d="M254.4,56.536a2.6,2.6,0,1,0,2.6-2.6,2.594,2.594,0,0,0-2.6,2.6" transform="translate(401.926 6913.279)" fill="#333"/>
    <path id="Trazado_630629" data-name="Trazado 630629" d="M254.4,56.536a2.6,2.6,0,1,0,2.6-2.6,2.594,2.594,0,0,0-2.6,2.6" transform="translate(841.415 6913.279)" fill="#333"/>
    <path id="Trazado_501691" data-name="Trazado 501691" d="M265.022,53.937a2.654,2.654,0,0,0-.5.051,2.821,2.821,0,0,0-.935.4,2.089,2.089,0,0,0-.711.712,2.312,2.312,0,0,0-.243.449,2.244,2.244,0,0,0-.155.486,2.592,2.592,0,0,0,.711,2.355,2.717,2.717,0,0,0,3.672,0,2.612,2.612,0,0,0,0-3.69,2.59,2.59,0,0,0-1.835-.761" transform="translate(406.242 6913.278)" fill="#333"/>
    <path id="Trazado_630630" data-name="Trazado 630630" d="M265.022,53.937a2.654,2.654,0,0,0-.5.051,2.821,2.821,0,0,0-.935.4,2.089,2.089,0,0,0-.711.712,2.312,2.312,0,0,0-.243.449,2.244,2.244,0,0,0-.155.486,2.592,2.592,0,0,0,.711,2.355,2.717,2.717,0,0,0,3.672,0,2.612,2.612,0,0,0,0-3.69,2.59,2.59,0,0,0-1.835-.761" transform="translate(845.73 6913.278)" fill="#333"/>
    <path id="Trazado_501692" data-name="Trazado 501692" d="M268.276,48.649,281.431,58.8a.867.867,0,0,1,0,1.372L268.276,70.322a.866.866,0,0,1-1.4-.686v-20.3a.872.872,0,0,1,.483-.778.883.883,0,0,1,.383-.088.865.865,0,0,1,.529.182m11.207,10.835L268.613,51.1V67.873Z" transform="translate(408.642 6910.335)" fill="#333"/>
    <path id="Trazado_630627" data-name="Trazado 630627" d="M268.276,48.649,281.431,58.8a.867.867,0,0,1,0,1.372L268.276,70.322a.866.866,0,0,1-1.4-.686v-20.3a.872.872,0,0,1,.483-.778.883.883,0,0,1,.383-.088.865.865,0,0,1,.529.182m11.207,10.835L268.613,51.1V67.873Z" transform="translate(848.131 6910.335)" fill="#333"/>
    <path id="Trazado_501693" data-name="Trazado 501693" d="M289.412,93.361a6.93,6.93,0,0,1-6.93-6.93V28.4A28.436,28.436,0,0,1,310.887,0H426.941a28.436,28.436,0,0,1,28.4,28.4V59.931a6.93,6.93,0,1,1-13.859,0V28.4a14.562,14.562,0,0,0-14.546-14.544H310.887A14.561,14.561,0,0,0,296.341,28.4V86.431a6.93,6.93,0,0,1-6.93,6.93" transform="translate(417.039 6884.248)" fill="#08afaf"/>
    <path id="Trazado_501694" data-name="Trazado 501694" d="M287.29,85.176a.866.866,0,0,1-.866-.866V26.282A22.366,22.366,0,0,1,308.765,3.941H424.819a22.367,22.367,0,0,1,22.341,22.341V57.808a.866.866,0,1,1-1.732,0V26.282A20.633,20.633,0,0,0,424.819,5.675H308.765a20.631,20.631,0,0,0-20.609,20.608V84.31a.866.866,0,0,1-.866.866" transform="translate(419.159 6886.369)" fill="#333"/>
    <path id="Trazado_501695" data-name="Trazado 501695" d="M287.895,59.689a2.609,2.609,0,0,1-1.837-4.452,2.717,2.717,0,0,1,3.672,0,3.45,3.45,0,0,1,.331.4,3.682,3.682,0,0,1,.241.451,4.765,4.765,0,0,1,.138.485,2.584,2.584,0,0,1,.052.52,2.626,2.626,0,0,1-.763,1.837,2.6,2.6,0,0,1-1.835.761" transform="translate(418.553 6913.593)" fill="#333"/>
    <path id="Trazado_501696" data-name="Trazado 501696" d="M421.588,132.992a2.6,2.6,0,1,1,2.6,2.6,2.612,2.612,0,0,1-2.6-2.6m-10.325,0a2.6,2.6,0,1,1,2.6,2.6,2.611,2.611,0,0,1-2.6-2.6m-10.326,0a2.6,2.6,0,1,1,2.6,2.6,2.612,2.612,0,0,1-2.6-2.6m-10.343,0a2.6,2.6,0,1,1,2.6,2.6,2.623,2.623,0,0,1-2.6-2.6m-10.324,0a2.6,2.6,0,1,1,2.6,2.6,2.611,2.611,0,0,1-2.6-2.6m-10.326,0a2.6,2.6,0,1,1,2.6,2.6,2.612,2.612,0,0,1-2.6-2.6m-10.326,0a2.6,2.6,0,1,1,2.6,2.6,2.612,2.612,0,0,1-2.6-2.6m-10.325,0a2.59,2.59,0,1,1,2.6,2.6,2.6,2.6,0,0,1-2.6-2.6m-10.343,0a2.6,2.6,0,1,1,2.6,2.6,2.612,2.612,0,0,1-2.6-2.6m-10.325,0a2.6,2.6,0,1,1,2.6,2.6,2.611,2.611,0,0,1-2.6-2.6m-10.326,0a2.6,2.6,0,1,1,2.6,2.6,2.612,2.612,0,0,1-2.6-2.6m-10.343,0a2.6,2.6,0,1,1,2.6,2.6,2.623,2.623,0,0,1-2.6-2.6m123.922-.832a2.594,2.594,0,0,1,4.73-2.13,2.57,2.57,0,0,1-1.3,3.429h.017a2.571,2.571,0,0,1-3.447-1.3m-132.445,1.281a2.571,2.571,0,1,1,1.074.243,2.614,2.614,0,0,1-1.074-.243M440.7,126.824a2.6,2.6,0,1,1,3.656-.434v.017a2.642,2.642,0,0,1-2.044.988,2.553,2.553,0,0,1-1.612-.571m-150.271-.468a2.6,2.6,0,1,1,3.655.451,2.716,2.716,0,0,1-1.612.555,2.557,2.557,0,0,1-2.043-1.006m155.624-8.334a2.59,2.59,0,1,1,.954-5.092,2.593,2.593,0,0,1-.468,5.144,2.4,2.4,0,0,1-.486-.052M285.7,115.91a2.6,2.6,0,1,1,3.032,2.078,2.209,2.209,0,0,1-.468.051,2.626,2.626,0,0,1-2.564-2.129m158.6-10.743a2.6,2.6,0,1,1,2.6,2.6,2.6,2.6,0,0,1-2.6-2.6m-159-.034a2.6,2.6,0,1,1,2.6,2.6,2.6,2.6,0,0,1-2.6-2.6m159-10.291a2.6,2.6,0,1,1,2.6,2.6,2.595,2.595,0,0,1-2.6-2.6m-159-.052a2.6,2.6,0,1,1,2.6,2.6,2.608,2.608,0,0,1-2.6-2.6m159-10.274a2.6,2.6,0,1,1,2.6,2.6,2.6,2.6,0,0,1-2.6-2.6m-159-.052a2.6,2.6,0,1,1,2.6,2.6,2.6,2.6,0,0,1-2.6-2.6m159-10.289a2.6,2.6,0,1,1,2.6,2.615,2.606,2.606,0,0,1-2.6-2.615m-159-.035a2.6,2.6,0,1,1,2.6,2.6,2.595,2.595,0,0,1-2.6-2.6m159-10.291a2.6,2.6,0,1,1,2.6,2.6,2.607,2.607,0,0,1-2.6-2.6m-159-.034a2.6,2.6,0,1,1,2.6,2.6,2.595,2.595,0,0,1-2.6-2.6" transform="translate(418.553 6917.196)" fill="#333"/>
    <path id="Trazado_501697" data-name="Trazado 501697" d="M391.263,59.7a2.3,2.3,0,0,1-.5-.052,2.229,2.229,0,0,1-.484-.155,2.2,2.2,0,0,1-.451-.243,2.23,2.23,0,0,1-.4-.311,2.632,2.632,0,0,1-.761-1.837,2.395,2.395,0,0,1,.208-1,2.126,2.126,0,0,1,.224-.451,3.621,3.621,0,0,1,.329-.4,2.648,2.648,0,0,1,2.34-.694,2.769,2.769,0,0,1,.5.138,3.791,3.791,0,0,1,.434.243,2.407,2.407,0,0,1,.4.312,3.6,3.6,0,0,1,.329.4,3.726,3.726,0,0,1,.243.451c.051.155.1.329.138.485a2.7,2.7,0,0,1,.051.52,2.631,2.631,0,0,1-.761,1.837,2.6,2.6,0,0,1-1.837.761" transform="translate(474.188 6913.583)" fill="#333"/>
    <path id="Trazado_501698" data-name="Trazado 501698" d="M396.684,57.1a2.6,2.6,0,1,1,2.6,2.6,2.595,2.595,0,0,1-2.6-2.6" transform="translate(478.504 6913.583)" fill="#333"/>
    <path id="Trazado_501699" data-name="Trazado 501699" d="M407.3,59.689a2.539,2.539,0,0,1-.5-.052,2.214,2.214,0,0,1-.486-.155,2.322,2.322,0,0,1-1.16-.954,2.734,2.734,0,0,1-.4-.935,2.541,2.541,0,0,1-.052-.5,2.631,2.631,0,0,1,.763-1.854,2.717,2.717,0,0,1,3.672,0,2.616,2.616,0,0,1,0,3.69,2.6,2.6,0,0,1-1.836.761" transform="translate(482.82 6913.593)" fill="#333"/>
    <path id="Trazado_501700" data-name="Trazado 501700" d="M410.028,71.06a.882.882,0,0,1-.383-.088.872.872,0,0,1-.483-.778v-20.3a.866.866,0,0,1,1.4-.686l13.155,10.151a.867.867,0,0,1,0,1.372L410.557,70.879a.864.864,0,0,1-.529.182m.866-19.4V68.431l10.871-8.388Z" transform="translate(485.22 6910.636)" fill="#333"/>
    <path id="Trazado_501701" data-name="Trazado 501701" d="M430.612,52.223a6.93,6.93,0,0,0-6.93,6.93v58.028a28.437,28.437,0,0,0,28.4,28.4H568.141a28.437,28.437,0,0,0,28.4-28.4V85.653a6.93,6.93,0,1,0-13.859,0v31.527a14.562,14.562,0,0,1-14.546,14.544H452.087a14.561,14.561,0,0,1-14.545-14.544V59.153a6.93,6.93,0,0,0-6.93-6.93" transform="translate(718.454 6915.822)" fill="#617a0b"/>
    <path id="Trazado_501702" data-name="Trazado 501702" d="M428.49,56.165a.866.866,0,0,0-.866.866v58.028A22.366,22.366,0,0,0,449.965,137.4H566.019a22.367,22.367,0,0,0,22.341-22.341V83.532a.866.866,0,0,0-1.732,0v31.527a20.632,20.632,0,0,1-20.609,20.608H449.965a20.631,20.631,0,0,1-20.609-20.608V57.031a.866.866,0,0,0-.866-.866" transform="translate(720.576 6917.943)" fill="#fff"/>
    <g transform="matrix(1, 0, 0, 1, 257.35, 6878.74)" filter="url(#Trazado_501706)">
      <path id="Trazado_501706-2" data-name="Trazado 501706" d="M7.931,0h118.3a7.931,7.931,0,0,1,7.931,7.931v118.3a7.931,7.931,0,0,1-7.931,7.931H7.932A7.932,7.932,0,0,1,0,126.235V7.931A7.931,7.931,0,0,1,7.931,0Z" transform="translate(27 24.86)" fill="#fff"/>
    </g>
    <g transform="matrix(1, 0, 0, 1, 257.35, 6878.74)" filter="url(#Trazado_501703)">
      <path id="Trazado_501703-2" data-name="Trazado 501703" d="M152.78,24.152v109.9a12.132,12.132,0,0,0,12.134,12.133h109.9a12.133,12.133,0,0,0,12.134-12.133V24.152a12.134,12.134,0,0,0-12.134-12.134h-109.9A12.133,12.133,0,0,0,152.78,24.152" transform="translate(89.88 11.98)" fill="#fff"/>
    </g>
    <g transform="matrix(1, 0, 0, 1, 257.35, 6878.74)" filter="url(#Trazado_630626)">
      <path id="Trazado_630626-2" data-name="Trazado 630626" d="M152.78,24.152v109.9a12.132,12.132,0,0,0,12.134,12.133h109.9a12.133,12.133,0,0,0,12.134-12.133V24.152a12.134,12.134,0,0,0-12.134-12.134h-109.9A12.133,12.133,0,0,0,152.78,24.152" transform="translate(529.37 11.98)" fill="#fff"/>
    </g>
    <g transform="matrix(1, 0, 0, 1, 257.35, 6878.74)" filter="url(#Trazado_634297)">
      <path id="Trazado_634297-2" data-name="Trazado 634297" d="M7.888,0H126.279a7.888,7.888,0,0,1,7.888,7.888V126.279a7.888,7.888,0,0,1-7.888,7.888H7.888A7.888,7.888,0,0,1,0,126.279V7.888A7.888,7.888,0,0,1,7.888,0Z" transform="translate(461.52 24.86)" fill="#fff"/>
    </g>
    <g transform="matrix(1, 0, 0, 1, 257.35, 6878.74)" filter="url(#Trazado_501704)">
      <path id="Trazado_501704-2" data-name="Trazado 501704" d="M436.26,24.152v109.9a12.132,12.132,0,0,0,12.133,12.133h109.9a12.133,12.133,0,0,0,12.133-12.133V24.152a12.134,12.134,0,0,0-12.133-12.134h-109.9A12.133,12.133,0,0,0,436.26,24.152" transform="translate(467.87 15.45)" fill="#fff"/>
    </g>
    <path id="Trazado_501705" data-name="Trazado 501705" d="M429.1,53.937a2.609,2.609,0,0,0-1.837,4.452,2.717,2.717,0,0,0,3.672,0,3.458,3.458,0,0,0,.331-.4,3.684,3.684,0,0,0,.241-.451,4.762,4.762,0,0,0,.138-.485,2.6,2.6,0,0,0-2.546-3.118" transform="translate(719.971 6916.743)" fill="#fff"/>
    <path id="Trazado_634298" data-name="Trazado 634298" d="M9.357,10.4H6.685V15H5.177V3.625H8.943A4.457,4.457,0,0,1,11.9,4.5a3.148,3.148,0,0,1,1.035,2.547A3.062,3.062,0,0,1,12.361,8.9a3.428,3.428,0,0,1-1.6,1.18l2.672,4.828V15H11.826ZM6.685,9.172h2.3a2.6,2.6,0,0,0,1.777-.579,1.959,1.959,0,0,0,.66-1.55,2.062,2.062,0,0,0-.629-1.62,2.663,2.663,0,0,0-1.816-.571h-2.3Zm11.633,5.984a3.693,3.693,0,0,1-2.8-1.129,4.19,4.19,0,0,1-1.078-3.02v-.266a5.073,5.073,0,0,1,.48-2.246,3.748,3.748,0,0,1,1.344-1.547,3.378,3.378,0,0,1,1.871-.559A3.166,3.166,0,0,1,20.7,7.477a4.7,4.7,0,0,1,.914,3.109v.6H15.888a3,3,0,0,0,.73,2.02,2.3,2.3,0,0,0,1.777.77,2.517,2.517,0,0,0,1.3-.312,3.259,3.259,0,0,0,.93-.828l.883.688A3.55,3.55,0,0,1,18.318,15.156Zm-.18-7.578a1.928,1.928,0,0,0-1.469.637A3.1,3.1,0,0,0,15.935,10h4.234V9.891a2.753,2.753,0,0,0-.594-1.707A1.815,1.815,0,0,0,18.138,7.578Zm6.516-1.031L24.7,7.609a3.08,3.08,0,0,1,2.531-1.219q2.68,0,2.7,3.023V15H28.49V9.406a1.946,1.946,0,0,0-.418-1.352,1.675,1.675,0,0,0-1.277-.437,2.086,2.086,0,0,0-1.234.375,2.546,2.546,0,0,0-.828.984V15H23.287V6.547ZM31.763,10.7a4.952,4.952,0,0,1,.922-3.129,3.137,3.137,0,0,1,4.766-.168V3H38.9V15H37.568l-.07-.906a2.943,2.943,0,0,1-2.414,1.063,2.887,2.887,0,0,1-2.395-1.2,5.008,5.008,0,0,1-.926-3.141Zm1.445.164a3.749,3.749,0,0,0,.594,2.25,1.92,1.92,0,0,0,1.641.813A2.108,2.108,0,0,0,37.451,12.7V8.813a2.125,2.125,0,0,0-1.992-1.2,1.929,1.929,0,0,0-1.656.82A4.128,4.128,0,0,0,33.209,10.867ZM42.709,15H41.263V6.547h1.445ZM41.146,4.3a.863.863,0,0,1,.215-.594A.807.807,0,0,1,42,3.469a.819.819,0,0,1,.641.242.854.854,0,0,1,.219.594.826.826,0,0,1-.219.586A.834.834,0,0,1,42,5.125a.821.821,0,0,1-.637-.234A.834.834,0,0,1,41.146,4.3ZM46.38,6.547l.039.938a3.122,3.122,0,0,1,2.508-1.094A2.417,2.417,0,0,1,51.341,7.75a3.2,3.2,0,0,1,1.1-.984,3.242,3.242,0,0,1,1.6-.375q2.781,0,2.828,2.945V15H55.419V9.422a1.941,1.941,0,0,0-.414-1.355,1.823,1.823,0,0,0-1.391-.449,1.917,1.917,0,0,0-1.336.48,1.949,1.949,0,0,0-.617,1.293V15H50.209V9.461a1.613,1.613,0,0,0-1.8-1.844,1.934,1.934,0,0,0-1.945,1.211V15H45.013V6.547ZM60.615,15H59.169V6.547h1.445ZM59.052,4.3a.863.863,0,0,1,.215-.594.807.807,0,0,1,.637-.242.819.819,0,0,1,.641.242.854.854,0,0,1,.219.594.826.826,0,0,1-.219.586.834.834,0,0,1-.641.234.821.821,0,0,1-.637-.234A.834.834,0,0,1,59.052,4.3Zm7.383,10.852a3.693,3.693,0,0,1-2.8-1.129,4.19,4.19,0,0,1-1.078-3.02v-.266a5.073,5.073,0,0,1,.48-2.246,3.748,3.748,0,0,1,1.344-1.547,3.378,3.378,0,0,1,1.871-.559,3.166,3.166,0,0,1,2.563,1.086,4.7,4.7,0,0,1,.914,3.109v.6H64.005a3,3,0,0,0,.73,2.02,2.3,2.3,0,0,0,1.777.77,2.517,2.517,0,0,0,1.3-.312,3.259,3.259,0,0,0,.93-.828l.883.688A3.55,3.55,0,0,1,66.435,15.156Zm-.18-7.578a1.928,1.928,0,0,0-1.469.637A3.1,3.1,0,0,0,64.052,10h4.234V9.891a2.753,2.753,0,0,0-.594-1.707A1.815,1.815,0,0,0,66.255,7.578Zm6.516-1.031.047,1.063a3.08,3.08,0,0,1,2.531-1.219q2.68,0,2.7,3.023V15H76.607V9.406a1.946,1.946,0,0,0-.418-1.352,1.675,1.675,0,0,0-1.277-.437,2.086,2.086,0,0,0-1.234.375,2.546,2.546,0,0,0-.828.984V15H71.4V6.547ZM82.193,4.5V6.547h1.578V7.664H82.193v5.249a1.173,1.173,0,0,0,.211.763.888.888,0,0,0,.719.254,3.5,3.5,0,0,0,.688-.094V15a4.215,4.215,0,0,1-1.109.155,1.8,1.8,0,0,1-1.461-.586,2.517,2.517,0,0,1-.492-1.664V7.664H79.209V6.547h1.539V4.5Zm2.727,6.2a4.993,4.993,0,0,1,.488-2.234A3.643,3.643,0,0,1,86.767,6.93a3.7,3.7,0,0,1,1.988-.539,3.565,3.565,0,0,1,2.793,1.2,4.6,4.6,0,0,1,1.066,3.18v.1a5.036,5.036,0,0,1-.473,2.215,3.589,3.589,0,0,1-1.352,1.527,3.743,3.743,0,0,1-2.02.547,3.556,3.556,0,0,1-2.785-1.2A4.575,4.575,0,0,1,84.919,10.8Zm1.453.172a3.616,3.616,0,0,0,.652,2.258,2.211,2.211,0,0,0,3.5-.012,3.955,3.955,0,0,0,.648-2.418,3.61,3.61,0,0,0-.66-2.254,2.1,2.1,0,0,0-1.754-.863,2.075,2.075,0,0,0-1.727.852A3.925,3.925,0,0,0,86.373,10.867ZM98.037,10.7a4.952,4.952,0,0,1,.922-3.129,3.137,3.137,0,0,1,4.766-.168V3h1.445V15h-1.328l-.07-.906a2.943,2.943,0,0,1-2.414,1.063,2.887,2.887,0,0,1-2.395-1.2,5.008,5.008,0,0,1-.926-3.141Zm1.445.164a3.749,3.749,0,0,0,.594,2.25,1.92,1.92,0,0,0,1.641.813,2.108,2.108,0,0,0,2.008-1.234V8.813a2.125,2.125,0,0,0-1.992-1.2,1.929,1.929,0,0,0-1.656.82A4.128,4.128,0,0,0,99.482,10.867Zm11.437,4.289a3.693,3.693,0,0,1-2.8-1.129,4.19,4.19,0,0,1-1.078-3.02v-.266a5.073,5.073,0,0,1,.48-2.246,3.748,3.748,0,0,1,1.344-1.547,3.378,3.378,0,0,1,1.871-.559A3.166,3.166,0,0,1,113.3,7.477a4.7,4.7,0,0,1,.914,3.109v.6H108.49a3,3,0,0,0,.73,2.02,2.3,2.3,0,0,0,1.777.77,2.517,2.517,0,0,0,1.3-.312,3.259,3.259,0,0,0,.93-.828l.883.688A3.55,3.55,0,0,1,110.919,15.156Zm-.18-7.578a1.928,1.928,0,0,0-1.469.637A3.1,3.1,0,0,0,108.537,10h4.234V9.891a2.753,2.753,0,0,0-.594-1.707A1.815,1.815,0,0,0,110.74,7.578ZM13.357,39H11.912V27h1.445Zm1.93-4.3a4.993,4.993,0,0,1,.488-2.234,3.643,3.643,0,0,1,1.359-1.531,3.7,3.7,0,0,1,1.988-.539,3.565,3.565,0,0,1,2.793,1.2,4.6,4.6,0,0,1,1.066,3.18v.1a5.036,5.036,0,0,1-.473,2.215,3.589,3.589,0,0,1-1.352,1.527,3.743,3.743,0,0,1-2.02.547,3.556,3.556,0,0,1-2.785-1.2A4.575,4.575,0,0,1,15.287,34.8Zm1.453.172a3.616,3.616,0,0,0,.652,2.258,2.211,2.211,0,0,0,3.5-.012,3.955,3.955,0,0,0,.648-2.418,3.61,3.61,0,0,0-.66-2.254,2.1,2.1,0,0,0-1.754-.863,2.075,2.075,0,0,0-1.727.852A3.925,3.925,0,0,0,16.74,34.867Zm12.977,1.891a1.064,1.064,0,0,0-.441-.91,4.249,4.249,0,0,0-1.539-.559,7.277,7.277,0,0,1-1.742-.562,2.479,2.479,0,0,1-.953-.781,1.869,1.869,0,0,1-.309-1.078,2.193,2.193,0,0,1,.879-1.758,3.432,3.432,0,0,1,2.246-.719,3.532,3.532,0,0,1,2.332.742,2.357,2.357,0,0,1,.895,1.9H29.63a1.3,1.3,0,0,0-.5-1.023,1.888,1.888,0,0,0-1.27-.43,1.976,1.976,0,0,0-1.234.344,1.082,1.082,0,0,0-.445.9.877.877,0,0,0,.414.789,5.1,5.1,0,0,0,1.5.508,7.8,7.8,0,0,1,1.754.578,2.558,2.558,0,0,1,1,.809,1.988,1.988,0,0,1,.324,1.152,2.163,2.163,0,0,1-.906,1.816,3.8,3.8,0,0,1-2.352.684,4.257,4.257,0,0,1-1.8-.359,2.922,2.922,0,0,1-1.223-1,2.42,2.42,0,0,1-.441-1.395h1.445a1.5,1.5,0,0,0,.582,1.152,2.258,2.258,0,0,0,1.434.426,2.331,2.331,0,0,0,1.316-.332A1.02,1.02,0,0,0,29.716,36.758Zm12.211,0a1.064,1.064,0,0,0-.441-.91,4.249,4.249,0,0,0-1.539-.559,7.277,7.277,0,0,1-1.742-.562,2.479,2.479,0,0,1-.953-.781,1.869,1.869,0,0,1-.309-1.078,2.193,2.193,0,0,1,.879-1.758,3.432,3.432,0,0,1,2.246-.719,3.532,3.532,0,0,1,2.332.742,2.357,2.357,0,0,1,.895,1.9H41.841a1.3,1.3,0,0,0-.5-1.023,1.888,1.888,0,0,0-1.27-.43,1.976,1.976,0,0,0-1.234.344,1.082,1.082,0,0,0-.445.9.877.877,0,0,0,.414.789,5.1,5.1,0,0,0,1.5.508,7.8,7.8,0,0,1,1.754.578,2.558,2.558,0,0,1,1,.809,1.988,1.988,0,0,1,.324,1.152,2.163,2.163,0,0,1-.906,1.816,3.8,3.8,0,0,1-2.352.684,4.257,4.257,0,0,1-1.8-.359,2.922,2.922,0,0,1-1.223-1,2.42,2.42,0,0,1-.441-1.395H38.1a1.5,1.5,0,0,0,.582,1.152,2.258,2.258,0,0,0,1.434.426,2.331,2.331,0,0,0,1.316-.332A1.02,1.02,0,0,0,41.927,36.758ZM46.826,39H45.38V30.547h1.445ZM45.263,28.3a.863.863,0,0,1,.215-.594.807.807,0,0,1,.637-.242.819.819,0,0,1,.641.242.854.854,0,0,1,.219.594.826.826,0,0,1-.219.586.834.834,0,0,1-.641.234.821.821,0,0,1-.637-.234A.834.834,0,0,1,45.263,28.3Zm5.836.2v2.047h1.578v1.117H51.1v5.249a1.173,1.173,0,0,0,.211.763.888.888,0,0,0,.719.254,3.5,3.5,0,0,0,.688-.094V39a4.215,4.215,0,0,1-1.109.155,1.8,1.8,0,0,1-1.461-.586,2.517,2.517,0,0,1-.492-1.664V31.664H48.115V30.547h1.539V28.5ZM55.935,39H54.49V30.547h1.445ZM54.373,28.3a.863.863,0,0,1,.215-.594.807.807,0,0,1,.637-.242.819.819,0,0,1,.641.242.854.854,0,0,1,.219.594.826.826,0,0,1-.219.586.834.834,0,0,1-.641.234.821.821,0,0,1-.637-.234A.834.834,0,0,1,54.373,28.3ZM57.865,34.7a4.993,4.993,0,0,1,.488-2.234,3.643,3.643,0,0,1,1.359-1.531,3.7,3.7,0,0,1,1.988-.539,3.565,3.565,0,0,1,2.793,1.2,4.6,4.6,0,0,1,1.066,3.18v.1a5.036,5.036,0,0,1-.473,2.215,3.589,3.589,0,0,1-1.352,1.527,3.743,3.743,0,0,1-2.02.547,3.556,3.556,0,0,1-2.785-1.2A4.575,4.575,0,0,1,57.865,34.8Zm1.453.172a3.616,3.616,0,0,0,.652,2.258,2.211,2.211,0,0,0,3.5-.012,3.955,3.955,0,0,0,.648-2.418,3.61,3.61,0,0,0-.66-2.254,2.1,2.1,0,0,0-1.754-.863,2.075,2.075,0,0,0-1.727.852A3.925,3.925,0,0,0,59.318,34.867Zm12.977,1.891a1.064,1.064,0,0,0-.441-.91,4.249,4.249,0,0,0-1.539-.559,7.277,7.277,0,0,1-1.742-.562,2.479,2.479,0,0,1-.953-.781,1.869,1.869,0,0,1-.309-1.078,2.193,2.193,0,0,1,.879-1.758,3.432,3.432,0,0,1,2.246-.719,3.532,3.532,0,0,1,2.332.742,2.357,2.357,0,0,1,.895,1.9H72.209a1.3,1.3,0,0,0-.5-1.023,1.888,1.888,0,0,0-1.27-.43,1.976,1.976,0,0,0-1.234.344,1.082,1.082,0,0,0-.445.9.877.877,0,0,0,.414.789,5.1,5.1,0,0,0,1.5.508,7.8,7.8,0,0,1,1.754.578,2.558,2.558,0,0,1,1,.809,1.988,1.988,0,0,1,.324,1.152,2.163,2.163,0,0,1-.906,1.816,3.8,3.8,0,0,1-2.352.684,4.257,4.257,0,0,1-1.8-.359,2.922,2.922,0,0,1-1.223-1,2.42,2.42,0,0,1-.441-1.395h1.445a1.5,1.5,0,0,0,.582,1.152,2.258,2.258,0,0,0,1.434.426,2.331,2.331,0,0,0,1.316-.332A1.02,1.02,0,0,0,72.294,36.758Zm14.773.25,1.625-6.461h1.445L87.677,39H86.505l-2.055-6.406-2,6.406H81.279l-2.453-8.453h1.438l1.664,6.328L83.9,30.547H85.06Zm8.047,2.148a3.693,3.693,0,0,1-2.8-1.129,4.19,4.19,0,0,1-1.078-3.02v-.266a5.073,5.073,0,0,1,.48-2.246,3.748,3.748,0,0,1,1.344-1.547,3.378,3.378,0,0,1,1.871-.559A3.166,3.166,0,0,1,97.5,31.477a4.7,4.7,0,0,1,.914,3.109v.6H92.685a3,3,0,0,0,.73,2.02,2.3,2.3,0,0,0,1.777.77,2.517,2.517,0,0,0,1.3-.312,3.259,3.259,0,0,0,.93-.828l.883.688A3.55,3.55,0,0,1,95.115,39.156Zm-.18-7.578a1.928,1.928,0,0,0-1.469.637A3.1,3.1,0,0,0,92.732,34h4.234v-.109a2.753,2.753,0,0,0-.594-1.707A1.815,1.815,0,0,0,94.935,31.578Zm12.3,3.289a5.026,5.026,0,0,1-.891,3.113,2.846,2.846,0,0,1-2.391,1.176,2.947,2.947,0,0,1-2.477-1.133l-.07.977h-1.328V27h1.445v4.477a2.93,2.93,0,0,1,2.414-1.086,2.863,2.863,0,0,1,2.418,1.164,5.177,5.177,0,0,1,.879,3.188Zm-1.445-.164a3.906,3.906,0,0,0-.57-2.281,1.888,1.888,0,0,0-1.641-.8,2.122,2.122,0,0,0-2.055,1.328V36.6a2.181,2.181,0,0,0,2.07,1.328,1.878,1.878,0,0,0,1.617-.8A4.153,4.153,0,0,0,105.794,34.7Z" transform="translate(291.041 6951.867)" fill="#12263f"/>
    <path id="Trazado_634299" data-name="Trazado 634299" d="M26.638,4.852H22.982V15H21.49V4.852H17.841V3.625h8.8ZM29.669,15H28.224V6.547h1.445ZM28.107,4.3a.863.863,0,0,1,.215-.594.807.807,0,0,1,.637-.242.819.819,0,0,1,.641.242.854.854,0,0,1,.219.594.826.826,0,0,1-.219.586.834.834,0,0,1-.641.234.821.821,0,0,1-.637-.234A.834.834,0,0,1,28.107,4.3ZM35.49,15.156a3.693,3.693,0,0,1-2.8-1.129,4.19,4.19,0,0,1-1.078-3.02v-.266A5.073,5.073,0,0,1,32.1,8.5a3.748,3.748,0,0,1,1.344-1.547,3.378,3.378,0,0,1,1.871-.559,3.166,3.166,0,0,1,2.563,1.086,4.7,4.7,0,0,1,.914,3.109v.6H33.06a3,3,0,0,0,.73,2.02,2.3,2.3,0,0,0,1.777.77,2.517,2.517,0,0,0,1.3-.312,3.259,3.259,0,0,0,.93-.828l.883.688A3.55,3.55,0,0,1,35.49,15.156Zm-.18-7.578a1.928,1.928,0,0,0-1.469.637A3.1,3.1,0,0,0,33.107,10h4.234V9.891a2.753,2.753,0,0,0-.594-1.707A1.815,1.815,0,0,0,35.31,7.578Zm6.508-1.031.039.938a3.122,3.122,0,0,1,2.508-1.094A2.417,2.417,0,0,1,46.779,7.75a3.2,3.2,0,0,1,1.1-.984,3.242,3.242,0,0,1,1.6-.375q2.781,0,2.828,2.945V15H50.857V9.422a1.941,1.941,0,0,0-.414-1.355,1.823,1.823,0,0,0-1.391-.449,1.917,1.917,0,0,0-1.336.48A1.949,1.949,0,0,0,47.1,9.391V15H45.646V9.461a1.613,1.613,0,0,0-1.8-1.844A1.934,1.934,0,0,0,41.9,8.828V15H40.451V6.547Zm19.8,4.32a5.062,5.062,0,0,1-.883,3.109,2.829,2.829,0,0,1-2.391,1.18,3.1,3.1,0,0,1-2.422-.977v4.07H54.482V6.547H55.8l.07.938a2.977,2.977,0,0,1,2.453-1.094,2.882,2.882,0,0,1,2.41,1.148,5.117,5.117,0,0,1,.887,3.2ZM60.177,10.7a3.735,3.735,0,0,0-.609-2.258A1.963,1.963,0,0,0,57.9,7.617a2.125,2.125,0,0,0-1.969,1.164V12.82a2.129,2.129,0,0,0,1.984,1.156,1.954,1.954,0,0,0,1.652-.824A4.077,4.077,0,0,0,60.177,10.7Zm2.9-.008a4.993,4.993,0,0,1,.488-2.234A3.642,3.642,0,0,1,64.923,6.93a3.7,3.7,0,0,1,1.988-.539,3.565,3.565,0,0,1,2.793,1.2,4.6,4.6,0,0,1,1.066,3.18v.1a5.036,5.036,0,0,1-.473,2.215,3.589,3.589,0,0,1-1.352,1.527,3.743,3.743,0,0,1-2.02.547,3.556,3.556,0,0,1-2.785-1.2A4.575,4.575,0,0,1,63.076,10.8Zm1.453.172a3.616,3.616,0,0,0,.652,2.258,2.211,2.211,0,0,0,3.5-.012,3.955,3.955,0,0,0,.648-2.418,3.61,3.61,0,0,0-.66-2.254,2.1,2.1,0,0,0-1.754-.863,2.075,2.075,0,0,0-1.727.852A3.925,3.925,0,0,0,64.529,10.867Zm12.977,1.891a1.064,1.064,0,0,0-.441-.91,4.249,4.249,0,0,0-1.539-.559,7.277,7.277,0,0,1-1.742-.562,2.479,2.479,0,0,1-.953-.781,1.869,1.869,0,0,1-.309-1.078A2.193,2.193,0,0,1,73.4,7.109a3.432,3.432,0,0,1,2.246-.719,3.532,3.532,0,0,1,2.332.742,2.357,2.357,0,0,1,.895,1.9H77.419a1.3,1.3,0,0,0-.5-1.023,1.888,1.888,0,0,0-1.27-.43,1.976,1.976,0,0,0-1.234.344,1.082,1.082,0,0,0-.445.9.877.877,0,0,0,.414.789,5.1,5.1,0,0,0,1.5.508,7.8,7.8,0,0,1,1.754.578,2.558,2.558,0,0,1,1,.809,1.988,1.988,0,0,1,.324,1.152,2.163,2.163,0,0,1-.906,1.816,3.8,3.8,0,0,1-2.352.684,4.257,4.257,0,0,1-1.8-.359,2.922,2.922,0,0,1-1.223-1,2.42,2.42,0,0,1-.441-1.395h1.445a1.5,1.5,0,0,0,.582,1.152,2.258,2.258,0,0,0,1.434.426,2.331,2.331,0,0,0,1.316-.332A1.02,1.02,0,0,0,77.505,12.758ZM84.443,10.7a4.952,4.952,0,0,1,.922-3.129,3.137,3.137,0,0,1,4.766-.168V3h1.445V15H90.248l-.07-.906a2.943,2.943,0,0,1-2.414,1.063,2.887,2.887,0,0,1-2.395-1.2,5.008,5.008,0,0,1-.926-3.141Zm1.445.164a3.749,3.749,0,0,0,.594,2.25,1.92,1.92,0,0,0,1.641.813A2.108,2.108,0,0,0,90.13,12.7V8.813a2.125,2.125,0,0,0-1.992-1.2,1.929,1.929,0,0,0-1.656.82A4.128,4.128,0,0,0,85.888,10.867Zm11.438,4.289a3.693,3.693,0,0,1-2.8-1.129,4.19,4.19,0,0,1-1.078-3.02v-.266a5.073,5.073,0,0,1,.48-2.246,3.748,3.748,0,0,1,1.344-1.547,3.378,3.378,0,0,1,1.871-.559,3.166,3.166,0,0,1,2.563,1.086,4.7,4.7,0,0,1,.914,3.109v.6H94.9a3,3,0,0,0,.73,2.02,2.3,2.3,0,0,0,1.777.77,2.517,2.517,0,0,0,1.3-.312,3.259,3.259,0,0,0,.93-.828l.883.688A3.55,3.55,0,0,1,97.326,15.156Zm-.18-7.578a1.928,1.928,0,0,0-1.469.637A3.1,3.1,0,0,0,94.943,10h4.234V9.891a2.753,2.753,0,0,0-.594-1.707A1.815,1.815,0,0,0,97.146,7.578ZM21.22,34.867a5.062,5.062,0,0,1-.883,3.109,2.829,2.829,0,0,1-2.391,1.18,3.1,3.1,0,0,1-2.422-.977v4.07H14.08v-11.7H15.4l.07.938a2.977,2.977,0,0,1,2.453-1.094,2.882,2.882,0,0,1,2.41,1.148,5.117,5.117,0,0,1,.887,3.2ZM19.775,34.7a3.735,3.735,0,0,0-.609-2.258,1.963,1.963,0,0,0-1.672-.828,2.125,2.125,0,0,0-1.969,1.164V36.82a2.129,2.129,0,0,0,1.984,1.156,1.954,1.954,0,0,0,1.652-.824A4.077,4.077,0,0,0,19.775,34.7Zm6.789,4.453a3.693,3.693,0,0,1-2.8-1.129,4.19,4.19,0,0,1-1.078-3.02v-.266a5.073,5.073,0,0,1,.48-2.246,3.748,3.748,0,0,1,1.344-1.547,3.378,3.378,0,0,1,1.871-.559,3.166,3.166,0,0,1,2.563,1.086,4.7,4.7,0,0,1,.914,3.109v.6H24.134a3,3,0,0,0,.73,2.02,2.3,2.3,0,0,0,1.777.77,2.517,2.517,0,0,0,1.3-.312,3.259,3.259,0,0,0,.93-.828l.883.688A3.55,3.55,0,0,1,26.564,39.156Zm-.18-7.578a1.928,1.928,0,0,0-1.469.637A3.1,3.1,0,0,0,24.181,34h4.234v-.109a2.753,2.753,0,0,0-.594-1.707A1.815,1.815,0,0,0,26.384,31.578Zm9.234.266a4.331,4.331,0,0,0-.711-.055A1.9,1.9,0,0,0,32.978,33v6H31.533V30.547h1.406l.023.977a2.251,2.251,0,0,1,2.016-1.133,1.477,1.477,0,0,1,.641.109Zm2.688-1.3.039.938a3.122,3.122,0,0,1,2.508-1.094,2.417,2.417,0,0,1,2.414,1.359,3.2,3.2,0,0,1,1.1-.984,3.242,3.242,0,0,1,1.6-.375q2.781,0,2.828,2.945V39H47.345V33.422a1.941,1.941,0,0,0-.414-1.355,1.823,1.823,0,0,0-1.391-.449,1.916,1.916,0,0,0-1.336.48,1.949,1.949,0,0,0-.617,1.293V39H42.134V33.461a1.613,1.613,0,0,0-1.8-1.844,1.934,1.934,0,0,0-1.945,1.211V39H36.939V30.547ZM56.189,39a3.036,3.036,0,0,1-.2-.891,3.225,3.225,0,0,1-2.406,1.047,2.984,2.984,0,0,1-2.051-.707,2.287,2.287,0,0,1-.8-1.793,2.39,2.39,0,0,1,1-2.051,4.733,4.733,0,0,1,2.824-.73h1.406v-.664A1.623,1.623,0,0,0,55.509,32a1.821,1.821,0,0,0-1.336-.449,2.107,2.107,0,0,0-1.3.391,1.151,1.151,0,0,0-.523.945H50.9a2,2,0,0,1,.449-1.223,3.066,3.066,0,0,1,1.219-.934,4.1,4.1,0,0,1,1.691-.344,3.342,3.342,0,0,1,2.289.73,2.635,2.635,0,0,1,.859,2.012v3.891a4.757,4.757,0,0,0,.3,1.852V39Zm-2.4-1.1a2.54,2.54,0,0,0,1.289-.352,2.127,2.127,0,0,0,.883-.914V34.9H54.83q-2.656,0-2.656,1.555a1.316,1.316,0,0,0,.453,1.063A1.742,1.742,0,0,0,53.791,37.9Zm7.25-7.352.047,1.063a3.08,3.08,0,0,1,2.531-1.219q2.68,0,2.7,3.023V39H64.876V33.406a1.946,1.946,0,0,0-.418-1.352,1.675,1.675,0,0,0-1.277-.437,2.086,2.086,0,0,0-1.234.375,2.546,2.546,0,0,0-.828.984V39H59.673V30.547Zm10.969,8.609a3.693,3.693,0,0,1-2.8-1.129,4.19,4.19,0,0,1-1.078-3.02v-.266a5.073,5.073,0,0,1,.48-2.246,3.748,3.748,0,0,1,1.344-1.547,3.378,3.378,0,0,1,1.871-.559,3.166,3.166,0,0,1,2.563,1.086,4.7,4.7,0,0,1,.914,3.109v.6H69.58a3,3,0,0,0,.73,2.02,2.3,2.3,0,0,0,1.777.77,2.517,2.517,0,0,0,1.3-.312,3.259,3.259,0,0,0,.93-.828l.883.688A3.55,3.55,0,0,1,72.009,39.156Zm-.18-7.578a1.928,1.928,0,0,0-1.469.637A3.1,3.1,0,0,0,69.626,34h4.234v-.109a2.753,2.753,0,0,0-.594-1.707A1.815,1.815,0,0,0,71.83,31.578Zm6.516-1.031.047,1.063a3.08,3.08,0,0,1,2.531-1.219q2.68,0,2.7,3.023V39H82.181V33.406a1.946,1.946,0,0,0-.418-1.352,1.675,1.675,0,0,0-1.277-.437,2.086,2.086,0,0,0-1.234.375,2.546,2.546,0,0,0-.828.984V39H76.978V30.547ZM89.2,37.977a2.082,2.082,0,0,0,1.352-.469,1.649,1.649,0,0,0,.641-1.172h1.367a2.621,2.621,0,0,1-.5,1.383,3.293,3.293,0,0,1-1.23,1.047,3.55,3.55,0,0,1-1.629.391A3.482,3.482,0,0,1,86.451,38a4.59,4.59,0,0,1-1.02-3.152v-.242a5.089,5.089,0,0,1,.453-2.2,3.451,3.451,0,0,1,1.3-1.492,3.7,3.7,0,0,1,2-.531,3.39,3.39,0,0,1,2.363.852,3.043,3.043,0,0,1,1,2.211H91.189a1.992,1.992,0,0,0-.621-1.348,1.932,1.932,0,0,0-1.379-.527,2.023,2.023,0,0,0-1.707.793,3.724,3.724,0,0,0-.605,2.293v.273a3.65,3.65,0,0,0,.6,2.25A2.033,2.033,0,0,0,89.2,37.977ZM95.751,39H94.306V30.547h1.445ZM94.189,28.3a.863.863,0,0,1,.215-.594.807.807,0,0,1,.637-.242.819.819,0,0,1,.641.242.854.854,0,0,1,.219.594.826.826,0,0,1-.219.586.834.834,0,0,1-.641.234.821.821,0,0,1-.637-.234A.834.834,0,0,1,94.189,28.3ZM103.283,39a3.036,3.036,0,0,1-.2-.891,3.225,3.225,0,0,1-2.406,1.047,2.984,2.984,0,0,1-2.051-.707,2.288,2.288,0,0,1-.8-1.793,2.39,2.39,0,0,1,1-2.051,4.733,4.733,0,0,1,2.824-.73h1.406v-.664A1.623,1.623,0,0,0,102.6,32a1.821,1.821,0,0,0-1.336-.449,2.108,2.108,0,0,0-1.3.391,1.151,1.151,0,0,0-.523.945H97.994a2,2,0,0,1,.449-1.223,3.066,3.066,0,0,1,1.219-.934,4.1,4.1,0,0,1,1.691-.344,3.342,3.342,0,0,1,2.289.73,2.635,2.635,0,0,1,.859,2.012v3.891a4.757,4.757,0,0,0,.3,1.852V39Zm-2.4-1.1a2.54,2.54,0,0,0,1.289-.352,2.127,2.127,0,0,0,.883-.914V34.9h-1.133q-2.656,0-2.656,1.555a1.316,1.316,0,0,0,.453,1.063A1.742,1.742,0,0,0,100.884,37.9Z" transform="translate(506.701 6950.29)" fill="#12263f"/>
    <path id="Trazado_634300" data-name="Trazado 634300" d="M33.474,10.547V15h-1.5V3.625h4.2a4.215,4.215,0,0,1,2.926.953A3.231,3.231,0,0,1,40.154,7.1a3.189,3.189,0,0,1-1.035,2.551,4.4,4.4,0,0,1-2.965.895Zm0-1.227h2.7a2.7,2.7,0,0,0,1.844-.567,2.075,2.075,0,0,0,.641-1.64,2.143,2.143,0,0,0-.641-1.628,2.525,2.525,0,0,0-1.758-.634H33.474ZM46.974,15a3.036,3.036,0,0,1-.2-.891,3.225,3.225,0,0,1-2.406,1.047,2.984,2.984,0,0,1-2.051-.707,2.287,2.287,0,0,1-.8-1.793,2.39,2.39,0,0,1,1-2.051,4.733,4.733,0,0,1,2.824-.73h1.406V9.211A1.623,1.623,0,0,0,46.294,8a1.821,1.821,0,0,0-1.336-.449,2.107,2.107,0,0,0-1.3.391,1.151,1.151,0,0,0-.523.945H41.685a2,2,0,0,1,.449-1.223,3.066,3.066,0,0,1,1.219-.934,4.1,4.1,0,0,1,1.691-.344,3.342,3.342,0,0,1,2.289.73,2.635,2.635,0,0,1,.859,2.012v3.891a4.757,4.757,0,0,0,.3,1.852V15Zm-2.4-1.1a2.54,2.54,0,0,0,1.289-.352,2.127,2.127,0,0,0,.883-.914V10.9H45.615q-2.656,0-2.656,1.555a1.316,1.316,0,0,0,.453,1.063A1.742,1.742,0,0,0,44.576,13.9ZM45.912,3h1.75L45.568,5.3l-1.164,0Zm4.2,7.7a4.968,4.968,0,0,1,.914-3.145,3.151,3.151,0,0,1,4.836-.074l.07-.937h1.32V14.8a3.439,3.439,0,0,1-.973,2.586,3.589,3.589,0,0,1-2.613.945,4.348,4.348,0,0,1-1.789-.391,3.08,3.08,0,0,1-1.336-1.07l.75-.867a2.826,2.826,0,0,0,2.273,1.148,2.214,2.214,0,0,0,1.645-.594,2.269,2.269,0,0,0,.59-1.672v-.727a2.971,2.971,0,0,1-2.367,1,2.887,2.887,0,0,1-2.4-1.2A5.224,5.224,0,0,1,50.115,10.7Zm1.453.164a3.79,3.79,0,0,0,.586,2.246,1.9,1.9,0,0,0,1.641.816A2.117,2.117,0,0,0,55.8,12.688V8.828A2.142,2.142,0,0,0,53.81,7.617a1.921,1.921,0,0,0-1.648.82A4.128,4.128,0,0,0,51.568,10.867ZM61.005,15H59.56V6.547h1.445ZM59.443,4.3a.863.863,0,0,1,.215-.594.807.807,0,0,1,.637-.242.819.819,0,0,1,.641.242.854.854,0,0,1,.219.594.826.826,0,0,1-.219.586.834.834,0,0,1-.641.234.821.821,0,0,1-.637-.234A.834.834,0,0,1,59.443,4.3Zm5.242,2.242.047,1.063a3.08,3.08,0,0,1,2.531-1.219q2.68,0,2.7,3.023V15H68.521V9.406A1.946,1.946,0,0,0,68.1,8.055a1.675,1.675,0,0,0-1.277-.437,2.086,2.086,0,0,0-1.234.375,2.546,2.546,0,0,0-.828.984V15H63.318V6.547ZM77.365,15a3.036,3.036,0,0,1-.2-.891,3.225,3.225,0,0,1-2.406,1.047,2.984,2.984,0,0,1-2.051-.707,2.288,2.288,0,0,1-.8-1.793,2.39,2.39,0,0,1,1-2.051,4.733,4.733,0,0,1,2.824-.73h1.406V9.211A1.623,1.623,0,0,0,76.685,8a1.821,1.821,0,0,0-1.336-.449,2.108,2.108,0,0,0-1.3.391,1.151,1.151,0,0,0-.523.945H72.076a2,2,0,0,1,.449-1.223,3.066,3.066,0,0,1,1.219-.934,4.1,4.1,0,0,1,1.691-.344,3.342,3.342,0,0,1,2.289.73,2.635,2.635,0,0,1,.859,2.012v3.891a4.757,4.757,0,0,0,.3,1.852V15Zm-2.4-1.1a2.54,2.54,0,0,0,1.289-.352,2.127,2.127,0,0,0,.883-.914V10.9H76.005q-2.656,0-2.656,1.555a1.316,1.316,0,0,0,.453,1.063A1.742,1.742,0,0,0,74.966,13.9Zm10.8-1.141a1.064,1.064,0,0,0-.441-.91,4.249,4.249,0,0,0-1.539-.559,7.277,7.277,0,0,1-1.742-.562,2.479,2.479,0,0,1-.953-.781,1.869,1.869,0,0,1-.309-1.078,2.193,2.193,0,0,1,.879-1.758,3.432,3.432,0,0,1,2.246-.719,3.532,3.532,0,0,1,2.332.742,2.357,2.357,0,0,1,.895,1.9H85.685a1.3,1.3,0,0,0-.5-1.023,1.888,1.888,0,0,0-1.27-.43,1.976,1.976,0,0,0-1.234.344,1.082,1.082,0,0,0-.445.9.877.877,0,0,0,.414.789,5.1,5.1,0,0,0,1.5.508A7.8,7.8,0,0,1,85.9,10.7a2.558,2.558,0,0,1,1,.809,1.988,1.988,0,0,1,.324,1.152,2.163,2.163,0,0,1-.906,1.816,3.8,3.8,0,0,1-2.352.684,4.257,4.257,0,0,1-1.8-.359,2.922,2.922,0,0,1-1.223-1A2.42,2.42,0,0,1,80.5,12.4h1.445a1.5,1.5,0,0,0,.582,1.152,2.258,2.258,0,0,0,1.434.426,2.331,2.331,0,0,0,1.316-.332A1.02,1.02,0,0,0,85.771,12.758ZM31.376,37.039l2.094-6.492h1.477L31.916,39h-1.1l-3.062-8.453h1.477ZM37.908,39H36.462V30.547h1.445ZM36.345,28.3a.863.863,0,0,1,.215-.594.807.807,0,0,1,.637-.242.819.819,0,0,1,.641.242.854.854,0,0,1,.219.594.826.826,0,0,1-.219.586.834.834,0,0,1-.641.234.821.821,0,0,1-.637-.234A.834.834,0,0,1,36.345,28.3Zm8.8,8.453a1.064,1.064,0,0,0-.441-.91,4.249,4.249,0,0,0-1.539-.559,7.277,7.277,0,0,1-1.742-.562,2.479,2.479,0,0,1-.953-.781,1.869,1.869,0,0,1-.309-1.078,2.193,2.193,0,0,1,.879-1.758,3.432,3.432,0,0,1,2.246-.719,3.532,3.532,0,0,1,2.332.742,2.357,2.357,0,0,1,.895,1.9H45.056a1.3,1.3,0,0,0-.5-1.023,1.888,1.888,0,0,0-1.27-.43,1.976,1.976,0,0,0-1.234.344,1.082,1.082,0,0,0-.445.9.877.877,0,0,0,.414.789,5.1,5.1,0,0,0,1.5.508,7.8,7.8,0,0,1,1.754.578,2.558,2.558,0,0,1,1,.809,1.988,1.988,0,0,1,.324,1.152,2.163,2.163,0,0,1-.906,1.816,3.8,3.8,0,0,1-2.352.684,4.257,4.257,0,0,1-1.8-.359,2.922,2.922,0,0,1-1.223-1,2.42,2.42,0,0,1-.441-1.395h1.445a1.5,1.5,0,0,0,.582,1.152,2.258,2.258,0,0,0,1.434.426,2.331,2.331,0,0,0,1.316-.332A1.02,1.02,0,0,0,45.142,36.758ZM50.041,39H48.6V30.547h1.445ZM48.478,28.3a.863.863,0,0,1,.215-.594.807.807,0,0,1,.637-.242.819.819,0,0,1,.641.242.854.854,0,0,1,.219.594.826.826,0,0,1-.219.586.834.834,0,0,1-.641.234.821.821,0,0,1-.637-.234A.834.834,0,0,1,48.478,28.3Zm5.836.2v2.047h1.578v1.117H54.314v5.249a1.173,1.173,0,0,0,.211.763.888.888,0,0,0,.719.254,3.5,3.5,0,0,0,.688-.094V39a4.215,4.215,0,0,1-1.109.155,1.8,1.8,0,0,1-1.461-.586,2.517,2.517,0,0,1-.492-1.664V31.664H51.33V30.547h1.539V28.5ZM62.8,39a3.036,3.036,0,0,1-.2-.891,3.225,3.225,0,0,1-2.406,1.047,2.984,2.984,0,0,1-2.051-.707,2.287,2.287,0,0,1-.8-1.793,2.39,2.39,0,0,1,1-2.051,4.733,4.733,0,0,1,2.824-.73h1.406v-.664A1.623,1.623,0,0,0,62.119,32a1.821,1.821,0,0,0-1.336-.449,2.107,2.107,0,0,0-1.3.391,1.151,1.151,0,0,0-.523.945H57.509a2,2,0,0,1,.449-1.223,3.066,3.066,0,0,1,1.219-.934,4.1,4.1,0,0,1,1.691-.344,3.342,3.342,0,0,1,2.289.73,2.635,2.635,0,0,1,.859,2.012v3.891a4.757,4.757,0,0,0,.3,1.852V39Zm-2.4-1.1a2.54,2.54,0,0,0,1.289-.352,2.127,2.127,0,0,0,.883-.914V34.9H61.439q-2.656,0-2.656,1.555a1.316,1.316,0,0,0,.453,1.063A1.742,1.742,0,0,0,60.4,37.9Zm5.531-3.2a4.952,4.952,0,0,1,.922-3.129,3.137,3.137,0,0,1,4.766-.168V27h1.445V39H71.736l-.07-.906a2.943,2.943,0,0,1-2.414,1.063,2.887,2.887,0,0,1-2.395-1.2,5.008,5.008,0,0,1-.926-3.141Zm1.445.164a3.749,3.749,0,0,0,.594,2.25,1.92,1.92,0,0,0,1.641.813A2.108,2.108,0,0,0,71.619,36.7V32.813a2.125,2.125,0,0,0-1.992-1.2,1.929,1.929,0,0,0-1.656.82A4.128,4.128,0,0,0,67.376,34.867ZM80.525,39a3.036,3.036,0,0,1-.2-.891,3.225,3.225,0,0,1-2.406,1.047,2.984,2.984,0,0,1-2.051-.707,2.288,2.288,0,0,1-.8-1.793,2.39,2.39,0,0,1,1-2.051,4.733,4.733,0,0,1,2.824-.73H80.3v-.664A1.623,1.623,0,0,0,79.845,32a1.821,1.821,0,0,0-1.336-.449,2.108,2.108,0,0,0-1.3.391,1.151,1.151,0,0,0-.523.945H75.236a2,2,0,0,1,.449-1.223,3.066,3.066,0,0,1,1.219-.934,4.1,4.1,0,0,1,1.691-.344,3.342,3.342,0,0,1,2.289.73,2.635,2.635,0,0,1,.859,2.012v3.891a4.757,4.757,0,0,0,.3,1.852V39Zm-2.4-1.1a2.54,2.54,0,0,0,1.289-.352,2.127,2.127,0,0,0,.883-.914V34.9H79.166q-2.656,0-2.656,1.555a1.316,1.316,0,0,0,.453,1.063A1.742,1.742,0,0,0,78.126,37.9Zm10.8-1.141a1.064,1.064,0,0,0-.441-.91,4.249,4.249,0,0,0-1.539-.559,7.277,7.277,0,0,1-1.742-.562,2.479,2.479,0,0,1-.953-.781,1.869,1.869,0,0,1-.309-1.078,2.193,2.193,0,0,1,.879-1.758,3.432,3.432,0,0,1,2.246-.719,3.532,3.532,0,0,1,2.332.742,2.357,2.357,0,0,1,.895,1.9H88.845a1.3,1.3,0,0,0-.5-1.023,1.888,1.888,0,0,0-1.27-.43,1.976,1.976,0,0,0-1.234.344,1.082,1.082,0,0,0-.445.9.877.877,0,0,0,.414.789,5.1,5.1,0,0,0,1.5.508,7.8,7.8,0,0,1,1.754.578,2.558,2.558,0,0,1,1,.809,1.988,1.988,0,0,1,.324,1.152,2.163,2.163,0,0,1-.906,1.816,3.8,3.8,0,0,1-2.352.684,4.257,4.257,0,0,1-1.8-.359,2.922,2.922,0,0,1-1.223-1,2.42,2.42,0,0,1-.441-1.395H85.1a1.5,1.5,0,0,0,.582,1.152,2.258,2.258,0,0,0,1.434.426,2.331,2.331,0,0,0,1.316-.332A1.02,1.02,0,0,0,88.931,36.758Z" transform="translate(948.311 6950.29)" fill="#12263f"/>
    <path id="Trazado_634301" data-name="Trazado 634301" d="M40.24,13.039l2.094-6.492H43.81L40.779,15h-1.1L36.615,6.547h1.477ZM46.771,15H45.326V6.547h1.445ZM45.209,4.3a.863.863,0,0,1,.215-.594.807.807,0,0,1,.637-.242.819.819,0,0,1,.641.242.854.854,0,0,1,.219.594.826.826,0,0,1-.219.586.834.834,0,0,1-.641.234.821.821,0,0,1-.637-.234A.834.834,0,0,1,45.209,4.3Zm8.8,8.453a1.064,1.064,0,0,0-.441-.91,4.249,4.249,0,0,0-1.539-.559,7.277,7.277,0,0,1-1.742-.562,2.479,2.479,0,0,1-.953-.781,1.869,1.869,0,0,1-.309-1.078A2.193,2.193,0,0,1,49.9,7.109a3.432,3.432,0,0,1,2.246-.719,3.532,3.532,0,0,1,2.332.742,2.357,2.357,0,0,1,.895,1.9H53.919a1.3,1.3,0,0,0-.5-1.023,1.888,1.888,0,0,0-1.27-.43,1.976,1.976,0,0,0-1.234.344,1.082,1.082,0,0,0-.445.9.877.877,0,0,0,.414.789,5.1,5.1,0,0,0,1.5.508,7.8,7.8,0,0,1,1.754.578,2.558,2.558,0,0,1,1,.809,1.988,1.988,0,0,1,.324,1.152,2.163,2.163,0,0,1-.906,1.816,3.8,3.8,0,0,1-2.352.684,4.257,4.257,0,0,1-1.8-.359,2.922,2.922,0,0,1-1.223-1,2.42,2.42,0,0,1-.441-1.395h1.445a1.5,1.5,0,0,0,.582,1.152,2.258,2.258,0,0,0,1.434.426,2.331,2.331,0,0,0,1.316-.332A1.02,1.02,0,0,0,54.005,12.758ZM58.9,15H57.459V6.547H58.9ZM57.341,4.3a.863.863,0,0,1,.215-.594.807.807,0,0,1,.637-.242.819.819,0,0,1,.641.242.854.854,0,0,1,.219.594.826.826,0,0,1-.219.586.834.834,0,0,1-.641.234.821.821,0,0,1-.637-.234A.834.834,0,0,1,57.341,4.3Zm5.836.2V6.547h1.578V7.664H63.177v5.249a1.173,1.173,0,0,0,.211.763.888.888,0,0,0,.719.254,3.5,3.5,0,0,0,.688-.094V15a4.215,4.215,0,0,1-1.109.155,1.8,1.8,0,0,1-1.461-.586,2.517,2.517,0,0,1-.492-1.664V7.664H60.193V6.547h1.539V4.5ZM71.662,15a3.036,3.036,0,0,1-.2-.891,3.225,3.225,0,0,1-2.406,1.047A2.984,2.984,0,0,1,67,14.449a2.288,2.288,0,0,1-.8-1.793,2.39,2.39,0,0,1,1-2.051,4.733,4.733,0,0,1,2.824-.73h1.406V9.211A1.623,1.623,0,0,0,70.982,8a1.821,1.821,0,0,0-1.336-.449,2.108,2.108,0,0,0-1.3.391,1.151,1.151,0,0,0-.523.945H66.373a2,2,0,0,1,.449-1.223,3.066,3.066,0,0,1,1.219-.934,4.1,4.1,0,0,1,1.691-.344,3.342,3.342,0,0,1,2.289.73,2.635,2.635,0,0,1,.859,2.012v3.891a4.757,4.757,0,0,0,.3,1.852V15Zm-2.4-1.1a2.54,2.54,0,0,0,1.289-.352,2.127,2.127,0,0,0,.883-.914V10.9H70.3q-2.656,0-2.656,1.555a1.316,1.316,0,0,0,.453,1.063A1.742,1.742,0,0,0,69.263,13.9Zm10.8-1.141a1.064,1.064,0,0,0-.441-.91,4.249,4.249,0,0,0-1.539-.559,7.277,7.277,0,0,1-1.742-.562,2.479,2.479,0,0,1-.953-.781,1.869,1.869,0,0,1-.309-1.078,2.193,2.193,0,0,1,.879-1.758,3.432,3.432,0,0,1,2.246-.719,3.532,3.532,0,0,1,2.332.742,2.357,2.357,0,0,1,.895,1.9H79.982a1.3,1.3,0,0,0-.5-1.023,1.888,1.888,0,0,0-1.27-.43,1.976,1.976,0,0,0-1.234.344,1.082,1.082,0,0,0-.445.9.877.877,0,0,0,.414.789,5.1,5.1,0,0,0,1.5.508,7.8,7.8,0,0,1,1.754.578,2.558,2.558,0,0,1,1,.809,1.988,1.988,0,0,1,.324,1.152,2.163,2.163,0,0,1-.906,1.816,3.8,3.8,0,0,1-2.352.684,4.257,4.257,0,0,1-1.8-.359,2.922,2.922,0,0,1-1.223-1,2.42,2.42,0,0,1-.441-1.395H76.24a1.5,1.5,0,0,0,.582,1.152,2.258,2.258,0,0,0,1.434.426,2.331,2.331,0,0,0,1.316-.332A1.02,1.02,0,0,0,80.068,12.758Zm-48.7,19.086a4.331,4.331,0,0,0-.711-.055A1.9,1.9,0,0,0,28.728,33v6H27.283V30.547h1.406l.023.977a2.251,2.251,0,0,1,2.016-1.133,1.477,1.477,0,0,1,.641.109Zm4.688,7.313a3.693,3.693,0,0,1-2.8-1.129,4.19,4.19,0,0,1-1.078-3.02v-.266a5.073,5.073,0,0,1,.48-2.246,3.748,3.748,0,0,1,1.344-1.547,3.378,3.378,0,0,1,1.871-.559,3.166,3.166,0,0,1,2.563,1.086,4.7,4.7,0,0,1,.914,3.109v.6H33.626a3,3,0,0,0,.73,2.02,2.3,2.3,0,0,0,1.777.77,2.517,2.517,0,0,0,1.3-.312,3.258,3.258,0,0,0,.93-.828l.883.688A3.55,3.55,0,0,1,36.056,39.156Zm-.18-7.578a1.928,1.928,0,0,0-1.469.637A3.1,3.1,0,0,0,33.673,34h4.234v-.109a2.753,2.753,0,0,0-.594-1.707A1.815,1.815,0,0,0,35.876,31.578Zm12.289,3.289a5.062,5.062,0,0,1-.883,3.109,2.829,2.829,0,0,1-2.391,1.18,3.1,3.1,0,0,1-2.422-.977v4.07H41.025v-11.7h1.32l.07.938a2.977,2.977,0,0,1,2.453-1.094,2.882,2.882,0,0,1,2.41,1.148,5.117,5.117,0,0,1,.887,3.2ZM46.72,34.7a3.735,3.735,0,0,0-.609-2.258,1.963,1.963,0,0,0-1.672-.828,2.125,2.125,0,0,0-1.969,1.164V36.82a2.129,2.129,0,0,0,1.984,1.156,1.954,1.954,0,0,0,1.652-.824A4.077,4.077,0,0,0,46.72,34.7Zm6.789,4.453a3.693,3.693,0,0,1-2.8-1.129,4.19,4.19,0,0,1-1.078-3.02v-.266a5.073,5.073,0,0,1,.48-2.246,3.748,3.748,0,0,1,1.344-1.547,3.378,3.378,0,0,1,1.871-.559,3.166,3.166,0,0,1,2.563,1.086,4.7,4.7,0,0,1,.914,3.109v.6H51.08a3,3,0,0,0,.73,2.02,2.3,2.3,0,0,0,1.777.77,2.517,2.517,0,0,0,1.3-.312,3.258,3.258,0,0,0,.93-.828l.883.688A3.55,3.55,0,0,1,53.509,39.156Zm-.18-7.578a1.928,1.928,0,0,0-1.469.637A3.1,3.1,0,0,0,51.126,34h4.234v-.109a2.753,2.753,0,0,0-.594-1.707A1.815,1.815,0,0,0,53.33,31.578ZM60.439,28.5v2.047h1.578v1.117H60.439v5.249a1.173,1.173,0,0,0,.211.763.888.888,0,0,0,.719.254,3.5,3.5,0,0,0,.688-.094V39a4.215,4.215,0,0,1-1.109.155,1.8,1.8,0,0,1-1.461-.586,2.517,2.517,0,0,1-.492-1.664V31.664H57.455V30.547h1.539V28.5ZM65.275,39H63.83V30.547h1.445ZM63.712,28.3a.863.863,0,0,1,.215-.594.807.807,0,0,1,.637-.242.819.819,0,0,1,.641.242.854.854,0,0,1,.219.594.826.826,0,0,1-.219.586.834.834,0,0,1-.641.234.821.821,0,0,1-.637-.234A.834.834,0,0,1,63.712,28.3Zm3.523,6.4a4.952,4.952,0,0,1,.922-3.129,3.137,3.137,0,0,1,4.766-.168V27h1.445V39H73.041l-.07-.906a2.943,2.943,0,0,1-2.414,1.063,2.887,2.887,0,0,1-2.395-1.2,5.008,5.008,0,0,1-.926-3.141Zm1.445.164a3.749,3.749,0,0,0,.594,2.25,1.92,1.92,0,0,0,1.641.813A2.108,2.108,0,0,0,72.923,36.7V32.813a2.125,2.125,0,0,0-1.992-1.2,1.929,1.929,0,0,0-1.656.82A4.128,4.128,0,0,0,68.681,34.867ZM81.83,39a3.036,3.036,0,0,1-.2-.891,3.225,3.225,0,0,1-2.406,1.047,2.984,2.984,0,0,1-2.051-.707,2.288,2.288,0,0,1-.8-1.793,2.39,2.39,0,0,1,1-2.051,4.733,4.733,0,0,1,2.824-.73H81.6v-.664A1.623,1.623,0,0,0,81.15,32a1.821,1.821,0,0,0-1.336-.449,2.108,2.108,0,0,0-1.3.391,1.151,1.151,0,0,0-.523.945H76.541a2,2,0,0,1,.449-1.223,3.066,3.066,0,0,1,1.219-.934,4.1,4.1,0,0,1,1.691-.344,3.342,3.342,0,0,1,2.289.73,2.635,2.635,0,0,1,.859,2.012v3.891a4.757,4.757,0,0,0,.3,1.852V39Zm-2.4-1.1a2.54,2.54,0,0,0,1.289-.352,2.127,2.127,0,0,0,.883-.914V34.9H80.47q-2.656,0-2.656,1.555a1.316,1.316,0,0,0,.453,1.063A1.742,1.742,0,0,0,79.431,37.9Zm10.8-1.141a1.064,1.064,0,0,0-.441-.91,4.249,4.249,0,0,0-1.539-.559,7.277,7.277,0,0,1-1.742-.562,2.479,2.479,0,0,1-.953-.781,1.869,1.869,0,0,1-.309-1.078,2.193,2.193,0,0,1,.879-1.758,3.432,3.432,0,0,1,2.246-.719,3.532,3.532,0,0,1,2.332.742,2.357,2.357,0,0,1,.895,1.9H90.15a1.3,1.3,0,0,0-.5-1.023,1.888,1.888,0,0,0-1.27-.43,1.976,1.976,0,0,0-1.234.344,1.082,1.082,0,0,0-.445.9.877.877,0,0,0,.414.789,5.1,5.1,0,0,0,1.5.508,7.8,7.8,0,0,1,1.754.578,2.558,2.558,0,0,1,1,.809,1.988,1.988,0,0,1,.324,1.152,2.163,2.163,0,0,1-.906,1.816,3.8,3.8,0,0,1-2.352.684,4.257,4.257,0,0,1-1.8-.359,2.922,2.922,0,0,1-1.223-1,2.42,2.42,0,0,1-.441-1.395h1.445a1.5,1.5,0,0,0,.582,1.152,2.258,2.258,0,0,0,1.434.426,2.331,2.331,0,0,0,1.316-.332A1.02,1.02,0,0,0,90.236,36.758Z" transform="translate(727.681 6950.29)" fill="#12263f"/>
    <path id="Trazado_634302" data-name="Trazado 634302" d="M26.107,11.391a4.185,4.185,0,0,1-1.332,2.785,4.365,4.365,0,0,1-2.98.98,4.008,4.008,0,0,1-3.23-1.445,5.815,5.815,0,0,1-1.215-3.867V8.75a6.481,6.481,0,0,1,.566-2.789,4.231,4.231,0,0,1,1.605-1.848,4.47,4.47,0,0,1,2.406-.645A4.11,4.11,0,0,1,24.834,4.48a4.235,4.235,0,0,1,1.273,2.8H24.6a3.268,3.268,0,0,0-.848-1.975A2.565,2.565,0,0,0,21.927,4.7a2.684,2.684,0,0,0-2.254,1.063,4.882,4.882,0,0,0-.816,3.026v1.1a5.018,5.018,0,0,0,.773,2.948,2.5,2.5,0,0,0,2.164,1.095,2.886,2.886,0,0,0,1.918-.566,3.143,3.143,0,0,0,.887-1.973Zm5.906-3.547a4.331,4.331,0,0,0-.711-.055A1.9,1.9,0,0,0,29.373,9v6H27.927V6.547h1.406l.023.977a2.251,2.251,0,0,1,2.016-1.133,1.477,1.477,0,0,1,.641.109ZM36.7,15.156a3.693,3.693,0,0,1-2.8-1.129,4.19,4.19,0,0,1-1.078-3.02v-.266a5.073,5.073,0,0,1,.48-2.246A3.748,3.748,0,0,1,34.65,6.949a3.378,3.378,0,0,1,1.871-.559,3.166,3.166,0,0,1,2.563,1.086A4.7,4.7,0,0,1,40,10.586v.6H34.271a3,3,0,0,0,.73,2.02,2.3,2.3,0,0,0,1.777.77,2.517,2.517,0,0,0,1.3-.312,3.259,3.259,0,0,0,.93-.828l.883.688A3.55,3.55,0,0,1,36.7,15.156Zm-.18-7.578a1.928,1.928,0,0,0-1.469.637A3.1,3.1,0,0,0,34.318,10h4.234V9.891a2.753,2.753,0,0,0-.594-1.707A1.815,1.815,0,0,0,36.521,7.578Zm8.539,6.4a2.082,2.082,0,0,0,1.352-.469,1.649,1.649,0,0,0,.641-1.172h1.367a2.621,2.621,0,0,1-.5,1.383,3.293,3.293,0,0,1-1.23,1.047,3.55,3.55,0,0,1-1.629.391A3.482,3.482,0,0,1,42.314,14a4.59,4.59,0,0,1-1.02-3.152v-.242a5.089,5.089,0,0,1,.453-2.2,3.451,3.451,0,0,1,1.3-1.492,3.7,3.7,0,0,1,2-.531,3.39,3.39,0,0,1,2.363.852,3.043,3.043,0,0,1,1,2.211H47.052a1.992,1.992,0,0,0-.621-1.348,1.932,1.932,0,0,0-1.379-.527,2.023,2.023,0,0,0-1.707.793,3.724,3.724,0,0,0-.605,2.293v.273a3.65,3.65,0,0,0,.6,2.25A2.033,2.033,0,0,0,45.06,13.977ZM51.615,15H50.169V6.547h1.445ZM50.052,4.3a.863.863,0,0,1,.215-.594.807.807,0,0,1,.637-.242.819.819,0,0,1,.641.242.854.854,0,0,1,.219.594.826.826,0,0,1-.219.586.834.834,0,0,1-.641.234.821.821,0,0,1-.637-.234A.834.834,0,0,1,50.052,4.3Zm5.234,2.242.039.938a3.122,3.122,0,0,1,2.508-1.094A2.417,2.417,0,0,1,60.248,7.75a3.2,3.2,0,0,1,1.1-.984,3.242,3.242,0,0,1,1.6-.375q2.781,0,2.828,2.945V15H64.326V9.422a1.941,1.941,0,0,0-.414-1.355,1.823,1.823,0,0,0-1.391-.449,1.917,1.917,0,0,0-1.336.48,1.949,1.949,0,0,0-.617,1.293V15H59.115V9.461a1.613,1.613,0,0,0-1.8-1.844,1.934,1.934,0,0,0-1.945,1.211V15H53.919V6.547ZM69.521,15H68.076V6.547h1.445ZM67.959,4.3a.863.863,0,0,1,.215-.594.807.807,0,0,1,.637-.242.819.819,0,0,1,.641.242.854.854,0,0,1,.219.594.826.826,0,0,1-.219.586.834.834,0,0,1-.641.234.821.821,0,0,1-.637-.234A.834.834,0,0,1,67.959,4.3Zm7.383,10.852a3.693,3.693,0,0,1-2.8-1.129,4.19,4.19,0,0,1-1.078-3.02v-.266a5.073,5.073,0,0,1,.48-2.246,3.748,3.748,0,0,1,1.344-1.547,3.378,3.378,0,0,1,1.871-.559,3.166,3.166,0,0,1,2.563,1.086,4.7,4.7,0,0,1,.914,3.109v.6H72.912a3,3,0,0,0,.73,2.02,2.3,2.3,0,0,0,1.777.77,2.517,2.517,0,0,0,1.3-.312,3.259,3.259,0,0,0,.93-.828l.883.688A3.55,3.55,0,0,1,75.341,15.156Zm-.18-7.578a1.928,1.928,0,0,0-1.469.637A3.1,3.1,0,0,0,72.959,10h4.234V9.891A2.753,2.753,0,0,0,76.6,8.184,1.815,1.815,0,0,0,75.162,7.578Zm6.516-1.031.047,1.063a3.08,3.08,0,0,1,2.531-1.219q2.68,0,2.7,3.023V15H85.513V9.406A1.946,1.946,0,0,0,85.1,8.055a1.675,1.675,0,0,0-1.277-.437,2.086,2.086,0,0,0-1.234.375,2.546,2.546,0,0,0-.828.984V15H80.31V6.547ZM91.1,4.5V6.547h1.578V7.664H91.1v5.249a1.173,1.173,0,0,0,.211.763.888.888,0,0,0,.719.254,3.5,3.5,0,0,0,.688-.094V15a4.215,4.215,0,0,1-1.109.155,1.8,1.8,0,0,1-1.461-.586,2.517,2.517,0,0,1-.492-1.664V7.664H88.115V6.547h1.539V4.5Zm2.727,6.2a4.993,4.993,0,0,1,.488-2.234A3.643,3.643,0,0,1,95.673,6.93a3.7,3.7,0,0,1,1.988-.539,3.565,3.565,0,0,1,2.793,1.2,4.6,4.6,0,0,1,1.066,3.18v.1a5.036,5.036,0,0,1-.473,2.215A3.589,3.589,0,0,1,99.7,14.609a3.743,3.743,0,0,1-2.02.547,3.556,3.556,0,0,1-2.785-1.2A4.575,4.575,0,0,1,93.826,10.8Zm1.453.172a3.616,3.616,0,0,0,.652,2.258,2.211,2.211,0,0,0,3.5-.012,3.955,3.955,0,0,0,.648-2.418,3.61,3.61,0,0,0-.66-2.254,2.1,2.1,0,0,0-1.754-.863,2.075,2.075,0,0,0-1.727.852A3.925,3.925,0,0,0,95.279,10.867Z" transform="translate(1168.231 6960.201)" fill="#12263f"/>
  </g>
</svg>
