<svg id="Grupo_880991" data-name="Grupo 880991" xmlns="http://www.w3.org/2000/svg" xmlns:xlink="http://www.w3.org/1999/xlink" width="82.299" height="84.576" viewBox="0 0 82.299 84.576">
  <defs>
    <clipPath id="clip-path">
      <rect id="Rect치ngulo_329581" data-name="Rect치ngulo 329581" width="82.299" height="84.576" fill="none"/>
    </clipPath>
    <clipPath id="clip-path-2">
      <path id="Trazado_633761" data-name="Trazado 633761" d="M30.673,53.533c-5.962-.6-9.312-5.952-7.223-13.419,1.957-7,8.59-13.736,15.4-15.686a13.63,13.63,0,0,1,5.1-.538c5.962.6,9.312,5.953,7.223,13.419-1.958,7-8.589,13.736-15.4,15.686a14.442,14.442,0,0,1-3.969.593q-.58,0-1.132-.055M45.935,2.756l-2.9,6.484a4.034,4.034,0,0,1-2.4,2.172c-.633.183-1.372.406-2.063.627a2.342,2.342,0,0,1-.947.117,1.366,1.366,0,0,1-1.2-.879L34.5,6.3a1.657,1.657,0,0,0-1.453-1.067,3.451,3.451,0,0,0-2.242.695l-9.739,6.749c-1.544,1.071-2.4,2.976-1.9,4.251l1.909,4.936a3.064,3.064,0,0,1-.87,2.9c-.492.558-.969,1.129-1.435,1.707a3.482,3.482,0,0,1-2.794,1.475L10.4,27.385a4.448,4.448,0,0,0-3.961,2.742L1.749,40.586c-.745,1.66-.179,3.125,1.263,3.269l7.123.719c-.021.115-.259,2.035-.379,3.659a3.857,3.857,0,0,1-1.683,2.692l-6.026,4.17A4.565,4.565,0,0,0,0,58.545v.012a2.194,2.194,0,0,0,.14.788l3.1,8.047A1.654,1.654,0,0,0,4.7,68.46a3.449,3.449,0,0,0,2.239-.694l5.979-4.138a2.8,2.8,0,0,1,1.833-.562,1.585,1.585,0,0,1,.856.341q.581.476,1.208.894a1.918,1.918,0,0,1,.405,2.5l-2.884,6.419c-.745,1.66-.182,3.125,1.26,3.271l9.08.926a4.445,4.445,0,0,0,3.961-2.737l2.913-6.485a4.033,4.033,0,0,1,2.4-2.17c.633-.183,1.373-.4,2.063-.625a2.334,2.334,0,0,1,.941-.116,1.37,1.37,0,0,1,1.2.882l1.914,4.982a1.657,1.657,0,0,0,1.455,1.07,3.451,3.451,0,0,0,2.237-.692L53.5,64.787c1.547-1.069,2.4-2.973,1.911-4.25l-1.9-4.944a3.058,3.058,0,0,1,.873-2.893q.738-.837,1.437-1.707a3.487,3.487,0,0,1,2.795-1.473l5.571.576a4.445,4.445,0,0,0,3.961-2.737L72.855,36.9c.747-1.66.184-3.126-1.257-3.273l-5.626-.581a1.463,1.463,0,0,1-1.3-1.778c.069-.627.14-1.358.19-2.033a3.866,3.866,0,0,1,1.687-2.691l6.031-4.165c1.547-1.068,2.4-2.971,1.915-4.25L71.41,10.074A1.658,1.658,0,0,0,69.954,9a3.439,3.439,0,0,0-2.232.69l-5.987,4.132a2.792,2.792,0,0,1-1.825.558,1.581,1.581,0,0,1-.861-.345c-.405-.331-.828-.644-1.268-.937a1.915,1.915,0,0,1-.409-2.492l2.874-6.42c.743-1.66.177-3.123-1.266-3.267L49.893.012Q49.777,0,49.659,0a4.572,4.572,0,0,0-3.723,2.756" fill="#ffecbe"/>
    </clipPath>
  </defs>
  <g id="Grupo_880805" data-name="Grupo 880805">
    <g id="Grupo_880804" data-name="Grupo 880804" clip-path="url(#clip-path)">
      <path id="Trazado_633754" data-name="Trazado 633754" d="M132.18,22.042l7.667,7.15a1.651,1.651,0,0,1,.413.62l1.925,4.972a1.36,1.36,0,0,0,.34.512l-7.667-7.15a1.364,1.364,0,0,1-.34-.512l-1.925-4.972a1.735,1.735,0,0,0-.177-.342,1.578,1.578,0,0,0-.236-.278h0" transform="translate(-98.093 -16.358)" fill="#b66b2c"/>
      <path id="Trazado_633755" data-name="Trazado 633755" d="M8.693,168.775l7.123.719,7.667,7.15-7.123-.719a1.822,1.822,0,0,1-.825-.278,1.562,1.562,0,0,1-.213-.167l-7.667-7.15a1.743,1.743,0,0,0,1.038.445" transform="translate(-5.681 -124.92)" fill="#b66b2c"/>
      <path id="Trazado_633756" data-name="Trazado 633756" d="M221.738,16.634a1.46,1.46,0,0,1-.091-.154c-.012-.024-.025-.049-.036-.075a1.6,1.6,0,0,1-.069-.188c-.006-.019-.013-.037-.018-.056a1.835,1.835,0,0,1-.048-.263c0-.022,0-.045,0-.068a2.084,2.084,0,0,1-.006-.217c0-.032,0-.064,0-.1,0-.071.013-.143.025-.216,0-.03.009-.06.014-.091,0-.014,0-.027.006-.041.013-.06.032-.122.05-.183.01-.036.018-.072.029-.109a3.291,3.291,0,0,1,.129-.339l2.875-6.42a4.137,4.137,0,0,0,.16-.416c.015-.046.024-.09.037-.136.026-.092.052-.183.07-.272.007-.034.01-.067.016-.1.015-.091.027-.181.033-.269,0-.039.005-.077.006-.115a2.562,2.562,0,0,0,0-.256c0-.029,0-.059,0-.088a2.2,2.2,0,0,0-.054-.316c-.005-.02-.013-.038-.018-.057a1.864,1.864,0,0,0-.082-.234c-.013-.029-.027-.058-.041-.087a1.715,1.715,0,0,0-.106-.184c-.016-.024-.031-.05-.049-.073a1.6,1.6,0,0,0-.191-.218l7.667,7.15a1.6,1.6,0,0,1,.191.218c.018.023.033.049.049.073a1.677,1.677,0,0,1,.105.184c.014.029.028.057.041.087a1.969,1.969,0,0,1,.082.233c.005.02.013.038.018.058a2.193,2.193,0,0,1,.054.316c0,.029,0,.059,0,.088a2.553,2.553,0,0,1,0,.256c0,.038,0,.077-.006.116-.007.088-.018.178-.033.269-.006.034-.009.066-.016.1,0,.013,0,.025-.006.038-.016.077-.041.156-.063.234-.013.045-.022.09-.037.135a4.208,4.208,0,0,1-.16.417l-2.875,6.42a3.288,3.288,0,0,0-.129.338c-.012.037-.019.072-.029.109-.021.075-.042.15-.056.224-.006.031-.01.061-.014.091-.012.073-.02.145-.025.216,0,.032,0,.064,0,.1a2.08,2.08,0,0,0,.006.217c0,.022,0,.046,0,.068a1.833,1.833,0,0,0,.048.263c.005.019.013.037.018.056a1.637,1.637,0,0,0,.069.188c.011.025.023.05.036.075a1.483,1.483,0,0,0,.091.154c.014.021.028.043.043.063a1.411,1.411,0,0,0,.165.186l-7.667-7.15a1.409,1.409,0,0,1-.165-.186c-.015-.02-.029-.042-.043-.063" transform="translate(-164.351 -3.931)" fill="#b66b2c"/>
      <path id="Trazado_633757" data-name="Trazado 633757" d="M90.4,119c-.051-.065-.1-.133-.146-.2-.075-.1-.149-.2-.219-.31-.048-.073-.094-.149-.14-.225-.064-.1-.128-.209-.188-.317-.045-.08-.087-.162-.129-.245-.056-.108-.11-.218-.162-.329-.04-.086-.077-.173-.115-.261q-.072-.17-.138-.345-.051-.136-.1-.274c-.041-.119-.078-.241-.115-.363-.028-.095-.056-.189-.081-.285-.033-.126-.063-.255-.092-.385-.021-.1-.044-.193-.062-.291-.026-.136-.047-.274-.069-.413-.015-.1-.031-.192-.043-.29-.019-.15-.032-.3-.045-.456-.008-.091-.018-.181-.024-.273-.012-.184-.016-.372-.019-.561,0-.065-.005-.128-.006-.194q0-.384.021-.78c0-.063.012-.129.016-.192.014-.2.03-.4.053-.611.011-.1.027-.2.041-.3.023-.174.046-.347.075-.523.019-.114.043-.23.064-.345s.043-.247.069-.373c.011-.054.026-.11.038-.165s.027-.12.041-.181c.062-.267.128-.535.2-.808s.16-.538.249-.806c.026-.077.053-.154.079-.231q.107-.31.226-.618c.026-.068.051-.137.079-.205.105-.264.216-.528.333-.79.021-.048.045-.1.067-.144q.15-.327.312-.652.058-.116.117-.231.164-.32.34-.637c.027-.049.053-.1.08-.147q.216-.383.448-.759c.039-.064.08-.128.121-.192q.184-.292.376-.58c.048-.072.1-.143.144-.215.164-.241.332-.479.505-.714l.012-.017,0,0c.2-.265.4-.526.606-.784l.152-.189c.208-.256.42-.509.639-.757l.035-.038c.21-.238.425-.47.643-.7l.167-.174c.229-.236.461-.47.7-.7l.072-.067q.329-.313.668-.614l.177-.156c.246-.215.494-.425.747-.629l.106-.083q.341-.272.689-.531l.183-.135q.39-.284.787-.551l.037-.026c.063-.042.127-.081.19-.122.133-.087.266-.174.4-.257.086-.054.174-.106.261-.159.127-.077.255-.154.383-.228.091-.053.182-.1.273-.155q.189-.106.379-.207l.28-.147q.19-.1.381-.19c.094-.046.187-.092.282-.135.129-.061.259-.119.389-.176.092-.041.184-.082.277-.121.135-.057.271-.111.407-.165.087-.035.174-.071.262-.1.15-.056.3-.109.45-.161.074-.026.148-.054.222-.078q.336-.113.673-.209t.661-.175c.072-.018.143-.032.215-.048.145-.033.291-.066.435-.1.085-.017.168-.03.252-.046.129-.023.258-.047.385-.067.089-.014.177-.025.265-.037s.175-.026.261-.036l.089-.008c.128-.014.254-.024.381-.035.093-.007.186-.016.278-.022.131-.008.26-.011.389-.015.084,0,.17-.007.253-.008.142,0,.281,0,.421.006.068,0,.138,0,.205,0q.309.014.609.044a8.632,8.632,0,0,1,5.122,2.208l7.667,7.15a8.634,8.634,0,0,0-5.122-2.208q-.3-.03-.609-.043c-.068,0-.137,0-.205,0-.14,0-.279-.008-.421-.006-.084,0-.169,0-.253.007-.129,0-.258.007-.389.015-.092.005-.185.014-.278.022-.126.01-.253.021-.381.035s-.233.028-.351.044c-.088.012-.176.023-.265.037-.127.02-.256.043-.385.067-.084.015-.168.029-.252.046-.144.029-.29.062-.436.1-.072.016-.142.03-.215.048-.219.053-.439.111-.661.175s-.449.134-.673.209c-.074.025-.148.053-.222.078-.15.052-.3.1-.449.161-.088.033-.175.069-.263.1-.136.054-.271.108-.406.165-.093.039-.185.081-.277.121-.13.058-.259.115-.388.176l-.282.136q-.191.093-.38.19l-.281.147q-.189.1-.377.207c-.092.051-.184.1-.275.155-.128.074-.255.151-.382.227-.087.053-.175.105-.262.159-.134.084-.267.17-.4.256-.076.05-.152.1-.227.148q-.4.266-.787.551l-.182.135q-.349.259-.691.532l-.1.082c-.253.2-.5.415-.748.63l-.176.155q-.339.3-.67.615l-.071.066c-.237.228-.469.462-.7.7l-.166.173c-.219.23-.435.463-.645.7l-.033.037c-.218.248-.43.5-.639.758l-.152.188c-.207.259-.41.52-.606.785l-.011.015c-.175.237-.343.477-.508.718-.048.071-.1.142-.143.213q-.193.288-.377.581c-.04.064-.081.127-.12.191q-.232.377-.448.759c-.028.048-.053.1-.08.147q-.176.317-.34.637-.06.116-.117.232-.162.325-.312.652c-.022.048-.045.1-.067.143q-.176.393-.333.79c-.027.068-.052.136-.078.2q-.119.309-.226.619c-.027.077-.054.154-.079.231-.089.268-.173.537-.249.806s-.143.541-.2.808c-.014.06-.028.121-.041.181-.04.181-.074.359-.107.538-.022.115-.045.231-.064.345-.029.176-.052.35-.075.523-.013.1-.03.2-.041.3-.023.206-.039.409-.053.611,0,.064-.012.129-.016.192q-.022.4-.021.78c0,.065,0,.127.006.191,0,.19.007.379.019.563.006.092.016.182.024.273.013.153.026.306.045.456.012.1.029.194.044.291.021.138.043.277.069.412.019.1.041.195.063.292.029.129.058.258.092.384.025.1.053.191.081.285.036.122.074.244.115.363q.048.139.1.275.065.175.138.344c.037.088.075.176.115.262.052.111.106.22.162.329.042.082.085.165.129.245.06.108.124.213.188.317.046.075.092.152.14.225.07.106.144.208.219.309.048.067.1.135.146.2.085.109.176.214.266.318.045.052.087.105.133.156.139.152.283.3.434.439l-7.667-7.15c-.151-.141-.295-.288-.434-.44-.046-.05-.088-.1-.133-.156-.091-.1-.181-.209-.266-.318" transform="translate(-65.687 -68.592)" fill="#b66b2c"/>
      <path id="Trazado_633758" data-name="Trazado 633758" d="M15.218,249.916a2.325,2.325,0,0,0,.26.011c.03,0,.062,0,.093-.006.059,0,.118,0,.178-.012l.035-.006a2.984,2.984,0,0,0,.32-.06l.1-.025c.1-.028.209-.061.315-.1l.052-.018a4,4,0,0,0,.365-.166l.1-.051q.148-.08.3-.176c.044-.029.088-.054.133-.085l5.979-4.138.066-.045c.017-.011.033-.019.05-.03q.117-.075.234-.139l.077-.042c.1-.05.2-.1.295-.133l.044-.015c.085-.032.169-.058.253-.081l.081-.02a2.4,2.4,0,0,1,.25-.046l.03-.006h.009c.051-.006.1-.007.151-.01.025,0,.05,0,.075,0a2.024,2.024,0,0,1,.218.01,1.585,1.585,0,0,1,.856.341q.581.476,1.208.894a1.442,1.442,0,0,1,.186.147l7.667,7.15a1.442,1.442,0,0,0-.186-.147q-.628-.419-1.208-.894a1.585,1.585,0,0,0-.856-.341,1.951,1.951,0,0,0-.218-.009c-.025,0-.051,0-.076,0-.05,0-.1,0-.15.01l-.04.006a2.519,2.519,0,0,0-.25.046l-.082.021q-.126.034-.253.081l-.044.015c-.1.038-.2.083-.295.134l-.077.042q-.117.063-.234.138c-.038.025-.077.048-.116.075l-5.979,4.138-.072.049c-.02.013-.04.023-.06.036q-.148.1-.3.176l-.1.051a3.99,3.99,0,0,1-.365.166l-.052.018c-.106.04-.21.073-.314.1l-.1.026a3.107,3.107,0,0,1-.32.06l-.027,0h-.007c-.062.007-.122.009-.182.012-.029,0-.059.005-.088.005a2.333,2.333,0,0,1-.26-.011,1.751,1.751,0,0,1-1.039-.445l-7.667-7.15a1.751,1.751,0,0,0,1.039.445" transform="translate(-10.522 -181.456)" fill="#b66b2c"/>
      <path id="Trazado_633759" data-name="Trazado 633759" d="M250.745,58.457c.069-.628.14-1.358.19-2.033a2.625,2.625,0,0,1,.05-.344s0-.008,0-.012c.01-.044.025-.088.036-.132.02-.077.04-.153.066-.23.017-.05.04-.1.06-.148.028-.071.056-.141.089-.211.025-.051.054-.1.081-.152.036-.067.07-.133.11-.2s.067-.1.1-.151.061-.1.1-.144c.012-.016.026-.031.038-.047.026-.035.055-.069.082-.1q.083-.1.172-.2c.032-.035.064-.069.1-.1.064-.065.13-.127.2-.188.031-.028.061-.057.094-.084.1-.085.205-.167.314-.243l6.031-4.165c.109-.075.213-.156.315-.239.032-.026.063-.054.095-.081.069-.059.136-.118.2-.18.034-.032.068-.066.1-.1q.091-.092.177-.187c.03-.033.06-.066.089-.1.063-.074.123-.149.181-.225.018-.024.038-.047.056-.072.085-.116.164-.236.237-.356.019-.031.036-.061.054-.092.059-.1.115-.207.165-.311.012-.024.024-.047.035-.071.057-.124.107-.248.15-.373.01-.029.019-.058.028-.088q.05-.156.086-.311c.006-.028.014-.057.02-.085a3.249,3.249,0,0,0,.051-.336c0-.015,0-.03,0-.045a2.747,2.747,0,0,0,.007-.283c0-.034,0-.066-.006-.1a2.265,2.265,0,0,0-.027-.228c-.005-.031-.01-.062-.016-.093a2.021,2.021,0,0,0-.084-.3l-3.087-8.057a1.658,1.658,0,0,0-.415-.626l7.667,7.15a1.658,1.658,0,0,1,.415.626l3.087,8.057a1.988,1.988,0,0,1,.085.3c.006.031.011.062.016.093.013.075.022.15.027.227,0,.033,0,.066.006.1a2.726,2.726,0,0,1-.007.282c0,.015,0,.03,0,.046a3.239,3.239,0,0,1-.051.336c0,.01,0,.019,0,.029s-.011.038-.016.056q-.035.155-.086.31c-.009.029-.018.059-.028.088-.044.124-.093.249-.15.372-.011.024-.024.047-.035.071q-.075.157-.165.311c-.018.031-.035.061-.053.092-.074.121-.152.24-.238.357l-.009.013c-.015.02-.032.039-.048.059-.058.076-.117.151-.18.225-.029.034-.059.067-.089.1-.057.063-.116.126-.177.187-.033.033-.066.066-.1.1q-.1.092-.2.18c-.032.027-.063.055-.1.082-.1.083-.206.163-.315.238l-6.031,4.165c-.109.075-.213.157-.314.243-.032.027-.062.056-.093.084-.068.061-.134.124-.2.189-.033.034-.065.068-.1.1-.06.065-.117.132-.173.2-.028.034-.056.068-.082.1-.047.062-.091.127-.134.192s-.069.1-.1.15-.075.133-.111.2c-.027.051-.056.1-.08.151-.034.07-.061.141-.089.212-.02.049-.042.1-.059.147-.027.077-.046.153-.066.23-.012.044-.027.088-.036.132a2.657,2.657,0,0,0-.053.357c-.05.675-.121,1.4-.19,2.033a1.627,1.627,0,0,0,.44,1.408l-7.667-7.15a1.627,1.627,0,0,1-.44-1.408" transform="translate(-186.071 -27.188)" fill="#b66b2c"/>
      <path id="Trazado_633760" data-name="Trazado 633760" d="M57.484,264.322l9.08.927a2.433,2.433,0,0,0,.271.011c.031,0,.063,0,.095-.006.06,0,.12-.005.181-.013a3.083,3.083,0,0,0,.365-.069l.1-.026c.1-.029.207-.063.31-.1l.065-.023c.121-.048.242-.1.361-.167l.087-.048q.147-.08.29-.173l.082-.053c.107-.072.211-.148.314-.23l.04-.034q.133-.108.259-.227c.03-.028.059-.057.089-.086q.1-.1.2-.211c.027-.029.054-.059.08-.089.088-.1.174-.206.254-.314l0,0c.089-.121.17-.247.248-.375l.058-.1c.076-.132.147-.265.209-.4l2.913-6.485a3.841,3.841,0,0,1,.194-.374c.021-.036.047-.07.07-.106.053-.083.1-.167.163-.247l0,0,.014-.018c.075-.1.155-.2.239-.292.03-.033.061-.063.092-.1.062-.065.124-.128.189-.189.037-.035.075-.067.113-.1.062-.054.126-.106.191-.156.041-.031.083-.062.125-.091s.055-.043.084-.062c.055-.037.111-.07.167-.1l.04-.025a3.445,3.445,0,0,1,.315-.16l.074-.032a3.06,3.06,0,0,1,.329-.119c.633-.183,1.373-.4,2.063-.625q.127-.041.251-.068c.028-.006.055-.009.082-.014.054-.01.108-.021.161-.027h0c.051-.006.1-.007.15-.01.025,0,.05,0,.074,0a1.908,1.908,0,0,1,.219.009,1.449,1.449,0,0,1,.859.369l7.667,7.15a1.448,1.448,0,0,0-.859-.369,1.959,1.959,0,0,0-.219-.009c-.025,0-.052,0-.078.005-.05,0-.1,0-.152.01s-.11.018-.165.028c-.026,0-.051.008-.078.013-.083.018-.166.041-.251.068-.69.221-1.429.441-2.063.624a3.038,3.038,0,0,0-.329.119l-.074.032a3.48,3.48,0,0,0-.315.16l-.041.025c-.085.051-.168.107-.251.165q-.063.044-.125.092c-.065.05-.128.1-.19.155-.038.033-.077.066-.114.1-.065.06-.127.124-.189.189-.03.032-.062.063-.091.1q-.125.14-.237.29l-.016.02c-.055.074-.1.152-.152.229-.027.042-.057.082-.083.125a3.84,3.84,0,0,0-.194.374l-2.914,6.485c-.062.138-.133.272-.209.4l-.058.1c-.078.128-.159.254-.248.374l0,0h0c-.08.109-.166.212-.254.314-.027.03-.054.06-.081.089q-.1.108-.2.21c-.03.029-.059.058-.089.087q-.126.118-.258.226l-.041.035c-.1.081-.207.158-.313.229l-.028.02c-.018.012-.037.021-.054.033q-.143.092-.29.173l-.087.048c-.119.062-.24.118-.361.167l-.065.023c-.1.039-.207.073-.31.1l-.1.026a3.073,3.073,0,0,1-.365.069h-.006c-.06.007-.12.009-.179.012-.03,0-.06.005-.09.006a2.371,2.371,0,0,1-.272-.011l-9.08-.927a1.929,1.929,0,0,1-.579-.147,1.6,1.6,0,0,1-.456-.3l-7.667-7.15a1.744,1.744,0,0,0,1.035.445" transform="translate(-41.892 -187.834)" fill="#b66b2c"/>
    </g>
  </g>
  <g id="Grupo_880807" data-name="Grupo 880807">
    <g id="Grupo_880806" data-name="Grupo 880806" clip-path="url(#clip-path-2)">
      <rect id="Rect치ngulo_329582" data-name="Rect치ngulo 329582" width="106.427" height="106.962" transform="matrix(0.803, -0.596, 0.596, 0.803, -43.106, 31.509)" fill="#ffecbe"/>
    </g>
  </g>
  <g id="Grupo_880809" data-name="Grupo 880809">
    <g id="Grupo_880808" data-name="Grupo 880808" clip-path="url(#clip-path)">
      <path id="Trazado_633762" data-name="Trazado 633762" d="M122,20.537a1.656,1.656,0,0,1,1.453,1.067l1.925,4.972a1.366,1.366,0,0,0,1.2.88,2.342,2.342,0,0,0,.947-.118c.692-.22,1.43-.444,2.063-.627a3.313,3.313,0,0,0,.792-.358c-.092.037-.183.073-.276.1-.633.183-1.371.406-2.063.627a2.342,2.342,0,0,1-.947.118,1.366,1.366,0,0,1-1.2-.88l-1.925-4.972a1.656,1.656,0,0,0-1.453-1.067,3.285,3.285,0,0,0-1.955.511A3,3,0,0,1,122,20.537" transform="translate(-89.473 -15.041)" fill="#ffda6a"/>
      <path id="Trazado_633763" data-name="Trazado 633763" d="M34.228,106.417l5.575.562a2.7,2.7,0,0,0,1.628-.441,2.386,2.386,0,0,1-1.112.183l-5.575-.562a3.283,3.283,0,0,0-1.938.5,2.979,2.979,0,0,1,1.423-.244" transform="translate(-24.345 -78.773)" fill="#ffda6a"/>
      <path id="Trazado_633764" data-name="Trazado 633764" d="M94.874,127.773c-5.962-.6-9.312-5.953-7.223-13.419,1.628-5.825,6.492-11.46,12-14.315-5.721,2.762-10.839,8.567-12.518,14.573-2.089,7.467,1.261,12.823,7.223,13.419a13.634,13.634,0,0,0,5.1-.538,18.5,18.5,0,0,0,3.4-1.371,18.136,18.136,0,0,1-2.884,1.113,13.634,13.634,0,0,1-5.1.538" transform="translate(-64.201 -74.24)" fill="#ffda6a"/>
      <path id="Trazado_633765" data-name="Trazado 633765" d="M187.389.27l9.088.909c1.443.144,2.009,1.607,1.266,3.267l-2.875,6.42a1.915,1.915,0,0,0,.409,2.492c.44.293.863.607,1.268.937a1.582,1.582,0,0,0,.861.345,2.687,2.687,0,0,0,1.629-.434,2.416,2.416,0,0,1-1.114.176,1.582,1.582,0,0,1-.861-.345c-.405-.331-.828-.644-1.268-.937a1.915,1.915,0,0,1-.409-2.492l2.875-6.42c.743-1.66.177-3.123-1.266-3.267L187.9.012a3.278,3.278,0,0,0-1.933.5A2.971,2.971,0,0,1,187.389.27" transform="translate(-138.012 -0.001)" fill="#ffda6a"/>
      <path id="Trazado_633766" data-name="Trazado 633766" d="M249.452,55.107a3.866,3.866,0,0,1,1.687-2.691l6.031-4.164c1.547-1.069,2.4-2.971,1.915-4.25L256,35.945a1.659,1.659,0,0,0-1.456-1.072,3.276,3.276,0,0,0-1.951.51,2.991,2.991,0,0,1,1.435-.252,1.659,1.659,0,0,1,1.456,1.072l3.087,8.057c.488,1.279-.367,3.181-1.915,4.25l-6.031,4.164a3.866,3.866,0,0,0-1.687,2.691c-.051.675-.122,1.405-.19,2.033a1.462,1.462,0,0,0,1.3,1.777l5.626.581c1.442.146,2,1.613,1.257,3.273l-4.706,10.457A5.065,5.065,0,0,1,250.2,75.72a5,5,0,0,0,2.532-2.492l4.706-10.457c.747-1.66.184-3.127-1.257-3.273l-5.626-.581a1.462,1.462,0,0,1-1.3-1.777c.069-.628.14-1.358.19-2.033" transform="translate(-184.587 -25.871)" fill="#ffda6a"/>
      <path id="Trazado_633767" data-name="Trazado 633767" d="M178.93,195.025q-.7.868-1.437,1.707a3.059,3.059,0,0,0-.873,2.893l1.9,4.944c.491,1.277-.364,3.182-1.911,4.25l-9.743,6.737q-.141.1-.283.181a4.383,4.383,0,0,0,.8-.439l9.743-6.737c1.547-1.069,2.4-2.973,1.911-4.25l-1.9-4.944a3.059,3.059,0,0,1,.873-2.893q.738-.837,1.437-1.707a4.51,4.51,0,0,1,1.164-1.031,4.246,4.246,0,0,0-1.68,1.289" transform="translate(-123.623 -143.774)" fill="#ffda6a"/>
      <path id="Trazado_633768" data-name="Trazado 633768" d="M106.142,259.472l-2.913,6.485a5.058,5.058,0,0,1-2.017,2.234,4.994,4.994,0,0,0,2.532-2.491l2.913-6.485a4.188,4.188,0,0,1,1.607-1.811,4.1,4.1,0,0,0-2.123,2.069" transform="translate(-75.111 -191.022)" fill="#ffda6a"/>
      <path id="Trazado_633769" data-name="Trazado 633769" d="M30.05,246.619l-5.979,4.138q-.142.1-.285.183a4.39,4.39,0,0,0,.8-.44l5.979-4.138c.067-.046.133-.088.2-.128a3.478,3.478,0,0,0-.716.386" transform="translate(-17.651 -182.733)" fill="#ffda6a"/>
      <path id="Trazado_633770" data-name="Trazado 633770" d="M158.012,170.265a2.326,2.326,0,0,0,.26.011c.029,0,.06,0,.089-.005.06,0,.12,0,.181-.012l.036-.006a3.1,3.1,0,0,0,.319-.06l.1-.025c.1-.028.21-.062.316-.1l.05-.018a4,4,0,0,0,.365-.166l.1-.051q.149-.08.3-.176c.043-.028.087-.053.13-.083l9.743-6.737c.109-.075.213-.156.315-.238.032-.027.063-.054.095-.081.068-.059.136-.118.2-.18l.1-.1q.091-.091.176-.186c.03-.033.061-.067.09-.1.062-.073.121-.147.178-.222.019-.025.039-.049.058-.074.085-.117.164-.236.237-.356.019-.03.036-.061.053-.092q.089-.153.164-.309c.012-.025.025-.049.037-.074q.085-.185.15-.372c.01-.029.018-.058.028-.087q.05-.156.086-.31c.006-.029.014-.058.02-.087a3.124,3.124,0,0,0,.051-.337c0-.014,0-.027,0-.04a2.7,2.7,0,0,0,.007-.288c0-.034,0-.066-.006-.1a2.271,2.271,0,0,0-.028-.228c-.005-.031-.01-.062-.016-.092a1.986,1.986,0,0,0-.085-.3l-1.9-4.944a1.608,1.608,0,0,1-.069-.237c0-.015-.007-.031-.01-.046a1.873,1.873,0,0,1-.029-.244c0-.016,0-.032,0-.047a2.217,2.217,0,0,1,.006-.254s0-.009,0-.013a2.554,2.554,0,0,1,.041-.272c0-.01,0-.02,0-.03s0-.014.006-.021a3.038,3.038,0,0,1,.087-.313l.017-.05q.055-.157.128-.315l.023-.049q.076-.159.168-.315l.027-.044c.064-.105.134-.21.209-.313l.009-.013.02-.025c.074-.1.152-.2.236-.292q.738-.837,1.437-1.707c.067-.083.136-.162.208-.24l.05-.054c.071-.075.144-.148.218-.217l.027-.024c.069-.063.14-.122.211-.18l.052-.041c.078-.061.158-.119.238-.173l.013-.01.023-.014c.1-.066.2-.128.305-.182l.012-.006c.1-.054.207-.1.311-.144l.026-.011a2.951,2.951,0,0,1,.3-.1l.043-.012a2.435,2.435,0,0,1,.293-.056l.027-.005.033,0c.047,0,.093-.007.14-.009l.064,0a1.923,1.923,0,0,1,.2.008l5.571.575a2.429,2.429,0,0,0,.272.011c.031,0,.064,0,.1-.006.06,0,.12-.005.18-.012a3.043,3.043,0,0,0,.365-.069l.1-.026q.155-.043.311-.1l.064-.023c.121-.048.241-.1.361-.167l.087-.048q.146-.08.29-.173l.082-.052c.106-.072.211-.148.313-.23l.041-.035q.132-.108.258-.226c.03-.028.06-.058.089-.087q.1-.1.2-.211c.027-.03.054-.059.08-.089.088-.1.174-.206.254-.314l0-.005c.088-.12.169-.245.247-.372.02-.032.039-.065.058-.1.076-.132.147-.265.209-.4l4.706-10.457a4.1,4.1,0,0,0,.162-.419c.015-.046.024-.091.037-.136.026-.092.053-.184.071-.274.006-.032.01-.064.015-.1.016-.093.028-.184.034-.273,0-.039.005-.077.006-.115a2.544,2.544,0,0,0,0-.256c0-.03,0-.06,0-.09a2.251,2.251,0,0,0-.054-.317c0-.019-.012-.036-.017-.054a1.939,1.939,0,0,0-.083-.237c-.013-.029-.027-.058-.041-.086a1.683,1.683,0,0,0-.106-.184c-.016-.025-.032-.05-.049-.074a1.587,1.587,0,0,0-.191-.218l7.667,7.15a1.57,1.57,0,0,1,.191.218c.018.024.033.049.049.074a1.726,1.726,0,0,1,.106.184c.014.029.028.057.041.086a1.915,1.915,0,0,1,.083.238c.005.018.012.035.017.054a2.209,2.209,0,0,1,.053.317c0,.029,0,.06.005.09a2.538,2.538,0,0,1,0,.255c0,.038,0,.077-.006.115-.007.089-.019.181-.034.273-.005.032-.009.064-.015.1,0,.012,0,.023-.005.035-.016.078-.042.159-.065.239-.013.045-.022.09-.037.136a4.129,4.129,0,0,1-.161.419l-4.706,10.457a4.524,4.524,0,0,1-.209.4c-.019.033-.038.065-.058.1-.077.128-.159.253-.247.373l0,0h0c-.08.108-.166.212-.254.314-.026.03-.054.06-.081.089q-.1.108-.2.211l-.089.086q-.126.118-.259.226l-.041.035c-.1.081-.207.158-.313.23l-.028.02c-.018.012-.037.021-.054.032-.1.062-.192.119-.289.173l-.087.048c-.119.062-.24.118-.361.166l-.064.023q-.155.059-.311.1l-.1.026a3.081,3.081,0,0,1-.365.069h-.005c-.059.007-.118.009-.177.012-.031,0-.063.006-.094.006a2.369,2.369,0,0,1-.272-.011l-5.571-.575a1.856,1.856,0,0,0-.2-.008l-.064,0c-.046,0-.093,0-.14.009l-.059.007a2.445,2.445,0,0,0-.293.056l-.043.012a2.881,2.881,0,0,0-.3.1l-.026.011a3.36,3.36,0,0,0-.311.144l-.011.005c-.1.055-.205.116-.306.183l-.037.024c-.08.054-.16.112-.238.173l-.052.042q-.108.086-.211.18l-.027.024c-.075.069-.148.142-.219.217l-.05.054c-.071.078-.141.157-.208.24q-.7.868-1.437,1.707c-.084.095-.161.193-.236.291l-.029.038c-.075.1-.144.207-.209.313l-.027.044q-.092.156-.168.315l-.023.048q-.073.158-.128.316l-.017.049a3.041,3.041,0,0,0-.087.313c0,.017-.007.034-.011.052a2.535,2.535,0,0,0-.041.271s0,.009,0,.013a2.214,2.214,0,0,0-.006.254c0,.016,0,.032,0,.048a1.874,1.874,0,0,0,.029.243c0,.015.007.031.01.046a1.646,1.646,0,0,0,.068.237l1.9,4.944a1.988,1.988,0,0,1,.085.3c.006.03.011.062.016.092a2.285,2.285,0,0,1,.028.229c0,.033,0,.066.006.1a2.7,2.7,0,0,1-.007.288c0,.013,0,.027,0,.04a3.114,3.114,0,0,1-.051.337c0,.01,0,.02,0,.03s-.011.038-.015.057q-.036.154-.086.31c-.009.029-.018.058-.028.087q-.065.186-.15.372c-.011.025-.024.048-.036.073q-.075.156-.165.311c-.018.03-.034.06-.053.091-.074.121-.152.24-.238.357l-.009.013c-.015.021-.033.04-.048.06-.058.076-.117.15-.179.223-.029.034-.06.067-.09.1-.057.063-.116.126-.176.186-.033.033-.066.066-.1.1-.065.062-.132.121-.2.18-.032.027-.062.055-.095.081-.1.083-.206.163-.315.238l-9.743,6.737-.07.047c-.02.013-.04.022-.06.035q-.148.1-.3.176l-.1.051c-.122.062-.244.119-.365.166l-.05.017c-.107.04-.212.073-.317.1l-.1.025a2.984,2.984,0,0,1-.32.06l-.028.005h-.008c-.061.007-.121.009-.181.012-.03,0-.06.005-.089.005a2.323,2.323,0,0,1-.26-.011,1.753,1.753,0,0,1-1.04-.446l-7.667-7.15a1.753,1.753,0,0,0,1.04.446" transform="translate(-116.491 -98.049)" fill="#b66b2c"/>
    </g>
  </g>
</svg>
