<svg xmlns="http://www.w3.org/2000/svg" xmlns:xlink="http://www.w3.org/1999/xlink" width="138.953" height="138.953" viewBox="0 0 138.953 138.953">
  <defs>
    <filter id="Elipse_6673" x="0" y="0" width="138.953" height="138.953" filterUnits="userSpaceOnUse">
      <feOffset dy="3" input="SourceAlpha"/>
      <feGaussianBlur stdDeviation="3" result="blur"/>
      <feFlood flood-opacity="0.161"/>
      <feComposite operator="in" in2="blur"/>
      <feComposite in="SourceGraphic"/>
    </filter>
  </defs>
  <g id="Grupo_881016" data-name="Grupo 881016" transform="translate(-1020.636 -1697.302)">
    <g transform="matrix(1, 0, 0, 1, 1020.64, 1697.3)" filter="url(#Elipse_6673)">
      <circle id="Elipse_6673-2" data-name="Elipse 6673" cx="60.477" cy="60.477" r="60.477" transform="translate(9 6)" fill="#ffb338"/>
    </g>
    <g id="Grupo_879098" data-name="Grupo 879098" transform="translate(1052.118 1734.087)">
      <path id="Trazado_628238" data-name="Trazado 628238" d="M235.065,168.5a13.061,13.061,0,1,0,13.061,13.061A13.076,13.076,0,0,0,235.065,168.5Zm0,23.153a10.093,10.093,0,1,1,10.092-10.092A10.1,10.1,0,0,1,235.065,191.653Zm0,0" transform="translate(-189.054 -143.566)" fill="#12263f"/>
      <path id="Trazado_628239" data-name="Trazado 628239" d="M301.488,211.5a1.484,1.484,0,0,0,0,2.968,3.714,3.714,0,0,1,3.71,3.71,1.484,1.484,0,0,0,2.968,0A6.686,6.686,0,0,0,301.488,211.5Zm0,0" transform="translate(-255.478 -180.187)" fill="#12263f"/>
      <path id="Trazado_628240" data-name="Trazado 628240" d="M45.564,71.3a1.484,1.484,0,1,0-2.636,1.365l4,7.718a1.484,1.484,0,0,0,2.656-.04L52,75.306l2.627,5.076a1.485,1.485,0,0,0,1.318.8h.022a1.486,1.486,0,0,0,1.316-.842l3.706-7.718a1.484,1.484,0,1,0-2.676-1.285l-2.419,5.036L53.265,71.3a1.484,1.484,0,0,0-2.656.04l-2.418,5.036Zm0,0" transform="translate(-36.415 -60.108)" fill="#12263f"/>
      <path id="Trazado_628241" data-name="Trazado 628241" d="M117.472,3.468A1.484,1.484,0,0,0,118.522.935a1.484,1.484,0,1,0-2.1,2.1A1.5,1.5,0,0,0,117.472,3.468Zm0,0" transform="translate(-98.773 -0.5)" fill="#12263f"/>
      <path id="Trazado_628242" data-name="Trazado 628242" d="M75.99,26.028V6.437A5.944,5.944,0,0,0,70.053.5H24.932a1.484,1.484,0,0,0,0,2.968H70.053a2.972,2.972,0,0,1,2.968,2.968V26.028A2.972,2.972,0,0,1,70.053,29H62.929c-.043,0-.085,0-.126.006A19.4,19.4,0,0,0,52.37,20.279l2.2-4.581L57.2,20.774a1.483,1.483,0,0,0,1.318.8h.023a1.485,1.485,0,0,0,1.315-.842l3.706-7.718a1.484,1.484,0,0,0-2.676-1.285l-2.418,5.036-2.627-5.076a1.484,1.484,0,0,0-2.656.04l-2.419,5.036-2.627-5.076A1.485,1.485,0,0,0,45.5,13.056L48.785,19.4a19.324,19.324,0,0,0-8.04.53l3.321-6.915a1.484,1.484,0,0,0-2.676-1.285l-2.419,5.036-2.627-5.076a1.484,1.484,0,0,0-2.656.04l-2.418,5.036-2.627-5.076a1.484,1.484,0,0,0-2.636,1.365l4,7.718a1.484,1.484,0,0,0,2.656-.04L35.077,15.7,37.7,20.774a1.449,1.449,0,0,0,.157.236A19.424,19.424,0,0,0,29.221,29H5.936a2.972,2.972,0,0,1-2.968-2.968V6.437A2.972,2.972,0,0,1,5.936,3.468H12.02A1.484,1.484,0,0,0,12.02.5H5.936A5.944,5.944,0,0,0,0,6.437V26.028a5.943,5.943,0,0,0,5.937,5.937H27.854A19.29,19.29,0,0,0,55.619,55.223L67.4,67a5.033,5.033,0,0,0,7.117-7.118l-4.628-4.628a1.484,1.484,0,0,0-2.1,2.1l4.628,4.629A2.064,2.064,0,0,1,69.5,64.9L58.109,53.513a19.277,19.277,0,0,0,6.057-21.549h5.887a5.943,5.943,0,0,0,5.937-5.937ZM46.01,54.821A16.326,16.326,0,1,1,62.336,38.5,16.345,16.345,0,0,1,46.01,54.821Zm0,0" transform="translate(0 -0.5)" fill="#12263f"/>
      <path id="Trazado_628243" data-name="Trazado 628243" d="M430.525,343.216a1.484,1.484,0,1,0,1.049-.435A1.5,1.5,0,0,0,430.525,343.216Zm0,0" transform="translate(-366.257 -291.98)" fill="#12263f"/>
    </g>
  </g>
</svg>
