<svg xmlns="http://www.w3.org/2000/svg" width="105" height="96.153" viewBox="0 0 105 96.153">
  <g id="Grupo_879600" data-name="Grupo 879600" transform="translate(0 -21.568)">
    <g id="Grupo_879587" data-name="Grupo 879587" transform="translate(1.496 32.436)">
      <path id="Trazado_630459" data-name="Trazado 630459" d="M94.054,131.961H11.4a4.1,4.1,0,0,1-4.1-4.1v-53.3h90.86v53.3A4.1,4.1,0,0,1,94.054,131.961Z" transform="translate(-7.295 -74.564)" fill="#b6e1fd"/>
    </g>
    <g id="Grupo_879588" data-name="Grupo 879588" transform="translate(1.496 32.436)">
      <path id="Trazado_630460" data-name="Trazado 630460" d="M90.44,74.564v45.693a3.989,3.989,0,0,1-3.989,3.989H7.3v3.614a4.1,4.1,0,0,0,4.1,4.1H94.054a4.1,4.1,0,0,0,4.1-4.1v-53.3Z" transform="translate(-7.295 -74.564)" fill="#2b95f9"/>
    </g>
    <g id="Grupo_879589" data-name="Grupo 879589" transform="translate(1.496 23.064)">
      <path id="Trazado_630461" data-name="Trazado 630461" d="M98.155,43.25H7.295V32.965a4.1,4.1,0,0,1,4.1-4.1H94.054a4.1,4.1,0,0,1,4.1,4.1Z" transform="translate(-7.295 -28.863)" fill="#fff"/>
    </g>
    <g id="Grupo_879590" data-name="Grupo 879590" transform="translate(84.638 23.064)">
      <path id="Trazado_630462" data-name="Trazado 630462" d="M416.329,28.863h-3.616V43.25h7.718V32.965A4.1,4.1,0,0,0,416.329,28.863Z" transform="translate(-412.713 -28.863)" fill="#e7ecf6"/>
    </g>
    <g id="Grupo_879591" data-name="Grupo 879591" transform="translate(79.584 92.298)">
      <path id="Trazado_630463" data-name="Trazado 630463" d="M410.8,383.413a4.066,4.066,0,0,0-2.353-1.153.4.4,0,0,1-.322-.5,2.871,2.871,0,0,0-.747-2.761l-12.543-12.543-6.77,6.77,12.543,12.543a2.872,2.872,0,0,0,2.762.747.4.4,0,0,1,.5.327,4.088,4.088,0,0,0,7.1,2.2A4.118,4.118,0,0,0,410.8,383.413Z" transform="translate(-388.068 -366.461)" fill="#e44e00"/>
    </g>
    <g id="Grupo_879592" data-name="Grupo 879592" transform="translate(83.764 92.298)">
      <path id="Trazado_630464" data-name="Trazado 630464" d="M427,383.413a4.066,4.066,0,0,0-2.353-1.153.4.4,0,0,1-.322-.5,2.872,2.872,0,0,0-.747-2.761l-12.543-12.543-2.591,2.591L419.995,380.6a2.872,2.872,0,0,1,.747,2.761.4.4,0,0,0,.322.5,4.067,4.067,0,0,1,2.353,1.153,4.121,4.121,0,0,1,.367,5.378,4.088,4.088,0,0,0,3.22-6.974Z" transform="translate(-408.447 -366.461)" fill="#eb6f2d"/>
    </g>
    <g id="Grupo_879593" data-name="Grupo 879593" transform="translate(39.197 51.51)">
      <circle id="Elipse_6681" data-name="Elipse 6681" cx="25.726" cy="25.726" r="25.726" transform="translate(0 0)" fill="#f6f6f6"/>
    </g>
    <g id="Grupo_879594" data-name="Grupo 879594" transform="translate(43.291 55.604)">
      <path id="Trazado_630465" data-name="Trazado 630465" d="M250.918,190.976a25.834,25.834,0,0,0-4.26-3.441A25.73,25.73,0,0,1,211.1,223.1a25.727,25.727,0,1,0,39.823-32.122Z" transform="translate(-211.095 -187.535)" fill="#d5dff4"/>
    </g>
    <g id="Grupo_879596" data-name="Grupo 879596" transform="translate(35.961 48.26)">
      <g id="Grupo_879595" data-name="Grupo 879595">
        <path id="Trazado_630466" data-name="Trazado 630466" d="M204.313,209.676a28.976,28.976,0,1,1,20.489-8.487A28.785,28.785,0,0,1,204.313,209.676Zm0-51.931a22.956,22.956,0,1,0,16.232,6.723A22.805,22.805,0,0,0,204.313,157.745Z" transform="translate(-175.351 -151.725)" fill="#eb6f2d"/>
      </g>
    </g>
    <g id="Grupo_879598" data-name="Grupo 879598" transform="translate(43.061 55.359)">
      <g id="Grupo_879597" data-name="Grupo 879597">
        <path id="Trazado_630467" data-name="Trazado 630467" d="M252.323,187.729q-.723-.723-1.488-1.388a28.975,28.975,0,0,1-40.862,40.892q.657.754,1.373,1.474a28.975,28.975,0,1,0,40.977-40.977Z" transform="translate(-209.973 -186.341)" fill="#e44e00"/>
      </g>
    </g>
    <g id="Grupo_879599" data-name="Grupo 879599" transform="translate(0 21.568)">
      <circle id="Elipse_6682" data-name="Elipse 6682" cx="2.157" cy="2.157" r="2.157" transform="translate(8.377 6.97)"/>
      <circle id="Elipse_6683" data-name="Elipse 6683" cx="2.157" cy="2.157" r="2.157" transform="translate(16.581 6.97)"/>
      <circle id="Elipse_6684" data-name="Elipse 6684" cx="2.157" cy="2.157" r="2.157" transform="translate(24.784 6.97)"/>
      <path id="Trazado_630468" data-name="Trazado 630468" d="M103.375,108.189a5.53,5.53,0,0,0-2.141-1.328,4.388,4.388,0,0,0-1.277-3.078l-9.66-9.66a30.451,30.451,0,1,0-53.759-5.785H5.485a2.5,2.5,0,0,1-2.493-2.493v-46.9H90.86V54.392a1.5,1.5,0,0,0,2.992,0V27.054a5.492,5.492,0,0,0-5.485-5.485H30.992a1.5,1.5,0,0,0,0,2.992H88.367a2.5,2.5,0,0,1,2.493,2.493v8.9H2.992v-8.9A2.5,2.5,0,0,1,5.485,24.56H23.337a1.5,1.5,0,1,0,0-2.992H5.485A5.492,5.492,0,0,0,0,27.054V85.844A5.492,5.492,0,0,0,5.485,91.33H37.9a30.5,30.5,0,0,0,43.43,11.6l9.743,9.743a4.386,4.386,0,0,0,3.078,1.277,5.532,5.532,0,0,0,1.34,2.153,5.585,5.585,0,1,0,7.887-7.91ZM45.492,96.667a27.48,27.48,0,1,1,19.431,8.048A27.293,27.293,0,0,1,45.492,96.667Zm55.877,17.214a2.606,2.606,0,0,1-3.765.1,2.564,2.564,0,0,1-.735-1.493,1.9,1.9,0,0,0-2.357-1.581,1.369,1.369,0,0,1-1.326-.357l-9.391-9.391a30.991,30.991,0,0,0,4.7-4.611L97.84,105.9a1.369,1.369,0,0,1,.357,1.325,1.9,1.9,0,0,0,1.577,2.357,2.563,2.563,0,0,1,1.49.73,2.619,2.619,0,0,1,.1,3.57Z" transform="translate(0 -21.568)"/>
      <path id="Trazado_630469" data-name="Trazado 630469" d="M239.085,180.946a24.452,24.452,0,1,0-25.112,40.469,1.5,1.5,0,1,0,.954-2.836,21.465,21.465,0,1,1,22.042-35.518A21.46,21.46,0,0,1,221.8,219.7a1.5,1.5,0,1,0,0,2.992,24.452,24.452,0,0,0,17.29-41.742Z" transform="translate(-156.872 -142.568)"/>
      <path id="Trazado_630470" data-name="Trazado 630470" d="M296.771,270.389a1.5,1.5,0,0,0-1.5-1.5H291.84v-2.859h3.071a1.5,1.5,0,0,0,0-2.992H291.84v-2.859h3.435a1.5,1.5,0,0,0,0-2.992h-4.931a1.5,1.5,0,0,0-1.5,1.5v11.7a1.5,1.5,0,0,0,1.5,1.5h4.931A1.5,1.5,0,0,0,296.771,270.389Z" transform="translate(-229.612 -208.87)"/>
      <path id="Trazado_630471" data-name="Trazado 630471" d="M229.234,268.737a4.091,4.091,0,0,1-3.007-1.259,1.5,1.5,0,0,0-2.217,2.009,7.127,7.127,0,0,0,5.224,2.242,4.891,4.891,0,0,0,4.989-3.793c.3-1.655-.455-3.815-3.446-4.919-1.447-.534-2.795-1.115-3.212-1.3a.8.8,0,0,1-.28-.749,1.167,1.167,0,0,1,.925-.93,3.915,3.915,0,0,1,3.232.748,1.5,1.5,0,0,0,1.918-2.3,6.9,6.9,0,0,0-6.012-1.316,4.174,4.174,0,0,0-3.024,3.37,3.741,3.741,0,0,0,1.891,3.848c.068.031,1.7.755,3.527,1.43.513.189,1.69.723,1.536,1.586a1.972,1.972,0,0,1-2.043,1.327Z" transform="translate(-177.763 -208.661)"/>
      <path id="Trazado_630472" data-name="Trazado 630472" d="M352.562,264.328a7.4,7.4,0,1,0-7.4,7.4A7.409,7.409,0,0,0,352.562,264.328Zm-11.81,0a4.409,4.409,0,1,1,4.409,4.409A4.414,4.414,0,0,1,340.752,264.328Z" transform="translate(-268.493 -208.66)"/>
      <path id="Trazado_630473" data-name="Trazado 630473" d="M59.1,136.291A14.313,14.313,0,1,0,44.784,150.6,14.33,14.33,0,0,0,59.1,136.291ZM56,134.8H52.787a21.179,21.179,0,0,0-1.949-8.064A11.335,11.335,0,0,1,56,134.8Zm-12.715-9.246V134.8h-3.51C40.059,130.252,41.587,126.849,43.288,125.549Zm0,12.238v9.246c-1.7-1.3-3.23-4.7-3.51-9.246Zm2.992,9.246v-9.246h3.51C49.51,142.331,47.982,145.733,46.28,147.033Zm0-12.238v-9.246c1.7,1.3,3.23,4.7,3.51,9.246Zm-7.549-8.064a21.175,21.175,0,0,0-1.949,8.064H33.565A11.336,11.336,0,0,1,38.732,126.731Zm-5.167,11.056h3.217a21.175,21.175,0,0,0,1.95,8.064A11.335,11.335,0,0,1,33.565,137.787Zm17.272,8.064a21.175,21.175,0,0,0,1.949-8.064H56A11.335,11.335,0,0,1,50.837,145.852Z" transform="translate(-24.222 -101.386)"/>
      <path id="Trazado_630474" data-name="Trazado 630474" d="M61.019,288.88a1.5,1.5,0,0,0-1.5-1.5H39.77a1.5,1.5,0,1,0,0,2.992H59.523A1.5,1.5,0,0,0,61.019,288.88Z" transform="translate(-30.425 -232.871)"/>
      <path id="Trazado_630475" data-name="Trazado 630475" d="M39.769,318.593a1.5,1.5,0,1,0,0,2.992h6.06a1.5,1.5,0,1,0,0-2.992Z" transform="translate(-30.424 -257.68)"/>
    </g>
  </g>
</svg>
