<svg id="Grupo_879663" data-name="Grupo 879663" xmlns="http://www.w3.org/2000/svg" xmlns:xlink="http://www.w3.org/1999/xlink" width="544.78" height="355.302" viewBox="0 0 544.78 355.302">
  <defs>
    <clipPath id="clip-path">
      <rect id="Rectángulo_329032" data-name="Rectángulo 329032" width="544.78" height="355.302" fill="none"/>
    </clipPath>
    <clipPath id="clip-path-6">
      <path id="Trazado_630527" data-name="Trazado 630527" d="M300.185,109.867A99.682,99.682,0,0,0,328.822,179.9l27.221-29.437a59.176,59.176,0,1,1,84.866,1.283l29.781,29.079a100.02,100.02,0,1,0-170.5-70.96" transform="translate(-300.185 -9.844)" fill="none"/>
    </clipPath>
    <clipPath id="clip-path-7">
      <rect id="Rectángulo_329016" data-name="Rectángulo 329016" width="75.615" height="82.143" fill="none"/>
    </clipPath>
    <clipPath id="clip-path-8">
      <rect id="Rectángulo_329017" data-name="Rectángulo 329017" width="68.442" height="73.586" fill="none"/>
    </clipPath>
    <clipPath id="clip-path-9">
      <rect id="Rectángulo_329018" data-name="Rectángulo 329018" width="73.479" height="68.271" fill="none"/>
    </clipPath>
    <clipPath id="clip-path-10">
      <rect id="Rectángulo_329019" data-name="Rectángulo 329019" width="78.136" height="70.175" fill="none"/>
    </clipPath>
    <clipPath id="clip-path-11">
      <rect id="Rectángulo_329020" data-name="Rectángulo 329020" width="59.839" height="69.308" fill="none"/>
    </clipPath>
    <clipPath id="clip-path-13">
      <rect id="Rectángulo_329021" data-name="Rectángulo 329021" width="10.177" height="11.458" fill="none"/>
    </clipPath>
    <clipPath id="clip-path-14">
      <rect id="Rectángulo_329022" data-name="Rectángulo 329022" width="5.197" height="3.782" fill="none"/>
    </clipPath>
    <clipPath id="clip-path-15">
      <rect id="Rectángulo_329023" data-name="Rectángulo 329023" width="24.07" height="2.322" fill="none"/>
    </clipPath>
    <clipPath id="clip-path-16">
      <rect id="Rectángulo_329024" data-name="Rectángulo 329024" width="16.391" height="6.373" fill="none"/>
    </clipPath>
    <clipPath id="clip-path-17">
      <rect id="Rectángulo_329025" data-name="Rectángulo 329025" width="45.058" height="24.487" fill="none"/>
    </clipPath>
    <clipPath id="clip-path-19">
      <rect id="Rectángulo_329027" data-name="Rectángulo 329027" width="4.865" height="21.703" fill="#3d672f"/>
    </clipPath>
    <clipPath id="clip-path-20">
      <rect id="Rectángulo_329028" data-name="Rectángulo 329028" width="5.452" height="21.49" fill="#3d672f"/>
    </clipPath>
    <clipPath id="clip-path-21">
      <rect id="Rectángulo_329029" data-name="Rectángulo 329029" width="10.454" height="19.336" fill="#3d672f"/>
    </clipPath>
    <clipPath id="clip-path-22">
      <rect id="Rectángulo_329030" data-name="Rectángulo 329030" width="17.67" height="13.043" fill="#3d672f"/>
    </clipPath>
  </defs>
  <g id="Grupo_879662" data-name="Grupo 879662" clip-path="url(#clip-path)">
    <g id="Grupo_879607" data-name="Grupo 879607">
      <g id="Grupo_879606" data-name="Grupo 879606" clip-path="url(#clip-path)">
        <path id="Trazado_630478" data-name="Trazado 630478" d="M631.492,285.639s-5.471-2.365-9.353,10.406a154.512,154.512,0,0,0-4.941,19.926s-1.14,2.734-3.111,1.43-5.088-5.441-7.807-4.112c-2.819,1.379-3.207,4.868-1.773,9.639s4.192,15.338,4.438,16.295c.241.938-.055,2.438-1.539,1.765s-10.6-7.793-13.724-3.263,3.059,17.164,3.708,18.558.474,2.07-.156,2.556-3.471-2.2-6.148-4.115-6.117-3.675-7.7-.91-.445,12.867,11.95,27.4l6.184,6.357,8.671-2.046c18.287-5.508,24.711-13.387,24.879-16.567s-3.676-3.566-6.966-3.4-7.129.882-7.4.133-.049-1.414,1.251-2.234,13.334-8.1,13.164-13.6-11.693-4.448-13.306-4.686-1.049-1.659-.338-2.318,8.764-8.063,12.552-11.3,5.351-6.378,3.727-9.064c-1.566-2.589-6.428-.8-8.79-.769s-1.842-2.887-1.842-2.887a154.574,154.574,0,0,0,6.633-19.428c3.65-12.839-2.384-13.808-2.384-13.808" transform="translate(-93.618 -45.853)" fill="#ebebeb"/>
        <path id="Trazado_630479" data-name="Trazado 630479" d="M630.776,299.29s-.016.094-.061.274-.121.454-.211.793c-.2.709-.477,1.732-.837,3.044-.73,2.642-1.816,6.457-3.175,11.167-2.714,9.419-6.576,22.4-10.888,36.719s-8.207,27.3-10.974,36.7c-1.377,4.693-2.491,8.5-3.267,11.139l-.892,3.028-.238.785c-.056.176-.092.265-.092.265s.016-.094.062-.274.12-.455.21-.793c.2-.709.477-1.732.837-3.044.73-2.642,1.816-6.457,3.174-11.166,2.714-9.419,6.576-22.4,10.89-36.726s8.2-27.289,10.972-36.692c1.377-4.693,2.492-8.5,3.267-11.139l.892-3.028c.1-.335.181-.6.239-.786s.091-.264.091-.264" transform="translate(-96.398 -48.074)" fill="#e0e0e0"/>
        <path id="Trazado_630480" data-name="Trazado 630480" d="M615.687,325.719a2.612,2.612,0,0,1,.331.551c.2.363.465.9.789,1.557.646,1.325,1.491,3.177,2.385,5.239.869,2.031,1.655,3.868,2.263,5.289l.692,1.6a.322.322,0,1,1-.107.052c-.2-.363-.464-.9-.781-1.562-.634-1.331-1.454-3.195-2.346-5.256l-2.3-5.27-.7-1.6a2.593,2.593,0,0,1-.224-.6" transform="translate(-98.895 -52.319)" fill="#e0e0e0"/>
        <path id="Trazado_630481" data-name="Trazado 630481" d="M624.643,341.824c-.037-.076,3.705-1.987,8.357-4.27s8.454-4.072,8.491-4-3.7,1.987-8.358,4.271-8.453,4.072-8.49,4" transform="translate(-100.334 -53.577)" fill="#e0e0e0"/>
        <path id="Trazado_630482" data-name="Trazado 630482" d="M615.571,368.58a2.716,2.716,0,0,1,.638-.149l1.753-.311c1.479-.263,3.52-.633,5.758-1.121s4.251-.991,5.705-1.368l1.724-.444a2.711,2.711,0,0,1,.642-.129,2.694,2.694,0,0,1-.609.243c-.4.137-.978.323-1.7.537-1.442.431-3.452.973-5.7,1.459s-4.3.828-5.789,1.037c-.745.1-1.35.176-1.769.215a2.687,2.687,0,0,1-.655.033" transform="translate(-98.877 -58.637)" fill="#e0e0e0"/>
        <path id="Trazado_630483" data-name="Trazado 630483" d="M603.948,355.039a2.354,2.354,0,0,1,.433.424c.264.286.637.706,1.095,1.23.914,1.046,2.161,2.506,3.523,4.129s2.584,3.1,3.456,4.187c.436.541.784.982,1.02,1.291a.3.3,0,1,1-.09.076c-.264-.286-.638-.706-1.095-1.23-.914-1.046-2.161-2.506-3.524-4.129s-2.584-3.1-3.455-4.187c-.436-.541-.785-.982-1.021-1.291a2.353,2.353,0,0,1-.342-.5" transform="translate(-97.009 -57.028)" fill="#e0e0e0"/>
        <path id="Trazado_630484" data-name="Trazado 630484" d="M593.041,376.841a3.789,3.789,0,0,1,.547.549c.372.415.844.943,1.408,1.57,1.178,1.335,2.789,3.193,4.555,5.257s3.353,3.945,4.49,5.316l1.334,1.633a3.92,3.92,0,0,1,.458.626,3.761,3.761,0,0,1-.548-.549l-1.408-1.57c-1.178-1.335-2.789-3.193-4.556-5.258s-3.352-3.944-4.489-5.315l-1.334-1.633a3.681,3.681,0,0,1-.457-.626" transform="translate(-95.258 -60.53)" fill="#e0e0e0"/>
        <path id="Trazado_630485" data-name="Trazado 630485" d="M608.036,393.163a4.419,4.419,0,0,1,.8-.209l2.208-.473c1.864-.4,4.436-.959,7.259-1.656s5.365-1.386,7.2-1.9l2.176-.605a4.322,4.322,0,0,1,.808-.188,4.347,4.347,0,0,1-.774.3c-.5.175-1.238.415-2.15.7-1.822.567-4.359,1.293-7.188,1.988s-5.413,1.225-7.29,1.571c-.939.171-1.7.3-2.229.379a4.334,4.334,0,0,1-.825.092" transform="translate(-97.666 -62.344)" fill="#e0e0e0"/>
        <rect id="Rectángulo_328999" data-name="Rectángulo 328999" width="109.205" height="50.364" transform="translate(173.783 273.258)" fill="#f5f5f5"/>
        <path id="Trazado_630486" data-name="Trazado 630486" d="M314.124,374.047H210.017v-45.34H314.124ZM210.7,373.368H313.444V329.387H210.7Z" transform="translate(-33.734 -52.799)" fill="#e0e0e0"/>
        <rect id="Rectángulo_329000" data-name="Rectángulo 329000" width="26.679" height="50.364" transform="translate(282.988 273.258)" fill="#e0e0e0"/>
        <path id="Trazado_630487" data-name="Trazado 630487" d="M210.4,345.371H313.823a.137.137,0,0,0,0-.275H210.4a.137.137,0,0,0,0,.275" transform="translate(-33.774 -55.432)" fill="#e0e0e0"/>
        <path id="Trazado_630488" data-name="Trazado 630488" d="M272.351,342.617a113.407,113.407,0,0,0,.035-13.681.139.139,0,0,0-.279,0,113.407,113.407,0,0,0,.035,13.681.1.1,0,0,0,.208,0" transform="translate(-43.677 -52.814)" fill="#e0e0e0"/>
        <path id="Trazado_630489" data-name="Trazado 630489" d="M305.061,336.841a1.409,1.409,0,1,1-1.409-1.409,1.41,1.41,0,0,1,1.409,1.409" transform="translate(-48.548 -53.879)" fill="#e0e0e0"/>
        <path id="Trazado_630490" data-name="Trazado 630490" d="M240.395,336.841a1.409,1.409,0,1,1-1.408-1.409,1.409,1.409,0,0,1,1.408,1.409" transform="translate(-38.161 -53.879)" fill="#e0e0e0"/>
        <path id="Trazado_630491" data-name="Trazado 630491" d="M273.171,355.445a1.409,1.409,0,1,1-1.409-1.409,1.41,1.41,0,0,1,1.409,1.409" transform="translate(-43.426 -56.867)" fill="#e0e0e0"/>
        <path id="Trazado_630492" data-name="Trazado 630492" d="M221.518,385.552l-5.622,31.62h3.162l10.366-31.62Z" transform="translate(-34.679 -61.93)" fill="#e0e0e0"/>
        <path id="Trazado_630493" data-name="Trazado 630493" d="M326.424,385.552l4.7,31.675h-3.163l-9.445-31.675Z" transform="translate(-51.162 -61.93)" fill="#e0e0e0"/>
        <path id="Trazado_630494" data-name="Trazado 630494" d="M351.576,385.552l5.327,31.675H353.74L343.67,385.552Z" transform="translate(-55.202 -61.93)" fill="#e0e0e0"/>
        <path id="Trazado_630495" data-name="Trazado 630495" d="M273.058,372.427a1.409,1.409,0,1,1-1.408-1.409,1.409,1.409,0,0,1,1.408,1.409" transform="translate(-43.408 -59.595)" fill="#e0e0e0"/>
        <path id="Trazado_630496" data-name="Trazado 630496" d="M210.4,363.952H313.823a.137.137,0,0,0,0-.274H210.4a.137.137,0,0,0,0,.274" transform="translate(-33.774 -58.416)" fill="#e0e0e0"/>
        <rect id="Rectángulo_329001" data-name="Rectángulo 329001" width="69.044" height="92.603" transform="translate(444.045 28.191)" fill="#ebebeb"/>
        <rect id="Rectángulo_329002" data-name="Rectángulo 329002" width="61.856" height="85.324" transform="translate(447.638 31.831)" fill="#fafafa"/>
        <rect id="Rectángulo_329003" data-name="Rectángulo 329003" width="23.615" height="26.984" transform="translate(467.683 61.345)" fill="#ebebeb"/>
        <rect id="Rectángulo_329004" data-name="Rectángulo 329004" width="60.138" height="44.838" transform="translate(483.02 142.748)" fill="#ebebeb"/>
        <rect id="Rectángulo_329005" data-name="Rectángulo 329005" width="55.41" height="40.17" transform="translate(485.383 145.082)" fill="#fafafa"/>
        <rect id="Rectángulo_329006" data-name="Rectángulo 329006" width="17.524" height="15.336" transform="translate(504.55 156.898)" fill="#ebebeb"/>
        <path id="Trazado_630497" data-name="Trazado 630497" d="M291.956,291.455l-2.987,27.709h38.258l3.173-27.709Z" transform="translate(-46.416 -46.815)" fill="#ebebeb"/>
        <path id="Trazado_630498" data-name="Trazado 630498" d="M293.845,293.826l-2.905,24.247h34.527l2.794-24.247Z" transform="translate(-46.732 -47.196)" fill="#fafafa"/>
        <path id="Trazado_630499" data-name="Trazado 630499" d="M300.981,298.685l-1.788,16.091h21.789l1.118-16.091Z" transform="translate(-48.058 -47.977)" fill="#e0e0e0"/>
        <path id="Trazado_630500" data-name="Trazado 630500" d="M336.355,305.473l7.9,15.887-9.709-.111,1.926-16.813" transform="translate(-53.737 -48.9)" fill="#f5f5f5"/>
      </g>
    </g>
    <g id="Grupo_879609" data-name="Grupo 879609">
      <g id="Grupo_879608" data-name="Grupo 879608" clip-path="url(#clip-path)">
        <path id="Trazado_630501" data-name="Trazado 630501" d="M528.185,422.992c0,.121-118.248.218-264.08.218C118.222,423.21,0,423.113,0,422.992s118.222-.218,264.106-.218c145.832,0,264.08.1,264.08.218" transform="translate(0 -67.908)" fill="#263238"/>
      </g>
    </g>
    <rect id="Rectángulo_329009" data-name="Rectángulo 329009" width="315.83" height="207.889" transform="translate(69.079 21.982)" fill="#ebebeb"/>
    <g id="Grupo_879611" data-name="Grupo 879611">
      <g id="Grupo_879610" data-name="Grupo 879610" clip-path="url(#clip-path)">
        <path id="Trazado_630502" data-name="Trazado 630502" d="M398.087,234.036c0-1.419-.068-81.082-.174-207.889l.174.174-315.805.044h-.025l.219-.218c-.007,73.954-.013,144.323-.018,207.889l-.2-.2,315.83.2-315.83.2h-.2v-.2c-.005-63.567-.011-133.936-.018-207.889v-.219h.243l315.805.045h.174v.174c-.106,126.808-.172,206.471-.174,207.889" transform="translate(-13.177 -4.165)" fill="#263238"/>
        <path id="Trazado_630503" data-name="Trazado 630503" d="M398.128,48.183c0,.121-70.706.218-157.907.218C152.99,48.4,82.3,48.3,82.3,48.183s70.692-.218,157.923-.218c87.2,0,157.907.1,157.907.218" transform="translate(-13.219 -7.704)" fill="#263238"/>
        <rect id="Rectángulo_329010" data-name="Rectángulo 329010" width="264.77" height="36.235" transform="translate(98.506 71.235)" fill="#e0e0e0"/>
        <rect id="Rectángulo_329011" data-name="Rectángulo 329011" width="58.781" height="58.781" transform="translate(93.978 170.843)" fill="#e0e0e0"/>
        <rect id="Rectángulo_329012" data-name="Rectángulo 329012" width="58.781" height="58.781" transform="translate(163.464 170.843)" fill="#e0e0e0"/>
        <rect id="Rectángulo_329013" data-name="Rectángulo 329013" width="58.781" height="58.781" transform="translate(230.875 170.843)" fill="#e0e0e0"/>
        <path id="Trazado_630504" data-name="Trazado 630504" d="M223.133,170.142H159.415a9.71,9.71,0,0,1,0-19.421h63.718a9.71,9.71,0,0,1,0,19.421" transform="translate(-24.047 -24.21)" fill="#eb6f2d"/>
        <path id="Trazado_630505" data-name="Trazado 630505" d="M297.575,170.1s.295-.03.868-.066c.286-.022.637-.1,1.058-.159a10.784,10.784,0,0,0,1.414-.423,9.647,9.647,0,0,0,6.085-7.1,9.737,9.737,0,0,0-1.127-6.785,9.591,9.591,0,0,0-6.642-4.611,33.52,33.52,0,0,0-4.673-.144l-5.009.008-10.888.015-119.278.065a9.487,9.487,0,0,0-.631,18.955c1.355.064,2.756.018,4.122.033l31.67.013,53.624.047,36.152.07,9.829.041,2.556.021c.577.008.871.023.871.023s-.295.015-.871.023l-2.556.022-9.829.04-36.152.07-53.624.047-31.67.013c-1.379-.014-2.739.034-4.15-.032a9.942,9.942,0,0,1-4.069-1.159,9.93,9.93,0,0,1,4.728-18.662l119.278.064,10.888.015,5.009.008a33.439,33.439,0,0,1,4.715.165,9.814,9.814,0,0,1,7.893,11.671,9.724,9.724,0,0,1-6.221,7.15,10.506,10.506,0,0,1-1.432.4c-.424.056-.778.124-1.066.139-.577.022-.872.022-.872.022" transform="translate(-24.006 -24.168)" fill="#263238"/>
        <path id="Trazado_630506" data-name="Trazado 630506" d="M224.45,181.943h.725l-.892,4.444h2.755l-.123.63h-3.48Z" transform="translate(-35.89 -29.225)" fill="#263238"/>
        <path id="Trazado_630507" data-name="Trazado 630507" d="M228.38,185.63a2.189,2.189,0,0,1,2.255-2.262,1.617,1.617,0,0,1,1.8,1.653,2.183,2.183,0,0,1-2.247,2.269,1.632,1.632,0,0,1-1.8-1.659m3.349-.573a1.014,1.014,0,0,0-1.146-1.08,1.513,1.513,0,0,0-1.5,1.623,1.017,1.017,0,0,0,1.145,1.08,1.508,1.508,0,0,0,1.5-1.623" transform="translate(-36.684 -29.454)" fill="#263238"/>
        <path id="Trazado_630508" data-name="Trazado 630508" d="M238.245,183.4l-.761,3.842h-.666l.094-.471a1.914,1.914,0,0,1-1.356.515,1.585,1.585,0,0,1-1.7-1.659,2.149,2.149,0,0,1,2.175-2.262,1.461,1.461,0,0,1,1.385.689l.13-.653Zm-1.037,1.653a1.014,1.014,0,0,0-1.146-1.08,1.513,1.513,0,0,0-1.5,1.623,1.017,1.017,0,0,0,1.145,1.08,1.508,1.508,0,0,0,1.5-1.623" transform="translate(-37.564 -29.454)" fill="#263238"/>
        <path id="Trazado_630509" data-name="Trazado 630509" d="M244.441,181.58l-1.073,5.379H242.7l.094-.471a1.914,1.914,0,0,1-1.356.515,1.585,1.585,0,0,1-1.7-1.659,2.149,2.149,0,0,1,2.174-2.262,1.464,1.464,0,0,1,1.393.7l.435-2.2Zm-1.348,3.19a1.014,1.014,0,0,0-1.146-1.08,1.513,1.513,0,0,0-1.5,1.623,1.017,1.017,0,0,0,1.145,1.08,1.508,1.508,0,0,0,1.5-1.623" transform="translate(-38.509 -29.166)" fill="#263238"/>
        <path id="Trazado_630510" data-name="Trazado 630510" d="M246.4,183.1h.7l-.761,3.842h-.7Zm.116-1.16a.481.481,0,0,1,.5-.486.423.423,0,0,1,.441.406.481.481,0,0,1-.507.5.42.42,0,0,1-.435-.421" transform="translate(-39.456 -29.146)" fill="#263238"/>
        <path id="Trazado_630511" data-name="Trazado 630511" d="M252.162,184.644a2.5,2.5,0,0,1-.044.449l-.427,2.154H251l.427-2.154a1.78,1.78,0,0,0,.037-.319c0-.5-.29-.782-.892-.782a1.355,1.355,0,0,0-1.421,1.225l-.405,2.03h-.7l.76-3.843h.667l-.094.493a1.886,1.886,0,0,1,1.392-.529,1.22,1.22,0,0,1,1.392,1.276" transform="translate(-39.842 -29.454)" fill="#263238"/>
        <path id="Trazado_630512" data-name="Trazado 630512" d="M258.331,183.405l-.661,3.32a2.108,2.108,0,0,1-2.3,1.972,2.7,2.7,0,0,1-1.754-.544l.384-.536a2.137,2.137,0,0,0,1.421.464,1.374,1.374,0,0,0,1.529-1.246l.058-.275a1.955,1.955,0,0,1-1.392.528,1.541,1.541,0,0,1-1.711-1.565,2.108,2.108,0,0,1,2.189-2.152,1.506,1.506,0,0,1,1.435.74l.138-.7Zm-1.066,1.565c0-.616-.421-.994-1.146-.994a1.453,1.453,0,0,0-1.508,1.5c0,.624.427,1,1.145,1a1.455,1.455,0,0,0,1.508-1.508" transform="translate(-40.738 -29.454)" fill="#263238"/>
        <path id="Trazado_630513" data-name="Trazado 630513" d="M261.937,187.387a.511.511,0,0,1,.514-.53.45.45,0,0,1,.457.472.507.507,0,0,1-.507.522.458.458,0,0,1-.464-.464" transform="translate(-42.074 -30.014)" fill="#263238"/>
        <path id="Trazado_630514" data-name="Trazado 630514" d="M263.9,187.387a.511.511,0,0,1,.515-.53.45.45,0,0,1,.457.472.507.507,0,0,1-.507.522.458.458,0,0,1-.464-.464" transform="translate(-42.389 -30.014)" fill="#263238"/>
        <path id="Trazado_630515" data-name="Trazado 630515" d="M265.854,187.387a.511.511,0,0,1,.515-.53.45.45,0,0,1,.457.472.507.507,0,0,1-.507.522.458.458,0,0,1-.464-.464" transform="translate(-42.703 -30.014)" fill="#263238"/>
        <path id="Trazado_630516" data-name="Trazado 630516" d="M95.786,37.83a2.315,2.315,0,1,1-2.315-2.315,2.315,2.315,0,0,1,2.315,2.315" transform="translate(-14.642 -5.705)" fill="#263238"/>
        <path id="Trazado_630517" data-name="Trazado 630517" d="M107.507,37.83a2.315,2.315,0,1,1-2.315-2.315,2.315,2.315,0,0,1,2.315,2.315" transform="translate(-16.525 -5.705)" fill="#263238"/>
        <path id="Trazado_630518" data-name="Trazado 630518" d="M119.228,37.83a2.315,2.315,0,1,1-2.315-2.315,2.315,2.315,0,0,1,2.315,2.315" transform="translate(-18.407 -5.705)" fill="#263238"/>
      </g>
    </g>
    <g id="Grupo_879613" data-name="Grupo 879613">
      <g id="Grupo_879612" data-name="Grupo 879612" clip-path="url(#clip-path)">
        <path id="Trazado_630519" data-name="Trazado 630519" d="M508.485,110.439A110.23,110.23,0,1,1,398.255.209a110.23,110.23,0,0,1,110.23,110.23" transform="translate(-46.264 -0.034)" fill="#f5f5f5"/>
        <path id="Trazado_630520" data-name="Trazado 630520" d="M508.443,110.405s-.03-.605-.068-1.787q-.026-.889-.066-2.2c-.021-.875-.044-1.892-.156-3.04q-.136-1.724-.3-3.854c-.144-1.415-.372-2.955-.579-4.627a116.026,116.026,0,0,0-2.24-11.414,109.334,109.334,0,0,0-4.516-13.84,106.379,106.379,0,0,0-7.666-15.519,111.434,111.434,0,0,0-27.974-31.3A109.823,109.823,0,0,0,418.529,2.26a111.83,111.83,0,0,0-43.125.494,108.632,108.632,0,0,0-29.031,10.6,115.983,115.983,0,0,0-13.555,8.584A120.565,120.565,0,0,0,320.4,32.627a118.816,118.816,0,0,0-10.869,12.685,108.517,108.517,0,0,0-8.971,14.44c-.632,1.283-1.347,2.528-1.916,3.848l-1.777,3.932c-1.062,2.679-2.16,5.359-3.036,8.129a107.166,107.166,0,0,0-4.191,17.021,118.858,118.858,0,0,0-1.44,17.706,118.832,118.832,0,0,0,1.435,17.712,107.326,107.326,0,0,0,4.189,17.027l.7,2.062.348,1.029.4,1.011,1.591,4.031q.89,1.972,1.778,3.934c.567,1.32,1.284,2.565,1.916,3.849a108.349,108.349,0,0,0,8.971,14.445A118.594,118.594,0,0,0,320.4,188.177a120.614,120.614,0,0,0,12.418,10.7,110.293,110.293,0,0,0,27.877,14.988,117.477,117.477,0,0,0,14.715,4.2,111.871,111.871,0,0,0,43.13.493,109.828,109.828,0,0,0,46.344-20.571,111.43,111.43,0,0,0,27.97-31.3,106.4,106.4,0,0,0,7.665-15.518,109.435,109.435,0,0,0,4.515-13.84,116.219,116.219,0,0,0,2.239-11.412c.206-1.672.435-3.212.578-4.627q.167-2.127.3-3.853c.112-1.148.135-2.164.156-3.039s.049-1.608.066-2.2c.038-1.182.068-1.787.068-1.787s0,.605-.023,1.788q-.019.889-.045,2.2c-.013.876-.03,1.893-.134,3.043q-.127,1.726-.283,3.858c-.138,1.417-.358,2.96-.559,4.635a115.306,115.306,0,0,1-2.2,11.436,108.79,108.79,0,0,1-4.486,13.875,106.282,106.282,0,0,1-7.648,15.566,111.522,111.522,0,0,1-27.993,31.417A110.064,110.064,0,0,1,418.6,218.906a112.15,112.15,0,0,1-43.278-.463,117.792,117.792,0,0,1-14.771-4.2,110.569,110.569,0,0,1-27.988-15.032A120.909,120.909,0,0,1,320.1,188.476a119.062,119.062,0,0,1-10.916-12.735,108.776,108.776,0,0,1-9.01-14.5c-.635-1.288-1.354-2.538-1.924-3.864l-1.786-3.948-1.6-4.047-.4-1.015-.35-1.033-.7-2.071a107.786,107.786,0,0,1-4.207-17.094,119.423,119.423,0,0,1-1.441-17.782,119.222,119.222,0,0,1,1.446-17.775,107.517,107.517,0,0,1,4.209-17.088c.88-2.783,1.982-5.472,3.049-8.162l1.785-3.948c.571-1.325,1.289-2.575,1.925-3.862a108.8,108.8,0,0,1,9.009-14.494A119.012,119.012,0,0,1,320.1,32.328,120.88,120.88,0,0,1,332.57,21.6,110.6,110.6,0,0,1,360.553,6.57a117.772,117.772,0,0,1,14.77-4.2A112.189,112.189,0,0,1,418.6,1.9a110.073,110.073,0,0,1,46.464,20.677,111.527,111.527,0,0,1,28,31.417,106.393,106.393,0,0,1,7.65,15.567,108.939,108.939,0,0,1,4.487,13.876,115.356,115.356,0,0,1,2.2,11.437c.2,1.675.421,3.218.559,4.636q.155,2.129.282,3.859c.1,1.149.122,2.166.135,3.043s.033,1.61.045,2.2c.023,1.183.023,1.788.023,1.788" transform="translate(-46.222 0)" fill="#263238"/>
      </g>
    </g>
    <g id="Grupo_879630" data-name="Grupo 879630" transform="translate(251.967 8.263)">
      <g id="Grupo_879629" data-name="Grupo 879629" clip-path="url(#clip-path-6)">
        <path id="Trazado_630521" data-name="Trazado 630521" d="M356.043,150.466a59.177,59.177,0,1,1,84.866,1.282l29.781,29.08a100.03,100.03,0,1,0-141.868-.926Z" transform="translate(-300.185 -9.844)" fill="#ffb338"/>
        <g id="Grupo_879616" data-name="Grupo 879616" transform="translate(130.547 99.509)" opacity="0.8">
          <g id="Grupo_879615" data-name="Grupo 879615">
            <g id="Grupo_879614" data-name="Grupo 879614" clip-path="url(#clip-path-7)">
              <path id="Trazado_630522" data-name="Trazado 630522" d="M477.535,128.4h53.795S525.889,172.186,524.8,173s-32.911,37.535-32.911,37.535l-36.175-42.975Z" transform="translate(-455.714 -128.395)"/>
            </g>
          </g>
        </g>
        <g id="Grupo_879619" data-name="Grupo 879619" transform="translate(137.854 25.922)" opacity="0.7">
          <g id="Grupo_879618" data-name="Grupo 879618">
            <g id="Grupo_879617" data-name="Grupo 879617" clip-path="url(#clip-path-8)">
              <path id="Trazado_630523" data-name="Trazado 630523" d="M464.419,78.09,502.49,40.727l26.8,39.984,3.573,33.6-53.281,0-9.7-21.362Z" transform="translate(-464.419 -40.727)"/>
            </g>
          </g>
        </g>
        <g id="Grupo_879622" data-name="Grupo 879622" transform="translate(102.078 -4.122)" opacity="0.5">
          <g id="Grupo_879621" data-name="Grupo 879621">
            <g id="Grupo_879620" data-name="Grupo 879620" clip-path="url(#clip-path-9)">
              <path id="Trazado_630524" data-name="Trazado 630524" d="M422.088,58.789c-.652-1.088,0-53.855,0-53.855l32.8,4.121,40.386,26.07L456.475,73.2l-24.432-3.535Z" transform="translate(-421.797 -4.933)"/>
            </g>
          </g>
        </g>
        <g id="Grupo_879625" data-name="Grupo 879625" transform="translate(24.233 -4.122)" opacity="0.3">
          <g id="Grupo_879624" data-name="Grupo 879624">
            <g id="Grupo_879623" data-name="Grupo 879623" clip-path="url(#clip-path-10)">
              <path id="Trazado_630525" data-name="Trazado 630525" d="M329.055,37.029c.816.272,36.175,38.079,36.175,38.079L396.782,62.6,406.9,49.976l.29-45.042L369.583,9.055Z" transform="translate(-329.055 -4.933)"/>
            </g>
          </g>
        </g>
        <g id="Grupo_879628" data-name="Grupo 879628" transform="translate(-3.546 30.442)" opacity="0.1">
          <g id="Grupo_879627" data-name="Grupo 879627">
            <g id="Grupo_879626" data-name="Grupo 879626" clip-path="url(#clip-path-11)">
              <path id="Trazado_630526" data-name="Trazado 630526" d="M295.96,115.178c.815.544,59.838,0,59.838,0l-1.041-38.845L326.268,46.112l-19.429,23.1Z" transform="translate(-295.96 -46.112)"/>
            </g>
          </g>
        </g>
      </g>
    </g>
    <g id="Grupo_879647" data-name="Grupo 879647">
      <g id="Grupo_879646" data-name="Grupo 879646" clip-path="url(#clip-path)">
        <path id="Trazado_630528" data-name="Trazado 630528" d="M439.258,127.138A22.967,22.967,0,1,1,416.29,104.17a22.968,22.968,0,0,1,22.968,22.968" transform="translate(-63.178 -16.732)" fill="#e0e0e0"/>
        <path id="Trazado_630529" data-name="Trazado 630529" d="M412.575,129.872h0a6.52,6.52,0,0,0,8.04,4.444l79.869-22.67-82.428,9.923a6.521,6.521,0,0,0-5.48,8.3" transform="translate(-66.228 -17.933)" fill="#455a64"/>
        <path id="Trazado_630530" data-name="Trazado 630530" d="M400.275,190.713,395.881,213h-5.827l2.293-11.749-7.419,9.552h-2.77l-4.043-9.552L375.757,213h-5.794l4.457-22.289h5.126l5.222,12.9,10.125-12.9Z" transform="translate(-59.426 -30.633)" fill="#263238"/>
        <path id="Trazado_630531" data-name="Trazado 630531" d="M427.6,196.652l-3.439,17.257H418.43l.351-1.623a7.089,7.089,0,0,1-5,1.91c-3.724,0-7.291-2.835-7.291-7.865,0-5.731,4.2-9.966,9.361-9.966,2.325,0,4.2.7,5.286,2.357l.414-2.07Zm-7.61,7.864a3.052,3.052,0,0,0-3.279-3.311c-2.388,0-4.108,1.942-4.108,4.84a3.028,3.028,0,0,0,3.279,3.279c2.42,0,4.108-1.941,4.108-4.807" transform="translate(-65.293 -31.541)" fill="#263238"/>
        <path id="Trazado_630532" data-name="Trazado 630532" d="M444.752,205.4l4.68,8.565H443l-2.357-4.522-4.17,4.522h-6.847l8.63-8.852-4.554-8.4h6.336l2.292,4.393,4.108-4.393h6.654Z" transform="translate(-69.009 -31.596)" fill="#263238"/>
        <path id="Trazado_630533" data-name="Trazado 630533" d="M455.118,212.926A3.755,3.755,0,0,1,459,209.073a3.184,3.184,0,0,1,3.407,3.311,3.767,3.767,0,0,1-3.853,3.853,3.264,3.264,0,0,1-3.439-3.311" transform="translate(-73.104 -33.583)" fill="#263238"/>
        <path id="Trazado_630534" data-name="Trazado 630534" d="M406.806,234.763h6.958l-.337,1.73h-10l.279-1.352,6.778-5.427c1.868-1.51,2.425-2.425,2.425-3.558,0-1.212-.855-2.008-2.724-2.008a4.953,4.953,0,0,0-3.6,1.55l-1.332-1.152a6.985,6.985,0,0,1,5.207-2.127c2.824,0,4.434,1.431,4.434,3.478,0,1.61-.7,3-3.081,4.89Z" transform="translate(-64.801 -35.726)" fill="#263238"/>
        <path id="Trazado_630535" data-name="Trazado 630535" d="M422.547,224.338l-1.152,3.817h1.351c3.558,0,5.169,1.471,5.169,3.717,0,2.882-2.366,4.81-5.924,4.81a6.525,6.525,0,0,1-4.87-1.749l1.053-1.53a5.234,5.234,0,0,0,3.956,1.511c2.4,0,3.8-1.053,3.8-2.824,0-1.371-.994-2.206-3.538-2.206h-3.379l2.166-7.276h7.852l-.339,1.73Z" transform="translate(-67 -35.757)" fill="#263238"/>
        <path id="Trazado_630536" data-name="Trazado 630536" d="M432.3,231.543c0-4.831,2.723-9.124,7.036-9.124,2.923,0,4.691,1.889,4.691,5.108,0,4.831-2.742,9.124-7.016,9.124-2.942,0-4.711-1.889-4.711-5.108m9.739-3.975c0-2.207-1.073-3.379-2.862-3.379-3.14,0-4.889,4.075-4.889,7.314,0,2.207,1.073,3.38,2.882,3.38,3.121,0,4.87-4.075,4.87-7.315" transform="translate(-69.439 -35.726)" fill="#263238"/>
        <path id="Trazado_630537" data-name="Trazado 630537" d="M562.568,400.414l3.567,5.764,9.088-10.5-4.787-5.071Z" transform="translate(-90.363 -62.742)" fill="#636363"/>
        <path id="Trazado_630538" data-name="Trazado 630538" d="M574.906,395.371a8.623,8.623,0,0,1-1.222,1.618c-.8.958-1.957,2.244-3.256,3.636l-3.352,3.543a9.855,9.855,0,0,1-1.458,1.406,8.742,8.742,0,0,1,1.227-1.614c.807-.956,1.961-2.24,3.26-3.635l3.347-3.545a10.014,10.014,0,0,1,1.454-1.41" transform="translate(-90.853 -63.506)" fill="#263238"/>
        <path id="Trazado_630539" data-name="Trazado 630539" d="M566.723,396.018a19.509,19.509,0,0,1,4.15,4.112,19.513,19.513,0,0,1-4.15-4.112" transform="translate(-91.029 -63.61)" fill="#263238"/>
        <g id="Grupo_879633" data-name="Grupo 879633" transform="translate(474.684 331.979)" opacity="0.6">
          <g id="Grupo_879632" data-name="Grupo 879632">
            <g id="Grupo_879631" data-name="Grupo 879631" clip-path="url(#clip-path-13)">
              <path id="Trazado_630540" data-name="Trazado 630540" d="M566.609,406.965l9.089-10.5-.906-.959-9.272,10.184.97,1.171" transform="translate(-565.521 -395.508)" fill="#fff"/>
            </g>
          </g>
        </g>
        <path id="Trazado_630541" data-name="Trazado 630541" d="M475.353,418.409l.023-1.416,14.345.111-.026,4.67-.886.047c-3.943.181-20.059.661-22.685-.1-2.929-.846,9.229-3.316,9.229-3.316" transform="translate(-74.798 -66.98)" fill="#636363"/>
        <g id="Grupo_879636" data-name="Grupo 879636" transform="translate(409.72 350.878)" opacity="0.6">
          <g id="Grupo_879635" data-name="Grupo 879635">
            <g id="Grupo_879634" data-name="Grupo 879634" clip-path="url(#clip-path-14)">
              <path id="Trazado_630542" data-name="Trazado 630542" d="M488.126,421.805a4.583,4.583,0,0,1,1.85-2.82,5.084,5.084,0,0,1,3.347-.946l-.034,3.711Z" transform="translate(-488.126 -418.023)" fill="#fff"/>
            </g>
          </g>
        </g>
        <g id="Grupo_879639" data-name="Grupo 879639" transform="translate(390.827 352.833)" opacity="0.6">
          <g id="Grupo_879638" data-name="Grupo 879638">
            <g id="Grupo_879637" data-name="Grupo 879637" clip-path="url(#clip-path-15)">
              <path id="Trazado_630543" data-name="Trazado 630543" d="M469.4,420.352s-4.264,1.116-3.739,1.77,16.828.739,24.025.191l-.02-.3-19.019.053s-.415-1.68-1.246-1.717" transform="translate(-465.617 -420.352)" fill="#fff"/>
            </g>
          </g>
        </g>
        <path id="Trazado_630544" data-name="Trazado 630544" d="M489.9,422.3a1.388,1.388,0,0,1-.246.023l-.705.036-2.6.09c-2.193.062-5.223.111-8.571.1s-6.378-.091-8.569-.173l-2.595-.113-.705-.042a1.393,1.393,0,0,1-.245-.026,1.526,1.526,0,0,1,.247-.007l.706.012,2.6.063c2.192.052,5.22.109,8.567.125s6.374-.016,8.567-.049l2.6-.039.706-.006a1.394,1.394,0,0,1,.247.009" transform="translate(-74.798 -67.814)" fill="#263238"/>
        <path id="Trazado_630545" data-name="Trazado 630545" d="M471.354,422.244a5.178,5.178,0,0,0-.474-1.154,5.553,5.553,0,0,0-.876-.928,1.89,1.89,0,0,1,1.025.844,1.679,1.679,0,0,1,.326,1.238" transform="translate(-75.495 -67.488)" fill="#263238"/>
        <path id="Trazado_630546" data-name="Trazado 630546" d="M476.511,420.088c-.04.024-.24-.206-.446-.511s-.339-.574-.3-.6.239.206.445.512.339.573.3.6" transform="translate(-76.419 -67.299)" fill="#263238"/>
        <path id="Trazado_630547" data-name="Trazado 630547" d="M477.869,419.487c-.032.033-.256-.108-.5-.315s-.415-.4-.384-.434.256.108.5.315.416.4.384.434" transform="translate(-76.616 -67.259)" fill="#263238"/>
        <path id="Trazado_630548" data-name="Trazado 630548" d="M478.638,418.127a3.509,3.509,0,1,1-.746-.076,1.8,1.8,0,0,1,.746.076" transform="translate(-76.642 -67.15)" fill="#263238"/>
        <path id="Trazado_630549" data-name="Trazado 630549" d="M478.908,417.088a1.528,1.528,0,0,1-.834.221,1.547,1.547,0,0,1-.858-.111,65.934,65.934,0,0,0,1.691-.11" transform="translate(-76.653 -66.993)" fill="#263238"/>
        <path id="Trazado_630550" data-name="Trazado 630550" d="M475.577,418.688a2.865,2.865,0,0,1-.918-.01,5.742,5.742,0,0,1-.975-.206,2.807,2.807,0,0,1-.557-.217.466.466,0,0,1-.224-.267.324.324,0,0,1,.141-.34,1.757,1.757,0,0,1,2.077.468,1.47,1.47,0,0,1,.295.571c.035.146.032.229.021.231a2.33,2.33,0,0,0-.41-.73,1.661,1.661,0,0,0-.781-.478,1.521,1.521,0,0,0-1.094.064c-.147.1-.091.259.07.35a2.849,2.849,0,0,0,.514.207,6.791,6.791,0,0,0,.943.233c.548.093.9.1.9.123" transform="translate(-75.959 -67.059)" fill="#263238"/>
        <path id="Trazado_630551" data-name="Trazado 630551" d="M475.786,418.652a.8.8,0,0,1-.1-.593,1.346,1.346,0,0,1,.257-.623.934.934,0,0,1,.768-.431.338.338,0,0,1,.279.4.892.892,0,0,1-.159.38,2.63,2.63,0,0,1-.438.515,1.345,1.345,0,0,1-.528.342c-.016-.021.184-.152.44-.421a3.009,3.009,0,0,0,.389-.509c.128-.18.217-.5-.013-.543a.831.831,0,0,0-.608.359,1.36,1.36,0,0,0-.265.553,2.87,2.87,0,0,0-.02.575" transform="translate(-76.406 -66.982)" fill="#263238"/>
        <path id="Trazado_630552" data-name="Trazado 630552" d="M493.251,417.979c0,.03-.409-.039-1.055.029a4.816,4.816,0,0,0-2.309.87,4.326,4.326,0,0,0-1.456,1.883c-.223.568-.248.95-.28.946a.734.734,0,0,1,0-.268,3.3,3.3,0,0,1,.162-.715,4.126,4.126,0,0,1,1.465-1.972,4.631,4.631,0,0,1,2.407-.857,4,4,0,0,1,.785.023.854.854,0,0,1,.28.061" transform="translate(-78.408 -67.123)" fill="#263238"/>
        <path id="Trazado_630553" data-name="Trazado 630553" d="M485.2,420.972a12.616,12.616,0,0,1-4.173.015c.005-.046.938.012,2.087.006s2.082-.067,2.087-.021" transform="translate(-77.265 -67.616)" fill="#263238"/>
        <path id="Trazado_630554" data-name="Trazado 630554" d="M489.254,420.987c.034.033-.078.183-.175.382s-.151.374-.2.371-.071-.21.043-.438.3-.347.332-.315" transform="translate(-78.52 -67.621)" fill="#263238"/>
        <path id="Trazado_630555" data-name="Trazado 630555" d="M490.5,419.539c.034.031-.06.17-.209.307s-.3.226-.331.195.06-.17.209-.308.3-.225.331-.194" transform="translate(-78.699 -67.388)" fill="#263238"/>
        <path id="Trazado_630556" data-name="Trazado 630556" d="M492.252,418.87c-.011.044-.2.043-.41.11s-.363.17-.4.14.083-.213.346-.293.479,0,.464.043" transform="translate(-78.937 -67.269)" fill="#263238"/>
        <path id="Trazado_630557" data-name="Trazado 630557" d="M493.608,418.573c.017.041-.065.109-.185.151s-.229.043-.246,0,.065-.11.185-.152.229-.042.246,0" transform="translate(-79.217 -67.229)" fill="#263238"/>
        <path id="Trazado_630558" data-name="Trazado 630558" d="M463.445,183.831l-22.157-22.448L444.1,132.15l.507-.581c.274-.32.587-.67.954-1.054a5.51,5.51,0,0,1,1.466-1.09,8.41,8.41,0,0,1,2.119-.839c.692-.1.922-.975.368-1.267s-2.468-.066-4.38,1.141-.752-2.113-.352-3.329,1.463-5.035,1.184-5.443c-.41-.6-1.147-.265-1.519.959-.376,1.239-1.747,4.821-2.384,4.6s1.5-6.39,1.5-6.39.67-1.251-.057-1.536c-1.311-.514-3.083,6.2-3.237,6.838-.106.447-.807.226-.667-.248s2.264-6.107.935-6.643c-1.021-.412-1.511,5.507-2.6,6.446s.833-4.461-.158-4.815c-.369-.131-.664-.179-1.32,3.07a64.324,64.324,0,0,0-1.265,6.778l-.005,0-6.965,34.931,21.8,28.866Z" transform="translate(-68.784 -18.832)" fill="#ffbe9d"/>
        <path id="Trazado_630559" data-name="Trazado 630559" d="M481.674,119.791c-.912.525,1.949,5.493.707,4.765s-2.783-6.464-3.713-5.876c-1.211.766,1.88,5.914,2.109,6.368s-.428.784-.613.363c-.265-.6-3.211-6.889-4.408-6.148-.664.411.218,1.521.218,1.521s3.2,5.688,2.618,6.019-2.576-2.944-3.168-4.094-1.371-1.335-1.666-.672c-.2.453,1.527,4.019,2.139,5.144s2.348,4.183.25,3.338-4.021-.725-4.513-.338-.11,1.208.589,1.181a8.489,8.489,0,0,1,2.235.447,5.518,5.518,0,0,1,1.638.81c.429.312.8.6,1.126.866l.6.48,11.969,29.507-10.875,25.31,16.855,6.275,7.576-33.47-17.366-32.572,0,0a64.373,64.373,0,0,0-2.459-6.442c-1.226-3.079-1.508-2.98-1.847-2.784" transform="translate(-75.721 -19.056)" fill="#ffbe9d"/>
        <path id="Trazado_630560" data-name="Trazado 630560" d="M517.631,322.869l-10.949-56.322-15.459,1.329,0-.129-28.24,2.556s-1.323,64.685-1.792,64.685l7.735,58.965,0,.011,22.3-1.017-8.618-58.7,3.18-47.1.635-.864,12.9,48.156,43.924,49.712,14.31-13.839Z" transform="translate(-74.08 -42.814)" fill="#455a64"/>
        <path id="Trazado_630561" data-name="Trazado 630561" d="M487.418,327.931a1.978,1.978,0,0,1-.013-.482c.013-.363.03-.818.05-1.377.065-1.254.155-2.967.265-5.058.269-4.322.635-10.192,1.039-16.677.41-5.887.786-11.265,1.072-15.375l0-.055.034-.039,3.869-4.6,1.074-1.239a2.579,2.579,0,0,1,.4-.412,2.63,2.63,0,0,1-.326.473l-1.006,1.3-3.757,4.69.037-.093-.964,15.382c-.454,6.482-.865,12.348-1.168,16.668-.167,2.087-.3,3.8-.4,5.049-.053.556-.1,1.01-.132,1.372a2.022,2.022,0,0,1-.076.476" transform="translate(-78.289 -45.396)" fill="#263238"/>
        <path id="Trazado_630562" data-name="Trazado 630562" d="M496.93,267.976a66.57,66.57,0,0,1,0,10.773,66.6,66.6,0,0,1,0-10.773" transform="translate(-79.785 -43.044)" fill="#263238"/>
        <path id="Trazado_630563" data-name="Trazado 630563" d="M474.253,273.582a3.9,3.9,0,0,1,.7-.113l2.06-.248c1.785-.206,4.361-.494,7.454-.807l.21-.021v.213c.008,2.647.017,5.7.026,8.942v.136l-.122.06-.16.08-5.39,2.65-.1.049-.1-.056-4.667-2.767-.089-.052,0-.1c.037-2.391.067-4.381.091-5.852.018-.638.033-1.163.045-1.584a2.518,2.518,0,0,1,.04-.53,3.958,3.958,0,0,1,.04.6c.013.431.028.968.045,1.621.023,1.445.054,3.4.091,5.748l-.087-.152,4.7,2.711-.2-.007,5.382-2.669.159-.079-.122.2c.009-3.243.018-6.294.026-8.942l.211.191c-3.016.27-5.553.471-7.355.607l-2.11.15a5.681,5.681,0,0,1-.781.028" transform="translate(-76.149 -43.753)" fill="#263238"/>
        <path id="Trazado_630564" data-name="Trazado 630564" d="M500.155,271.027a3.9,3.9,0,0,1,.7-.113l2.06-.248c1.785-.206,4.361-.494,7.454-.807l.21-.021v.213c.008,2.647.017,5.7.026,8.942v.136l-.122.06-.16.079-5.39,2.65-.1.049-.1-.056-4.667-2.767-.089-.052,0-.1c.037-2.391.068-4.381.091-5.851.018-.639.033-1.163.045-1.585a2.523,2.523,0,0,1,.04-.53,3.831,3.831,0,0,1,.04.6c.013.431.028.968.045,1.621.023,1.445.054,3.4.091,5.748l-.087-.152,4.7,2.711-.2-.007,5.381-2.669.159-.079-.122.2c.009-3.243.018-6.294.026-8.942l.211.191c-3.016.27-5.553.471-7.355.607l-2.11.15a5.669,5.669,0,0,1-.781.028" transform="translate(-80.309 -43.343)" fill="#263238"/>
        <path id="Trazado_630565" data-name="Trazado 630565" d="M484.717,275.259a62.488,62.488,0,0,1-10.43.482,62.488,62.488,0,0,1,10.43-.482" transform="translate(-76.183 -44.2)" fill="#263238"/>
        <path id="Trazado_630566" data-name="Trazado 630566" d="M510.418,272.9a60.256,60.256,0,0,1-10.23.777,60.265,60.265,0,0,1,10.23-.777" transform="translate(-80.343 -43.826)" fill="#263238"/>
        <path id="Trazado_630567" data-name="Trazado 630567" d="M482.661,346.6a59.769,59.769,0,0,1-10.141,1.241,59.795,59.795,0,0,1,10.141-1.241" transform="translate(-75.899 -55.667)" fill="#263238"/>
        <path id="Trazado_630568" data-name="Trazado 630568" d="M524.815,335.089c.044.126-2.411.985-5.19,2.546-2.788,1.545-4.807,3.185-4.891,3.081a5.651,5.651,0,0,1,1.247-1.17,25.815,25.815,0,0,1,7.183-4.009,5.643,5.643,0,0,1,1.651-.447" transform="translate(-82.679 -53.822)" fill="#263238"/>
        <path id="Trazado_630569" data-name="Trazado 630569" d="M452.747,97.162a2.032,2.032,0,0,1-.166-.309c-.109-.227-.258-.534-.447-.927s-.42-.919-.725-1.5-.682-1.251-1.092-2-.951-1.541-1.495-2.428c-.582-.865-1.239-1.788-1.963-2.764a53.214,53.214,0,0,0-5.548-6.111A48.634,48.634,0,0,0,422.894,70.4a44.407,44.407,0,0,0-12.472-2.023,48.414,48.414,0,0,0-25.97,6.916,44.445,44.445,0,0,0-9.816,7.959,48.658,48.658,0,0,0-10.645,18.463,53.248,53.248,0,0,0-1.774,8.061c-.142,1.206-.254,2.334-.328,3.373-.03,1.042-.095,1.994-.089,2.851s.034,1.613.047,2.278.091,1.214.119,1.665c.031.434.055.774.073,1.026a2.056,2.056,0,0,1,.01.351,2.108,2.108,0,0,1-.055-.346c-.029-.251-.067-.589-.116-1.023-.043-.45-.122-1.006-.161-1.665s-.055-1.429-.088-2.284.034-1.816.052-2.863c.062-1.044.162-2.179.294-3.394a52.377,52.377,0,0,1,1.721-8.12A48.6,48.6,0,0,1,374.34,82.977a44.649,44.649,0,0,1,9.891-8.052,48.62,48.62,0,0,1,26.2-6.978,44.686,44.686,0,0,1,12.582,2.066,48.623,48.623,0,0,1,18.507,10.882,52.222,52.222,0,0,1,5.532,6.189c.719.988,1.37,1.923,1.943,2.8.536.9,1.058,1.7,1.469,2.458l1.06,2.025c.294.593.5,1.114.689,1.526l.407.945a2.122,2.122,0,0,1,.125.327" transform="translate(-58.086 -10.913)" fill="#263238"/>
        <path id="Trazado_630570" data-name="Trazado 630570" d="M448.3,96.39a3.5,3.5,0,0,1-.394-.5c-.255-.331-.582-.854-1.077-1.472a42.334,42.334,0,0,0-12.34-10.979,40.066,40.066,0,0,0-23.279-5.5,42.36,42.36,0,0,0-15.948,4.3c-.719.332-1.245.653-1.621.835a3.437,3.437,0,0,1-.578.274A3.59,3.59,0,0,1,393.6,83c.363-.207.877-.553,1.588-.911a38.1,38.1,0,0,1,6.2-2.629A40.587,40.587,0,0,1,442.6,89.19a37.978,37.978,0,0,1,4.367,5.124c.477.637.781,1.177,1.013,1.524a3.5,3.5,0,0,1,.321.552" transform="translate(-63.136 -12.437)" fill="#263238"/>
        <path id="Trazado_630571" data-name="Trazado 630571" d="M499.373,209.678l-3.9,20.288c8.131,11.316,8.872,21.022,8.872,21.022l-43.7,3.755c.815-6.853,5.04-21.687,5.04-21.687L459.345,211.4l-12.713-16.553,12.616-11.371c-.242.64,11.828,7.626,11.828,7.626l17.336.147a14.587,14.587,0,0,1,2.491.5l8.47-21.955s6.551,9.635,4.355,21.458c-1.563,8.417-1.267,10.386-4.355,18.434" transform="translate(-71.741 -27.272)" fill="#2b95f9"/>
        <path id="Trazado_630572" data-name="Trazado 630572" d="M469.98,198.949a3.466,3.466,0,0,1,.64.763,12.3,12.3,0,0,1,1.309,2.382,11.606,11.606,0,0,1,.876,3.946,10.007,10.007,0,0,1-1.036,4.842,8.635,8.635,0,0,1-3.354,3.643,7.986,7.986,0,0,1-3.909,1.051,6.924,6.924,0,0,1-2.678-.516,4.549,4.549,0,0,1-.659-.339c-.144-.09-.216-.143-.208-.155a8.7,8.7,0,0,0,3.539.7,7.939,7.939,0,0,0,3.712-1.09,8.417,8.417,0,0,0,3.166-3.489,9.863,9.863,0,0,0,1.024-4.635,11.93,11.93,0,0,0-.76-3.845,23.988,23.988,0,0,0-1.662-3.258" transform="translate(-74.042 -31.956)" fill="#263238"/>
        <path id="Trazado_630573" data-name="Trazado 630573" d="M507.451,213.714c-.07-.034.306-.825.674-2.173a15.784,15.784,0,0,0-.85-10.637c-.577-1.273-1.074-1.994-1.011-2.039.025-.017.168.149.407.468a9.912,9.912,0,0,1,.882,1.436,14.309,14.309,0,0,1,.868,10.861,9.828,9.828,0,0,1-.643,1.558c-.186.353-.3.54-.327.526" transform="translate(-81.318 -31.943)" fill="#263238"/>
        <g id="Grupo_879642" data-name="Grupo 879642" transform="translate(404.123 199.481)" opacity="0.3">
          <g id="Grupo_879641" data-name="Grupo 879641">
            <g id="Grupo_879640" data-name="Grupo 879640" clip-path="url(#clip-path-16)">
              <path id="Trazado_630574" data-name="Trazado 630574" d="M497.613,239.653a1.753,1.753,0,0,0-1.744-.235,13.543,13.543,0,0,1-2.937.6c-1.87.039-3.556-1.016-5.282-1.737s-3.927-1.04-5.294.235a3.008,3.008,0,0,0-.439,3.739,2.932,2.932,0,0,0,1.821,1.2c4.367,1.231,8.122.325,12.4-1.387a3.285,3.285,0,0,0,1.4-.882,1.231,1.231,0,0,0,.079-1.537" transform="translate(-481.457 -237.654)"/>
            </g>
          </g>
        </g>
        <g id="Grupo_879645" data-name="Grupo 879645" transform="translate(385.472 153.063)" opacity="0.3">
          <g id="Grupo_879644" data-name="Grupo 879644">
            <g id="Grupo_879643" data-name="Grupo 879643" clip-path="url(#clip-path-17)">
              <path id="Trazado_630575" data-name="Trazado 630575" d="M461.973,185.325a11.825,11.825,0,0,0-2.693,8.166,7.444,7.444,0,0,0,5.1,6.513c1.946.516,4.071.055,5.978.7,3.519,1.188,5.384,5.789,9.083,6.121,3.348.3,5.782-3.08,8.9-4.327a24.1,24.1,0,0,1,5.113-.985,13.768,13.768,0,0,0,9.116-5.235c2.072-2.942,2.408-7.214.25-10.093-2.306-3.075-6.585-3.826-10.428-3.828a43.791,43.791,0,0,0-16.965,3.424,10.859,10.859,0,0,0-3.231,1.889,4.387,4.387,0,0,0-1.529,3.307" transform="translate(-459.238 -182.354)"/>
            </g>
          </g>
        </g>
        <path id="Trazado_630576" data-name="Trazado 630576" d="M512.079,177.743a4.364,4.364,0,0,0-2.717-3.472c-1.686-.642-3.66-.181-5.309-.915-2.055-.913-2.923-3.326-3.441-5.515s-1.016-4.6-2.785-5.993c-1.221-.959-2.844-1.243-4.165-2.059-1.956-1.208-3.018-3.4-4.354-5.272a10.162,10.162,0,0,0-1.788-1.941c-.028-.034-.05-.073-.078-.107-2.842-3.426-10.422-3.875-13.7-.862l.125-.11c-6.11.458-9.985,10.328-10.05,16.582-.039,3.891,1.217,7.965-.257,11.567-.857,2.1-2.569,3.788-3.224,5.955a6.619,6.619,0,0,0,11.632,5.884,3.819,3.819,0,0,0,2.707,3.523,11.188,11.188,0,0,0,4.718.288c3.391-.278,7.3-.863,9.041-3.787a6.1,6.1,0,0,0,5.558,2.311,16.994,16.994,0,0,0,5.975-1.22,2.406,2.406,0,0,1-.22-.346,5.483,5.483,0,0,0,.9-.434,4.105,4.105,0,0,0,1.858-4.854l1.826,2.119a7.289,7.289,0,0,0,3.057-9.236,8.78,8.78,0,0,1,2.882,1.919,4.361,4.361,0,0,0,1.8-4.023" transform="translate(-73.901 -24.029)" fill="#263238"/>
        <path id="Trazado_630577" data-name="Trazado 630577" d="M514.058,180.464a2.966,2.966,0,0,0-.4-1.978,4.019,4.019,0,0,0-1.767-1.566,9.812,9.812,0,0,0-3.116-.724,12.593,12.593,0,0,1-3.9-.823,4.683,4.683,0,0,1-1.777-1.405,6.873,6.873,0,0,1-1.079-2.129c-.526-1.544-.639-3.247-1.155-4.869a7.254,7.254,0,0,0-1.136-2.291,3.749,3.749,0,0,0-2.114-1.391c-.859-.213-1.779-.2-2.69-.375a4.4,4.4,0,0,1-2.4-1.306,12.2,12.2,0,0,1-2.34-4.48,9.9,9.9,0,0,0-2.263-3.791,8.976,8.976,0,0,0-8.752-2.409,16.931,16.931,0,0,0-1.962.7,2.279,2.279,0,0,1,.464-.285,8.207,8.207,0,0,1,1.452-.583,9.1,9.1,0,0,1,5.7.167,9.314,9.314,0,0,1,3.36,2.151,10.214,10.214,0,0,1,2.382,3.9,11.961,11.961,0,0,0,2.269,4.323,3.972,3.972,0,0,0,2.179,1.179c.851.17,1.774.149,2.711.377a4.183,4.183,0,0,1,2.351,1.548,7.634,7.634,0,0,1,1.2,2.43c.528,1.7.63,3.384,1.129,4.874a5.1,5.1,0,0,0,2.627,3.33,12.529,12.529,0,0,0,3.782.844A9.815,9.815,0,0,1,512,176.7a4.141,4.141,0,0,1,1.81,1.7,2.878,2.878,0,0,1,.367,1.527,1.582,1.582,0,0,1-.12.535" transform="translate(-76.653 -24.156)" fill="#455a64"/>
        <path id="Trazado_630578" data-name="Trazado 630578" d="M503.415,192.858c-.01-.025.177-.071.464-.273a2.354,2.354,0,0,0,.849-1.227,3.242,3.242,0,0,0-.147-2.329,5.633,5.633,0,0,0-2.218-2.235c-1.011-.64-2.255-1.121-3.483-1.9a6.56,6.56,0,0,1-1.7-1.493,6.234,6.234,0,0,1-1.043-2.163,34.4,34.4,0,0,1-.644-5.007c-.214-1.674-.735-3.521-2.225-4.547-1.447-1.024-3.393-1.332-4.691-2.686a8.654,8.654,0,0,1-2.04-4.648c-.267-1.594-.374-3.112-.734-4.471a10.243,10.243,0,0,0-1.683-3.49,11.065,11.065,0,0,0-4.4-3.48c-1.243-.518-2-.62-1.985-.668a2.513,2.513,0,0,1,.542.072,9.55,9.55,0,0,1,1.507.438,10.894,10.894,0,0,1,4.583,3.452,10.465,10.465,0,0,1,1.787,3.582c.385,1.4.505,2.934.78,4.5a8.311,8.311,0,0,0,1.948,4.418c1.168,1.237,3.056,1.536,4.64,2.631a5.048,5.048,0,0,1,1.739,2.219,9.964,9.964,0,0,1,.656,2.628,35.06,35.06,0,0,0,.608,4.955,5.878,5.878,0,0,0,.959,2.037,6.245,6.245,0,0,0,1.59,1.422c1.175.763,2.421,1.266,3.451,1.941a5.831,5.831,0,0,1,2.275,2.393,3.387,3.387,0,0,1,.086,2.488,2.357,2.357,0,0,1-.961,1.246,1.322,1.322,0,0,1-.513.2" transform="translate(-76.737 -24.453)" fill="#455a64"/>
        <path id="Trazado_630579" data-name="Trazado 630579" d="M483.018,194.772a2.839,2.839,0,0,0,.553-1.64,4.8,4.8,0,0,0-.431-2c-.317-.743-.833-1.524-1.276-2.478a4.959,4.959,0,0,1-.354-3.4,18.159,18.159,0,0,1,1.545-3.593,8.43,8.43,0,0,0,1.1-4,6.979,6.979,0,0,0-1.463-4.141c-.922-1.244-2.069-2.294-2.97-3.514a8,8,0,0,1-1.086-1.961,7.664,7.664,0,0,1-.428-2.105,16.852,16.852,0,0,1,.3-3.9c.2-1.2.406-2.308.479-3.329a7.764,7.764,0,0,0-.893-4.659,6.749,6.749,0,0,0-1.137-1.357,1.436,1.436,0,0,1,.389.261,4.327,4.327,0,0,1,.891,1.006,7.709,7.709,0,0,1,1.058,4.768c-.054,1.044-.243,2.17-.43,3.367a16.818,16.818,0,0,0-.259,3.817,7.3,7.3,0,0,0,.418,1.991,7.633,7.633,0,0,0,1.038,1.849c.871,1.174,2.018,2.218,2.977,3.51a7.373,7.373,0,0,1,1.539,4.393,8.763,8.763,0,0,1-1.163,4.18,18.337,18.337,0,0,0-1.553,3.5,4.652,4.652,0,0,0,.285,3.189c.409.93.911,1.731,1.219,2.509a4.845,4.845,0,0,1,.376,2.1,2.593,2.593,0,0,1-.406,1.286,1.265,1.265,0,0,1-.317.347" transform="translate(-76.611 -24.527)" fill="#455a64"/>
        <path id="Trazado_630580" data-name="Trazado 630580" d="M466.593,194.067a1.052,1.052,0,0,1-.245-.406,2.076,2.076,0,0,1,.018-1.359,3.666,3.666,0,0,1,1.277-1.73,17.265,17.265,0,0,0,2.148-1.772,5.8,5.8,0,0,0,1.381-2.961,6.892,6.892,0,0,0-.6-3.719,8.629,8.629,0,0,1-.883-4.283,15.1,15.1,0,0,1,1.591-4.411,9.191,9.191,0,0,0,1.127-4.35,18.846,18.846,0,0,0-.907-4.168,12.734,12.734,0,0,1-.2-7.318,8.239,8.239,0,0,1,2.736-4.107,6.386,6.386,0,0,1,1.145-.722,1.669,1.669,0,0,1,.441-.169,12.677,12.677,0,0,0-1.477,1.022,8.325,8.325,0,0,0-2.548,4.063,12.609,12.609,0,0,0,.294,7.12,18.841,18.841,0,0,1,.948,4.259,9.544,9.544,0,0,1-1.158,4.552,14.939,14.939,0,0,0-1.563,4.278,8.3,8.3,0,0,0,.835,4.091,10.933,10.933,0,0,1,.573,1.965,5.842,5.842,0,0,1,0,1.952,6.076,6.076,0,0,1-1.51,3.112,16.439,16.439,0,0,1-2.224,1.755,3.552,3.552,0,0,0-1.269,1.595,2.08,2.08,0,0,0-.1,1.277c.081.288.181.421.161.433" transform="translate(-74.891 -24.51)" fill="#455a64"/>
      </g>
    </g>
    <g id="Grupo_879661" data-name="Grupo 879661">
      <g id="Grupo_879660" data-name="Grupo 879660" clip-path="url(#clip-path)">
        <path id="Trazado_630581" data-name="Trazado 630581" d="M50.792,367.259a2.265,2.265,0,0,1,.154-.371c.123-.262.288-.613.5-1.061a26.571,26.571,0,0,0,1.462-4.246,37.481,37.481,0,0,0-.124-16.4,88.181,88.181,0,0,0-3.042-11.016c-1.288-3.91-2.783-8.058-4-12.542a48.536,48.536,0,0,1-1.978-14.42c.185-5.1,1.7-10.193,3.357-15.261S50.485,281.9,51,276.913a22.9,22.9,0,0,0-2.756-13.88c-2.2-4.05-4.963-7.513-7.033-11.1a38.576,38.576,0,0,1-4.228-10.673,39.756,39.756,0,0,1-.268-16.534,30.8,30.8,0,0,1,1.726-5.84,2.346,2.346,0,0,1-.1.389c-.086.276-.2.646-.349,1.119a42.547,42.547,0,0,0-1.073,4.371,40.273,40.273,0,0,0,.429,16.411,38.459,38.459,0,0,0,4.242,10.537c2.064,3.546,4.842,6.995,7.083,11.092a23.366,23.366,0,0,1,2.842,14.161c-.517,5.076-2.244,10.071-3.9,15.14s-3.153,10.1-3.342,15.117A48.3,48.3,0,0,0,46.2,321.5c1.2,4.462,2.679,8.611,3.951,12.532a86.878,86.878,0,0,1,2.992,11.082,37.057,37.057,0,0,1-.042,16.522,24.592,24.592,0,0,1-1.565,4.241l-.546,1.041a2.242,2.242,0,0,1-.2.346" transform="translate(-5.778 -35.159)" fill="#263238"/>
        <path id="Trazado_630582" data-name="Trazado 630582" d="M45.337,258.365s-4.2-13.439,3.337-21.308a.466.466,0,0,1,.8.231c.4,2.219.906,8.98-4.136,21.078" transform="translate(-11.327 -38.054)" fill="#3d672f"/>
        <path id="Trazado_630583" data-name="Trazado 630583" d="M48.05,242.42a12.4,12.4,0,0,1-.284,2.48c-.275,1.708-.6,3.713-.958,5.928s-.67,4.22-.942,5.928a13.568,13.568,0,0,1-.445,2.453,10.283,10.283,0,0,1,.076-2.5c.139-1.535.409-3.648.79-5.967s.785-4.407,1.113-5.911a11.131,11.131,0,0,1,.65-2.412" transform="translate(-7.289 -38.939)" fill="#263238"/>
        <path id="Trazado_630584" data-name="Trazado 630584" d="M51.442,296.924s2.57-13.845,12.915-17.274a.465.465,0,0,1,.6.577c-.682,2.15-3.4,8.36-13.512,16.7" transform="translate(-12.495 -44.915)" fill="#3d672f"/>
        <path id="Trazado_630585" data-name="Trazado 630585" d="M61.523,283.914a12.377,12.377,0,0,1-1.409,2.059l-3.62,4.791-3.6,4.8a13.584,13.584,0,0,1-1.54,1.96,10.366,10.366,0,0,1,1.235-2.172c.841-1.293,2.068-3.034,3.489-4.905s2.754-3.529,3.748-4.7a11.193,11.193,0,0,1,1.7-1.828" transform="translate(-8.247 -45.604)" fill="#263238"/>
        <path id="Trazado_630586" data-name="Trazado 630586" d="M48.092,337.716s-1.561-13.995,7.34-20.281a.466.466,0,0,1,.74.379c-.029,2.255-.824,8.987-8.081,19.9" transform="translate(-11.94 -50.974)" fill="#3d672f"/>
        <path id="Trazado_630587" data-name="Trazado 630587" d="M53.773,322.5a12.342,12.342,0,0,1-.751,2.38l-2.072,5.636c-.768,2.108-1.463,4.014-2.055,5.639a13.425,13.425,0,0,1-.9,2.323,10.425,10.425,0,0,1,.551-2.438c.43-1.481,1.1-3.5,1.915-5.707s1.61-4.176,2.22-5.589a11.237,11.237,0,0,1,1.1-2.244" transform="translate(-7.706 -51.802)" fill="#263238"/>
        <path id="Trazado_630588" data-name="Trazado 630588" d="M57.388,379.392s-1.059-14.042,8.061-20a.467.467,0,0,1,.727.405c-.109,2.253-1.146,8.952-8.788,19.6" transform="translate(-13.444 -57.714)" fill="#3d672f"/>
        <path id="Trazado_630589" data-name="Trazado 630589" d="M63.628,364.379a12.382,12.382,0,0,1-.835,2.351c-.655,1.6-1.424,3.482-2.273,5.558l-2.255,5.562a13.51,13.51,0,0,1-.987,2.29,10.382,10.382,0,0,1,.638-2.417c.482-1.465,1.222-3.462,2.118-5.635s1.758-4.116,2.418-5.507a11.154,11.154,0,0,1,1.177-2.2" transform="translate(-13.431 -58.529)" fill="#3d672f"/>
        <path id="Trazado_630590" data-name="Trazado 630590" d="M35.93,244.979S23.448,238.46,23.2,227.565a.466.466,0,0,1,.728-.4c1.855,1.283,7,5.7,12,17.816" transform="translate(-7.959 -36.475)" fill="#3d672f"/>
        <path id="Trazado_630591" data-name="Trazado 630591" d="M26.29,232.117a12.405,12.405,0,0,1,1.555,1.952l3.519,4.866,3.531,4.853a13.482,13.482,0,0,1,1.422,2.048,10.412,10.412,0,0,1-1.715-1.818c-.989-1.184-2.293-2.867-3.666-4.775s-2.566-3.667-3.4-4.962a11.234,11.234,0,0,1-1.248-2.163" transform="translate(-4.222 -37.284)" fill="#263238"/>
        <path id="Trazado_630592" data-name="Trazado 630592" d="M51.7,279.513s-12.855-5.748-13.761-16.608a.466.466,0,0,1,.7-.447c1.93,1.168,7.329,5.266,13.059,17.054" transform="translate(-10.326 -42.147)" fill="#3d672f"/>
        <path id="Trazado_630593" data-name="Trazado 630593" d="M41.291,267.266a12.394,12.394,0,0,1,1.671,1.853l3.807,4.643,3.819,4.63a13.45,13.45,0,0,1,1.544,1.957,10.428,10.428,0,0,1-1.822-1.711c-1.058-1.121-2.463-2.722-3.948-4.544s-2.783-3.5-3.693-4.747a11.21,11.21,0,0,1-1.377-2.083" transform="translate(-6.632 -42.929)" fill="#263238"/>
        <path id="Trazado_630594" data-name="Trazado 630594" d="M44.413,317.061s-8.826-10.972-4.686-21.053a.466.466,0,0,1,.828-.077c1.186,1.919,4.126,8.027,3.859,21.13" transform="translate(-10.436 -47.499)" fill="#3d672f"/>
        <path id="Trazado_630595" data-name="Trazado 630595" d="M40.977,301.386a12.292,12.292,0,0,1,.643,2.411c.368,1.691.8,3.675,1.275,5.867s.92,4.173,1.292,5.861a13.509,13.509,0,0,1,.483,2.446,10.465,10.465,0,0,1-.843-2.353c-.432-1.48-.953-3.546-1.446-5.843s-.882-4.388-1.126-5.908a11.2,11.2,0,0,1-.278-2.482" transform="translate(-6.578 -48.41)" fill="#263238"/>
        <path id="Trazado_630596" data-name="Trazado 630596" d="M53.357,362.963S40.6,357,39.878,346.126a.466.466,0,0,1,.709-.434c1.91,1.2,7.24,5.389,12.77,17.271" transform="translate(-10.638 -55.516)" fill="#3d672f"/>
        <path id="Trazado_630597" data-name="Trazado 630597" d="M43.157,350.541a12.335,12.335,0,0,1,1.639,1.882l3.729,4.706,3.741,4.693a13.509,13.509,0,0,1,1.511,1.983,10.44,10.44,0,0,1-1.794-1.741c-1.04-1.138-2.417-2.763-3.871-4.609s-2.725-3.551-3.614-4.809a11.23,11.23,0,0,1-1.342-2.106" transform="translate(-6.931 -56.306)" fill="#263238"/>
        <path id="Trazado_630598" data-name="Trazado 630598" d="M81.546,300.324a1.076,1.076,0,0,1,.016.311c-.006.245-.013.541-.023.9-.037.846-.087,1.988-.15,3.415-.165,3-.395,7.187-.668,12.193v.012l0,.018c-.91,5.1-3.505,10.743-6.991,16.226-2.557,4.039-5.237,7.711-7.548,11.127a78.918,78.918,0,0,0-5.66,9.356,39.72,39.72,0,0,0-2.647,6.865c-.224.841-.393,1.5-.49,1.947a3.576,3.576,0,0,1-.186.677,3.549,3.549,0,0,1,.082-.7c.064-.457.2-1.122.4-1.977a36.226,36.226,0,0,1,2.511-6.976,74.634,74.634,0,0,1,5.592-9.465c2.3-3.44,4.962-7.118,7.506-11.136,3.467-5.457,6.049-11.018,6.994-16.032l0,.029c.351-5,.645-9.183.856-12.182.115-1.423.206-2.563.275-3.406.036-.358.065-.652.09-.9a1.058,1.058,0,0,1,.055-.306" transform="translate(-9.186 -48.24)" fill="#263238"/>
        <path id="Trazado_630599" data-name="Trazado 630599" d="M76.617,334.325s5.4-13-1.393-21.523a.466.466,0,0,0-.817.158c-.6,2.174-1.715,8.86,2.21,21.365" transform="translate(-11.852 -50.215)" fill="#617a0b"/>
        <path id="Trazado_630600" data-name="Trazado 630600" d="M75.979,318.238a11.218,11.218,0,0,1,.428,2.46c.191,1.528.405,3.644.573,5.987s.248,4.473.247,6.015a10.437,10.437,0,0,1-.151,2.495,13.552,13.552,0,0,1-.222-2.484c-.115-1.725-.25-3.75-.4-5.988s-.3-4.265-.418-5.991a12.352,12.352,0,0,1-.057-2.495" transform="translate(-12.198 -51.117)" fill="#263238"/>
        <g id="Grupo_879650" data-name="Grupo 879650" transform="translate(62.013 262.407)" opacity="0.3">
          <g id="Grupo_879649" data-name="Grupo 879649">
            <g id="Grupo_879648" data-name="Grupo 879648" clip-path="url(#clip-path-19)">
              <path id="Trazado_630601" data-name="Trazado 630601" d="M76.617,334.325s5.4-13-1.393-21.523a.466.466,0,0,0-.817.158c-.6,2.174-1.715,8.86,2.21,21.365" transform="translate(-73.788 -312.622)" fill="#3d672f"/>
            </g>
          </g>
        </g>
        <path id="Trazado_630602" data-name="Trazado 630602" d="M56.419,371.7s4.33-13.4-3.134-21.339a.466.466,0,0,0-.8.223c-.424,2.216-.99,8.97,3.935,21.116" transform="translate(-8.387 -56.252)" fill="#617a0b"/>
        <path id="Trazado_630603" data-name="Trazado 630603" d="M54.41,355.733a11.219,11.219,0,0,1,.626,2.417c.315,1.508.7,3.6,1.057,5.921s.609,4.438.734,5.975a10.385,10.385,0,0,1,.052,2.5,13.453,13.453,0,0,1-.422-2.457c-.254-1.711-.554-3.718-.885-5.937s-.642-4.225-.9-5.936a12.43,12.43,0,0,1-.259-2.482" transform="translate(-8.736 -57.14)" fill="#263238"/>
        <g id="Grupo_879653" data-name="Grupo 879653" transform="translate(43.906 293.956)" opacity="0.3">
          <g id="Grupo_879652" data-name="Grupo 879652">
            <g id="Grupo_879651" data-name="Grupo 879651" clip-path="url(#clip-path-20)">
              <path id="Trazado_630604" data-name="Trazado 630604" d="M56.419,371.7s4.33-13.4-3.134-21.339a.466.466,0,0,0-.8.223c-.424,2.216-.99,8.97,3.935,21.116" transform="translate(-52.216 -350.208)" fill="#3d672f"/>
            </g>
          </g>
        </g>
        <path id="Trazado_630605" data-name="Trazado 630605" d="M85.355,315.845s11.536-8.076,10.371-18.911a.465.465,0,0,0-.773-.3c-1.675,1.512-6.2,6.557-9.6,19.216" transform="translate(-13.71 -47.627)" fill="#617a0b"/>
        <g id="Grupo_879656" data-name="Grupo 879656" transform="translate(71.722 248.882)" opacity="0.3">
          <g id="Grupo_879655" data-name="Grupo 879655">
            <g id="Grupo_879654" data-name="Grupo 879654" clip-path="url(#clip-path-21)">
              <path id="Trazado_630606" data-name="Trazado 630606" d="M85.355,315.845s11.536-8.076,10.371-18.911a.465.465,0,0,0-.773-.3c-1.675,1.512-6.2,6.557-9.6,19.216" transform="translate(-85.355 -296.509)" fill="#3d672f"/>
            </g>
          </g>
        </g>
        <path id="Trazado_630607" data-name="Trazado 630607" d="M93.66,301.835a11.168,11.168,0,0,1-.959,2.306c-.658,1.392-1.613,3.293-2.729,5.36s-2.191,3.907-3.018,5.208a10.373,10.373,0,0,1-1.466,2.024,13.484,13.484,0,0,1,1.146-2.214c.828-1.518,1.8-3.3,2.875-5.268l2.861-5.28a12.377,12.377,0,0,1,1.29-2.136" transform="translate(-13.731 -48.482)" fill="#263238"/>
        <path id="Trazado_630608" data-name="Trazado 630608" d="M62.765,357.489s13.913-2.169,17.64-12.409a.466.466,0,0,0-.56-.615c-2.169.619-8.456,3.156-17.08,13.025" transform="translate(-10.082 -55.327)" fill="#617a0b"/>
        <g id="Grupo_879659" data-name="Grupo 879659" transform="translate(52.76 289.12)" opacity="0.3">
          <g id="Grupo_879658" data-name="Grupo 879658">
            <g id="Grupo_879657" data-name="Grupo 879657" clip-path="url(#clip-path-22)">
              <path id="Trazado_630609" data-name="Trazado 630609" d="M62.765,357.489s13.913-2.169,17.64-12.409a.466.466,0,0,0-.56-.615c-2.169.619-8.456,3.156-17.08,13.025" transform="translate(-62.765 -344.446)" fill="#3d672f"/>
            </g>
          </g>
        </g>
        <path id="Trazado_630610" data-name="Trazado 630610" d="M76.766,348.432a11.144,11.144,0,0,1-1.876,1.648c-1.2.96-2.9,2.246-4.811,3.611s-3.687,2.542-5,3.346a10.38,10.38,0,0,1-2.208,1.172,13.542,13.542,0,0,1,2-1.483l4.9-3.463,4.894-3.48a12.373,12.373,0,0,1,2.1-1.35" transform="translate(-10.098 -55.967)" fill="#263238"/>
        <path id="Trazado_630611" data-name="Trazado 630611" d="M46.176,390.49l-4.058,27.316H67.409L64.131,390.49Z" transform="translate(-6.765 -62.723)" fill="#455a64"/>
        <path id="Trazado_630612" data-name="Trazado 630612" d="M65.643,400.524a99.043,99.043,0,0,1-10.2.264,99.05,99.05,0,0,1-10.2-.264,99.008,99.008,0,0,1,10.2-.264,99,99,0,0,1,10.2.264" transform="translate(-7.268 -64.292)" fill="#263238"/>
        <path id="Trazado_630613" data-name="Trazado 630613" d="M66.114,403.114c0,.145-4.716.264-10.533.264s-10.533-.118-10.533-.264,4.716-.264,10.533-.264,10.533.118,10.533.264" transform="translate(-7.236 -64.708)" fill="#263238"/>
        <path id="Trazado_630614" data-name="Trazado 630614" d="M605.591,379.474a6.92,6.92,0,0,0-4.22,3.4,12.223,12.223,0,0,0-1.4,5.343c-.2,3.587,1.188,7.483,2.859,10.664,3.407-2.079,4.862-6.474,5.459-8.75.945-3.6.468-10.673-2.7-10.655" transform="translate(-96.368 -60.953)" fill="#617a0b"/>
        <path id="Trazado_630615" data-name="Trazado 630615" d="M596.249,407.158a5.9,5.9,0,0,0-.932-5.854,7.844,7.844,0,0,0-5.395-2.757,3.3,3.3,0,0,0-2.694.695,2.524,2.524,0,0,0-.471,2.516,5.115,5.115,0,0,0,1.552,2.158c2.292,2.051,4.887,3.616,7.94,3.242" transform="translate(-94.226 -64.013)" fill="#617a0b"/>
        <path id="Trazado_630616" data-name="Trazado 630616" d="M599.08,419.328a4.151,4.151,0,0,0,.018-.74c-.006-.525-.013-1.2-.024-2.016a20.687,20.687,0,0,0-.948-6.589,12.677,12.677,0,0,0-3.665-5.529,8.6,8.6,0,0,0-1.689-1.121,5.317,5.317,0,0,0-.5-.224c-.117-.046-.18-.066-.183-.058a13.459,13.459,0,0,1,2.255,1.543,13.1,13.1,0,0,1,3.54,5.476,22.3,22.3,0,0,1,1.009,6.509c.039.849.071,1.538.107,2.014a3.835,3.835,0,0,0,.083.736" transform="translate(-95.104 -64.74)" fill="#263238"/>
        <path id="Trazado_630617" data-name="Trazado 630617" d="M605.538,385.932a1.544,1.544,0,0,0-.09.31c-.055.232-.123.53-.21.9-.177.781-.419,1.914-.705,3.316-.575,2.8-1.314,6.69-2.034,11s-1.28,8.226-1.648,11.065c-.184,1.419-.323,2.569-.409,3.365-.039.376-.07.681-.094.917a1.435,1.435,0,0,0-.014.322,1.568,1.568,0,0,0,.066-.315c.037-.235.084-.537.143-.911.12-.824.287-1.962.49-3.353.414-2.831,1-6.739,1.722-11.047s1.429-8.194,1.957-11.006c.259-1.382.471-2.512.625-3.331.065-.373.119-.673.161-.908a1.487,1.487,0,0,0,.039-.32" transform="translate(-96.429 -61.991)" fill="#263238"/>
        <path id="Trazado_630618" data-name="Trazado 630618" d="M603.764,410.7a13.809,13.809,0,0,1,9.141-8.7c1.071-.3,2.417-.393,3.106.483s.279,2.171-.3,3.127A11.8,11.8,0,0,1,603.785,411" transform="translate(-96.98 -64.538)" fill="#617a0b"/>
        <path id="Trazado_630619" data-name="Trazado 630619" d="M611.343,405.925a3.6,3.6,0,0,0-.676.166,6.6,6.6,0,0,0-.776.258c-.295.12-.645.227-1,.412a12.092,12.092,0,0,0-1.168.6,13.471,13.471,0,0,0-1.272.813,15.348,15.348,0,0,0-2.554,2.33,15.064,15.064,0,0,0-1.913,2.882,13.2,13.2,0,0,0-.6,1.388,11.2,11.2,0,0,0-.4,1.253,10.1,10.1,0,0,0-.232,1.058,6.189,6.189,0,0,0-.114.809,3.577,3.577,0,0,0-.041.7c.059.008.125-.986.564-2.513a12.032,12.032,0,0,1,.422-1.226,13.945,13.945,0,0,1,.609-1.356,15.656,15.656,0,0,1,1.9-2.82,15.966,15.966,0,0,1,2.5-2.306,14.183,14.183,0,0,1,1.241-.82c.393-.253.786-.44,1.139-.622,1.43-.694,2.391-.948,2.374-1" transform="translate(-96.471 -65.202)" fill="#263238"/>
      </g>
    </g>
  </g>
</svg>
