<svg xmlns="http://www.w3.org/2000/svg" width="610" height="618" viewBox="0 0 610 618">
  <g id="Grupo_1034304" data-name="Grupo 1034304" transform="translate(-495 -1191.293)">
    <path id="Trazado_634257" data-name="Trazado 634257" d="M305,0C473.447,0,610,138.344,610,309S473.447,618,305,618,0,479.656,0,309,136.553,0,305,0Z" transform="translate(495 1191.293)" fill="#b6e1fd"/>
    <path id="Trazado_634258" data-name="Trazado 634258" d="M269,0C417.565,0,538,122.226,538,273S417.565,546,269,546,0,423.774,0,273,120.435,0,269,0Z" transform="translate(531 1263.293)" fill="#f9d9a2"/>
    <path id="Trazado_634259" data-name="Trazado 634259" d="M227.5,0C353.145,0,455,101.855,455,227.5S353.145,455,227.5,455,0,353.145,0,227.5,101.855,0,227.5,0Z" transform="translate(573 1354.293)" fill="#b1de19"/>
    <path id="Trazado_634260" data-name="Trazado 634260" d="M183,0A183,183,0,1,1,0,183,183,183,0,0,1,183,0Z" transform="translate(617 1443.293)" fill="#f3f9ff"/>
    <path id="Trazado_634261" data-name="Trazado 634261" d="M117,0A117,117,0,1,1,0,117,117,117,0,0,1,117,0Z" transform="translate(683 1548.293)" fill="#ffb338"/>
    <path id="Trazado_634262" data-name="Trazado 634262" d="M10.74-4.359a4.614,4.614,0,0,1-.883,2.391A5,5,0,0,1,7.835-.36,6.259,6.259,0,0,1,5.124.176,4.215,4.215,0,0,1,1.969-1.116,5.193,5.193,0,0,1,.712-4.5a11.02,11.02,0,0,1,.312-3.1A8.2,8.2,0,0,1,2.3-10.525a5.855,5.855,0,0,1,2.083-1.863A5.407,5.407,0,0,1,7-12.981a4.577,4.577,0,0,1,3.309,1.257,4.92,4.92,0,0,1,1.323,3.366l-3-.009a2.465,2.465,0,0,0-.422-1.67,1.852,1.852,0,0,0-1.389-.536q-2.373-.079-2.892,3.691A20.283,20.283,0,0,0,3.7-4.447Q3.656-2.285,5.3-2.224A2.348,2.348,0,0,0,7-2.747,2.615,2.615,0,0,0,7.8-4.324ZM14.484,0h-2.9l2.338-13.5h2.9Zm4.887,0h-2.9l1.652-9.51h2.9Zm-.993-11.909a1.341,1.341,0,0,1,.453-1.072,1.625,1.625,0,0,1,1.138-.431,1.678,1.678,0,0,1,1.129.387,1.318,1.318,0,0,1,.47,1.011,1.344,1.344,0,0,1-.448,1.077,1.63,1.63,0,0,1-1.143.426,1.7,1.7,0,0,1-1.121-.382A1.3,1.3,0,0,1,18.378-11.909Zm7.233,9.8a1.244,1.244,0,0,0,.976-.345,1.717,1.717,0,0,0,.448-.938L29.742-3.4a3.559,3.559,0,0,1-.62,1.872A3.745,3.745,0,0,1,27.593-.25a4.521,4.521,0,0,1-2.061.426,3.57,3.57,0,0,1-2.927-1.367,4.726,4.726,0,0,1-.835-3.441l.026-.211A6.371,6.371,0,0,1,22.605-7.4a4.626,4.626,0,0,1,1.709-1.718,4.433,4.433,0,0,1,2.369-.571,3.536,3.536,0,0,1,2.624,1.059,3.755,3.755,0,0,1,.927,2.764l-2.707-.009q.044-1.5-1.081-1.529-1.529-.053-1.758,2.567l-.079.893-.009.333Q24.6-2.136,25.611-2.109Zm9.167-1.4-1.055.914L33.275,0H30.384L32.73-13.509h2.892L34.286-6.3l.352-.422L37.266-9.51h3.665L36.888-5.467,39.34,0H36.167Zm10.582.782q.114-.58-.9-.87l-.624-.158A4.806,4.806,0,0,1,41.6-4.887a2.244,2.244,0,0,1-.668-1.731,2.758,2.758,0,0,1,1.217-2.228,4.633,4.633,0,0,1,2.861-.839,4.292,4.292,0,0,1,2.72.853,2.781,2.781,0,0,1,1.059,2.25l-2.883-.009q.035-1.125-.993-1.125a1.417,1.417,0,0,0-.817.259,1.007,1.007,0,0,0-.448.69q-.149.712,1.257.976a7.3,7.3,0,0,1,1.89.672,2.821,2.821,0,0,1,1.02.945,2.35,2.35,0,0,1,.325,1.354,2.541,2.541,0,0,1-.562,1.538A3.642,3.642,0,0,1,46.024-.2a5.557,5.557,0,0,1-2.2.378,4.469,4.469,0,0,1-1.912-.431A3.408,3.408,0,0,1,40.531-1.4a2.979,2.979,0,0,1-.514-1.666l2.689.018A1.111,1.111,0,0,0,43.972-1.8a1.661,1.661,0,0,0,.914-.242A1.045,1.045,0,0,0,45.36-2.725Zm9.1-9.149L54.044-9.51h1.521L55.2-7.453H53.684l-.738,4.368A1.164,1.164,0,0,0,53-2.408q.119.229.593.246a6.873,6.873,0,0,0,.756-.044L54.141-.062a4.673,4.673,0,0,1-1.556.22,2.563,2.563,0,0,1-2.013-.791,2.7,2.7,0,0,1-.545-2.1l.773-4.72H49.623l.352-2.057h1.178l.413-2.364ZM61.98-6.829a8.273,8.273,0,0,0-.9-.088,2.233,2.233,0,0,0-1.986.9L58.025,0H55.134l1.652-9.51,2.7-.009-.22,1.248a2.64,2.64,0,0,1,2.2-1.441,4.144,4.144,0,0,1,.9.123Zm4.57,7a4.421,4.421,0,0,1-2.272-.6,3.793,3.793,0,0,1-1.507-1.652,4.44,4.44,0,0,1-.4-2.333l.026-.246a5.829,5.829,0,0,1,1.63-3.713,4.51,4.51,0,0,1,3.415-1.314,3.678,3.678,0,0,1,2.092.621A3.468,3.468,0,0,1,70.8-7.4a5.1,5.1,0,0,1,.264,2.381L70.9-3.814h-5.66A1.854,1.854,0,0,0,65.663-2.6a1.549,1.549,0,0,0,1.178.492A2.993,2.993,0,0,0,69.1-3.076l1.213,1.6a3.578,3.578,0,0,1-1.5,1.2,5.263,5.263,0,0,1-2.1.451Zm.7-7.576a1.487,1.487,0,0,0-1.068.385A3.229,3.229,0,0,0,65.4-5.669h2.892l.053-.254a1.929,1.929,0,0,0,.018-.577A1.017,1.017,0,0,0,67.254-7.4ZM76.781,0a2.578,2.578,0,0,1-.123-.861A2.933,2.933,0,0,1,74.329.176,2.866,2.866,0,0,1,72.272-.65a2.483,2.483,0,0,1-.765-1.96A2.79,2.79,0,0,1,72.8-4.988a6.091,6.091,0,0,1,3.41-.831l.967.018.105-.536.035-.466a.755.755,0,0,0-.8-.826,1.111,1.111,0,0,0-1.169,1.046l-2.9.009a2.754,2.754,0,0,1,.624-1.666A3.7,3.7,0,0,1,74.65-9.33a5.512,5.512,0,0,1,2.123-.356,4.251,4.251,0,0,1,1.894.453,2.82,2.82,0,0,1,1.217,1.187,3.031,3.031,0,0,1,.308,1.753l-.712,4.474-.044.545A2.4,2.4,0,0,0,79.6-.167L79.594,0ZM75.129-1.916A1.865,1.865,0,0,0,76.685-2.7l.29-1.529-.747-.009a1.969,1.969,0,0,0-1.2.409,1.55,1.55,0,0,0-.589,1.068.778.778,0,0,0,.136.593A.7.7,0,0,0,75.129-1.916Zm10-7.6-.193,1.143a3.414,3.414,0,0,1,2.777-1.31,2.509,2.509,0,0,1,1.415.4,1.843,1.843,0,0,1,.738,1.028A3.619,3.619,0,0,1,92.76-9.686a2.241,2.241,0,0,1,1.956.989,4.117,4.117,0,0,1,.461,2.711L94.184,0h-2.9l1.011-5.987.035-.518q0-.869-.817-.9a1.872,1.872,0,0,0-1.424.781L88.937,0h-2.9l1-5.969.035-.527q0-.9-.817-.9a1.86,1.86,0,0,0-1.406.781L83.681,0H80.789l1.652-9.51Z" transform="translate(751 1234.293)" fill="#12263f"/>
    <path id="Trazado_634263" data-name="Trazado 634263" d="M-76.54-2.391h-4.228L-81.505,0h-3.3l4.693-12.8h2.9L-72.479,0h-3.313Zm-3.489-2.382h2.751l-1.38-4.438ZM-69.385-9.51l.1,1.116a3.225,3.225,0,0,1,2.716-1.292,2.713,2.713,0,0,1,2.219.888,4.226,4.226,0,0,1,.76,2.672V0h-2.971V-6a1.6,1.6,0,0,0-.29-1.059A1.342,1.342,0,0,0-67.909-7.4a1.413,1.413,0,0,0-1.292.686V0h-2.962V-9.51ZM-56.6,0a3.344,3.344,0,0,1-.281-.853A2.754,2.754,0,0,1-59.164.176a3.374,3.374,0,0,1-2.285-.813,2.588,2.588,0,0,1-.94-2.043,2.66,2.66,0,0,1,1.143-2.338,5.821,5.821,0,0,1,3.322-.791h.914v-.5q0-1.316-1.134-1.316A.927.927,0,0,0-59.2-6.587h-2.962a2.655,2.655,0,0,1,1.173-2.239,4.931,4.931,0,0,1,2.993-.86,4.323,4.323,0,0,1,2.874.888A3.086,3.086,0,0,1-54.04-6.363v4.21a4.311,4.311,0,0,0,.4,2V0Zm-1.854-1.934a1.652,1.652,0,0,0,.918-.237,1.487,1.487,0,0,0,.523-.536V-4.228h-.861q-1.547,0-1.547,1.389a.848.848,0,0,0,.272.655A.986.986,0,0,0-58.452-1.934Zm.738-11.566h3.129l-2.443,2.76-2.417,0ZM-49.276,0h-2.971V-13.5h2.971Zm4.948,0H-47.3V-9.51h2.971Zm-3.146-11.962A1.322,1.322,0,0,1-47.017-13a1.724,1.724,0,0,1,1.187-.4,1.724,1.724,0,0,1,1.187.4,1.322,1.322,0,0,1,.457,1.037,1.322,1.322,0,0,1-.457,1.037,1.724,1.724,0,0,1-1.187.4,1.724,1.724,0,0,1-1.187-.4A1.322,1.322,0,0,1-47.474-11.962Zm9.949,9.29a.684.684,0,0,0-.4-.606,6.016,6.016,0,0,0-1.5-.475A6.853,6.853,0,0,1-41.251-4.4a3.062,3.062,0,0,1-1.1-.971,2.319,2.319,0,0,1-.378-1.31,2.628,2.628,0,0,1,1.081-2.158,4.453,4.453,0,0,1,2.83-.848,4.934,4.934,0,0,1,3.023.853,2.666,2.666,0,0,1,1.143,2.241h-2.971q0-1.143-1.2-1.143a1.194,1.194,0,0,0-.782.259.8.8,0,0,0-.316.646.737.737,0,0,0,.387.642,3.654,3.654,0,0,0,1.235.4,10.671,10.671,0,0,1,1.49.378A2.706,2.706,0,0,1-34.668-2.76,2.491,2.491,0,0,1-35.824-.642a5.068,5.068,0,0,1-2.993.817A5.172,5.172,0,0,1-41-.264a3.645,3.645,0,0,1-1.494-1.2,2.707,2.707,0,0,1-.536-1.591h2.769a1.145,1.145,0,0,0,.439.962,1.808,1.808,0,0,0,1.081.3,1.422,1.422,0,0,0,.91-.246A.787.787,0,0,0-37.525-2.672ZM-30.16,0H-33.13V-9.51h2.971Zm-3.146-11.962A1.322,1.322,0,0,1-32.849-13a1.724,1.724,0,0,1,1.187-.4,1.724,1.724,0,0,1,1.187.4,1.322,1.322,0,0,1,.457,1.037,1.322,1.322,0,0,1-.457,1.037,1.724,1.724,0,0,1-1.187.4,1.724,1.724,0,0,1-1.187-.4A1.322,1.322,0,0,1-33.306-11.962Zm9.949,9.29a.684.684,0,0,0-.4-.606,6.016,6.016,0,0,0-1.5-.475A6.853,6.853,0,0,1-27.083-4.4a3.062,3.062,0,0,1-1.1-.971,2.319,2.319,0,0,1-.378-1.31,2.628,2.628,0,0,1,1.081-2.158,4.453,4.453,0,0,1,2.83-.848,4.934,4.934,0,0,1,3.023.853,2.666,2.666,0,0,1,1.143,2.241h-2.971q0-1.143-1.2-1.143a1.194,1.194,0,0,0-.782.259.8.8,0,0,0-.316.646.737.737,0,0,0,.387.642,3.654,3.654,0,0,0,1.235.4,10.671,10.671,0,0,1,1.49.378A2.706,2.706,0,0,1-20.5-2.76,2.491,2.491,0,0,1-21.656-.642a5.068,5.068,0,0,1-2.993.817,5.172,5.172,0,0,1-2.18-.439,3.645,3.645,0,0,1-1.494-1.2,2.707,2.707,0,0,1-.536-1.591h2.769a1.145,1.145,0,0,0,.439.962,1.808,1.808,0,0,0,1.081.3,1.422,1.422,0,0,0,.91-.246A.787.787,0,0,0-23.357-2.672Zm8.35-2.153a5.809,5.809,0,0,1,.976-3.56,3.211,3.211,0,0,1,2.725-1.3,2.731,2.731,0,0,1,2.145,1V-13.5h2.971V0H-8.855L-9-1.02a2.8,2.8,0,0,1-2.32,1.2,3.205,3.205,0,0,1-2.689-1.3A5.993,5.993,0,0,1-15.007-4.825Zm2.962.185q0,2.531,1.477,2.531a1.458,1.458,0,0,0,1.406-.826V-6.557A1.419,1.419,0,0,0-10.551-7.4q-1.371,0-1.485,2.215ZM.092.176A4.889,4.889,0,0,1-3.45-1.129,4.507,4.507,0,0,1-4.8-4.526v-.246a5.84,5.84,0,0,1,.541-2.575A3.955,3.955,0,0,1-2.685-9.075,4.763,4.763,0,0,1-.224-9.686,4.117,4.117,0,0,1,2.94-8.442,4.887,4.887,0,0,1,4.1-4.975v1.151H-1.789a2.135,2.135,0,0,0,.694,1.257,2.066,2.066,0,0,0,1.389.457,2.662,2.662,0,0,0,2.2-.984l1.354,1.6A3.784,3.784,0,0,1,2.276-.277,5.3,5.3,0,0,1,.092.176ZM-.242-7.4q-1.3,0-1.547,1.723H1.2v-.229a1.467,1.467,0,0,0-.36-1.1A1.434,1.434,0,0,0-.242-7.4ZM12.573-9.51l.1,1.116a3.27,3.27,0,0,1,2.716-1.292A2.407,2.407,0,0,1,17.82-8.253a3.165,3.165,0,0,1,2.795-1.433q2.892,0,2.971,3.5V0H20.615V-6a1.813,1.813,0,0,0-.246-1.063,1.048,1.048,0,0,0-.9-.334,1.4,1.4,0,0,0-1.31.782l.009.123V0H15.2V-5.985a1.906,1.906,0,0,0-.237-1.081,1.045,1.045,0,0,0-.905-.334,1.42,1.42,0,0,0-1.3.782V0H9.8V-9.51ZM30.942-1.028A3.054,3.054,0,0,1,28.4.176a3,3,0,0,1-2.369-.91,3.826,3.826,0,0,1-.8-2.615V-9.51h2.962v6.179a1.065,1.065,0,0,0,1.187,1.222,1.548,1.548,0,0,0,1.45-.729V-9.51h2.979V0H31.03ZM29.887-13.5h3.129l-2.443,2.76-2.417,0ZM38.553,0H35.583V-13.5h2.971Zm5.273-11.874V-9.51h1.564v2.057H43.827V-3.1a1.111,1.111,0,0,0,.193.747,1.037,1.037,0,0,0,.765.211,4.345,4.345,0,0,0,.738-.053V-.079a5.466,5.466,0,0,1-1.67.255,3.1,3.1,0,0,1-2.259-.721,2.954,2.954,0,0,1-.729-2.188v-4.72H39.652V-9.51h1.213v-2.364ZM49.68,0H46.709V-9.51H49.68ZM46.534-11.962A1.322,1.322,0,0,1,46.991-13a1.724,1.724,0,0,1,1.187-.4,1.724,1.724,0,0,1,1.187.4,1.322,1.322,0,0,1,.457,1.037,1.322,1.322,0,0,1-.457,1.037,1.724,1.724,0,0,1-1.187.4,1.724,1.724,0,0,1-1.187-.4A1.322,1.322,0,0,1,46.534-11.962Zm13.8,7.277a5.735,5.735,0,0,1-1,3.538A3.2,3.2,0,0,1,56.641.176a2.742,2.742,0,0,1-2.153-.958V3.656H51.526V-9.51h2.769l.088.879a2.742,2.742,0,0,1,2.241-1.055,3.224,3.224,0,0,1,2.733,1.3,5.805,5.805,0,0,1,.976,3.564Zm-2.962-.185q0-2.531-1.477-2.531a1.394,1.394,0,0,0-1.406.756V-2.9a1.439,1.439,0,0,0,1.424.791q1.415,0,1.459-2.443ZM64.762,0H61.792V-13.5h2.971Zm6.425.176a4.889,4.889,0,0,1-3.542-1.305,4.507,4.507,0,0,1-1.354-3.4v-.246a5.84,5.84,0,0,1,.541-2.575A3.955,3.955,0,0,1,68.41-9.075a4.763,4.763,0,0,1,2.461-.611,4.117,4.117,0,0,1,3.164,1.244,4.887,4.887,0,0,1,1.16,3.467v1.151H69.306A2.135,2.135,0,0,0,70-2.566a2.066,2.066,0,0,0,1.389.457,2.662,2.662,0,0,0,2.2-.984l1.354,1.6A3.784,3.784,0,0,1,73.371-.277,5.3,5.3,0,0,1,71.187.176ZM70.853-7.4q-1.3,0-1.547,1.723h2.988v-.229a1.467,1.467,0,0,0-.36-1.1A1.434,1.434,0,0,0,70.853-7.4ZM81.365-2.672a.684.684,0,0,0-.4-.606,6.016,6.016,0,0,0-1.5-.475A6.853,6.853,0,0,1,77.638-4.4a3.062,3.062,0,0,1-1.1-.971,2.319,2.319,0,0,1-.378-1.31,2.628,2.628,0,0,1,1.081-2.158,4.453,4.453,0,0,1,2.83-.848,4.934,4.934,0,0,1,3.023.853,2.666,2.666,0,0,1,1.143,2.241H81.268q0-1.143-1.2-1.143a1.194,1.194,0,0,0-.782.259.8.8,0,0,0-.316.646.737.737,0,0,0,.387.642,3.654,3.654,0,0,0,1.235.4,10.671,10.671,0,0,1,1.49.378A2.706,2.706,0,0,1,84.221-2.76,2.491,2.491,0,0,1,83.065-.642a5.068,5.068,0,0,1-2.993.817,5.172,5.172,0,0,1-2.18-.439,3.645,3.645,0,0,1-1.494-1.2,2.707,2.707,0,0,1-.536-1.591h2.769a1.145,1.145,0,0,0,.439.962,1.808,1.808,0,0,0,1.081.3,1.422,1.422,0,0,0,.91-.246A.787.787,0,0,0,81.365-2.672ZM-34.154,18.171l-.976-.07a1.752,1.752,0,0,0-1.793.879V25h-2.962V15.49h2.777l.1,1.222a2.294,2.294,0,0,1,2.083-1.4,2.888,2.888,0,0,1,.826.105Zm5.5,7a4.889,4.889,0,0,1-3.542-1.305,4.507,4.507,0,0,1-1.354-3.4v-.246a5.84,5.84,0,0,1,.541-2.575,3.955,3.955,0,0,1,1.578-1.727,4.763,4.763,0,0,1,2.461-.611A4.117,4.117,0,0,1-25.8,16.558a4.887,4.887,0,0,1,1.16,3.467v1.151h-5.889a2.135,2.135,0,0,0,.694,1.257,2.066,2.066,0,0,0,1.389.457,2.662,2.662,0,0,0,2.2-.984l1.354,1.6a3.784,3.784,0,0,1-1.569,1.217A5.3,5.3,0,0,1-28.652,25.176Zm-.334-7.576q-1.3,0-1.547,1.723h2.988v-.229a1.467,1.467,0,0,0-.36-1.1A1.434,1.434,0,0,0-28.986,17.6Zm10.512,4.729a.684.684,0,0,0-.4-.606,6.016,6.016,0,0,0-1.5-.475A6.853,6.853,0,0,1-22.2,20.6a3.062,3.062,0,0,1-1.1-.971,2.319,2.319,0,0,1-.378-1.31A2.628,2.628,0,0,1-22.6,16.163a4.453,4.453,0,0,1,2.83-.848,4.934,4.934,0,0,1,3.023.853A2.666,2.666,0,0,1-15.6,18.408h-2.971q0-1.143-1.2-1.143a1.194,1.194,0,0,0-.782.259.8.8,0,0,0-.316.646.737.737,0,0,0,.387.642,3.654,3.654,0,0,0,1.235.4,10.671,10.671,0,0,1,1.49.378,2.706,2.706,0,0,1,2.145,2.646,2.491,2.491,0,0,1-1.156,2.118,5.068,5.068,0,0,1-2.993.817,5.172,5.172,0,0,1-2.18-.439,3.645,3.645,0,0,1-1.494-1.2,2.707,2.707,0,0,1-.536-1.591h2.769a1.145,1.145,0,0,0,.439.962,1.808,1.808,0,0,0,1.081.3,1.422,1.422,0,0,0,.91-.246A.787.787,0,0,0-18.475,22.328Zm9.905,1.644a3.054,3.054,0,0,1-2.54,1.2,3,3,0,0,1-2.369-.91,3.826,3.826,0,0,1-.8-2.615V15.49h2.962v6.179a1.065,1.065,0,0,0,1.187,1.222,1.548,1.548,0,0,0,1.45-.729V15.49H-5.7V25H-8.481ZM-.958,25H-3.929V11.5H-.958ZM4.315,13.126V15.49H5.88v2.057H4.315V21.9a1.111,1.111,0,0,0,.193.747,1.037,1.037,0,0,0,.765.211,4.345,4.345,0,0,0,.738-.053v2.118a5.466,5.466,0,0,1-1.67.255,3.1,3.1,0,0,1-2.259-.721,2.954,2.954,0,0,1-.729-2.188v-4.72H.141V15.49H1.354V13.126ZM12.4,25a3.344,3.344,0,0,1-.281-.853,2.754,2.754,0,0,1-2.285,1.028,3.374,3.374,0,0,1-2.285-.813,2.588,2.588,0,0,1-.94-2.043,2.66,2.66,0,0,1,1.143-2.338,5.821,5.821,0,0,1,3.322-.791h.914v-.5q0-1.316-1.134-1.316A.927.927,0,0,0,9.8,18.413H6.838a2.655,2.655,0,0,1,1.173-2.239A4.931,4.931,0,0,1,11,15.314a4.323,4.323,0,0,1,2.874.888,3.086,3.086,0,0,1,1.081,2.435v4.21a4.311,4.311,0,0,0,.4,2V25Zm-1.854-1.934a1.652,1.652,0,0,0,.918-.237,1.487,1.487,0,0,0,.523-.536V20.772h-.861q-1.547,0-1.547,1.389a.848.848,0,0,0,.272.655A.986.986,0,0,0,10.547,23.066Zm5.678-2.892a5.809,5.809,0,0,1,.976-3.56,3.211,3.211,0,0,1,2.725-1.3,2.731,2.731,0,0,1,2.145,1V11.5H25.04V25H22.377l-.149-1.02a2.8,2.8,0,0,1-2.32,1.2,3.205,3.205,0,0,1-2.689-1.3A5.993,5.993,0,0,1,16.225,20.175Zm2.962.185q0,2.531,1.477,2.531a1.458,1.458,0,0,0,1.406-.826V18.443a1.419,1.419,0,0,0-1.389-.844q-1.371,0-1.485,2.215Zm7.163-.2a5.613,5.613,0,0,1,.554-2.536,3.96,3.96,0,0,1,1.591-1.709,4.791,4.791,0,0,1,2.435-.6,4.373,4.373,0,0,1,3.366,1.323,5.076,5.076,0,0,1,1.23,3.6v.105a4.925,4.925,0,0,1-1.235,3.529,4.384,4.384,0,0,1-3.344,1.305,4.434,4.434,0,0,1-3.261-1.217,4.761,4.761,0,0,1-1.327-3.3Zm2.962.185a3.538,3.538,0,0,0,.413,1.934,1.376,1.376,0,0,0,1.222.615q1.582,0,1.617-2.435v-.3q0-2.558-1.635-2.558-1.485,0-1.608,2.206Zm12.5,1.986a.684.684,0,0,0-.4-.606,6.016,6.016,0,0,0-1.5-.475,6.853,6.853,0,0,1-1.828-.646,3.062,3.062,0,0,1-1.1-.971,2.319,2.319,0,0,1-.378-1.31,2.628,2.628,0,0,1,1.081-2.158,4.453,4.453,0,0,1,2.83-.848,4.934,4.934,0,0,1,3.023.853,2.666,2.666,0,0,1,1.143,2.241H41.713q0-1.143-1.2-1.143a1.194,1.194,0,0,0-.782.259.8.8,0,0,0-.316.646.737.737,0,0,0,.387.642,3.654,3.654,0,0,0,1.235.4,10.671,10.671,0,0,1,1.49.378,2.706,2.706,0,0,1,2.145,2.646,2.491,2.491,0,0,1-1.156,2.118,5.068,5.068,0,0,1-2.993.817,5.172,5.172,0,0,1-2.18-.439,3.645,3.645,0,0,1-1.494-1.2,2.707,2.707,0,0,1-.536-1.591h2.769a1.145,1.145,0,0,0,.439.962,1.808,1.808,0,0,0,1.081.3,1.422,1.422,0,0,0,.91-.246A.787.787,0,0,0,41.81,22.328Z" transform="translate(800 1311.293)" fill="#12263f"/>
    <path id="Trazado_634264" data-name="Trazado 634264" d="M-59.489-5.432H-64.34v3.059h5.73V0h-8.815V-12.8h8.833v2.382H-64.34v2.7h4.852Zm5.854-1.459,1.38-2.619h3.076l-2.5,4.632L-49.056,0H-52.15l-1.494-2.812L-55.112,0h-3.111l2.637-4.878-2.5-4.632h3.111ZM-39.4-4.685a5.735,5.735,0,0,1-1,3.538A3.2,3.2,0,0,1-43.088.176a2.742,2.742,0,0,1-2.153-.958V3.656H-48.2V-9.51h2.769l.088.879a2.742,2.742,0,0,1,2.241-1.055,3.224,3.224,0,0,1,2.733,1.3A5.805,5.805,0,0,1-39.4-4.825Zm-2.962-.185q0-2.531-1.477-2.531a1.394,1.394,0,0,0-1.406.756V-2.9a1.439,1.439,0,0,0,1.424.791q1.415,0,1.459-2.443ZM-33.491.176a4.889,4.889,0,0,1-3.542-1.305,4.507,4.507,0,0,1-1.354-3.4v-.246a5.84,5.84,0,0,1,.541-2.575,3.955,3.955,0,0,1,1.578-1.727,4.763,4.763,0,0,1,2.461-.611,4.117,4.117,0,0,1,3.164,1.244,4.887,4.887,0,0,1,1.16,3.467v1.151h-5.889a2.135,2.135,0,0,0,.694,1.257,2.066,2.066,0,0,0,1.389.457,2.662,2.662,0,0,0,2.2-.984l1.354,1.6A3.784,3.784,0,0,1-31.307-.277,5.3,5.3,0,0,1-33.491.176ZM-33.825-7.4q-1.3,0-1.547,1.723h2.988v-.229a1.467,1.467,0,0,0-.36-1.1A1.434,1.434,0,0,0-33.825-7.4Zm11.285.571-.976-.07a1.752,1.752,0,0,0-1.793.879V0H-28.27V-9.51h2.777l.1,1.222a2.294,2.294,0,0,1,2.083-1.4,2.888,2.888,0,0,1,.826.105ZM-18.347,0h-2.971V-9.51h2.971Zm-3.146-11.962A1.322,1.322,0,0,1-21.037-13a1.724,1.724,0,0,1,1.187-.4,1.724,1.724,0,0,1,1.187.4,1.322,1.322,0,0,1,.457,1.037,1.322,1.322,0,0,1-.457,1.037,1.724,1.724,0,0,1-1.187.4,1.724,1.724,0,0,1-1.187-.4A1.322,1.322,0,0,1-21.494-11.962Zm7.77,2.452.1,1.116a3.27,3.27,0,0,1,2.716-1.292A2.407,2.407,0,0,1-8.477-8.253,3.165,3.165,0,0,1-5.682-9.686q2.892,0,2.971,3.5V0H-5.682V-6a1.813,1.813,0,0,0-.246-1.063,1.048,1.048,0,0,0-.9-.334,1.4,1.4,0,0,0-1.31.782l.009.123V0H-11.1V-5.985a1.906,1.906,0,0,0-.237-1.081,1.045,1.045,0,0,0-.905-.334,1.42,1.42,0,0,0-1.3.782V0H-16.5V-9.51ZM3.582.176A4.889,4.889,0,0,1,.04-1.129a4.507,4.507,0,0,1-1.354-3.4v-.246A5.84,5.84,0,0,1-.773-7.348,3.955,3.955,0,0,1,.8-9.075a4.763,4.763,0,0,1,2.461-.611A4.117,4.117,0,0,1,6.429-8.442a4.887,4.887,0,0,1,1.16,3.467v1.151H1.7A2.135,2.135,0,0,0,2.4-2.566a2.066,2.066,0,0,0,1.389.457,2.662,2.662,0,0,0,2.2-.984l1.354,1.6A3.784,3.784,0,0,1,5.766-.277,5.3,5.3,0,0,1,3.582.176ZM3.248-7.4q-1.3,0-1.547,1.723H4.689v-.229a1.467,1.467,0,0,0-.36-1.1A1.434,1.434,0,0,0,3.248-7.4ZM11.5-9.51l.1,1.116a3.225,3.225,0,0,1,2.716-1.292,2.713,2.713,0,0,1,2.219.888,4.226,4.226,0,0,1,.76,2.672V0H14.322V-6a1.6,1.6,0,0,0-.29-1.059A1.342,1.342,0,0,0,12.977-7.4a1.413,1.413,0,0,0-1.292.686V0H8.723V-9.51Zm10.881-2.364V-9.51h1.564v2.057H22.381V-3.1a1.111,1.111,0,0,0,.193.747,1.037,1.037,0,0,0,.765.211,4.345,4.345,0,0,0,.738-.053V-.079a5.466,5.466,0,0,1-1.67.255,3.1,3.1,0,0,1-2.259-.721,2.954,2.954,0,0,1-.729-2.188v-4.72H18.207V-9.51h1.213v-2.364ZM30.467,0a3.344,3.344,0,0,1-.281-.853A2.754,2.754,0,0,1,27.9.176a3.374,3.374,0,0,1-2.285-.813,2.588,2.588,0,0,1-.94-2.043,2.66,2.66,0,0,1,1.143-2.338A5.821,5.821,0,0,1,29.14-5.81h.914v-.5q0-1.316-1.134-1.316a.927.927,0,0,0-1.055,1.042H24.9a2.655,2.655,0,0,1,1.173-2.239,4.931,4.931,0,0,1,2.993-.86,4.323,4.323,0,0,1,2.874.888,3.086,3.086,0,0,1,1.081,2.435v4.21a4.311,4.311,0,0,0,.4,2V0ZM28.613-1.934a1.652,1.652,0,0,0,.918-.237,1.487,1.487,0,0,0,.523-.536V-4.228h-.861q-1.547,0-1.547,1.389a.848.848,0,0,0,.272.655A.986.986,0,0,0,28.613-1.934Zm10.072-.176a1.317,1.317,0,0,0,.967-.338,1.241,1.241,0,0,0,.334-.945h2.777A3.288,3.288,0,0,1,41.643-.826a4.168,4.168,0,0,1-2.887,1,4.22,4.22,0,0,1-3.27-1.3,5.125,5.125,0,0,1-1.2-3.6v-.123A5.792,5.792,0,0,1,34.822-7.4a3.872,3.872,0,0,1,1.534-1.7,4.573,4.573,0,0,1,2.373-.593,4.116,4.116,0,0,1,2.944,1.028,3.647,3.647,0,0,1,1.09,2.786H39.986A1.626,1.626,0,0,0,39.625-7a1.244,1.244,0,0,0-.967-.4q-1.151,0-1.345,1.468a10.357,10.357,0,0,0-.062,1.283A4.068,4.068,0,0,0,37.6-2.663,1.187,1.187,0,0,0,38.685-2.109ZM47.14,0H44.169V-9.51H47.14ZM43.994-11.962A1.322,1.322,0,0,1,44.451-13a1.724,1.724,0,0,1,1.187-.4,1.724,1.724,0,0,1,1.187.4,1.322,1.322,0,0,1,.457,1.037,1.322,1.322,0,0,1-.457,1.037,1.724,1.724,0,0,1-1.187.4,1.724,1.724,0,0,1-1.187-.4A1.322,1.322,0,0,1,43.994-11.962Zm4.6,7.119a5.613,5.613,0,0,1,.554-2.536,3.96,3.96,0,0,1,1.591-1.709,4.791,4.791,0,0,1,2.435-.6,4.373,4.373,0,0,1,3.366,1.323,5.076,5.076,0,0,1,1.23,3.6v.105a4.925,4.925,0,0,1-1.235,3.529A4.384,4.384,0,0,1,53.187.176a4.434,4.434,0,0,1-3.261-1.217,4.761,4.761,0,0,1-1.327-3.3Zm2.962.185a3.538,3.538,0,0,0,.413,1.934,1.376,1.376,0,0,0,1.222.615q1.582,0,1.617-2.435v-.3Q54.8-7.4,53.169-7.4q-1.485,0-1.608,2.206ZM53.574-13.5H56.7l-2.443,2.76-2.417,0Zm8.218,3.99.1,1.116A3.225,3.225,0,0,1,64.6-9.686a2.713,2.713,0,0,1,2.219.888,4.226,4.226,0,0,1,.76,2.672V0H64.613V-6a1.6,1.6,0,0,0-.29-1.059A1.342,1.342,0,0,0,63.268-7.4a1.413,1.413,0,0,0-1.292.686V0H59.014V-9.51Zm-89.7,30.361,1.582-5.361h3.173l-3.876,11.1-.167.4a2.944,2.944,0,0,1-2.918,1.846,4.642,4.642,0,0,1-1.222-.175v-2.11h.387a2.026,2.026,0,0,0,.954-.18,1.094,1.094,0,0,0,.488-.647l.237-.633-3.3-9.605h3.164Zm14.484-7.726-.413,2.364h1.521l-.36,2.057h-1.521l-.738,4.368a1.164,1.164,0,0,0,.057.677q.119.229.593.246a6.873,6.873,0,0,0,.756-.044l-.211,2.145a4.673,4.673,0,0,1-1.556.22,2.563,2.563,0,0,1-2.013-.791,2.7,2.7,0,0,1-.545-2.1l.773-4.72h-1.178l.352-2.057h1.178l.413-2.364Zm5.388,12.05a4.421,4.421,0,0,1-2.272-.6,3.793,3.793,0,0,1-1.507-1.652,4.44,4.44,0,0,1-.4-2.333l.026-.246a5.829,5.829,0,0,1,1.63-3.713,4.51,4.51,0,0,1,3.415-1.314,3.678,3.678,0,0,1,2.092.621A3.468,3.468,0,0,1-3.779,17.6a5.1,5.1,0,0,1,.264,2.381l-.167,1.206h-5.66A1.854,1.854,0,0,0-8.921,22.4a1.549,1.549,0,0,0,1.178.492,2.993,2.993,0,0,0,2.259-.967l1.213,1.6a3.578,3.578,0,0,1-1.5,1.2,5.263,5.263,0,0,1-2.1.451Zm.7-7.576a1.487,1.487,0,0,0-1.068.385,3.229,3.229,0,0,0-.787,1.347h2.892l.053-.254a1.929,1.929,0,0,0,.018-.577A1.017,1.017,0,0,0-7.33,17.6ZM2.2,22.275q.114-.58-.9-.87l-.624-.158a4.806,4.806,0,0,1-2.241-1.134,2.244,2.244,0,0,1-.668-1.731,2.758,2.758,0,0,1,1.217-2.228,4.633,4.633,0,0,1,2.861-.839,4.292,4.292,0,0,1,2.72.853,2.781,2.781,0,0,1,1.059,2.25l-2.883-.009q.035-1.125-.993-1.125a1.417,1.417,0,0,0-.817.259,1.007,1.007,0,0,0-.448.69q-.149.712,1.257.976a7.3,7.3,0,0,1,1.89.672,2.821,2.821,0,0,1,1.02.945,2.35,2.35,0,0,1,.325,1.354,2.541,2.541,0,0,1-.562,1.538A3.642,3.642,0,0,1,2.861,24.8a5.557,5.557,0,0,1-2.2.378,4.469,4.469,0,0,1-1.912-.431A3.408,3.408,0,0,1-2.632,23.6a2.979,2.979,0,0,1-.514-1.666l2.689.018A1.111,1.111,0,0,0,.809,23.2a1.661,1.661,0,0,0,.914-.242A1.045,1.045,0,0,0,2.2,22.275Zm9.1-9.149-.413,2.364H12.4l-.36,2.057H10.521l-.738,4.368a1.164,1.164,0,0,0,.057.677q.119.229.593.246a6.873,6.873,0,0,0,.756-.044l-.211,2.145a4.673,4.673,0,0,1-1.556.22,2.563,2.563,0,0,1-2.013-.791,2.7,2.7,0,0,1-.545-2.1l.773-4.72H6.46l.352-2.057H7.989L8.4,13.126ZM15,25H12.1l1.652-9.51h2.9ZM14.01,13.091a1.341,1.341,0,0,1,.453-1.072,1.625,1.625,0,0,1,1.138-.431,1.678,1.678,0,0,1,1.129.387,1.318,1.318,0,0,1,.47,1.011,1.344,1.344,0,0,1-.448,1.077,1.63,1.63,0,0,1-1.143.426,1.7,1.7,0,0,1-1.121-.382A1.3,1.3,0,0,1,14.01,13.091Zm7.119,2.391-.2,1.143a3.38,3.38,0,0,1,2.751-1.318,2.27,2.27,0,0,1,1.964.98,4.1,4.1,0,0,1,.47,2.729L25.11,25h-2.9l1.011-6.01a3.108,3.108,0,0,0,.018-.563q-.062-.836-.984-.836a1.807,1.807,0,0,0-1.4.678L19.67,25H16.778l1.652-9.51Zm6.135,4.746a7.226,7.226,0,0,1,.787-2.593A4.564,4.564,0,0,1,29.6,15.881a3.735,3.735,0,0,1,2.109-.576,2.6,2.6,0,0,1,2.162,1.028l.308-.853,2.672.009L35.3,24.631a4.467,4.467,0,0,1-1.7,3.05,5.4,5.4,0,0,1-3.568,1.063,5.1,5.1,0,0,1-1.837-.378,3.957,3.957,0,0,1-1.521-1.09l1.371-1.705a2.489,2.489,0,0,0,1.986.993,2.324,2.324,0,0,0,2.443-2.048l.07-.29a2.973,2.973,0,0,1-2.171.949,2.932,2.932,0,0,1-1.608-.461,3.034,3.034,0,0,1-1.09-1.305,5.076,5.076,0,0,1-.448-1.9A8.253,8.253,0,0,1,27.264,20.228Zm2.856.94a2.306,2.306,0,0,0,.29,1.257.984.984,0,0,0,.844.466,1.933,1.933,0,0,0,1.485-.633l.747-4.034a1.281,1.281,0,0,0-1.178-.633,1.683,1.683,0,0,0-1.415.716,3.861,3.861,0,0,0-.721,1.929Q30.12,20.79,30.12,21.168Z" transform="translate(800 1400.293)" fill="#12263f"/>
    <path id="Trazado_634265" data-name="Trazado 634265" d="M-53.934-3.48l2.549-9.316h3.445L-52.247,0h-3.375l-4.271-12.8h3.419Zm6.012-1.362a5.613,5.613,0,0,1,.554-2.536,3.96,3.96,0,0,1,1.591-1.709,4.791,4.791,0,0,1,2.435-.6,4.373,4.373,0,0,1,3.366,1.323,5.076,5.076,0,0,1,1.23,3.6v.105a4.925,4.925,0,0,1-1.235,3.529A4.384,4.384,0,0,1-43.326.176a4.434,4.434,0,0,1-3.261-1.217,4.761,4.761,0,0,1-1.327-3.3Zm2.962.185a3.538,3.538,0,0,0,.413,1.934,1.376,1.376,0,0,0,1.222.615q1.582,0,1.617-2.435v-.3q0-2.558-1.635-2.558-1.485,0-1.608,2.206Zm10.872,2.373h4.333V0h-8.077V-1.652l4.219-5.572h-4.034V-9.51h7.8v1.6Zm9.879-2.54a5.809,5.809,0,0,1,.976-3.56,3.211,3.211,0,0,1,2.725-1.3,2.731,2.731,0,0,1,2.145,1V-13.5h2.971V0h-2.663l-.149-1.02a2.8,2.8,0,0,1-2.32,1.2,3.205,3.205,0,0,1-2.689-1.3A5.993,5.993,0,0,1-24.209-4.825Zm2.962.185q0,2.531,1.477,2.531a1.458,1.458,0,0,0,1.406-.826V-6.557A1.419,1.419,0,0,0-19.753-7.4q-1.371,0-1.485,2.215ZM-9.11.176a4.889,4.889,0,0,1-3.542-1.305,4.507,4.507,0,0,1-1.354-3.4v-.246a5.84,5.84,0,0,1,.541-2.575,3.955,3.955,0,0,1,1.578-1.727,4.763,4.763,0,0,1,2.461-.611A4.117,4.117,0,0,1-6.262-8.442,4.887,4.887,0,0,1-5.1-4.975v1.151h-5.889A2.135,2.135,0,0,0-10.3-2.566a2.066,2.066,0,0,0,1.389.457,2.662,2.662,0,0,0,2.2-.984l1.354,1.6A3.784,3.784,0,0,1-6.926-.277,5.3,5.3,0,0,1-9.11.176ZM-9.444-7.4q-1.3,0-1.547,1.723H-8v-.229a1.467,1.467,0,0,0-.36-1.1A1.434,1.434,0,0,0-9.444-7.4ZM-.787,0H-3.757V-13.5H-.787ZM9.541-2.109a1.317,1.317,0,0,0,.967-.338,1.241,1.241,0,0,0,.334-.945h2.777A3.288,3.288,0,0,1,12.5-.826a4.168,4.168,0,0,1-2.887,1,4.22,4.22,0,0,1-3.27-1.3,5.125,5.125,0,0,1-1.2-3.6v-.123A5.792,5.792,0,0,1,5.678-7.4a3.872,3.872,0,0,1,1.534-1.7,4.573,4.573,0,0,1,2.373-.593,4.116,4.116,0,0,1,2.944,1.028,3.647,3.647,0,0,1,1.09,2.786H10.841A1.626,1.626,0,0,0,10.481-7a1.244,1.244,0,0,0-.967-.4q-1.151,0-1.345,1.468a10.357,10.357,0,0,0-.062,1.283,4.068,4.068,0,0,0,.343,1.986A1.187,1.187,0,0,0,9.541-2.109ZM18,0H15.025V-13.5H18Zm4.948,0H19.973V-9.51h2.971ZM19.8-11.962A1.322,1.322,0,0,1,20.254-13a1.724,1.724,0,0,1,1.187-.4,1.724,1.724,0,0,1,1.187.4,1.322,1.322,0,0,1,.457,1.037,1.322,1.322,0,0,1-.457,1.037,1.724,1.724,0,0,1-1.187.4,1.724,1.724,0,0,1-1.187-.4A1.322,1.322,0,0,1,19.8-11.962ZM29.369.176a4.889,4.889,0,0,1-3.542-1.305,4.507,4.507,0,0,1-1.354-3.4v-.246a5.84,5.84,0,0,1,.541-2.575,3.955,3.955,0,0,1,1.578-1.727,4.763,4.763,0,0,1,2.461-.611,4.117,4.117,0,0,1,3.164,1.244,4.887,4.887,0,0,1,1.16,3.467v1.151H27.488a2.135,2.135,0,0,0,.694,1.257,2.066,2.066,0,0,0,1.389.457,2.662,2.662,0,0,0,2.2-.984l1.354,1.6A3.784,3.784,0,0,1,31.553-.277,5.3,5.3,0,0,1,29.369.176ZM29.035-7.4q-1.3,0-1.547,1.723h2.988v-.229a1.467,1.467,0,0,0-.36-1.1A1.434,1.434,0,0,0,29.035-7.4ZM37.288-9.51l.1,1.116A3.225,3.225,0,0,1,40.1-9.686a2.713,2.713,0,0,1,2.219.888,4.226,4.226,0,0,1,.76,2.672V0H40.109V-6a1.6,1.6,0,0,0-.29-1.059A1.342,1.342,0,0,0,38.764-7.4a1.413,1.413,0,0,0-1.292.686V0H34.51V-9.51Zm10.881-2.364V-9.51h1.564v2.057H48.168V-3.1a1.111,1.111,0,0,0,.193.747,1.037,1.037,0,0,0,.765.211,4.345,4.345,0,0,0,.738-.053V-.079a5.466,5.466,0,0,1-1.67.255,3.1,3.1,0,0,1-2.259-.721,2.954,2.954,0,0,1-.729-2.188v-4.72H43.994V-9.51h1.213v-2.364ZM55.5.176a4.889,4.889,0,0,1-3.542-1.305,4.507,4.507,0,0,1-1.354-3.4v-.246a5.84,5.84,0,0,1,.541-2.575,3.955,3.955,0,0,1,1.578-1.727,4.763,4.763,0,0,1,2.461-.611,4.117,4.117,0,0,1,3.164,1.244,4.887,4.887,0,0,1,1.16,3.467v1.151H53.618a2.135,2.135,0,0,0,.694,1.257,2.066,2.066,0,0,0,1.389.457,2.662,2.662,0,0,0,2.2-.984l1.354,1.6A3.784,3.784,0,0,1,57.683-.277,5.3,5.3,0,0,1,55.5.176ZM55.165-7.4q-1.3,0-1.547,1.723h2.988v-.229a1.467,1.467,0,0,0-.36-1.1A1.434,1.434,0,0,0,55.165-7.4Z" transform="translate(800 1502.293)" fill="#12263f"/>
    <path id="Trazado_634266" data-name="Trazado 634266" d="M-28.973,0h-3.006l2.224-12.8h3Zm6.3-9.519-.2,1.143a3.38,3.38,0,0,1,2.751-1.318,2.27,2.27,0,0,1,1.964.98,4.1,4.1,0,0,1,.47,2.729L-18.69,0h-2.9l1.011-6.01a3.108,3.108,0,0,0,.018-.563q-.062-.836-.984-.836a1.807,1.807,0,0,0-1.4.678L-24.13,0h-2.892l1.652-9.51Zm11,6.794q.114-.58-.9-.87l-.624-.158a4.806,4.806,0,0,1-2.241-1.134A2.244,2.244,0,0,1-16.1-6.618,2.758,2.758,0,0,1-14.88-8.846a4.633,4.633,0,0,1,2.861-.839,4.292,4.292,0,0,1,2.72.853A2.781,2.781,0,0,1-8.24-6.583l-2.883-.009q.035-1.125-.993-1.125a1.417,1.417,0,0,0-.817.259,1.007,1.007,0,0,0-.448.69q-.149.712,1.257.976a7.3,7.3,0,0,1,1.89.672,2.821,2.821,0,0,1,1.02.945A2.35,2.35,0,0,1-8.89-2.821a2.541,2.541,0,0,1-.562,1.538A3.642,3.642,0,0,1-11-.2a5.557,5.557,0,0,1-2.2.378,4.469,4.469,0,0,1-1.912-.431A3.408,3.408,0,0,1-16.5-1.4a2.979,2.979,0,0,1-.514-1.666l2.689.018A1.111,1.111,0,0,0-13.056-1.8a1.661,1.661,0,0,0,.914-.242A1.045,1.045,0,0,0-11.667-2.725ZM-4.944,0h-2.9l1.652-9.51h2.9Zm-.993-11.909a1.341,1.341,0,0,1,.453-1.072,1.625,1.625,0,0,1,1.138-.431,1.678,1.678,0,0,1,1.129.387,1.318,1.318,0,0,1,.47,1.011,1.344,1.344,0,0,1-.448,1.077,1.63,1.63,0,0,1-1.143.426,1.7,1.7,0,0,1-1.121-.382A1.3,1.3,0,0,1-5.937-11.909Zm3.322,7.137a7.226,7.226,0,0,1,.787-2.593A4.564,4.564,0,0,1-.277-9.119a3.735,3.735,0,0,1,2.109-.576A2.6,2.6,0,0,1,3.995-8.666L4.3-9.519l2.672.009L5.418-.369a4.467,4.467,0,0,1-1.7,3.05A5.4,5.4,0,0,1,.154,3.744a5.1,5.1,0,0,1-1.837-.378A3.957,3.957,0,0,1-3.2,2.276L-1.833.571a2.489,2.489,0,0,0,1.986.993A2.324,2.324,0,0,0,2.6-.483l.07-.29A2.973,2.973,0,0,1,.5.176,2.932,2.932,0,0,1-1.112-.286,3.034,3.034,0,0,1-2.2-1.591a5.076,5.076,0,0,1-.448-1.9A8.253,8.253,0,0,1-2.615-4.772Zm2.856.94a2.306,2.306,0,0,0,.29,1.257.984.984,0,0,0,.844.466,1.933,1.933,0,0,0,1.485-.633l.747-4.034A1.281,1.281,0,0,0,2.43-7.409a1.683,1.683,0,0,0-1.415.716A3.861,3.861,0,0,0,.294-4.764Q.242-4.21.242-3.832ZM11.21-8.473a3.107,3.107,0,0,1,2.452-1.222,2.472,2.472,0,0,1,2.123,1.046,3.981,3.981,0,0,1,.5,2.742L15.3,0H12.406L13.4-5.948a3.079,3.079,0,0,0,.018-.563.878.878,0,0,0-.967-.9,1.873,1.873,0,0,0-1.389.572L9.848,0H6.957L9.3-13.5h2.892Zm11.18-3.4L21.977-9.51H23.5l-.36,2.057H21.617l-.738,4.368a1.164,1.164,0,0,0,.057.677q.119.229.593.246a6.873,6.873,0,0,0,.756-.044L22.074-.062a4.673,4.673,0,0,1-1.556.22,2.563,2.563,0,0,1-2.013-.791,2.7,2.7,0,0,1-.545-2.1l.773-4.72H17.556l.352-2.057h1.178l.413-2.364Zm6.021,9.149q.114-.58-.9-.87l-.624-.158a4.806,4.806,0,0,1-2.241-1.134,2.244,2.244,0,0,1-.668-1.731A2.758,2.758,0,0,1,25.2-8.846a4.633,4.633,0,0,1,2.861-.839,4.292,4.292,0,0,1,2.72.853,2.781,2.781,0,0,1,1.059,2.25l-2.883-.009q.035-1.125-.993-1.125a1.417,1.417,0,0,0-.817.259,1.007,1.007,0,0,0-.448.69q-.149.712,1.257.976a7.3,7.3,0,0,1,1.89.672,2.821,2.821,0,0,1,1.02.945,2.35,2.35,0,0,1,.325,1.354,2.541,2.541,0,0,1-.562,1.538A3.642,3.642,0,0,1,29.074-.2a5.557,5.557,0,0,1-2.2.378,4.469,4.469,0,0,1-1.912-.431A3.408,3.408,0,0,1,23.581-1.4a2.979,2.979,0,0,1-.514-1.666l2.689.018A1.111,1.111,0,0,0,27.022-1.8a1.661,1.661,0,0,0,.914-.242A1.045,1.045,0,0,0,28.411-2.725Z" transform="translate(800 1681.293)" fill="#12263f"/>
  </g>
</svg>
