<svg id="Grupo_880046" data-name="Grupo 880046" xmlns="http://www.w3.org/2000/svg" xmlns:xlink="http://www.w3.org/1999/xlink" width="260.788" height="573.447" viewBox="0 0 260.788 573.447">
  <defs>
    <clipPath id="clip-path">
      <rect id="Rectángulo_329241" data-name="Rectángulo 329241" width="260.788" height="573.448" fill="none"/>
    </clipPath>
    <clipPath id="clip-path-4">
      <rect id="Rectángulo_329230" data-name="Rectángulo 329230" width="22.802" height="48.565" fill="#617a0b"/>
    </clipPath>
    <clipPath id="clip-path-5">
      <rect id="Rectángulo_329231" data-name="Rectángulo 329231" width="42.619" height="26.67" fill="#617a0b"/>
    </clipPath>
    <clipPath id="clip-path-7">
      <rect id="Rectángulo_329234" data-name="Rectángulo 329234" width="4.03" height="4.085" fill="none"/>
    </clipPath>
    <clipPath id="clip-path-8">
      <rect id="Rectángulo_329235" data-name="Rectángulo 329235" width="34.315" height="20.732" fill="none"/>
    </clipPath>
    <clipPath id="clip-path-9">
      <rect id="Rectángulo_329236" data-name="Rectángulo 329236" width="195.659" height="206.099" fill="none"/>
    </clipPath>
    <clipPath id="clip-path-10">
      <rect id="Rectángulo_329238" data-name="Rectángulo 329238" width="19.614" height="35.066" fill="none"/>
    </clipPath>
    <clipPath id="clip-path-11">
      <rect id="Rectángulo_329239" data-name="Rectángulo 329239" width="52.797" height="19.966" fill="none"/>
    </clipPath>
  </defs>
  <g id="Grupo_880045" data-name="Grupo 880045" clip-path="url(#clip-path)">
    <g id="Grupo_880019" data-name="Grupo 880019">
      <g id="Grupo_880018" data-name="Grupo 880018" clip-path="url(#clip-path)">
        <path id="Trazado_631959" data-name="Trazado 631959" d="M200.74,33.347l.536,2.718L195.892,65.2a17.375,17.375,0,0,1-13.434,3.075l-30.47-5.632s-4.843-1.082-3.494-7.369c0,0,.239-3.317,3.082-3.539,0,0-5.906-2.4-5.252-6.948s4-4.489,4-4.489-5.532-1.4-4.959-6.519,3.563-5.131,3.563-5.131-6.435-1.563-4.824-7.243,7.142-4.283,7.142-4.283l21.673,4,19,3.511a11.033,11.033,0,0,1,8.82,8.715" transform="translate(40.322 4.756)" fill="#ebebeb"/>
        <path id="Trazado_631960" data-name="Trazado 631960" d="M189.322,30.651s-6.674-6.038-9.022-12.606A32.422,32.422,0,0,1,178.714,7.9c.047-.257.439-2.553.758-4.43A2.914,2.914,0,0,0,177.208.142a9.524,9.524,0,0,0-10.545,6.987c-2.534,8.729-.367,14.679-.294,17.337l.072,2.658Z" transform="translate(46.373 0)" fill="#ebebeb"/>
        <rect id="Rectángulo_329227" data-name="Rectángulo 329227" width="43.973" height="21.643" transform="translate(231.512 74.307) rotate(-79.526)" fill="#ebebeb"/>
        <path id="Trazado_631961" data-name="Trazado 631961" d="M180.826,67.5c-.046-.009,1.705-9.7,3.913-21.635s4.034-21.614,4.08-21.605-1.705,9.693-3.914,21.636-4.033,21.613-4.079,21.6" transform="translate(50.687 6.802)" fill="#e0e0e0"/>
        <path id="Trazado_631962" data-name="Trazado 631962" d="M197.449,70.578c-.046-.009,1.705-9.7,3.913-21.635s4.034-21.614,4.08-21.605-1.705,9.693-3.914,21.636-4.033,21.613-4.079,21.6" transform="translate(55.346 7.663)" fill="#e0e0e0"/>
        <path id="Trazado_631963" data-name="Trazado 631963" d="M191.523,33.807a4.05,4.05,0,1,0,4.718-3.247,4.049,4.049,0,0,0-4.718,3.247" transform="translate(53.666 8.547)" fill="#fff"/>
        <path id="Trazado_631964" data-name="Trazado 631964" d="M162.663,19.492c.009-.046,2.337.346,5.2.874s5.175.995,5.167,1.041-2.335-.344-5.2-.874-5.176-.995-5.167-1.041" transform="translate(45.596 5.463)" fill="#e0e0e0"/>
        <path id="Trazado_631965" data-name="Trazado 631965" d="M148.543,35.286a33.467,33.467,0,0,1,3.328.529,33.241,33.241,0,0,1,3.3.7c-.008.045-1.5-.191-3.328-.53a33.482,33.482,0,0,1-3.3-.7" transform="translate(41.638 9.889)" fill="#e0e0e0"/>
        <path id="Trazado_631966" data-name="Trazado 631966" d="M147.508,25.946c.008-.046,2.119.306,4.715.786s4.7.906,4.687.951-2.119-.3-4.718-.785-4.694-.906-4.685-.953" transform="translate(41.348 7.272)" fill="#e0e0e0"/>
        <path id="Trazado_631967" data-name="Trazado 631967" d="M148.836,43.972c.009-.046,2.12.306,4.717.786s4.695.906,4.686.953-2.119-.306-4.717-.786-4.695-.906-4.686-.953" transform="translate(41.72 12.324)" fill="#e0e0e0"/>
        <path id="Trazado_631968" data-name="Trazado 631968" d="M190.812,25.948c.009-.046,2.99.466,6.658,1.145S204.1,28.357,204.1,28.4s-2.99-.466-6.659-1.145-6.635-1.265-6.626-1.311" transform="translate(53.486 7.272)" fill="#fff"/>
        <path id="Trazado_631969" data-name="Trazado 631969" d="M146.686,33.09c-.012,0-.045-.083-.095-.245a3.725,3.725,0,0,1-.142-.7,5.085,5.085,0,0,1-.012-1.064,5.887,5.887,0,0,1,.278-1.275,5.962,5.962,0,0,1,.574-1.174,5.066,5.066,0,0,1,.67-.827,3.668,3.668,0,0,1,.547-.462.811.811,0,0,1,.225-.134c.019.027-.285.241-.685.679a5.725,5.725,0,0,0-.625.83,5.782,5.782,0,0,0-.828,2.381,5.785,5.785,0,0,0-.024,1.037c.042.592.149.949.118.958" transform="translate(41.041 7.626)" fill="#fff"/>
        <path id="Trazado_631970" data-name="Trazado 631970" d="M145.925,23.736a1.56,1.56,0,0,1-.422-.548,3.34,3.34,0,0,1,.06-3.235,1.531,1.531,0,0,1,.443-.531c.023.019-.15.219-.338.589a3.629,3.629,0,0,0-.059,3.124c.175.378.341.583.316.6" transform="translate(40.676 5.444)" fill="#fff"/>
        <path id="Trazado_631971" data-name="Trazado 631971" d="M148.131,42.513a1.668,1.668,0,0,1-.593-.533,2.884,2.884,0,0,1,.051-3.617,1.662,1.662,0,0,1,.608-.515c.019.024-.23.2-.512.589a2.949,2.949,0,0,0-.05,3.472c.271.394.515.58.5.6" transform="translate(41.184 10.609)" fill="#fff"/>
        <path id="Trazado_631972" data-name="Trazado 631972" d="M149.943,51.125a1.718,1.718,0,0,1-.41-.581,3.8,3.8,0,0,1-.012-3.348,1.735,1.735,0,0,1,.406-.584c.024.018-.129.239-.3.634a4.185,4.185,0,0,0,.01,3.247c.169.394.325.616.3.632" transform="translate(41.805 13.066)" fill="#fff"/>
        <path id="Trazado_631973" data-name="Trazado 631973" d="M166.711,16.162a2.774,2.774,0,0,1-.149-.481c-.045-.156-.093-.348-.136-.575s-.1-.483-.14-.771a15.085,15.085,0,0,1-.17-2.032,16.882,16.882,0,0,1,.161-2.493,16.862,16.862,0,0,1,.557-2.435,14.917,14.917,0,0,1,.743-1.9c.115-.266.246-.494.353-.7s.207-.375.294-.512a2.816,2.816,0,0,1,.279-.419,2.906,2.906,0,0,1-.223.452c-.077.141-.17.315-.266.522s-.221.438-.329.705a16.741,16.741,0,0,0-.7,1.9,18.307,18.307,0,0,0-.538,2.413,18.133,18.133,0,0,0-.173,2.467,16.646,16.646,0,0,0,.133,2.016c.027.288.078.543.114.769s.072.42.106.577a2.846,2.846,0,0,1,.085.5" transform="translate(46.564 1.078)" fill="#fff"/>
        <path id="Trazado_631974" data-name="Trazado 631974" d="M172.131,238.468l1.443,1.652,7.834,22.1a13.747,13.747,0,0,1-7.993,7.423l-23.12,8.194s-3.747,1.175-5.311-3.669c0,0-1.148-2.37.713-3.646,0,0-5,.691-6.35-2.685s.969-4.663.969-4.663-4.345,1.232-5.979-2.508.412-4.928.412-4.928-5.03,1.475-6.172-3.056a4.627,4.627,0,0,1,3.2-5.763l16.442-5.832,14.415-5.108a8.733,8.733,0,0,1,9.495,2.485" transform="translate(35.988 66.007)" fill="#ebebeb"/>
        <path id="Trazado_631975" data-name="Trazado 631975" d="M162.869,239.036s-6.965-1.5-11.173-5.073a25.668,25.668,0,0,1-5.1-6.325c-.069-.2-.708-1.926-1.233-3.339a2.306,2.306,0,0,0-2.869-1.388,7.539,7.539,0,0,0-4.466,8.962c1.717,6.987,5.555,10.21,6.658,12l1.1,1.794Z" transform="translate(38.621 62.453)" fill="#ebebeb"/>
        <rect id="Rectángulo_329228" data-name="Rectángulo 329228" width="17.133" height="34.809" transform="translate(204.268 300.267) rotate(-19.514)" fill="#ebebeb"/>
        <path id="Trazado_631976" data-name="Trazado 631976" d="M171.174,267.336c-.035.013-2.667-7.322-5.878-16.382s-5.786-16.415-5.751-16.426,2.667,7.321,5.878,16.382,5.786,16.414,5.751,16.426" transform="translate(44.722 65.74)" fill="#e0e0e0"/>
        <path id="Trazado_631977" data-name="Trazado 631977" d="M183.787,262.866c-.035.013-2.667-7.322-5.877-16.382s-5.787-16.415-5.752-16.426,2.667,7.321,5.878,16.382,5.786,16.414,5.751,16.426" transform="translate(48.257 64.487)" fill="#e0e0e0"/>
        <path id="Trazado_631978" data-name="Trazado 631978" d="M166.118,239.752a3.206,3.206,0,1,0,1.95-4.093,3.206,3.206,0,0,0-1.95,4.093" transform="translate(46.512 66.005)" fill="#fff"/>
        <path id="Trazado_631979" data-name="Trazado 631979" d="M140.924,241.522c-.013-.035,1.739-.687,3.91-1.457s3.942-1.365,3.955-1.33-1.739.688-3.91,1.457-3.942,1.365-3.955,1.33" transform="translate(39.502 66.919)" fill="#e0e0e0"/>
        <path id="Trazado_631980" data-name="Trazado 631980" d="M137.493,257.717a26.528,26.528,0,0,1,2.49-.954c1.389-.492,2.523-.862,2.536-.828a25.823,25.823,0,0,1-2.491.955,26.209,26.209,0,0,1-2.535.827" transform="translate(38.54 71.74)" fill="#e0e0e0"/>
        <path id="Trazado_631981" data-name="Trazado 631981" d="M133.087,251.886c-.013-.035,1.575-.63,3.545-1.328s3.577-1.237,3.59-1.2-1.575.629-3.545,1.328-3.577,1.235-3.59,1.2" transform="translate(37.305 69.896)" fill="#e0e0e0"/>
        <path id="Trazado_631982" data-name="Trazado 631982" d="M141.13,263.719c-.013-.035,1.575-.63,3.545-1.328s3.577-1.237,3.59-1.2-1.575.629-3.545,1.328-3.577,1.235-3.59,1.2" transform="translate(39.56 73.213)" fill="#e0e0e0"/>
        <path id="Trazado_631983" data-name="Trazado 631983" d="M162.778,234.982c-.013-.035,2.234-.863,5.018-1.85s5.05-1.758,5.061-1.722-2.233.863-5.016,1.849-5.05,1.758-5.062,1.723" transform="translate(45.628 64.866)" fill="#fff"/>
        <path id="Trazado_631984" data-name="Trazado 631984" d="M135.1,256.756c-.006.006-.063-.04-.163-.131a2.933,2.933,0,0,1-.374-.425,4.009,4.009,0,0,1-.43-.725,4.75,4.75,0,0,1-.314-.985,4.61,4.61,0,0,1-.07-1.032,4.011,4.011,0,0,1,.131-.832,2.969,2.969,0,0,1,.192-.533.624.624,0,0,1,.1-.182c.023.01-.1.279-.2.737a4.545,4.545,0,0,0-.1.814,5.124,5.124,0,0,0,.079,1,4.989,4.989,0,0,0,.3.959,4.457,4.457,0,0,0,.393.721c.264.389.478.593.46.611" transform="translate(37.489 70.613)" fill="#fff"/>
        <path id="Trazado_631985" data-name="Trazado 631985" d="M131.014,250.522a1.24,1.24,0,0,1-.507-.207,2.656,2.656,0,0,1-1.239-2.243,1.27,1.27,0,0,1,.093-.54c.024.005-.015.21,0,.538a2.873,2.873,0,0,0,1.2,2.166c.269.189.463.265.455.287" transform="translate(36.235 69.385)" fill="#fff"/>
        <path id="Trazado_631986" data-name="Trazado 631986" d="M139.933,262.555a1.312,1.312,0,0,1-.617-.131,2.279,2.279,0,0,1-1.4-2.5,1.327,1.327,0,0,1,.213-.593c.023.009-.078.229-.118.606a2.335,2.335,0,0,0,1.339,2.4c.343.164.583.195.579.218" transform="translate(38.651 72.692)" fill="#fff"/>
        <path id="Trazado_631987" data-name="Trazado 631987" d="M144.612,267.7a1.353,1.353,0,0,1-.511-.237,3,3,0,0,1-1.332-2.29,1.376,1.376,0,0,1,.046-.561c.024,0,.006.215.047.552a3.322,3.322,0,0,0,1.292,2.223c.273.2.467.292.457.314" transform="translate(40.018 74.173)" fill="#fff"/>
        <path id="Trazado_631988" data-name="Trazado 631988" d="M142.031,237.233a2.213,2.213,0,0,1-.292-.271c-.092-.09-.2-.2-.321-.341s-.262-.289-.4-.472a12.08,12.08,0,0,1-.921-1.326,13.439,13.439,0,0,1-.876-1.772,13.286,13.286,0,0,1-.581-1.891,12.027,12.027,0,0,1-.243-1.6c-.026-.229-.026-.438-.033-.62a4.382,4.382,0,0,1,0-.467,2.29,2.29,0,0,1,.026-.4,2.369,2.369,0,0,1,.027.4c0,.128.006.284.023.465s.022.388.054.613a13.413,13.413,0,0,0,.269,1.579,13,13,0,0,0,1.444,3.627,13.05,13.05,0,0,0,.889,1.33c.132.187.269.341.383.483s.215.259.3.353a2.378,2.378,0,0,1,.253.307" transform="translate(38.782 63.932)" fill="#fff"/>
      </g>
    </g>
    <g id="Grupo_880027" data-name="Grupo 880027">
      <g id="Grupo_880026" data-name="Grupo 880026" clip-path="url(#clip-path)">
        <path id="Trazado_631989" data-name="Trazado 631989" d="M150.769,427.626s-5.336-36.69-4.892-58.036-.027-45.361-.027-45.361h2.459s-1.664,42.372.147,67.925c1.812,25.536,6.583,35.472,6.583,35.472Z" transform="translate(40.883 90.883)" fill="#263238"/>
        <path id="Trazado_631990" data-name="Trazado 631990" d="M167.5,292.833a6.475,6.475,0,0,0-2.241-3.28c-1.561-.99-3.605-.577-5.347.038-7.43,2.627-14.017,16.48-17.02,23.768l9.865,33.237c17.805-16.517,20.888-38.186,14.743-53.763" transform="translate(40.053 80.997)" fill="#617a0b"/>
        <path id="Trazado_631991" data-name="Trazado 631991" d="M162.521,290.473a1.968,1.968,0,0,1-.143.434c-.127.318-.287.718-.483,1.211-.433,1.045-1.04,2.567-1.764,4.454-1.453,3.774-3.3,9.052-4.957,15s-2.783,11.424-3.482,15.407c-.352,1.992-.617,3.608-.785,4.727-.086.522-.155.949-.21,1.287a1.926,1.926,0,0,1-.1.446,1.949,1.949,0,0,1,.019-.456c.036-.341.081-.771.134-1.3.12-1.125.342-2.751.658-4.753a141.451,141.451,0,0,1,8.456-30.461c.76-1.878,1.408-3.385,1.886-4.412.225-.48.408-.872.554-1.182a1.9,1.9,0,0,1,.218-.4" transform="translate(42.211 81.422)" fill="#263238"/>
        <path id="Trazado_631992" data-name="Trazado 631992" d="M150.506,350.835c-9.246-5.108-14.7-14.721-15.2-25.272-.356-7.376,1.909-14.613,4.477-21.537a2.783,2.783,0,0,1,1.043-1.563,2.659,2.659,0,0,1,2.522.393c6.719,3.826,10.789,11.119,12.954,18.541a37.412,37.412,0,0,1,1.521,15.247,25.33,25.33,0,0,1-7.314,14.191" transform="translate(37.916 84.728)" fill="#455a64"/>
        <path id="Trazado_631993" data-name="Trazado 631993" d="M148.605,349.648a1.816,1.816,0,0,1-.037-.446c-.006-.337-.015-.759-.024-1.276,0-1.106-.049-2.709-.14-4.685a128.344,128.344,0,0,0-1.714-15.355c-1.027-5.953-2.273-11.285-3.189-15.137-.452-1.886-.822-3.431-1.095-4.563-.115-.5-.209-.917-.284-1.244a2.061,2.061,0,0,1-.073-.44,1.75,1.75,0,0,1,.152.42c.1.323.213.728.358,1.225.3,1.065.725,2.614,1.22,4.534.99,3.837,2.28,9.167,3.31,15.137a111.974,111.974,0,0,1,1.6,15.412c.054,1.983.056,3.589.009,4.7-.019.519-.038.94-.051,1.276a2,2,0,0,1-.045.444" transform="translate(39.816 85.915)" fill="#263238"/>
        <g id="Grupo_880022" data-name="Grupo 880022" transform="translate(173.181 386.998)" opacity="0.3">
          <g id="Grupo_880021" data-name="Grupo 880021">
            <g id="Grupo_880020" data-name="Grupo 880020" clip-path="url(#clip-path-4)">
              <path id="Trazado_631994" data-name="Trazado 631994" d="M150.506,350.835c-9.246-5.108-14.7-14.721-15.2-25.272-.356-7.376,1.909-14.613,4.477-21.537a2.783,2.783,0,0,1,1.043-1.563,2.659,2.659,0,0,1,2.522.393c6.719,3.826,10.789,11.119,12.954,18.541a37.412,37.412,0,0,1,1.521,15.247,25.33,25.33,0,0,1-7.314,14.191" transform="translate(-135.265 -302.27)" fill="#617a0b"/>
            </g>
          </g>
        </g>
        <path id="Trazado_631995" data-name="Trazado 631995" d="M155.316,384.22c9.1,2,16.593,8.418,25.372,11.538,5.809,2.065,12.377,2.8,17.015,6.857-1.113-2.809-3.751-4.681-6.314-6.281a113.126,113.126,0,0,0-23-10.979c-4.13-1.426-8.611-2.618-12.82-1.443" transform="translate(43.536 107.48)" fill="#617a0b"/>
        <path id="Trazado_631996" data-name="Trazado 631996" d="M152.646,393.014c-11.4-.183-23.4-9.887-34.74-10.465,11.871-3.833,28.868-.7,34.74,10.465" transform="translate(33.05 106.794)" fill="#617a0b"/>
        <path id="Trazado_631997" data-name="Trazado 631997" d="M148.518,372.067c5.787-2.086,12.141-2.184,18.22-1.239a110.744,110.744,0,0,1,17.786,4.834c-.585-3.955-3.787-6.928-6.8-9.56a47.488,47.488,0,0,0-7.142-5.49,15.925,15.925,0,0,0-8.565-2.416,13.545,13.545,0,0,0-9.454,4.765,15.7,15.7,0,0,0-4.05,9.106" transform="translate(41.631 100.402)" fill="#617a0b"/>
        <path id="Trazado_631998" data-name="Trazado 631998" d="M136.263,360.39c-7.174-6.125-18.04-5.526-27.47-5.313a223.788,223.788,0,0,1,42.6,26.548c.384-6.667-6.07-13.5-15.132-21.235" transform="translate(30.495 99.496)" fill="#455a64"/>
        <g id="Grupo_880025" data-name="Grupo 880025" transform="translate(139.288 454.451)" opacity="0.3">
          <g id="Grupo_880024" data-name="Grupo 880024">
            <g id="Grupo_880023" data-name="Grupo 880023" clip-path="url(#clip-path-5)">
              <path id="Trazado_631999" data-name="Trazado 631999" d="M136.263,360.39c-7.174-6.125-18.04-5.526-27.47-5.313a223.788,223.788,0,0,1,42.6,26.548c.384-6.667-6.07-13.5-15.132-21.235" transform="translate(-108.793 -354.954)" fill="#617a0b"/>
            </g>
          </g>
        </g>
        <path id="Trazado_632000" data-name="Trazado 632000" d="M151.046,359.048a79.885,79.885,0,0,1,11.032-6.413c3.776-1.714,7.3-4.448,10.945-6.423,4.729-2.561,8.826-6.12,13.167-9.294s9.108-6.041,14.42-6.88a28.358,28.358,0,0,0-13.123.758,84.712,84.712,0,0,0-12.351,4.806c-5.6,2.521-11.29,5.1-15.864,9.2s-8.71,8.131-8.226,14.25" transform="translate(42.329 92.383)" fill="#617a0b"/>
        <path id="Trazado_632001" data-name="Trazado 632001" d="M182.542,392.263a1.511,1.511,0,0,1-.361-.156l-.994-.515c-.859-.457-2.091-1.133-3.642-1.914-.768-.4-1.62-.828-2.543-1.261-.914-.455-1.908-.9-2.96-1.357a43.3,43.3,0,0,0-7.016-2.445,15.065,15.065,0,0,0-7.311-.184,20.885,20.885,0,0,0-3.1.926,15.932,15.932,0,0,0-5.642,3.879c-.659.707-.981,1.139-1.01,1.118a1.438,1.438,0,0,1,.2-.335,10.949,10.949,0,0,1,.689-.889,14.661,14.661,0,0,1,3.1-2.731,15.505,15.505,0,0,1,2.527-1.355,20.512,20.512,0,0,1,3.139-.977,15.2,15.2,0,0,1,7.491.152,41.542,41.542,0,0,1,7.074,2.5c1.054.467,2.046.928,2.956,1.4.922.448,1.768.887,2.529,1.311,1.539.814,2.751,1.53,3.586,2.029l.958.583a1.44,1.44,0,0,1,.32.227" transform="translate(41.475 107.544)" fill="#263238"/>
        <path id="Trazado_632002" data-name="Trazado 632002" d="M138.4,385.971a2.618,2.618,0,0,1,.713.209,16,16,0,0,1,1.858.808,22.534,22.534,0,0,1,9.522,9.148,16.048,16.048,0,0,1,.881,1.823,2.636,2.636,0,0,1,.237.7c-.065.029-.49-.936-1.366-2.384a25.224,25.224,0,0,0-9.408-9.038c-1.481-.817-2.463-1.2-2.436-1.27" transform="translate(38.794 108.189)" fill="#263238"/>
        <path id="Trazado_632003" data-name="Trazado 632003" d="M118.706,358.753a2.337,2.337,0,0,1,.485.143l1.369.487,2.156.8c.841.312,1.754.773,2.786,1.228a65.843,65.843,0,0,1,14.837,9.453,72.6,72.6,0,0,1,6.919,6.814,76.668,76.668,0,0,1,4.91,6.221c1.3,1.844,2.288,3.379,2.964,4.441l.78,1.221a2.359,2.359,0,0,1,.252.44,2.382,2.382,0,0,1-.319-.393c-.2-.265-.489-.662-.845-1.182-.717-1.036-1.739-2.544-3.065-4.359s-2.993-3.914-4.957-6.142a75.853,75.853,0,0,0-6.9-6.752,69.479,69.479,0,0,0-14.7-9.5c-1.02-.47-1.92-.947-2.75-1.279l-2.125-.857-1.339-.558a2.511,2.511,0,0,1-.458-.22" transform="translate(33.274 100.561)" fill="#263238"/>
        <path id="Trazado_632004" data-name="Trazado 632004" d="M165.949,364.2a4.077,4.077,0,0,1-.909-.116c-.314-.059-.661-.123-1.047-.193-.406-.079-.882-.081-1.4-.134a14.322,14.322,0,0,0-7.832,1.545,14.091,14.091,0,0,0-3.564,2.644,16.11,16.11,0,0,0-2.292,2.833,23.585,23.585,0,0,0-1.566,2.99,3.326,3.326,0,0,1,.232-.889,12.605,12.605,0,0,1,1.091-2.253,15.091,15.091,0,0,1,2.269-2.943,13.866,13.866,0,0,1,11.688-4.214c.524.073,1.005.1,1.412.2l1.045.263a3.979,3.979,0,0,1,.873.271" transform="translate(41.299 101.859)" fill="#263238"/>
        <path id="Trazado_632005" data-name="Trazado 632005" d="M177.516,336.271a2.35,2.35,0,0,1-.431.266l-1.271.69c-1.1.6-2.7,1.475-4.63,2.613-1.924,1.155-4.19,2.572-6.6,4.3a55.285,55.285,0,0,0-7.371,6.176,18.758,18.758,0,0,0-3.015,3.9c-.746,1.434-1.46,2.818-2.116,4.15a75.4,75.4,0,0,0-3.166,7.208,44.024,44.024,0,0,0-1.54,5.075c-.292,1.219-.4,1.908-.437,1.9a2.4,2.4,0,0,1,.045-.5c.042-.329.111-.813.237-1.43a37.714,37.714,0,0,1,1.425-5.139,69.274,69.274,0,0,1,3.1-7.276c.648-1.339,1.356-2.731,2.1-4.167a18.87,18.87,0,0,1,3.077-4,53.48,53.48,0,0,1,7.446-6.2c2.435-1.716,4.726-3.112,6.674-4.239,1.958-1.11,3.572-1.952,4.7-2.506l1.308-.624a2.334,2.334,0,0,1,.467-.192" transform="translate(41.186 94.259)" fill="#263238"/>
        <path id="Trazado_632006" data-name="Trazado 632006" d="M147.527,368.411a4.636,4.636,0,0,1-.227-.96c-.132-.7-.3-1.585-.5-2.634a67.368,67.368,0,0,0-5.409-16.75l-1.111-2.44a4.542,4.542,0,0,1-.365-.917,4.808,4.808,0,0,1,.507.848c.3.557.727,1.369,1.229,2.386a56.244,56.244,0,0,1,5.432,16.822c.179,1.122.307,2.029.373,2.66a4.6,4.6,0,0,1,.069.985" transform="translate(39.219 96.625)" fill="#263238"/>
        <path id="Trazado_632007" data-name="Trazado 632007" d="M152.054,350.159a30.908,30.908,0,0,0-3.706-12.3,40.618,40.618,0,0,0-27.528-20.528l25.486,37.985,3.29,6.78c2.246-3.685,2.744-7.628,2.458-11.934" transform="translate(33.867 88.949)" fill="#617a0b"/>
        <rect id="Rectángulo_329232" data-name="Rectángulo 329232" width="59.263" height="10.504" transform="translate(163.217 513.97)" fill="#eb6f2d"/>
        <path id="Trazado_632008" data-name="Trazado 632008" d="M130.939,408.019l5.046,32.593h39.344l6.021-32.593Z" transform="translate(36.703 114.371)" fill="#eb6f2d"/>
        <path id="Trazado_632009" data-name="Trazado 632009" d="M186.818,409.7c0,.115-13.368.209-29.853.209s-29.857-.093-29.857-.209,13.364-.209,29.857-.209,29.853.094,29.853.209" transform="translate(35.629 114.784)" fill="#263238"/>
      </g>
    </g>
    <g id="Grupo_880044" data-name="Grupo 880044">
      <g id="Grupo_880043" data-name="Grupo 880043" clip-path="url(#clip-path)">
        <path id="Trazado_632010" data-name="Trazado 632010" d="M81.394,398.338l-1.1,28.905s29.012,10.824,29.328,16.186L53.5,443.312,53.366,398.2Z" transform="translate(14.959 111.619)" fill="#263238"/>
        <path id="Trazado_632011" data-name="Trazado 632011" d="M61.208,418.979a2.291,2.291,0,0,0-1.59,2.612,2.2,2.2,0,0,0,2.576,1.6,2.417,2.417,0,0,0,1.668-2.776A2.284,2.284,0,0,0,61,419.049" transform="translate(16.698 117.416)" fill="#e0e0e0"/>
        <path id="Trazado_632012" data-name="Trazado 632012" d="M53.472,434.432l.164-4.548,53.747,1.814s2.5,1.092,2.211,2.851Z" transform="translate(14.989 120.499)" fill="#455a64"/>
        <path id="Trazado_632013" data-name="Trazado 632013" d="M76.232,420.72c-.01.274-1.38.4-2.731,1.274-1.372.842-2.07,2.028-2.322,1.919-.252-.054.16-1.691,1.813-2.726s3.3-.718,3.24-.467" transform="translate(19.933 117.859)" fill="#fff"/>
        <path id="Trazado_632014" data-name="Trazado 632014" d="M80.52,422.6c.061.265-1.125.73-2.059,1.886-.967,1.131-1.2,2.383-1.477,2.37-.257.044-.444-1.562.744-2.979s2.787-1.538,2.792-1.276" transform="translate(21.525 118.426)" fill="#fff"/>
        <path id="Trazado_632015" data-name="Trazado 632015" d="M82.376,429.118c-.25.058-.627-1.312.079-2.812s1.99-2.095,2.1-1.865c.155.225-.679,1.029-1.241,2.269-.59,1.227-.671,2.381-.944,2.408" transform="translate(22.999 118.961)" fill="#fff"/>
        <path id="Trazado_632016" data-name="Trazado 632016" d="M76.013,415.714c-.115.25-1.372-.132-2.92-.029-1.552.07-2.759.588-2.9.353-.157-.2,1.022-1.211,2.847-1.306s3.109.767,2.974.982" transform="translate(19.671 116.25)" fill="#fff"/>
        <path id="Trazado_632017" data-name="Trazado 632017" d="M27.42,395.238,24.381,430.1l5.548,28.268a3.586,3.586,0,0,1-6.153,3.124c-5-5.454-23.3-25.606-22.937-28.145.424-2.941.764-36.988.764-36.988Z" transform="translate(0.234 110.788)" fill="#263238"/>
        <path id="Trazado_632018" data-name="Trazado 632018" d="M26.848,454.791.979,423.165l-.095,1.48a5.39,5.39,0,0,0,1.052,3.573c2.051,2.749,7.879,10.214,21.722,25.442a3.582,3.582,0,0,0,3.189,1.13" transform="translate(0.245 118.616)" fill="#455a64"/>
        <g id="Grupo_880030" data-name="Grupo 880030" transform="translate(5.862 530.563)" opacity="0.6">
          <g id="Grupo_880029" data-name="Grupo 880029">
            <g id="Grupo_880028" data-name="Grupo 880028" clip-path="url(#clip-path-7)">
              <path id="Trazado_632019" data-name="Trazado 632019" d="M7.831,414.814a2.167,2.167,0,0,1,.41,2.865,2.083,2.083,0,0,1-2.835.433,2.289,2.289,0,0,1-.42-3.037,2.162,2.162,0,0,1,3-.123" transform="translate(-4.578 -414.403)" fill="#fff"/>
            </g>
          </g>
        </g>
        <path id="Trazado_632020" data-name="Trazado 632020" d="M15.7,436.353c.191.109,1.1-1.67,3.237-2.52,2.114-.915,4.012-.3,4.07-.512.036-.083-.389-.383-1.2-.551a5.717,5.717,0,0,0-5.653,2.344c-.453.691-.54,1.2-.456,1.238" transform="translate(4.392 121.283)" fill="#fff"/>
        <path id="Trazado_632021" data-name="Trazado 632021" d="M17.4,439.807c.156.163,1.351-.9,3.189-1.3,1.832-.442,3.37-.006,3.439-.22.113-.173-1.521-1.02-3.61-.529-2.095.47-3.193,1.946-3.018,2.052" transform="translate(4.873 122.663)" fill="#fff"/>
        <path id="Trazado_632022" data-name="Trazado 632022" d="M12.377,431.422c.154.175,1.981-1.469,4.787-2.344,2.792-.919,5.236-.643,5.258-.874.068-.183-2.5-.835-5.493.143-3.006.946-4.714,2.966-4.553,3.075" transform="translate(3.467 119.921)" fill="#fff"/>
        <path id="Trazado_632023" data-name="Trazado 632023" d="M12.406,422.552c.079.215,2.06-.467,4.577-.4,2.518.036,4.468.8,4.557.59.108-.165-1.835-1.314-4.54-1.358-2.705-.069-4.694,1-4.594,1.165" transform="translate(3.476 118.117)" fill="#fff"/>
        <path id="Trazado_632024" data-name="Trazado 632024" d="M12.9,414.579c.095.209,2.11-.831,4.754-.54,2.65.233,4.422,1.648,4.557,1.461.061-.069-.292-.533-1.066-1.049a7.808,7.808,0,0,0-6.992-.691c-.862.355-1.3.739-1.252.819" transform="translate(3.615 115.833)" fill="#fff"/>
        <path id="Trazado_632025" data-name="Trazado 632025" d="M17.671,413.882a3.01,3.01,0,0,0,.133-1.317,9.228,9.228,0,0,0-.828-3.527,4.078,4.078,0,0,0-1.621-2.055,1.441,1.441,0,0,0-1.641.215,2.349,2.349,0,0,0-.653,1.543,5.067,5.067,0,0,0,4.132,4.963,5.876,5.876,0,0,0,5.96-2.7,2.04,2.04,0,0,0,.2-1.687,1.412,1.412,0,0,0-1.429-.841,4.987,4.987,0,0,0-2.376,1.047,10.256,10.256,0,0,0-2.558,2.561,3.136,3.136,0,0,0-.615,1.173,16.359,16.359,0,0,1,3.473-3.281,4.689,4.689,0,0,1,2.095-.863.753.753,0,0,1,.781.455,1.4,1.4,0,0,1-.2,1.1,5.246,5.246,0,0,1-5.193,2.28,4.4,4.4,0,0,1-3.569-4.164,1.705,1.705,0,0,1,.411-1.1.781.781,0,0,1,.9-.132,3.683,3.683,0,0,1,1.4,1.714,13.6,13.6,0,0,1,1.186,4.61" transform="translate(3.66 114.034)" fill="#fff"/>
        <path id="Trazado_632026" data-name="Trazado 632026" d="M123.387,209.687a124.233,124.233,0,0,1,2.712,36.548C125.5,254,99.292,468.864,99.292,468.864H63.905l9.947-201.942-2.9.629S51.639,353.678,50.063,367.623c-1.417,12.534-17.708,103.594-17.708,103.594L0,471.588,10.333,351.143,22.358,235.573l4.525-33.643Z" transform="translate(0 56.602)" fill="#263238"/>
        <path id="Trazado_632027" data-name="Trazado 632027" d="M56.678,247.845c-.015.018.061.1.229.242a2.438,2.438,0,0,0,.863.407,4.045,4.045,0,0,0,3.356-.794,6.646,6.646,0,0,0,2.29-4.573c.253-1.923.292-3.991.437-6.179.237-4.37.414-8.328.507-11.2a31.059,31.059,0,0,0,.009-4.648,31.2,31.2,0,0,0-.5,4.622c-.218,2.86-.471,6.814-.709,11.185-.142,2.178-.166,4.286-.376,6.129a6.293,6.293,0,0,1-1.959,4.274,3.911,3.911,0,0,1-3,.918,6.783,6.783,0,0,1-1.148-.387" transform="translate(15.887 61.977)" fill="#455a64"/>
        <path id="Trazado_632028" data-name="Trazado 632028" d="M16.018,227.79a2.9,2.9,0,0,0,.991.357,16.943,16.943,0,0,0,2.828.475,20.359,20.359,0,0,0,17.028-6.841,16.852,16.852,0,0,0,1.714-2.3,2.888,2.888,0,0,0,.467-.944c-.1-.065-.887,1.2-2.539,2.913a22.3,22.3,0,0,1-7.6,5.139,22.3,22.3,0,0,1-9.042,1.545c-2.375-.09-3.822-.462-3.849-.346" transform="translate(4.49 61.257)" fill="#455a64"/>
        <path id="Trazado_632029" data-name="Trazado 632029" d="M85.363,218.744A11.633,11.633,0,0,0,85.9,222.3a26.583,26.583,0,0,0,9.479,14.263,11.579,11.579,0,0,0,3.066,1.871c.16-.181-4.726-2.968-8.412-8.6-3.764-5.58-4.441-11.163-4.671-11.086" transform="translate(23.921 61.315)" fill="#455a64"/>
        <path id="Trazado_632030" data-name="Trazado 632030" d="M170.67,172.483l8.121,2.567,14.753-8.153,8.371,23.309-20.075,4.777-15.208-1.672Z" transform="translate(46.708 46.782)" fill="#ae7461"/>
        <path id="Trazado_632031" data-name="Trazado 632031" d="M96.014,98.163s8.3,4.98,15.168,21.9c13.5,33.244,21.976,51.189,21.976,51.189l61.968,19.573-4.95,24.84s-62.814-8.751-71.227-11.906c-11.507-4.315-20.042-27.012-20.042-27.012Z" transform="translate(26.913 27.516)" fill="#e0e0e0"/>
        <path id="Trazado_632032" data-name="Trazado 632032" d="M90.5,46.872a6.773,6.773,0,0,0,6.862-5.461,6.772,6.772,0,0,0-4.742-7.376,6.8,6.8,0,0,0-6.5-11.154,8.14,8.14,0,0,0-12.6-6.038,9.153,9.153,0,0,0-11.267.346,6.7,6.7,0,0,0-6.777,3.745,6.693,6.693,0,0,0,1.6,7.576" transform="translate(15.395 4.225)" fill="#263238"/>
        <path id="Trazado_632033" data-name="Trazado 632033" d="M64.38,21.838l1.435-.072A27.741,27.741,0,0,1,94.7,45.873c1.744,13.333,3.5,28.085,3.769,35.271.554,14.878-14.2,17.931-14.2,17.931l2.146,17.8-36.144.675L43.855,52.919c-2.1-15.373,5.1-29.409,20.525-31.081" transform="translate(12.193 6.092)" fill="#ae7461"/>
        <path id="Trazado_632034" data-name="Trazado 632034" d="M79.764,83.157A36.111,36.111,0,0,1,60,78.422s5.115,10.474,19.886,8.4Z" transform="translate(16.817 21.982)" fill="#6f4439"/>
        <path id="Trazado_632035" data-name="Trazado 632035" d="M80.239,51.7A2.126,2.126,0,0,1,78.3,53.946a2.033,2.033,0,0,1-2.284-1.807,2.126,2.126,0,0,1,1.938-2.244A2.034,2.034,0,0,1,80.239,51.7" transform="translate(21.305 13.982)" fill="#263238"/>
        <path id="Trazado_632036" data-name="Trazado 632036" d="M83.114,46.84c-.25.291-1.917-.821-4.2-.7-2.284.087-3.9,1.346-4.164,1.079-.129-.119.115-.632.818-1.2a5.844,5.844,0,0,1,3.317-1.206,5.608,5.608,0,0,1,3.362.9c.73.5.992.994.868,1.124" transform="translate(20.943 12.56)" fill="#263238"/>
        <path id="Trazado_632037" data-name="Trazado 632037" d="M63.957,52.15a2.125,2.125,0,0,1-1.941,2.243,2.032,2.032,0,0,1-2.284-1.805,2.129,2.129,0,0,1,1.938-2.246,2.036,2.036,0,0,1,2.287,1.808" transform="translate(16.741 14.108)" fill="#263238"/>
        <path id="Trazado_632038" data-name="Trazado 632038" d="M65.587,48.044c-.25.291-1.919-.821-4.2-.7-2.283.087-3.9,1.346-4.164,1.078-.128-.118.113-.631.819-1.2a5.83,5.83,0,0,1,3.316-1.2,5.6,5.6,0,0,1,3.362.9c.727.5.992.994.869,1.124" transform="translate(16.03 12.897)" fill="#263238"/>
        <path id="Trazado_632039" data-name="Trazado 632039" d="M71.324,64.671A15.11,15.11,0,0,1,75,63.817c.58-.09,1.127-.233,1.2-.636a2.979,2.979,0,0,0-.475-1.71q-.928-2.076-1.946-4.357c-2.712-6.207-4.7-11.323-4.453-11.429s2.652,4.837,5.362,11.044q.981,2.3,1.876,4.388a3.38,3.38,0,0,1,.416,2.275,1.466,1.466,0,0,1-.917.9,3.957,3.957,0,0,1-.985.186,14.956,14.956,0,0,1-3.762.193" transform="translate(19.428 12.805)" fill="#263238"/>
        <path id="Trazado_632040" data-name="Trazado 632040" d="M67.006,41.14c-.273.594-2.262.064-4.677.1-2.416-.013-4.425.543-4.676-.049-.109-.282.293-.823,1.139-1.33a7.232,7.232,0,0,1,3.58-.94,6.985,6.985,0,0,1,3.545.9c.826.5,1.209,1.034,1.088,1.317" transform="translate(16.156 10.911)" fill="#263238"/>
        <path id="Trazado_632041" data-name="Trazado 632041" d="M83.042,39.5c-.456.543-2.369.1-4.637.186-2.271.02-4.171.556-4.64.036-.207-.255.069-.79.883-1.323a7.389,7.389,0,0,1,3.727-1.037,7.285,7.285,0,0,1,3.75.859c.827.494,1.116,1.015.917,1.279" transform="translate(20.658 10.472)" fill="#263238"/>
        <path id="Trazado_632042" data-name="Trazado 632042" d="M93.728,39.543s-4.385-9.117-8.983-11.067c-5.567-2.361-7.61,3.722-12.863,2.531s-10.568-3.457-15.662.81c-5.577,4.672-2.71,7.611-2.74,14.227-.122,26.822-4.631,34.628-6.647,22.1-.22-1.372-4.106-2.28-4.964-8.084-1.111-7.526-1.859-16.694-.437-22.144,1.2-4.6,3.621-7.848,8.075-11.524,7.03-5.8,17.054-6.417,23.9-6.07s20.363,7.532,20.322,19.223" transform="translate(11.395 5.674)" fill="#263238"/>
        <path id="Trazado_632043" data-name="Trazado 632043" d="M48.373,58.116a4.04,4.04,0,0,0-4.551-3.673c-2.76.4-5.768,2.129-5.3,7.851.831,10.15,10.849,7.223,10.843,6.93,0-.2-.606-6.864-.991-11.108" transform="translate(10.784 15.249)" fill="#ae7461"/>
        <path id="Trazado_632044" data-name="Trazado 632044" d="M46.075,64.862c-.049-.028-.166.138-.456.3A1.769,1.769,0,0,1,44.3,65.3c-1.1-.306-2.146-1.935-2.346-3.76a5.848,5.848,0,0,1,.289-2.572A2.042,2.042,0,0,1,43.464,57.5a.9.9,0,0,1,1.083.4c.157.273.11.481.165.494.032.023.2-.188.087-.6a1.116,1.116,0,0,0-.451-.6,1.337,1.337,0,0,0-1-.179,2.5,2.5,0,0,0-1.717,1.725,6.013,6.013,0,0,0-.383,2.879c.233,2.04,1.435,3.868,2.937,4.173a1.9,1.9,0,0,0,1.6-.4c.293-.277.329-.508.292-.524" transform="translate(11.552 15.973)" fill="#6f4439"/>
        <path id="Trazado_632045" data-name="Trazado 632045" d="M47.825,48.744a9.673,9.673,0,0,0,4.4,1.775c1.6.078,3.374-.926,3.563-2.516.086-.713-.128-1.526.31-2.1.522-.68,1.557-.526,2.413-.479,2.972.166,6.262-3.269,6.873-6.181a2.656,2.656,0,0,0,3.581.558,9.512,9.512,0,0,0,2.342-2.3,4.189,4.189,0,0,1,3.4-1.919,10.122,10.122,0,0,0,2.235.378c1.329-.186,1.9-1.781,2.04-3.116s.216-2.888,1.311-3.666c1.015-.72,2.392-.4,3.63-.28s2.81-.247,3.065-1.465a2.416,2.416,0,0,0-.545-1.822,6.593,6.593,0,0,0-7.9-2.106,8.934,8.934,0,0,0-16.481-.915,9.069,9.069,0,0,0-14.314,4.021,6.573,6.573,0,0,0-6.926,9.917,6.241,6.241,0,0,0-3.183,5.134c.067,2.106,2.22,4.1,4.224,3.447a3.64,3.64,0,0,0,6.468,3.313" transform="translate(10.552 4.915)" fill="#263238"/>
        <path id="Trazado_632046" data-name="Trazado 632046" d="M79.244,24.508c.009,0,.01.063.006.187s-.005.307-.037.545a6.39,6.39,0,0,1-.641,2,7.281,7.281,0,0,1-2.134,2.515,6.778,6.778,0,0,1-4.1,1.4l.16-.234a3.679,3.679,0,0,1-.064,2.817,10.566,10.566,0,0,1-1.616,2.588,7.654,7.654,0,0,1-1.079,1.223,3.56,3.56,0,0,1-1.582.677,3.716,3.716,0,0,1-3.33-1.01l.375-.127a7.641,7.641,0,0,1-2.972,5.436,5.573,5.573,0,0,1-3.285,1.26,10.061,10.061,0,0,1-3.325-.558l.266-.133a8.032,8.032,0,0,1-2.251,3.257,4.275,4.275,0,0,1-3.494,1.141,5.609,5.609,0,0,1-4.53-4.169l.236.1a5.243,5.243,0,0,1-3.467.686,5.689,5.689,0,0,1-2.49-.965,4.9,4.9,0,0,1-1.2-1.186,2.43,2.43,0,0,1-.284-.513,6.135,6.135,0,0,0,1.577,1.557,5.641,5.641,0,0,0,2.426.863,5.014,5.014,0,0,0,3.269-.705l.186-.117.051.214A5.289,5.289,0,0,0,50.193,47.1a3.884,3.884,0,0,0,3.17-1.073,7.646,7.646,0,0,0,2.113-3.089l.07-.192.2.059a9.735,9.735,0,0,0,3.18.531,5.132,5.132,0,0,0,3.032-1.171,7.219,7.219,0,0,0,2.812-5.124l.04-.484.335.356a3.3,3.3,0,0,0,2.941.891,3.153,3.153,0,0,0,1.4-.588A7.466,7.466,0,0,0,70.5,36.069a10.273,10.273,0,0,0,1.582-2.477,3.343,3.343,0,0,0,.095-2.552l-.095-.238.256,0a6.542,6.542,0,0,0,3.937-1.274A7.247,7.247,0,0,0,78.4,27.147a7.88,7.88,0,0,0,.84-2.639" transform="translate(10.764 6.87)" fill="#455a64"/>
        <path id="Trazado_632047" data-name="Trazado 632047" d="M72.582,67.882c-.076-.376-2.55.27-4.864-1.384s-2.736-4.359-3.087-4.288c-.164.006-.325.713-.063,1.835A6.372,6.372,0,0,0,67,67.662a5.548,5.548,0,0,0,4.037,1c1.06-.178,1.6-.616,1.54-.781" transform="translate(18.06 17.438)" fill="#263238"/>
        <path id="Trazado_632048" data-name="Trazado 632048" d="M150.04,152.928c-.227-.8-13.464-36.834-17.687-44.722C127.3,98.771,116.679,94.6,110.086,94.192s-77.147,5.216-77.147,5.216-21.074,4.722-23.76,22.846c-3.092,20.865-5.8,68.631-5.8,68.631l32.114-16.46,4.16-10.475,66.443,14.823,16.224-24Z" transform="translate(0.947 26.397)" fill="#e0e0e0"/>
        <path id="Trazado_632049" data-name="Trazado 632049" d="M23.941,105.128,51.5,92.978l3.088-11.885L86.756,96.3l6.738-7.444,2.822,8.39,7.049,2.3,16.475,28.976-.051,61.744,3.334,53.262-3.572,8.407-29.514,4.354a33.615,33.615,0,0,1-9.735.012L20.4,246.511l-1.544-17.6,6.4-48.5Z" transform="translate(5.284 22.731)" fill="#e0e0e0"/>
        <path id="Trazado_632050" data-name="Trazado 632050" d="M47.387,81.093s3.6,1.041,12.834,5.97C69.27,91.891,79.555,96.3,79.555,96.3l-.782,14.526L44.54,93.64" transform="translate(12.485 22.731)" fill="#e0e0e0"/>
        <path id="Trazado_632051" data-name="Trazado 632051" d="M78.628,87.157,71.889,94.6l3.6,15.57,6-14.073" transform="translate(20.151 24.431)" fill="#e0e0e0"/>
        <g id="Grupo_880033" data-name="Grupo 880033" transform="translate(60.02 117.875)" opacity="0.3">
          <g id="Grupo_880032" data-name="Grupo 880032">
            <g id="Grupo_880031" data-name="Grupo 880031" clip-path="url(#clip-path-8)">
              <path id="Trazado_632052" data-name="Trazado 632052" d="M79.025,94.832c.3.223,2.169,17.969,2.169,17.969L46.879,92.068,78.117,107.75Z" transform="translate(-46.88 -92.068)"/>
            </g>
          </g>
        </g>
        <path id="Trazado_632053" data-name="Trazado 632053" d="M71.824,156.669c-.515-13.574,1.625-48.2,1.625-48.2l4.472-.721A505.466,505.466,0,0,1,89.4,182.659c1.264,16.694,1.264,36.029,1.264,36.029l-8.985,19.285-9.931-19.16s.707-45.651.081-62.145" transform="translate(20.11 30.202)" fill="#2b95f9"/>
        <path id="Trazado_632054" data-name="Trazado 632054" d="M21.225,101.507c-.052.067.93.832,2.319,2.264a28.649,28.649,0,0,1,4.58,6.257,28.727,28.727,0,0,1,2.694,7.272c.426,1.949.522,3.189.608,3.183a3.115,3.115,0,0,0,.008-.877,18.2,18.2,0,0,0-.286-2.371,25.309,25.309,0,0,0-7.366-13.7,18.184,18.184,0,0,0-1.821-1.547,3.118,3.118,0,0,0-.736-.478" transform="translate(5.949 28.452)" fill="#263238"/>
        <path id="Trazado_632055" data-name="Trazado 632055" d="M71.954,98.659l3.064-1.2,2.905,4.983.525,8.184-4.092.659-3.077-5.051Z" transform="translate(19.98 27.319)" fill="#2b95f9"/>
        <path id="Trazado_632056" data-name="Trazado 632056" d="M97.742,117.414c-.132,0-.238,17.717-.238,39.567s.106,39.569.238,39.569.238-17.713.238-39.569-.106-39.567-.238-39.567" transform="translate(27.331 32.912)" fill="#263238"/>
        <path id="Trazado_632057" data-name="Trazado 632057" d="M71.638,92.873c-.059.041.661,1.141,1.748,2.96s2.525,4.371,3.895,7.3c.113.241.223.479.326.7l.214.461.216-.457A57.134,57.134,0,0,0,80.9,96.58c.3-.944.51-1.713.64-2.247a2.949,2.949,0,0,0,.154-.842c-.065-.018-.433,1.133-1.1,2.986s-1.667,4.4-2.986,7.153l.431,0c-.1-.225-.215-.465-.328-.707a60.471,60.471,0,0,0-4.041-7.271c-.583-.892-1.079-1.6-1.435-2.073a3.424,3.424,0,0,0-.6-.709" transform="translate(20.08 26.033)" fill="#263238"/>
        <path id="Trazado_632058" data-name="Trazado 632058" d="M44.352,90.376a2.45,2.45,0,0,0,.47.282c.364.191.823.431,1.389.726l5.114,2.65c4.315,2.244,10.223,5.441,16.771,8.939,3.988,2.125,7.765,4.093,11.05,5.737l.3.152,0-.337c.042-4.261.077-7.852.1-10.449,0-1.22,0-2.2-.005-2.946a6.242,6.242,0,0,0-.047-1.046,6.267,6.267,0,0,0-.085,1.045c-.028.739-.067,1.723-.113,2.942-.068,2.6-.163,6.186-.274,10.446l.306-.184c-3.266-1.673-7.03-3.657-11.017-5.781-6.545-3.5-12.484-6.65-16.841-8.82-2.177-1.087-3.951-1.941-5.185-2.515l-1.429-.647a2.29,2.29,0,0,0-.512-.2" transform="translate(12.432 25.333)" fill="#263238"/>
        <path id="Trazado_632059" data-name="Trazado 632059" d="M94.458,99.119c-.069.042.47.954,1.163,2.507A27.643,27.643,0,0,1,98,114.541c-.095,1.7-.274,2.741-.195,2.755a2.291,2.291,0,0,0,.214-.717,16.572,16.572,0,0,0,.318-2.013,23.979,23.979,0,0,0-2.407-13.085,16.433,16.433,0,0,0-1.011-1.768c-.268-.4-.428-.612-.456-.594" transform="translate(26.476 27.784)" fill="#263238"/>
        <path id="Trazado_632060" data-name="Trazado 632060" d="M74.266,109.125c.07.111.849-.254,1.737-.816s1.554-1.107,1.484-1.219-.849.253-1.739.816-1.553,1.107-1.483,1.219" transform="translate(20.816 30.013)" fill="#263238"/>
        <path id="Trazado_632061" data-name="Trazado 632061" d="M73.119,108.969a22.628,22.628,0,0,0,2.081-4.142,22.655,22.655,0,0,0,1.644-4.335,22.713,22.713,0,0,0-2.08,4.143,22.8,22.8,0,0,0-1.644,4.334" transform="translate(20.492 28.168)" fill="#263238"/>
        <path id="Trazado_632062" data-name="Trazado 632062" d="M22.939,102.244s-10.618,7.642-11.945,11.865-6.969,72.839-7.964,81-1.991,23.427,4.313,28.4,19.909,8.71,19.909,8.71l12.569-25.965-6.658-13.936,6.658-52.114Z" transform="translate(0.643 28.66)" fill="#e0e0e0"/>
        <path id="Trazado_632063" data-name="Trazado 632063" d="M19.422,223.445a3.358,3.358,0,0,1,.68-.05,16.586,16.586,0,0,0,1.952-.125,14.48,14.48,0,0,0,6.793-2.457,18.611,18.611,0,0,0,6.48-8.869,40.682,40.682,0,0,0,2.457-13.967l.059.178-9.751-13.5-.077-.106.017-.132c.044-.346.091-.721.14-1.1,1.876-14.616,3.573-27.843,4.813-37.492.616-4.747,1.118-8.611,1.474-11.359q.255-1.94.4-3.087a7.086,7.086,0,0,1,.157-1.075.847.847,0,0,1,.012.277c-.005.182-.01.456-.035.812q-.1,1.154-.28,3.1c-.269,2.692-.7,6.583-1.264,11.387-1.122,9.609-2.754,22.874-4.621,37.519-.047.375-.095.75-.14,1.1l-.06-.237,9.721,13.523.06.085v.093a40.656,40.656,0,0,1-2.59,14.172,18.83,18.83,0,0,1-6.757,9,13.1,13.1,0,0,1-3.87,1.791l-.869.241-.819.141a9.1,9.1,0,0,1-1.433.17,12.7,12.7,0,0,1-1.974.024,3.263,3.263,0,0,1-.677-.056" transform="translate(5.444 36.526)" fill="#263238"/>
        <path id="Trazado_632064" data-name="Trazado 632064" d="M9.4,177.524a11.078,11.078,0,0,1,2.787-1.982,26.01,26.01,0,0,1,16.018-3.112,11.123,11.123,0,0,1,3.326.794c-.015.232-5.18-1.136-11.459.128C13.779,174.53,9.5,177.732,9.4,177.524" transform="translate(2.635 48.274)" fill="#263238"/>
        <path id="Trazado_632065" data-name="Trazado 632065" d="M86.32,141.29h0c.037-.005.606,2.278,1.575,6.3a28.358,28.358,0,0,1,8.185-7.83l-.04.008s16.393-16.284,21.63-33.408c3.8-12.43,2.854-26.2,2.854-26.2-.152-.657-1.431-6.5-2.476-11.273a7.481,7.481,0,0,1,5.407-8.812c8.139-2.193,30.177-6.482,35.231,8.318,7.542,22.084-4.65,45.937-4.518,52.763.024,1.289.045,2.334.061,3.183,6.46-1.5,11.47-2.572,11.5-2.463l-.008,0,42.433-9.9s14.019-4.243,18.828,10.13-11.506,19.15-11.506,19.15,7.668-.338,9.752,12.734-11.935,17.314-11.935,17.314,8.587-.553,10.808,11.034c2.162,11.278-11.854,18.075-12.6,18.43a27.708,27.708,0,0,1,3.381-.635,19,19,0,0,1-2.572.74c6.536.836,7.483,8.619,7.483,8.619,4.212,15.964-8.079,19.319-8.079,19.319l-77.471,18.093a44.586,44.586,0,0,1-23.355-.848c.743,3.3,1.145,5.16,1.114,5.17L57.885,263.866c-.118.027-5.96-24.563-13.049-54.917s-12.743-54.993-12.626-55.021Z" transform="translate(9.028 16.193)" fill="#ffb338"/>
        <g id="Grupo_880036" data-name="Grupo 880036" transform="translate(41.235 73.959)" opacity="0.3">
          <g id="Grupo_880035" data-name="Grupo 880035">
            <g id="Grupo_880034" data-name="Grupo 880034" clip-path="url(#clip-path-9)">
              <path id="Trazado_632066" data-name="Trazado 632066" d="M86.32,141.29h0c.037-.005.606,2.278,1.575,6.3a28.358,28.358,0,0,1,8.185-7.83l-.04.008s16.393-16.284,21.63-33.408c3.8-12.43,2.854-26.2,2.854-26.2-.152-.657-1.431-6.5-2.476-11.273a7.481,7.481,0,0,1,5.407-8.812c8.139-2.193,30.177-6.482,35.231,8.318,7.542,22.084-4.65,45.937-4.518,52.763.024,1.289.045,2.334.061,3.183,6.46-1.5,11.47-2.572,11.5-2.463l-.008,0,42.433-9.9s14.019-4.243,18.828,10.13-11.506,19.15-11.506,19.15,7.668-.338,9.752,12.734-11.935,17.314-11.935,17.314,8.587-.553,10.808,11.034c2.162,11.278-11.854,18.075-12.6,18.43a27.708,27.708,0,0,1,3.381-.635,19,19,0,0,1-2.572.74c6.536.836,7.483,8.619,7.483,8.619,4.212,15.964-8.079,19.319-8.079,19.319l-77.471,18.093a44.586,44.586,0,0,1-23.355-.848c.743,3.3,1.145,5.16,1.114,5.17L57.885,263.866c-.118.027-5.96-24.563-13.049-54.917s-12.743-54.993-12.626-55.021Z" transform="translate(-32.208 -57.767)"/>
            </g>
          </g>
        </g>
        <path id="Trazado_632067" data-name="Trazado 632067" d="M82.874,145.583l-1.05,7.034,17.3,74.07a44.6,44.6,0,0,0,34.821,6.279l77.471-18.092s12.29-3.354,8.077-19.319c0,0-1.011-8.479-8.328-8.707,0,0,14.862-6.86,12.64-18.447s-10.81-11.034-10.81-11.034,14.021-4.243,11.936-17.314-9.753-12.734-9.753-12.734,16.316-4.778,11.507-19.151S207.855,98.04,207.855,98.04l-55.1,12.857-48.3,11.281a28.328,28.328,0,0,0-21.576,23.405" transform="translate(22.936 27.317)" fill="#ffb338"/>
        <path id="Trazado_632068" data-name="Trazado 632068" d="M92.7,137.185s16.393-16.284,21.63-33.408c3.8-12.429,2.855-26.2,2.855-26.2-.154-.657-1.433-6.495-2.476-11.273a7.479,7.479,0,0,1,5.407-8.812c8.139-2.193,22.825,1.853,27.88,16.653,7.542,22.085,2.7,37.6,2.832,44.429l.132,6.823Z" transform="translate(25.984 15.96)" fill="#ffb338"/>
        <rect id="Rectángulo_329237" data-name="Rectángulo 329237" width="55.567" height="112.896" transform="matrix(0.974, -0.227, 0.227, 0.974, 54.85, 167.306)" fill="#ffb338"/>
        <path id="Trazado_632069" data-name="Trazado 632069" d="M110.781,230.743c.117-.027-5.536-24.663-12.625-55.016s-12.932-54.949-13.05-54.921,5.535,24.656,12.626,55.021,12.932,54.943,13.049,54.916" transform="translate(23.855 33.863)" fill="#263238"/>
        <path id="Trazado_632070" data-name="Trazado 632070" d="M68.517,240.614c.117-.027-5.536-24.663-12.625-55.016s-12.932-54.95-13.05-54.921,5.535,24.656,12.626,55.021S68.4,240.641,68.517,240.614" transform="translate(12.008 36.63)" fill="#263238"/>
        <path id="Trazado_632071" data-name="Trazado 632071" d="M79.269,145.705a10.4,10.4,0,1,1-12.489-7.76,10.4,10.4,0,0,1,12.489,7.76" transform="translate(16.466 38.59)" fill="#fff"/>
        <path id="Trazado_632072" data-name="Trazado 632072" d="M152.895,105.644c-.027-.117-5.95,1.165-13.226,2.865s-13.155,3.171-13.127,3.289,5.948-1.165,13.226-2.865,13.154-3.173,13.127-3.289" transform="translate(35.471 29.611)" fill="#263238"/>
        <path id="Trazado_632073" data-name="Trazado 632073" d="M188.916,144.46a86.094,86.094,0,0,0-8.471,1.755,85.456,85.456,0,0,0-8.373,2.179c.027.117,3.819-.67,8.472-1.755a86.164,86.164,0,0,0,8.372-2.179" transform="translate(48.233 40.49)" fill="#263238"/>
        <path id="Trazado_632074" data-name="Trazado 632074" d="M192,120.38c-.027-.117-5.4,1.038-12,2.58s-11.932,2.887-11.9,3,5.4-1.038,12-2.58,11.931-2.887,11.9-3" transform="translate(47.117 33.741)" fill="#263238"/>
        <path id="Trazado_632075" data-name="Trazado 632075" d="M190.749,166.769c-.027-.117-5.4,1.038-12,2.58s-11.932,2.887-11.9,3,5.4-1.037,12-2.58,11.931-2.886,11.9-3" transform="translate(46.767 46.744)" fill="#263238"/>
        <g id="Grupo_880039" data-name="Grupo 880039" transform="translate(144.981 76.817)" opacity="0.3">
          <g id="Grupo_880038" data-name="Grupo 880038">
            <g id="Grupo_880037" data-name="Grupo 880037" clip-path="url(#clip-path-10)">
              <path id="Trazado_632076" data-name="Trazado 632076" d="M114.815,62.081c-1.684,1.572-1.878,4.23-1.239,6.442s1.956,4.157,2.958,6.23a23.436,23.436,0,0,1,1.81,14.893c-.321,1.521-.744,3.283.23,4.494,1.383,1.717,4.173.763,5.916-.584A22.118,22.118,0,0,0,132.244,71.2a15.55,15.55,0,0,0-5.462-8.792c-2.824-2.1-7.168-4-11.967-.323" transform="translate(-113.239 -59.999)" fill="#fff"/>
            </g>
          </g>
        </g>
        <g id="Grupo_880042" data-name="Grupo 880042" transform="translate(186.933 127.145)" opacity="0.3">
          <g id="Grupo_880041" data-name="Grupo 880041">
            <g id="Grupo_880040" data-name="Grupo 880040" clip-path="url(#clip-path-11)">
              <path id="Trazado_632077" data-name="Trazado 632077" d="M194.933,99.436a13.316,13.316,0,0,0-5.722.59l-32.7,8.305c-3.566.905-10.255,1.712-10.323,5.35-.721,1.987.793,4.231,2.742,5.046s4.166.566,6.253.232c4.374-.7,8.689-1.717,13-2.746,8.656-2.068,17.34-4.2,25.557-7.615a11.932,11.932,0,0,0,3.438-1.936,4.424,4.424,0,0,0,1.62-3.467c-.128-1.929-1.963-3.394-3.863-3.759" transform="translate(-146.006 -99.308)" fill="#fff"/>
            </g>
          </g>
        </g>
        <path id="Trazado_632078" data-name="Trazado 632078" d="M83.1,125.569c-.027-.117-7.611,1.554-16.936,3.732s-16.865,4.038-16.839,4.156,7.609-1.554,16.937-3.732,16.864-4.039,16.837-4.156" transform="translate(13.827 35.196)" fill="#fff"/>
        <path id="Trazado_632079" data-name="Trazado 632079" d="M191.029,138.543a2,2,0,0,0,.214-.64,9.59,9.59,0,0,0,.28-1.817,12.953,12.953,0,0,0-.1-2.732,14,14,0,0,0-2.476-6.176,12.962,12.962,0,0,0-1.815-2.043,9.691,9.691,0,0,0-1.457-1.122c-.37-.227-.581-.339-.6-.314-.046.068.762.583,1.841,1.657a14.914,14.914,0,0,1,1.7,2.051,14.87,14.87,0,0,1,2.408,6.008,14.737,14.737,0,0,1,.187,2.657c-.037,1.522-.268,2.453-.187,2.471" transform="translate(51.879 34.673)" fill="#fff"/>
        <path id="Trazado_632080" data-name="Trazado 632080" d="M191.062,114.5a4.009,4.009,0,0,0,1.019-1.454,8.6,8.6,0,0,0-.542-8.293,4.017,4.017,0,0,0-1.2-1.31c-.058.054.41.543.937,1.47a9.32,9.32,0,0,1,.524,8.007c-.4.988-.8,1.534-.739,1.58" transform="translate(53.352 28.996)" fill="#fff"/>
        <path id="Trazado_632081" data-name="Trazado 632081" d="M187.866,162.912a4.235,4.235,0,0,0,1.456-1.437,7.394,7.394,0,0,0-.566-9.268,4.237,4.237,0,0,0-1.618-1.248c-.047.063.613.489,1.384,1.448a7.575,7.575,0,0,1,.543,8.9c-.648,1.046-1.252,1.549-1.2,1.606" transform="translate(52.455 42.314)" fill="#fff"/>
        <path id="Trazado_632082" data-name="Trazado 632082" d="M183.979,185.227a4.427,4.427,0,0,0,.981-1.54,9.752,9.752,0,0,0-.373-8.586,4.438,4.438,0,0,0-1.11-1.449c-.061.047.362.6.837,1.59a10.753,10.753,0,0,1,.361,8.328c-.387,1.029-.761,1.616-.7,1.657" transform="translate(51.428 48.675)" fill="#fff"/>
        <path id="Trazado_632083" data-name="Trazado 632083" d="M137.685,97.525a7.281,7.281,0,0,0,.324-1.252c.095-.406.2-.905.279-1.49s.21-1.25.266-1.993a38.859,38.859,0,0,0,.192-5.231A40.045,40.045,0,0,0,136.317,75a38.968,38.968,0,0,0-2.132-4.782c-.33-.668-.693-1.238-.991-1.749s-.576-.938-.816-1.279a7.392,7.392,0,0,0-.767-1.041,7.247,7.247,0,0,0,.624,1.132c.216.352.476.787.749,1.31s.617,1.095.927,1.768a43.163,43.163,0,0,1,2.028,4.778,42.471,42.471,0,0,1,2.407,12.432,43.11,43.11,0,0,1-.1,5.189c-.036.74-.137,1.4-.2,1.987s-.137,1.086-.206,1.494a7.4,7.4,0,0,0-.156,1.283" transform="translate(36.891 18.543)" fill="#fff"/>
        <path id="Trazado_632084" data-name="Trazado 632084" d="M42,192.855s4.256-3.294,7.412-3.431,7.275,1.1,8.1.686,2.745-2.217,3.98-.7,2.745,7.011-3.843,8.522h-4.53s.549,4.53,1.648,6.313,16.471,21.139,16.471,21.139,1.922,1.922.96,3.843-5.079.823-5.079.823-2.882,2.608-6.176,1.372a23.148,23.148,0,0,1-4.667-2.2,6.106,6.106,0,0,1-7.412,0c-3.843-2.883-16.659-18.943-16.659-18.943l4.58-17.981Z" transform="translate(9.028 52.926)" fill="#ae7461"/>
        <path id="Trazado_632085" data-name="Trazado 632085" d="M32.94,183.673,46.281,194.3l-9.8,17.431-19.536-7.093s.561-20.587,15.991-20.961" transform="translate(4.751 51.485)" fill="#ae7461"/>
        <path id="Trazado_632086" data-name="Trazado 632086" d="M193.474,166s-.421-4.777-3.092-3.794-3.794,6.6-3.794,6.6Z" transform="translate(52.302 45.429)" fill="#ae7461"/>
        <path id="Trazado_632087" data-name="Trazado 632087" d="M184.718,169.867s4.637-5.2,11.1-4.777,2.389,5.9,2.389,5.9,4.782,2.951,1.268,7.166l-.566,1.124s4.075,1.545-.14,5.9c0,0,1.545,2.81-.562,4.918s-7.377-.7-7.377-.7-4.847,1.124-5.27-.844a3.754,3.754,0,0,1,1.124-3.653c.423-.28,2.951-1.265,2.951-1.265s-5.621.7-5.761-.7-.7-2.951,3.513-4.357l2.248-.6s-5.828.181-5.865-1.224-.318-1.968,1.79-2.951a32.156,32.156,0,0,0,3.795-2.107s-5.481,1.124-4.637-1.827" transform="translate(51.503 46.269)" fill="#ae7461"/>
        <path id="Trazado_632088" data-name="Trazado 632088" d="M183.7,174.133c.109.16,2.737-2.4,6.952-3.559,4.2-1.221,7.778-.415,7.787-.607a6.263,6.263,0,0,0-2.3-.493,15.9,15.9,0,0,0-10.746,3.037,6.3,6.3,0,0,0-1.7,1.622" transform="translate(51.491 47.488)" fill="#6f4439"/>
        <path id="Trazado_632089" data-name="Trazado 632089" d="M184.363,180.675c.033-.04-.137-.178-.271-.5a2.187,2.187,0,0,1,.014-1.461,3.282,3.282,0,0,1,1.271-1.763,7.328,7.328,0,0,1,2.57-1.072c3.988-.922,7.364-.705,7.366-.886a6.382,6.382,0,0,0-2.2-.245,22.526,22.526,0,0,0-5.307.568,7.3,7.3,0,0,0-2.749,1.2,3.549,3.549,0,0,0-1.351,2.088,2.215,2.215,0,0,0,.182,1.668c.229.347.46.421.471.4" transform="translate(51.473 48.982)" fill="#6f4439"/>
        <path id="Trazado_632090" data-name="Trazado 632090" d="M186.409,185.537c.015-.045-.2-.125-.489-.394a2.385,2.385,0,0,1,.125-3.517,9.58,9.58,0,0,1,2.758-1.278,18.383,18.383,0,0,1,5.63-.3,6.959,6.959,0,0,0,2.4-.127,16.93,16.93,0,0,0-2.37-.28,15.5,15.5,0,0,0-5.819.149,9.21,9.21,0,0,0-2.94,1.426,2.594,2.594,0,0,0-.825,1.261,3.07,3.07,0,0,0-.059,1.293,2.351,2.351,0,0,0,.963,1.547c.367.243.622.248.629.218" transform="translate(51.794 50.296)" fill="#6f4439"/>
        <path id="Trazado_632091" data-name="Trazado 632091" d="M184.445,170.166c.042,0,.123-.177.412-.44a12.812,12.812,0,0,1,1.279-1.038,18.33,18.33,0,0,1,4.761-2.561,12.3,12.3,0,0,1,5.308-.771,20.377,20.377,0,0,1,2.161.618,3.83,3.83,0,0,0-2.087-1.02,11.066,11.066,0,0,0-5.55.62c-4.2,1.507-6.635,4.4-6.285,4.592" transform="translate(51.692 46.195)" fill="#6f4439"/>
      </g>
    </g>
  </g>
</svg>
