<svg xmlns="http://www.w3.org/2000/svg" xmlns:xlink="http://www.w3.org/1999/xlink" width="344.625" height="358.184" viewBox="0 0 344.625 358.184">
  <defs>
    <clipPath id="clip-path">
      <rect id="Rectángulo_329170" data-name="Rectángulo 329170" width="344.625" height="358.184" fill="none"/>
    </clipPath>
    <clipPath id="clip-path-2">
      <rect id="Rectángulo_329158" data-name="Rectángulo 329158" width="344.625" height="358.185" fill="none"/>
    </clipPath>
    <clipPath id="clip-path-6">
      <rect id="Rectángulo_329161" data-name="Rectángulo 329161" width="9.587" height="11.227" fill="none"/>
    </clipPath>
    <clipPath id="clip-path-7">
      <rect id="Rectángulo_329162" data-name="Rectángulo 329162" width="10.017" height="1.804" fill="none"/>
    </clipPath>
    <clipPath id="clip-path-12">
      <rect id="Rectángulo_329167" data-name="Rectángulo 329167" width="51.268" height="39.599" fill="none"/>
    </clipPath>
  </defs>
  <g id="Grupo_879872" data-name="Grupo 879872" transform="translate(0 -12)">
    <g id="Grupo_879871" data-name="Grupo 879871" transform="translate(0 12)" clip-path="url(#clip-path)">
      <g id="Grupo_879843" data-name="Grupo 879843" transform="translate(0 -0.001)">
        <g id="Grupo_879842" data-name="Grupo 879842" clip-path="url(#clip-path-2)">
          <path id="Trazado_631676" data-name="Trazado 631676" d="M357.579,52.26l9.448,13.508a2.548,2.548,0,0,0,4.224-.07l9.144-14.049Z" transform="translate(-72.2 -10.428)" fill="#e0e0e0"/>
          <path id="Trazado_631677" data-name="Trazado 631677" d="M377.21,54.167H354.289a9.228,9.228,0,0,1-9.229-9.229V33.3a9.228,9.228,0,0,1,9.229-9.227H377.21a9.229,9.229,0,0,1,9.229,9.227V44.938a9.229,9.229,0,0,1-9.229,9.229" transform="translate(-69.673 -4.86)" fill="#e0e0e0"/>
          <path id="Trazado_631678" data-name="Trazado 631678" d="M377.248,38.837c-1.326-2.424-3.526-2.8-5-2.248a5.1,5.1,0,0,0-2.441,2.248,5.1,5.1,0,0,0-2.441-2.248c-1.479-.552-3.678-.176-5,2.248C359.589,43.9,369.8,50.483,369.8,50.483s10.214-6.587,7.445-11.646" transform="translate(-73.069 -7.342)" fill="#fff"/>
          <path id="Trazado_631679" data-name="Trazado 631679" d="M47.924,40.974,56.551,53.31a2.327,2.327,0,0,0,3.857-.065l8.35-12.829Z" transform="translate(-9.677 -8.16)" fill="#e0e0e0"/>
          <path id="Trazado_631680" data-name="Trazado 631680" d="M65.05,42.715H45.721a9.229,9.229,0,0,1-9.229-9.229V24.463a9.229,9.229,0,0,1,9.229-9.228H65.05a9.229,9.229,0,0,1,9.229,9.228v9.022a9.229,9.229,0,0,1-9.229,9.229" transform="translate(-7.368 -3.075)" fill="#e0e0e0"/>
          <path id="Trazado_631681" data-name="Trazado 631681" d="M65.887,28.715a3.721,3.721,0,0,0-4.57-2.053,4.654,4.654,0,0,0-2.229,2.053,4.658,4.658,0,0,0-2.23-2.053,3.72,3.72,0,0,0-4.569,2.053c-2.528,4.621,6.8,10.635,6.8,10.635s9.326-6.014,6.8-10.635" transform="translate(-10.47 -5.342)" fill="#fff"/>
          <path id="Trazado_631682" data-name="Trazado 631682" d="M18.909,314.931l8.627,12.336a2.327,2.327,0,0,0,3.857-.065l8.35-12.829Z" transform="translate(-3.818 -63.476)" fill="#e0e0e0"/>
          <path id="Trazado_631683" data-name="Trazado 631683" d="M36.035,316.672H16.706a9.229,9.229,0,0,1-9.229-9.229V298.42a9.229,9.229,0,0,1,9.229-9.228H36.035a9.229,9.229,0,0,1,9.229,9.228v9.022a9.229,9.229,0,0,1-9.229,9.229" transform="translate(-1.51 -58.391)" fill="#e0e0e0"/>
          <path id="Trazado_631684" data-name="Trazado 631684" d="M36.871,302.673a3.721,3.721,0,0,0-4.57-2.053,4.654,4.654,0,0,0-2.229,2.053,4.658,4.658,0,0,0-2.23-2.053,3.72,3.72,0,0,0-4.569,2.053c-2.528,4.62,6.8,10.634,6.8,10.634s9.326-6.014,6.8-10.634" transform="translate(-4.611 -60.657)" fill="#fff"/>
          <path id="Trazado_631685" data-name="Trazado 631685" d="M15.365,192.008l10.081,14.413a2.719,2.719,0,0,0,4.507-.075l9.757-14.99Z" transform="translate(-3.102 -38.637)" fill="#e0e0e0"/>
          <path id="Trazado_631686" data-name="Trazado 631686" d="M36.931,194.043H11.236a9.228,9.228,0,0,1-9.228-9.228V171.162a9.228,9.228,0,0,1,9.228-9.228H36.931a9.229,9.229,0,0,1,9.229,9.228v13.652a9.229,9.229,0,0,1-9.229,9.228" transform="translate(-0.405 -32.696)" fill="#e0e0e0"/>
          <path id="Trazado_631687" data-name="Trazado 631687" d="M36.353,177.685c-1.415-2.587-3.762-2.989-5.339-2.4a5.44,5.44,0,0,0-2.6,2.4,5.445,5.445,0,0,0-2.6-2.4c-1.578-.59-3.924-.188-5.339,2.4-2.954,5.4,7.944,12.426,7.944,12.426s10.9-7.028,7.944-12.426" transform="translate(-4.03 -35.344)" fill="#fff"/>
          <path id="Trazado_631688" data-name="Trazado 631688" d="M373.985,256.374l10.081,14.413a2.719,2.719,0,0,0,4.507-.075l9.757-14.99Z" transform="translate(-75.513 -51.633)" fill="#e0e0e0"/>
          <path id="Trazado_631689" data-name="Trazado 631689" d="M395.551,258.409H369.856a9.229,9.229,0,0,1-9.228-9.229V235.528a9.228,9.228,0,0,1,9.228-9.228h25.694a9.229,9.229,0,0,1,9.229,9.228V249.18a9.229,9.229,0,0,1-9.229,9.229" transform="translate(-72.816 -45.692)" fill="#e0e0e0"/>
          <path id="Trazado_631690" data-name="Trazado 631690" d="M394.974,242.051c-1.415-2.587-3.762-2.989-5.339-2.4a5.44,5.44,0,0,0-2.6,2.4,5.445,5.445,0,0,0-2.6-2.4c-1.578-.59-3.924-.188-5.339,2.4-2.954,5.4,7.944,12.425,7.944,12.425s10.9-7.027,7.944-12.425" transform="translate(-76.44 -48.34)" fill="#fff"/>
          <path id="Trazado_631691" data-name="Trazado 631691" d="M408.148,129.031l2.176.508,6.294-5.509,1.014-4.343s3.412.579,1.689,6.173-.958,4.247-.958,4.247,7.135,1.694,7.583,2.453c.326.551-1.134,7.691-1.958,11.556a4.278,4.278,0,0,1-3.931,3.507,3.184,3.184,0,0,1-.793-.077c-1.781-.416-10.544-3.988-10.544-3.988l-3.759-.878Z" transform="translate(-81.767 -24.166)" fill="#e0e0e0"/>
          <path id="Trazado_631692" data-name="Trazado 631692" d="M400.957,128.078l-2.136,15.2,3.727.87,3.4-14.583Z" transform="translate(-80.527 -25.86)" fill="#e0e0e0"/>
          <path id="Trazado_631693" data-name="Trazado 631693" d="M18.178,95.715l-2.217.279L10.274,89.86l-.557-4.425S6.263,85.656,7.4,91.4s.512,4.323.512,4.323-7.273.944-7.8,1.653c-.382.514.329,7.767.746,11.7a4.279,4.279,0,0,0,3.546,3.9,3.209,3.209,0,0,0,.8.006c1.815-.228,10.9-2.871,10.9-2.871l3.83-.482Z" transform="translate(0 -17.25)" fill="#e0e0e0"/>
          <path id="Trazado_631694" data-name="Trazado 631694" d="M29.242,95.792l.545,15.335-3.8.478L24.119,96.747Z" transform="translate(-4.87 -19.341)" fill="#e0e0e0"/>
          <path id="Trazado_631695" data-name="Trazado 631695" d="M404.4,330.166l2.093-.784,2.184-8.074-1.563-4.177s3.16-1.409,4.827,4.2S413.5,325.4,413.5,325.4s6.878-2.544,7.672-2.161c.577.278,3.318,7.03,4.776,10.7a4.279,4.279,0,0,1-1.328,5.1,3.229,3.229,0,0,1-.7.376c-1.713.641-10.986,2.525-10.986,2.525l-3.615,1.353Z" transform="translate(-81.654 -64.001)" fill="#e0e0e0"/>
          <path id="Trazado_631696" data-name="Trazado 631696" d="M396.355,334.489,403,348.321l3.584-1.342-5.251-14.025Z" transform="translate(-80.03 -67.227)" fill="#e0e0e0"/>
          <path id="Trazado_631697" data-name="Trazado 631697" d="M45.056,257.293H62.509s-1.686-6.691-8.83-6.691a8.378,8.378,0,0,0-8.623,6.691" transform="translate(-9.097 -50.599)" fill="#e0e0e0"/>
          <path id="Trazado_631698" data-name="Trazado 631698" d="M59.549,242.3a4.791,4.791,0,1,1-4.791-4.791,4.791,4.791,0,0,1,4.791,4.791" transform="translate(-10.089 -47.955)" fill="#e0e0e0"/>
        </g>
      </g>
      <g id="Grupo_879845" data-name="Grupo 879845" transform="translate(0 -0.001)">
        <g id="Grupo_879844" data-name="Grupo 879844" clip-path="url(#clip-path-2)">
          <path id="Trazado_631699" data-name="Trazado 631699" d="M344.591,448.492c0,.115-74.667.207-166.753.207-92.118,0-166.77-.093-166.77-.207s74.651-.208,166.77-.208c92.086,0,166.753.093,166.753.208" transform="translate(-2.235 -90.514)" fill="#263238"/>
        </g>
      </g>
      <g id="Grupo_879847" data-name="Grupo 879847" transform="translate(0 -0.001)">
        <g id="Grupo_879846" data-name="Grupo 879846" clip-path="url(#clip-path-2)">
          <path id="Trazado_631700" data-name="Trazado 631700" d="M93.5,170.373l.52.95a6.351,6.351,0,0,0,2.527,2.527l.95.52-.95.52a6.356,6.356,0,0,0-2.527,2.527l-.52.95-.52-.95a6.356,6.356,0,0,0-2.527-2.527l-.95-.52.95-.52a6.351,6.351,0,0,0,2.527-2.527Z" transform="translate(-18.072 -34.4)" fill="#ffb338"/>
          <path id="Trazado_631701" data-name="Trazado 631701" d="M120.3,47.39l1,1.82a12.179,12.179,0,0,0,4.84,4.84l1.82,1-1.82,1a12.171,12.171,0,0,0-4.84,4.84l-1,1.82-1-1.82a12.176,12.176,0,0,0-4.84-4.84l-1.82-1,1.82-1a12.174,12.174,0,0,0,4.84-4.84Z" transform="translate(-22.745 -9.568)" fill="#ffb338"/>
          <path id="Trazado_631702" data-name="Trazado 631702" d="M373.142,197.347l.433.792a5.3,5.3,0,0,0,2.106,2.107l.792.433-.792.433a5.3,5.3,0,0,0-2.106,2.106l-.433.793-.433-.793a5.3,5.3,0,0,0-2.106-2.106l-.792-.433.792-.433a5.3,5.3,0,0,0,2.106-2.107Z" transform="translate(-74.67 -39.846)" fill="#ffb338"/>
          <path id="Trazado_631703" data-name="Trazado 631703" d="M70.685,210.218l.433.792a5.3,5.3,0,0,0,2.106,2.107l.792.433-.792.433a5.3,5.3,0,0,0-2.106,2.106l-.433.792-.433-.792a5.3,5.3,0,0,0-2.106-2.106l-.792-.433.792-.433a5.3,5.3,0,0,0,2.106-2.107Z" transform="translate(-13.6 -42.445)" fill="#ffb338"/>
          <path id="Trazado_631704" data-name="Trazado 631704" d="M396.4,173.747l.216.4a2.655,2.655,0,0,0,1.053,1.053l.4.216-.4.217a2.648,2.648,0,0,0-1.053,1.053l-.216.4-.216-.4a2.648,2.648,0,0,0-1.053-1.053l-.4-.217.4-.216a2.648,2.648,0,0,0,1.053-1.053Z" transform="translate(-79.703 -35.081)" fill="#ffb338"/>
          <path id="Trazado_631705" data-name="Trazado 631705" d="M346.452,156.352l.433.792a5.3,5.3,0,0,0,2.106,2.107l.792.433-.792.433a5.3,5.3,0,0,0-2.106,2.106l-.433.793-.433-.793a5.3,5.3,0,0,0-2.106-2.106l-.792-.433.792-.433a5.3,5.3,0,0,0,2.106-2.107Z" transform="translate(-69.281 -31.569)" fill="#ffb338"/>
          <path id="Trazado_631706" data-name="Trazado 631706" d="M325.7,30.361l.433.792a5.3,5.3,0,0,0,2.106,2.107l.792.433-.792.433a5.3,5.3,0,0,0-2.106,2.106l-.433.792-.433-.792a5.3,5.3,0,0,0-2.106-2.106l-.792-.433.792-.433a5.3,5.3,0,0,0,2.106-2.107Z" transform="translate(-65.09 -6.13)" fill="#ffb338"/>
          <path id="Trazado_631707" data-name="Trazado 631707" d="M97.144,36.241l.433.792a5.294,5.294,0,0,0,2.106,2.108l.791.432-.791.433a5.287,5.287,0,0,0-2.106,2.107l-.433.792-.434-.792A5.287,5.287,0,0,0,94.6,40.006l-.791-.433.791-.432a5.294,5.294,0,0,0,2.106-2.108Z" transform="translate(-18.942 -7.317)" fill="#ffb338"/>
          <path id="Trazado_631708" data-name="Trazado 631708" d="M104.259,239.147l.839,1.534a10.26,10.26,0,0,0,4.08,4.08l1.534.839-1.534.839a10.263,10.263,0,0,0-4.08,4.079l-.839,1.535-.839-1.535a10.263,10.263,0,0,0-4.08-4.079l-1.534-.839,1.534-.84a10.253,10.253,0,0,0,4.08-4.079Z" transform="translate(-19.748 -48.286)" fill="#ffb338"/>
        </g>
      </g>
      <g id="Grupo_879861" data-name="Grupo 879861" transform="translate(0 -0.001)">
        <g id="Grupo_879860" data-name="Grupo 879860" clip-path="url(#clip-path-2)">
          <path id="Trazado_631709" data-name="Trazado 631709" d="M117.685,412.585a20.925,20.925,0,0,0,.961,12.829c2.972-2.872,6.232-7.56,7.053-11.611a20.019,20.019,0,0,0-1.121-11.941,20.557,20.557,0,0,0-6.894,10.722" transform="translate(-23.643 -81.141)" fill="#617a0b"/>
          <path id="Trazado_631710" data-name="Trazado 631710" d="M120.633,419.08a4.057,4.057,0,0,1,.034-.7c.034-.453.108-1.105.218-1.91a50.7,50.7,0,0,1,3.306-12.218c.31-.75.577-1.35.775-1.759a4,4,0,0,1,.326-.625,3.983,3.983,0,0,1-.242.662c-.172.419-.414,1.029-.7,1.784a63.1,63.1,0,0,0-1.964,6.006c-.642,2.383-1.072,4.579-1.333,6.176-.131.8-.228,1.446-.291,1.895a4.1,4.1,0,0,1-.125.694" transform="translate(-24.356 -81.141)" fill="#263238"/>
          <path id="Trazado_631711" data-name="Trazado 631711" d="M94.683,418.658a20.926,20.926,0,0,0,.961,12.829c2.972-2.872,6.232-7.56,7.053-11.611a20.742,20.742,0,0,0-1.232-12.151,20.926,20.926,0,0,0-6.782,10.933" transform="translate(-18.999 -82.325)" fill="#617a0b"/>
          <path id="Trazado_631712" data-name="Trazado 631712" d="M97.63,425.205a4.057,4.057,0,0,1,.034-.7c.034-.453.108-1.105.218-1.909a50.689,50.689,0,0,1,3.306-12.219c.31-.75.576-1.35.775-1.759a4,4,0,0,1,.326-.626,3.944,3.944,0,0,1-.242.662c-.172.419-.414,1.029-.7,1.784-.58,1.511-1.317,3.623-1.963,6.006s-1.072,4.579-1.333,6.176c-.131.8-.228,1.446-.291,1.895a4.1,4.1,0,0,1-.125.694" transform="translate(-19.712 -82.378)" fill="#263238"/>
          <path id="Trazado_631713" data-name="Trazado 631713" d="M78.256,403.959A20.921,20.921,0,0,1,70.62,393.6c4.126.241,9.654,1.67,12.918,4.207a20.724,20.724,0,0,1,6.987,10.017,20.92,20.92,0,0,1-12.269-3.868" transform="translate(-14.259 -79.473)" fill="#617a0b"/>
          <path id="Trazado_631714" data-name="Trazado 631714" d="M77.006,398.583a4.062,4.062,0,0,0,.485.512c.322.32.8.768,1.41,1.306a50.614,50.614,0,0,0,10.472,7.109c.724.367,1.318.649,1.734.829a4.071,4.071,0,0,0,.654.262,3.991,3.991,0,0,0-.615-.345c-.4-.205-.984-.509-1.7-.894a61.079,61.079,0,0,1-10.441-7.088c-.62-.52-1.117-.947-1.457-1.247a3.968,3.968,0,0,0-.547-.445" transform="translate(-15.548 -80.479)" fill="#263238"/>
          <path id="Trazado_631715" data-name="Trazado 631715" d="M100.336,396.306A20.929,20.929,0,0,1,92.7,385.951c4.126.241,9.654,1.67,12.918,4.207a20.73,20.73,0,0,1,6.987,10.017,20.925,20.925,0,0,1-12.27-3.868" transform="translate(-18.718 -77.928)" fill="#617a0b"/>
          <path id="Trazado_631716" data-name="Trazado 631716" d="M99.086,390.93a4.048,4.048,0,0,0,.485.512c.322.32.8.768,1.41,1.306a50.658,50.658,0,0,0,10.472,7.109c.725.366,1.318.648,1.734.828a3.974,3.974,0,0,0,.654.262,4,4,0,0,0-.615-.345c-.4-.205-.984-.509-1.7-.894a63.128,63.128,0,0,1-5.4-3.274c-2.041-1.388-3.8-2.773-5.037-3.814-.619-.52-1.117-.947-1.457-1.247a3.991,3.991,0,0,0-.547-.445" transform="translate(-20.007 -78.933)" fill="#263238"/>
          <path id="Trazado_631717" data-name="Trazado 631717" d="M130.341,401.66a3.3,3.3,0,0,1-.535.006l-1.528-.045-1.1-.041c-.4-.007-.842,0-1.313,0-.942.014-2.015-.014-3.2.068l-1.858.092c-.646.034-1.314.117-2.009.176-1.391.1-2.863.331-4.415.544a73.807,73.807,0,0,0-19.463,5.85c-1.413.678-2.767,1.3-3.983,1.98-.612.334-1.215.633-1.773.96l-1.6.948c-1.033.584-1.913,1.2-2.706,1.706-.393.259-.765.492-1.1.721l-.9.642-1.249.88a3.358,3.358,0,0,1-.449.291,3.317,3.317,0,0,1,.411-.341l1.215-.93.883-.666c.328-.236.7-.477,1.086-.743.785-.524,1.659-1.153,2.688-1.751l1.6-.969c.556-.334,1.159-.64,1.77-.979,1.216-.694,2.571-1.326,3.986-2.014a71.565,71.565,0,0,1,19.541-5.873c1.559-.206,3.038-.426,4.435-.517.7-.054,1.369-.131,2.018-.159l1.865-.072c1.188-.068,2.264-.025,3.208-.022.472.008.911.006,1.315.022l1.1.069,1.527.1a3.365,3.365,0,0,1,.531.058" transform="translate(-16.388 -81.046)" fill="#263238"/>
          <path id="Trazado_631718" data-name="Trazado 631718" d="M70.264,419.8A20.929,20.929,0,0,0,62.91,430.36c4.118-.352,9.606-1.929,12.8-4.552a20.736,20.736,0,0,0,6.715-10.2,20.929,20.929,0,0,0-12.161,4.2" transform="translate(-12.702 -83.916)" fill="#617a0b"/>
          <path id="Trazado_631719" data-name="Trazado 631719" d="M69.159,426.311a4,4,0,0,1,.47-.525c.313-.329.783-.789,1.375-1.343a50.707,50.707,0,0,1,10.277-7.389c.714-.385,1.3-.683,1.712-.875a4.16,4.16,0,0,1,.646-.279,3.865,3.865,0,0,1-.606.362c-.4.216-.97.536-1.67.939a63.042,63.042,0,0,0-5.315,3.419c-2,1.442-3.722,2.874-4.932,3.948-.606.536-1.09.977-1.422,1.285a4.083,4.083,0,0,1-.535.46" transform="translate(-13.964 -83.975)" fill="#263238"/>
          <path id="Trazado_631720" data-name="Trazado 631720" d="M88.215,345.46a23.944,23.944,0,0,0-14.564,2.153c3.524,3.156,9.142,6.491,13.833,7.095a23.735,23.735,0,0,0,13.768-2.407,23.951,23.951,0,0,0-13.037-6.841" transform="translate(-14.871 -69.686)" fill="#617a0b"/>
          <path id="Trazado_631721" data-name="Trazado 631721" d="M82.842,349.4a4.613,4.613,0,0,1,.807-.019c.52,0,1.271.032,2.2.092a57.989,57.989,0,0,1,14.217,2.769c.882.292,1.589.547,2.072.739a4.769,4.769,0,0,1,.741.32,4.618,4.618,0,0,1-.776-.221c-.492-.162-1.208-.388-2.094-.656a72.275,72.275,0,0,0-7.017-1.747c-2.773-.538-5.314-.848-7.158-1.014-.923-.084-1.67-.142-2.188-.177a4.586,4.586,0,0,1-.8-.085" transform="translate(-16.727 -70.545)" fill="#263238"/>
          <path id="Trazado_631722" data-name="Trazado 631722" d="M104.457,372.155a20.931,20.931,0,0,0-11.776,5.181c3.7,1.844,9.2,3.357,13.3,2.781a20.74,20.74,0,0,0,11.046-5.211,20.927,20.927,0,0,0-12.567-2.752" transform="translate(-18.714 -75.122)" fill="#617a0b"/>
          <path id="Trazado_631723" data-name="Trazado 631723" d="M100.7,377.115a4.034,4.034,0,0,1,.676-.2c.438-.118,1.078-.267,1.873-.431a50.688,50.688,0,0,1,12.621-.954c.811.043,1.465.093,1.917.144a3.93,3.93,0,0,1,.7.1,4.043,4.043,0,0,1-.706-.008c-.453-.022-1.107-.047-1.916-.069-1.617-.044-3.855-.034-6.317.15s-4.674.514-6.267.8c-.8.143-1.441.267-1.884.357a4.037,4.037,0,0,1-.7.113" transform="translate(-20.332 -75.811)" fill="#263238"/>
          <path id="Trazado_631724" data-name="Trazado 631724" d="M112.871,347.655a20.928,20.928,0,0,1,5.566-11.6c1.722,3.758,3.052,9.31,2.342,13.382a20.737,20.737,0,0,1-5.572,10.868,20.932,20.932,0,0,1-2.336-12.651" transform="translate(-22.754 -67.854)" fill="#617a0b"/>
          <path id="Trazado_631725" data-name="Trazado 631725" d="M117.957,344.03a4.018,4.018,0,0,0-.225.669c-.132.434-.3,1.069-.492,1.858a50.639,50.639,0,0,0-1.369,12.583c.016.811.045,1.467.081,1.919a4.092,4.092,0,0,0,.076.7,4.022,4.022,0,0,0,.016-.7c-.008-.453-.011-1.109-.006-1.918.01-1.618.093-3.854.358-6.308a63,63,0,0,1,1.007-6.237c.168-.792.313-1.431.418-1.871a4.022,4.022,0,0,0,.136-.692" transform="translate(-23.394 -69.464)" fill="#263238"/>
          <path id="Trazado_631726" data-name="Trazado 631726" d="M103.449,327.017a20.447,20.447,0,0,1,8.192-9.536c.673,3.982.52,9.559-1.181,13.222a20.258,20.258,0,0,1-8.011,8.844,20.444,20.444,0,0,1,1-12.531" transform="translate(-20.574 -64.103)" fill="#617a0b"/>
          <path id="Trazado_631727" data-name="Trazado 631727" d="M109.163,324.651a3.974,3.974,0,0,0-.381.574c-.235.377-.555.932-.935,1.629a49.5,49.5,0,0,0-4.48,11.528c-.191.769-.33,1.4-.41,1.832a4.013,4.013,0,0,0-.106.681,3.907,3.907,0,0,0,.194-.661c.107-.429.27-1.049.48-1.811.419-1.525,1.064-3.614,1.936-5.863s1.81-4.223,2.531-5.63c.36-.7.658-1.271.868-1.66a3.919,3.919,0,0,0,.3-.618" transform="translate(-20.766 -65.551)" fill="#263238"/>
          <path id="Trazado_631728" data-name="Trazado 631728" d="M140.88,388.548a.953.953,0,0,1-.167-.109l-.472-.347-1.793-1.358-1.292-.988-1.495-1.229c-1.066-.888-2.3-1.874-3.591-3.056l-2.047-1.827c-.7-.642-1.409-1.342-2.154-2.05-1.506-1.4-3.012-3-4.623-4.657a142.321,142.321,0,0,1-9.67-11.509,134.49,134.49,0,0,1-8.243-12.575c-1.105-2.03-2.2-3.936-3.077-5.8-.451-.924-.907-1.806-1.306-2.672l-1.108-2.511c-.733-1.587-1.271-3.076-1.777-4.369l-.692-1.807q-.28-.844-.512-1.543c-.3-.914-.532-1.63-.7-2.139-.072-.232-.129-.417-.174-.559a.948.948,0,0,1-.049-.193.881.881,0,0,1,.08.184l.2.548c.18.5.433,1.213.754,2.118l.538,1.532q.33.83.714,1.795c.521,1.284,1.073,2.764,1.818,4.342q.536,1.194,1.124,2.5c.4.861.865,1.739,1.32,2.658.884,1.852,1.986,3.748,3.095,5.769a138.016,138.016,0,0,0,8.244,12.531,146.939,146.939,0,0,0,9.629,11.5c1.6,1.659,3.1,3.263,4.592,4.668.74.71,1.439,1.413,2.138,2.06l2.03,1.839c1.276,1.191,2.5,2.186,3.556,3.087l1.476,1.247,1.274,1.008,1.757,1.4.452.371a.947.947,0,0,1,.148.136" transform="translate(-19.371 -66.076)" fill="#263238"/>
          <path id="Trazado_631729" data-name="Trazado 631729" d="M95.71,291.288c-.825-1.688-2.076-3.473-3.943-3.676a4.243,4.243,0,0,0-4.031,2.741,12.42,12.42,0,0,0-.678,5.133A15.716,15.716,0,0,0,81,285.8c-1.05-.774-2.532-1.409-3.592-.65a3.372,3.372,0,0,0-1.051,2.463,39.819,39.819,0,0,0,.236,10.894,11.348,11.348,0,0,0-4.69-2.462c-1.759-.3-3.84.492-4.393,2.188a5.305,5.305,0,0,0,.128,2.894,38.626,38.626,0,0,0,8.722,16.458c2.227,2.478,4.92,4.74,8.171,5.471s7.441.812,8.92-2.174l-.544.759a29.939,29.939,0,0,0,2.805-30.347" transform="translate(-13.599 -57.505)" fill="#fd4c1b"/>
          <path id="Trazado_631730" data-name="Trazado 631730" d="M93.707,326.189a1.3,1.3,0,0,1-.1-.282l-.235-.82c-.1-.357-.217-.792-.381-1.292s-.322-1.076-.551-1.7-.453-1.308-.749-2.027c-.271-.728-.613-1.484-.962-2.284a50.446,50.446,0,0,0-2.653-5.018,48.841,48.841,0,0,0-3.259-4.647c-.556-.673-1.075-1.321-1.6-1.888-.51-.587-1.016-1.1-1.48-1.574s-.9-.879-1.278-1.243-.715-.666-1-.907l-.635-.567a1.314,1.314,0,0,1-.211-.211,1.323,1.323,0,0,1,.243.172l.667.532c.291.231.641.519,1.027.877s.847.745,1.31,1.22.99.977,1.508,1.56c.54.564,1.067,1.211,1.632,1.883a46.172,46.172,0,0,1,3.293,4.662,47.676,47.676,0,0,1,2.65,5.053c.345.807.682,1.57.946,2.3.287.725.516,1.415.722,2.045s.37,1.208.517,1.714.258.945.339,1.307c.077.339.14.615.189.832a1.311,1.311,0,0,1,.049.294" transform="translate(-15.873 -60.923)" fill="#263238"/>
          <path id="Trazado_631731" data-name="Trazado 631731" d="M91.258,312.972a2.9,2.9,0,0,1-.068-.616c-.027-.4-.053-.974-.075-1.686-.043-1.423-.054-3.392.028-5.564s.245-4.136.4-5.552c.077-.708.146-1.28.2-1.674a2.883,2.883,0,0,1,.114-.609,2.891,2.891,0,0,1-.015.619c-.033.449-.074,1.011-.123,1.681-.106,1.417-.238,3.378-.322,5.545s-.1,4.131-.1,5.552c0,.671,0,1.235-.006,1.685a2.914,2.914,0,0,1-.032.619" transform="translate(-18.391 -60.022)" fill="#263238"/>
          <g id="Grupo_879850" data-name="Grupo 879850" transform="translate(62.993 240.997)" opacity="0.3">
            <g id="Grupo_879849" data-name="Grupo 879849">
              <g id="Grupo_879848" data-name="Grupo 879848" clip-path="url(#clip-path-6)">
                <path id="Trazado_631732" data-name="Trazado 631732" d="M78.93,301.968s8.3,3.419,9.587,11.228c0,0-4.235-7.3-9.587-11.228" transform="translate(-78.93 -301.968)"/>
              </g>
            </g>
          </g>
          <path id="Trazado_631733" data-name="Trazado 631733" d="M66.27,359.065c-1.2-.452-2.656-.753-3.679.02a2.9,2.9,0,0,0-.72,3.247,8.49,8.49,0,0,0,2.065,2.868,10.726,10.726,0,0,0-7.545-1.978c-.883.107-1.917.484-2.089,1.358a2.3,2.3,0,0,0,.63,1.715,27.19,27.19,0,0,0,5.216,5.3,7.756,7.756,0,0,0-3.482.973,2.656,2.656,0,0,0-1.158,3.143,3.622,3.622,0,0,0,1.417,1.378,26.357,26.357,0,0,0,12.035,4.093,11.142,11.142,0,0,0,6.619-1.107c1.957-1.158,4.077-3.08,3.413-5.255l.085.631A20.431,20.431,0,0,0,66.27,359.065" transform="translate(-10.96 -72.408)" fill="#fd4c1b"/>
          <path id="Trazado_631734" data-name="Trazado 631734" d="M80.31,379.962a.914.914,0,0,1-.181-.093l-.5-.3c-.215-.132-.479-.292-.793-.464s-.664-.384-1.068-.584-.837-.437-1.32-.657-1-.45-1.547-.684a34.679,34.679,0,0,0-3.666-1.251,33.615,33.615,0,0,0-3.794-.784c-.591-.073-1.152-.152-1.681-.186-.528-.053-1.022-.073-1.472-.089s-.858-.016-1.216-.02-.667,0-.919.016l-.581.015a.881.881,0,0,1-.2-.006.961.961,0,0,1,.2-.028l.58-.049c.252-.022.561-.042.921-.046s.769-.026,1.221-.006.949.022,1.48.069c.532.028,1.1.1,1.692.172a31.374,31.374,0,0,1,3.817.775,32.628,32.628,0,0,1,3.682,1.27c.549.239,1.073.461,1.548.7.482.226.919.461,1.316.678s.749.427,1.059.609.571.349.781.49l.483.326a.923.923,0,0,1,.162.123" transform="translate(-12.391 -75.665)" fill="#263238"/>
          <path id="Trazado_631735" data-name="Trazado 631735" d="M73.005,374.485a1.9,1.9,0,0,1-.322-.275c-.2-.184-.483-.458-.827-.8-.687-.687-1.615-1.66-2.59-2.778s-1.814-2.168-2.4-2.943c-.294-.388-.527-.7-.682-.927a1.965,1.965,0,0,1-.228-.356,2.011,2.011,0,0,1,.283.314l.725.892c.611.754,1.463,1.789,2.436,2.905s1.883,2.1,2.547,2.806l.786.84a1.94,1.94,0,0,1,.274.322" transform="translate(-13.317 -73.981)" fill="#263238"/>
          <g id="Grupo_879853" data-name="Grupo 879853" transform="translate(49.19 298.474)" opacity="0.3">
            <g id="Grupo_879852" data-name="Grupo 879852">
              <g id="Grupo_879851" data-name="Grupo 879851" clip-path="url(#clip-path-7)">
                <path id="Trazado_631736" data-name="Trazado 631736" d="M61.634,374.7s5.723-2.186,10.017,1.09c0,0-5.521-1.645-10.017-1.09" transform="translate(-61.634 -373.987)"/>
              </g>
            </g>
          </g>
          <path id="Trazado_631737" data-name="Trazado 631737" d="M316.892,411.8a20.925,20.925,0,0,1-.961,12.829c-2.972-2.872-6.232-7.56-7.053-11.611A20.019,20.019,0,0,1,310,401.076a20.558,20.558,0,0,1,6.894,10.722" transform="translate(-62.279 -80.982)" fill="#617a0b"/>
          <path id="Trazado_631738" data-name="Trazado 631738" d="M315.05,418.292a4.065,4.065,0,0,0-.034-.7c-.034-.453-.108-1.105-.218-1.91a50.695,50.695,0,0,0-3.306-12.218c-.31-.75-.577-1.35-.775-1.759a4.084,4.084,0,0,0-.326-.626,3.947,3.947,0,0,0,.242.662c.172.419.414,1.029.7,1.784a63.1,63.1,0,0,1,1.964,6.006c.642,2.383,1.072,4.579,1.333,6.176.131.8.228,1.446.291,1.895a4.1,4.1,0,0,0,.125.694" transform="translate(-62.672 -80.982)" fill="#263238"/>
          <path id="Trazado_631739" data-name="Trazado 631739" d="M339.9,417.87a20.926,20.926,0,0,1-.962,12.829c-2.971-2.872-6.231-7.56-7.053-11.611a20.744,20.744,0,0,1,1.232-12.152A20.929,20.929,0,0,1,339.9,417.87" transform="translate(-66.931 -82.166)" fill="#617a0b"/>
          <path id="Trazado_631740" data-name="Trazado 631740" d="M338.053,424.417a4.05,4.05,0,0,0-.034-.7c-.034-.453-.108-1.105-.218-1.91a50.691,50.691,0,0,0-3.306-12.218c-.31-.75-.576-1.35-.775-1.759a4,4,0,0,0-.326-.626,3.937,3.937,0,0,0,.242.662c.172.419.414,1.029.7,1.784.58,1.511,1.317,3.623,1.963,6.006s1.072,4.579,1.333,6.176c.131.8.229,1.446.291,1.895a4.1,4.1,0,0,0,.125.694" transform="translate(-67.317 -82.219)" fill="#263238"/>
          <path id="Trazado_631741" data-name="Trazado 631741" d="M353.573,403.171a20.925,20.925,0,0,0,7.635-10.354c-4.126.24-9.654,1.67-12.918,4.206A20.729,20.729,0,0,0,341.3,407.04a20.924,20.924,0,0,0,12.27-3.868" transform="translate(-68.914 -79.315)" fill="#617a0b"/>
          <path id="Trazado_631742" data-name="Trazado 631742" d="M356.125,397.795a4.06,4.06,0,0,1-.485.512c-.322.32-.8.768-1.41,1.306a50.657,50.657,0,0,1-10.473,7.109c-.725.366-1.318.648-1.734.828a3.978,3.978,0,0,1-.654.262,4.079,4.079,0,0,1,.615-.345c.4-.205.984-.509,1.7-.893,1.425-.767,3.361-1.889,5.4-3.275s3.8-2.773,5.037-3.814c.62-.52,1.117-.947,1.457-1.247a4.059,4.059,0,0,1,.547-.445" transform="translate(-68.927 -80.32)" fill="#263238"/>
          <path id="Trazado_631743" data-name="Trazado 631743" d="M331.493,395.518a20.93,20.93,0,0,0,7.635-10.354c-4.126.24-9.654,1.67-12.918,4.206a20.73,20.73,0,0,0-6.987,10.017,20.925,20.925,0,0,0,12.27-3.868" transform="translate(-64.456 -77.769)" fill="#617a0b"/>
          <path id="Trazado_631744" data-name="Trazado 631744" d="M334.045,390.142a4.053,4.053,0,0,1-.485.512c-.322.32-.8.768-1.41,1.306a50.657,50.657,0,0,1-10.473,7.109c-.725.366-1.318.648-1.734.828a4.075,4.075,0,0,1-.654.262,3.988,3.988,0,0,1,.615-.345c.4-.205.984-.509,1.7-.894a63.109,63.109,0,0,0,5.4-3.274c2.041-1.388,3.8-2.773,5.037-3.814.62-.52,1.117-.947,1.457-1.247a3.978,3.978,0,0,1,.547-.445" transform="translate(-64.469 -78.774)" fill="#263238"/>
          <path id="Trazado_631745" data-name="Trazado 631745" d="M294.08,400.872a3.43,3.43,0,0,0,.535.006l1.528-.045,1.1-.041c.4-.007.842,0,1.313,0,.942.014,2.015-.014,3.2.068l1.858.092c.646.034,1.314.117,2.009.176,1.391.1,2.863.331,4.415.544a73.783,73.783,0,0,1,19.463,5.85c1.413.678,2.767,1.3,3.983,1.98.612.334,1.216.633,1.773.96l1.6.948c1.033.584,1.913,1.2,2.706,1.706.393.259.765.492,1.1.721l.9.642,1.249.88a3.348,3.348,0,0,0,.449.29,3.315,3.315,0,0,0-.411-.341l-1.215-.93-.883-.666c-.328-.236-.7-.476-1.086-.743-.785-.524-1.659-1.153-2.688-1.751l-1.6-.969c-.557-.334-1.16-.64-1.771-.979-1.215-.694-2.571-1.326-3.986-2.014a71.561,71.561,0,0,0-19.541-5.873c-1.559-.206-3.038-.426-4.435-.517-.7-.054-1.369-.131-2.018-.159l-1.865-.072c-1.188-.068-2.264-.025-3.208-.022-.472.008-.911.006-1.315.022l-1.1.069-1.527.1a3.366,3.366,0,0,0-.531.058" transform="translate(-59.379 -80.887)" fill="#263238"/>
          <path id="Trazado_631746" data-name="Trazado 631746" d="M361.664,419.017a20.928,20.928,0,0,1,7.354,10.557c-4.118-.352-9.606-1.93-12.8-4.553a20.736,20.736,0,0,1-6.715-10.2,20.929,20.929,0,0,1,12.161,4.2" transform="translate(-70.57 -83.757)" fill="#617a0b"/>
          <path id="Trazado_631747" data-name="Trazado 631747" d="M364.042,425.522a4.142,4.142,0,0,0-.471-.525c-.313-.329-.782-.789-1.375-1.343a50.707,50.707,0,0,0-10.277-7.389c-.714-.385-1.3-.683-1.711-.876a3.991,3.991,0,0,0-.648-.279,4.026,4.026,0,0,0,.606.362c.4.216.97.535,1.672.939a63.177,63.177,0,0,1,5.314,3.419c2,1.442,3.722,2.874,4.932,3.948.606.536,1.091.977,1.422,1.285a4.052,4.052,0,0,0,.536.46" transform="translate(-70.581 -83.816)" fill="#263238"/>
          <path id="Trazado_631748" data-name="Trazado 631748" d="M341.667,344.672a23.944,23.944,0,0,1,14.564,2.153c-3.524,3.156-9.142,6.491-13.833,7.095a23.735,23.735,0,0,1-13.768-2.407,23.951,23.951,0,0,1,13.037-6.841" transform="translate(-66.355 -69.527)" fill="#617a0b"/>
          <path id="Trazado_631749" data-name="Trazado 631749" d="M348.953,348.616a4.625,4.625,0,0,0-.807-.019c-.52,0-1.271.032-2.2.092a57.993,57.993,0,0,0-14.217,2.769c-.882.292-1.589.547-2.072.739a4.61,4.61,0,0,0-.741.321,4.79,4.79,0,0,0,.776-.222c.492-.162,1.208-.388,2.093-.656,1.773-.539,4.244-1.205,7.018-1.747s5.314-.848,7.158-1.014c.923-.084,1.67-.142,2.188-.177a4.581,4.581,0,0,0,.8-.085" transform="translate(-66.413 -70.385)" fill="#263238"/>
          <path id="Trazado_631750" data-name="Trazado 631750" d="M326.248,371.367a20.931,20.931,0,0,1,11.776,5.181c-3.7,1.844-9.2,3.357-13.3,2.781a20.74,20.74,0,0,1-11.046-5.211,20.921,20.921,0,0,1,12.567-2.752" transform="translate(-63.337 -74.963)" fill="#617a0b"/>
          <path id="Trazado_631751" data-name="Trazado 631751" d="M331.667,376.327a4.039,4.039,0,0,0-.676-.2c-.438-.118-1.078-.267-1.872-.431a50.7,50.7,0,0,0-12.622-.954c-.811.043-1.465.093-1.916.144a3.933,3.933,0,0,0-.7.1,4.05,4.05,0,0,0,.706-.008c.453-.022,1.107-.048,1.916-.069,1.618-.044,3.855-.034,6.317.15s4.674.514,6.267.8c.8.143,1.441.267,1.884.357a4.045,4.045,0,0,0,.7.113" transform="translate(-63.377 -75.652)" fill="#263238"/>
          <path id="Trazado_631752" data-name="Trazado 631752" d="M321.9,346.867a20.928,20.928,0,0,0-5.566-11.6c-1.722,3.758-3.052,9.31-2.342,13.382a20.738,20.738,0,0,0,5.572,10.868,20.925,20.925,0,0,0,2.336-12.651" transform="translate(-63.36 -67.695)" fill="#617a0b"/>
          <path id="Trazado_631753" data-name="Trazado 631753" d="M318.376,343.242a4.024,4.024,0,0,1,.225.669c.133.434.3,1.069.492,1.858a50.686,50.686,0,0,1,1.37,12.583c-.016.811-.045,1.467-.081,1.919a4.08,4.08,0,0,1-.076.7,4.123,4.123,0,0,1-.016-.7c.008-.453.011-1.109.006-1.917-.01-1.619-.093-3.854-.358-6.309s-.668-4.655-1.006-6.237c-.169-.792-.314-1.431-.418-1.872a3.971,3.971,0,0,1-.136-.692" transform="translate(-64.284 -69.305)" fill="#263238"/>
          <path id="Trazado_631754" data-name="Trazado 631754" d="M330.855,326.229a20.447,20.447,0,0,0-8.192-9.536c-.673,3.982-.52,9.559,1.181,13.222a20.258,20.258,0,0,0,8.011,8.844,20.444,20.444,0,0,0-1-12.531" transform="translate(-65.075 -63.944)" fill="#617a0b"/>
          <path id="Trazado_631755" data-name="Trazado 631755" d="M326.1,323.863a3.981,3.981,0,0,1,.381.574c.235.377.555.932.935,1.629a49.5,49.5,0,0,1,4.48,11.528c.191.769.33,1.4.41,1.832a4.011,4.011,0,0,1,.106.681,3.9,3.9,0,0,1-.194-.661c-.107-.429-.27-1.049-.48-1.811-.419-1.525-1.064-3.614-1.936-5.863s-1.81-4.224-2.531-5.631c-.36-.7-.658-1.271-.868-1.66a3.918,3.918,0,0,1-.3-.619" transform="translate(-65.845 -65.392)" fill="#263238"/>
          <path id="Trazado_631756" data-name="Trazado 631756" d="M284.614,387.76a.9.9,0,0,0,.167-.109l.472-.347,1.793-1.358,1.293-.988,1.494-1.228c1.066-.889,2.3-1.875,3.591-3.057l2.047-1.827c.7-.642,1.409-1.342,2.154-2.05,1.506-1.4,3.012-3,4.623-4.657a142.49,142.49,0,0,0,9.67-11.509,134.393,134.393,0,0,0,8.243-12.575c1.105-2.03,2.2-3.936,3.077-5.8.451-.924.907-1.806,1.306-2.672l1.108-2.511c.733-1.587,1.271-3.076,1.777-4.369l.692-1.807q.28-.844.512-1.543c.3-.914.532-1.63.7-2.139.072-.232.129-.417.174-.559a.883.883,0,0,0,.049-.193.937.937,0,0,0-.08.184l-.2.548-.754,2.118-.538,1.532q-.33.83-.714,1.795c-.521,1.284-1.073,2.764-1.818,4.342q-.536,1.194-1.124,2.5c-.4.861-.865,1.739-1.32,2.658-.884,1.852-1.986,3.748-3.095,5.769a138.02,138.02,0,0,1-8.244,12.531,146.944,146.944,0,0,1-9.629,11.5c-1.6,1.659-3.1,3.263-4.592,4.668-.74.71-1.439,1.413-2.138,2.06l-2.03,1.839c-1.276,1.191-2.5,2.186-3.556,3.087l-1.476,1.247-1.274,1.008-1.757,1.4-.452.371a.994.994,0,0,0-.148.136" transform="translate(-57.468 -65.917)" fill="#263238"/>
          <path id="Trazado_631757" data-name="Trazado 631757" d="M333.251,290.5c.825-1.688,2.076-3.473,3.943-3.676a4.243,4.243,0,0,1,4.031,2.741,12.42,12.42,0,0,1,.678,5.132,15.716,15.716,0,0,1,6.059-9.69c1.05-.774,2.532-1.409,3.592-.65a3.376,3.376,0,0,1,1.052,2.463,39.818,39.818,0,0,1-.237,10.894,11.347,11.347,0,0,1,4.69-2.462c1.759-.3,3.84.492,4.393,2.188a5.3,5.3,0,0,1-.128,2.893,38.626,38.626,0,0,1-8.722,16.458c-2.227,2.478-4.92,4.74-8.17,5.471s-7.442.812-8.92-2.174l.543.759a29.939,29.939,0,0,1-2.805-30.347" transform="translate(-66.707 -57.346)" fill="#fd4c1b"/>
          <path id="Trazado_631758" data-name="Trazado 631758" d="M339.338,325.4a1.3,1.3,0,0,0,.1-.282l.235-.82c.1-.357.217-.793.381-1.292s.322-1.076.551-1.7.453-1.308.749-2.027c.271-.728.613-1.484.962-2.284a50.35,50.35,0,0,1,2.653-5.017,48.753,48.753,0,0,1,3.259-4.648c.556-.672,1.075-1.32,1.6-1.888.51-.587,1.016-1.1,1.48-1.574s.9-.879,1.278-1.243.716-.666,1-.907l.635-.567a1.276,1.276,0,0,0,.211-.211,1.35,1.35,0,0,0-.243.172l-.667.532c-.291.231-.641.52-1.027.877s-.847.745-1.31,1.22-.99.977-1.508,1.56c-.54.564-1.067,1.211-1.632,1.883a46.172,46.172,0,0,0-3.293,4.662,47.679,47.679,0,0,0-2.65,5.053c-.345.807-.682,1.57-.946,2.3-.287.725-.516,1.415-.722,2.046s-.369,1.208-.517,1.714-.258.945-.339,1.307c-.077.339-.14.615-.189.832a1.313,1.313,0,0,0-.049.294" transform="translate(-68.517 -60.764)" fill="#263238"/>
          <path id="Trazado_631759" data-name="Trazado 631759" d="M345.407,312.184a2.9,2.9,0,0,0,.068-.616c.027-.4.054-.974.075-1.686.043-1.423.054-3.392-.028-5.564s-.245-4.136-.4-5.552c-.077-.708-.146-1.28-.2-1.674a2.873,2.873,0,0,0-.114-.609,2.89,2.89,0,0,0,.015.619c.033.449.074,1.011.123,1.681.106,1.417.238,3.378.322,5.545s.1,4.131.1,5.552c0,.671,0,1.235.006,1.685a2.911,2.911,0,0,0,.032.619" transform="translate(-69.619 -59.863)" fill="#263238"/>
          <g id="Grupo_879856" data-name="Grupo 879856" transform="translate(276.075 240.368)" opacity="0.3">
            <g id="Grupo_879855" data-name="Grupo 879855">
              <g id="Grupo_879854" data-name="Grupo 879854" clip-path="url(#clip-path-6)">
                <path id="Trazado_631760" data-name="Trazado 631760" d="M355.509,301.18s-8.3,3.419-9.587,11.227c0,0,4.235-7.3,9.587-11.227" transform="translate(-345.922 -301.18)"/>
              </g>
            </g>
          </g>
          <path id="Trazado_631761" data-name="Trazado 631761" d="M364.31,358.277c1.2-.452,2.656-.753,3.679.02a2.9,2.9,0,0,1,.72,3.247,8.49,8.49,0,0,1-2.065,2.868,10.725,10.725,0,0,1,7.545-1.978c.883.107,1.917.484,2.089,1.358a2.3,2.3,0,0,1-.63,1.715,27.19,27.19,0,0,1-5.216,5.3,7.756,7.756,0,0,1,3.482.973,2.656,2.656,0,0,1,1.158,3.143,3.622,3.622,0,0,1-1.417,1.378,26.358,26.358,0,0,1-12.035,4.093A11.142,11.142,0,0,1,355,379.287c-1.957-1.158-4.077-3.08-3.413-5.255l-.085.631a20.431,20.431,0,0,1,12.809-16.387" transform="translate(-70.965 -72.248)" fill="#fd4c1b"/>
          <path id="Trazado_631762" data-name="Trazado 631762" d="M351.761,379.175a.912.912,0,0,0,.181-.093l.5-.3c.215-.133.48-.292.794-.464s.664-.384,1.068-.584.837-.437,1.32-.657,1-.45,1.547-.684a34.61,34.61,0,0,1,3.666-1.251,33.264,33.264,0,0,1,3.794-.784c.591-.073,1.152-.152,1.681-.186.528-.053,1.022-.073,1.472-.089s.858-.016,1.216-.02.667,0,.919.016l.581.015a.884.884,0,0,0,.2-.006.959.959,0,0,0-.2-.028l-.58-.049c-.252-.022-.561-.042-.921-.046s-.769-.026-1.221-.006-.949.022-1.48.069c-.532.028-1.1.1-1.692.172a31.372,31.372,0,0,0-3.817.775,32.636,32.636,0,0,0-3.682,1.27c-.549.239-1.073.461-1.548.7-.482.226-.919.461-1.316.678s-.749.427-1.059.609-.571.349-.781.49l-.483.326a.924.924,0,0,0-.162.123" transform="translate(-71.026 -75.506)" fill="#263238"/>
          <path id="Trazado_631763" data-name="Trazado 631763" d="M362.075,373.7a1.907,1.907,0,0,0,.322-.275c.2-.184.483-.458.827-.8.687-.687,1.615-1.66,2.59-2.778s1.814-2.168,2.4-2.943c.294-.388.527-.7.682-.927a1.969,1.969,0,0,0,.228-.356,2.009,2.009,0,0,0-.283.314l-.725.892c-.611.754-1.463,1.789-2.436,2.905s-1.884,2.1-2.547,2.806l-.786.84a1.935,1.935,0,0,0-.274.322" transform="translate(-73.108 -73.823)" fill="#263238"/>
          <g id="Grupo_879859" data-name="Grupo 879859" transform="translate(289.449 297.845)" opacity="0.3">
            <g id="Grupo_879858" data-name="Grupo 879858">
              <g id="Grupo_879857" data-name="Grupo 879857" clip-path="url(#clip-path-7)">
                <path id="Trazado_631764" data-name="Trazado 631764" d="M372.7,373.913s-5.723-2.186-10.017,1.09c0,0,5.521-1.645,10.017-1.09" transform="translate(-362.679 -373.199)"/>
              </g>
            </g>
          </g>
        </g>
      </g>
      <g id="Grupo_879863" data-name="Grupo 879863" transform="translate(0 -0.001)">
        <g id="Grupo_879862" data-name="Grupo 879862" clip-path="url(#clip-path-2)">
          <path id="Trazado_631765" data-name="Trazado 631765" d="M252.112,371.7l-103.075-.061a22.452,22.452,0,0,1-22.44-22.457l.051-258.411a22.452,22.452,0,0,1,22.465-22.449l103.076.061a22.453,22.453,0,0,1,22.439,22.457l-.05,258.411A22.453,22.453,0,0,1,252.112,371.7" transform="translate(-25.562 -13.794)" fill="#263238"/>
          <path id="Trazado_631766" data-name="Trazado 631766" d="M253.808,79.832l-19.984-.012a4.965,4.965,0,0,0-4.854,5.07l0,3.625a4.962,4.962,0,0,1-4.852,5.07l-38.955-.022a4.969,4.969,0,0,1-4.852-5.076V84.861a4.97,4.97,0,0,0-4.852-5.076l-7.029,0-17.491-.01a15.725,15.725,0,0,0-15.733,15.722l-.049,252.228a15.725,15.725,0,0,0,15.715,15.729l102.869.06a15.725,15.725,0,0,0,15.734-15.721l.049-252.229a15.725,15.725,0,0,0-15.715-15.728" transform="translate(-27.29 -16.106)" fill="#fff"/>
        </g>
      </g>
      <g id="Grupo_879868" data-name="Grupo 879868" transform="translate(0 -0.001)">
        <g id="Grupo_879867" data-name="Grupo 879867" clip-path="url(#clip-path-2)">
          <path id="Trazado_631767" data-name="Trazado 631767" d="M190.341,163.1a4.322,4.322,0,0,0-3.37,2.872,12.708,12.708,0,0,0-.6,4.595q-.243,29.926-.485,59.852l28.257.1c-5.316-18.772-.889-39.194-5.77-58.084-.818-3.164-1.949-6.359-4.156-8.769s-5.714-3.872-8.824-2.867" transform="translate(-37.532 -32.402)" fill="#263238"/>
          <path id="Trazado_631768" data-name="Trazado 631768" d="M195.093,125.917c6.266-7.658,14.681-12.068,24.575-12.231,5.817-.1,8.081,1.168,12.43,2.289a16.88,16.88,0,0,1,9.634,6.662c2.8,4,5.14,8.478,5.672,13.332a82.784,82.784,0,0,1,.725,15.2c0,.051-.007.1-.011.152a17.584,17.584,0,0,1-14.58,15.839l-3.038.528c-7.118.243-14.335.476-21.27-1.148s-13.673-5.355-17.387-11.433c-5.16-8.444-3.017-21.53,3.249-29.188" transform="translate(-38.152 -22.953)" fill="#263238"/>
          <path id="Trazado_631769" data-name="Trazado 631769" d="M233.681,189.945c-.086-4.523-.192-8.227-.192-8.206,0,0,10.51-1.157,13.414-14.627,1.444-6.7,1.713-17.8,1.639-26.886-.066-8.181-7.033-19.32-17.133-19.356l-4.488-.522-17.183,6.83a4.788,4.788,0,0,0-4.543,4.614l-.516,57.536,16.609,40.326L233.2,213.5Z" transform="translate(-41.328 -24.299)" fill="#a26760"/>
          <path id="Trazado_631770" data-name="Trazado 631770" d="M232.263,174.366a2.869,2.869,0,0,1,.991-1.769,2.933,2.933,0,0,1,3.555-.2,3.928,3.928,0,0,1,1.491,3.686,3.572,3.572,0,0,1-2.554,1.481,4.37,4.37,0,0,1-.48.015,3.2,3.2,0,0,1-2.16-.855,2.855,2.855,0,0,1-.844-2.355" transform="translate(-46.893 -34.706)" fill="#7b4b45"/>
          <path id="Trazado_631771" data-name="Trazado 631771" d="M251.25,157.989a1.746,1.746,0,0,1-1.777,1.666,1.67,1.67,0,0,1-1.71-1.67,1.746,1.746,0,0,1,1.775-1.667,1.671,1.671,0,0,1,1.713,1.67" transform="translate(-50.027 -31.562)" fill="#263238"/>
          <path id="Trazado_631772" data-name="Trazado 631772" d="M253.707,151.062c-.228.215-1.5-.834-3.371-.932-1.872-.124-3.3.765-3.492.524-.095-.107.148-.505.771-.908a4.791,4.791,0,0,1,2.811-.7,4.608,4.608,0,0,1,2.668,1.026c.552.474.725.9.613.992" transform="translate(-49.837 -30.092)" fill="#263238"/>
          <path id="Trazado_631773" data-name="Trazado 631773" d="M240.675,165.411a12.453,12.453,0,0,1,3.076-.382c.481-.023.94-.093,1.039-.416a2.444,2.444,0,0,0-.242-1.437q-.581-1.775-1.216-3.725c-1.682-5.3-2.871-9.646-2.657-9.712s1.751,4.176,3.433,9.476q.6,1.96,1.155,3.742a2.773,2.773,0,0,1,.145,1.893,1.2,1.2,0,0,1-.826.658,3.241,3.241,0,0,1-.82.068,12.2,12.2,0,0,1-3.087-.165" transform="translate(-48.591 -30.234)" fill="#263238"/>
          <path id="Trazado_631774" data-name="Trazado 631774" d="M236.24,195.79a34.621,34.621,0,0,1-17.932-5.853s4.331,9.685,18,9.16Z" transform="translate(-44.079 -38.35)" fill="#7b4b45"/>
          <path id="Trazado_631775" data-name="Trazado 631775" d="M233.584,170.622c.306,0,.2,2.035,1.861,3.575s3.842,1.436,3.842,1.721c.022.129-.5.369-1.421.343a5.078,5.078,0,0,1-3.214-1.321,4.418,4.418,0,0,1-1.43-2.99c-.031-.856.223-1.347.362-1.328" transform="translate(-47.09 -34.45)" fill="#263238"/>
          <path id="Trazado_631776" data-name="Trazado 631776" d="M253.225,142.262c-.34.441-1.76.055-3.445.1-1.686-.006-3.1.413-3.445-.02-.153-.21.054-.646.661-1.075a5.074,5.074,0,0,1,2.772-.812,5.018,5.018,0,0,1,2.781.745c.614.413.827.844.678,1.059" transform="translate(-49.729 -28.36)" fill="#263238"/>
          <path id="Trazado_631777" data-name="Trazado 631777" d="M226.107,157.863a1.746,1.746,0,0,0,1.652,1.79,1.67,1.67,0,0,0,1.827-1.542,1.747,1.747,0,0,0-1.65-1.791,1.671,1.671,0,0,0-1.828,1.543" transform="translate(-45.654 -31.561)" fill="#263238"/>
          <path id="Trazado_631778" data-name="Trazado 631778" d="M223.24,150.284c.212.231,1.551-.724,3.429-.686,1.876.01,3.238,1,3.445.774.1-.1-.112-.515-.7-.962a4.791,4.791,0,0,0-2.753-.9,4.6,4.6,0,0,0-2.735.831c-.585.433-.788.841-.683.945" transform="translate(-45.07 -29.985)" fill="#263238"/>
          <path id="Trazado_631779" data-name="Trazado 631779" d="M221.883,145.206c.362.433,1.819.016,3.562.025,1.742-.045,3.212.342,3.559-.1.152-.214-.073-.645-.71-1.06a5.375,5.375,0,0,0-2.883-.749,5.31,5.31,0,0,0-2.855.808c-.623.428-.833.864-.674,1.074" transform="translate(-44.791 -28.938)" fill="#263238"/>
          <path id="Trazado_631780" data-name="Trazado 631780" d="M205.749,162.312c.053-1.011-.986-3.461-1.976-3.672-2.646-.563-7.468-.612-7.885,6.163-.57,9.261,8.846,7.923,8.879,7.658.025-.207.8-6.654.982-10.149" transform="translate(-39.548 -31.984)" fill="#a26760"/>
          <path id="Trazado_631781" data-name="Trazado 631781" d="M203.084,169.7c-.039-.032-.168.1-.449.212a1.619,1.619,0,0,1-1.208-.049c-.957-.419-1.685-2.023-1.627-3.7a5.352,5.352,0,0,1,.594-2.283,1.865,1.865,0,0,1,1.29-1.163.823.823,0,0,1,.925.5c.109.267.038.449.086.467.025.026.208-.142.157-.529a1.033,1.033,0,0,0-.329-.6,1.221,1.221,0,0,0-.878-.291,2.272,2.272,0,0,0-1.773,1.333,5.49,5.49,0,0,0-.718,2.547c-.055,1.87.792,3.675,2.108,4.144a1.73,1.73,0,0,0,1.491-.155c.3-.21.362-.415.331-.433" transform="translate(-40.212 -32.762)" fill="#7b4b45"/>
          <path id="Trazado_631782" data-name="Trazado 631782" d="M204.055,150.61l2.354,2.441c10.161-9.726,30.02-34.08,28.911-32.629a29.583,29.583,0,0,0-14.517-1.575c-7.555,1.287-21.888,5.069-21.667,13.98s4.919,17.783,4.919,17.783" transform="translate(-40.208 -23.929)" fill="#263238"/>
          <path id="Trazado_631783" data-name="Trazado 631783" d="M190.16,147.767a6.523,6.523,0,0,1,.072-2.1,10.417,10.417,0,0,1,2.579-5.083,15.461,15.461,0,0,1,3-2.607,18.894,18.894,0,0,1,4.093-2.007A86.186,86.186,0,0,1,210,133.512a40.319,40.319,0,0,0,5.128-1.494,38.932,38.932,0,0,0,4.536-2.039,38.418,38.418,0,0,0,6.953-4.741,37.236,37.236,0,0,0,4.033-4.011c.453-.5.769-.914,1-1.182a2.644,2.644,0,0,1,.366-.4,2.734,2.734,0,0,1-.3.453c-.211.285-.508.719-.945,1.235a33.191,33.191,0,0,1-3.964,4.128,37.3,37.3,0,0,1-6.965,4.857,38.388,38.388,0,0,1-4.574,2.082,39.79,39.79,0,0,1-5.177,1.518,90.93,90.93,0,0,0-10.057,2.414A18.823,18.823,0,0,0,196,138.266a15.46,15.46,0,0,0-2.97,2.514,10.557,10.557,0,0,0-2.639,4.919,18.109,18.109,0,0,0-.231,2.068" transform="translate(-38.386 -24.157)" fill="#455a64"/>
          <path id="Trazado_631784" data-name="Trazado 631784" d="M218.971,140.657c.01.01-.073.105-.243.279a6.34,6.34,0,0,1-.809.686,10.816,10.816,0,0,1-3.532,1.643,25.6,25.6,0,0,1-5.719.781,31.054,31.054,0,0,0-6.925.844,13.52,13.52,0,0,0-3.292,1.413,14.4,14.4,0,0,0-2.686,1.992,15.735,15.735,0,0,0-3.413,4.51,18.712,18.712,0,0,0-1.594,5,1.231,1.231,0,0,1,.008-.37,9.131,9.131,0,0,1,.125-1.051,13.984,13.984,0,0,1,1.2-3.706,15.512,15.512,0,0,1,3.415-4.66,14.517,14.517,0,0,1,2.741-2.063,13.707,13.707,0,0,1,3.384-1.462,30.146,30.146,0,0,1,7.02-.827,26.727,26.727,0,0,0,5.662-.682,11.488,11.488,0,0,0,3.516-1.492c.757-.5,1.118-.862,1.145-.832" transform="translate(-38.515 -28.399)" fill="#455a64"/>
          <path id="Trazado_631785" data-name="Trazado 631785" d="M192.542,189.487a3.385,3.385,0,0,1-.1-.852c-.041-.55-.08-1.346-.114-2.33-.068-1.969-.1-4.691-.034-7.7s.219-5.725.374-7.689c.077-.982.152-1.776.216-2.323a3.406,3.406,0,0,1,.141-.847,3.412,3.412,0,0,1,.02.858q-.035.962-.084,2.33c-.08,1.966-.184,4.68-.251,7.681s-.081,5.716-.088,7.683q-.011,1.367-.018,2.33a3.4,3.4,0,0,1-.057.856" transform="translate(-38.819 -33.87)" fill="#455a64"/>
          <path id="Trazado_631786" data-name="Trazado 631786" d="M200.151,193.5a2.417,2.417,0,0,1-.356-.631c-.208-.417-.472-1.038-.763-1.817a28.772,28.772,0,0,1-1.6-12.821,19.651,19.651,0,0,1,.291-1.95,2.443,2.443,0,0,1,.189-.7c.068.011-.084,1.026-.188,2.673a34.049,34.049,0,0,0,1.591,12.7c.506,1.571.9,2.516.84,2.544" transform="translate(-39.833 -35.452)" fill="#455a64"/>
          <path id="Trazado_631787" data-name="Trazado 631787" d="M194.687,165.037a3.449,3.449,0,0,1-.679-.54,6.081,6.081,0,0,1-.718-.723,8.738,8.738,0,0,1-.855-1.047,15.975,15.975,0,0,1-1.749-3.051,21.919,21.919,0,0,1-1.3-4.1,26.7,26.7,0,0,1-.472-7.771,19.905,19.905,0,0,1,.323-2.338,3.447,3.447,0,0,1,.215-.84c.073.013-.143,1.224-.245,3.2a29.967,29.967,0,0,0,.584,7.664,23.437,23.437,0,0,0,1.25,4.037,17.278,17.278,0,0,0,1.637,3.032c1.111,1.627,2.073,2.415,2.012,2.48" transform="translate(-38.124 -29.201)" fill="#455a64"/>
          <path id="Trazado_631788" data-name="Trazado 631788" d="M229.045,164.806c0,1.472-2.172,2.666-4.852,2.666s-4.853-1.193-4.853-2.666,2.173-2.666,4.853-2.666,4.852,1.193,4.852,2.666" transform="translate(-44.288 -32.738)" fill="#995f5b"/>
          <path id="Trazado_631789" data-name="Trazado 631789" d="M256.4,163.735c0,1.472-1.63,2.666-3.642,2.666s-3.642-1.193-3.642-2.666,1.63-2.666,3.642-2.666,3.642,1.193,3.642,2.666" transform="translate(-50.301 -32.521)" fill="#995f5b"/>
          <path id="Trazado_631790" data-name="Trazado 631790" d="M200.1,205.3c-1.083.271-26.055,8.73-26.055,8.73l3.338,49.728,6.52,16.994-3.136,20.342,64.253,8.028-1.576-29.584L255.085,215.1l-27.589-8s-11.4,12.064-16,12.064S200.1,205.3,200.1,205.3" transform="translate(-35.142 -41.452)" fill="#a26760"/>
          <path id="Trazado_631791" data-name="Trazado 631791" d="M172.438,214.409s-11.216-1.049-16.105,13.815-11.476,44.882-11.476,44.882l28.5-2.275-1.765-32.046Z" transform="translate(-29.248 -43.288)" fill="#2b95f9"/>
          <path id="Trazado_631792" data-name="Trazado 631792" d="M190.6,208.822l25.277,51.093v32.358l-36.893.51,1.894-14.32s-8.948-9.9-10.709-19.487,3.018-45.1,3.018-45.1Z" transform="translate(-34.28 -42.163)" fill="#2b95f9"/>
          <path id="Trazado_631793" data-name="Trazado 631793" d="M194.27,223.949a2.229,2.229,0,0,0-4.229.34,24.126,24.126,0,0,0,.076,9.069c1.289,8.285,2.813,19.026,5.057,27.1a53.109,53.109,0,0,0-.9-36.513" transform="translate(-38.29 -44.939)" fill="#fff"/>
          <path id="Trazado_631794" data-name="Trazado 631794" d="M266.955,214.409s11.216-1.049,16.105,13.815,10.8,44.1,10.8,44.1l-30.35-.786,4.3-32.749Z" transform="translate(-53.206 -43.288)" fill="#2b95f9"/>
          <path id="Trazado_631795" data-name="Trazado 631795" d="M245.782,210.218l-26.073,50.791v31.547h36l-1.086-14.122a94.74,94.74,0,0,0,5.924-18.858c1.76-9.583-.523-45.931-.523-45.931Z" transform="translate(-44.362 -42.445)" fill="#2b95f9"/>
          <g id="Grupo_879866" data-name="Grupo 879866" transform="translate(151.727 212.561)" opacity="0.2">
            <g id="Grupo_879865" data-name="Grupo 879865">
              <g id="Grupo_879864" data-name="Grupo 879864" clip-path="url(#clip-path-12)">
                <path id="Trazado_631796" data-name="Trazado 631796" d="M230.12,278.643c-2.97-5.173-6.862-10.5-12.654-11.93-3.655-.9-7.532-.068-11.033,1.317-4.326,1.712-8.441,4.4-10.863,8.367-5.015,8.222-1.542,19.3-5.457,28.1v1.44c7.861-5.9,12.256-12.243,13.7-22.471.366-2.586,2.791-4.749,5.293-5.5,3.366-1.012,6.741,1.6,8.833,4.423,3.51,4.739,5.406,10.493,8.724,15.369s8.935,9.022,14.714,7.848a116.915,116.915,0,0,0-11.263-26.964" transform="translate(-190.114 -266.338)"/>
              </g>
            </g>
          </g>
          <path id="Trazado_631797" data-name="Trazado 631797" d="M254.539,258.01c-.03-.211-.065-.424-.107-.634-.625-3.117-5.28-3.5-6.16-.441-3.046,10.579-3.609,24.587-1.6,34.043a163.856,163.856,0,0,0,7.275-25.42,22.78,22.78,0,0,0,.593-7.548" transform="translate(-49.568 -51.453)" fill="#fff"/>
          <path id="Trazado_631798" data-name="Trazado 631798" d="M240.271,303.4c-6.192-7.129-17.474-12.423-26.915-12.283a2.5,2.5,0,0,0-2.212.843,1.742,1.742,0,0,0,.437,2.053,5.118,5.118,0,0,0,2,1.011c8.336,2.74,18.307,5.762,26.685,8.376" transform="translate(-42.597 -58.78)" fill="#fff"/>
          <path id="Trazado_631799" data-name="Trazado 631799" d="M189.5,267.7c-6.073-7.209-20.965-13.848-30.345-12.923-1.763.174-3.955,1-3.942,2.776.013,1.664,1.968,2.507,3.577,2.931,8.193,2.162,22.516,5.054,30.71,7.216" transform="translate(-31.339 -51.424)" fill="#fff"/>
          <path id="Trazado_631800" data-name="Trazado 631800" d="M176.847,242.337a9.352,9.352,0,0,1-.272,1.4c-.209.89-.476,2.186-.765,3.793s-.567,3.532-.789,5.678c-.2,2.148-.343,4.517-.354,7.007,0,2.492.14,4.861.337,7.01.217,2.147.484,4.074.777,5.681s.548,2.905.756,3.795a9.317,9.317,0,0,1,.268,1.4,9.151,9.151,0,0,1-.425-1.358c-.256-.88-.564-2.172-.887-3.78s-.629-3.54-.868-5.7c-.219-2.159-.367-4.543-.372-7.049.011-2.505.164-4.889.388-7.047.245-2.156.548-4.087.883-5.694s.638-2.9.9-3.777a9.214,9.214,0,0,1,.429-1.358" transform="translate(-35.184 -48.93)" fill="#263238"/>
          <path id="Trazado_631801" data-name="Trazado 631801" d="M279.887,242.426c-6.255,7.149-11.028,18.924-11.6,27.838l-.144.3a52.749,52.749,0,0,0,9.362-11.329,36.178,36.178,0,0,0,4.7-15.959,1.313,1.313,0,0,0-2.313-.849" transform="translate(-54.142 -48.856)" fill="#fff"/>
          <path id="Trazado_631802" data-name="Trazado 631802" d="M263.438,242.085a1.518,1.518,0,0,1,.137.381c.085.3.189.669.314,1.114.264.97.633,2.378,1.059,4.124a93.227,93.227,0,0,1,2.435,13.841,45.536,45.536,0,0,1-.807,14.018,30.748,30.748,0,0,1-1.224,4.087c-.169.474-.338.828-.441,1.073a1.516,1.516,0,0,1-.184.361,13.921,13.921,0,0,1,.472-1.487,37.989,37.989,0,0,0,1.09-4.1,48.259,48.259,0,0,0,.679-13.92,106.724,106.724,0,0,0-2.307-13.809c-.382-1.706-.7-3.11-.93-4.152-.095-.453-.174-.828-.239-1.133a1.51,1.51,0,0,1-.056-.4" transform="translate(-53.191 -48.88)" fill="#263238"/>
          <path id="Trazado_631803" data-name="Trazado 631803" d="M240.861,198.859c5.019.445,9.387,3.991,11.887,8.366s3.374,9.491,3.712,14.519.181,10.09.816,15.089c-.508.34-3.848.34-3.848.34l-2.227-7.789-.99,7.772c-1.491.037-7.249,0-8.531,0,0,0-.935-26.067-.819-38.295" transform="translate(-48.631 -40.152)" fill="#263238"/>
          <path id="Trazado_631804" data-name="Trazado 631804" d="M250.719,229.516c-.076,0-.045-1.455-.256-3.784a40.252,40.252,0,0,0-5.646-17.192c-1.211-2-2.1-3.153-2.038-3.2a4.729,4.729,0,0,1,.672.771,26.689,26.689,0,0,1,1.615,2.272,36.4,36.4,0,0,1,5.69,17.325,26.763,26.763,0,0,1,.047,2.788,4.84,4.84,0,0,1-.084,1.019" transform="translate(-49.02 -41.46)" fill="#455a64"/>
          <path id="Trazado_631805" data-name="Trazado 631805" d="M234.649,325.677l-58.919-.69-.86,8.609s-16.347,20.146-18.511,34.036c-1.608,10.327-3.306,35.5-4.949,45.089a42.9,42.9,0,0,0,7.617.3l98.257.155c3.017,0,6.345-.753,5.5-3.65l-22.3-75.6-.393-7.786Z" transform="translate(-30.572 -65.619)" fill="#2b95f9"/>
          <path id="Trazado_631806" data-name="Trazado 631806" d="M246.932,336.411a4.077,4.077,0,0,1-.672.041l-1.927.036-7.087.031c-5.985,0-14.251-.09-23.379-.232l-23.379-.354-7.085-.1-1.927-.042a4.082,4.082,0,0,1-.672-.043,4.085,4.085,0,0,1,.672-.041l1.927-.036,7.087-.032c5.984,0,14.251.091,23.383.233l23.374.354,7.085.1,1.927.042a4.084,4.084,0,0,1,.672.043" transform="translate(-36.507 -67.769)" fill="#263238"/>
          <path id="Trazado_631807" data-name="Trazado 631807" d="M178.1,395.583c8.09,4.646,29.935,10.528,39.251,10.063-6.234-7.889-28.1-17.622-37.827-20.156" transform="translate(-35.961 -77.835)" fill="#fff"/>
          <path id="Trazado_631808" data-name="Trazado 631808" d="M228.662,393.252c-3.674-6.375-8.189-12.536-9.873-19.7s-1.067-15.224,3.355-21.105a60.111,60.111,0,0,1,6.518,40.8" transform="translate(-44.003 -71.163)" fill="#fff"/>
          <path id="Trazado_631809" data-name="Trazado 631809" d="M242.806,398.405a36.519,36.519,0,0,1,13.219-22.132,6.988,6.988,0,0,1,2.023-1.2,2.467,2.467,0,0,1,3.437,2.517,6.645,6.645,0,0,1-.7,2.628,32.153,32.153,0,0,1-7.666,10.35,79.6,79.6,0,0,1-10.318,7.832" transform="translate(-49.026 -75.699)" fill="#fff"/>
          <path id="Trazado_631810" data-name="Trazado 631810" d="M175.162,415.4a.779.779,0,0,1-.013-.207c0-.16,0-.359,0-.6.014-.564.032-1.341.056-2.324.049-2.019.184-4.939.411-8.543s.579-7.89,1.073-12.639c.515-4.747,1.176-9.956,2.022-15.4.863-5.445,1.829-10.607,2.794-15.284.986-4.673,1.957-8.863,2.851-12.362s1.654-6.321,2.225-8.257c.279-.943.5-1.689.659-2.23l.181-.577a.731.731,0,0,1,.076-.192.758.758,0,0,1-.034.2c-.038.156-.085.35-.142.588-.141.546-.337,1.3-.583,2.249-.524,1.949-1.245,4.779-2.1,8.285s-1.8,7.7-2.761,12.369c-.943,4.676-1.9,9.833-2.758,15.271-.846,5.438-1.517,10.639-2.052,15.379-.514,4.741-.9,9.02-1.16,12.619s-.445,6.513-.544,8.528c-.057.982-.1,1.757-.133,2.321-.018.245-.034.443-.045.6a.794.794,0,0,1-.03.205" transform="translate(-35.365 -68)" fill="#263238"/>
          <path id="Trazado_631811" data-name="Trazado 631811" d="M227.178,261.368h-17.65a2.783,2.783,0,0,1-2.783-2.783V225.323a2.783,2.783,0,0,1,2.783-2.783h17.65a2.783,2.783,0,0,1,2.783,2.783v33.262a2.783,2.783,0,0,1-2.783,2.783" transform="translate(-41.745 -44.933)" fill="#263238"/>
          <path id="Trazado_631812" data-name="Trazado 631812" d="M211.263,233.79h0a1.629,1.629,0,0,1-1.629-1.629v-4.124a1.629,1.629,0,1,1,3.258,0v4.124a1.629,1.629,0,0,1-1.629,1.629" transform="translate(-42.328 -45.714)" fill="#455a64"/>
          <path id="Trazado_631813" data-name="Trazado 631813" d="M212.714,228.394a1.287,1.287,0,1,1-1.287-1.287,1.287,1.287,0,0,1,1.287,1.287" transform="translate(-42.43 -45.855)" fill="#e0e0e0"/>
          <path id="Trazado_631814" data-name="Trazado 631814" d="M155.587,284.294s1.4,14.188,4.081,22.639c2.515,7.913,12.63,14.976,20.769,4.878s13.5-32.858,13.5-32.858L183,273.225l-9.125,13.716-1.163-4.093Z" transform="translate(-31.415 -55.167)" fill="#a26760"/>
          <path id="Trazado_631815" data-name="Trazado 631815" d="M210.315,242.417a.91.91,0,0,0-1.182-.9c-2.381.754-7.7,2.57-9.251,2.69-1.959.151-7.838,16.881-7.838,16.881l-2.11,5.727,8.893,9.044,9.5-6.934,11-3.768s1.508-1.959.6-2.563-9.195.9-9.195.9a9.479,9.479,0,0,1,2.563-2.713c1.206-.6,10.842-5.915,11.907-6.481,2.547-1.353,2.411-3.316-.754-3.014s-15.524,4.823-15.524,4.823,12.632-6.486,13.845-7.165c2.327-1.3,2.132-2.933.022-3.084s-20.046,5.879-20.046,5.879l-1.055-.905,1.055-2.411s7.084-2.563,7.385-4.22a12.009,12.009,0,0,0,.184-1.789" transform="translate(-38.35 -48.756)" fill="#a26760"/>
          <path id="Trazado_631816" data-name="Trazado 631816" d="M185.955,273.225a6.7,6.7,0,0,1-.638,1.029L183.491,277c-1.535,2.318-3.584,5.567-5.891,9.134s-4.518,6.725-6.242,8.916c-.86,1.1-1.578,1.967-2.1,2.546a6.783,6.783,0,0,1-.835.878,6.7,6.7,0,0,1,.709-.981c.483-.609,1.163-1.505,1.99-2.621,1.659-2.229,3.822-5.4,6.128-8.965s4.4-6.793,6-9.073c.8-1.14,1.459-2.054,1.936-2.67a6.768,6.768,0,0,1,.77-.935" transform="translate(-34.007 -55.167)" fill="#7b4b45"/>
          <path id="Trazado_631817" data-name="Trazado 631817" d="M198.313,282.632a1.652,1.652,0,0,1-.072.419c-.077.315-.171.705-.286,1.18-.264,1.021-.666,2.492-1.219,4.3a127.023,127.023,0,0,1-5.152,13.8A77.289,77.289,0,0,1,188,309.61a25.794,25.794,0,0,1-3.981,5.315,16.8,16.8,0,0,1-3.542,2.739,11.947,11.947,0,0,1-1.089.544,1.636,1.636,0,0,1-.4.144c-.015-.034.516-.275,1.407-.828a18.269,18.269,0,0,0,3.415-2.806,26.551,26.551,0,0,0,3.859-5.3c1.231-2.151,2.368-4.642,3.538-7.263,2.318-5.25,4.079-10.145,5.251-13.72.587-1.787,1.031-3.244,1.343-4.25.145-.465.264-.848.361-1.158a1.644,1.644,0,0,1,.152-.4" transform="translate(-36.14 -57.067)" fill="#7b4b45"/>
          <path id="Trazado_631818" data-name="Trazado 631818" d="M222,238.453l8.566,6.371,4.994,8.543-.585,11.82-8.192,11.118s-3.978-1.287-4.33-3.277-.468-3.862-.468-3.862l-2.341-2.692s-12.405-4.8-11.937-9.362,3.393-1.025,5.852.717,10.239,4.652,10.239,4.652l-.285-.582s-12.789-11.025-13.7-13.113-.6-2.1.873-2.922,4.508,1.991,6.852,3.875,8.894,7.49,9.48,7.373-.117-1.52-.117-1.52-3.962-5.393-6.554-6.806-7.63-4.069-6.507-6.181,1.124-1.877,3.347-1.057,10.121,6.031,10.121,6.031-8.951-6.852-8.951-8.138c0-.782,1.079-1.175,1.926-1.364a2.117,2.117,0,0,1,1.718.376" transform="translate(-41.937 -48.06)" fill="#a26760"/>
          <path id="Trazado_631819" data-name="Trazado 631819" d="M231.614,285.99a1.03,1.03,0,0,1,.132.2l.353.6c.317.559.761,1.339,1.323,2.332,1.156,2.056,2.8,4.986,4.829,8.6,1.03,1.811,2.156,3.792,3.365,5.917a74.938,74.938,0,0,0,4.148,6.6,54.887,54.887,0,0,0,5.464,6.633,29.439,29.439,0,0,0,3.387,3.009,14.8,14.8,0,0,0,4.029,2.259,7.855,7.855,0,0,0,4.518.225,10.31,10.31,0,0,0,3.947-2.037,16.822,16.822,0,0,0,2.959-3.181,23.925,23.925,0,0,0,2.165-3.585,45.946,45.946,0,0,0,2.729-7.279c.7-2.342,1.272-4.546,1.779-6.563,1-4.038,1.712-7.33,2.2-9.6.238-1.116.425-1.994.559-2.622l.151-.68a1.014,1.014,0,0,1,.065-.23.965.965,0,0,1-.022.237l-.111.689c-.116.632-.277,1.515-.483,2.638-.439,2.287-1.112,5.59-2.073,9.643-.488,2.024-1.048,4.237-1.733,6.591a45.5,45.5,0,0,1-2.717,7.35,24.138,24.138,0,0,1-2.187,3.65,17.183,17.183,0,0,1-3.023,3.263,10.686,10.686,0,0,1-4.105,2.121,8.264,8.264,0,0,1-4.75-.233,15.147,15.147,0,0,1-4.143-2.322,29.634,29.634,0,0,1-3.429-3.055,54.546,54.546,0,0,1-5.487-6.7,73.5,73.5,0,0,1-4.133-6.648l-3.323-5.945c-2.01-3.646-3.615-6.608-4.713-8.661l-1.255-2.369-.317-.622a1.044,1.044,0,0,1-.095-.219" transform="translate(-46.766 -57.745)" fill="#7b4b45"/>
          <path id="Trazado_631820" data-name="Trazado 631820" d="M239.3,268.16s17.024,24.259,18.6,24.891l1.8-10.661,20.008.587s-3.049,16.538-6.2,24.579S264.718,320.8,258.63,318.75s-12.5-10.833-15.4-15.607c-2.824-4.657-11.621-20.753-11.621-20.753Z" transform="translate(-46.766 -54.145)" fill="#a26760"/>
          <path id="Trazado_631821" data-name="Trazado 631821" d="M271.974,308.21a53.772,53.772,0,0,0-3.361-4.836,53.989,53.989,0,0,0-4.184-4.145,5.732,5.732,0,0,1,1.468.947,20.313,20.313,0,0,1,5.4,6.424,5.759,5.759,0,0,1,.68,1.61" transform="translate(-53.391 -60.417)" fill="#7b4b45"/>
          <path id="Trazado_631822" data-name="Trazado 631822" d="M234.921,266.1a1.223,1.223,0,0,1,0-.216c0-.156.01-.366.016-.636.021-.577.051-1.406.09-2.48.092-2.189.226-5.374.4-9.425l.015.059-5.021-8.528.037.042-4.78-3.537-2.57-1.9a8.785,8.785,0,0,0-1.339-.9,3.076,3.076,0,0,0-1.559-.274,2.572,2.572,0,0,0-1.463.6.658.658,0,0,0-.231.609,2.65,2.65,0,0,0,.453.676,26.611,26.611,0,0,0,2.569,2.478c1.837,1.6,3.806,3.173,5.856,4.755l-.216.3c-2.219-1.449-4.526-2.924-6.939-4.348a21.547,21.547,0,0,0-3.78-1.891c-.67-.228-1.387-.619-1.749-.006a6.94,6.94,0,0,0-.553.9,2.323,2.323,0,0,0-.219.468.975.975,0,0,0-.07.459,3,3,0,0,0,1.053,1.729,12.531,12.531,0,0,0,1.736,1.358c1.235.839,2.567,1.538,3.912,2.292a17.169,17.169,0,0,1,3.48,3.121c1.049,1.16,2.041,2.378,2.993,3.65l.011.015.007.015a4.309,4.309,0,0,1,.335.931,1.038,1.038,0,0,1-.014.592.466.466,0,0,1-.3.278.389.389,0,0,1-.235,0,1.02,1.02,0,0,1-.144-.055,12.682,12.682,0,0,1-1.674-1.134c-2.929-2.25-5.668-4.626-8.441-6.86a23.31,23.31,0,0,0-4.242-3.044,2.687,2.687,0,0,0-1.16-.274,1.157,1.157,0,0,0-.53.166l-.561.313c-.373.218-.659.434-.613.794a4.085,4.085,0,0,0,.346,1.157,2.607,2.607,0,0,0,.275.548,2.843,2.843,0,0,0,.351.492c.254.327.536.637.821.944.567.615,1.156,1.208,1.749,1.788,1.185,1.162,2.382,2.283,3.573,3.374,2.38,2.185,4.729,4.264,7.011,6.248l.374.325h-1.691l-.03-.011q-2.489-.935-4.808-1.97a23.531,23.531,0,0,1-4.361-2.386c-.646-.49-1.245-1.01-1.855-1.489a6.127,6.127,0,0,0-1.91-1.148.859.859,0,0,0-.892.2,2.137,2.137,0,0,0-.441.92,3.5,3.5,0,0,0-.016,2.051,7.61,7.61,0,0,0,2.53,3.092,25.165,25.165,0,0,0,3.153,2.125,48.624,48.624,0,0,0,6,2.912l.026.011.017.019,2.329,2.7.021.024,0,.031a31.051,31.051,0,0,0,.5,4.054,2.9,2.9,0,0,0,.919,1.279,6.991,6.991,0,0,0,1.091.772,13.117,13.117,0,0,0,1.624.8c.376.157.568.235.568.235a9.688,9.688,0,0,1-2.24-.956,6.925,6.925,0,0,1-1.121-.765,2.991,2.991,0,0,1-.976-1.327,30.143,30.143,0,0,1-.553-4.084l.022.054-2.352-2.682.042.03a48.219,48.219,0,0,1-6.048-2.887,25.414,25.414,0,0,1-3.2-2.13,7.869,7.869,0,0,1-2.638-3.214,2.909,2.909,0,0,1-.168-1.115,5.556,5.556,0,0,1,.168-1.111,2.418,2.418,0,0,1,.515-1.061,1.184,1.184,0,0,1,1.2-.29,6.355,6.355,0,0,1,2.034,1.2c.619.484,1.22,1,1.856,1.48a23.367,23.367,0,0,0,4.3,2.334c1.538.683,3.14,1.331,4.789,1.947l-.063-.012h1.163l-.121.324c-2.291-1.982-4.645-4.056-7.033-6.241-1.2-1.091-2.4-2.212-3.588-3.378-.6-.582-1.189-1.177-1.765-1.8-.289-.31-.576-.625-.843-.968a3.129,3.129,0,0,1-.386-.543,3.032,3.032,0,0,1-.3-.591,4.413,4.413,0,0,1-.378-1.294.992.992,0,0,1,.247-.737,2.412,2.412,0,0,1,.563-.425l.571-.319a1.6,1.6,0,0,1,.7-.215,3.062,3.062,0,0,1,1.357.307,23.516,23.516,0,0,1,4.337,3.1c2.773,2.233,5.52,4.613,8.429,6.848a12.781,12.781,0,0,0,1.595,1.087.655.655,0,0,0,.083.033c.021.013.006-.009,0,.01a.345.345,0,0,0,.018.123c.006.03-.048-.237-.025-.125h0l0,0,0,0c.027-.007.024-.009.04-.037a.694.694,0,0,0-.009-.354,3.932,3.932,0,0,0-.3-.829l.018.03c-.939-1.255-1.928-2.47-2.964-3.618a16.9,16.9,0,0,0-3.381-3.044c-1.322-.743-2.68-1.457-3.932-2.31a13.005,13.005,0,0,1-1.79-1.4,5.745,5.745,0,0,1-.751-.876,4.139,4.139,0,0,1-.286-.52,2.346,2.346,0,0,1-.136-.6,2.032,2.032,0,0,1,.338-1.144,7.107,7.107,0,0,1,.595-.96,1.272,1.272,0,0,1,.489-.405,1.071,1.071,0,0,1,.646-.05,6.883,6.883,0,0,1,1.065.341,21.947,21.947,0,0,1,3.837,1.926c2.423,1.435,4.725,2.915,6.948,4.373l-.216.3c-2.053-1.591-4.019-3.173-5.862-4.785a26.737,26.737,0,0,1-2.6-2.524,2.874,2.874,0,0,1-.512-.789.976.976,0,0,1,.318-.958,2.889,2.889,0,0,1,1.668-.684,3.408,3.408,0,0,1,1.724.309,8.9,8.9,0,0,1,1.393.943l2.562,1.914,4.763,3.56.023.017.014.024,4.966,8.559.017.028,0,.031c-.213,4.049-.381,7.231-.5,9.42-.062,1.073-.111,1.9-.144,2.478-.019.269-.034.478-.045.634a1.276,1.276,0,0,1-.025.214" transform="translate(-41.9 -48.047)" fill="#7b4b45"/>
          <path id="Trazado_631823" data-name="Trazado 631823" d="M231.614,285.99a1.03,1.03,0,0,1,.132.2l.353.6c.317.559.761,1.339,1.323,2.332,1.156,2.056,2.8,4.986,4.829,8.6,1.03,1.811,2.156,3.792,3.365,5.917a74.938,74.938,0,0,0,4.148,6.6,54.887,54.887,0,0,0,5.464,6.633,29.439,29.439,0,0,0,3.387,3.009,14.8,14.8,0,0,0,4.029,2.259,7.855,7.855,0,0,0,4.518.225,10.31,10.31,0,0,0,3.947-2.037,16.822,16.822,0,0,0,2.959-3.181,23.925,23.925,0,0,0,2.165-3.585,45.946,45.946,0,0,0,2.729-7.279c.7-2.342,1.272-4.546,1.779-6.563,1-4.038,1.712-7.33,2.2-9.6.238-1.116.425-1.994.559-2.622l.151-.68a1.014,1.014,0,0,1,.065-.23.965.965,0,0,1-.022.237l-.111.689c-.116.632-.277,1.515-.483,2.638-.439,2.287-1.112,5.59-2.073,9.643-.488,2.024-1.048,4.237-1.733,6.591a45.5,45.5,0,0,1-2.717,7.35,24.138,24.138,0,0,1-2.187,3.65,17.183,17.183,0,0,1-3.023,3.263,10.686,10.686,0,0,1-4.105,2.121,8.264,8.264,0,0,1-4.75-.233,15.147,15.147,0,0,1-4.143-2.322,29.634,29.634,0,0,1-3.429-3.055,54.546,54.546,0,0,1-5.487-6.7,73.5,73.5,0,0,1-4.133-6.648l-3.323-5.945c-2.01-3.646-3.615-6.608-4.713-8.661l-1.255-2.369-.317-.622a1.044,1.044,0,0,1-.095-.219" transform="translate(-46.766 -57.745)" fill="#7b4b45"/>
        </g>
      </g>
      <g id="Grupo_879870" data-name="Grupo 879870" transform="translate(0 -0.001)">
        <g id="Grupo_879869" data-name="Grupo 879869" clip-path="url(#clip-path-2)">
          <path id="Trazado_631824" data-name="Trazado 631824" d="M209.216,45.017,219.3,59.43a2.719,2.719,0,0,0,4.507-.075l9.757-14.99Z" transform="translate(-42.244 -8.957)" fill="#eb6f2d"/>
          <path id="Trazado_631825" data-name="Trazado 631825" d="M260.518,40.205H149.789a8.779,8.779,0,0,1-8.779-8.779V8.779A8.779,8.779,0,0,1,149.789,0H260.518A8.779,8.779,0,0,1,269.3,8.779V31.426a8.779,8.779,0,0,1-8.779,8.779" transform="translate(-28.472 0.001)" fill="#eb6f2d"/>
          <path id="Trazado_631826" data-name="Trazado 631826" d="M218.68,20.9a2.823,2.823,0,0,0-3.468-1.558A3.535,3.535,0,0,0,213.52,20.9a3.531,3.531,0,0,0-1.691-1.558,2.822,2.822,0,0,0-3.468,1.558c-1.919,3.506,5.159,8.069,5.159,8.069s7.078-4.563,5.16-8.069" transform="translate(-42.005 -3.874)" fill="#fff"/>
          <path id="Trazado_631827" data-name="Trazado 631827" d="M265.731,23.889a5.143,5.143,0,1,0-2.785,4.561l0,.007,2.79.431-.737-2.359a5.1,5.1,0,0,0,.737-2.64" transform="translate(-51.582 -3.786)" fill="#fff"/>
          <path id="Trazado_631828" data-name="Trazado 631828" d="M159.181,30.479h9.959a5.214,5.214,0,0,0-5.039-3.818,4.781,4.781,0,0,0-4.92,3.818" transform="translate(-32.141 -5.382)" fill="#fff"/>
          <path id="Trazado_631829" data-name="Trazado 631829" d="M167.45,21.921a2.733,2.733,0,1,1-2.733-2.733,2.734,2.734,0,0,1,2.733,2.733" transform="translate(-32.707 -3.874)" fill="#fff"/>
          <path id="Trazado_631830" data-name="Trazado 631830" d="M179.673,26.347c0,1.429-.99,2.528-2.993,2.528a4.1,4.1,0,0,1-3-1.148l.318-.476a3.606,3.606,0,0,0,2.675,1.051c1.575,0,2.382-.794,2.382-1.931,0-1.221-.745-1.966-3.065-1.966h-1.735l.453-4.14h4.532v.562h-4.006l-.33,3.017h1.221c2.6,0,3.555.99,3.555,2.5" transform="translate(-35.067 -4.091)" fill="#fff"/>
          <path id="Trazado_631831" data-name="Trazado 631831" d="M182.66,24.523c0-2.675,1.38-4.336,3.346-4.336s3.346,1.661,3.346,4.336-1.38,4.336-3.346,4.336-3.346-1.661-3.346-4.336m6.07,0c0-2.381-1.112-3.762-2.724-3.762s-2.724,1.381-2.724,3.762,1.112,3.762,2.724,3.762,2.724-1.381,2.724-3.762" transform="translate(-36.882 -4.075)" fill="#fff"/>
          <path id="Trazado_631832" data-name="Trazado 631832" d="M195.781,25.276l-1.661,1.515v1.893h-.611V19.621h.611v6.413l4.079-3.725h.782l-2.749,2.577,3.018,3.8h-.757Z" transform="translate(-39.072 -3.961)" fill="#fff"/>
          <path id="Trazado_631833" data-name="Trazado 631833" d="M232.138,28.3v.58H226.07v-.454l3.733-3.71c1.048-1.047,1.25-1.665,1.25-2.334,0-1.11-.77-1.8-2.233-1.8a3.14,3.14,0,0,0-2.536,1.022l-.454-.4a3.889,3.889,0,0,1,3.04-1.211c1.729,0,2.839.9,2.839,2.334a3.636,3.636,0,0,1-1.438,2.737L227.016,28.3Z" transform="translate(-45.598 -4.034)" fill="#fff"/>
          <path id="Trazado_631834" data-name="Trazado 631834" d="M238.408,25.239,236.692,26.8v1.955h-.63V19.4h.63v6.623l4.214-3.848h.808l-2.839,2.662,3.116,3.924h-.782Z" transform="translate(-47.664 -3.916)" fill="#fff"/>
          <path id="Trazado_631835" data-name="Trazado 631835" d="M277.784,26.726c0,1.464-1.06,2.548-3.091,2.548a4.247,4.247,0,0,1-3.117-1.185l.328-.492a3.767,3.767,0,0,0,2.788,1.085c1.589,0,2.435-.757,2.435-1.955s-.808-1.955-2.574-1.955H274V24.3l2.611-3.343H271.9v-.58h5.539v.454l-2.65,3.393c2.006.05,2.99,1.06,2.99,2.5" transform="translate(-54.835 -4.114)" fill="#fff"/>
          <path id="Trazado_631836" data-name="Trazado 631836" d="M284.218,25.557,282.5,27.121v1.956h-.63V19.716h.63v6.623l4.214-3.848h.808l-2.839,2.662,3.116,3.924h-.782Z" transform="translate(-56.914 -3.98)" fill="#fff"/>
          <path id="Trazado_631837" data-name="Trazado 631837" d="M296.035,200.14l10.081,14.413a2.719,2.719,0,0,0,4.507-.075l9.757-14.99Z" transform="translate(-59.774 -40.279)" fill="#eb6f2d"/>
          <path id="Trazado_631838" data-name="Trazado 631838" d="M317.6,202.175H291.906a9.228,9.228,0,0,1-9.228-9.228V179.294a9.228,9.228,0,0,1,9.228-9.228H317.6a9.229,9.229,0,0,1,9.229,9.228v13.652a9.229,9.229,0,0,1-9.229,9.228" transform="translate(-57.077 -34.338)" fill="#eb6f2d"/>
          <path id="Trazado_631839" data-name="Trazado 631839" d="M321.166,191.9h-1.855v2.448h-.63V191.9h-5.034v-.467l4.794-5.917h.719l-4.706,5.816h4.239V189.17h.619v2.157h1.855Z" transform="translate(-63.33 -37.457)" fill="#fff"/>
          <path id="Trazado_631840" data-name="Trazado 631840" d="M307.319,189.125a5.143,5.143,0,1,0-2.785,4.562l0,.007,2.79.431-.737-2.359a5.1,5.1,0,0,0,.737-2.641" transform="translate(-59.979 -37.15)" fill="#fff"/>
          <path id="Trazado_631841" data-name="Trazado 631841" d="M349.151,122.467h-58.28A10.576,10.576,0,0,1,280.3,111.891v-18.1a10.576,10.576,0,0,1,10.576-10.576h58.28a10.576,10.576,0,0,1,10.576,10.576v18.1a10.576,10.576,0,0,1-10.576,10.576" transform="translate(-56.596 -16.801)" fill="#eb6f2d"/>
          <path id="Trazado_631842" data-name="Trazado 631842" d="M314.366,126.263l10.007,14.308a2.91,2.91,0,0,0,4.824-.081l9.688-14.884Z" transform="translate(-63.475 -25.361)" fill="#eb6f2d"/>
          <path id="Trazado_631843" data-name="Trazado 631843" d="M346.662,103.389a2.824,2.824,0,0,0-3.468-1.558,3.535,3.535,0,0,0-1.692,1.558,3.531,3.531,0,0,0-1.691-1.558,2.823,2.823,0,0,0-3.468,1.558c-1.919,3.506,5.159,8.07,5.159,8.07s7.078-4.564,5.16-8.07" transform="translate(-67.846 -20.529)" fill="#fff"/>
          <path id="Trazado_631844" data-name="Trazado 631844" d="M290.168,112.968h9.959a5.213,5.213,0,0,0-5.039-3.818,4.781,4.781,0,0,0-4.92,3.818" transform="translate(-58.589 -22.038)" fill="#fff"/>
          <path id="Trazado_631845" data-name="Trazado 631845" d="M298.437,104.41a2.733,2.733,0,1,1-2.733-2.733,2.734,2.734,0,0,1,2.733,2.733" transform="translate(-59.155 -20.529)" fill="#fff"/>
          <path id="Trazado_631846" data-name="Trazado 631846" d="M307.113,102.752v8.55h-.623v-7.988H304.4v-.562Z" transform="translate(-61.463 -20.746)" fill="#fff"/>
          <path id="Trazado_631847" data-name="Trazado 631847" d="M310.509,107.012c0-2.675,1.38-4.336,3.346-4.336s3.346,1.661,3.346,4.336-1.38,4.336-3.346,4.336-3.346-1.661-3.346-4.336m6.07,0c0-2.381-1.112-3.762-2.724-3.762s-2.724,1.381-2.724,3.762,1.111,3.762,2.724,3.762,2.724-1.381,2.724-3.762" transform="translate(-62.696 -20.731)" fill="#fff"/>
          <path id="Trazado_631848" data-name="Trazado 631848" d="M323.63,107.765l-1.661,1.515v1.893h-.611V102.11h.611v6.413l4.079-3.725h.782l-2.749,2.577,3.018,3.8h-.758Z" transform="translate(-64.887 -20.617)" fill="#fff"/>
          <path id="Trazado_631849" data-name="Trazado 631849" d="M359.43,110.784v.581h-6.068v-.454l3.733-3.71c1.048-1.046,1.25-1.664,1.25-2.333,0-1.111-.77-1.8-2.233-1.8a3.14,3.14,0,0,0-2.536,1.022l-.454-.4a3.892,3.892,0,0,1,3.04-1.211c1.729,0,2.84.9,2.84,2.335a3.639,3.639,0,0,1-1.439,2.737l-3.255,3.242Z" transform="translate(-71.3 -20.689)" fill="#fff"/>
          <path id="Trazado_631850" data-name="Trazado 631850" d="M365.7,107.727l-1.716,1.564v1.956h-.63v-9.362h.63v6.623l4.214-3.848h.808l-2.839,2.662,3.116,3.924H368.5Z" transform="translate(-73.366 -20.571)" fill="#fff"/>
          <path id="Trazado_631851" data-name="Trazado 631851" d="M120.988,122H62.708a10.576,10.576,0,0,1-10.576-10.576V93.32A10.576,10.576,0,0,1,62.708,82.744h58.28A10.576,10.576,0,0,1,131.565,93.32v18.1A10.576,10.576,0,0,1,120.988,122" transform="translate(-10.526 -16.706)" fill="#eb6f2d"/>
          <path id="Trazado_631852" data-name="Trazado 631852" d="M91.32,125.795,101.327,140.1a2.91,2.91,0,0,0,4.824-.081l9.688-14.884Z" transform="translate(-18.439 -25.266)" fill="#eb6f2d"/>
          <path id="Trazado_631853" data-name="Trazado 631853" d="M120.737,102.921a2.823,2.823,0,0,0-3.468-1.558,3.535,3.535,0,0,0-1.692,1.558,3.531,3.531,0,0,0-1.691-1.558,2.822,2.822,0,0,0-3.468,1.558c-1.919,3.506,5.159,8.069,5.159,8.069s7.078-4.563,5.16-8.069" transform="translate(-22.228 -20.435)" fill="#fff"/>
          <path id="Trazado_631854" data-name="Trazado 631854" d="M67.436,113.221H77.4a5.214,5.214,0,0,0-5.039-3.818,4.781,4.781,0,0,0-4.92,3.818" transform="translate(-13.616 -22.089)" fill="#fff"/>
          <path id="Trazado_631855" data-name="Trazado 631855" d="M75.7,104.663a2.733,2.733,0,1,1-2.733-2.733,2.733,2.733,0,0,1,2.733,2.733" transform="translate(-14.182 -20.58)" fill="#fff"/>
          <path id="Trazado_631856" data-name="Trazado 631856" d="M84.381,103.006v8.55h-.623v-7.988H81.67v-.562Z" transform="translate(-16.49 -20.798)" fill="#fff"/>
          <path id="Trazado_631857" data-name="Trazado 631857" d="M87.775,107.266c0-2.675,1.381-4.336,3.347-4.336s3.346,1.661,3.346,4.336-1.38,4.336-3.346,4.336-3.347-1.661-3.347-4.336m6.071,0c0-2.381-1.112-3.762-2.724-3.762s-2.724,1.381-2.724,3.762,1.112,3.762,2.724,3.762,2.724-1.381,2.724-3.762" transform="translate(-17.723 -20.782)" fill="#fff"/>
          <path id="Trazado_631858" data-name="Trazado 631858" d="M133.505,110.317v.58h-6.069v-.454l3.734-3.71c1.048-1.047,1.25-1.665,1.25-2.334,0-1.11-.77-1.8-2.234-1.8a3.14,3.14,0,0,0-2.536,1.022l-.454-.4A3.89,3.89,0,0,1,130.238,102c1.728,0,2.838.9,2.838,2.334a3.633,3.633,0,0,1-1.438,2.737l-3.255,3.243Z" transform="translate(-25.683 -20.595)" fill="#fff"/>
          <path id="Trazado_631859" data-name="Trazado 631859" d="M130.553,189.492l10.081,14.413a2.719,2.719,0,0,0,4.507-.075l9.757-14.99Z" transform="translate(-26.361 -38.129)" fill="#eb6f2d"/>
          <path id="Trazado_631860" data-name="Trazado 631860" d="M152.119,191.527H126.424A9.229,9.229,0,0,1,117.2,182.3V168.646a9.228,9.228,0,0,1,9.228-9.228h25.694a9.229,9.229,0,0,1,9.229,9.228V182.3a9.229,9.229,0,0,1-9.229,9.229" transform="translate(-23.664 -32.188)" fill="#eb6f2d"/>
          <path id="Trazado_631861" data-name="Trazado 631861" d="M136.681,187.214h14.563a7.622,7.622,0,0,0-7.368-5.583,6.991,6.991,0,0,0-7.2,5.583" transform="translate(-27.598 -36.673)" fill="#fff"/>
          <path id="Trazado_631862" data-name="Trazado 631862" d="M148.773,174.7a4,4,0,1,1-4-4,4,4,0,0,1,4,4" transform="translate(-28.425 -34.467)" fill="#fff"/>
        </g>
      </g>
    </g>
  </g>
</svg>
