<svg xmlns="http://www.w3.org/2000/svg" xmlns:xlink="http://www.w3.org/1999/xlink" width="598.401" height="128.09" viewBox="0 0 598.401 128.09">
  <defs>
    <filter id="Trazado_501706" x="0" y="0.463" width="126.224" height="126.224" filterUnits="userSpaceOnUse">
      <feOffset dy="3" input="SourceAlpha"/>
      <feGaussianBlur stdDeviation="9" result="blur"/>
      <feFlood flood-opacity="0.161"/>
      <feComposite operator="in" in2="blur"/>
      <feComposite in="SourceGraphic"/>
    </filter>
    <filter id="Trazado_501703" x="116.094" y="0" width="126.225" height="126.224" filterUnits="userSpaceOnUse">
      <feOffset dy="3" input="SourceAlpha"/>
      <feGaussianBlur stdDeviation="9" result="blur-2"/>
      <feFlood flood-opacity="0.161"/>
      <feComposite operator="in" in2="blur-2"/>
      <feComposite in="SourceGraphic"/>
    </filter>
    <filter id="Trazado_630626" x="352.678" y="0" width="126.225" height="126.224" filterUnits="userSpaceOnUse">
      <feOffset dy="3" input="SourceAlpha"/>
      <feGaussianBlur stdDeviation="9" result="blur-3"/>
      <feFlood flood-opacity="0.161"/>
      <feComposite operator="in" in2="blur-3"/>
      <feComposite in="SourceGraphic"/>
    </filter>
    <filter id="Rect치ngulo_277788" x="233.908" y="0.463" width="126.224" height="126.224" filterUnits="userSpaceOnUse">
      <feOffset dy="3" input="SourceAlpha"/>
      <feGaussianBlur stdDeviation="9" result="blur-4"/>
      <feFlood flood-opacity="0.161"/>
      <feComposite operator="in" in2="blur-4"/>
      <feComposite in="SourceGraphic"/>
    </filter>
    <filter id="Trazado_501704" x="472.177" y="1.866" width="126.224" height="126.224" filterUnits="userSpaceOnUse">
      <feOffset dy="3" input="SourceAlpha"/>
      <feGaussianBlur stdDeviation="9" result="blur-5"/>
      <feFlood flood-opacity="0.161"/>
      <feComposite operator="in" in2="blur-5"/>
      <feComposite in="SourceGraphic"/>
    </filter>
  </defs>
  <g id="Grupo_879676" data-name="Grupo 879676" transform="translate(6710.084 -4243.952)">
    <path id="Trazado_501648" data-name="Trazado 501648" d="M427.9,34.9a1.4,1.4,0,1,0,1.4,1.4,1.4,1.4,0,0,0-1.4-1.4" transform="translate(-6645.488 4253.865)" fill="#333"/>
    <path id="Trazado_501649" data-name="Trazado 501649" d="M427.9,28.184a1.4,1.4,0,1,0,1.4,1.4,1.4,1.4,0,0,0-1.4-1.4" transform="translate(-6645.488 4255.019)" fill="#333"/>
    <path id="Trazado_501650" data-name="Trazado 501650" d="M427.9,41.609a1.4,1.4,0,1,0,1.4,1.4,1.4,1.4,0,0,0-1.4-1.4" transform="translate(-6645.488 4252.711)" fill="#333"/>
    <path id="Trazado_501651" data-name="Trazado 501651" d="M427.9,48.322a1.4,1.4,0,1,0,1.4,1.4,1.4,1.4,0,0,0-1.4-1.4" transform="translate(-6645.488 4251.557)" fill="#333"/>
    <path id="Trazado_501652" data-name="Trazado 501652" d="M427.9,21.46a1.4,1.4,0,1,0,1.4,1.4,1.4,1.4,0,0,0-1.4-1.4" transform="translate(-6645.488 4256.176)" fill="#333"/>
    <path id="Trazado_501653" data-name="Trazado 501653" d="M431.736,9a1.462,1.462,0,0,0-.868-.3,1.377,1.377,0,0,0-1.1.542A1.4,1.4,0,1,0,431.736,9" transform="translate(-6646 4258.37)" fill="#333"/>
    <path id="Trazado_501654" data-name="Trazado 501654" d="M428.383,14.787a1.189,1.189,0,0,0-.252-.027,1.418,1.418,0,1,0,.252.027" transform="translate(-6645.528 4257.328)" fill="#333"/>
    <path id="Trazado_501655" data-name="Trazado 501655" d="M531.264,41.575a1.4,1.4,0,1,0,1.4,1.408,1.4,1.4,0,0,0-1.4-1.408" transform="translate(-6663.263 4252.717)" fill="#333"/>
    <path id="Trazado_501656" data-name="Trazado 501656" d="M529.146,11.176a1.394,1.394,0,0,0,.233-1.958V9.209a1.423,1.423,0,0,0-1.1-.532,1.371,1.371,0,0,0-.868.308,1.4,1.4,0,1,0,1.735,2.191" transform="translate(-6662.75 4258.374)" fill="#333"/>
    <path id="Trazado_501657" data-name="Trazado 501657" d="M531.264,34.863a1.4,1.4,0,1,0,1.4,1.4,1.4,1.4,0,0,0-1.4-1.4" transform="translate(-6663.263 4253.871)" fill="#333"/>
    <path id="Trazado_501658" data-name="Trazado 501658" d="M531.264,48.3a1.4,1.4,0,1,0,1.4,1.4,1.4,1.4,0,0,0-1.4-1.4" transform="translate(-6663.263 4251.561)" fill="#333"/>
    <path id="Trazado_501659" data-name="Trazado 501659" d="M531.264,28.15a1.4,1.4,0,1,0,1.4,1.4,1.4,1.4,0,0,0-1.4-1.4" transform="translate(-6663.263 4255.025)" fill="#333"/>
    <path id="Trazado_501660" data-name="Trazado 501660" d="M436.094,4.589a1.4,1.4,0,1,0,.578,2.676,1.4,1.4,0,0,0-.578-2.676" transform="translate(-6646.897 4259.077)" fill="#333"/>
    <path id="Trazado_501661" data-name="Trazado 501661" d="M529.646,16.4a1.4,1.4,0,1,0,1.38-1.66,1.294,1.294,0,0,0-.262.028,1.4,1.4,0,0,0-1.119,1.632" transform="translate(-6663.221 4257.332)" fill="#333"/>
    <path id="Trazado_501662" data-name="Trazado 501662" d="M531.264,21.438a1.4,1.4,0,1,0,1.4,1.4,1.4,1.4,0,0,0-1.4-1.4" transform="translate(-6663.263 4256.179)" fill="#333"/>
    <path id="Trazado_501663" data-name="Trazado 501663" d="M503.074,3.349a1.4,1.4,0,1,0,1.4,1.4,1.4,1.4,0,0,0-1.4-1.4" transform="translate(-6658.415 4259.29)" fill="#333"/>
    <path id="Trazado_501664" data-name="Trazado 501664" d="M496.35,3.349a1.4,1.4,0,1,0,1.4,1.4,1.41,1.41,0,0,0-1.4-1.4" transform="translate(-6657.259 4259.29)" fill="#333"/>
    <path id="Trazado_501665" data-name="Trazado 501665" d="M509.787,3.349a1.4,1.4,0,1,0,1.4,1.4,1.4,1.4,0,0,0-1.4-1.4" transform="translate(-6659.57 4259.29)" fill="#333"/>
    <path id="Trazado_501666" data-name="Trazado 501666" d="M523.611,4.708h.009a1.4,1.4,0,1,0-1.156,2.545,1.4,1.4,0,1,0,1.147-2.545" transform="translate(-6661.848 4259.079)" fill="#333"/>
    <path id="Trazado_501667" data-name="Trazado 501667" d="M442.627,3.349a1.4,1.4,0,1,0,1.4,1.4,1.41,1.41,0,0,0-1.4-1.4" transform="translate(-6648.022 4259.29)" fill="#333"/>
    <path id="Trazado_501668" data-name="Trazado 501668" d="M516.5,3.349a1.4,1.4,0,1,0,1.4,1.4,1.4,1.4,0,0,0-1.4-1.4" transform="translate(-6660.724 4259.29)" fill="#333"/>
    <path id="Trazado_501669" data-name="Trazado 501669" d="M489.638,3.349a1.4,1.4,0,1,0,1.4,1.4,1.4,1.4,0,0,0-1.4-1.4" transform="translate(-6656.105 4259.29)" fill="#333"/>
    <path id="Trazado_501670" data-name="Trazado 501670" d="M456.064,3.349a1.4,1.4,0,1,0,1.4,1.4,1.4,1.4,0,0,0-1.4-1.4" transform="translate(-6650.332 4259.29)" fill="#333"/>
    <path id="Trazado_501671" data-name="Trazado 501671" d="M482.925,3.349a1.4,1.4,0,1,0,1.4,1.4,1.4,1.4,0,0,0-1.4-1.4" transform="translate(-6654.95 4259.29)" fill="#333"/>
    <path id="Trazado_501672" data-name="Trazado 501672" d="M462.776,3.349a1.4,1.4,0,1,0,1.4,1.4,1.4,1.4,0,0,0-1.4-1.4" transform="translate(-6651.486 4259.29)" fill="#333"/>
    <path id="Trazado_501673" data-name="Trazado 501673" d="M449.351,3.349a1.4,1.4,0,1,0,1.4,1.4,1.4,1.4,0,0,0-1.4-1.4" transform="translate(-6649.178 4259.29)" fill="#333"/>
    <path id="Trazado_501674" data-name="Trazado 501674" d="M476.213,3.349a1.4,1.4,0,1,0,1.4,1.4,1.4,1.4,0,0,0-1.4-1.4" transform="translate(-6653.796 4259.29)" fill="#333"/>
    <path id="Trazado_501675" data-name="Trazado 501675" d="M469.5,3.349a1.4,1.4,0,1,0,1.389,1.4,1.4,1.4,0,0,0-1.389-1.4" transform="translate(-6652.643 4259.29)" fill="#333"/>
    <path id="Trazado_501676" data-name="Trazado 501676" d="M531.264,55.034a1.246,1.246,0,0,0-.271.028,1.582,1.582,0,0,0-.718.382,1.417,1.417,0,0,0-.41.989,1.288,1.288,0,0,0,.112.541,1.148,1.148,0,0,0,.121.243,1.856,1.856,0,0,0,.177.214,1.423,1.423,0,0,0,1.26.373,1.492,1.492,0,0,0,.27-.075,1.853,1.853,0,0,0,.234-.131,1.3,1.3,0,0,0,.214-.168,1.863,1.863,0,0,0,.177-.214,1.994,1.994,0,0,0,.131-.243c.027-.084.055-.177.075-.261a1.459,1.459,0,0,0,.027-.28,1.417,1.417,0,0,0-.41-.989,1.4,1.4,0,0,0-.989-.41" transform="translate(-6663.263 4250.402)" fill="#333"/>
    <path id="Trazado_501677" data-name="Trazado 501677" d="M3.73,50.258A3.73,3.73,0,0,1,0,46.527V15.29A15.308,15.308,0,0,1,15.291,0H77.765A15.308,15.308,0,0,1,93.056,15.29V32.262a3.73,3.73,0,0,1-7.461,0V15.29a7.839,7.839,0,0,0-7.83-7.829H15.291a7.838,7.838,0,0,0-7.83,7.829V46.527a3.73,3.73,0,0,1-3.73,3.73" transform="translate(-6693.5 4258)" fill="#efd800"/>
    <path id="Trazado_501678" data-name="Trazado 501678" d="M4.408,47.671a.466.466,0,0,1-.466-.466V15.968A12.04,12.04,0,0,1,15.969,3.941H78.443A12.04,12.04,0,0,1,90.469,15.968V32.939a.466.466,0,1,1-.932,0V15.968A11.107,11.107,0,0,0,78.443,4.874H15.969A11.106,11.106,0,0,0,4.874,15.968V47.205a.466.466,0,0,1-.466.466" transform="translate(-6694.178 4257.322)" fill="#333"/>
    <path id="Trazado_501680" data-name="Trazado 501680" d="M76.183,99.855a1.4,1.4,0,1,1,1.4,1.4,1.406,1.406,0,0,1-1.4-1.4m-5.558,0a1.4,1.4,0,1,1,1.4,1.4,1.405,1.405,0,0,1-1.4-1.4m-5.559,0a1.4,1.4,0,1,1,1.4,1.4,1.406,1.406,0,0,1-1.4-1.4m-5.568,0a1.4,1.4,0,1,1,1.4,1.4,1.412,1.412,0,0,1-1.4-1.4m-5.558,0a1.4,1.4,0,1,1,1.4,1.4,1.405,1.405,0,0,1-1.4-1.4m-5.559,0a1.4,1.4,0,1,1,1.4,1.4,1.406,1.406,0,0,1-1.4-1.4m-5.558,0a1.4,1.4,0,1,1,1.4,1.4,1.405,1.405,0,0,1-1.4-1.4m-5.559,0a1.394,1.394,0,1,1,1.4,1.4,1.4,1.4,0,0,1-1.4-1.4m-5.568,0a1.4,1.4,0,1,1,1.4,1.4,1.406,1.406,0,0,1-1.4-1.4m-5.558,0a1.4,1.4,0,1,1,1.4,1.4,1.405,1.405,0,0,1-1.4-1.4m-5.559,0a1.4,1.4,0,1,1,1.4,1.4,1.406,1.406,0,0,1-1.4-1.4m-5.568,0a1.4,1.4,0,1,1,1.4,1.4,1.412,1.412,0,0,1-1.4-1.4m66.709-.448a1.4,1.4,0,1,1,2.546-1.147,1.384,1.384,0,0,1-.7,1.846h.009a1.384,1.384,0,0,1-1.856-.7m-71.3.69a1.385,1.385,0,1,1,.578.131,1.408,1.408,0,0,1-.578-.131m76.044-3.562a1.4,1.4,0,1,1,1.968-.234v.009a1.422,1.422,0,0,1-1.1.532,1.376,1.376,0,0,1-.868-.307M5.576,96.282a1.4,1.4,0,1,1,1.967.243,1.462,1.462,0,0,1-.868.3,1.377,1.377,0,0,1-1.1-.542M89.35,91.8a1.394,1.394,0,1,1,.513-2.741,1.4,1.4,0,0,1-.252,2.769,1.294,1.294,0,0,1-.262-.028M3.029,90.659a1.4,1.4,0,1,1,1.632,1.119,1.189,1.189,0,0,1-.252.027,1.414,1.414,0,0,1-1.38-1.146m85.38-5.783a1.4,1.4,0,1,1,1.4,1.4,1.4,1.4,0,0,1-1.4-1.4M2.815,84.858a1.4,1.4,0,1,1,1.4,1.4,1.4,1.4,0,0,1-1.4-1.4m85.594-5.54a1.4,1.4,0,1,1,1.4,1.4,1.4,1.4,0,0,1-1.4-1.4M2.815,79.29a1.4,1.4,0,1,1,1.4,1.4,1.4,1.4,0,0,1-1.4-1.4m85.594-5.531a1.4,1.4,0,1,1,1.4,1.4,1.4,1.4,0,0,1-1.4-1.4M2.815,73.731a1.4,1.4,0,1,1,1.4,1.4,1.4,1.4,0,0,1-1.4-1.4m85.594-5.539a1.4,1.4,0,1,1,1.4,1.408,1.4,1.4,0,0,1-1.4-1.408M2.815,68.173a1.4,1.4,0,1,1,1.4,1.4,1.4,1.4,0,0,1-1.4-1.4m85.594-5.54a1.4,1.4,0,1,1,1.4,1.4,1.4,1.4,0,0,1-1.4-1.4M2.815,62.616a1.4,1.4,0,1,1,1.4,1.4,1.4,1.4,0,0,1-1.4-1.4" transform="translate(-6693.984 4247.474)" fill="#333"/>
    <path id="Trazado_501681" data-name="Trazado 501681" d="M107.583,57.3a1.246,1.246,0,0,1-.271-.028,1.2,1.2,0,0,1-.261-.084,1.182,1.182,0,0,1-.243-.131,1.2,1.2,0,0,1-.214-.167,1.416,1.416,0,0,1-.41-.989,1.288,1.288,0,0,1,.112-.541,1.145,1.145,0,0,1,.121-.243,1.937,1.937,0,0,1,.177-.214,1.425,1.425,0,0,1,1.259-.373,1.491,1.491,0,0,1,.27.075,1.979,1.979,0,0,1,.234.131,1.3,1.3,0,0,1,.214.168,1.933,1.933,0,0,1,.177.214,1.993,1.993,0,0,1,.131.243c.027.084.055.177.075.261a1.458,1.458,0,0,1,.027.28,1.416,1.416,0,0,1-.41.989,1.4,1.4,0,0,1-.989.41" transform="translate(-6711.758 4248.628)" fill="#333"/>
    <path id="Trazado_501682" data-name="Trazado 501682" d="M114.2,55.9a1.4,1.4,0,1,1,1.4,1.4,1.4,1.4,0,0,1-1.4-1.4" transform="translate(-6713.137 4248.628)" fill="#333"/>
    <path id="Trazado_501683" data-name="Trazado 501683" d="M123.62,57.3a1.366,1.366,0,0,1-.27-.028,1.207,1.207,0,0,1-.262-.084,1.25,1.25,0,0,1-.624-.513,1.475,1.475,0,0,1-.214-.5,1.367,1.367,0,0,1-.028-.27,1.416,1.416,0,0,1,.411-1,1.463,1.463,0,0,1,1.977,0,1.408,1.408,0,0,1,0,1.986,1.4,1.4,0,0,1-.989.41" transform="translate(-6714.516 4248.625)" fill="#333"/>
    <path id="Trazado_501684" data-name="Trazado 501684" d="M127.146,60.888a.475.475,0,0,1-.206-.047.469.469,0,0,1-.26-.419V49.493a.466.466,0,0,1,.751-.369l7.081,5.464a.467.467,0,0,1,0,.739l-7.081,5.463a.465.465,0,0,1-.285.1m.466-10.446v9.031l5.852-4.515Z" transform="translate(-6715.283 4249.57)" fill="#333"/>
    <path id="Trazado_501685" data-name="Trazado 501685" d="M143.931,51.125a3.73,3.73,0,0,0-3.73,3.73V86.093a15.308,15.308,0,0,0,15.291,15.291h62.474a15.308,15.308,0,0,0,15.291-15.291V69.121a3.73,3.73,0,1,0-7.461,0V86.093a7.839,7.839,0,0,1-7.83,7.829H155.492a7.838,7.838,0,0,1-7.83-7.829V54.855a3.73,3.73,0,0,0-3.73-3.73" transform="translate(-6717.607 4249.209)" fill="#94bf10"/>
    <path id="Trazado_630624" data-name="Trazado 630624" d="M143.931,51.125a3.73,3.73,0,0,0-3.73,3.73V86.093a15.308,15.308,0,0,0,15.291,15.291h62.474a15.308,15.308,0,0,0,15.291-15.291V69.121a3.73,3.73,0,1,0-7.461,0V86.093a7.839,7.839,0,0,1-7.83,7.829H155.492a7.838,7.838,0,0,1-7.83-7.829V54.855a3.73,3.73,0,0,0-3.73-3.73" transform="translate(-6481.023 4249.209)" fill="#e44e00"/>
    <path id="Trazado_501686" data-name="Trazado 501686" d="M144.609,55.067a.466.466,0,0,0-.466.466V86.771A12.04,12.04,0,0,0,156.17,98.8h62.474A12.04,12.04,0,0,0,230.67,86.771V69.8a.466.466,0,1,0-.932,0V86.771a11.107,11.107,0,0,1-11.094,11.093H156.17a11.106,11.106,0,0,1-11.094-11.093V55.533a.466.466,0,0,0-.466-.466" transform="translate(-6718.285 4248.531)" fill="#333"/>
    <path id="Trazado_630625" data-name="Trazado 630625" d="M144.609,55.067a.466.466,0,0,0-.466.466V86.771A12.04,12.04,0,0,0,156.17,98.8h62.474A12.04,12.04,0,0,0,230.67,86.771V69.8a.466.466,0,1,0-.932,0V86.771a11.107,11.107,0,0,1-11.094,11.093H156.17a11.106,11.106,0,0,1-11.094-11.093V55.533a.466.466,0,0,0-.466-.466" transform="translate(-6481.701 4248.531)" fill="#333"/>
    <path id="Trazado_501687" data-name="Trazado 501687" d="M144.416,53.937a1.4,1.4,0,0,0-.989,2.4,1.463,1.463,0,0,0,1.977,0,1.852,1.852,0,0,0,.178-.214,1.989,1.989,0,0,0,.13-.243,2.569,2.569,0,0,0,.075-.261,1.4,1.4,0,0,0-1.37-1.678" transform="translate(-6718.092 4248.726)" fill="#333"/>
    <path id="Trazado_630632" data-name="Trazado 630632" d="M144.416,53.937a1.4,1.4,0,0,0-.989,2.4,1.463,1.463,0,0,0,1.977,0,1.852,1.852,0,0,0,.178-.214,1.989,1.989,0,0,0,.13-.243,2.569,2.569,0,0,0,.075-.261,1.4,1.4,0,0,0-1.37-1.678" transform="translate(-6481.507 4248.726)" fill="#333"/>
    <path id="Trazado_501688" data-name="Trazado 501688" d="M217.783,2.253h0a1.4,1.4,0,1,1-1.4,1.4,1.4,1.4,0,0,1,1.4-1.4m-5.558,0h0a1.4,1.4,0,1,1-1.4,1.4,1.4,1.4,0,0,1,1.4-1.4m-5.559,0h0a1.4,1.4,0,1,1-1.4,1.4,1.409,1.409,0,0,1,1.4-1.4m-5.568,0h0a1.4,1.4,0,1,1-1.4,1.4,1.4,1.4,0,0,1,1.4-1.4m-5.558,0h0a1.4,1.4,0,1,1-1.4,1.4,1.4,1.4,0,0,1,1.4-1.4m-5.559,0h0a1.4,1.4,0,1,1-1.4,1.4,1.4,1.4,0,0,1,1.4-1.4m-5.558,0h0a1.4,1.4,0,1,1-1.4,1.4,1.4,1.4,0,0,1,1.4-1.4m-5.559,0h0a1.4,1.4,0,1,1-1.4,1.4,1.4,1.4,0,0,1,1.4-1.4m-5.568,0h0a1.4,1.4,0,1,1-1.4,1.4,1.4,1.4,0,0,1,1.4-1.4m-5.558,0h0a1.4,1.4,0,1,1-1.4,1.4,1.4,1.4,0,0,1,1.4-1.4m-5.559,0h0a1.4,1.4,0,1,1-1.4,1.4,1.4,1.4,0,0,1,1.4-1.4m-5.568,0h0a1.4,1.4,0,1,1-1.4,1.4,1.4,1.4,0,0,1,1.4-1.4M223.2,3.27h0a1.415,1.415,0,0,1,.578.13h-.009a1.4,1.4,0,0,1-1.148,2.546A1.4,1.4,0,0,1,223.2,3.27m-72,.009h0a1.413,1.413,0,1,1-.578.13,1.4,1.4,0,0,1,.578-.13m76.334,3.385h0a1.421,1.421,0,0,1,1.1.532v.009a1.4,1.4,0,1,1-1.967-.234,1.375,1.375,0,0,1,.868-.308m-80.661.018h0a1.462,1.462,0,0,1,.868.3,1.4,1.4,0,1,1-1.968.243,1.379,1.379,0,0,1,1.1-.542m82.937,5h0a1.421,1.421,0,1,1-.262.028,1.293,1.293,0,0,1,.262-.028m-85.2.019h0a1.191,1.191,0,0,1,.253.027,1.378,1.378,0,1,1-.253-.027m85.4,5.53h0a1.4,1.4,0,1,1-1.4,1.4,1.4,1.4,0,0,1,1.4-1.4m-85.594.018h0a1.4,1.4,0,1,1-1.4,1.4,1.4,1.4,0,0,1,1.4-1.4m85.594,5.54h0a1.4,1.4,0,1,1-1.4,1.4,1.4,1.4,0,0,1,1.4-1.4m-85.594.029h0a1.4,1.4,0,1,1-1.4,1.4,1.4,1.4,0,0,1,1.4-1.4m85.594,5.53h0a1.4,1.4,0,1,1-1.4,1.4,1.4,1.4,0,0,1,1.4-1.4m-85.594.028h0a1.4,1.4,0,1,1-1.4,1.4,1.4,1.4,0,0,1,1.4-1.4m85.594,5.53h0a1.4,1.4,0,1,1-1.4,1.409,1.405,1.405,0,0,1,1.4-1.409m-85.594.029h0a1.4,1.4,0,1,1-1.4,1.4,1.4,1.4,0,0,1,1.4-1.4m85.594,5.539h0a1.4,1.4,0,1,1-1.4,1.4,1.4,1.4,0,0,1,1.4-1.4m-85.594.019h0a1.4,1.4,0,1,1-1.4,1.4,1.4,1.4,0,0,1,1.4-1.4" transform="translate(-6718.092 4257.613)" fill="#333"/>
    <path id="Trazado_630631" data-name="Trazado 630631" d="M217.783,2.253h0a1.4,1.4,0,1,1-1.4,1.4,1.4,1.4,0,0,1,1.4-1.4m-5.558,0h0a1.4,1.4,0,1,1-1.4,1.4,1.4,1.4,0,0,1,1.4-1.4m-5.559,0h0a1.4,1.4,0,1,1-1.4,1.4,1.409,1.409,0,0,1,1.4-1.4m-5.568,0h0a1.4,1.4,0,1,1-1.4,1.4,1.4,1.4,0,0,1,1.4-1.4m-5.558,0h0a1.4,1.4,0,1,1-1.4,1.4,1.4,1.4,0,0,1,1.4-1.4m-5.559,0h0a1.4,1.4,0,1,1-1.4,1.4,1.4,1.4,0,0,1,1.4-1.4m-5.558,0h0a1.4,1.4,0,1,1-1.4,1.4,1.4,1.4,0,0,1,1.4-1.4m-5.559,0h0a1.4,1.4,0,1,1-1.4,1.4,1.4,1.4,0,0,1,1.4-1.4m-5.568,0h0a1.4,1.4,0,1,1-1.4,1.4,1.4,1.4,0,0,1,1.4-1.4m-5.558,0h0a1.4,1.4,0,1,1-1.4,1.4,1.4,1.4,0,0,1,1.4-1.4m-5.559,0h0a1.4,1.4,0,1,1-1.4,1.4,1.4,1.4,0,0,1,1.4-1.4m-5.568,0h0a1.4,1.4,0,1,1-1.4,1.4,1.4,1.4,0,0,1,1.4-1.4M223.2,3.27h0a1.415,1.415,0,0,1,.578.13h-.009a1.4,1.4,0,0,1-1.148,2.546A1.4,1.4,0,0,1,223.2,3.27m-72,.009h0a1.413,1.413,0,1,1-.578.13,1.4,1.4,0,0,1,.578-.13m76.334,3.385h0a1.421,1.421,0,0,1,1.1.532v.009a1.4,1.4,0,1,1-1.967-.234,1.375,1.375,0,0,1,.868-.308m-80.661.018h0a1.462,1.462,0,0,1,.868.3,1.4,1.4,0,1,1-1.968.243,1.379,1.379,0,0,1,1.1-.542m82.937,5h0a1.421,1.421,0,1,1-.262.028,1.293,1.293,0,0,1,.262-.028m-85.2.019h0a1.191,1.191,0,0,1,.253.027,1.378,1.378,0,1,1-.253-.027m85.4,5.53h0a1.4,1.4,0,1,1-1.4,1.4,1.4,1.4,0,0,1,1.4-1.4m-85.594.018h0a1.4,1.4,0,1,1-1.4,1.4,1.4,1.4,0,0,1,1.4-1.4m85.594,5.54h0a1.4,1.4,0,1,1-1.4,1.4,1.4,1.4,0,0,1,1.4-1.4m-85.594.029h0a1.4,1.4,0,1,1-1.4,1.4,1.4,1.4,0,0,1,1.4-1.4m85.594,5.53h0a1.4,1.4,0,1,1-1.4,1.4,1.4,1.4,0,0,1,1.4-1.4m-85.594.028h0a1.4,1.4,0,1,1-1.4,1.4,1.4,1.4,0,0,1,1.4-1.4m85.594,5.53h0a1.4,1.4,0,1,1-1.4,1.409,1.405,1.405,0,0,1,1.4-1.409m-85.594.029h0a1.4,1.4,0,1,1-1.4,1.4,1.4,1.4,0,0,1,1.4-1.4m85.594,5.539h0a1.4,1.4,0,1,1-1.4,1.4,1.4,1.4,0,0,1,1.4-1.4m-85.594.019h0a1.4,1.4,0,1,1-1.4,1.4,1.4,1.4,0,0,1,1.4-1.4" transform="translate(-6481.507 4257.613)" fill="#333"/>
    <path id="Trazado_501689" data-name="Trazado 501689" d="M247.784,53.937a1.3,1.3,0,0,0-.271.027,1.57,1.57,0,0,0-.718.383,1.417,1.417,0,0,0-.41.989,1.466,1.466,0,0,0,.027.28,1.448,1.448,0,0,0,.084.261,1.145,1.145,0,0,0,.121.243,2.033,2.033,0,0,0,.177.214,1.426,1.426,0,0,0,1.259.373,1.492,1.492,0,0,0,.27-.075,1.979,1.979,0,0,0,.233-.131,1.346,1.346,0,0,0,.214-.168,1.94,1.94,0,0,0,.177-.214,1.993,1.993,0,0,0,.131-.243c.027-.084.055-.177.075-.261a1.463,1.463,0,0,0,.027-.28,1.416,1.416,0,0,0-.41-.989,1.4,1.4,0,0,0-.989-.41" transform="translate(-6735.865 4248.726)" fill="#333"/>
    <path id="Trazado_630628" data-name="Trazado 630628" d="M247.784,53.937a1.3,1.3,0,0,0-.271.027,1.57,1.57,0,0,0-.718.383,1.417,1.417,0,0,0-.41.989,1.466,1.466,0,0,0,.027.28,1.448,1.448,0,0,0,.084.261,1.145,1.145,0,0,0,.121.243,2.033,2.033,0,0,0,.177.214,1.426,1.426,0,0,0,1.259.373,1.492,1.492,0,0,0,.27-.075,1.979,1.979,0,0,0,.233-.131,1.346,1.346,0,0,0,.214-.168,1.94,1.94,0,0,0,.177-.214,1.993,1.993,0,0,0,.131-.243c.027-.084.055-.177.075-.261a1.463,1.463,0,0,0,.027-.28,1.416,1.416,0,0,0-.41-.989,1.4,1.4,0,0,0-.989-.41" transform="translate(-6499.281 4248.726)" fill="#333"/>
    <path id="Trazado_501690" data-name="Trazado 501690" d="M254.4,55.337a1.4,1.4,0,1,0,1.4-1.4,1.4,1.4,0,0,0-1.4,1.4" transform="translate(-6737.245 4248.726)" fill="#333"/>
    <path id="Trazado_630629" data-name="Trazado 630629" d="M254.4,55.337a1.4,1.4,0,1,0,1.4-1.4,1.4,1.4,0,0,0-1.4,1.4" transform="translate(-6500.66 4248.726)" fill="#333"/>
    <path id="Trazado_501691" data-name="Trazado 501691" d="M263.821,53.937a1.429,1.429,0,0,0-.271.027,1.519,1.519,0,0,0-.5.214,1.125,1.125,0,0,0-.383.383,1.245,1.245,0,0,0-.131.242,1.208,1.208,0,0,0-.084.262,1.4,1.4,0,0,0,.383,1.268,1.463,1.463,0,0,0,1.977,0,1.406,1.406,0,0,0,0-1.986,1.394,1.394,0,0,0-.988-.41" transform="translate(-6738.623 4248.726)" fill="#333"/>
    <path id="Trazado_630630" data-name="Trazado 630630" d="M263.821,53.937a1.429,1.429,0,0,0-.271.027,1.519,1.519,0,0,0-.5.214,1.125,1.125,0,0,0-.383.383,1.245,1.245,0,0,0-.131.242,1.208,1.208,0,0,0-.084.262,1.4,1.4,0,0,0,.383,1.268,1.463,1.463,0,0,0,1.977,0,1.406,1.406,0,0,0,0-1.986,1.394,1.394,0,0,0-.988-.41" transform="translate(-6502.039 4248.726)" fill="#333"/>
    <path id="Trazado_501692" data-name="Trazado 501692" d="M267.632,48.566l7.082,5.463a.467.467,0,0,1,0,.739l-7.082,5.464a.466.466,0,0,1-.751-.369V48.934a.469.469,0,0,1,.26-.419.475.475,0,0,1,.206-.047.465.465,0,0,1,.285.1m6.033,5.833-5.852-4.515v9.031Z" transform="translate(-6739.39 4249.666)" fill="#333"/>
    <path id="Trazado_630627" data-name="Trazado 630627" d="M267.632,48.566l7.082,5.463a.467.467,0,0,1,0,.739l-7.082,5.464a.466.466,0,0,1-.751-.369V48.934a.469.469,0,0,1,.26-.419.475.475,0,0,1,.206-.047.465.465,0,0,1,.285.1m6.033,5.833-5.852-4.515v9.031Z" transform="translate(-6502.805 4249.666)" fill="#333"/>
    <path id="Trazado_501693" data-name="Trazado 501693" d="M286.212,50.258a3.73,3.73,0,0,1-3.73-3.73V15.29A15.308,15.308,0,0,1,297.773,0h62.474a15.308,15.308,0,0,1,15.291,15.29V32.262a3.73,3.73,0,1,1-7.461,0V15.29a7.839,7.839,0,0,0-7.83-7.829H297.773a7.838,7.838,0,0,0-7.83,7.829V46.527a3.73,3.73,0,0,1-3.73,3.73" transform="translate(-6742.072 4258)" fill="#08afaf"/>
    <path id="Trazado_501694" data-name="Trazado 501694" d="M286.89,47.671a.466.466,0,0,1-.466-.466V15.968A12.04,12.04,0,0,1,298.451,3.941h62.474a12.04,12.04,0,0,1,12.027,12.027V32.939a.466.466,0,1,1-.932,0V15.968A11.107,11.107,0,0,0,360.925,4.874H298.451a11.106,11.106,0,0,0-11.094,11.093V47.205a.466.466,0,0,1-.466.466" transform="translate(-6742.75 4257.322)" fill="#333"/>
    <path id="Trazado_501695" data-name="Trazado 501695" d="M286.7,57.3a1.4,1.4,0,0,1-.989-2.4,1.463,1.463,0,0,1,1.977,0,1.859,1.859,0,0,1,.178.214,1.984,1.984,0,0,1,.13.243,2.566,2.566,0,0,1,.075.261,1.391,1.391,0,0,1,.028.28,1.414,1.414,0,0,1-.411.989,1.4,1.4,0,0,1-.988.41" transform="translate(-6742.557 4248.625)" fill="#333"/>
    <path id="Trazado_501696" data-name="Trazado 501696" d="M358.665,99.855a1.4,1.4,0,1,1,1.4,1.4,1.406,1.406,0,0,1-1.4-1.4m-5.558,0a1.4,1.4,0,1,1,1.4,1.4,1.405,1.405,0,0,1-1.4-1.4m-5.559,0a1.4,1.4,0,1,1,1.4,1.4,1.406,1.406,0,0,1-1.4-1.4m-5.568,0a1.4,1.4,0,1,1,1.4,1.4,1.412,1.412,0,0,1-1.4-1.4m-5.558,0a1.4,1.4,0,1,1,1.4,1.4,1.405,1.405,0,0,1-1.4-1.4m-5.559,0a1.4,1.4,0,1,1,1.4,1.4,1.406,1.406,0,0,1-1.4-1.4m-5.559,0a1.4,1.4,0,1,1,1.4,1.4,1.406,1.406,0,0,1-1.4-1.4m-5.558,0a1.394,1.394,0,1,1,1.4,1.4,1.4,1.4,0,0,1-1.4-1.4m-5.568,0a1.4,1.4,0,1,1,1.4,1.4,1.406,1.406,0,0,1-1.4-1.4m-5.558,0a1.4,1.4,0,1,1,1.4,1.4,1.405,1.405,0,0,1-1.4-1.4m-5.559,0a1.4,1.4,0,1,1,1.4,1.4,1.406,1.406,0,0,1-1.4-1.4m-5.568,0a1.4,1.4,0,1,1,1.4,1.4,1.412,1.412,0,0,1-1.4-1.4m66.709-.448a1.4,1.4,0,0,1,2.546-1.147,1.384,1.384,0,0,1-.7,1.846h.009a1.384,1.384,0,0,1-1.856-.7m-71.3.69a1.384,1.384,0,1,1,.578.131,1.407,1.407,0,0,1-.578-.131m76.044-3.562a1.4,1.4,0,1,1,1.968-.234v.009a1.422,1.422,0,0,1-1.1.532,1.374,1.374,0,0,1-.868-.307m-80.893-.252a1.4,1.4,0,1,1,1.967.243,1.462,1.462,0,0,1-.868.3,1.377,1.377,0,0,1-1.1-.542M371.832,91.8a1.394,1.394,0,1,1,.513-2.741,1.4,1.4,0,0,1-.252,2.769,1.294,1.294,0,0,1-.262-.028m-86.321-1.137a1.4,1.4,0,1,1,1.632,1.119,1.189,1.189,0,0,1-.252.027,1.414,1.414,0,0,1-1.38-1.146m85.38-5.783a1.4,1.4,0,1,1,1.4,1.4,1.4,1.4,0,0,1-1.4-1.4M285.3,84.858a1.4,1.4,0,1,1,1.4,1.4,1.4,1.4,0,0,1-1.4-1.4m85.594-5.54a1.4,1.4,0,1,1,1.4,1.4,1.4,1.4,0,0,1-1.4-1.4M285.3,79.29a1.4,1.4,0,1,1,1.4,1.4,1.4,1.4,0,0,1-1.4-1.4m85.594-5.531a1.4,1.4,0,1,1,1.4,1.4,1.4,1.4,0,0,1-1.4-1.4M285.3,73.731a1.4,1.4,0,1,1,1.4,1.4,1.4,1.4,0,0,1-1.4-1.4m85.594-5.539a1.4,1.4,0,1,1,1.4,1.408,1.4,1.4,0,0,1-1.4-1.408M285.3,68.173a1.4,1.4,0,1,1,1.4,1.4,1.4,1.4,0,0,1-1.4-1.4m85.594-5.54a1.4,1.4,0,1,1,1.4,1.4,1.4,1.4,0,0,1-1.4-1.4M285.3,62.616a1.4,1.4,0,1,1,1.4,1.4,1.4,1.4,0,0,1-1.4-1.4" transform="translate(-6742.557 4247.474)" fill="#333"/>
    <path id="Trazado_501697" data-name="Trazado 501697" d="M390.063,57.3a1.24,1.24,0,0,1-.271-.028,1.2,1.2,0,0,1-.261-.084,1.183,1.183,0,0,1-.243-.131,1.2,1.2,0,0,1-.214-.167,1.417,1.417,0,0,1-.41-.989,1.289,1.289,0,0,1,.112-.541,1.145,1.145,0,0,1,.121-.243,1.944,1.944,0,0,1,.177-.214,1.426,1.426,0,0,1,1.26-.373,1.491,1.491,0,0,1,.27.075,2.044,2.044,0,0,1,.234.131,1.3,1.3,0,0,1,.214.168,1.938,1.938,0,0,1,.177.214,2,2,0,0,1,.131.243c.027.084.056.177.075.261a1.455,1.455,0,0,1,.027.28,1.417,1.417,0,0,1-.41.989,1.4,1.4,0,0,1-.989.41" transform="translate(-6760.331 4248.628)" fill="#333"/>
    <path id="Trazado_501698" data-name="Trazado 501698" d="M396.684,55.9a1.4,1.4,0,1,1,1.4,1.4,1.4,1.4,0,0,1-1.4-1.4" transform="translate(-6761.709 4248.628)" fill="#333"/>
    <path id="Trazado_501699" data-name="Trazado 501699" d="M406.1,57.3a1.366,1.366,0,0,1-.27-.028,1.191,1.191,0,0,1-.262-.084,1.25,1.25,0,0,1-.624-.513,1.472,1.472,0,0,1-.215-.5,1.367,1.367,0,0,1-.028-.27,1.416,1.416,0,0,1,.411-1,1.463,1.463,0,0,1,1.977,0,1.408,1.408,0,0,1,0,1.986,1.4,1.4,0,0,1-.989.41" transform="translate(-6763.088 4248.625)" fill="#333"/>
    <path id="Trazado_501700" data-name="Trazado 501700" d="M409.628,60.888a.475.475,0,0,1-.206-.047.469.469,0,0,1-.26-.419V49.493a.466.466,0,0,1,.751-.369l7.082,5.464a.467.467,0,0,1,0,.739l-7.082,5.463a.465.465,0,0,1-.285.1m.466-10.446v9.031l5.852-4.515Z" transform="translate(-6763.855 4249.57)" fill="#333"/>
    <path id="Trazado_501701" data-name="Trazado 501701" d="M427.412,52.223a3.73,3.73,0,0,0-3.73,3.73V87.191a15.308,15.308,0,0,0,15.291,15.291h62.474a15.308,15.308,0,0,0,15.291-15.291V70.219a3.73,3.73,0,1,0-7.461,0V87.191a7.839,7.839,0,0,1-7.83,7.829H438.973a7.838,7.838,0,0,1-7.83-7.829V55.953a3.73,3.73,0,0,0-3.73-3.73" transform="translate(-6645.005 4250.886)" fill="#617a0b"/>
    <path id="Trazado_501702" data-name="Trazado 501702" d="M428.09,56.165a.466.466,0,0,0-.466.466V87.869A12.04,12.04,0,0,0,439.651,99.9h62.474a12.04,12.04,0,0,0,12.027-12.027V70.9a.466.466,0,0,0-.932,0V87.869a11.107,11.107,0,0,1-11.094,11.093H439.651a11.106,11.106,0,0,1-11.094-11.093V56.631a.466.466,0,0,0-.466-.466" transform="translate(-6645.683 4250.208)" fill="#fff"/>
    <g transform="matrix(1, 0, 0, 1, -6710.08, 4243.95)" filter="url(#Trazado_501706)">
      <path id="Trazado_501706-2" data-name="Trazado 501706" d="M4.269,0H67.954a4.269,4.269,0,0,1,4.269,4.269V67.955a4.269,4.269,0,0,1-4.269,4.269H4.27A4.27,4.27,0,0,1,0,67.954V4.269A4.269,4.269,0,0,1,4.269,0Z" transform="translate(27 24.46)" fill="#fff"/>
    </g>
    <g transform="matrix(1, 0, 0, 1, -6710.08, 4243.95)" filter="url(#Trazado_501703)">
      <path id="Trazado_501703-2" data-name="Trazado 501703" d="M152.78,18.551V77.712a6.531,6.531,0,0,0,6.532,6.532h59.161A6.532,6.532,0,0,0,225,77.712V18.551a6.532,6.532,0,0,0-6.532-6.532H159.312a6.532,6.532,0,0,0-6.532,6.532" transform="translate(-9.69 11.98)" fill="#fff"/>
    </g>
    <g transform="matrix(1, 0, 0, 1, -6710.08, 4243.95)" filter="url(#Trazado_630626)">
      <path id="Trazado_630626-2" data-name="Trazado 630626" d="M152.78,18.551V77.712a6.531,6.531,0,0,0,6.532,6.532h59.161A6.532,6.532,0,0,0,225,77.712V18.551a6.532,6.532,0,0,0-6.532-6.532H159.312a6.532,6.532,0,0,0-6.532,6.532" transform="translate(226.9 11.98)" fill="#fff"/>
    </g>
    <g transform="matrix(1, 0, 0, 1, -6710.08, 4243.95)" filter="url(#Rect치ngulo_277788)">
      <rect id="Rect치ngulo_277788-2" data-name="Rect치ngulo 277788" width="72.224" height="72.224" rx="7.888" transform="translate(260.91 24.46)" fill="#fff"/>
    </g>
    <g transform="matrix(1, 0, 0, 1, -6710.08, 4243.95)" filter="url(#Trazado_501704)">
      <path id="Trazado_501704-2" data-name="Trazado 501704" d="M436.26,18.551V77.712a6.531,6.531,0,0,0,6.532,6.532h59.161a6.532,6.532,0,0,0,6.532-6.532V18.551a6.532,6.532,0,0,0-6.532-6.532H442.792a6.532,6.532,0,0,0-6.532,6.532" transform="translate(62.92 13.85)" fill="#fff"/>
    </g>
    <path id="Trazado_501705" data-name="Trazado 501705" d="M427.9,53.937a1.4,1.4,0,0,0-.989,2.4,1.463,1.463,0,0,0,1.977,0,1.859,1.859,0,0,0,.178-.214,1.989,1.989,0,0,0,.13-.243,2.565,2.565,0,0,0,.075-.261,1.4,1.4,0,0,0,.028-.28,1.414,1.414,0,0,0-.411-.989,1.4,1.4,0,0,0-.988-.41" transform="translate(-6645.488 4250.591)" fill="#fff"/>
    <text id="Interesante" transform="translate(-6679.482 4294.4)" fill="#12263f" font-size="10" font-family="Roboto-Regular, Roboto"><tspan x="6.904" y="10">Interesante</tspan></text>
    <text id="Original" transform="translate(-6563.389 4295.4)" fill="#12263f" font-size="10" font-family="Roboto-Regular, Roboto"><tspan x="14.885" y="10">Original</tspan></text>
    <text id="Aporte_valor_a_los_usuarios" data-name="Aporte valor a los usuarios" transform="translate(-6325.662 4285.974)" fill="#12263f" font-size="10" font-family="Roboto-Regular, Roboto"><tspan x="0.866" y="10">Aporte valor a </tspan><tspan x="4.912" y="28">los usuarios</tspan></text>
    <text id="Aporte_aprendizaje" data-name="Aporte aprendizaje" transform="translate(-6445.573 4287.551)" fill="#12263f" font-size="10" font-family="Roboto-Regular, Roboto"><tspan x="16.923" y="10">Aporte </tspan><tspan x="6.286" y="28">aprendizaje</tspan></text>
    <text id="Relacionado_con_lo_que_los_usuarios_buscan" data-name="Relacionado con lo que los usuarios buscan" transform="translate(-6207.275 4276.52)" fill="#12263f" font-size="10" font-family="Roboto-Regular, Roboto"><tspan x="4.445" y="10">Relacionado </tspan><tspan x="1.042" y="27">con lo que los </tspan><tspan x="12.793" y="44">usuarios </tspan><tspan x="15.703" y="61">buscan</tspan></text>
  </g>
</svg>
