<svg xmlns="http://www.w3.org/2000/svg" width="152.176" height="177.238" viewBox="0 0 152.176 177.238">
  <g id="Grupo_1034307" data-name="Grupo 1034307" transform="translate(-370 -17522.125)">
    <path id="Trazado_631915" data-name="Trazado 631915" d="M90.047,519.334c-39.368,0-71.282-31.4-71.282-70.15s31.914-70.152,71.282-70.152c.056,0,.11,0,.164,0V360.567c-.056,0-.108,0-.164,0C40.315,360.564,0,400.242,0,449.183S40.315,537.8,90.047,537.8c.056,0,.108,0,.164,0V519.331c-.054,0-.108,0-.164,0" transform="translate(370 17161.561)" fill="#ffb338"/>
    <path id="Trazado_631916" data-name="Trazado 631916" d="M0,449.183H18.765c0-38.742,31.915-70.151,71.282-70.151.056,0,.11,0,.163,0V360.568c-.056,0-.107,0-.163,0C40.315,360.565,0,400.243,0,449.183" transform="translate(370 17161.561)" fill="#fba417"/>
    <path id="Trazado_631922" data-name="Trazado 631922" d="M114.737,413.173c34.315,0,62.129,27.376,62.129,61.143s-27.815,61.142-62.129,61.142-62.128-27.373-62.128-61.142,27.816-61.143,62.128-61.143" transform="translate(345.31 17136.428)" fill="#ffb338"/>
    <path id="Trazado_631923" data-name="Trazado 631923" d="M114.737,413.173c-34.312,0-62.128,27.376-62.128,61.143H176.866c0-33.767-27.815-61.143-62.129-61.143" transform="translate(345.31 17136.428)" fill="#fba417"/>
    <g id="expanded" transform="translate(427.5 17578.721)">
      <path id="Trazado_631953" data-name="Trazado 631953" d="M16.688,51.5a6.423,6.423,0,1,0-6.423-6.423A6.423,6.423,0,0,0,16.688,51.5Zm0-9.846a3.423,3.423,0,1,1-3.423,3.423,3.423,3.423,0,0,1,3.423-3.423Z" fill="#12263f"/>
      <path id="Trazado_631954" data-name="Trazado 631954" d="M62,28.05a1.5,1.5,0,0,0-1.5,1.5V60a.506.506,0,0,1-.5.5H56.5V46A1.5,1.5,0,0,0,55,44.5H49.5V37A1.5,1.5,0,0,0,48,35.5H41A1.5,1.5,0,0,0,39.5,37V48.5H34A1.5,1.5,0,0,0,32.5,50V60.5H27.3a11.973,11.973,0,0,0-21.211,0H4a.506.506,0,0,1-.5-.5V13.5H28a1.5,1.5,0,1,0,0-3H3.5V4A.506.506,0,0,1,4,3.5H34.45a1.5,1.5,0,1,0,0-3H4A3.5,3.5,0,0,0,.5,4V60A3.5,3.5,0,0,0,4,63.5H60A3.5,3.5,0,0,0,63.5,60V29.55a1.5,1.5,0,0,0-1.5-1.5ZM9.7,60.5a8.859,8.859,0,0,1,13.981,0Zm29.8,0h-4v-9h4Zm7,0h-4v-22h4Zm7,0h-4v-13h4Z" fill="#12263f"/>
      <path id="Trazado_631955" data-name="Trazado 631955" d="M29,18.5H15a1.5,1.5,0,0,0,0,3H29a1.5,1.5,0,0,0,0-3Z" fill="#12263f"/>
      <path id="Trazado_631956" data-name="Trazado 631956" d="M29,24.5H15a1.5,1.5,0,0,0,0,3H29a1.5,1.5,0,0,0,0-3Z" fill="#12263f"/>
      <path id="Trazado_631957" data-name="Trazado 631957" d="M30.5,32A1.5,1.5,0,0,0,29,30.5H15a1.5,1.5,0,0,0,0,3H29A1.5,1.5,0,0,0,30.5,32Z" fill="#12263f"/>
      <path id="Trazado_631958" data-name="Trazado 631958" d="M48,.5A15.5,15.5,0,1,0,63.5,16,15.5,15.5,0,0,0,48,.5Zm8.107,10.19L46.415,23.151a1.5,1.5,0,0,1-2.384-.021l-4.154-5.538a1.5,1.5,0,1,1,2.4-1.8l2.975,3.968L53.739,8.849a1.5,1.5,0,0,1,2.368,1.842Z" fill="#12263f"/>
      <circle id="Elipse_6685" data-name="Elipse 6685" cx="2" cy="2" r="2" transform="translate(7 30)" fill="#12263f"/>
      <circle id="Elipse_6686" data-name="Elipse 6686" cx="2" cy="2" r="2" transform="translate(7 18.02)" fill="#12263f"/>
      <circle id="Elipse_6687" data-name="Elipse 6687" cx="2" cy="2" r="2" transform="translate(7 24.01)" fill="#12263f"/>
    </g>
  </g>
</svg>
