<svg id="Grupo_879571" data-name="Grupo 879571" xmlns="http://www.w3.org/2000/svg" xmlns:xlink="http://www.w3.org/1999/xlink" width="233.125" height="217.647" viewBox="0 0 233.125 217.647">
  <defs>
    <clipPath id="clip-path">
      <rect id="Rectángulo_328923" data-name="Rectángulo 328923" width="233.125" height="217.647" fill="none"/>
    </clipPath>
    <clipPath id="clip-path-6">
      <rect id="Rectángulo_328919" data-name="Rectángulo 328919" width="40.062" height="20.87" fill="none"/>
    </clipPath>
  </defs>
  <g id="Grupo_879450" data-name="Grupo 879450" clip-path="url(#clip-path)">
    <g id="Grupo_879436" data-name="Grupo 879436">
      <g id="Grupo_879435" data-name="Grupo 879435" clip-path="url(#clip-path)">
        <path id="Trazado_629952" data-name="Trazado 629952" d="M397.35,382.7h1.731l3.778-5.265v-3.456s2.676-.165,2.361,4.36.025,3.373.025,3.373,5.682.022,6.154.515c.344.359.5,6,.559,9.064a3.315,3.315,0,0,1-2.349,3.339,2.493,2.493,0,0,1-.611.082c-1.417,0-8.658-1.152-8.658-1.152h-2.99Z" transform="translate(-195.777 -184.261)" fill="#e0e0e0"/>
        <path id="Trazado_629953" data-name="Trazado 629953" d="M387.58,389.3l1.065,11.841h2.965v-11.6Z" transform="translate(-190.963 -191.81)" fill="#e0e0e0"/>
        <path id="Trazado_629954" data-name="Trazado 629954" d="M222.838,39.718,230.3,50.382a2.011,2.011,0,0,0,3.334-.056l7.218-11.09Z" transform="translate(-109.794 -19.332)" fill="#e0e0e0"/>
        <path id="Trazado_629955" data-name="Trazado 629955" d="M234.089,28.746H213.158a5.866,5.866,0,0,1-5.866-5.866V10.858a5.866,5.866,0,0,1,5.866-5.866h20.931a5.867,5.867,0,0,1,5.866,5.866V22.88a5.867,5.867,0,0,1-5.866,5.866" transform="translate(-102.134 -2.46)" fill="#e0e0e0"/>
        <path id="Trazado_629956" data-name="Trazado 629956" d="M240.312,22.206a3.217,3.217,0,0,0-3.95-1.775,4.025,4.025,0,0,0-1.927,1.775,4.027,4.027,0,0,0-1.927-1.775,3.217,3.217,0,0,0-3.95,1.775c-2.185,3.993,5.877,9.193,5.877,9.193s8.062-5.2,5.877-9.193" transform="translate(-112.427 -9.98)" fill="#fff"/>
        <path id="Trazado_629957" data-name="Trazado 629957" d="M54.7,367.856h17.2a6.925,6.925,0,0,1,6.926,6.926v8.731a6.925,6.925,0,0,1-6.926,6.926H67.411l-3.167,4.528a1.912,1.912,0,0,1-3.17-.053l-2.913-4.475H54.7a6.925,6.925,0,0,1-6.926-6.926v-8.731a6.925,6.925,0,0,1,6.926-6.926" transform="translate(-23.541 -181.245)" fill="#e0e0e0"/>
        <path id="Trazado_629958" data-name="Trazado 629958" d="M70.983,381.53v8.909l-6.377-4.454Z" transform="translate(-31.832 -187.982)" fill="#fff"/>
        <path id="Trazado_629959" data-name="Trazado 629959" d="M85.527,394.238s-.422-6.329-5.485-6.423H76.806v2.72l3.188.047a6.723,6.723,0,0,1,5.533,3.657" transform="translate(-37.843 -191.079)" fill="#fff"/>
        <path id="Trazado_629960" data-name="Trazado 629960" d="M73.254,177.534a4.561,4.561,0,1,1-4.561-4.561,4.561,4.561,0,0,1,4.561,4.561" transform="translate(-31.598 -85.225)" fill="#e0e0e0"/>
        <path id="Trazado_629961" data-name="Trazado 629961" d="M65.551,189.86a7.8,7.8,0,0,0-7.8,7.8H73.347a7.8,7.8,0,0,0-7.8-7.8" transform="translate(-28.456 -93.545)" fill="#e0e0e0"/>
        <path id="Trazado_629962" data-name="Trazado 629962" d="M318.721,9.986a3.171,3.171,0,1,1-3.172-3.172,3.172,3.172,0,0,1,3.172,3.172" transform="translate(-153.911 -3.357)" fill="#e0e0e0"/>
        <path id="Trazado_629963" data-name="Trazado 629963" d="M336.061,24.614a3.171,3.171,0,1,1-3.172-3.172,3.172,3.172,0,0,1,3.172,3.172" transform="translate(-162.454 -10.565)" fill="#e0e0e0"/>
        <path id="Trazado_629964" data-name="Trazado 629964" d="M318.817,39.533a3.172,3.172,0,1,1-3.172-3.172,3.172,3.172,0,0,1,3.172,3.172" transform="translate(-153.958 -17.915)" fill="#e0e0e0"/>
        <path id="Trazado_629965" data-name="Trazado 629965" d="M318.629,13.066l8.8,7.421-8.748,7.568" transform="translate(-156.991 -6.438)" fill="none" stroke="#e0e0e0" stroke-miterlimit="10" stroke-width="1"/>
        <path id="Trazado_629966" data-name="Trazado 629966" d="M417.318,157.213c-1.369-2.5-3.64-2.891-5.166-2.321a5.265,5.265,0,0,0-2.521,2.321,5.262,5.262,0,0,0-2.52-2.321c-1.526-.57-3.8-.181-5.166,2.321-2.858,5.223,7.686,12.022,7.686,12.022s10.544-6.8,7.687-12.022" transform="translate(-197.799 -76.203)" fill="#e0e0e0"/>
        <path id="Trazado_629967" data-name="Trazado 629967" d="M397.167,205.926a3,3,0,0,0-3.68-1.654,3.75,3.75,0,0,0-1.8,1.654,3.748,3.748,0,0,0-1.8-1.654,3,3,0,0,0-3.68,1.654c-2.036,3.721,5.476,8.565,5.476,8.565s7.512-4.844,5.476-8.565" transform="translate(-190.118 -100.565)" fill="#e0e0e0"/>
      </g>
    </g>
    <g id="Grupo_879438" data-name="Grupo 879438">
      <g id="Grupo_879437" data-name="Grupo 879437" clip-path="url(#clip-path)">
        <path id="Trazado_629968" data-name="Trazado 629968" d="M384.228,37.292H350.4a7.51,7.51,0,0,0-7.51,7.51v20.5a7.51,7.51,0,0,0,7.51,7.51h10.455l5.861,8.381a1.973,1.973,0,0,0,3.27-.054l5.419-8.327h8.822a7.51,7.51,0,0,0,7.51-7.51V44.8a7.51,7.51,0,0,0-7.51-7.51" transform="translate(-168.944 -18.374)" fill="#fff"/>
        <path id="Trazado_629969" data-name="Trazado 629969" d="M384.1,37.189s.085,0,.253,0a5.374,5.374,0,0,1,.746.051,7.042,7.042,0,0,1,2.747.907,7.53,7.53,0,0,1,3.816,6.245c.034,1.049.014,2.153.024,3.322.008,4.676.017,10.319.028,16.734a10.308,10.308,0,0,1-.194,2.451,7.287,7.287,0,0,1-.969,2.343,7.629,7.629,0,0,1-4.088,3.206,8.412,8.412,0,0,1-2.7.38l-2.769,0-5.712,0,.1-.056-3.1,4.771-1.6,2.459c-.276.415-.524.827-.826,1.249a2.094,2.094,0,0,1-2.875.408,2.22,2.22,0,0,1-.551-.579l-.438-.625-1.767-2.526-3.6-5.15.108.056h-9.972a9.461,9.461,0,0,1-2.122-.181,8.207,8.207,0,0,1-1.99-.736,7.683,7.683,0,0,1-4.01-6.855c0-5.381.005-10.571.008-15.516q0-1.854,0-3.662c0-.6-.012-1.2.032-1.8.011-.3.082-.6.12-.893.072-.29.137-.582.229-.864a7.818,7.818,0,0,1,1.812-2.975,7.625,7.625,0,0,1,2.842-1.818,5.616,5.616,0,0,1,.8-.239,6.173,6.173,0,0,1,.811-.15,12.084,12.084,0,0,1,1.616-.069l3.122,0,5.87.009,17.712.042,4.815.024,1.253.013c.282,0,.427.014.427.014s-.145.009-.427.014l-1.253.013-4.815.025-17.712.042-5.87.009-3.122,0a11.847,11.847,0,0,0-1.588.071,5.974,5.974,0,0,0-.787.148,5.337,5.337,0,0,0-.773.234A7.4,7.4,0,0,0,345,39.518a7.581,7.581,0,0,0-1.752,2.889c-.089.273-.152.557-.221.838-.036.288-.1.574-.114.866-.043.58-.026,1.184-.028,1.785q0,1.806,0,3.662c0,4.945.005,10.135.008,15.516A7.423,7.423,0,0,0,346.77,71.7a7.942,7.942,0,0,0,1.922.71,9.188,9.188,0,0,0,2.066.174H360.8l.04.056,3.6,5.151,1.766,2.526.438.626a1.976,1.976,0,0,0,.49.518,1.851,1.851,0,0,0,1.339.329,1.831,1.831,0,0,0,1.182-.685c.277-.386.544-.824.815-1.231l1.6-2.458,3.107-4.768.037-.056h.066l5.712,0,2.769,0a8.183,8.183,0,0,0,2.634-.365,7.409,7.409,0,0,0,3.974-3.1,7.092,7.092,0,0,0,.946-2.274,10.111,10.111,0,0,0,.194-2.4c.011-6.415.02-12.058.028-16.734,0-1.167.021-2.279-.007-3.317a7.45,7.45,0,0,0-3.722-6.181,7.143,7.143,0,0,0-2.712-.936,6.19,6.19,0,0,0-.741-.071c-.167-.012-.253-.023-.253-.023" transform="translate(-168.818 -18.271)" fill="#263238"/>
        <path id="Trazado_629970" data-name="Trazado 629970" d="M392.936,58.8V72.815l10.031-7.007Z" transform="translate(-193.602 -28.972)" fill="#ffb338"/>
        <path id="Trazado_629971" data-name="Trazado 629971" d="M366.475,78.793s.664-9.957,8.63-10.1h5.089v4.278l-5.016.074s-5.251-.122-8.7,5.753" transform="translate(-180.565 -33.843)" fill="#ffb338"/>
      </g>
    </g>
    <g id="Grupo_879440" data-name="Grupo 879440">
      <g id="Grupo_879439" data-name="Grupo 879439" clip-path="url(#clip-path)">
        <path id="Trazado_629972" data-name="Trazado 629972" d="M22.962,68.416h69.79a7.1,7.1,0,0,0,7.105-7.1V7.318a7.1,7.1,0,0,0-7.105-7.1H22.962a7.1,7.1,0,0,0-7.1,7.1V61.311a7.1,7.1,0,0,0,7.1,7.1" transform="translate(-7.813 -0.105)" fill="#fff"/>
        <path id="Trazado_629973" data-name="Trazado 629973" d="M74.977,130.543c-.862,2.088-17.523,17.747-17.523,17.747V130.543Z" transform="translate(-28.308 -64.319)" fill="#455a64"/>
        <path id="Trazado_629974" data-name="Trazado 629974" d="M119.177,36.832c.043-3.558.6-7.1.467-10.659s-1.072-7.258-3.553-9.809S109.3,12.841,106.4,14.9l-.6,3.028,3.427,41.154a14.065,14.065,0,0,0,1.134,5.268,4.787,4.787,0,0,0,4.269,2.831c2.361-.145,3.911-2.539,4.645-4.788,2.662-8.153-.207-16.983-.1-25.559" transform="translate(-52.131 -6.792)" fill="#263238"/>
        <path id="Trazado_629975" data-name="Trazado 629975" d="M109.705,19.521A9.924,9.924,0,0,0,107.9,17.07a3.392,3.392,0,0,0-2.8-.935,1.405,1.405,0,0,0-1.109.811c-.159.453.18,1.059.658,1.019l.1.087q1.6,1.414,3.251,2.763a2.783,2.783,0,0,0,.908.562.963.963,0,0,0,.994-.212c.393-.443.106-1.132-.194-1.643" transform="translate(-51.215 -7.928)" fill="#617a0b"/>
        <path id="Trazado_629976" data-name="Trazado 629976" d="M90.045,23.014a17.952,17.952,0,0,0-13.9-6.92c-3.158-.052-4.466.6-6.74,1.218a9.968,9.968,0,0,0-5.683,3.76A16.722,16.722,0,0,0,60.446,28.7a46.86,46.86,0,0,0-.411,8.6,15.706,15.706,0,0,0,2.682,8.08l7.293,1.267c4.028.137,8.111.269,12.035-.649s7.737-3.03,9.838-6.47c2.919-4.778,1.707-12.182-1.838-16.515" transform="translate(-29.544 -7.928)" fill="#263238"/>
        <path id="Trazado_629977" data-name="Trazado 629977" d="M71.563,62.518c.049-2.559.135-5.767.135-5.756s-5.947-.655-7.59-8.276c-.817-3.79-.969-10.071-.927-15.213.038-4.629,3.979-10.932,9.694-10.952l2.54-.3,9.723,3.865a2.709,2.709,0,0,1,2.57,2.611l.367,33.516-6.23,10.405L70.7,63.786Z" transform="translate(-31.127 -10.852)" fill="#b56760"/>
        <path id="Trazado_629978" data-name="Trazado 629978" d="M84.212,69.307a1.62,1.62,0,0,0-.561-1,1.658,1.658,0,0,0-2.011-.115,2.22,2.22,0,0,0-.844,2.085,2.018,2.018,0,0,0,1.445.838,2.423,2.423,0,0,0,.271.009,1.811,1.811,0,0,0,1.222-.484,1.615,1.615,0,0,0,.478-1.332" transform="translate(-39.798 -33.458)" fill="#8a4a43"/>
        <path id="Trazado_629979" data-name="Trazado 629979" d="M69.233,54.991a.987.987,0,0,0,1.005.943.944.944,0,0,0,.968-.945.988.988,0,0,0-1-.943.945.945,0,0,0-.969.945" transform="translate(-34.111 -26.629)" fill="#263238"/>
        <path id="Trazado_629980" data-name="Trazado 629980" d="M66.6,48.151c.129.122.846-.472,1.907-.528s1.868.433,1.976.3c.054-.06-.084-.286-.436-.514a2.709,2.709,0,0,0-1.591-.4,2.6,2.6,0,0,0-1.509.58c-.312.268-.41.507-.347.561" transform="translate(-32.807 -23.159)" fill="#263238"/>
        <path id="Trazado_629981" data-name="Trazado 629981" d="M77.395,57.056a7.045,7.045,0,0,0-1.741-.217c-.272-.013-.532-.053-.587-.235a1.38,1.38,0,0,1,.136-.813l.688-2.107a35.517,35.517,0,0,0,1.5-5.5,35.587,35.587,0,0,0-1.942,5.362q-.342,1.109-.653,2.118a1.568,1.568,0,0,0-.082,1.071.682.682,0,0,0,.467.372,1.825,1.825,0,0,0,.464.039,6.918,6.918,0,0,0,1.747-.093" transform="translate(-36.779 -23.743)" fill="#263238"/>
        <path id="Trazado_629982" data-name="Trazado 629982" d="M79.939,87.283a19.588,19.588,0,0,0,10.146-3.312s-2.451,5.48-10.185,5.183Z" transform="translate(-39.367 -41.373)" fill="#8a4a43"/>
        <path id="Trazado_629983" data-name="Trazado 629983" d="M83.164,66.778c-.173,0-.112,1.151-1.053,2.023s-2.174.812-2.174.973c-.012.073.286.209.8.194a2.87,2.87,0,0,0,1.819-.748,2.5,2.5,0,0,0,.809-1.692c.018-.484-.126-.762-.2-.751" transform="translate(-39.385 -32.902)" fill="#263238"/>
        <path id="Trazado_629984" data-name="Trazado 629984" d="M67.308,40.947c.193.249,1,.031,1.949.058.955,0,1.754.233,1.95-.011.087-.119-.031-.366-.374-.609a3.024,3.024,0,0,0-3.142-.038c-.346.234-.467.478-.383.6" transform="translate(-33.15 -19.672)" fill="#263238"/>
        <path id="Trazado_629985" data-name="Trazado 629985" d="M91.122,54.549a.987.987,0,0,1-.935,1.013.944.944,0,0,1-1.033-.872.988.988,0,0,1,.934-1.014.945.945,0,0,1,1.034.873" transform="translate(-43.926 -26.445)" fill="#263238"/>
        <path id="Trazado_629986" data-name="Trazado 629986" d="M91.136,47.479c-.12.131-.878-.409-1.94-.389s-1.832.567-1.95.438c-.058-.057.063-.291.4-.544a2.715,2.715,0,0,1,1.558-.51,2.6,2.6,0,0,1,1.547.47c.331.245.446.476.387.535" transform="translate(-42.98 -22.898)" fill="#263238"/>
        <path id="Trazado_629987" data-name="Trazado 629987" d="M89.732,40.719c-.205.245-1.03.009-2.015.014-.986-.025-1.818.194-2.014-.055-.087-.121.041-.365.4-.6a3.036,3.036,0,0,1,1.63-.424,3,3,0,0,1,1.616.457c.353.242.471.489.381.608" transform="translate(-42.213 -19.538)" fill="#263238"/>
        <path id="Trazado_629988" data-name="Trazado 629988" d="M108.931,58.114c-.03-.573.558-1.959,1.118-2.078,1.5-.319,4.226-.347,4.462,3.487.322,5.241-5.005,4.483-5.024,4.333-.014-.116-.451-3.764-.555-5.742" transform="translate(-53.67 -27.545)" fill="#b56760"/>
        <path id="Trazado_629989" data-name="Trazado 629989" d="M112.641,63.543c.022-.018.1.058.254.12a.915.915,0,0,0,.683-.028,2.264,2.264,0,0,0,.921-2.091,3.023,3.023,0,0,0-.336-1.292,1.056,1.056,0,0,0-.73-.658.466.466,0,0,0-.524.283c-.061.151-.021.254-.049.264s-.118-.081-.089-.3a.584.584,0,0,1,.186-.341.693.693,0,0,1,.5-.164,1.286,1.286,0,0,1,1,.754,3.107,3.107,0,0,1,.406,1.441,2.375,2.375,0,0,1-1.193,2.345.981.981,0,0,1-.844-.087c-.17-.119-.2-.235-.187-.246" transform="translate(-55.497 -29.234)" fill="#8a4a43"/>
        <path id="Trazado_629990" data-name="Trazado 629990" d="M94.351,38.553,93.02,39.934c-5.75-5.5-16.986-19.284-16.359-18.462a16.738,16.738,0,0,1,8.215-.892c4.275.728,12.384,2.868,12.26,7.911a26.3,26.3,0,0,1-2.784,10.062" transform="translate(-37.759 -10.047)" fill="#263238"/>
        <path id="Trazado_629991" data-name="Trazado 629991" d="M102.895,37.273a1.384,1.384,0,0,0-.08-.3,5.322,5.322,0,0,0-.358-.826,7.625,7.625,0,0,0-2.19-2.464,14.314,14.314,0,0,0-4.409-2.121c-1.753-.571-3.729-1.014-5.669-1.847a25.674,25.674,0,0,1-5.178-2.9,26.819,26.819,0,0,1-3.654-3.194,28.534,28.534,0,0,1-2.113-2.508l-.526-.723a1.381,1.381,0,0,0-.2-.243,1.345,1.345,0,0,0,.152.273c.11.173.264.433.486.753a24.156,24.156,0,0,0,2.06,2.577,25.652,25.652,0,0,0,3.647,3.265,25.167,25.167,0,0,0,5.22,2.947,57.75,57.75,0,0,0,5.7,1.835,14.523,14.523,0,0,1,4.372,2.038,7.891,7.891,0,0,1,2.212,2.362c.384.67.5,1.089.529,1.079" transform="translate(-38.688 -9.924)" fill="#455a64"/>
        <path id="Trazado_629992" data-name="Trazado 629992" d="M101.6,39.189a2.76,2.76,0,0,0-.2-1.145,5.352,5.352,0,0,0-1.969-2.467,11.864,11.864,0,0,0-4.373-1.715,25.854,25.854,0,0,1-5.434-1.724,23.013,23.013,0,0,1-4.844-2.99,23.667,23.667,0,0,1-3.322-3.264A25.2,25.2,0,0,1,79.6,23.337l-.444-.734a1.3,1.3,0,0,0-.171-.248,1.217,1.217,0,0,0,.123.273l.4.762A21.3,21.3,0,0,0,81.306,26a22.573,22.573,0,0,0,8.2,6.379A25.271,25.271,0,0,0,95,34.1a11.962,11.962,0,0,1,4.319,1.628,5.413,5.413,0,0,1,1.981,2.35,6.217,6.217,0,0,1,.3,1.108" transform="translate(-38.916 -11.015)" fill="#455a64"/>
        <path id="Trazado_629993" data-name="Trazado 629993" d="M111.217,48.951c-.005-.036.444-.093,1.22-.3a7.512,7.512,0,0,0,2.933-1.639,10.538,10.538,0,0,0,2.724-4.168A18.372,18.372,0,0,0,119.23,36.8a14.186,14.186,0,0,0-1.122-6.018,15.184,15.184,0,0,0-2.715-4.228,24.629,24.629,0,0,0-3.518-3.067,1.156,1.156,0,0,1,.29.151c.182.113.461.264.792.5a16.014,16.014,0,0,1,2.616,2.248,14.932,14.932,0,0,1,2.828,4.267,14.235,14.235,0,0,1,1.175,6.152,18.206,18.206,0,0,1-1.185,6.153,10.558,10.558,0,0,1-2.86,4.237,7.268,7.268,0,0,1-3.059,1.585,6.515,6.515,0,0,1-.928.148,1.177,1.177,0,0,1-.326.018" transform="translate(-54.797 -11.572)" fill="#455a64"/>
        <path id="Trazado_629994" data-name="Trazado 629994" d="M42.111,109.2l.131-.166c5.774-6.109,16.4-8.155,16.4-8.155s.65,4,6.606,4.447,10.334-5.622,10.334-5.622l7.947,1.113a20.136,20.136,0,0,1,6.491,1.937c5.61,3.3,8.587,14.681,8.587,14.681l-61.29.247Z" transform="translate(-18.387 -49.126)" fill="#455a64"/>
        <path id="Trazado_629995" data-name="Trazado 629995" d="M25.828.108S25.683.122,25.4.14l-.529.031c-.21.019-.451.068-.727.109A9.938,9.938,0,0,0,19.7,2.249a10.044,10.044,0,0,0-3.8,6.676,19.067,19.067,0,0,0-.083,2.41q0,1.253,0,2.59,0,2.673.008,5.67c.008,7.987.017,17.65.028,28.67q0,4.133.006,8.516c0,.729-.015,1.469.039,2.2a10.5,10.5,0,0,0,.4,2.169,10.013,10.013,0,0,0,2.24,3.864A10.475,10.475,0,0,0,20.269,66.5a10.343,10.343,0,0,0,2.064,1.051l.549.2.568.146a8.924,8.924,0,0,0,1.156.215c.389.061.786.051,1.18.08h1.2l9.864,0h.12v.12c0,4.948,0,10.237.006,15.659l-.212-.091q3.887-3.666,7.9-7.569c2.657-2.607,5.378-5.258,7.971-8.085l.04-.043h.057l25.893,0h9.93c.658.005,1.313,0,1.954-.042a9.934,9.934,0,0,0,8.566-6.68,10.865,10.865,0,0,0,.544-3.719q0-1.9,0-3.791c0-10.065.005-19.773.008-29.021q0-6.936.006-13.514a16.113,16.113,0,0,0-.2-3.226,10.442,10.442,0,0,0-1.124-2.955A9.588,9.588,0,0,0,96.36,2.807,9.54,9.54,0,0,0,93.805,1.12,9.815,9.815,0,0,0,90.908.3,27.555,27.555,0,0,0,87.921.214l-5.84,0L71.1.2,37.975.159,28.968.134,26.626.122c-.528,0-.8-.014-.8-.014s.27-.009.8-.014L28.968.082,37.975.057,71.1.015,82.081.006l5.84,0a27.62,27.62,0,0,1,3.013.084A10.033,10.033,0,0,1,93.9.921,9.78,9.78,0,0,1,96.51,2.643a9.815,9.815,0,0,1,2,2.476A10.681,10.681,0,0,1,99.662,8.14a16.355,16.355,0,0,1,.207,3.272q0,6.571.006,13.514c0,9.248.005,18.957.008,29.021q0,1.887,0,3.791a11.128,11.128,0,0,1-.557,3.8A10.2,10.2,0,0,1,90.535,68.4c-.665.046-1.321.048-1.976.043h-9.93l-25.893,0,.1-.043c-2.6,2.838-5.325,5.486-7.985,8.094s-5.312,5.124-7.907,7.569l-.212.2V83.97c0-5.422,0-10.711.005-15.659l.12.12-9.864,0-1.2,0c-.4-.029-.81-.02-1.207-.082a9.252,9.252,0,0,1-1.183-.221l-.581-.15-.562-.2a10.566,10.566,0,0,1-2.109-1.076,10.7,10.7,0,0,1-1.771-1.529,10.242,10.242,0,0,1-2.285-3.952,10.722,10.722,0,0,1-.4-2.217c-.054-.75-.033-1.481-.037-2.212q0-4.38.006-8.516c.011-11.02.02-20.683.027-28.67q0-3,.008-5.67,0-1.336,0-2.59a18.965,18.965,0,0,1,.092-2.424,10.115,10.115,0,0,1,3.864-6.723A9.888,9.888,0,0,1,24.136.241c.277-.038.52-.083.731-.1L25.4.12c.285-.011.429-.012.429-.012" transform="translate(-7.709 0)" fill="#263238"/>
      </g>
    </g>
    <g id="Grupo_879445" data-name="Grupo 879445">
      <g id="Grupo_879444" data-name="Grupo 879444" clip-path="url(#clip-path)">
        <path id="Trazado_629996" data-name="Trazado 629996" d="M215.781,256.611l-63.294-.036c-7.612,0-13.781-5.887-13.78-13.141l.031-151.215c0-7.258,6.179-13.14,13.8-13.136l63.295.036c7.612,0,13.78,5.887,13.779,13.141l-.031,151.215c0,7.258-6.178,13.141-13.8,13.136" transform="translate(-68.342 -38.965)" fill="#263238"/>
        <path id="Trazado_629997" data-name="Trazado 629997" d="M219.835,89.661l-12.272-.007a2.973,2.973,0,0,0-2.98,2.967v2.121a2.973,2.973,0,0,1-2.98,2.967l-23.92-.013a2.976,2.976,0,0,1-2.979-2.97V92.6a2.976,2.976,0,0,0-2.979-2.97l-4.316,0-10.74-.006a9.438,9.438,0,0,0-9.662,9.2l-.03,147.6a9.436,9.436,0,0,0,9.65,9.2l63.168.035a9.437,9.437,0,0,0,9.661-9.2l.03-147.6a9.437,9.437,0,0,0-9.65-9.2" transform="translate(-72.416 -44.159)" fill="#fff"/>
        <path id="Trazado_629998" data-name="Trazado 629998" d="M203.54,146.48a3.6,3.6,0,0,0,.18-7.166,3.747,3.747,0,0,0-4.4-5.591,4.485,4.485,0,0,0-7.333-2.338,5.043,5.043,0,0,0-6.122,1.046A3.586,3.586,0,0,0,183.9,139" transform="translate(-89.828 -64.186)" fill="#263238"/>
        <path id="Trazado_629999" data-name="Trazado 629999" d="M198.176,152.1a15.284,15.284,0,0,0-17.6-10.958l-.778.148c-8.29,2.085-11.15,10.292-8.836,18.521l5.8,29.881,17.08,13.183,4.421-11.005-1.741-9.944s7.821-2.788,6.386-10.865c-.693-3.9-2.773-11.817-4.739-18.96" transform="translate(-83.855 -69.408)" fill="#c17560"/>
        <path id="Trazado_630000" data-name="Trazado 630000" d="M211.407,220.7a19.9,19.9,0,0,1-11.147-1.08s3.492,5.5,11.395,3.248Z" transform="translate(-98.669 -108.21)" fill="#7c4236"/>
        <path id="Trazado_630001" data-name="Trazado 630001" d="M221.7,177.425a1.171,1.171,0,0,1-.888,1.372,1.12,1.12,0,0,1-1.384-.812,1.172,1.172,0,0,1,.887-1.373,1.122,1.122,0,0,1,1.385.812" transform="translate(-108.102 -87.001)" fill="#263238"/>
        <path id="Trazado_630002" data-name="Trazado 630002" d="M218.986,170.614c-.114.177-1.108-.3-2.346-.063-1.24.221-2.027,1.031-2.19.905-.079-.055.015-.354.356-.717a3.214,3.214,0,0,1,1.719-.91,3.085,3.085,0,0,1,1.9.237c.437.22.617.467.56.547" transform="translate(-105.648 -83.649)" fill="#263238"/>
        <path id="Trazado_630003" data-name="Trazado 630003" d="M199.558,182.109a1.171,1.171,0,0,1-.889,1.372,1.12,1.12,0,0,1-1.384-.812,1.172,1.172,0,0,1,.888-1.372,1.121,1.121,0,0,1,1.385.812" transform="translate(-97.191 -89.309)" fill="#263238"/>
        <path id="Trazado_630004" data-name="Trazado 630004" d="M195.079,175.638c-.114.177-1.11-.3-2.347-.062-1.239.221-2.027,1.031-2.19.9-.079-.054.014-.353.356-.716a3.212,3.212,0,0,1,1.718-.91,3.087,3.087,0,0,1,1.9.237c.435.22.617.467.56.547" transform="translate(-93.868 -86.125)" fill="#263238"/>
        <path id="Trazado_630005" data-name="Trazado 630005" d="M209.351,182.95a8.314,8.314,0,0,1,1.942-.746c.31-.093.6-.213.61-.439a1.64,1.64,0,0,0-.39-.9l-1.394-2.23a42.026,42.026,0,0,1-3.3-5.9,42.243,42.243,0,0,1,3.766,5.619q.711,1.179,1.357,2.251a1.861,1.861,0,0,1,.4,1.21.808.808,0,0,1-.432.562,2.2,2.2,0,0,1-.523.177,8.24,8.24,0,0,1-2.038.391" transform="translate(-101.898 -85.109)" fill="#263238"/>
        <path id="Trazado_630006" data-name="Trazado 630006" d="M193.7,167.128c-.1.345-1.23.207-2.544.413-1.319.177-2.374.633-2.555.329-.081-.146.1-.472.521-.813a3.99,3.99,0,0,1,1.882-.785,3.846,3.846,0,0,1,2,.22c.489.208.739.472.694.636" transform="translate(-92.914 -81.902)" fill="#263238"/>
        <path id="Trazado_630007" data-name="Trazado 630007" d="M217.118,161.884c-.207.331-1.285.233-2.517.454-1.238.185-2.234.621-2.529.373-.132-.123-.022-.436.382-.789a4.069,4.069,0,0,1,1.954-.85,4,4,0,0,1,2.111.184c.489.206.687.469.6.628" transform="translate(-104.463 -79.331)" fill="#263238"/>
        <path id="Trazado_630008" data-name="Trazado 630008" d="M172.133,191.489a2.226,2.226,0,0,0-2.763-1.658c-1.476.429-2.986,1.6-2.3,4.687,1.225,5.476,6.47,3.116,6.444,2.958-.017-.108-.853-3.7-1.385-5.987" transform="translate(-82.234 -93.489)" fill="#c17560"/>
        <path id="Trazado_630009" data-name="Trazado 630009" d="M173.791,197.445c-.028-.012-.081.088-.225.2a.977.977,0,0,1-.71.174,2.417,2.417,0,0,1-1.565-1.873,3.228,3.228,0,0,1-.039-1.425,1.129,1.129,0,0,1,.553-.892.5.5,0,0,1,.621.135c.108.137.1.254.128.257s.1-.118,0-.334a.624.624,0,0,0-.292-.295.736.736,0,0,0-.559-.021,1.373,1.373,0,0,0-.807,1.071,3.323,3.323,0,0,0,.011,1.6,2.537,2.537,0,0,0,1.921,2.054,1.046,1.046,0,0,0,.84-.34c.14-.173.141-.3.12-.308" transform="translate(-84.158 -95.252)" fill="#7c4236"/>
        <path id="Trazado_630010" data-name="Trazado 630010" d="M187.054,138.667a2.075,2.075,0,0,0-.267-.356,3.613,3.613,0,0,0-3.04-1.04,13.9,13.9,0,0,0-2.085-.443,4.884,4.884,0,0,0-8.21,1.207c-.22.075-.438.156-.657.239a4.988,4.988,0,0,0-7.045,3.525,3.621,3.621,0,0,0-3.026,5.938,3.441,3.441,0,0,0-1.346,3.044,2,2,0,0,0,2.377,1.619,74.141,74.141,0,0,0,1.845,8.446c.465,1.911,3.139,2.59,3.557,3.868,2.132,6.522,3.613,2.41,1.818-11.587.119-.134.237-.275.356-.432a7.757,7.757,0,0,0,.441-1c.233-.41.81-.405,1.28-.444a3.579,3.579,0,0,0,3.17-3.216,1.5,1.5,0,0,0,2.015-.191,8.044,8.044,0,0,0,1.195-1.89,2.308,2.308,0,0,1,1.711-1.306,5.525,5.525,0,0,0,1.248.036c.711-.2.9-1.117.876-1.855a3.42,3.42,0,0,1,.23-1.833,4.139,4.139,0,0,1,1.324-.666c.28-.021.568-.018.843-.03a2.594,2.594,0,0,0,.392-.05,4.054,4.054,0,0,1,.538.106c2.658.714,5.744,5.356,5.744,5.356a9.813,9.813,0,0,0-5.282-7.04" transform="translate(-79.494 -66.563)" fill="#263238"/>
        <path id="Trazado_630011" data-name="Trazado 630011" d="M162.763,152.487s.008-.032.036-.09a2.622,2.622,0,0,1,.134-.25,3.075,3.075,0,0,1,.741-.789,3.558,3.558,0,0,1,1.564-.66,3.277,3.277,0,0,1,2.191.375l-.14.074a4.433,4.433,0,0,1,1.753-3.19,5.6,5.6,0,0,1,1.862-.98,6.809,6.809,0,0,1,2.2-.26,11.2,11.2,0,0,1,4.02,1.032l-.152.08a5,5,0,0,1,1.99-3.078,4.834,4.834,0,0,1,4.631-.511,3.38,3.38,0,0,1,.456.226.607.607,0,0,1,.146.1c-.009.016-.216-.106-.628-.257a5.02,5.02,0,0,0-1.841-.3,4.7,4.7,0,0,0-2.655.894,4.842,4.842,0,0,0-1.883,2.968l-.026.135-.126-.055a11.142,11.142,0,0,0-3.941-1,6.624,6.624,0,0,0-2.13.247,5.411,5.411,0,0,0-1.791.932,4.265,4.265,0,0,0-1.705,3.029l-.008.153-.132-.079a3.144,3.144,0,0,0-2.072-.387,3.535,3.535,0,0,0-1.526.6,3.783,3.783,0,0,0-.973,1.043" transform="translate(-80.194 -70.887)" fill="#455a64"/>
        <path id="Trazado_630012" data-name="Trazado 630012" d="M183.456,145.995a1.293,1.293,0,0,1-.054.231,4.683,4.683,0,0,0-.087.676c-.019.3-.02.665-.034,1.1a3.477,3.477,0,0,1-.282,1.458,1.159,1.159,0,0,1-.7.56,4.151,4.151,0,0,1-.948.118,1.882,1.882,0,0,0-.923.246,2.531,2.531,0,0,0-.684.774c-.194.308-.367.649-.555.991a3.942,3.942,0,0,1-.658,1.037,2.619,2.619,0,0,1-1.13.634,2.079,2.079,0,0,1-.675.084.958.958,0,0,1-.666-.289l.2-.071a3.411,3.411,0,0,1-.191,1,3.337,3.337,0,0,1-.522.907,3.871,3.871,0,0,1-1.776,1.179,4.656,4.656,0,0,1-.876.2,1.9,1.9,0,0,0-.8.153,1.152,1.152,0,0,0-.5.58,5.609,5.609,0,0,1-.444.728,4.4,4.4,0,0,1-2.583,1.867,4.039,4.039,0,0,1-2.8-.617,4.175,4.175,0,0,1-1.6-1.868l.1.042a2.208,2.208,0,0,1-1.873-.089,2.13,2.13,0,0,1-1.106-1.93,1.543,1.543,0,0,1,.026-.23q.015-.077.021-.076a2.43,2.43,0,0,0,.194,1.148,2,2,0,0,0,.922.977,2.084,2.084,0,0,0,1.753.054l.073-.031.032.073a4.04,4.04,0,0,0,1.558,1.77,3.867,3.867,0,0,0,2.655.569,4.212,4.212,0,0,0,2.44-1.79,5.53,5.53,0,0,0,.425-.7,1.379,1.379,0,0,1,.6-.678,1.259,1.259,0,0,1,.449-.144l.432-.037a4.453,4.453,0,0,0,.831-.189,3.654,3.654,0,0,0,1.672-1.105,3.141,3.141,0,0,0,.486-.84,3.213,3.213,0,0,0,.18-.926l.016-.266.18.2a1.13,1.13,0,0,0,1.115.143,2.414,2.414,0,0,0,1.041-.575,3.812,3.812,0,0,0,.627-.982c.192-.341.367-.681.571-1a2.693,2.693,0,0,1,.747-.824,2.055,2.055,0,0,1,1.012-.263,4.06,4.06,0,0,0,.913-.1,1.007,1.007,0,0,0,.617-.479,3.436,3.436,0,0,0,.295-1.394c.025-.428.038-.8.069-1.1a3.759,3.759,0,0,1,.125-.68.962.962,0,0,1,.092-.221" transform="translate(-79.468 -71.933)" fill="#455a64"/>
        <path id="Trazado_630013" data-name="Trazado 630013" d="M204.976,198.582a3.079,3.079,0,0,0,1.858,3.5,2.214,2.214,0,0,0,2.773-1.468,3.988,3.988,0,0,0,.034-1.9c-1.313-.076-3.352-.055-4.665-.131" transform="translate(-100.971 -97.843)" fill="#7c4236"/>
        <path id="Trazado_630014" data-name="Trazado 630014" d="M209.232,201.011c.007.006-.012.042-.056.107a1.4,1.4,0,0,1-.221.264,2.1,2.1,0,0,1-1.135.562,2.716,2.716,0,0,1-1.845-.373,2.862,2.862,0,0,1-1.241-1.932,2.94,2.94,0,0,1-.031-.621,1.32,1.32,0,0,1,.16-.615.54.54,0,0,1,.282-.222.967.967,0,0,1,.313-.04l.538.016c.7.034,1.32.1,1.842.156,1.042.114,1.688.144,1.689.182a7.287,7.287,0,0,1-1.7,0c-.525-.029-1.147-.079-1.836-.1l-.528-.007c-.179,0-.307.029-.379.151a1.108,1.108,0,0,0-.115.491,2.723,2.723,0,0,0,.03.562,2.671,2.671,0,0,0,1.113,1.771,2.6,2.6,0,0,0,1.686.392,2.165,2.165,0,0,0,1.094-.455c.227-.177.323-.312.344-.294" transform="translate(-100.856 -97.625)" fill="#263238"/>
        <path id="Trazado_630015" data-name="Trazado 630015" d="M274.023,143.129s6.427-.8,16.089-8.484S305,116.039,306.083,116.2s6.021-1.595,13.181,18.844,3.184,24.653,1.4,24.448-13.637-4.743-21.319-4.6-17.824,3.189-17.824,3.189Z" transform="translate(-135.013 -57.25)" fill="#eb6f2d"/>
        <path id="Trazado_630016" data-name="Trazado 630016" d="M249.942,194.277l3.435-.733-1.858-4.517-2.9,1.447Z" transform="translate(-122.494 -93.135)" fill="#455a64"/>
        <path id="Trazado_630017" data-name="Trazado 630017" d="M251.635,176.335l1.269,3.815.79,1.92a5.353,5.353,0,0,0,6.725,3.015l13.937-3.918-5.988-17.647-13.846,5.838a5.355,5.355,0,0,0-2.888,6.977" transform="translate(-123.783 -80.567)" fill="#263238"/>
        <path id="Trazado_630018" data-name="Trazado 630018" d="M261.874,196.94l4.668,8.278,2.133-.689,14.57,10.878,3.618-7.875s-8.478-3.241-10.142-6.147.088-3.654.088-3.654l-4.1-4.291Z" transform="translate(-129.027 -95.31)" fill="#263238"/>
        <path id="Trazado_630019" data-name="Trazado 630019" d="M349.505,135.865c3.793,11.064,4.9,20.708,2.466,21.542s-7.476-7.46-11.27-18.524-4.9-20.708-2.466-21.541,7.476,7.46,11.27,18.523" transform="translate(-166.015 -57.787)" fill="#263238"/>
        <path id="Trazado_630020" data-name="Trazado 630020" d="M342.88,146.932s5.792-2.877,8.089,4.8-3.574,8.348-3.574,8.348a49.461,49.461,0,0,1-4.514-13.145" transform="translate(-168.939 -72.134)" fill="#fafafa"/>
        <path id="Trazado_630021" data-name="Trazado 630021" d="M333.033,129a8.3,8.3,0,0,0,.081,1.433c.088.92.21,2.254.408,3.9l.512,2.658q.139.717.289,1.481l.152.775c.058.26.142.518.213.782.3,1.055.611,2.161.935,3.307l.247.867c.08.293.2.573.306.863q.324.864.655,1.754l.658,1.753c.114.286.2.579.335.852s.257.547.384.817l1.467,3.109c.12.246.226.495.354.729l.395.685.755,1.309,1.362,2.343c.927,1.367,1.71,2.449,2.247,3.2a8.369,8.369,0,0,0,.88,1.135,8.389,8.389,0,0,0-.728-1.238l-2.122-3.284-1.3-2.355-.728-1.309-.382-.683c-.123-.234-.226-.483-.342-.729l-1.432-3.1-.377-.813c-.129-.271-.218-.564-.33-.848l-.651-1.742-.653-1.741c-.1-.288-.227-.566-.307-.856l-.249-.86c-.331-1.136-.651-2.232-.956-3.277-.074-.262-.159-.516-.22-.775s-.108-.515-.161-.767q-.16-.756-.31-1.467l-.566-2.633c-.232-1.613-.421-2.927-.554-3.862a8.456,8.456,0,0,0-.264-1.414" transform="translate(-164.081 -63.557)" fill="#263238"/>
        <path id="Trazado_630022" data-name="Trazado 630022" d="M281.146,198.3a3.114,3.114,0,0,1-.627.2l-1.728.453c-1.461.377-3.474.911-5.693,1.523s-4.228,1.172-5.695,1.536c-.733.183-1.329.32-1.742.405a3.156,3.156,0,0,1-.649.107,3.12,3.12,0,0,1,.624-.206l1.719-.486,5.673-1.61c2.22-.613,4.246-1.118,5.719-1.45.737-.166,1.334-.293,1.75-.372a3.162,3.162,0,0,1,.65-.1" transform="translate(-130.573 -97.703)" fill="#455a64"/>
        <path id="Trazado_630023" data-name="Trazado 630023" d="M271.3,192.622a7.592,7.592,0,0,1-1.362.58c-.855.32-2.049.729-3.384,1.128s-2.559.711-3.449.913a7.546,7.546,0,0,1-1.456.261,8.949,8.949,0,0,1,1.41-.442c.877-.247,2.088-.587,3.42-.985s2.53-.777,3.4-1.052a8.927,8.927,0,0,1,1.422-.4" transform="translate(-128.914 -94.904)" fill="#455a64"/>
        <path id="Trazado_630024" data-name="Trazado 630024" d="M267.881,184.677a77.827,77.827,0,0,1-8.674,2.622,77.916,77.916,0,0,1,8.674-2.622" transform="translate(-127.713 -90.989)" fill="#455a64"/>
        <path id="Trazado_630025" data-name="Trazado 630025" d="M264.831,177.026a62.219,62.219,0,0,1-7.428,3.251,62.342,62.342,0,0,1,7.428-3.251" transform="translate(-126.824 -87.219)" fill="#455a64"/>
        <path id="Trazado_630026" data-name="Trazado 630026" d="M203.757,248.353l-8.465-14.275-21.878-.9.023,1.99a33.69,33.69,0,0,0-7.946,14.279c-1.466,6.234,4.7,30.026,6.436,38.273,2.134,10.14,5.093,22.974,5.093,22.974-.439,2.272-3.357,4.112-3.155,7.147l48.63-.534-2.5-9.856Z" transform="translate(-81.429 -114.886)" fill="#2b95f9"/>
        <path id="Trazado_630027" data-name="Trazado 630027" d="M232.41,386.9c0,.073-9.677.132-21.611.132s-21.613-.059-21.613-.132,9.675-.132,21.613-.132,21.611.059,21.611.132" transform="translate(-93.213 -190.563)" fill="#fff"/>
        <path id="Trazado_630028" data-name="Trazado 630028" d="M226.167,362.85c0,.073-9.589.132-21.415.132s-21.417-.059-21.417-.132,9.587-.132,21.417-.132,21.415.059,21.415.132" transform="translate(-90.33 -178.714)" fill="#fff"/>
        <path id="Trazado_630029" data-name="Trazado 630029" d="M220.551,336.7c0,.073-9.384.132-20.958.132s-20.96-.059-20.96-.132,9.383-.132,20.96-.132,20.958.059,20.958.132" transform="translate(-88.013 -165.831)" fill="#fff"/>
        <path id="Trazado_630030" data-name="Trazado 630030" d="M214.779,310.393c0,.073-9.666.132-21.588.132s-21.589-.059-21.589-.132,9.664-.132,21.589-.132,21.588.059,21.588.132" transform="translate(-84.549 -152.868)" fill="#fff"/>
        <path id="Trazado_630031" data-name="Trazado 630031" d="M206.967,277.751c0,.073-9.146.132-20.427.132s-20.429-.059-20.429-.132,9.144-.132,20.429-.132,20.427.059,20.427.132" transform="translate(-81.844 -136.785)" fill="#fff"/>
        <path id="Trazado_630032" data-name="Trazado 630032" d="M203.61,247.854c0,.073-6.756.132-15.088.132s-15.089-.059-15.089-.132,6.755-.132,15.089-.132,15.088.059,15.088.132" transform="translate(-85.451 -122.054)" fill="#fff"/>
        <g id="Grupo_879443" data-name="Grupo 879443" transform="translate(90.264 142.27)" opacity="0.3">
          <g id="Grupo_879442" data-name="Grupo 879442">
            <g id="Grupo_879441" data-name="Grupo 879441" clip-path="url(#clip-path-6)">
              <path id="Trazado_630033" data-name="Trazado 630033" d="M177.932,280.449a39.034,39.034,0,0,0,7.982,9.516c4.886,4.054,19.751,11.331,19.751,11.331l1.238-2.567,11.091,2.589-2.055-6.825Z" transform="translate(-177.932 -280.449)"/>
            </g>
          </g>
        </g>
        <path id="Trazado_630034" data-name="Trazado 630034" d="M239.623,241.549l-3.867,21.021L202.6,246.807l-5.343,18.7c13.031,6.373,39.413,16.982,42.809,16.675,4.827-.436,8.163-3.32,9.667-10.393.93-4.377.491-33.736.491-33.736Z" transform="translate(-97.189 -117.289)" fill="#c17560"/>
        <path id="Trazado_630035" data-name="Trazado 630035" d="M193.386,246.943s-12.4-7.661-17.811,1.993c-3.866,9.414.412,16.934,9.959,21.6,4.6,2.251,10.872,5.031,17.206,7.672l9.227-20.476Z" transform="translate(-85.809 -120.25)" fill="#2b95f9"/>
        <path id="Trazado_630036" data-name="Trazado 630036" d="M193.283,246.876s.119.057.341.18l.984.553,3.744,2.142,13.564,7.826.082.047-.039.087-9.2,20.486-.052.115-.116-.048c-3.246-1.352-6.595-2.789-10-4.314q-2.263-1.014-4.46-2.042c-1.463-.686-2.9-1.373-4.29-2.127-.683-.392-1.354-.8-2-1.224-.63-.455-1.279-.872-1.853-1.38a18.868,18.868,0,0,1-3.14-3.211l-.631-.9a9.458,9.458,0,0,1-.551-.936,14.63,14.63,0,0,1-.9-1.937c-.121-.33-.2-.672-.307-1l-.146-.5c-.042-.168-.062-.339-.094-.508q-.087-.508-.174-1.009c-.03-.337-.042-.674-.064-1.008a14.019,14.019,0,0,1,.039-1.973c.051-.646.188-1.272.276-1.894.16-.606.309-1.206.477-1.789l.61-1.678,0,0,0-.007a10.139,10.139,0,0,1,2.934-3.321A8.974,8.974,0,0,1,182,244.046a14.606,14.606,0,0,1,6.309.614,23.083,23.083,0,0,1,3.743,1.516c.411.212.719.385.924.506s.3.194.3.194-.109-.055-.318-.168-.522-.276-.936-.478a24.293,24.293,0,0,0-3.749-1.46,14.6,14.6,0,0,0-6.25-.563,8.822,8.822,0,0,0-3.606,1.442,9.971,9.971,0,0,0-2.862,3.269l.005-.011-.6,1.664c-.163.576-.308,1.17-.465,1.769-.085.614-.219,1.232-.267,1.869a13.828,13.828,0,0,0-.032,1.942c.022.328.035.659.065.991q.086.492.174.991c.031.166.052.335.093.5l.146.49c.1.326.184.662.3.986a14.536,14.536,0,0,0,.889,1.9,9.25,9.25,0,0,0,.544.92l.622.885a18.653,18.653,0,0,0,3.1,3.163c.567.5,1.211.914,1.834,1.364.642.422,1.308.822,1.986,1.21,1.373.745,2.813,1.432,4.275,2.116s2.948,1.364,4.456,2.039c3.4,1.523,6.749,2.961,9.991,4.315l-.168.066,9.249-20.466.043.133-13.519-7.9-3.716-2.191-.968-.58c-.218-.132-.325-.207-.325-.207" transform="translate(-85.705 -120.183)" fill="#263238"/>
        <path id="Trazado_630037" data-name="Trazado 630037" d="M277.67,227.64l.748-7.832s-2.993-6.028-2.935-6.631.234-3.924.234-3.924l7.483-6.735a2.438,2.438,0,0,1,2.485,2.4s2.333-.491,2.363,2.3c0,0,2.524.093,2.59,2.135,0,0,1.522-.2,1.469,1.932-.038,1.534-.708,7.414-.708,7.414l-3.13,5.443-.258,5.443Z" transform="translate(-135.732 -99.781)" fill="#c17560"/>
        <path id="Trazado_630038" data-name="Trazado 630038" d="M277.294,294.066c-.086.029-.637-1.872-1.771-4.006s-2.444-3.621-2.375-3.676a5.006,5.006,0,0,1,.885.944,16.657,16.657,0,0,1,1.723,2.608,18.141,18.141,0,0,1,1.221,2.876,5.224,5.224,0,0,1,.318,1.255" transform="translate(-134.58 -141.102)" fill="#7c4236"/>
        <path id="Trazado_630039" data-name="Trazado 630039" d="M187.764,244.617a4.405,4.405,0,0,1-.33.712c-.226.451-.567,1.1-1,1.889-.856,1.587-2.076,3.758-3.445,6.142l-3.512,6.1-1.068,1.848a4.388,4.388,0,0,1-.42.662,4.452,4.452,0,0,1,.329-.712c.227-.451.567-1.1,1-1.889.856-1.587,2.076-3.758,3.446-6.143l3.511-6.1,1.068-1.848a4.421,4.421,0,0,1,.42-.663" transform="translate(-87.698 -120.524)" fill="#fff"/>
        <path id="Trazado_630040" data-name="Trazado 630040" d="M206.21,253.346a.862.862,0,0,1-.081.229l-.279.634c-.246.549-.616,1.337-1.083,2.305-.933,1.937-2.272,4.59-3.832,7.477s-3.051,5.459-4.161,7.3c-.555.921-1.012,1.661-1.337,2.168l-.378.58a.122.122,0,1,1-.045-.028c.091-.165.2-.365.335-.605.32-.559.746-1.3,1.264-2.209,1.068-1.865,2.529-4.448,4.09-7.332s2.922-5.52,3.9-7.434l1.158-2.267c.129-.243.235-.445.323-.612a.82.82,0,0,1,.129-.206" transform="translate(-96.034 -124.825)" fill="#fff"/>
        <path id="Trazado_630041" data-name="Trazado 630041" d="M228.778,265.825a5.8,5.8,0,0,1-.3.839c-.211.535-.535,1.3-.953,2.237-.834,1.876-2.073,4.432-3.6,7.171s-3.052,5.135-4.209,6.832c-.578.848-1.059,1.526-1.4,1.986a5.726,5.726,0,0,1-.553.7,5.832,5.832,0,0,1,.469-.759l1.331-2.031c1.116-1.72,2.61-4.126,4.134-6.857s2.783-5.267,3.659-7.12l1.028-2.2a5.75,5.75,0,0,1,.4-.8" transform="translate(-107.29 -130.974)" fill="#fff"/>
        <path id="Trazado_630042" data-name="Trazado 630042" d="M181.373,408.946l1.057-9.391,46.39-.508,1.184,9.9Z" transform="translate(-89.364 -196.613)" fill="#263238"/>
        <path id="Trazado_630043" data-name="Trazado 630043" d="M232.623,416.8c0,.073-14.291.132-31.917.132s-31.92-.059-31.92-.132,14.289-.132,31.92-.132,31.917.059,31.917.132" transform="translate(-83.161 -205.293)" fill="#455a64"/>
        <path id="Trazado_630044" data-name="Trazado 630044" d="M225.9,96.772H208.643a1.033,1.033,0,0,1-1.033-1.032v-.751a1.033,1.033,0,0,1,1.033-1.033H225.9a1.033,1.033,0,0,1,1.032,1.033v.751a1.032,1.032,0,0,1-1.032,1.032" transform="translate(-102.291 -46.293)" fill="#455a64"/>
        <path id="Trazado_630045" data-name="Trazado 630045" d="M252.2,95.365a1.408,1.408,0,1,1-1.408-1.408,1.407,1.407,0,0,1,1.408,1.408" transform="translate(-122.873 -46.293)" fill="#455a64"/>
        <path id="Trazado_630046" data-name="Trazado 630046" d="M137.792,160.575h-1.143a3.145,3.145,0,0,1-3.145-3.145V140.18a3.145,3.145,0,0,1,3.145-3.145h1.143Z" transform="translate(-65.778 -67.518)" fill="#263238"/>
        <path id="Trazado_630047" data-name="Trazado 630047" d="M137.234,228H136.09a3.145,3.145,0,0,1-3.145-3.145V207.6a3.145,3.145,0,0,1,3.145-3.145h1.143Z" transform="translate(-65.503 -100.738)" fill="#263238"/>
        <line id="Línea_2542" data-name="Línea 2542" y2="76.322" transform="translate(70.668 62.284)" fill="#ff725e"/>
        <path id="Trazado_630048" data-name="Trazado 630048" d="M139.175,199.1c-.073,0-.132-17.087-.132-38.159s.059-38.163.132-38.163.132,17.083.132,38.163-.059,38.159-.132,38.159" transform="translate(-68.507 -60.493)" fill="#455a64"/>
      </g>
    </g>
    <g id="Grupo_879447" data-name="Grupo 879447">
      <g id="Grupo_879446" data-name="Grupo 879446" clip-path="url(#clip-path)">
        <path id="Trazado_630049" data-name="Trazado 630049" d="M54.94,279.568H6.045A5.788,5.788,0,0,1,.257,273.78V236.258a5.788,5.788,0,0,1,5.788-5.788H54.94a5.788,5.788,0,0,1,5.788,5.788V273.78a5.788,5.788,0,0,1-5.788,5.788" transform="translate(-0.127 -113.554)" fill="#fff"/>
        <path id="Trazado_630050" data-name="Trazado 630050" d="M64.647,324.291c.62,1.5,12.615,12.776,12.615,12.776V324.291Z" transform="translate(-31.852 -159.78)" fill="#617a0b"/>
        <path id="Trazado_630051" data-name="Trazado 630051" d="M60.125,246.746a7.568,7.568,0,0,0-3.755-4.482,9.557,9.557,0,0,0-6.44-.592,20.244,20.244,0,0,0-6,2.683,9.916,9.916,0,0,0-2.836,2.346,14.1,14.1,0,0,0-2.725,6.991,24.874,24.874,0,0,0,1.584,7.981,4.09,4.09,0,0,0,1.788,1.524,15.473,15.473,0,0,0,3.417,4.262l1.16-3.7Z" transform="translate(-18.904 -118.929)" fill="#263238"/>
        <path id="Trazado_630052" data-name="Trazado 630052" d="M75.568,247.077l-3.6-.538c2.092,4.608,2.927,15.259,4.189,20.161,1.266-1.954,4.166-7.878,3.936-10.2s-.277-9.945-4.524-9.428" transform="translate(-35.459 -121.471)" fill="#263238"/>
        <path id="Trazado_630053" data-name="Trazado 630053" d="M46,255.949a6.122,6.122,0,0,1,4.443-5.767l8.191-2.34c3.555-.487,6.061,3.832,6.4,7.4a56.72,56.72,0,0,1,.272,11.142c-.764,6-5.313,6.9-5.313,6.9s.08,2.839.127,4.581l-1.335,7.809-10.8-9.22-2-20.432c-.006-.1.013.063.019-.073" transform="translate(-22.654 -122.095)" fill="#ffc09d"/>
        <path id="Trazado_630054" data-name="Trazado 630054" d="M78.5,271.611a.766.766,0,0,1-.714.795.732.732,0,0,1-.81-.666.766.766,0,0,1,.713-.795.732.732,0,0,1,.811.666" transform="translate(-37.925 -133.495)" fill="#263238"/>
        <path id="Trazado_630055" data-name="Trazado 630055" d="M78.96,266.395c-.092.1-.685-.308-1.508-.281s-1.414.458-1.506.36c-.045-.044.046-.227.3-.426a2.1,2.1,0,0,1,1.2-.411,2.014,2.014,0,0,1,1.2.348c.26.187.351.364.305.41" transform="translate(-37.413 -130.88)" fill="#263238"/>
        <path id="Trazado_630056" data-name="Trazado 630056" d="M63.878,271.61a.765.765,0,0,1-.714.794.732.732,0,0,1-.81-.666.766.766,0,0,1,.713-.795.732.732,0,0,1,.811.666" transform="translate(-30.722 -133.495)" fill="#263238"/>
        <path id="Trazado_630057" data-name="Trazado 630057" d="M63.544,266.835c-.092.1-.686-.308-1.509-.281s-1.414.458-1.506.36c-.045-.043.045-.226.3-.426a2.1,2.1,0,0,1,1.2-.412,2.02,2.02,0,0,1,1.2.349c.259.186.351.364.305.41" transform="translate(-29.818 -131.097)" fill="#263238"/>
        <path id="Trazado_630058" data-name="Trazado 630058" d="M71.342,273.524a5.473,5.473,0,0,1,1.33-.283c.21-.028.407-.076.438-.22a1.072,1.072,0,0,0-.16-.619q-.32-.754-.671-1.582a27.453,27.453,0,0,1-1.525-4.145,27.624,27.624,0,0,1,1.855,4.012q.338.834.645,1.592a1.22,1.22,0,0,1,.134.822.529.529,0,0,1-.336.318,1.415,1.415,0,0,1-.356.06,5.337,5.337,0,0,1-1.355.044" transform="translate(-34.857 -131.393)" fill="#263238"/>
        <path id="Trazado_630059" data-name="Trazado 630059" d="M57.876,294.289s2.059,4.043,8.013,3.3l-.038-1.4a15.035,15.035,0,0,1-7.975-1.9" transform="translate(-28.516 -144.998)" fill="#ff9b6c"/>
        <path id="Trazado_630060" data-name="Trazado 630060" d="M62.167,261.168c-.074.226-.9.146-1.862.292-.966.127-1.736.433-1.87.236-.06-.094.069-.309.377-.535a3.276,3.276,0,0,1,2.843-.4c.359.132.543.3.511.41" transform="translate(-28.784 -128.398)" fill="#263238"/>
        <path id="Trazado_630061" data-name="Trazado 630061" d="M78.5,261.4c-.14.191-.713.015-1.395.026-.683-.012-1.256.164-1.395-.027-.062-.093.023-.283.27-.468a2.019,2.019,0,0,1,2.247,0c.247.185.332.375.271.468" transform="translate(-37.293 -128.392)" fill="#263238"/>
        <path id="Trazado_630062" data-name="Trazado 630062" d="M61.906,247.662a2.627,2.627,0,0,0-2.36-1.42,5.1,5.1,0,0,0-2.729.881c-3.495,2.155-5.179,7.169-8.63,9.394-.849.547-1.987.1-2.7.814a2.535,2.535,0,0,0-.727,2.745,8.354,8.354,0,0,1-1.277-2.026,2.821,2.821,0,0,1,.032-2.328c.289-.535.814-.952.945-1.546a8,8,0,0,0-.1-1.594,3.486,3.486,0,0,1,.5-1.538,15.494,15.494,0,0,1,5.533-6.163,10.1,10.1,0,0,1,5.2-1.5,7.726,7.726,0,0,1,5.039,1.835c.806.71,1.653,1.444,1.274,2.449" transform="translate(-21.308 -119.914)" fill="#263238"/>
        <path id="Trazado_630063" data-name="Trazado 630063" d="M44.8,272.059c-.067-.169-3.212-1.2-3.159,2.105.052,3.215,3.276,2.49,3.28,2.4s-.121-4.5-.121-4.5" transform="translate(-20.518 -133.904)" fill="#ffc09d"/>
        <path id="Trazado_630064" data-name="Trazado 630064" d="M44.693,276.39c-.014-.01-.055.041-.149.086a.56.56,0,0,1-.419.016,1.385,1.385,0,0,1-.665-1.231,1.851,1.851,0,0,1,.142-.805.647.647,0,0,1,.413-.438.284.284,0,0,1,.333.147c.045.089.026.154.043.159s.068-.055.04-.187a.359.359,0,0,0-.13-.2.424.424,0,0,0-.311-.076.787.787,0,0,0-.575.509,1.9,1.9,0,0,0-.177.9,1.454,1.454,0,0,0,.844,1.373.6.6,0,0,0,.51-.095c.1-.081.114-.154.1-.159" transform="translate(-21.302 -134.932)" fill="#ff9b6c"/>
        <path id="Trazado_630065" data-name="Trazado 630065" d="M45.258,258.255a1.28,1.28,0,0,0,.191-.114c.121-.082.307-.191.529-.358a11.028,11.028,0,0,0,1.69-1.629,30.988,30.988,0,0,0,2.043-2.817,25.31,25.31,0,0,1,2.558-3.378,10.085,10.085,0,0,1,1.673-1.4,8.331,8.331,0,0,1,1.825-.892,9.164,9.164,0,0,1,3.392-.515,8.788,8.788,0,0,1,2.293.382c.266.073.464.156.6.2a1.2,1.2,0,0,0,.212.068,1.29,1.29,0,0,0-.2-.1,5.47,5.47,0,0,0-.6-.231,8.318,8.318,0,0,0-2.306-.431,9.093,9.093,0,0,0-3.441.491,8.358,8.358,0,0,0-1.858.9,10.092,10.092,0,0,0-1.7,1.42,24.559,24.559,0,0,0-2.564,3.4,33.019,33.019,0,0,1-2.01,2.826,11.914,11.914,0,0,1-1.646,1.65c-.215.172-.4.289-.51.378a1.353,1.353,0,0,0-.175.139" transform="translate(-22.299 -121.716)" fill="#fff"/>
        <path id="Trazado_630066" data-name="Trazado 630066" d="M46.893,266.35a4.955,4.955,0,0,0,.389,2.576,1.706,1.706,0,0,0,2.217.812,2.43,2.43,0,0,0,.861-1.889c.247-2.056.327-4.129.591-6.182Z" transform="translate(-23.099 -128.925)" fill="#263238"/>
        <path id="Trazado_630067" data-name="Trazado 630067" d="M62.941,248.737c0,.019-.286-.046-.8-.047a5.508,5.508,0,0,0-2.116.449,7,7,0,0,0-1.313.724,14.378,14.378,0,0,0-1.344,1.089,16.527,16.527,0,0,0-2.609,2.978c-.392.585-.737,1.184-1.113,1.742a8.2,8.2,0,0,1-1.247,1.486,14.323,14.323,0,0,1-2.664,1.894c-.81.458-1.488.782-1.957,1.006l-.543.25a.9.9,0,0,1-.195.076.9.9,0,0,1,.179-.108l.528-.28c.458-.243,1.127-.584,1.924-1.054a14.816,14.816,0,0,0,2.615-1.905,8.152,8.152,0,0,0,1.214-1.463c.369-.551.713-1.152,1.109-1.744a16.226,16.226,0,0,1,2.647-3,14,14,0,0,1,1.371-1.089,6.966,6.966,0,0,1,1.349-.719,5.306,5.306,0,0,1,2.165-.4,3.8,3.8,0,0,1,.6.065.906.906,0,0,1,.2.052" transform="translate(-23.177 -122.495)" fill="#455a64"/>
        <path id="Trazado_630068" data-name="Trazado 630068" d="M43.114,263.029a1.416,1.416,0,0,1-.279.2l-.8.5-.27.165a.859.859,0,0,1-.348.126.341.341,0,0,1-.219-.045.281.281,0,0,1-.126-.209.718.718,0,0,1,.141-.41l.9-1.54.131.115a3.363,3.363,0,0,1-2.165.713.948.948,0,0,1-.293-.042.394.394,0,0,1-.256-.21.351.351,0,0,1,.045-.326,1.365,1.365,0,0,1,.178-.206,6.772,6.772,0,0,0,1.055-1.412,11.532,11.532,0,0,0,.654-1.5,1.7,1.7,0,0,1-.089.435,6.006,6.006,0,0,1-.453,1.125,6.461,6.461,0,0,1-1.048,1.467c-.117.117-.232.251-.183.351s.225.145.394.142a3.246,3.246,0,0,0,2.05-.675l.376-.292-.245.406-.921,1.528a.608.608,0,0,0-.127.318.153.153,0,0,0,.189.132,1.646,1.646,0,0,0,.571-.255l.827-.456a1.417,1.417,0,0,1,.31-.146" transform="translate(-19.466 -127.586)" fill="#fff"/>
        <path id="Trazado_630069" data-name="Trazado 630069" d="M65.816,282.52a1.075,1.075,0,0,1,1.087-.847,1.124,1.124,0,0,1,.881.589,1.381,1.381,0,0,1,.08,1.073l-.015.078a1.223,1.223,0,0,1-1.369.332,1.144,1.144,0,0,1-.664-1.225" transform="translate(-32.419 -138.781)" fill="#ff9b6c"/>
        <path id="Trazado_630070" data-name="Trazado 630070" d="M68.734,282.89c0-.125-.834-.061-1.48-.727s-.624-1.557-.741-1.555c-.053-.008-.146.21-.127.585a2.08,2.08,0,0,0,.571,1.3,1.809,1.809,0,0,0,1.237.556c.35,0,.549-.1.539-.161" transform="translate(-32.708 -138.257)" fill="#263238"/>
        <path id="Trazado_630071" data-name="Trazado 630071" d="M57.707,308.928l-.095-.12c-4.157-4.4-11.806-5.871-11.806-5.871s-.468,2.879-4.756,3.2-7.439-4.047-7.439-4.047l-5.721.8a14.5,14.5,0,0,0-4.673,1.395c-4.039,2.375-6.182,10.568-6.182,10.568l44.121.178Z" transform="translate(-8.393 -148.843)" fill="#617a0b"/>
        <path id="Trazado_630072" data-name="Trazado 630072" d="M53.348,230.366s.1,0,.309.006a5.5,5.5,0,0,1,.91.085,7.116,7.116,0,0,1,3.236,1.4,7.29,7.29,0,0,1,2.791,4.846,13.78,13.78,0,0,1,.068,1.747q0,.9,0,1.864,0,1.924.008,4.082c.008,5.751.017,12.706.028,20.639q0,2.975.006,6.13c0,.526.013,1.052-.026,1.594a7.747,7.747,0,0,1-.292,1.6,7.4,7.4,0,0,1-1.651,2.857,7.162,7.162,0,0,1-2.8,1.885l-.406.148-.42.109a6.618,6.618,0,0,1-.855.159,14.091,14.091,0,0,1-1.741.062l-7.1,0,.12-.12c0,3.562,0,7.369.006,11.273v.291l-.212-.2q-2.8-2.64-5.693-5.449c-1.916-1.877-3.874-3.783-5.75-5.828l.1.043-18.64,0H8.189c-.471,0-.944,0-1.425-.031A7.374,7.374,0,0,1,.4,274.6a8.052,8.052,0,0,1-.4-2.75q0-1.37,0-2.729c0-7.246.006-14.234.008-20.892q0-4.993.006-9.728a11.786,11.786,0,0,1,.15-2.362A7.724,7.724,0,0,1,1,233.956a7.421,7.421,0,0,1,3.336-3.034,7.255,7.255,0,0,1,2.141-.6,19.963,19.963,0,0,1,2.173-.06l4.2,0,7.9.009,23.848.042,6.484.024,1.686.013c.379,0,.574.014.574.014s-.195.009-.574.014l-1.686.013-6.484.025-23.848.042-7.9.009-4.2,0a19.644,19.644,0,0,0-2.146.062,7.025,7.025,0,0,0-2.076.588,7.2,7.2,0,0,0-3.231,2.947,7.5,7.5,0,0,0-.805,2.118A11.535,11.535,0,0,0,.247,238.5q0,4.731.005,9.728c0,6.658.005,13.646.008,20.892q0,1.358,0,2.729a7.785,7.785,0,0,0,.39,2.665A7.116,7.116,0,0,0,6.786,279.3c.459.032.93.034,1.4.03h7.148l18.64,0h.057l.04.043c1.865,2.034,3.823,3.942,5.736,5.819s3.82,3.69,5.686,5.449l-.212.092c0-3.9,0-7.711.006-11.273v-.12h.12l7.1,0a13.845,13.845,0,0,0,1.713-.058,6.4,6.4,0,0,0,.828-.154l.407-.1.394-.143a6.945,6.945,0,0,0,2.722-1.824,7.175,7.175,0,0,0,1.606-2.769,7.494,7.494,0,0,0,.286-1.555c.039-.52.025-1.054.028-1.579q0-3.153.006-6.13c.011-7.933.02-14.889.028-20.639q0-2.156.008-4.082,0-.962,0-1.864a13.6,13.6,0,0,0-.058-1.733,7.234,7.234,0,0,0-5.922-6.22,6,6,0,0,0-.9-.1c-.2-.014-.308-.025-.308-.025" transform="translate(0 -113.45)" fill="#263238"/>
      </g>
    </g>
    <g id="Grupo_879449" data-name="Grupo 879449">
      <g id="Grupo_879448" data-name="Grupo 879448" clip-path="url(#clip-path)">
        <path id="Trazado_630073" data-name="Trazado 630073" d="M328.6,297.179h57.621a5.814,5.814,0,0,0,5.814-5.814v-44.6a5.814,5.814,0,0,0-5.814-5.814H328.6a5.814,5.814,0,0,0-5.814,5.814v44.6a5.814,5.814,0,0,0,5.814,5.814" transform="translate(-159.037 -118.719)" fill="#fff"/>
        <path id="Trazado_630074" data-name="Trazado 630074" d="M371.52,348.4c-.711,1.721-14.446,14.63-14.446,14.63V348.4Z" transform="translate(-175.933 -171.657)" fill="#455a64"/>
        <path id="Trazado_630075" data-name="Trazado 630075" d="M368.672,291.154c0-1.776,0-3.257-.011-3.439,0,0-6-.568-6.436-6.512-.208-2.873-.155-8.824-.045-14.208a11.1,11.1,0,0,1,10.437-10.847l.574-.034c6.211-.01,9.689,5.259,9.527,11.467l-.218,23.3-10.048,8.068-.727-.064Z" transform="translate(-178.401 -126.189)" fill="#ffc09d"/>
        <path id="Trazado_630076" data-name="Trazado 630076" d="M375.051,315.732a14.391,14.391,0,0,0,7.607-2.755s-1.629,4.459-7.6,4.279Z" transform="translate(-184.79 -154.206)" fill="#ff9b6c"/>
        <path id="Trazado_630077" data-name="Trazado 630077" d="M382.209,281.622c.116.122.809-.422,1.8-.435.994-.029,1.731.484,1.838.357.052-.056-.068-.277-.39-.509a2.486,2.486,0,0,0-1.473-.439,2.4,2.4,0,0,0-1.434.5c-.3.246-.4.471-.345.526" transform="translate(-188.309 -138.251)" fill="#263238"/>
        <path id="Trazado_630078" data-name="Trazado 630078" d="M383.673,287.229a.8.8,0,0,0,.823.764.77.77,0,0,0,.785-.774.8.8,0,0,0-.823-.764.77.77,0,0,0-.785.775" transform="translate(-189.038 -141.138)" fill="#263238"/>
        <path id="Trazado_630079" data-name="Trazado 630079" d="M374.834,288.775a6.053,6.053,0,0,0-1.5-.179c-.235-.01-.459-.043-.507-.2a1.187,1.187,0,0,1,.114-.7q.279-.867.583-1.819a30.611,30.611,0,0,0,1.271-4.742,30.694,30.694,0,0,0-1.65,4.629q-.29.956-.555,1.828a1.356,1.356,0,0,0-.066.923.587.587,0,0,0,.4.318,1.572,1.572,0,0,0,.4.031,5.945,5.945,0,0,0,1.505-.088" transform="translate(-183.515 -138.516)" fill="#263238"/>
        <path id="Trazado_630080" data-name="Trazado 630080" d="M383.2,275.624c.093.222.892.066,1.845.127.954.041,1.734.282,1.848.071.05-.1-.1-.306-.417-.507a3.123,3.123,0,0,0-2.813-.151c-.339.165-.5.354-.462.46" transform="translate(-188.8 -135.445)" fill="#263238"/>
        <path id="Trazado_630081" data-name="Trazado 630081" d="M364.8,276.716c.1.181.881-.009,1.822-.025.942-.034,1.72.114,1.822-.073.045-.089-.108-.252-.434-.4a3.284,3.284,0,0,0-1.388-.248,3.391,3.391,0,0,0-1.387.323c-.326.165-.479.336-.434.423" transform="translate(-179.734 -135.972)" fill="#263238"/>
        <path id="Trazado_630082" data-name="Trazado 630082" d="M402.324,287.193c.1-.05,4.015-1.454,4.129,2.62s-4,3.349-4.01,3.232-.119-5.853-.119-5.853" transform="translate(-198.228 -141.367)" fill="#ffc09d"/>
        <path id="Trazado_630083" data-name="Trazado 630083" d="M404.923,292.732c.018-.014.073.048.194.1a.71.71,0,0,0,.531,0,1.757,1.757,0,0,0,.769-1.6,2.344,2.344,0,0,0-.227-1.011.82.82,0,0,0-.549-.53.362.362,0,0,0-.413.206c-.051.115-.023.2-.045.2s-.089-.065-.061-.235a.451.451,0,0,1,.153-.26.537.537,0,0,1,.39-.115,1,1,0,0,1,.759.611,2.409,2.409,0,0,1,.278,1.129,1.843,1.843,0,0,1-.986,1.789.759.759,0,0,1-.652-.09c-.129-.1-.153-.188-.139-.2" transform="translate(-199.506 -142.632)" fill="#ff9b6c"/>
        <path id="Trazado_630084" data-name="Trazado 630084" d="M379.624,300.5c-.043-.1.758-.332,1.328-1.073a4.529,4.529,0,0,0,.577-1.056c.123-.294.215-.478.259-.464s.028.214-.041.534a3.016,3.016,0,0,1-.54,1.185,2.434,2.434,0,0,1-1.051.783c-.312.122-.523.127-.533.092" transform="translate(-187.043 -146.782)" fill="#263238"/>
        <path id="Trazado_630085" data-name="Trazado 630085" d="M384.963,262.014a19.949,19.949,0,0,1-1.449-4.772c-.443-1.609-1.314-3.281-2.878-3.861l-.035.015a4.286,4.286,0,0,0-4.315.348,5.573,5.573,0,0,0-4.153-4.389,13.792,13.792,0,0,0-7.368.484,15.129,15.129,0,0,0-4.861,3.673,19.972,19.972,0,0,0-2.11,2.491l-1.868,5.524,1.5,2.929c.09.2.182.4.295.6l0-.014,1.309,6.148c.109-1.67.062-7.488.172-9.159a9.324,9.324,0,0,0,6.684-2.983c.926-1,1.66-2.257,2.89-2.846,1.584-.759,3.454-.168,5.106.43l-.07-.064a7.451,7.451,0,0,1,2.279,1.69,23.184,23.184,0,0,0,.877,9.822c.15.476.562,1.458,1.025,1.644.91.365,1.168-.563,1.725-1.05a2.42,2.42,0,0,1,1.669-.388,36.585,36.585,0,0,0,1.172-4.212,3.719,3.719,0,0,0,1.708.137l-.509-1.266a1.946,1.946,0,0,0,.727.34.662.662,0,0,0,.7-.293c.159-.311-.047-.673-.221-.976" transform="translate(-175.367 -122.711)" fill="#263238"/>
        <path id="Trazado_630086" data-name="Trazado 630086" d="M392.359,259.595a5.137,5.137,0,0,1,.589.552,4.264,4.264,0,0,1,.886,1.984,7.5,7.5,0,0,1,.132,1.511c0,.547-.056,1.132-.106,1.749a15.671,15.671,0,0,0-.069,1.947,6.8,6.8,0,0,0,.121,1.029,2.147,2.147,0,0,0,.406,1,.9.9,0,0,0,.835.292,1.334,1.334,0,0,0,.759-.416,3.079,3.079,0,0,0,.592-1.5l-.125.014a4.982,4.982,0,0,0,.707,1.254,1.769,1.769,0,0,0,1.147.644,1.145,1.145,0,0,0,.614-.1.991.991,0,0,0,.422-.4,1.02,1.02,0,0,0,.133-.525.74.74,0,0,0-.185-.465l-.064.056a3.829,3.829,0,0,0,1.264.973,3.4,3.4,0,0,0,.393.159.684.684,0,0,0,.142.037.732.732,0,0,0-.133-.059c-.088-.038-.218-.092-.381-.178a3.94,3.94,0,0,1-1.219-.987l-.064.055a.762.762,0,0,1,.028.883.893.893,0,0,1-.381.358,1.035,1.035,0,0,1-.557.083,1.66,1.66,0,0,1-1.065-.611,4.918,4.918,0,0,1-.68-1.227l-.083-.192-.042.2a2.981,2.981,0,0,1-.564,1.436,1.2,1.2,0,0,1-.68.372.756.756,0,0,1-.709-.248,2.023,2.023,0,0,1-.375-.937,6.747,6.747,0,0,1-.12-1.008,15.809,15.809,0,0,1,.061-1.931c.046-.616.094-1.2.093-1.758a7.419,7.419,0,0,0-.151-1.532,4.2,4.2,0,0,0-.942-2,2.417,2.417,0,0,0-.63-.517" transform="translate(-193.317 -127.904)" fill="#455a64"/>
        <path id="Trazado_630087" data-name="Trazado 630087" d="M355.991,261.856s.015.016.047.041l.147.11a1.957,1.957,0,0,0,.249.165,3.3,3.3,0,0,0,.359.195,5.264,5.264,0,0,0,2.536.49,6.729,6.729,0,0,0,3.6-1.277,11.663,11.663,0,0,0,3.125-3.51c.441-.713.8-1.446,1.2-2.122a7.883,7.883,0,0,1,1.35-1.791,4.06,4.06,0,0,1,1.725-1.017,2.907,2.907,0,0,1,.9-.092,3.192,3.192,0,0,1,.824.169,3.437,3.437,0,0,1,1.888,1.64,4.087,4.087,0,0,1,.3.895.2.2,0,0,0,0-.062c-.007-.05-.015-.11-.026-.183a2.969,2.969,0,0,0-.217-.673,3.377,3.377,0,0,0-.653-.911,3.483,3.483,0,0,0-1.25-.8,3.249,3.249,0,0,0-.85-.184,3.011,3.011,0,0,0-.94.088,4.154,4.154,0,0,0-1.784,1.035,7.932,7.932,0,0,0-1.38,1.815c-.4.681-.763,1.412-1.2,2.118a11.657,11.657,0,0,1-3.081,3.478,6.693,6.693,0,0,1-3.533,1.284,5.348,5.348,0,0,1-2.509-.441,8.307,8.307,0,0,1-.825-.462" transform="translate(-175.399 -124.623)" fill="#455a64"/>
        <path id="Trazado_630088" data-name="Trazado 630088" d="M364.322,282.13c.117.122.809-.422,1.8-.435.994-.029,1.732.483,1.838.357.052-.056-.068-.277-.389-.509a2.489,2.489,0,0,0-1.474-.439,2.4,2.4,0,0,0-1.434.5c-.3.246-.4.471-.345.526" transform="translate(-179.496 -138.501)" fill="#263238"/>
        <path id="Trazado_630089" data-name="Trazado 630089" d="M367.335,287.464a.8.8,0,0,0,.823.764.77.77,0,0,0,.785-.774.8.8,0,0,0-.823-.765.77.77,0,0,0-.785.775" transform="translate(-180.988 -141.254)" fill="#263238"/>
        <path id="Trazado_630090" data-name="Trazado 630090" d="M355.451,261.417a2.546,2.546,0,0,1-2.117,1.186,6.318,6.318,0,0,1-.886-.26c-.291.176-.223,1.172-.022,1.446a5.273,5.273,0,0,0,.623.646,3.3,3.3,0,0,1-2.907-.116,5.108,5.108,0,0,0,3.031,4.095,1.791,1.791,0,0,0,1.641.032,2.065,2.065,0,0,0,.72-1.278,22.353,22.353,0,0,0,.732-5.461Z" transform="translate(-172.518 -128.802)" fill="#263238"/>
        <path id="Trazado_630091" data-name="Trazado 630091" d="M344.425,330.8l.108-.137c4.76-5.037,13.521-6.723,13.521-6.723s.536,3.3,5.446,3.666,8.519-4.634,8.519-4.634l6.552.917a16.6,16.6,0,0,1,5.351,1.6c4.624,2.72,7.079,12.1,7.079,12.1l-50.526.2Z" transform="translate(-167.754 -159.131)" fill="#455a64"/>
        <path id="Trazado_630092" data-name="Trazado 630092" d="M330.983,240.848s-.119.013-.353.028l-.436.027c-.173.016-.372.057-.6.09a8.193,8.193,0,0,0-3.663,1.626,8.267,8.267,0,0,0-3.127,5.5,15.557,15.557,0,0,0-.068,1.986q0,1.033,0,2.135,0,2.2.008,4.674c.008,6.585.017,14.551.028,23.635q0,3.408.006,7.02c0,.6-.012,1.211.032,1.809a8.6,8.6,0,0,0,.328,1.784,8.23,8.23,0,0,0,1.842,3.178,7.961,7.961,0,0,0,3.123,2.093l.452.164.467.12a7.287,7.287,0,0,0,.951.176,16,16,0,0,0,1.963.067l8.132,0h.12v.12c0,4.079,0,8.439.006,12.909l-.212-.091q3.2-3.022,6.512-6.241c2.19-2.149,4.433-4.334,6.569-6.664l.04-.043h.057l21.346,0H382.7c.543,0,1.083,0,1.61-.035a8.167,8.167,0,0,0,7.042-5.491,8.925,8.925,0,0,0,.447-3.059q0-1.569,0-3.125c0-8.3.006-16.3.008-23.925q0-5.718.005-11.141a13.262,13.262,0,0,0-.163-2.656,8.6,8.6,0,0,0-.924-2.43,8.254,8.254,0,0,0-3.708-3.381,8.065,8.065,0,0,0-2.383-.675,22.59,22.59,0,0,0-2.459-.071l-4.815,0-9.05-.009L341,240.9l-7.425-.024-1.931-.013c-.435,0-.658-.014-.658-.014s.223-.009.658-.014l1.931-.013L341,240.8l27.311-.042,9.05-.009,4.815,0a22.78,22.78,0,0,1,2.486.069,8.27,8.27,0,0,1,2.447.689,8.483,8.483,0,0,1,3.813,3.468,8.849,8.849,0,0,1,.953,2.5,13.5,13.5,0,0,1,.171,2.7q0,5.417.006,11.141c0,7.625.005,15.628.008,23.925q0,1.555,0,3.125a9.2,9.2,0,0,1-.461,3.143,8.43,8.43,0,0,1-7.267,5.67c-.55.038-1.091.04-1.631.036h-8.186l-21.346,0,.1-.043c-2.147,2.341-4.39,4.524-6.584,6.674s-4.38,4.224-6.519,6.239l-.212.2v-.291c0-4.47,0-8.83.005-12.909l.12.12-8.132,0a16.145,16.145,0,0,1-1.991-.07,7.612,7.612,0,0,1-.978-.183l-.48-.124-.464-.168a8.2,8.2,0,0,1-3.207-2.154,8.457,8.457,0,0,1-1.887-3.266,8.821,8.821,0,0,1-.334-1.831c-.045-.62-.027-1.223-.03-1.825q0-3.611.006-7.02c.011-9.085.02-17.051.028-23.635q0-2.468.008-4.674,0-1.1,0-2.135a15.566,15.566,0,0,1,.077-2,8.344,8.344,0,0,1,3.191-5.546,8.143,8.143,0,0,1,3.7-1.6c.229-.031.429-.068.6-.081l.438-.017c.234-.009.354-.008.354-.008" transform="translate(-158.933 -118.615)" fill="#263238"/>
      </g>
    </g>
  </g>
</svg>
