<svg xmlns="http://www.w3.org/2000/svg" xmlns:xlink="http://www.w3.org/1999/xlink" width="987.093" height="577.194" viewBox="0 0 987.093 577.194">
  <defs>
    <clipPath id="clip-path">
      <rect id="Rectángulo_328729" data-name="Rectángulo 328729" width="987.093" height="577.194" fill="none"/>
    </clipPath>
    <clipPath id="clip-path-4">
      <rect id="Rectángulo_328666" data-name="Rectángulo 328666" width="140.397" height="14.142" fill="none"/>
    </clipPath>
    <clipPath id="clip-path-5">
      <rect id="Rectángulo_328672" data-name="Rectángulo 328672" width="67.272" height="13.705" fill="none"/>
    </clipPath>
    <clipPath id="clip-path-8">
      <rect id="Rectángulo_328701" data-name="Rectángulo 328701" width="92.282" height="38.195" fill="none"/>
    </clipPath>
    <clipPath id="clip-path-10">
      <rect id="Rectángulo_328703" data-name="Rectángulo 328703" width="81.836" height="24.872" fill="none"/>
    </clipPath>
    <clipPath id="clip-path-12">
      <rect id="Rectángulo_328707" data-name="Rectángulo 328707" width="137.714" height="18.904" fill="none"/>
    </clipPath>
    <clipPath id="clip-path-13">
      <rect id="Rectángulo_328708" data-name="Rectángulo 328708" width="25.403" height="25.403" fill="none"/>
    </clipPath>
    <clipPath id="clip-path-16">
      <rect id="Rectángulo_328721" data-name="Rectángulo 328721" width="17.082" height="21.831" fill="none"/>
    </clipPath>
    <clipPath id="clip-path-17">
      <rect id="Rectángulo_328722" data-name="Rectángulo 328722" width="17.083" height="21.831" fill="none"/>
    </clipPath>
    <clipPath id="clip-path-18">
      <rect id="Rectángulo_328723" data-name="Rectángulo 328723" width="39.322" height="35.495" fill="none"/>
    </clipPath>
    <clipPath id="clip-path-19">
      <rect id="Rectángulo_328724" data-name="Rectángulo 328724" width="39.96" height="50.397" fill="none"/>
    </clipPath>
    <clipPath id="clip-path-20">
      <rect id="Rectángulo_328725" data-name="Rectángulo 328725" width="82.998" height="97.16" fill="none"/>
    </clipPath>
    <clipPath id="clip-path-21">
      <rect id="Rectángulo_328726" data-name="Rectángulo 328726" width="46.211" height="36.79" fill="none"/>
    </clipPath>
  </defs>
  <g id="Grupo_1034304" data-name="Grupo 1034304" transform="translate(-347.907 -5621.471)">
    <g id="Grupo_879205" data-name="Grupo 879205" transform="translate(347.907 5646.471)">
      <g id="Grupo_879204" data-name="Grupo 879204" transform="translate(0 -25)" clip-path="url(#clip-path)">
        <g id="Grupo_879153" data-name="Grupo 879153">
          <g id="Grupo_879152" data-name="Grupo 879152" clip-path="url(#clip-path)">
            <path id="Trazado_628351" data-name="Trazado 628351" d="M516.467,69.807l11.76-18.959-5.841-3.617a5.285,5.285,0,0,1-2.425-4.989,31.484,31.484,0,0,0,.1-3.254,5.348,5.348,0,0,1,2.767-4.874l6.018-3.227L518.3,11.218l-6.018,3.227a5.214,5.214,0,0,1-5.452-.295,30.879,30.879,0,0,0-3.02-1.87,5.218,5.218,0,0,1-2.7-4.76l.217-6.826L479.031,0l-.207,6.852a5.229,5.229,0,0,1-3.027,4.576c-.52.244-1.038.5-1.549.779s-1.014.562-1.506.859a5.211,5.211,0,0,1-5.461-.006l-5.848-3.623L449.673,28.4l5.856,3.634a5.275,5.275,0,0,1,2.416,4.983,30.585,30.585,0,0,0-.109,3.247,5.355,5.355,0,0,1-2.768,4.87l-6.02,3.229L459.6,68.026l6.02-3.229a5.35,5.35,0,0,1,5.587.39,31.006,31.006,0,0,0,2.765,1.7,5.274,5.274,0,0,1,2.815,4.769l-.213,6.89,22.3.693.213-6.846a5.3,5.3,0,0,1,3.1-4.6q.747-.351,1.482-.747t1.431-.814a5.312,5.312,0,0,1,5.564-.038ZM499.615,54.468a18.28,18.28,0,1,1,6.445-21.307,18.276,18.276,0,0,1-6.445,21.307" transform="translate(187.72)" fill="#ebebeb"/>
            <path id="Trazado_628352" data-name="Trazado 628352" d="M12.153,129.256a3.722,3.722,0,0,1,1.819,3.45c-.02.381-.028.766-.028,1.151s.009.776.028,1.159a3.711,3.711,0,0,1-1.812,3.437L8,140.852l7.811,13.538,4.155-2.4a3.718,3.718,0,0,1,3.9.138,21.962,21.962,0,0,0,2.015,1.167,3.714,3.714,0,0,1,2.052,3.3v4.784H43.567V156.6a3.712,3.712,0,0,1,2.052-3.3,22.347,22.347,0,0,0,2.015-1.167,3.715,3.715,0,0,1,3.9-.138l4.155,2.4L63.5,140.852l-4.173-2.411a3.7,3.7,0,0,1-1.808-3.433c.018-.381.028-.766.028-1.15s-.01-.77-.028-1.151a3.719,3.719,0,0,1,1.819-3.447l4.162-2.4-7.811-13.537-4.144,2.394a3.715,3.715,0,0,1-3.9-.133,22,22,0,0,0-2.025-1.168,3.714,3.714,0,0,1-2.055-3.3v-4.784H27.933v4.784a3.715,3.715,0,0,1-2.056,3.3,21.978,21.978,0,0,0-2.024,1.168,3.718,3.718,0,0,1-3.9.133l-4.142-2.394L8,126.863Zm23.59-8.208a12.8,12.8,0,1,1-12.8,12.809,12.814,12.814,0,0,1,12.8-12.809" transform="translate(3.346 44.451)" fill="#ebebeb"/>
            <path id="Trazado_628353" data-name="Trazado 628353" d="M595.146,158.523a3.722,3.722,0,0,1,1.819,3.45c-.02.381-.028.766-.028,1.151s.009.776.028,1.159a3.712,3.712,0,0,1-1.812,3.437l-4.156,2.4,7.811,13.538,4.155-2.4a3.718,3.718,0,0,1,3.9.138,21.965,21.965,0,0,0,2.015,1.167,3.712,3.712,0,0,1,2.052,3.3v4.784H626.56v-4.784a3.712,3.712,0,0,1,2.052-3.3,22.136,22.136,0,0,0,2.015-1.167,3.715,3.715,0,0,1,3.9-.138l4.155,2.4,7.811-13.538-4.173-2.411a3.705,3.705,0,0,1-1.808-3.433c.018-.381.028-.766.028-1.15s-.01-.77-.028-1.151a3.719,3.719,0,0,1,1.819-3.447l4.162-2.4-7.811-13.537-4.144,2.394a3.718,3.718,0,0,1-3.9-.132,21.7,21.7,0,0,0-2.025-1.17,3.714,3.714,0,0,1-2.055-3.3V135.6H610.926v4.784a3.715,3.715,0,0,1-2.056,3.3,21.658,21.658,0,0,0-2.023,1.17,3.718,3.718,0,0,1-3.9.132l-4.143-2.394L591,156.13Zm23.591-8.208a12.8,12.8,0,1,1-12.8,12.809,12.814,12.814,0,0,1,12.8-12.809" transform="translate(247.06 56.685)" fill="#ebebeb"/>
            <path id="Trazado_628354" data-name="Trazado 628354" d="M634.014,82.378H631.94V80.994h.691V80.3h1.384Z" transform="translate(264.175 33.57)" fill="#ebebeb"/>
            <path id="Trazado_628355" data-name="Trazado 628355" d="M656.885,82.175h-2.764V80.791h2.764Zm-5.53,0h-2.764V80.791h2.764Zm-5.528,0h-2.765V80.791h2.765Zm-5.53,0h-2.765V80.791H640.3Zm-5.529,0H632V80.791h2.764Zm-5.53,0h-2.764V80.791h2.764Zm-5.528,0h-2.765V80.791h2.765Zm-5.53,0h-2.765V80.791h2.765Zm-5.529,0h-2.764V80.791h2.764Zm-5.53,0h-2.764V80.791h2.764Zm-5.528,0h-2.765V80.791h2.765Zm-5.529,0H593.3V80.791h2.764Zm-5.53,0H587.77V80.791h2.764Zm-5.53,0H582.24V80.791H585Zm-5.528,0h-2.765V80.791h2.765Zm-5.529,0h-2.764V80.791h2.764Zm-5.53,0h-2.764V80.791h2.764Z" transform="translate(236.465 33.774)" fill="#ebebeb"/>
            <path id="Trazado_628356" data-name="Trazado 628356" d="M564.314,82.378H562.24V80.3h1.383v.691h.692Z" transform="translate(235.038 33.57)" fill="#ebebeb"/>
            <path id="Trazado_628357" data-name="Trazado 628357" d="M563.623,105.248h-1.384v-2.765h1.384Zm0-5.529h-1.384V96.954h1.384Zm0-5.529h-1.384V91.425h1.384Zm0-5.529h-1.384V85.9h1.384Zm0-5.529h-1.384V80.367h1.384Zm0-5.529h-1.384V74.839h1.384Zm0-5.53h-1.384V69.308h1.384Zm0-5.529h-1.384V63.779h1.384Zm0-5.529h-1.384V58.25h1.384Zm0-5.529h-1.384V52.721h1.384Zm0-5.53h-1.384V47.191h1.384Zm0-5.529h-1.384V41.662h1.384Zm0-5.529h-1.384V36.133h1.384Zm0-5.529h-1.384V30.6h1.384Zm0-5.53h-1.384V25.074h1.384Zm0-5.529h-1.384V19.545h1.384Zm0-5.529h-1.384V14.016h1.384Z" transform="translate(235.038 5.859)" fill="#ebebeb"/>
            <path id="Trazado_628358" data-name="Trazado 628358" d="M563.623,12.678h-1.384V10.6h2.076v1.383h-.692Z" transform="translate(235.038 4.433)" fill="#ebebeb"/>
            <path id="Trazado_628359" data-name="Trazado 628359" d="M656.885,11.987h-2.764V10.6h2.764Zm-5.53,0h-2.764V10.6h2.764Zm-5.528,0h-2.765V10.6h2.765Zm-5.53,0h-2.764V10.6H640.3Zm-5.529,0H632V10.6h2.764Zm-5.53,0h-2.764V10.6h2.764Zm-5.528,0h-2.765V10.6h2.765Zm-5.53,0h-2.764V10.6h2.764Zm-5.529,0h-2.764V10.6h2.764Zm-5.529,0h-2.765V10.6h2.765Zm-5.529,0h-2.765V10.6h2.765Zm-5.529,0H593.3V10.6h2.764Zm-5.53,0H587.77V10.6h2.764Zm-5.527,0h-2.765V10.6h2.765Zm-5.53,0h-2.765V10.6h2.765Zm-5.529,0h-2.764V10.6h2.764Zm-5.53,0h-2.764V10.6h2.764Z" transform="translate(236.465 4.432)" fill="#ebebeb"/>
            <path id="Trazado_628360" data-name="Trazado 628360" d="M634.014,12.678H632.63v-.692h-.691V10.6h2.075Z" transform="translate(264.175 4.433)" fill="#ebebeb"/>
            <path id="Trazado_628361" data-name="Trazado 628361" d="M633.811,105.25h-1.384v-2.765h1.384Zm0-5.53h-1.384V96.954h1.384Zm0-5.529h-1.384V91.425h1.384Zm0-5.529h-1.384V85.9h1.384Zm0-5.529h-1.384V80.367h1.384Zm0-5.529h-1.384V74.839h1.384Zm0-5.529h-1.384V69.31h1.384Zm0-5.53h-1.384V63.779h1.384Zm0-5.529h-1.384V58.25h1.384Zm0-5.529h-1.384V52.721h1.384Zm0-5.529h-1.384V47.192h1.384Zm0-5.53h-1.384V41.662h1.384Zm0-5.529h-1.384V36.133h1.384Zm0-5.529h-1.384V30.6h1.384Zm0-5.529h-1.384V25.075h1.384Zm0-5.53h-1.384V19.545h1.384Zm0-5.529h-1.384V14.016h1.384Z" transform="translate(264.379 5.859)" fill="#ebebeb"/>
            <rect id="Rectángulo_328651" data-name="Rectángulo 328651" width="12.404" height="12.402" transform="translate(791.768 109.056)" fill="#fff"/>
            <path id="Trazado_628362" data-name="Trazado 628362" d="M571.654,90.2H557.866V76.418h13.788Zm-12.4-1.384h11.02V77.8H559.25Z" transform="translate(233.21 31.946)" fill="#ebebeb"/>
            <rect id="Rectángulo_328652" data-name="Rectángulo 328652" width="12.404" height="12.404" transform="translate(791.82 59.29)" fill="#fff"/>
            <path id="Trazado_628363" data-name="Trazado 628363" d="M571.654,55.11H557.866V41.324h13.788Zm-12.4-1.383h11.02V42.708H559.25Z" transform="translate(233.21 17.275)" fill="#ebebeb"/>
            <rect id="Rectángulo_328653" data-name="Rectángulo 328653" width="12.404" height="12.402" transform="translate(791.82 9.526)" fill="#fff"/>
            <path id="Trazado_628364" data-name="Trazado 628364" d="M571.654,20.016H557.866V6.23h13.788Zm-12.4-1.384h11.02V7.613H559.25Z" transform="translate(233.21 2.604)" fill="#ebebeb"/>
            <rect id="Rectángulo_328654" data-name="Rectángulo 328654" width="12.404" height="12.402" transform="translate(891.348 109.056)" fill="#fff"/>
            <path id="Trazado_628365" data-name="Trazado 628365" d="M641.84,90.2H628.054V76.418H641.84Zm-12.4-1.384h11.02V77.8h-11.02Z" transform="translate(262.551 31.946)" fill="#ebebeb"/>
            <rect id="Rectángulo_328655" data-name="Rectángulo 328655" width="12.404" height="12.404" transform="translate(891.348 59.29)" fill="#fff"/>
            <path id="Trazado_628366" data-name="Trazado 628366" d="M641.84,55.11H628.054V41.324H641.84Zm-12.4-1.383h11.02V42.708h-11.02Z" transform="translate(262.551 17.275)" fill="#ebebeb"/>
            <rect id="Rectángulo_328656" data-name="Rectángulo 328656" width="12.404" height="12.402" transform="translate(891.348 9.526)" fill="#fff"/>
            <path id="Trazado_628367" data-name="Trazado 628367" d="M641.84,20.016H628.054V6.23H641.84Zm-12.4-1.384h11.02V7.613h-11.02Z" transform="translate(262.551 2.604)" fill="#ebebeb"/>
            <rect id="Rectángulo_328657" data-name="Rectángulo 328657" width="12.402" height="12.402" transform="translate(841.585 9.526)" fill="#fff"/>
            <path id="Trazado_628368" data-name="Trazado 628368" d="M606.746,20.016H592.96V6.23h13.786Zm-12.4-1.384h11.02V7.613h-11.02Z" transform="translate(247.88 2.604)" fill="#ebebeb"/>
            <rect id="Rectángulo_328658" data-name="Rectángulo 328658" width="12.402" height="12.402" transform="translate(841.532 109.056)" fill="#fff"/>
            <path id="Trazado_628369" data-name="Trazado 628369" d="M606.746,90.2H592.96V76.418h13.786Zm-12.4-1.384h11.02V77.8h-11.02Z" transform="translate(247.88 31.946)" fill="#ebebeb"/>
            <path id="Trazado_628370" data-name="Trazado 628370" d="M631.684,46.542h-1.632c-4.623-13.958-7.28-19.7-15.071-19.7H613.95V83.2h7.28V85H589.974V83.2h7.28V26.844h-1.116c-7.8,0-10.7,6.424-15.077,19.7h-1.625l.858-21.5h50.532Z" transform="translate(242.227 10.47)" fill="#ebebeb"/>
            <path id="Trazado_628371" data-name="Trazado 628371" d="M22.153,274.8a3.529,3.529,0,0,1-2.465,6.049,3.736,3.736,0,0,1-2.577-1.008L1.371,263.874c-.169-.055-.224-.167-.281-.336a.82.82,0,0,0-.167-.112,1.472,1.472,0,0,1-.169-.448.3.3,0,0,1-.167-.224c-.057-.112-.057-.279-.112-.336,0-.167-.112-.224-.112-.281v-.391c0-.112-.055-.167-.055-.336,0-.055.055-.224.055-.281v-.391c0-.112.112-.169.112-.224.055-.169.055-.279.112-.448,0-.057.057-.057.057-.112a4.049,4.049,0,0,1,.279-.5.11.11,0,0,1,.112-.112,1.046,1.046,0,0,1,.336-.391l15.742-15.966a3.655,3.655,0,0,1,5.041,0,3.553,3.553,0,0,1,0,5.043L8.876,261.409Z" transform="translate(0.128 101.153)" fill="#ebebeb"/>
            <path id="Trazado_628372" data-name="Trazado 628372" d="M25.86,276.566l13.724-32.659a3.11,3.11,0,0,1,4.091-1.625,3.024,3.024,0,0,1,1.567,3.978L31.517,278.975a3.106,3.106,0,0,1-2.857,1.848,2.673,2.673,0,0,1-1.119-.223,3.027,3.027,0,0,1-1.682-4.034" transform="translate(10.706 101.179)" fill="#ebebeb"/>
            <path id="Trazado_628373" data-name="Trazado 628373" d="M65.141,263.426a.055.055,0,0,1-.055.057,2.608,2.608,0,0,1-.391.391L48.953,279.84a3.655,3.655,0,0,1-5.041,0,3.551,3.551,0,0,1,0-5.041l13.276-13.389L43.911,248.022a3.553,3.553,0,0,1,0-5.043,3.655,3.655,0,0,1,5.041,0l15.742,15.966a2.681,2.681,0,0,1,.391.391c.055,0,.055.112.055.112a5.008,5.008,0,0,1,.281.5c0,.055.057.055.057.112a2.485,2.485,0,0,0,.169.5c0,.057.055.057.055.169v.391c0,.057.055.225.055.281s-.055.224-.055.281v.447c0,.057-.055.057-.055.113a4.564,4.564,0,0,0-.169.5c0,.057-.057.057-.057.169-.055.112-.169.279-.281.5" transform="translate(17.918 101.153)" fill="#ebebeb"/>
          </g>
        </g>
        <path id="Trazado_628374" data-name="Trazado 628374" d="M226.224,406.351l-113.111.05L0,406.535l113.113.138,113.111.05,226.225.094,226.224-.094,113.111-.048,113.113-.139L791.785,406.4l-113.111-.048-226.224-.094Z" transform="translate(0 169.831)" fill="#263238"/>
        <rect id="Rectángulo_328660" data-name="Rectángulo 328660" width="728.319" height="440.497" transform="translate(86.861 58.89)" fill="#fff"/>
        <g id="Grupo_879161" data-name="Grupo 879161">
          <g id="Grupo_879160" data-name="Grupo 879160" clip-path="url(#clip-path)">
            <path id="Trazado_628375" data-name="Trazado 628375" d="M789.782,482.246c-.231.17-728.59.407-728.845.529-.4-.2.106-440.7-.182-441.026v-.708h.708c.077-.2,728.6.438,728.73.295.184.362-.543,440.51-.411,440.909m0,0c.02.183-.92-442.293,0-440.086l-728.318.3.708-.708c.014-.218.438,442.791-.7,439.971l728.316.526" transform="translate(25.398 17.141)" fill="#c7c7c7"/>
            <rect id="Rectángulo_328661" data-name="Rectángulo 328661" width="728.319" height="71.768" transform="translate(86.861 58.89)" fill="#ffb338"/>
            <rect id="Rectángulo_328662" data-name="Rectángulo 328662" width="14.969" height="2.501" transform="translate(117.089 105.519)" fill="#fff"/>
            <rect id="Rectángulo_328663" data-name="Rectángulo 328663" width="14.969" height="2.5" transform="translate(117.089 116.726)" fill="#fff"/>
            <rect id="Rectángulo_328664" data-name="Rectángulo 328664" width="14.969" height="2.5" transform="translate(117.089 111.188)" fill="#fff"/>
            <g id="Grupo_879156" data-name="Grupo 879156" transform="translate(644.556 105.302)" opacity="0.1">
              <g id="Grupo_879155" data-name="Grupo 879155">
                <g id="Grupo_879154" data-name="Grupo 879154" clip-path="url(#clip-path-4)">
                  <rect id="Rectángulo_328665" data-name="Rectángulo 328665" width="140.397" height="14.142" transform="translate(0 0)"/>
                </g>
              </g>
            </g>
            <rect id="Rectángulo_328667" data-name="Rectángulo 328667" width="14.142" height="14.142" transform="translate(770.811 105.302)" fill="#fff"/>
            <path id="Trazado_628376" data-name="Trazado 628376" d="M553.083,83.377l-1.306.99-2.421-3.195L548.471,80a2.109,2.109,0,0,0,.508-.288,2.137,2.137,0,0,0,.671-.869l.94,1.239Z" transform="translate(229.282 32.961)" fill="#ffc727"/>
            <path id="Trazado_628377" data-name="Trazado 628377" d="M551.8,77.146a3.566,3.566,0,1,0-1.156,5.319,3.765,3.765,0,0,0,.495-.319,3.568,3.568,0,0,0,.661-5m-1.533,3.863a2.084,2.084,0,0,1-.508.288,2.132,2.132,0,1,1,.508-.288" transform="translate(227.998 31.667)" fill="#ffc727"/>
            <rect id="Rectángulo_328668" data-name="Rectángulo 328668" width="0.759" height="8.582" transform="translate(647.514 108.083)" fill="#fff"/>
            <rect id="Rectángulo_328669" data-name="Rectángulo 328669" width="67.272" height="13.705" transform="translate(188.269 105.52)" fill="none" stroke="#fff" stroke-miterlimit="10" stroke-width="1"/>
            <rect id="Rectángulo_328670" data-name="Rectángulo 328670" width="67.272" height="13.705" transform="translate(270.318 105.52)" fill="none" stroke="#fff" stroke-miterlimit="10" stroke-width="1"/>
            <g id="Grupo_879159" data-name="Grupo 879159" transform="translate(352.367 105.521)" opacity="0.1">
              <g id="Grupo_879158" data-name="Grupo 879158">
                <g id="Grupo_879157" data-name="Grupo 879157" clip-path="url(#clip-path-5)">
                  <rect id="Rectángulo_328671" data-name="Rectángulo 328671" width="67.272" height="13.705" transform="translate(0 0)"/>
                </g>
              </g>
            </g>
            <rect id="Rectángulo_328673" data-name="Rectángulo 328673" width="67.272" height="13.705" transform="translate(434.416 105.52)" fill="none" stroke="#fff" stroke-miterlimit="10" stroke-width="1"/>
            <rect id="Rectángulo_328674" data-name="Rectángulo 328674" width="67.272" height="13.705" transform="translate(516.465 105.52)" fill="none" stroke="#fff" stroke-miterlimit="10" stroke-width="1"/>
            <rect id="Rectángulo_328675" data-name="Rectángulo 328675" width="728.319" height="11.4" transform="translate(86.861 58.89)" fill="#37474f"/>
            <path id="Trazado_628378" data-name="Trazado 628378" d="M69.311,46.381a2.827,2.827,0,1,1-2.828-2.826,2.828,2.828,0,0,1,2.828,2.826" transform="translate(26.611 18.208)" fill="#c7c7c7"/>
            <path id="Trazado_628379" data-name="Trazado 628379" d="M77.452,46.381a2.827,2.827,0,1,1-2.828-2.826,2.828,2.828,0,0,1,2.828,2.826" transform="translate(30.014 18.208)" fill="#fff"/>
            <path id="Trazado_628380" data-name="Trazado 628380" d="M85.593,46.381a2.827,2.827,0,1,1-2.828-2.826,2.828,2.828,0,0,1,2.828,2.826" transform="translate(33.418 18.208)" fill="#ffc727"/>
            <rect id="Rectángulo_328676" data-name="Rectángulo 328676" width="12.513" height="368.728" transform="translate(802.667 130.658)" fill="#dbdbdb"/>
            <path id="Trazado_628381" data-name="Trazado 628381" d="M571.4,219.337h0a3.03,3.03,0,0,1-3.232-2.777V96.439a3.269,3.269,0,0,1,6.463,0V216.561a3.03,3.03,0,0,1-3.232,2.777" transform="translate(237.516 39.154)" fill="#a6a6a6"/>
            <path id="Trazado_628382" data-name="Trazado 628382" d="M82.756,158.732H136.8V104.695H82.756Zm4.081-49.958h45.876v45.876H86.837Z" transform="translate(34.595 43.767)" fill="#ebebeb"/>
            <rect id="Rectángulo_328677" data-name="Rectángulo 328677" width="26.757" height="26.743" transform="translate(354.903 157.553)" fill="#ffb338"/>
            <rect id="Rectángulo_328678" data-name="Rectángulo 328678" width="26.757" height="26.743" transform="translate(588.563 157.553)" fill="#ffb338"/>
            <rect id="Rectángulo_328679" data-name="Rectángulo 328679" width="26.757" height="26.743" transform="translate(115.244 294.41)" fill="#ffb338"/>
            <path id="Trazado_628383" data-name="Trazado 628383" d="M524.518,358.91h54.046V304.873H524.518Zm4.081-49.958h45.876v45.876H528.6Z" transform="translate(219.269 127.449)" fill="#ebebeb"/>
            <rect id="Rectángulo_328680" data-name="Rectángulo 328680" width="93.752" height="17.523" transform="translate(128.622 307.781)" fill="#455a64"/>
            <rect id="Rectángulo_328681" data-name="Rectángulo 328681" width="257.605" height="6.55" transform="translate(128.622 333.951)" fill="#dbdbdb"/>
            <rect id="Rectángulo_328682" data-name="Rectángulo 328682" width="257.605" height="6.55" transform="translate(128.622 348.361)" fill="#dbdbdb"/>
            <rect id="Rectángulo_328683" data-name="Rectángulo 328683" width="257.605" height="6.55" transform="translate(128.622 362.771)" fill="#dbdbdb"/>
            <rect id="Rectángulo_328684" data-name="Rectángulo 328684" width="257.605" height="6.55" transform="translate(128.622 377.181)" fill="#dbdbdb"/>
            <rect id="Rectángulo_328685" data-name="Rectángulo 328685" width="257.605" height="6.55" transform="translate(128.622 391.593)" fill="#dbdbdb"/>
            <rect id="Rectángulo_328686" data-name="Rectángulo 328686" width="93.752" height="17.523" transform="translate(368.28 170.925)" fill="#455a64"/>
            <rect id="Rectángulo_328687" data-name="Rectángulo 328687" width="192.611" height="6.55" transform="translate(368.28 200.531)" fill="#dbdbdb"/>
            <rect id="Rectángulo_328688" data-name="Rectángulo 328688" width="192.611" height="6.55" transform="translate(368.28 214.942)" fill="#dbdbdb"/>
            <rect id="Rectángulo_328689" data-name="Rectángulo 328689" width="192.611" height="6.55" transform="translate(368.28 229.352)" fill="#dbdbdb"/>
            <rect id="Rectángulo_328690" data-name="Rectángulo 328690" width="192.611" height="6.55" transform="translate(368.28 243.762)" fill="#dbdbdb"/>
            <rect id="Rectángulo_328691" data-name="Rectángulo 328691" width="192.611" height="6.55" transform="translate(368.28 262.93)" fill="#dbdbdb"/>
            <rect id="Rectángulo_328692" data-name="Rectángulo 328692" width="192.611" height="6.55" transform="translate(368.28 277.34)" fill="#dbdbdb"/>
            <rect id="Rectángulo_328693" data-name="Rectángulo 328693" width="171.444" height="17.838" transform="translate(601.942 170.925)" fill="#455a64"/>
            <rect id="Rectángulo_328694" data-name="Rectángulo 328694" width="170.528" height="279.677" transform="translate(602.417 188.91)" fill="#fff"/>
            <path id="Trazado_628384" data-name="Trazado 628384" d="M595.966,413.5H424.488v-280.6H595.966Zm-170.528-.927h169.58V133.819H425.438Z" transform="translate(177.453 55.554)" fill="#dbdbdb"/>
            <path id="Trazado_628385" data-name="Trazado 628385" d="M425.394,413.119l-.882-.343L595.041,133.1l.882.343Z" transform="translate(177.463 55.64)" fill="#dbdbdb"/>
            <path id="Trazado_628386" data-name="Trazado 628386" d="M595.041,413.119,424.512,133.442l.882-.343L595.923,412.775Z" transform="translate(177.463 55.64)" fill="#dbdbdb"/>
            <rect id="Rectángulo_328695" data-name="Rectángulo 328695" width="204.322" height="112.346" transform="translate(52.61 171.234)" fill="#fff"/>
            <path id="Trazado_628387" data-name="Trazado 628387" d="M36.884,233.5v-.284l-.04-112.632h.343l204.666-.051.041,112.916h-.343Zm.648-112.346.038,111.777,203.638-.051-.04-111.775Z" transform="translate(15.402 50.388)" fill="#dbdbdb"/>
            <path id="Trazado_628388" data-name="Trazado 628388" d="M37.329,120.973Q63.111,134.531,88.648,148.4l51.041,27.778,50.8,28.083L215.8,218.411,241,232.7l-25.716-13.643-25.606-13.783-51.039-27.779-50.8-28.086q-25.335-14.124-50.519-28.435" transform="translate(15.605 50.571)" fill="#dbdbdb"/>
            <path id="Trazado_628389" data-name="Trazado 628389" d="M241.006,120.973q-25.135,14.373-50.52,28.435l-50.8,28.086L88.651,205.273l-25.6,13.783L37.329,232.7l25.2-14.288,25.312-14.149,50.8-28.083L189.685,148.4q25.586-13.807,51.322-27.428" transform="translate(15.605 50.571)" fill="#dbdbdb"/>
            <rect id="Rectángulo_328696" data-name="Rectángulo 328696" width="416.916" height="79.002" transform="translate(152.615 443.92)" fill="#fff" stroke="#ffb338" stroke-width="1"/>
            <path id="Trazado_628390" data-name="Trazado 628390" d="M525.434,392.339h-418.3V312.9h418.3Zm-1.383-79H108.518V391.9H524.052Z" transform="translate(44.787 130.804)" fill="#ffc727"/>
            <path id="Trazado_628391" data-name="Trazado 628391" d="M524.871,391.91l-.512.408-416.915-79,.51-.408Z" transform="translate(44.916 130.808)" fill="#ffc727" stroke="#ffc727" stroke-width="1"/>
            <path id="Trazado_628392" data-name="Trazado 628392" d="M524.871,313.317,316.635,352.776,107.954,392.319l-.51-.408,416.915-79Z" transform="translate(44.916 130.808)" fill="#ffc727" stroke="#ffc727" stroke-width="1"/>
          </g>
        </g>
        <g id="Grupo_879163" data-name="Grupo 879163">
          <g id="Grupo_879162" data-name="Grupo 879162" clip-path="url(#clip-path)">
            <path id="Trazado_628393" data-name="Trazado 628393" d="M52.478,332.129c9.766-20.075,26.858-30.384,46.12-24.688s22.246,32.555,7.867,39.338-28.758-13.022-36.353-17.092-17.635,2.442-17.635,2.442" transform="translate(21.938 127.871)" fill="#617a0b"/>
            <path id="Trazado_628394" data-name="Trazado 628394" d="M45.839,384.121c.051-2.421.143-4.838.228-7.258.172-4.833.335-9.665.515-14.5.328-8.836,1.279-17.513,4.94-25.659a39.787,39.787,0,0,1,15.493-17.856,32.644,32.644,0,0,1,8.145-3.514,19.032,19.032,0,0,1,9.505-5.221c4.454-1.083,9.033-.845,13.549-.34.162.018.156.275-.007.255a32.594,32.594,0,0,0-12.819.913,27.076,27.076,0,0,0-5.165,2.008,25.035,25.035,0,0,0-2.986,1.895,27.724,27.724,0,0,1,11.771.113,26.494,26.494,0,0,1,4.084,1.35,11.966,11.966,0,0,1,3.21-.274,19.039,19.039,0,0,1,4.172.594,31.557,31.557,0,0,1,7.924,3.461c.142.082.01.3-.135.217a29.514,29.514,0,0,0-7.733-2.914,25.733,25.733,0,0,0-3.975-.583,19.906,19.906,0,0,0-2.215.017A25.541,25.541,0,0,1,106.8,329.241c.067.149-.157.272-.224.122-2.887-6.527-9.049-10.986-15.871-12.723-.425-.109-.859-.166-1.288-.25a18.528,18.528,0,0,1,.2,1.941q.194,1.466.489,2.915a49.4,49.4,0,0,0,1.568,5.875,45.863,45.863,0,0,0,2.334,5.7,27.077,27.077,0,0,0,3.256,5.5.127.127,0,1,1-.2.15c-1.156-1.814-2.5-3.483-3.559-5.367a40.473,40.473,0,0,1-2.612-5.6,38.128,38.128,0,0,1-1.717-6.018q-.317-1.623-.506-3.266a7.635,7.635,0,0,1-.122-1.992,26.349,26.349,0,0,0-6.839-.139c.854,4.787,1.773,9.779,4.455,13.938.089.138-.146.269-.223.123a56.074,56.074,0,0,1-3.31-6.849,25.979,25.979,0,0,1-1.651-7.136,31.608,31.608,0,0,0-11.31,3.793,37.354,37.354,0,0,0-15.055,16.472c-3.617,7.428-5.069,15.42-5.581,23.609-.641,10.261-.774,20.586-1.8,30.817-.067.668-1.126.893-1.255.139a36.076,36.076,0,0,1-.142-6.869" transform="translate(19.123 129.32)" fill="#263238"/>
            <path id="Trazado_628395" data-name="Trazado 628395" d="M61.737,316.835a11.3,11.3,0,0,1,2.219-2.049c.8-.662,1.621-1.3,2.48-1.886a18.48,18.48,0,0,1,5.549-2.574c.159-.043.223.214.062.248a14.716,14.716,0,0,0-5.478,2.691c-.815.6-1.6,1.242-2.362,1.907a14.114,14.114,0,0,1-2.24,1.9.173.173,0,0,1-.23-.241" transform="translate(25.797 129.727)" fill="#263238"/>
            <path id="Trazado_628396" data-name="Trazado 628396" d="M83.775,320.059a58.991,58.991,0,0,1,4.48,5.927,36.013,36.013,0,0,1,3.332,6.605c.026.068-.084.108-.118.045-2.37-4.258-4.748-8.646-7.879-12.4-.1-.126.079-.3.184-.176" transform="translate(34.931 133.779)" fill="#263238"/>
            <path id="Trazado_628397" data-name="Trazado 628397" d="M68.966,318.673a14.425,14.425,0,0,0,1.1,3.633,23.893,23.893,0,0,0,1.859,3.218c.044.067-.06.139-.112.082a13.046,13.046,0,0,1-3.1-6.87c-.026-.162.22-.225.247-.062" transform="translate(28.727 133.178)" fill="#263238"/>
            <path id="Trazado_628398" data-name="Trazado 628398" d="M66.323,328.438S52.494,311.057,25.8,317.219C.432,323.074-11.276,369.6,14.359,375.161s21.116-37.484,30.459-44.79c6.855-5.36,16.714-4.209,21.5-1.933" transform="translate(0 132.057)" fill="#617a0b"/>
            <path id="Trazado_628399" data-name="Trazado 628399" d="M3.67,341.549a52.119,52.119,0,0,1,5.5-4.216,23.951,23.951,0,0,1,5.864-2.927,35.372,35.372,0,0,1,3.48-4.475,34.41,34.41,0,0,1,8.066-6.424c-.265-.016-.529-.045-.794-.054a41.954,41.954,0,0,0-4.244.043,23.739,23.739,0,0,0-8.237,2.052c-.149.067-.26-.167-.108-.231a37.624,37.624,0,0,1,8.225-2.479,23.218,23.218,0,0,1,4.169-.357c.747.007,1.5.057,2.242.13.139.013.284.021.428.034a35.789,35.789,0,0,1,7.694-2.83c-.248-.067-.492-.143-.743-.2a36.928,36.928,0,0,0-3.956-.649,30.985,30.985,0,0,0-7.986.123c-.163.023-.208-.231-.047-.251a50.2,50.2,0,0,1,8.073-.326,33.994,33.994,0,0,1,6.714.869,35.577,35.577,0,0,1,4.868-.556c9.307-.393,19.453,3.087,25.182,10.735,5.749,7.673,6.853,17.872,7.866,27.109a205.937,205.937,0,0,1,1.021,38.8c-.061.764-1.133.625-1.156-.1-.35-10.969-.736-21.941-1.787-32.873-.485-5.061-1.025-10.142-1.868-15.159a44.624,44.624,0,0,0-3.68-12.482,22.836,22.836,0,0,0-9.007-9.687,30.416,30.416,0,0,0-12.762-3.925,34.361,34.361,0,0,0-11.974,1.122,7.887,7.887,0,0,1,.067,2.362,13.193,13.193,0,0,1-.586,2.915,15.2,15.2,0,0,1-1.115,2.589c-.495.917-1.116,1.734-1.668,2.612-.086.139-.311-.018-.207-.146a12.163,12.163,0,0,0,2.069-5.262,21.13,21.13,0,0,0,.319-2.721c.035-.688-.024-1.38.007-2.065A35.278,35.278,0,0,0,21.946,328.8c-.651.519-1.276,1.069-1.887,1.635a12.982,12.982,0,0,1,2.262,2.779,27.363,27.363,0,0,1,2.374,4.227,35.87,35.87,0,0,1,2.469,9.285c.024.163-.228.208-.251.045a26.909,26.909,0,0,0-3.037-8.8,35.458,35.458,0,0,0-2.365-3.91c-.45-.641-.916-1.276-1.4-1.892-.262-.332-.547-.668-.8-1.024a36.793,36.793,0,0,0-7.569,10.661c.017.009.034.009.05.023a18.155,18.155,0,0,1,3.128,4.5,42.164,42.164,0,0,1,2.5,5.342A89.922,89.922,0,0,1,20.6,362.551c.038.159-.22.207-.251.045a45.727,45.727,0,0,0-3.786-10.719q-1.193-2.512-2.527-4.946a45.441,45.441,0,0,1-2.507-4.667,34.246,34.246,0,0,0-3.046,12.364.127.127,0,0,1-.254-.023,43.125,43.125,0,0,1,5.993-18.973c-1.634.695-3.271,1.366-4.841,2.212a27.186,27.186,0,0,0-5.552,3.9c-.121.111-.288-.088-.163-.2" transform="translate(1.516 133.133)" fill="#263238"/>
            <path id="Trazado_628400" data-name="Trazado 628400" d="M17.536,335.469c.8,2.636,1.808,5.194,2.531,7.856a30.228,30.228,0,0,1,1.178,7.849c0,.071-.115.075-.126.006A76.236,76.236,0,0,0,17.3,335.547a.127.127,0,1,1,.241-.078" transform="translate(7.226 140.198)" fill="#263238"/>
            <path id="Trazado_628401" data-name="Trazado 628401" d="M5.546,332a14.809,14.809,0,0,1,3.534-2.525,25.594,25.594,0,0,1,4.092-1.448c.155-.045.208.216.047.251A16.06,16.06,0,0,0,9.282,329.9a29.524,29.524,0,0,0-3.629,2.229A.083.083,0,0,1,5.546,332" transform="translate(2.307 137.127)" fill="#263238"/>
            <path id="Trazado_628402" data-name="Trazado 628402" d="M51.839,321.119s-2.551-31.225-25.767-41.347C6.687,271.32-4.411,293.1,9.293,306.438c11.086,10.786,28.864,5.919,42.545,14.681" transform="translate(1.341 116.163)" fill="#617a0b"/>
            <path id="Trazado_628403" data-name="Trazado 628403" d="M10.574,284.184A97.774,97.774,0,0,1,20.9,289.072a77.123,77.123,0,0,1,8.015,5.32c-.386-.79-.72-1.615-1.109-2.387-.607-1.207-1.255-2.387-1.972-3.531A33.047,33.047,0,0,0,20.718,282c-.118-.113.069-.294.186-.176a51.1,51.1,0,0,1,5.381,6.266,37.235,37.235,0,0,1,2.206,3.532,14.088,14.088,0,0,1,1.56,3.6c.084.065.173.121.257.186A76.308,76.308,0,0,1,41.4,306.257c-.065-.308-.129-.614-.208-.895q-.653-2.287-1.408-4.538a38.663,38.663,0,0,0-4.193-9.107c-.089-.136.138-.265.223-.123a72.651,72.651,0,0,1,4.86,8.881,33.783,33.783,0,0,1,1.6,4.616,19.632,19.632,0,0,1,.754,3.137c1.012,1.279,2.007,2.574,2.944,3.908,9.965,14.186,14.969,31.349,16.168,48.517a149.249,149.249,0,0,1,.258,15.383,96.159,96.159,0,0,1-1.36,15.437c-.064.323-.569.227-.562-.089.116-4.511.583-9,.671-13.52s-.072-9.05-.437-13.556a126.059,126.059,0,0,0-5.062-26.57,95.123,95.123,0,0,0-11.805-24.979c-.977-.194-1.947-.459-2.908-.706-1.16-.3-2.32-.6-3.473-.919a34.737,34.737,0,0,1-6.473-2.372c-.145-.074-.009-.3.135-.217a20.907,20.907,0,0,0,6.564,2.265c1.817.362,3.7.6,5.523,1.015a87.482,87.482,0,0,0-5.4-7.094,40.357,40.357,0,0,1-13.208-.986,53.428,53.428,0,0,1-6.76-2.106c-2.326-.895-4.526-2.046-6.821-3.006-.172-.071-.052-.325.1-.23,3.938,2.391,8.885,3.616,13.389,4.382A82.751,82.751,0,0,0,37.04,303.82c-1.649-1.892-3.352-3.735-5.17-5.467-6.1-5.807-13.341-11.144-21.37-13.925-.157-.054-.075-.308.074-.244" transform="translate(4.354 117.799)" fill="#263238"/>
            <path id="Trazado_628404" data-name="Trazado 628404" d="M23.912,283.558a35.093,35.093,0,0,1,2.846,4.163,22.724,22.724,0,0,1,2.048,4.841.051.051,0,0,1-.094.037c-.774-1.531-1.428-3.12-2.212-4.644a23.214,23.214,0,0,0-2.772-4.221c-.1-.126.084-.3.184-.176" transform="translate(9.906 118.52)" fill="#263238"/>
            <path id="Trazado_628405" data-name="Trazado 628405" d="M8.685,290.881a24.057,24.057,0,0,0,4.759,1.987,43.881,43.881,0,0,0,4.847,1.3c.077.014.057.146-.023.136a23.5,23.5,0,0,1-5.018-1.1,42.123,42.123,0,0,1-4.7-2.109c-.145-.071-.01-.3.136-.217" transform="translate(3.548 121.592)" fill="#263238"/>
            <path id="Trazado_628406" data-name="Trazado 628406" d="M50.452,327.84c.146,1.349,3.512-11.336,23.14-22.6,17.826-10.228,39.1-36.831,21.624-53.636C81.108,238.041,43.94,267.613,50.452,327.84" transform="translate(20.774 103.823)" fill="#617a0b"/>
            <path id="Trazado_628407" data-name="Trazado 628407" d="M40.729,397.507a347.8,347.8,0,0,1,3.114-39.467,177.66,177.66,0,0,1,8.293-35.325c1.462-4.128,3.13-8.189,4.94-12.188a27.992,27.992,0,0,1,.081-4.671c.1-2,.277-3.993.461-5.986s.386-3.986.624-5.973.658-3.971.74-5.953a.127.127,0,1,1,.25.04,42.076,42.076,0,0,0-.7,6.319c-.149,1.926-.259,3.851-.319,5.781s-.05,3.864-.051,5.8c0,.7.037,1.436.062,2.181,1.846-3.9,3.826-7.741,5.967-11.482-1.33-8.138.4-16.645,2.059-24.6.034-.16.278-.085.244.074a69.339,69.339,0,0,0-1.295,12.613c-.075,3.342.082,6.685.094,10.024.472-.8.94-1.6,1.425-2.394,2.544-4.158,5.264-8.23,8.152-12.182a19.055,19.055,0,0,1,.19-5.8,44.915,44.915,0,0,1,1.424-6.34q.938-3.12,2.172-6.127c.849-2.065,1.982-4.017,2.8-6.088.069-.173.326-.054.231.1a29.909,29.909,0,0,0-2.457,6.157,55.791,55.791,0,0,0-1.605,6.106c-.415,2.068-.756,4.138-1.045,6.225-.191,1.381-.313,2.812-.552,4.209a150.313,150.313,0,0,1,13.744-16c.118-.118.282.064.176.186A180.813,180.813,0,0,0,69.988,289.9c-.216.362-.42.729-.631,1.093,1.081-.679,2.321-1.217,3.339-1.782q2.852-1.585,5.723-3.142,2.789-1.5,5.562-3.043c.951-.528,1.89-1.078,2.859-1.573a23.078,23.078,0,0,0,3.327-1.843c.149-.112.309.116.149.2-1.889,1.039-3.559,2.582-5.383,3.746-1.839,1.173-3.7,2.3-5.6,3.361-3.49,1.947-7.28,3.347-10.715,5.36-2.384,4.17-4.577,8.451-6.605,12.809q3.129-2.006,6.376-3.817c1.391-.78,2.785-1.547,4.2-2.289a20.617,20.617,0,0,0,3.953-2.389.127.127,0,0,1,.176.184,37.132,37.132,0,0,1-7.541,5.248c-2.521,1.473-5.071,2.9-7.691,4.182q-3.15,6.9-5.682,14.046c-8.26,23.395-11.3,48.228-12.747,72.891-.433,7.355-.655,14.7-.747,22.068s.3,14.7.282,22.049c0,.217-.359.268-.389.044-.882-6.52-1.038-13.152-1.323-19.719-.289-6.68-.294-13.4-.145-20.081" transform="translate(16.986 106.884)" fill="#263238"/>
            <path id="Trazado_628408" data-name="Trazado 628408" d="M65.869,284.458a94.227,94.227,0,0,0,10.43-5.394,110.122,110.122,0,0,0,9.905-6.288c.052-.037.118.051.067.092a83.28,83.28,0,0,1-9.511,6.651,94.96,94.96,0,0,1-10.767,5.162c-.15.067-.274-.16-.123-.223" transform="translate(27.507 114.028)" fill="#263238"/>
            <path id="Trazado_628409" data-name="Trazado 628409" d="M62.247,264.134c.289-1.142.651-2.263,1.035-3.376a.1.1,0,0,1-.05-.129c.247-.634.508-1.261.766-1.889.031-.085.062-.166.092-.227.05-.119.1-.24.147-.36.014-.04.078-.023.062.02-.069.216-.122.434-.19.651a3.575,3.575,0,0,1-.108.36A92.882,92.882,0,0,0,61.1,272.512c-.024.14-.241.145-.231-.006a44.785,44.785,0,0,1,1.383-8.372" transform="translate(25.443 107.908)" fill="#263238"/>
            <path id="Trazado_628410" data-name="Trazado 628410" d="M26.076,359.042l1.4,16.6,4.287,50.633H77.691l4.288-50.633,1.4-16.6Z" transform="translate(10.901 150.093)" fill="#455a64"/>
            <path id="Trazado_628411" data-name="Trazado 628411" d="M26.076,359.042l1.4,16.6h54.5l1.4-16.6Z" transform="translate(10.901 150.093)" fill="#263238"/>
            <rect id="Rectángulo_328698" data-name="Rectángulo 328698" width="66.317" height="15.927" transform="translate(32.469 502.472)" fill="#455a64"/>
          </g>
        </g>
        <rect id="Rectángulo_328700" data-name="Rectángulo 328700" width="137.714" height="87.738" transform="translate(416.718 310.863)" fill="#ffb338"/>
        <path id="Trazado_628412" data-name="Trazado 628412" d="M288.235,285.047v2.127h2.127" transform="translate(120.494 119.161)" fill="none" stroke="#263238" stroke-miterlimit="10" stroke-width="0.5"/>
        <line id="Línea_2538" data-name="Línea 2538" x2="143.033" transform="translate(415.126 406.334)" fill="none" stroke="#263238" stroke-miterlimit="10" stroke-width="0.5" stroke-dasharray="3.011 3.011"/>
        <path id="Trazado_628413" data-name="Trazado 628413" d="M395.118,287.174h2.127v-2.127" transform="translate(165.175 119.161)" fill="none" stroke="#263238" stroke-miterlimit="10" stroke-width="0.5"/>
        <line id="Línea_2539" data-name="Línea 2539" y1="92.499" transform="translate(562.42 307.406)" fill="none" stroke="#263238" stroke-miterlimit="10" stroke-width="0.5" stroke-dasharray="3.034 3.034"/>
        <path id="Trazado_628414" data-name="Trazado 628414" d="M397.245,215.893v-2.127h-2.127" transform="translate(165.175 89.362)" fill="none" stroke="#263238" stroke-miterlimit="10" stroke-width="0.5"/>
        <line id="Línea_2540" data-name="Línea 2540" x1="143.033" transform="translate(412.99 303.128)" fill="none" stroke="#263238" stroke-miterlimit="10" stroke-width="0.5" stroke-dasharray="3.011 3.011"/>
        <path id="Trazado_628415" data-name="Trazado 628415" d="M290.362,213.766h-2.127v2.127" transform="translate(120.494 89.362)" fill="none" stroke="#263238" stroke-miterlimit="10" stroke-width="0.5"/>
        <line id="Línea_2541" data-name="Línea 2541" y2="92.499" transform="translate(408.729 309.558)" fill="none" stroke="#263238" stroke-miterlimit="10" stroke-width="0.5" stroke-dasharray="3.034 3.034"/>
        <g id="Grupo_879168" data-name="Grupo 879168">
          <g id="Grupo_879167" data-name="Grupo 879167" clip-path="url(#clip-path)">
            <g id="Grupo_879166" data-name="Grupo 879166" transform="translate(462.15 341.511)" opacity="0.1">
              <g id="Grupo_879165" data-name="Grupo 879165">
                <g id="Grupo_879164" data-name="Grupo 879164" clip-path="url(#clip-path-8)">
                  <path id="Trazado_628416" data-name="Trazado 628416" d="M325.908,279.027H418.19l-46.142-38.193Z" transform="translate(-325.908 -240.833)"/>
                </g>
              </g>
            </g>
          </g>
        </g>
        <path id="Trazado_628417" data-name="Trazado 628417" d="M293.869,275.124h81.836l-40.919-24.871Z" transform="translate(122.849 104.615)" fill="#ffc727"/>
        <g id="Grupo_879173" data-name="Grupo 879173">
          <g id="Grupo_879172" data-name="Grupo 879172" clip-path="url(#clip-path)">
            <g id="Grupo_879171" data-name="Grupo 879171" transform="translate(416.718 354.867)" opacity="0.2">
              <g id="Grupo_879170" data-name="Grupo 879170">
                <g id="Grupo_879169" data-name="Grupo 879169" clip-path="url(#clip-path-10)">
                  <path id="Trazado_628418" data-name="Trazado 628418" d="M293.869,275.124h81.836l-40.919-24.871Z" transform="translate(-293.869 -250.252)"/>
                </g>
              </g>
            </g>
          </g>
        </g>
        <rect id="Rectángulo_328705" data-name="Rectángulo 328705" width="137.714" height="18.904" transform="translate(416.718 379.697)" fill="#ffc727"/>
        <g id="Grupo_879181" data-name="Grupo 879181">
          <g id="Grupo_879180" data-name="Grupo 879180" clip-path="url(#clip-path)">
            <g id="Grupo_879176" data-name="Grupo 879176" transform="translate(416.718 379.697)" opacity="0.2">
              <g id="Grupo_879175" data-name="Grupo 879175">
                <g id="Grupo_879174" data-name="Grupo 879174" clip-path="url(#clip-path-12)">
                  <rect id="Rectángulo_328706" data-name="Rectángulo 328706" width="137.714" height="18.904"/>
                </g>
              </g>
            </g>
            <g id="Grupo_879179" data-name="Grupo 879179" transform="translate(428.575 322.154)" opacity="0.1">
              <g id="Grupo_879178" data-name="Grupo 879178">
                <g id="Grupo_879177" data-name="Grupo 879177" clip-path="url(#clip-path-13)">
                  <path id="Trazado_628419" data-name="Trazado 628419" d="M327.634,239.884a12.7,12.7,0,1,1-12.7-12.7,12.7,12.7,0,0,1,12.7,12.7" transform="translate(-302.231 -227.183)"/>
                </g>
              </g>
            </g>
          </g>
        </g>
        <rect id="Rectángulo_328710" data-name="Rectángulo 328710" width="8.953" height="8.953" transform="translate(404.252 298.652)" fill="#263238"/>
        <rect id="Rectángulo_328711" data-name="Rectángulo 328711" width="8.953" height="8.954" transform="translate(404.252 401.857)" fill="#263238"/>
        <rect id="Rectángulo_328712" data-name="Rectángulo 328712" width="6.391" height="6.391" transform="translate(405.534 351.536)" fill="#263238"/>
        <rect id="Rectángulo_328713" data-name="Rectángulo 328713" width="6.391" height="6.391" transform="translate(482.38 299.934)" fill="#263238"/>
        <rect id="Rectángulo_328714" data-name="Rectángulo 328714" width="6.391" height="6.391" transform="translate(482.38 403.139)" fill="#263238"/>
        <rect id="Rectángulo_328715" data-name="Rectángulo 328715" width="6.393" height="6.391" transform="translate(559.224 351.536)" fill="#263238"/>
        <rect id="Rectángulo_328716" data-name="Rectángulo 328716" width="8.953" height="8.953" transform="translate(557.943 298.652)" fill="#263238"/>
        <rect id="Rectángulo_328717" data-name="Rectángulo 328717" width="8.953" height="8.954" transform="translate(557.943 401.857)" fill="#263238"/>
        <path id="Trazado_628420" data-name="Trazado 628420" d="M414.182,319.987l6.7,16.176-6.69,2.768-6.734-16.283L396.4,331.225V285.657l31.9,32.225Z" transform="translate(165.711 119.416)" fill="#263238"/>
        <g id="Grupo_879183" data-name="Grupo 879183">
          <g id="Grupo_879182" data-name="Grupo 879182" clip-path="url(#clip-path)">
            <path id="Trazado_628421" data-name="Trazado 628421" d="M396.89,283.165a6.619,6.619,0,0,1,0-6.044,6.623,6.623,0,0,1,0,6.044" transform="translate(165.61 115.847)" fill="#263238"/>
            <path id="Trazado_628422" data-name="Trazado 628422" d="M394.265,284.164a6.622,6.622,0,0,1-4.274-4.274,6.622,6.622,0,0,1,4.274,4.274" transform="translate(163.031 117.005)" fill="#263238"/>
            <path id="Trazado_628423" data-name="Trazado 628423" d="M393.266,286.789a6.619,6.619,0,0,1-6.044,0,6.619,6.619,0,0,1,6.044,0" transform="translate(161.874 119.584)" fill="#263238"/>
            <path id="Trazado_628424" data-name="Trazado 628424" d="M394.265,290.245a6.622,6.622,0,0,1-4.274,4.274,6.622,6.622,0,0,1,4.274-4.274" transform="translate(163.031 121.334)" fill="#263238"/>
            <path id="Trazado_628425" data-name="Trazado 628425" d="M401.866,286.789a6.619,6.619,0,0,1,6.044,0,6.618,6.618,0,0,1-6.044,0" transform="translate(167.996 119.584)" fill="#263238"/>
            <path id="Trazado_628426" data-name="Trazado 628426" d="M400.345,284.164a6.622,6.622,0,0,1,4.274-4.274,6.619,6.619,0,0,1-4.274,4.274" transform="translate(167.36 117.005)" fill="#263238"/>
          </g>
        </g>
        <rect id="Rectángulo_328719" data-name="Rectángulo 328719" width="85.516" height="17.714" transform="translate(825.07 350.719)" fill="#ffc727"/>
        <path id="Trazado_628427" data-name="Trazado 628427" d="M594.752,259.715l-1.9,22.633L569.524,468.624h8.456l29.56-186.275,2.4-22.633Z" transform="translate(238.083 108.571)" fill="#727997"/>
        <path id="Trazado_628428" data-name="Trazado 628428" d="M625.96,259.715l2.4,22.633,29.559,186.275h8.47L643.042,282.348l-1.9-22.633Z" transform="translate(261.676 108.571)" fill="#727997"/>
        <rect id="Rectángulo_328720" data-name="Rectángulo 328720" width="94.327" height="5.316" transform="translate(819.458 518.373)" fill="#727997"/>
        <g id="Grupo_879203" data-name="Grupo 879203">
          <g id="Grupo_879202" data-name="Grupo 879202" clip-path="url(#clip-path)">
            <g id="Grupo_879186" data-name="Grupo 879186" transform="translate(830.938 368.286)" opacity="0.1">
              <g id="Grupo_879185" data-name="Grupo 879185">
                <g id="Grupo_879184" data-name="Grupo 879184" clip-path="url(#clip-path-16)">
                  <path id="Trazado_628429" data-name="Trazado 628429" d="M585.977,281.546h14.684l2.4-21.831H587.875Z" transform="translate(-585.977 -259.715)"/>
                </g>
              </g>
            </g>
            <g id="Grupo_879189" data-name="Grupo 879189" transform="translate(887.634 368.286)" opacity="0.1">
              <g id="Grupo_879188" data-name="Grupo 879188">
                <g id="Grupo_879187" data-name="Grupo 879187" clip-path="url(#clip-path-17)">
                  <path id="Trazado_628430" data-name="Trazado 628430" d="M643.041,281.546H628.358l-2.4-21.831h15.184Z" transform="translate(-625.959 -259.715)"/>
                </g>
              </g>
            </g>
            <path id="Trazado_628431" data-name="Trazado 628431" d="M518.071,289.319c.934-2.829,51.028-69.016,54.45-70.291.391-.169,22.784,15.767,22.784,15.767.923,1.234,43.489-7.761,43.489-7.761l.424,51.347-77.537-1.649s-10.472,6.157-20.052,11.173c-.016,0-.023.013-.033.006-5.895,3.107-11.113,5.725-12.6,6.113-3.878.994-11.875-1.89-10.922-4.705" transform="translate(216.541 91.562)" fill="#f7a9a0"/>
            <path id="Trazado_628432" data-name="Trazado 628432" d="M528.991,294.022c1.495-.383,6.707-3,12.6-6.115.013.013.026,0,.037,0,9.573-5.016,20.048-11.178,20.048-11.178l17.258.37,27.015-43.593c-5.929,1.051-10.352,1.68-10.648,1.285,0,0-22.382-15.935-22.778-15.762-3.422,1.272-53.511,67.458-54.45,70.287s7.041,5.708,10.919,4.706" transform="translate(216.542 91.562)" fill="#fff"/>
            <path id="Trazado_628433" data-name="Trazado 628433" d="M517.749,289.409c.986-2.9,51.3-69.049,54.819-70.359,1.329-.5,12.283,6.262,22.873,15.747l-32.493,42.609s-29.977,15.879-33.985,16.9-12.2-2-11.214-4.9" transform="translate(216.405 91.56)" fill="#a6a6a6"/>
            <path id="Trazado_628434" data-name="Trazado 628434" d="M520.175,289.193c8.707-10.881,42.8-55.593,50.58-67.011.064-.092,0-.139-.07-.052-8.865,10.6-42.595,55.583-50.692,66.926-.172.24,0,.367.182.138" transform="translate(217.348 92.84)" fill="#263238"/>
            <path id="Trazado_628435" data-name="Trazado 628435" d="M530.13,275.015a11.194,11.194,0,0,0,2.338-8.694,10.838,10.838,0,0,0-4.036-6.981c-.067-.048-.162.072-.1.135a12.932,12.932,0,0,1,1.659,15.435.087.087,0,0,0,.139.1" transform="translate(220.855 108.41)" fill="#263238"/>
            <path id="Trazado_628436" data-name="Trazado 628436" d="M547.135,266.878c3.437-4.392,5.786-10.729,4.254-16.248-.06-.214-.363-.126-.4.057a77.184,77.184,0,0,1-4.463,15.852.35.35,0,0,0,.6.339" transform="translate(228.46 104.721)" fill="#263238"/>
            <path id="Trazado_628437" data-name="Trazado 628437" d="M544.355,268.578c3.437-4.392,5.786-10.729,4.254-16.248-.06-.214-.363-.126-.394.057a77.165,77.165,0,0,1-4.464,15.852.35.35,0,0,0,.6.339" transform="translate(227.298 105.431)" fill="#263238"/>
            <path id="Trazado_628438" data-name="Trazado 628438" d="M541.575,270.278c3.437-4.392,5.786-10.729,4.254-16.248-.06-.214-.363-.126-.4.057a77.1,77.1,0,0,1-4.463,15.852.35.35,0,0,0,.6.339" transform="translate(226.136 106.142)" fill="#263238"/>
            <path id="Trazado_628439" data-name="Trazado 628439" d="M538.8,271.977c3.437-4.392,5.786-10.729,4.253-16.248-.058-.214-.362-.126-.394.057a77.1,77.1,0,0,1-4.464,15.852.351.351,0,0,0,.605.339" transform="translate(224.973 106.852)" fill="#263238"/>
            <path id="Trazado_628440" data-name="Trazado 628440" d="M564.266,232.085c3.773-4.99-3.976-10.864-7.755-5.864s3.975,10.862,7.755,5.864" transform="translate(232.221 93.774)" fill="#263238"/>
            <path id="Trazado_628441" data-name="Trazado 628441" d="M554.769,277.861c3.572-.83,3.9-5.044,3.023-7.9a29.24,29.24,0,0,0-8.281-12.664.145.145,0,0,0-.231.043.679.679,0,0,0-.966.523c-.218,4.823-1.049,9.953.218,14.7.742,2.769,2.859,6.085,6.237,5.3m-5.291-12.621c.05-2.374.216-4.732.177-7.107a87.882,87.882,0,0,1,4.674,7.5,31.338,31.338,0,0,1,1.76,3.9c.733,2.08,1.129,9.257-4.036,6.025-2.847-1.781-2.635-7.49-2.575-10.321" transform="translate(229.021 107.542)" fill="#263238"/>
            <path id="Trazado_628442" data-name="Trazado 628442" d="M556.085,249.36c-3.532,3.413-5.465,8.236-7.764,12.482a.68.68,0,0,0,.556.947.147.147,0,0,0,.177.156,29.256,29.256,0,0,0,13.626-6.584c2.228-2,4.115-5.777,1.482-8.33-2.49-2.414-6.014-.662-8.077,1.329m4.565-.757c6.092-.106,2.052,5.839.353,7.245a31.88,31.88,0,0,1-3.518,2.433,87.671,87.671,0,0,1-7.874,4.02c1.258-2.016,2.331-4.122,3.512-6.183,1.408-2.456,4.169-7.457,7.527-7.516" transform="translate(229.189 103.197)" fill="#263238"/>
            <path id="Trazado_628443" data-name="Trazado 628443" d="M622.576,217.145h34.8s36.4-17.5,65.725-10.45c33.615,8.083,37.913,50.3,12.786,65.234-31.836,18.915-173.5,15.252-173.5,15.252l30.625-51.906s47.109-9.916,89.828-8.478l-60.271,8.216Z" transform="translate(235.102 85.707)" fill="#37474f"/>
            <path id="Trazado_628444" data-name="Trazado 628444" d="M582.557,233.177a1.1,1.1,0,0,0,.064-.265c.018-.072.036-.145.054-.217.041-.169.086-.336.133-.5a10.227,10.227,0,0,1,.356-1.015c.132-.336.276-.662.43-.99a7.959,7.959,0,0,1,.573-.916c.021-.033.055-.037.082-.058a.456.456,0,0,1,.054-.037.276.276,0,0,1,.077-.033.427.427,0,0,1,.078-.031c5.18-.964,40.383-6,45.617-6.6,5.278-.6,10.57-1.093,15.862-1.537a315.45,315.45,0,0,1,31.768-1.144c.994.018,1.985.058,2.978.092.21-.069.435-.108.652-.16.508-.122,1.014-.248,1.527-.347.956-.183,1.92-.323,2.881-.471,2.005-.306,4.016-.519,6.01-.892.122-.023.169.16.047.187-2.005.445-3.976,1.025-5.983,1.463-.578.126-1.157.251-1.737.367,3.885.2,7.764.5,11.642.855.12.011.125.2,0,.193-5.276-.309-10.593-.349-15.876-.259-5.248.089-10.492.2-15.733.5-10.6.607-21.19,1.557-31.747,2.663-5.925.62-41.817,5.858-47.768,6.106a.384.384,0,0,1-.072-.011,3.542,3.542,0,0,1-.165.407c-.163.323-.327.642-.5.959s-.338.605-.53.9c-.1.145-.193.289-.292.431l-.149.214a1.192,1.192,0,0,0-.155.224.1.1,0,1,1-.174-.078" transform="translate(243.525 91.155)" fill="#263238"/>
            <path id="Trazado_628445" data-name="Trazado 628445" d="M570.189,274.765c1.9-3.033,3.513-6.269,5.248-9.4s3.483-6.275,5.23-9.409c3.484-6.252,15.99-27.279,17.226-28.751.078-.094.238.013.2.122-.589,1.626-8.395,15.55-10.191,18.654-3.595,6.208-7.37,12.294-11.092,18.425-1.064,1.751-2.164,3.478-3.242,5.22s-2.224,3.45-3.213,5.238c-.061.108-.231,0-.164-.1" transform="translate(238.355 94.967)" fill="#263238"/>
            <path id="Trazado_628446" data-name="Trazado 628446" d="M589.995,234.958c3.125-.75,6.327-1.238,9.485-1.836s6.333-1.194,9.5-1.782q9.506-1.763,19.039-3.375c12.676-2.133,25.406-3.905,38.2-5.132,7.224-.692,14.465-1.149,21.7-1.68.152-.01.149.234-.007.241-12.89.58-25.762,2.327-38.524,4.16q-18.961,2.723-37.84,5.935-5.333.9-10.661,1.824c-3.606.625-7.215,1.4-10.845,1.856-.135.017-.192-.176-.052-.21" transform="translate(246.607 92.45)" fill="#263238"/>
            <path id="Trazado_628447" data-name="Trazado 628447" d="M565.518,421.118c3.05-.3,78.941-34.414,81.013-37.545.793-1.183-3.531-12.524-9.144-26.082-1.212-2.928-2.482-5.943-3.788-9-8.456-19.848-17.893-40.711-17.893-40.711l-50.831,22.672,19.291,40.085,4.227,8.8s-23.215,26.056-25.119,29.732c-1.887,3.67-.807,12.35,2.243,12.045" transform="translate(235.08 128.665)" fill="#f7a9a0"/>
            <path id="Trazado_628448" data-name="Trazado 628448" d="M565.518,409.116c3.05-.3,78.941-34.414,81.013-37.545.959-1.445-5.621-17.889-12.931-35.081l-49.433,22.046,4.227,8.8s-23.215,26.056-25.119,29.732c-1.887,3.67-.807,12.35,2.243,12.045" transform="translate(235.08 140.666)" fill="#fff"/>
            <path id="Trazado_628449" data-name="Trazado 628449" d="M565.518,406.463c3.05-.3,78.941-34.414,81.013-37.545.793-1.183-3.531-12.524-9.144-26.082l-48.993,21.851s-23.215,26.056-25.119,29.732c-1.887,3.67-.807,12.35,2.243,12.045" transform="translate(235.08 143.319)" fill="#a6a6a6"/>
            <path id="Trazado_628450" data-name="Trazado 628450" d="M564.434,395.3c12.581-6.031,63.894-29.165,76.788-34.171.1-.04.138.03.037.081-12.34,6.249-63.839,28.968-76.732,34.3-.272.112-.359-.081-.094-.208" transform="translate(235.889 150.96)" fill="#263238"/>
            <path id="Trazado_628451" data-name="Trazado 628451" d="M565.592,376.067a11.2,11.2,0,0,1,9.007-.313,10.85,10.85,0,0,1,5.895,5.513c.033.077-.106.142-.153.068a12.95,12.95,0,0,0-14.678-5.109.087.087,0,0,1-.071-.159" transform="translate(236.419 156.747)" fill="#263238"/>
            <path id="Trazado_628452" data-name="Trazado 628452" d="M577.695,361.344c5.061-2.36,11.771-3.216,16.807-.474.2.106.041.383-.145.372a77.152,77.152,0,0,0-16.468.769.351.351,0,0,1-.194-.667" transform="translate(241.414 150.144)" fill="#263238"/>
            <path id="Trazado_628453" data-name="Trazado 628453" d="M575.408,363.671c5.061-2.36,11.771-3.216,16.808-.474.194.106.041.383-.146.372a77.148,77.148,0,0,0-16.468.769.351.351,0,0,1-.194-.666" transform="translate(240.458 151.117)" fill="#263238"/>
            <path id="Trazado_628454" data-name="Trazado 628454" d="M573.122,366c5.06-2.36,11.771-3.216,16.807-.474.2.106.041.383-.145.373a77.057,77.057,0,0,0-16.468.767.351.351,0,0,1-.194-.667" transform="translate(239.502 152.089)" fill="#263238"/>
            <path id="Trazado_628455" data-name="Trazado 628455" d="M570.836,368.324c5.06-2.36,11.771-3.216,16.807-.474.2.106.043.383-.145.372a77.143,77.143,0,0,0-16.468.769.351.351,0,0,1-.194-.667" transform="translate(238.547 153.062)" fill="#263238"/>
            <path id="Trazado_628456" data-name="Trazado 628456" d="M613.246,353.763c5.72-2.551,9.7,6.334,3.965,8.89s-9.7-6.334-3.965-8.89" transform="translate(255.194 147.697)" fill="#263238"/>
            <path id="Trazado_628457" data-name="Trazado 628457" d="M573.338,360.848c4.342,2.31,9.531,2.66,14.284,3.538.492.092.786-.408.73-.823a.146.146,0,0,0,.094-.217,29.289,29.289,0,0,0-10.479-10.94c-2.587-1.506-6.773-2.136-8.389,1.161-1.529,3.117,1.227,5.932,3.761,7.28m-2.131-4.112c-1.984-5.767,4.926-3.758,6.79-2.574a31.506,31.506,0,0,1,3.4,2.6,87.738,87.738,0,0,1,6.261,6.255c-2.309-.574-4.644-.946-6.971-1.435-2.774-.583-8.389-1.666-9.482-4.845" transform="translate(237.922 146.807)" fill="#263238"/>
            <path id="Trazado_628458" data-name="Trazado 628458" d="M599.775,352.343c-1.893-3.145-6.01-2.16-8.459-.438a29.285,29.285,0,0,0-9.5,11.8.146.146,0,0,0,.112.208c-.02.417.315.889.8.757,4.66-1.282,9.8-2.076,13.927-4.749,2.409-1.561,4.913-4.6,3.124-7.577m-10.384,8.936c-2.276.686-4.572,1.256-6.824,2.026a87.923,87.923,0,0,1,5.7-6.768,31.583,31.583,0,0,1,3.169-2.88c1.754-1.34,8.467-3.935,6.985,1.981-.817,3.263-6.319,4.823-9.033,5.641" transform="translate(243.215 146.436)" fill="#263238"/>
            <path id="Trazado_628459" data-name="Trazado 628459" d="M649.233,386.475l-57.168,25.851s-68.047-130.607-69.826-170.584c-1.513-34.024,22.174-47.155,98.742-25.147l18.759.237v12.942c-8.236,1.088-30.2,4.536-30.2,4.536-15.983,6.028-21.129,8.522-20.871,9.043,39.853,80.481,60.563,143.123,60.563,143.123" transform="translate(218.288 86.02)" fill="#37474f"/>
            <path id="Trazado_628460" data-name="Trazado 628460" d="M562.523,222.658c2.309,3.074,4.443,6.278,6.486,9.542,12.282-5.459,25.649-8.625,38.952-10.264q5.647-.7,11.333-1.01c.155-.008.148.231-.006.241a170.865,170.865,0,0,0-39.636,7.545c-3.562,1.095-7.053,2.367-10.56,3.617,2.453,3.929,4.765,7.951,6.987,12a239.856,239.856,0,0,1,11.18,23.335c1.835,4.416,3.624,8.86,5.2,13.374.044.128-.167.211-.223.088q-10.474-23.359-22.873-45.723c-2.334-4.209-4.766-8.359-7.046-12.6-.065-.122.113-.267.2-.149" transform="translate(235.066 92.356)" fill="#263238"/>
            <path id="Trazado_628461" data-name="Trazado 628461" d="M570.6,348.035c3.334-1.3,6.565-2.923,9.827-4.39s6.544-2.944,9.82-4.409c6.533-2.925,29.135-12.29,31.005-12.731.118-.027.183.153.087.217-1.445.951-16.031,7.436-19.328,8.849-6.594,2.825-13.26,5.442-19.912,8.127-1.9.767-3.813,1.493-5.719,2.243s-3.846,1.435-5.709,2.275c-.113.051-.187-.135-.071-.18" transform="translate(238.507 136.491)" fill="#263238"/>
            <path id="Trazado_628462" data-name="Trazado 628462" d="M562.752,226.337c4.512,8.572,8.352,17.54,12.272,26.394q5.856,13.23,11.38,26.6,11,26.627,20.5,53.843c3.592,10.261,6.951,20.6,10.224,30.963.047.149-.186.2-.234.058-6.058-18.324-12.616-36.492-19.468-54.535q-10.257-27-21.777-53.5-3.235-7.438-6.576-14.833c-2.226-4.929-4.543-9.831-6.628-14.823-.084-.2.2-.372.306-.169" transform="translate(235.118 94.579)" fill="#263238"/>
            <path id="Trazado_628463" data-name="Trazado 628463" d="M603.483,152.376c-25.567,19.739-48.839,42.328-51.577,55.6-1.724,8.352,4.677,21.774,9.356,29.7,2.277,3.86,38.385-19.264,34.528-22.106-9.545-7.034-11.432-10.207-10.883-12.075.35-1.2,26.387-33.551,32.87-47.191,9.032-19-3.108-12.57-14.294-3.934" transform="translate(230.598 60.18)" fill="#f7a9a0"/>
            <path id="Trazado_628464" data-name="Trazado 628464" d="M562.254,181.907l24.3,16.527s22.828-28.939,28.328-43.453-.537-14.678-14.877-4.4-37.747,31.322-37.747,31.322" transform="translate(235.044 59.949)" fill="#ffc727"/>
            <path id="Trazado_628465" data-name="Trazado 628465" d="M562.254,181.907l24.3,16.527s22.828-28.939,28.328-43.453-.537-14.678-14.877-4.4-37.747,31.322-37.747,31.322" transform="translate(235.044 59.949)" fill="#2b95f9"/>
            <g id="Grupo_879192" data-name="Grupo 879192" transform="translate(807.433 211.71)" opacity="0.1">
              <g id="Grupo_879191" data-name="Grupo 879191">
                <g id="Grupo_879190" data-name="Grupo 879190" clip-path="url(#clip-path-18)">
                  <path id="Trazado_628466" data-name="Trazado 628466" d="M602.044,156.546l-2.638-.681.652-2.638a.518.518,0,0,0-.369-.624.527.527,0,0,0-.624.383l-.78,3.134c0,.028-.014.057,0,.071a.044.044,0,0,0-.014.028v.1c.014.028.014.043.028.057s-.014.028,0,.043.014.028.028.043.014.028.014.043.028.028.028.043.014.028.028.043.028,0,.042.028c.014,0,.014.028.028.028a.052.052,0,0,0,.043.014c.014.028.028.028.057.043h.028c.014.028.028.028.057.028l3.134.808a.553.553,0,0,0,.4-.057.582.582,0,0,0,.227-.312.512.512,0,0,0-.369-.624m2.056-6.012a.445.445,0,0,0-.5-.381.459.459,0,0,0-.383.509l.723,5.048a.436.436,0,0,0,.5.383.508.508,0,0,0,.156-.057.441.441,0,0,0,.213-.44Zm4.609,0a.273.273,0,0,1-.014-.07v-.016c-.014-.027-.014-.043-.028-.057a.051.051,0,0,1-.014-.043.029.029,0,0,1-.028-.027c-.014-.016-.028-.028-.028-.043l-.028-.03c-.028-.013-.028-.028-.057-.043,0-.013,0-.013-.014-.013-.014-.016-.043-.016-.071-.043h-.014c-.028-.016-.043-.03-.071-.03l-3.134-.807a.516.516,0,0,0-.624.367.51.51,0,0,0,.369.624l2.638.682-.652,2.636a.5.5,0,0,0,.369.624.507.507,0,0,0,.383-.057.527.527,0,0,0,.241-.312l.766-3.147c.014-.03.014-.057.028-.072v-.1c-.014-.013,0-.013-.014-.028m-23.355,12.592a.515.515,0,0,0-.638-.326l-3.063,1.035a.108.108,0,0,0-.071.028.049.049,0,0,0-.028.014c-.014,0-.043.028-.057.043s-.014,0-.014.014c-.028.014-.028.028-.043.043s-.028.014-.043.028-.014.028-.014.043-.028.028-.028.043a.052.052,0,0,0-.014.043c-.014.014-.014.028-.028.057,0,0,.014.014,0,.043a.143.143,0,0,0-.014.043.052.052,0,0,0,.014.043c0,.028-.014.043-.014.071a.05.05,0,0,1,.014.028.085.085,0,0,0,.014.057l.993,3.077a.686.686,0,0,0,.269.3.511.511,0,0,0,.709-.624l-.837-2.581,2.567-.865a.5.5,0,0,0,.326-.652m4.183,1.985a.434.434,0,0,0-.624-.043l-3.885,3.318a.433.433,0,0,0-.043.624.286.286,0,0,0,.128.1.432.432,0,0,0,.482-.057l3.885-3.318a.447.447,0,0,0,.057-.624m2.581,4.07v-.014a.179.179,0,0,0-.014-.085l-.993-3.063a.531.531,0,0,0-.652-.326.493.493,0,0,0-.326.638l.837,2.6-2.567.865a.5.5,0,0,0-.34.638.529.529,0,0,0,.652.326l3.063-1.035a.2.2,0,0,0,.085-.028.31.31,0,0,0,.071-.043l.014-.014c.014-.014.028-.043.057-.057,0-.014,0-.014.014-.014a.074.074,0,0,0,.028-.057c.014,0,.028-.028.028-.028a.143.143,0,0,1,.014-.043.107.107,0,0,1,.028-.057v-.014a.154.154,0,0,1,.014-.085v-.014c0-.028-.014-.043-.014-.085M570.635,182l1.914-1.929a.531.531,0,0,0,0-.737.542.542,0,0,0-.723,0l-2.269,2.311a.111.111,0,0,0-.057.057.014.014,0,0,0-.014.014.308.308,0,0,0-.042.071v.014c-.014.028-.014.043-.028.071a.05.05,0,0,0-.014.028v.2c0,.014.014.014.014.043s.014.028.028.043a.052.052,0,0,0,.014.043c.014.014.014.028.028.057a.05.05,0,0,0,.028.014c0,.028.014.043.043.057l2.269,2.3a.5.5,0,0,0,.369.142.5.5,0,0,0,.354-.865Zm6.537-2.765a.45.45,0,0,0-.581.241l-1.985,4.708a.438.438,0,0,0,.241.581.36.36,0,0,0,.17.028.473.473,0,0,0,.411-.255l1.971-4.722a.441.441,0,0,0-.227-.581m4.212,2.723v-.085c-.014-.028-.014-.043-.028-.071v-.014c-.014-.028-.028-.043-.043-.071a.014.014,0,0,0-.014-.014.111.111,0,0,0-.057-.057l-2.269-2.311a.542.542,0,0,0-.723,0,.531.531,0,0,0,0,.737L580.164,182l-1.914,1.929a.513.513,0,0,0,0,.723.5.5,0,0,0,.369.142.492.492,0,0,0,.354-.142l2.269-2.3c.028-.014.043-.043.057-.057a.014.014,0,0,0,.014-.014.308.308,0,0,1,.043-.071v-.028c.014-.014.014-.028.028-.071v-.071A.143.143,0,0,1,581.4,182a.143.143,0,0,0-.014-.043" transform="translate(-569.401 -149.298)" fill="#030402"/>
                </g>
              </g>
            </g>
            <path id="Trazado_628467" data-name="Trazado 628467" d="M588.089,182.362c-11-6.383-19.544-13.537-21.488-14.864-.092-.061.026-.2.115-.135,1.835,1.4,12.978,8.453,21.5,14.851.1.074-.021.21-.126.147" transform="translate(236.847 69.957)" fill="#263238"/>
            <g id="Grupo_879195" data-name="Grupo 879195" transform="translate(811.891 207.984)" opacity="0.1">
              <g id="Grupo_879194" data-name="Grupo 879194">
                <g id="Grupo_879193" data-name="Grupo 879193" clip-path="url(#clip-path-19)">
                  <path id="Trazado_628468" data-name="Trazado 628468" d="M612.505,146.669a30.058,30.058,0,0,1-1.929,6.95c-5.5,14.505-28.332,43.449-28.332,43.449l-9.7-6.6Z" transform="translate(-572.545 -146.67)"/>
                </g>
              </g>
            </g>
            <path id="Trazado_628469" data-name="Trazado 628469" d="M664.1,243.156c-.172.231-81.93,1.96-82.758,1.178-1.157-1.1,6.411-78.023,18.252-97.048,2.961-4.758,16.895-8.3,23.135-1.831,24.129,24.994,41.982,96.863,41.371,97.7" transform="translate(242.974 59.334)" fill="#2b95f9"/>
            <g id="Grupo_879198" data-name="Grupo 879198" transform="translate(824.223 205.677)" opacity="0.1">
              <g id="Grupo_879197" data-name="Grupo 879197">
                <g id="Grupo_879196" data-name="Grupo 879196" clip-path="url(#clip-path-20)">
                  <path id="Trazado_628470" data-name="Trazado 628470" d="M597.095,158.326l-2.425-.625c-.113.326-.213.654-.312.98l2.482.637a.553.553,0,0,0,.4-.055.588.588,0,0,0,.227-.312.512.512,0,0,0-.369-.624m2.056-6.014a.446.446,0,0,0-.5-.381.459.459,0,0,0-.383.509l.723,5.05a.435.435,0,0,0,.5.381.474.474,0,0,0,.156-.057.439.439,0,0,0,.213-.438Zm4.609,0a.258.258,0,0,1-.014-.07v-.016c-.014-.027-.014-.043-.028-.055a.054.054,0,0,1-.014-.043.03.03,0,0,1-.028-.028c-.014-.016-.028-.028-.028-.043l-.028-.028c-.028-.014-.028-.03-.057-.043,0-.014,0-.014-.014-.014-.014-.016-.043-.016-.071-.043h-.014a.137.137,0,0,0-.071-.028l-3.134-.808a.517.517,0,0,0-.624.369.509.509,0,0,0,.369.623l2.638.682-.652,2.638a.5.5,0,0,0,.369.624.513.513,0,0,0,.383-.058.527.527,0,0,0,.241-.312l.766-3.147c.014-.028.014-.057.028-.072v-.1c-.014-.014,0-.014-.014-.03m27.581,31.921-2.638-.682.652-2.638a.509.509,0,0,0-.369-.623.517.517,0,0,0-.624.369l-.766,3.132a.186.186,0,0,0-.014.086.013.013,0,0,0-.014.013c0,.03.014.057.014.085v.014c0,.028.014.044.014.071v.028a.108.108,0,0,1,.028.057c.014,0,.014.028.014.044s.028.014.043.027.014.028.028.058a.046.046,0,0,1,.028.013l.042.043a.05.05,0,0,0,.028.014c.028.016.028.028.057.044h.028c.028.013.043.027.057.027l3.134.81a.554.554,0,0,0,.4-.072.481.481,0,0,0,.227-.3.5.5,0,0,0-.369-.623m2.056-6.027a.431.431,0,0,0-.482-.37.448.448,0,0,0-.4.5l.723,5.061a.427.427,0,0,0,.5.37.3.3,0,0,0,.156-.058.45.45,0,0,0,.227-.44Zm4.609.013a.16.16,0,0,0-.014-.071c0-.013.014-.013,0-.028s-.014-.027-.028-.057l-.014-.028c0-.014-.028-.027-.028-.027-.014-.016-.014-.044-.028-.058l-.014-.013c-.043-.016-.043-.03-.071-.058h-.014a.366.366,0,0,0-.071-.043.013.013,0,0,0-.014-.013.608.608,0,0,0-.071-.014l-3.134-.822a.538.538,0,0,0-.624.381.518.518,0,0,0,.369.624l2.638.666-.652,2.638a.505.505,0,0,0,.369.624.49.49,0,0,0,.4-.057.516.516,0,0,0,.227-.311l.766-3.135c.014-.028.014-.055.028-.084v-.085c-.014-.016,0-.03-.014-.03m-44.5,36.571-2.623-.681.652-2.638a.518.518,0,0,0-.369-.624.564.564,0,0,0-.638.383l-.766,3.135a.146.146,0,0,0-.014.069.019.019,0,0,0,0,.028v.1c.014.027.014.043.028.055s-.014.03,0,.043.014.03.028.043a.129.129,0,0,0,.014.043.11.11,0,0,0,.028.043c.014.016.014.028.028.044s.028.014.043.027.014.028.028.028.028.03.043.014c.014.028.028.043.057.043a.042.042,0,0,1,.028.016c.014.013.028.013.057.013l3.134.81a.524.524,0,0,0,.383-.058.536.536,0,0,0,.241-.312.523.523,0,0,0-.383-.624m2.07-6.011a.447.447,0,0,0-.5-.384.469.469,0,0,0-.383.51l.709,5.048a.448.448,0,0,0,.51.384.31.31,0,0,0,.156-.057.445.445,0,0,0,.213-.441Zm4.609.028v-.028a.325.325,0,0,1-.014-.072v-.013c-.014-.028-.028-.028-.043-.058a.073.073,0,0,0-.014-.043.044.044,0,0,1-.014-.028l-.043-.043a.014.014,0,0,0-.014-.014l-.057-.055a.014.014,0,0,1-.014-.016c-.014-.013-.043-.013-.071-.043h-.014a.224.224,0,0,0-.085-.028l-3.12-.807a.534.534,0,0,0-.624.367.5.5,0,0,0,.369.624l2.638.681-.652,2.638a.509.509,0,0,0,.751.569.593.593,0,0,0,.241-.312l.766-3.148c.014-.014.014-.058.014-.072a.013.013,0,0,0,.014-.013c-.014-.03,0-.058-.014-.085m31.651,27.211-2.623-.681.652-2.638a.512.512,0,1,0-.993-.254l-.78,3.148a.146.146,0,0,0-.014.069v.1c.014.013,0,.013,0,.028s.014.027.028.055-.014.03,0,.043.014.03.028.043a.16.16,0,0,1,.014.043c.014.016.028.016.028.028s.014.03.028.058a.051.051,0,0,1,.043.027l.028.03a.056.056,0,0,0,.042.013.175.175,0,0,0,.057.043h.028a.07.07,0,0,0,.057.028l3.134.81a.53.53,0,0,0,.383-.071.5.5,0,0,0-.142-.923m2.07-6.027a.438.438,0,0,0-.5-.369.448.448,0,0,0-.383.5l.709,5.061a.438.438,0,0,0,.51.37.406.406,0,0,0,.369-.484Zm4.609.044v-.028a.684.684,0,0,1-.014-.071v-.014c-.014-.028-.028-.043-.028-.058a.068.068,0,0,1-.014-.043l-.028-.028a.108.108,0,0,1-.028-.055c-.014-.014-.028,0-.028-.014a.223.223,0,0,1-.057-.043.014.014,0,0,0-.014-.016.372.372,0,0,0-.071-.043l-.014-.013c-.028,0-.057-.016-.085-.016l-3.12-.807a.512.512,0,1,0-.255.991l2.638.681-.652,2.638a.5.5,0,0,0,.752.553.45.45,0,0,0,.241-.312l.766-3.132a.162.162,0,0,0,.014-.072l.014-.013c-.014-.043,0-.071-.014-.085m-16.591-84.644a.53.53,0,0,0-.652-.325l-3.063,1.034a.1.1,0,0,0-.071.03.014.014,0,0,0-.014.014c-.028,0-.043.028-.071.043,0,0-.014,0-.014.013l-.043.043c0,.016-.028.016-.028.03s-.014.028-.028.043-.014.028-.028.043a.053.053,0,0,1-.014.043c0,.013-.014.028-.028.055,0,0,.014.014,0,.044v.043a.027.027,0,0,0,0,.043c0,.028-.014.043,0,.071a.04.04,0,0,0,.014.027.036.036,0,0,0,.014.058l.993,3.077a.55.55,0,0,0,.269.3.5.5,0,0,0,.383.027.517.517,0,0,0,.326-.651l-.851-2.582,2.581-.864a.526.526,0,0,0,.326-.654m3.588,1.914a.049.049,0,0,0-.042.016l-3.885,3.332a.433.433,0,0,0-.043.624.415.415,0,0,0,.128.1.453.453,0,0,0,.5-.055L626.051,148c.014-.014.014-.014.014-.03a8.34,8.34,0,0,0-.553-.666m1.262,1.546.766,2.341-2.581.865a.5.5,0,0,0-.326.638.493.493,0,0,0,.255.3.547.547,0,0,0,.4.027l3.063-1.034c.028,0,.043-.014.071-.03h.014a.234.234,0,0,0,.071-.043c0-.013.014-.013.014-.013s.028-.043.057-.057c0-.016,0,0,.014-.016a.071.071,0,0,1,.028-.055.05.05,0,0,1,.014-.028.072.072,0,0,0,.014-.043.111.111,0,0,0,.028-.058v-.013c0-.043.014-.057.014-.085v-.128c-.638-.893-1.276-1.744-1.914-2.568m-15.443,43.193a.536.536,0,0,0-.652-.325l-3.063,1.034a.371.371,0,0,0-.071.043.021.021,0,0,0-.028,0c-.014.014-.042.03-.057.043l-.014.016c-.028.014-.028.027-.043.055-.014,0-.028,0-.028.014a.111.111,0,0,0-.028.058c-.014,0-.028.028-.028.028-.014.027-.014.027-.014.043s-.014.027-.028.055c0,0,.014.014,0,.043s-.014.03-.014.058a.039.039,0,0,0,.014.027c0,.028-.014.043-.014.071a.05.05,0,0,1,.014.03c0,.028,0,.043.014.055l.993,3.077a.564.564,0,0,0,.269.3.511.511,0,0,0,.709-.625l-.837-2.579,2.581-.865a.52.52,0,0,0,.326-.654m4.169,2a.435.435,0,0,0-.624-.058l-3.885,3.32a.432.432,0,0,0-.043.623.28.28,0,0,0,.128.1.432.432,0,0,0,.482-.043l3.885-3.334a.43.43,0,0,0,.057-.608m2.581,4.056v-.016a.147.147,0,0,0-.014-.07l-.993-3.079a.532.532,0,0,0-.652-.326.509.509,0,0,0-.326.654l.837,2.579-2.567.865a.5.5,0,0,0-.326.654.457.457,0,0,0,.255.282.512.512,0,0,0,.383.043l3.063-1.034a.186.186,0,0,1,.085-.03.725.725,0,0,1,.071-.055l.014-.016.057-.055c.014,0,.014,0,.014-.016a.071.071,0,0,0,.028-.057.029.029,0,0,0,.028-.028c0-.013.014-.027.014-.043s.014-.027.028-.043v-.028c0-.043,0-.057.014-.069s-.014-.016,0-.028c0-.03-.014-.043-.014-.085M647.96,214.99a.519.519,0,0,0-.652-.328l-3.063,1.037a.077.077,0,0,0-.057.027c-.028-.013-.028,0-.028,0-.028.016-.043.043-.071.058,0,0-.014,0-.014.013l-.043.043c0,.016-.014.016-.028.03s-.014.028-.028.043a.032.032,0,0,1-.028.028c0,.027,0,.043-.014.055s-.014.03-.014.043,0,.03-.014.043c.014.016,0,.043,0,.058v.113l.014.014a.131.131,0,0,0,.014.071l.993,3.077a.607.607,0,0,0,.269.3.563.563,0,0,0,.383.028.523.523,0,0,0,.326-.651l-.851-2.582,2.581-.865a.523.523,0,0,0,.326-.651m4.183,1.985a.464.464,0,0,0-.638-.057l-3.885,3.318a.45.45,0,0,0-.043.638.438.438,0,0,0,.128.1.482.482,0,0,0,.5-.057l3.885-3.332a.427.427,0,0,0,.057-.608m2.552,3.971-.993-3.077a.537.537,0,0,0-.652-.328.526.526,0,0,0-.326.654l.851,2.579-2.581.865a.526.526,0,0,0-.326.654.592.592,0,0,0,.255.3.546.546,0,0,0,.4.027l3.063-1.034a.1.1,0,0,0,.071-.03h.014a.14.14,0,0,1,.071-.043c0-.013.014-.013.014-.028.014,0,.028-.027.057-.043,0-.013.014-.013.014-.013.014-.03.014-.043.028-.057s.014-.028.028-.044V221.3a.111.111,0,0,0,.028-.058c.014-.013,0-.013,0-.027s.014-.043.014-.071v-.113c-.014-.03-.014-.058-.028-.085m-43.874-52.935,1.914-1.929a.512.512,0,0,0-.723-.725l-2.269,2.3c-.028.013-.043.043-.057.055s-.014.016-.014.016l-.043.085v.013a.087.087,0,0,0-.014.058c0,.014-.028.014-.028.043v.2a.05.05,0,0,1,.028.043.073.073,0,0,0,.014.043c0,.013,0,.028.014.028.014.027.014.043.028.07a.042.042,0,0,1,.028.016.038.038,0,0,0,.043.043l2.269,2.31a.5.5,0,0,0,.369.142.492.492,0,0,0,.354-.142.514.514,0,0,0,0-.723Zm6.537-2.752a.443.443,0,0,0-.581.241l-1.985,4.709a.441.441,0,0,0,.241.58.648.648,0,0,0,.17.028.444.444,0,0,0,.411-.269l1.971-4.706a.433.433,0,0,0-.227-.583m4.212,2.639c-.014-.03-.014-.058-.028-.072v-.013a.525.525,0,0,1-.043-.085s0-.016-.014-.016-.028-.043-.057-.055l-2.269-2.3a.512.512,0,0,0-.723.725l1.914,1.929-1.914,1.941a.514.514,0,0,0,0,.723.525.525,0,0,0,.369.142.47.47,0,0,0,.354-.142l2.269-2.31a.119.119,0,0,0,.057-.058h.014a.33.33,0,0,1,.043-.07v-.028c.014-.016.014-.043.028-.072,0-.013.014-.013.014-.013v-.2c0-.028-.014-.028-.014-.028m11.685,32.982,1.914-1.929a.511.511,0,1,0-.723-.723l-2.269,2.3a.216.216,0,0,0-.057.058.013.013,0,0,0-.014.013c-.014.03-.014.058-.043.085v.016c-.014.013-.014.043-.014.055s-.014.014-.014.043v.058l-.014.027c0,.028.014.043.014.058v.055a.067.067,0,0,1,.014.043.07.07,0,0,0,.014.043c0,.016,0,.028.028.028a.132.132,0,0,0,.014.072.046.046,0,0,1,.028.013c.014.03.014.043.043.043l2.269,2.311a.5.5,0,0,0,.369.143.488.488,0,0,0,.355-.143.531.531,0,0,0,0-.737Zm6.537-2.751a.445.445,0,0,0-.581.242l-1.985,4.706a.444.444,0,0,0,.241.583.791.791,0,0,0,.17.028.449.449,0,0,0,.411-.269l1.971-4.709a.432.432,0,0,0-.227-.581M644,200.766c-.014-.027-.014-.057-.028-.069v-.016a.428.428,0,0,1-.043-.085.013.013,0,0,0-.014-.013.215.215,0,0,0-.057-.058l-2.269-2.3a.511.511,0,1,0-.723.723l1.914,1.929-1.914,1.929a.531.531,0,0,0,0,.737.52.52,0,0,0,.369.143.466.466,0,0,0,.354-.143l2.269-2.311a.1.1,0,0,0,.057-.055h.014a.293.293,0,0,1,.043-.072v-.028c.014-.014.014-.043.028-.07a.014.014,0,0,1,.014-.016v-.2c0-.028-.014-.028-.014-.028M596.74,232.9l1.914-1.928a.529.529,0,0,0,0-.736.542.542,0,0,0-.723,0l-2.283,2.31c-.014.016-.028.043-.043.058a.013.013,0,0,0-.014.013.294.294,0,0,0-.043.072c0,.013-.014.013-.014.013a.132.132,0,0,1-.014.072.044.044,0,0,0-.014.028v.2c0,.013.014.013.014.043a.051.051,0,0,1,.014.043c0,.013.014.028.028.043s.014.041.028.055a.048.048,0,0,0,.028.016.068.068,0,0,0,.028.055l2.283,2.3a.507.507,0,0,0,.369.14.521.521,0,0,0,.354-.14.515.515,0,0,0,0-.725Zm6.537-2.751a.433.433,0,0,0-.581.227l-1.985,4.709a.437.437,0,0,0,.241.58.306.306,0,0,0,.156.028.467.467,0,0,0,.425-.254l1.971-4.722a.434.434,0,0,0-.227-.569m4.212,2.708v-.084c-.014-.03-.014-.043-.028-.072v-.013c-.014-.03-.028-.043-.043-.072a.013.013,0,0,0-.014-.013.215.215,0,0,0-.057-.058l-2.269-2.31a.542.542,0,0,0-.723,0,.529.529,0,0,0,0,.736l1.914,1.928-1.914,1.929a.515.515,0,0,0,0,.725.5.5,0,0,0,.354.14.507.507,0,0,0,.369-.14l2.269-2.3c.028-.013.043-.043.057-.055s.014-.016.014-.016a.329.329,0,0,1,.043-.069v-.028c.014-.014.014-.03.028-.072v-.071a.16.16,0,0,1,.014-.043c0-.013-.014-.027-.014-.043m47.9,5.984a.542.542,0,0,0-.723,0l-2.269,2.313a.156.156,0,0,0-.057.043c-.014,0-.014.028-.014.028s-.014.043-.028.069a.014.014,0,0,0-.014.016.1.1,0,0,0-.014.055c0,.016-.014.03-.014.043v.058a.129.129,0,0,0-.014.043c0,.013.014.027.014.043v.055c0,.016.014.016.014.043a.07.07,0,0,0,.014.043c0,.016.014.028.028.044a.11.11,0,0,0,.014.057.052.052,0,0,0,.028.013c.014.028.014.043.043.058l.34.339c.482,0,.95-.014,1.4-.027l-.666-.666,1.914-1.944a.513.513,0,0,0,0-.723m4.637-.1a.465.465,0,0,0-.6.241l-1.3,3.09c.34,0,.652-.013.964-.028l1.149-2.723a.441.441,0,0,0-.213-.58m4.2,2.638a.13.13,0,0,1-.014-.071.014.014,0,0,0-.014-.016c-.014-.027-.028-.043-.043-.069V241.2a.263.263,0,0,1-.057-.043l-.071-.071-2.2-2.242a.561.561,0,0,0-.737,0,.513.513,0,0,0,0,.723l1.914,1.944-.425.425c.964-.028,1.5-.058,1.517-.071a.113.113,0,0,1,.057-.058v-.013a.324.324,0,0,1,.043-.072c0-.013.014-.013.014-.028a.146.146,0,0,1,.014-.07.014.014,0,0,0,.014-.016v-.2c0-.013-.014-.013-.014-.027M597.407,187.1a.509.509,0,0,0-.61-.4l-2.652.581-.61-2.65a.5.5,0,0,0-.61-.384.539.539,0,0,0-.4.61l.723,3.148a.105.105,0,0,0,.028.071.021.021,0,0,0,0,.03.259.259,0,0,1,.042.071c.014,0,.014,0,.014.013l.043.043c0,.014,0,.03.014.03s.043.028.057.041l.028.03c.014.013.028,0,.043.013s.028.014.043.03a.056.056,0,0,1,.042.013c.014-.013.043,0,.057.014a.07.07,0,0,0,.043-.014c.014.014.028.014.057.014h.028a.128.128,0,0,0,.071-.014l3.162-.679a.532.532,0,0,0,.312-.241.469.469,0,0,0,.071-.37m1.446-2.5-2.921-4.2a.433.433,0,0,0-.61-.112.449.449,0,0,0-.114.623l2.907,4.2a.438.438,0,0,0,.624.1.406.406,0,0,0,.113-.112.482.482,0,0,0,0-.5m2-2.935-.723-3.147c0-.028,0-.058-.014-.071v-.016a.3.3,0,0,0-.043-.069c-.014-.016,0-.016-.014-.028a.23.23,0,0,1-.042-.058c-.014,0-.014,0-.014-.014s-.028-.013-.057-.028a.029.029,0,0,0-.028-.027c0-.016-.028-.016-.043-.016l-.042-.043H599.8c-.028,0-.043-.013-.071-.013h-.014a.165.165,0,0,0-.085-.016h-.014a.165.165,0,0,0-.085.016l-3.162.679a.533.533,0,0,0-.383.611.509.509,0,0,0,.61.4l2.652-.581.61,2.65a.514.514,0,0,0,.61.4.489.489,0,0,0,.312-.241.444.444,0,0,0,.071-.383m20.193,40.416-2.652.58-.6-2.65a.516.516,0,1,0-1.007.227l.723,3.148a.647.647,0,0,0,.014.069.014.014,0,0,0,.014.016c0,.028.028.055.042.085v.013l.043.043c.014,0,.014.028.028.028.014.016.028.03.042.03l.028.028a.127.127,0,0,1,.042.027c.014,0,.028.016.057.028a.109.109,0,0,1,.042.014c.014-.014.028,0,.043,0a.025.025,0,0,0,.042,0,.118.118,0,0,0,.071.016.042.042,0,0,0,.028-.016.04.04,0,0,0,.057,0l3.162-.681a.569.569,0,0,0,.326-.24.508.508,0,0,0-.553-.766m2.056-2.1-2.921-4.2a.419.419,0,0,0-.6-.113.438.438,0,0,0-.128.608l2.921,4.2a.413.413,0,0,0,.61.113.225.225,0,0,0,.113-.113.453.453,0,0,0,0-.5m2.014-2.934-.723-3.148a.59.59,0,0,0-.014-.072c0-.013-.014-.013-.014-.013a.256.256,0,0,1-.028-.071c-.014-.016-.014-.016-.014-.03a.207.207,0,0,1-.057-.055s0-.016-.014-.016l-.042-.043a.029.029,0,0,1-.028-.027c-.014,0-.043,0-.043-.016a.1.1,0,0,1-.057-.028h-.014c-.043,0-.057-.014-.085-.014,0,0-.014,0-.014-.013h-.1a.14.14,0,0,0-.071.013l-3.162.681a.535.535,0,0,0-.4.611.524.524,0,0,0,.61.4l2.666-.583.6,2.653a.5.5,0,0,0,.61.381.447.447,0,0,0,.326-.227.5.5,0,0,0,.071-.381m-42.527,23.88-1.276-1.845c-.028.526-.057,1.021-.071,1.448l.624.893a.434.434,0,0,0,.61.112.237.237,0,0,0,.113-.128.425.425,0,0,0,0-.481m2.014-2.937-.723-3.147c0-.028-.014-.058-.014-.086l-.014-.014a.225.225,0,0,1-.028-.071.013.013,0,0,1-.014-.013.223.223,0,0,1-.057-.058c0-.014,0-.014-.014-.027s-.028-.016-.043-.028-.028-.03-.043-.03l-.028-.013a.111.111,0,0,0-.057-.03c-.014-.013-.014,0-.014-.013a.142.142,0,0,1-.085-.016h-.1l-.014-.014c-.028.014-.057.014-.071.03l-1.673.355q-.042.551-.085,1.064l1.475-.312.6,2.638a.524.524,0,0,0,.61.4.553.553,0,0,0,.326-.228.522.522,0,0,0,.071-.383" transform="translate(-581.241 -145.043)" fill="#030402"/>
                </g>
              </g>
            </g>
            <path id="Trazado_628471" data-name="Trazado 628471" d="M615.566,232.513c-3.311,2.731-9.352-6-9.352-6a7.922,7.922,0,0,1-1.306,5.225c-1.944,2.619-6.9.716-6.9.716a9.761,9.761,0,0,1-2.255,5.292c-2.114,2.32-7.391,1.113-7.391,1.113a8.566,8.566,0,0,1-4.915,3.4c-5.379,1.143-11.214-4.9-14.962-8.7s-10.817-18.1-12.439-20.689l24.2-24.264s21.658,12.272,25.43,17.368c3.178,4.294,14.955,22.365,9.894,26.539" transform="translate(232.447 78.845)" fill="#f7a9a0"/>
            <path id="Trazado_628472" data-name="Trazado 628472" d="M594.256,219.609c-2.283-5.376-5.848-10.194-9.339-14.807a.1.1,0,0,0-.159.122c3.527,4.548,5.92,10.146,9.258,14.824a.14.14,0,0,0,.24-.139" transform="translate(244.443 85.599)" fill="#263238"/>
            <path id="Trazado_628473" data-name="Trazado 628473" d="M589.078,222.966a15.167,15.167,0,0,0-2.343-3.219q-1.361-1.623-2.774-3.2-2.829-3.154-5.812-6.167c-.088-.088-.245.024-.159.123,1.876,2.1,3.72,4.227,5.5,6.4q1.34,1.634,2.655,3.29a18.142,18.142,0,0,0,2.622,3,.2.2,0,0,0,.306-.235" transform="translate(241.612 87.935)" fill="#263238"/>
            <path id="Trazado_628474" data-name="Trazado 628474" d="M581.786,227.344a10.618,10.618,0,0,0-2.263-2.786q-1.319-1.41-2.622-2.836c-1.737-1.9-3.473-3.8-5.142-5.76-.084-.1-.241.023-.159.122,1.686,2,3.345,4.022,5.05,6.007q1.255,1.461,2.526,2.91a9.943,9.943,0,0,0,2.518,2.435c.055.028.113-.037.092-.091" transform="translate(238.941 90.265)" fill="#263238"/>
            <path id="Trazado_628475" data-name="Trazado 628475" d="M618.079,147.018c39.454,19.855,76.031,50.684,75.213,62.676-.865,12.68-22.44,30.589-43.152,37.177-4.243,1.35-23.422-28.086-19.236-30.352,3.261-1.764,18.22-9.087,19.715-11.588,1.039-1.74-29.627-31.751-40.824-48.287-11.719-17.3-2.279-14.942,8.284-9.626" transform="translate(252.657 59.83)" fill="#f7a9a0"/>
            <path id="Trazado_628476" data-name="Trazado 628476" d="M644.875,193.061s-13.02,3.722-21.42,6.557c-4.687,1.581-12.479,5.01-15.39,7.747-4.355,4.094-19.953,23.995-15.21,27.88,4.294,3.518,8.461-4.024,8.461-4.024s-5.328,7.816,0,10c5.38,2.2,9.851-8.154,9.851-8.154s-6.232,7.9-.319,9.689c5.133,1.549,11.577-9.814,11.577-9.814s-7.453,7.581-2.35,9.682c5.64,2.321,17.442-13.5,17.442-13.5,11.58-.779,18.426-2.809,26.02-6.493,1.394-.676-18.666-29.565-18.666-29.565" transform="translate(247.466 80.707)" fill="#f7a9a0"/>
            <path id="Trazado_628477" data-name="Trazado 628477" d="M604.652,227.6c.386-.8.793-1.587,1.18-2.384a43.568,43.568,0,0,1,2.458-4.55c.909-1.417,1.879-2.785,2.891-4.131,1.069-1.419,2.29-2.738,3.322-4.183a.1.1,0,1,1,.157.119,46.191,46.191,0,0,0-2.857,4.421c-.9,1.465-1.791,2.941-2.674,4.417-.865,1.445-1.819,2.818-2.725,4.236-.45.706-.869,1.434-1.289,2.16a14.32,14.32,0,0,1-1.241,2.046c-.05.06-.142,0-.125-.072a10.879,10.879,0,0,1,.9-2.079" transform="translate(252.39 88.75)" fill="#263238"/>
            <path id="Trazado_628478" data-name="Trazado 628478" d="M597.8,225.915a69.055,69.055,0,0,1,4.37-8.549,48.34,48.34,0,0,1,5.848-7.638.1.1,0,0,1,.157.119c-1.685,2.737-3.413,5.454-5.136,8.169-.844,1.327-4.485,7.472-4.948,8.066-.111.143-.335-.011-.292-.167" transform="translate(249.903 87.662)" fill="#263238"/>
            <path id="Trazado_628479" data-name="Trazado 628479" d="M610.526,229.485a67.929,67.929,0,0,1,4.256-7.964,61.892,61.892,0,0,1,6.1-6.934c.085-.071.224.03.156.119-1.849,2.457-3.737,4.874-5.468,7.418-.844,1.238-3.922,6.373-4.831,7.486-.082.1-.255-.006-.217-.125" transform="translate(255.221 89.696)" fill="#263238"/>
            <path id="Trazado_628480" data-name="Trazado 628480" d="M662.925,172.52l-23.372,21.923s-25.106-26.859-32.8-40.342-1.751-14.585,14.013-6.655,42.157,25.074,42.157,25.074" transform="translate(252.249 59.562)" fill="#2b95f9"/>
            <g id="Grupo_879201" data-name="Grupo 879201" transform="translate(860.839 205.677)" opacity="0.1">
              <g id="Grupo_879200" data-name="Grupo 879200">
                <g id="Grupo_879199" data-name="Grupo 879199" clip-path="url(#clip-path-21)">
                  <path id="Trazado_628481" data-name="Trazado 628481" d="M627.21,178.219a.157.157,0,0,0-.014-.071c0-.014.014-.014,0-.028s-.014-.028-.028-.057l-.014-.028c0-.014-.028-.028-.028-.028s-.014-.043-.028-.057l-.014-.014c-.043-.014-.043-.028-.071-.057H627a.307.307,0,0,0-.071-.043.013.013,0,0,0-.014-.013.56.56,0,0,0-.071-.016l-3.134-.822a.569.569,0,0,0-.269.014c.369.425.723.851,1.092,1.262l1.56.4-.269,1.093c.269.325.553.637.822.949l.553-2.283c.014-.028.014-.057.028-.084v-.087c-.014-.014,0-.028-.014-.028M611.13,145.392a.53.53,0,0,0-.652-.325l-3.063,1.034a.1.1,0,0,0-.071.03.013.013,0,0,0-.014.013c-.028,0-.043.03-.071.043a.014.014,0,0,0-.014.014l-.043.043c0,.016-.028.016-.028.03s-.014.028-.028.043-.014.028-.028.043a.053.053,0,0,1-.014.043c0,.013-.014.028-.028.055,0,0,.014.014,0,.043v.043a.027.027,0,0,0,0,.043c0,.03-.014.044,0,.072a.04.04,0,0,0,.014.027.036.036,0,0,0,.014.058l.993,3.077a.555.555,0,0,0,.269.3.5.5,0,0,0,.383.027.518.518,0,0,0,.326-.651l-.851-2.582,2.581-.864a.526.526,0,0,0,.326-.654m4.183,1.987a.464.464,0,0,0-.638-.057l-3.885,3.332a.433.433,0,0,0-.043.624.415.415,0,0,0,.128.1.453.453,0,0,0,.5-.055l3.885-3.32a.459.459,0,0,0,.057-.623m2.553,3.971-.993-3.064a.52.52,0,0,0-.652-.326.5.5,0,0,0-.326.638l.851,2.6-2.581.866a.5.5,0,0,0-.326.638.5.5,0,0,0,.255.3.547.547,0,0,0,.4.027l3.063-1.034c.028,0,.043-.014.071-.03h.014a.234.234,0,0,0,.071-.043.014.014,0,0,1,.014-.014c.014-.013.028-.043.057-.055,0-.016,0,0,.014-.016a.076.076,0,0,1,.028-.057.049.049,0,0,1,.014-.027.072.072,0,0,0,.014-.043.111.111,0,0,0,.028-.058v-.013c0-.043.014-.057.014-.087v-.113c-.014-.027-.014-.057-.028-.084m29.013,22.829a.519.519,0,0,0-.652-.326l-3.063,1.035a.108.108,0,0,0-.071.028h-.014c-.028.014-.042.043-.071.057h-.014a.2.2,0,0,1-.043.057s-.028,0-.028.014-.014.043-.028.057a.031.031,0,0,1-.028.028c0,.028,0,.043-.014.057s-.014.028-.028.043.014.028,0,.043v.057c-.014,0-.014.028,0,.043s-.014.028,0,.057a.044.044,0,0,0,.014.028c-.014.028-.014.044.014.071l.993,3.063a.476.476,0,0,0,.269.3.511.511,0,0,0,.383.027.5.5,0,0,0,.326-.638l-.851-2.6,2.581-.865a.5.5,0,0,0,.326-.638m4.183,1.985a.466.466,0,0,0-.638-.057l-3.885,3.318a.433.433,0,0,0-.043.624.313.313,0,0,0,.128.113.488.488,0,0,0,.5-.055l3.885-3.334a.442.442,0,0,0,.057-.61m1.56.893a.544.544,0,0,0-.652-.326.519.519,0,0,0-.326.652l.808,2.453.822-.766Zm-3.035,4.424a.582.582,0,0,0,.255.3.541.541,0,0,0,.4.028l.17-.057,1.8-1.687-2.3.766a.525.525,0,0,0-.326.652M633.8,165.826a.5.5,0,0,0-.61-.383l-2.652.567-.6-2.652a.533.533,0,0,0-.624-.383.517.517,0,0,0-.383.61l.723,3.148a.616.616,0,0,0,.014.071.056.056,0,0,0,.014.03c0,.013.028.041.043.069v.014c.014.028.028.028.042.057.014,0,.014.016.028.028s.028.014.042.028.028.028.028.028c.028.014.028.014.043.014s.028.014.057.028c0,.014.014,0,.042.014s.028.014.043.014h.042c.028,0,.043.014.071.014a.049.049,0,0,1,.028-.014.085.085,0,0,0,.057-.014l3.162-.681a.534.534,0,0,0,.326-.227.507.507,0,0,0,.057-.383m1.446-2.5-2.921-4.2a.42.42,0,0,0-.6-.113.457.457,0,0,0-.128.624l2.921,4.2a.42.42,0,0,0,.61.1.22.22,0,0,0,.113-.113.451.451,0,0,0,0-.5m2.014-2.921-.723-3.162c0-.028-.014-.043-.014-.071l-.014-.014a.24.24,0,0,1-.028-.071l-.014-.014a.146.146,0,0,1-.057-.071l-.014-.014c-.014-.014-.028-.014-.042-.028s-.028-.028-.043-.028l-.028-.014a.119.119,0,0,0-.057-.028.014.014,0,0,0-.014-.014c-.042,0-.057-.014-.085-.014h-.014c-.028-.014-.043,0-.085-.014h-.014c-.028.014-.057.014-.071.028l-3.162.666a.55.55,0,0,0-.4.624.513.513,0,0,0,.61.383l2.666-.58.6,2.65a.522.522,0,0,0,.61.4.551.551,0,0,0,.326-.227.523.523,0,0,0,.071-.383" transform="translate(-607.063 -145.043)" fill="#030402"/>
                </g>
              </g>
            </g>
            <path id="Trazado_628482" data-name="Trazado 628482" d="M646.405,161.8c-8.647,9.848-17.62,17.127-19.353,18.834-.081.079-.2-.061-.115-.138,1.787-1.587,11.149-11.465,19.341-18.849.095-.085.211.057.128.152" transform="translate(262.071 67.566)" fill="#263238"/>
            <path id="Trazado_628483" data-name="Trazado 628483" d="M635.919,184.11a15.381,15.381,0,0,0-1.456,1.124c-3.858-4.548-3.1-3.474-7-7.985q-2.865-3.316-5.733-6.634c-1.983-2.3-3.851-4.748-5.959-6.937a.068.068,0,0,0-.1.088c1.466,2.282,3.219,4.409,4.906,6.54-.336-.312-.659-.637-1.014-.93-.793-.661-1.573-1.323-2.311-2.043-.112-.109-.3.048-.189.16.7.688,1.354,1.412,2,2.153s1.339,1.429,2.039,2.123c.675.668,1.392,1.285,2.113,1.9.088.075.176.153.262.228,1.073,1.33,2.129,2.676,3.232,3.982a73.132,73.132,0,0,0,7.626,7.972,14.829,14.829,0,0,0,1.688-1.615c.062-.074-.035-.155-.108-.129" transform="translate(257.369 68.414)" fill="#263238"/>
            <path id="Trazado_628484" data-name="Trazado 628484" d="M602.078,163.825c3.471-.445,9.512-8.127,11.363-14.041.123-.406-1.207-4.145-2.609-8.765-.841-2.806-1.71-5.95-2.3-8.877l-17.465,8.137a47.564,47.564,0,0,1,4.023,10.883,6.8,6.8,0,0,1,.115,1.225c0,.055,0,.128.013.206.085,2.355,1.419,11.93,6.856,11.232" transform="translate(247.091 55.241)" fill="#f7a9a0"/>
            <path id="Trazado_628485" data-name="Trazado 628485" d="M595.213,152.251a1.545,1.545,0,0,1,.006.208,13.03,13.03,0,0,0,1.917-.282c10.59-2.368,10.614-15.991,10.417-19.7l-16.486,7.665a47.627,47.627,0,0,1,4.03,10.878,8.672,8.672,0,0,1,.116,1.235" transform="translate(247.089 55.379)" fill="#263238"/>
            <path id="Trazado_628486" data-name="Trazado 628486" d="M613.663,121.288c2.205,6.581-.777,25.847-5.38,30.25-6.675,6.383-17.86,7.28-23.349-.8-5.319-7.833-.988-32.872,4.178-36.9,7.609-5.933,21.293-2.269,24.552,7.452" transform="translate(243.509 46.39)" fill="#f7a9a0"/>
            <path id="Trazado_628487" data-name="Trazado 628487" d="M592.418,126.757c.02-.047.089.081.077.133-.292,1.28-.41,2.8.674,3.451.033.021.017.085-.026.071-1.384-.478-1.207-2.489-.725-3.656" transform="translate(247.506 52.985)" fill="#263238"/>
            <path id="Trazado_628488" data-name="Trazado 628488" d="M593.8,125.965c2.1.247,1.456,4.436-.492,4.207-1.919-.224-1.272-4.413.492-4.207" transform="translate(247.538 52.655)" fill="#263238"/>
            <path id="Trazado_628489" data-name="Trazado 628489" d="M587.773,125.8c0-.051-.111.045-.118.1-.159,1.3-.56,2.771-1.8,3.02-.038.007-.045.074,0,.074,1.465.02,1.978-1.933,1.92-3.193" transform="translate(244.897 52.582)" fill="#263238"/>
            <path id="Trazado_628490" data-name="Trazado 628490" d="M587.13,124.722c-2.063-.481-2.873,3.68-.961,4.125,1.88.438,2.69-3.722.961-4.125" transform="translate(244.589 52.123)" fill="#263238"/>
            <path id="Trazado_628491" data-name="Trazado 628491" d="M595.572,125.756a16.4,16.4,0,0,1-1.534-.822,2.814,2.814,0,0,1-1.405-1.136.9.9,0,0,1,.309-1.051,2.226,2.226,0,0,1,2.249.115,3.265,3.265,0,0,1,1.644,1.683.956.956,0,0,1-1.262,1.211" transform="translate(247.715 51.204)" fill="#263238"/>
            <path id="Trazado_628492" data-name="Trazado 628492" d="M585.857,122.508a16.845,16.845,0,0,0,1.731-.174,2.819,2.819,0,0,0,1.731-.516.894.894,0,0,0,.116-1.088,2.221,2.221,0,0,0-2.123-.752,3.271,3.271,0,0,0-2.161.929.956.956,0,0,0,.7,1.6" transform="translate(244.504 50.15)" fill="#263238"/>
            <path id="Trazado_628493" data-name="Trazado 628493" d="M592.615,135.443c-.357.257-.733.627-1.21.593a3.444,3.444,0,0,1-1.344-.542.046.046,0,0,0-.067.058,1.766,1.766,0,0,0,1.539.959,1.4,1.4,0,0,0,1.2-.99c.031-.072-.064-.115-.116-.078" transform="translate(246.639 56.615)" fill="#263238"/>
            <path id="Trazado_628494" data-name="Trazado 628494" d="M593.486,136.96a4.471,4.471,0,0,1-3.253,1.51,5.625,5.625,0,0,1-1.6-.173,1.609,1.609,0,0,1-.3-.081c-.092-.027-.177-.051-.278-.088a.329.329,0,0,1-.216-.33v-.01a.7.7,0,0,1,.033-.13l0-.01.02-.113c.126-1,.458-2.508.458-2.508-.393.126-2.384.676-2.275.159a67.305,67.305,0,0,1,3.78-13.107.121.121,0,0,1,.231.069c-.726,4.149-2.178,8.144-2.974,12.3a7.812,7.812,0,0,1,2.182-.312c.136.064-.692,2.9-.713,3.352a.193.193,0,0,0,0,.05,6.2,6.2,0,0,0,4.793-.715c.108-.058.2.045.1.136" transform="translate(245.003 51.002)" fill="#263238"/>
            <path id="Trazado_628495" data-name="Trazado 628495" d="M588.35,133.484a5.308,5.308,0,0,0,1.848,1.951,2.386,2.386,0,0,0,1.419.311c1.078-.112,1.251-1.059,1.187-1.9a5.668,5.668,0,0,0-.274-1.317,6.87,6.87,0,0,1-4.18.959" transform="translate(245.953 55.401)" fill="#263238"/>
            <path id="Trazado_628496" data-name="Trazado 628496" d="M589.653,135.047a2.386,2.386,0,0,0,1.419.311c1.078-.112,1.251-1.059,1.185-1.9a2.467,2.467,0,0,0-2.6,1.592" transform="translate(246.498 55.787)" fill="#ff9bbc"/>
            <path id="Trazado_628497" data-name="Trazado 628497" d="M612.858,141.824s6.974-11.5,6.329-18.151c-.291-3.006-4.386-5.034-4.386-5.034a6.8,6.8,0,0,0-2.143-6.835c-3.552-3.348-12.162-2.6-12.162-2.6s-5.576-8.069-13.473-4.875-2.761,12.147-2.761,12.147-2.9,4.108,4.175,7.328c6.889,3.134,20.979.065,20.979.065a49.029,49.029,0,0,0,.21,14.59,4.462,4.462,0,0,0,3.233,3.368" transform="translate(243.558 43.3)" fill="#263238"/>
            <path id="Trazado_628498" data-name="Trazado 628498" d="M594.284,107.914a13.847,13.847,0,0,1,5.555-1.011,14.94,14.94,0,0,1,5,.786c2.839,1.022,5.363,3.117,5.839,6.237a5.784,5.784,0,0,1-1.106,4.369c-.038.052-.115-.018-.072-.069,1.828-2.259.869-5.774-1.015-7.669-2.133-2.143-5.394-2.957-8.33-3.083a24.381,24.381,0,0,0-5.822.611.089.089,0,0,1-.05-.17" transform="translate(248.408 44.69)" fill="#263238"/>
            <path id="Trazado_628499" data-name="Trazado 628499" d="M581.818,108.206A6.75,6.75,0,0,1,586.5,103.9a11.516,11.516,0,0,1,7.474.265,14.518,14.518,0,0,1,6.11,4.536c.035.044-.041.106-.078.062a12.757,12.757,0,0,0-12.2-4.548,6.242,6.242,0,0,0-4.885,9.314,13.007,13.007,0,0,0,5.072,5.091.043.043,0,0,1-.041.075,13.349,13.349,0,0,1-5.057-4.321,7.553,7.553,0,0,1-1.075-6.168" transform="translate(243.113 43.225)" fill="#263238"/>
            <path id="Trazado_628500" data-name="Trazado 628500" d="M593.364,135.413a5.7,5.7,0,1,1,1.391.282,5.714,5.714,0,0,1-1.391-.282m-2.867-6.984a4.944,4.944,0,1,0,6.261-3.11,4.883,4.883,0,0,0-1.2-.244,4.952,4.952,0,0,0-5.057,3.354" transform="translate(246.424 51.961)" fill="#455a64"/>
            <path id="Trazado_628501" data-name="Trazado 628501" d="M584.83,133.812c-2.3-.447-3.68-3.324-3.08-6.411a6.813,6.813,0,0,1,1.944-3.685,3.553,3.553,0,0,1,5.973,1.16,6.8,6.8,0,0,1,.423,4.146c-.569,2.921-2.711,5-4.888,4.84a3.069,3.069,0,0,1-.372-.05m-.615-9.541a6.062,6.062,0,0,0-1.716,3.276c-.519,2.673.591,5.149,2.477,5.515s3.844-1.51,4.365-4.187a6.045,6.045,0,0,0-.364-3.676,3.043,3.043,0,0,0-2.114-1.839,2.836,2.836,0,0,0-.286-.04,3.146,3.146,0,0,0-2.361.952" transform="translate(243.136 51.23)" fill="#455a64"/>
            <path id="Trazado_628502" data-name="Trazado 628502" d="M590.776,128.106l.593-.481c-.711-.878-2.489-2.219-4.141-1.021l.448.617c1.478-1.075,3.033.805,3.1.885" transform="translate(245.484 52.727)" fill="#455a64"/>
            <path id="Trazado_628503" data-name="Trazado 628503" d="M611.3,133.66l.732-.214c-.1-.342-1.024-3.352-2.645-3.949-1.514-.553-11.734-1.563-12.168-1.605l-.074.759c2.93.286,10.81,1.132,11.98,1.563,1.069.394,1.931,2.622,2.175,3.447" transform="translate(249.632 53.463)" fill="#455a64"/>
            <path id="Trazado_628504" data-name="Trazado 628504" d="M602.2,130.8s4.292-6.232,7.117-4.706-.372,10.539-3.666,11.792a3.359,3.359,0,0,1-4.515-1.774Z" transform="translate(251.299 52.612)" fill="#f7a9a0"/>
            <path id="Trazado_628505" data-name="Trazado 628505" d="M607.8,127.829a.046.046,0,0,1,.018.088c-2.31.956-3.514,3.111-4.352,5.345a1.853,1.853,0,0,1,2.771-.526c.061.043,0,.138-.061.123a2.07,2.07,0,0,0-2.27.737,10.037,10.037,0,0,0-1.075,1.848c-.108.208-.482.1-.406-.139l.018-.054c-.079-2.952,2.188-7.1,5.356-7.422" transform="translate(251.834 53.437)" fill="#263238"/>
            <path id="Trazado_628506" data-name="Trazado 628506" d="M614.43,145.983c-1.653,3.147-2.819,6.01-4.762,8.613-1.821,2.439-4.111,4.75-7.048,5.588-2.843.81-5.847.761-7.582-2.592-1.377-2.659-1.781-5.587-1.964-9.287a.111.111,0,1,0-.22.006c.215,4.773.875,12.1,5.387,12.92,5.047.913,9.209-2.391,11.906-6.278a46.918,46.918,0,0,0,4.38-8.915c.026-.06-.067-.113-.1-.055" transform="translate(247.836 61.016)" fill="#263238"/>
            <rect id="Rectángulo_328727" data-name="Rectángulo 328727" width="90.664" height="4.061" transform="translate(805.928 320.291)" fill="#c7c7c7"/>
            <path id="Trazado_628507" data-name="Trazado 628507" d="M568.34,225.87v4.061h61.629l-3.107-4.061Z" transform="translate(237.588 94.422)" fill="#a6a6a6"/>
            <path id="Trazado_628508" data-name="Trazado 628508" d="M635.069,246.426H546.708l-7.355-60.011h88.359Z" transform="translate(225.47 77.928)" fill="#c7c7c7"/>
            <path id="Trazado_628509" data-name="Trazado 628509" d="M580.066,209.16a5.266,5.266,0,0,1-5.284,5.379,5.5,5.5,0,0,1-5.474-5.379,5.267,5.267,0,0,1,5.285-5.379,5.494,5.494,0,0,1,5.472,5.379" transform="translate(237.993 85.188)" fill="#fff"/>
          </g>
        </g>
      </g>
    </g>
  </g>
</svg>
