<svg id="Grupo_879837" data-name="Grupo 879837" xmlns="http://www.w3.org/2000/svg" xmlns:xlink="http://www.w3.org/1999/xlink" width="520.469" height="348.054" viewBox="0 0 520.469 348.054">
  <defs>
    <clipPath id="clip-path">
      <rect id="Rectángulo_329157" data-name="Rectángulo 329157" width="520.469" height="348.054" fill="none"/>
    </clipPath>
    <clipPath id="clip-path-5">
      <rect id="Rectángulo_329145" data-name="Rectángulo 329145" width="93.855" height="39.447" fill="none"/>
    </clipPath>
    <clipPath id="clip-path-6">
      <rect id="Rectángulo_329146" data-name="Rectángulo 329146" width="14.35" height="19.662" fill="none"/>
    </clipPath>
    <clipPath id="clip-path-7">
      <rect id="Rectángulo_329147" data-name="Rectángulo 329147" width="26.883" height="15.154" fill="none"/>
    </clipPath>
    <clipPath id="clip-path-8">
      <rect id="Rectángulo_329148" data-name="Rectángulo 329148" width="52.154" height="33.66" fill="none"/>
    </clipPath>
    <clipPath id="clip-path-9">
      <rect id="Rectángulo_329149" data-name="Rectángulo 329149" width="20.712" height="57.496" fill="none"/>
    </clipPath>
  </defs>
  <g id="Grupo_879836" data-name="Grupo 879836" clip-path="url(#clip-path)">
    <path id="Trazado_631474" data-name="Trazado 631474" d="M432.972,323.717l7.969,4.785-8.094,4.8-8.094,4.8.125-9.586.125-9.585Z" transform="translate(-81.721 -61.362)" fill="#e0e0e0"/>
    <path id="Trazado_631475" data-name="Trazado 631475" d="M46.761,383.941v37.281H161.409V383.941Z" transform="translate(-8.997 -73.869)" fill="#f5f5f5"/>
    <path id="Trazado_631476" data-name="Trazado 631476" d="M40.805,371.035v10.423H164.273V371.035H40.805Z" transform="translate(-7.851 -71.386)" fill="#e0e0e0"/>
    <path id="Trazado_631477" data-name="Trazado 631477" d="M114.267,371.036v9.459l2.406,38.244H174.4V381.458h4.009V371.036Z" transform="translate(-21.985 -71.386)" fill="#e0e0e0"/>
    <rect id="Rectángulo_329136" data-name="Rectángulo 329136" width="23.25" height="5.612" transform="translate(53.799 316.084)" fill="#e0e0e0"/>
    <rect id="Rectángulo_329137" data-name="Rectángulo 329137" width="29.855" height="11.85" transform="translate(50.807 328.711)" fill="#fff"/>
    <path id="Trazado_631478" data-name="Trazado 631478" d="M68.6,324.935v37.281H183.25V324.935Z" transform="translate(-13.199 -62.516)" fill="#f5f5f5"/>
    <path id="Trazado_631479" data-name="Trazado 631479" d="M62.646,312.029v10.423H186.113V312.029H62.646Z" transform="translate(-12.053 -60.033)" fill="#e0e0e0"/>
    <path id="Trazado_631480" data-name="Trazado 631480" d="M138.513,359.732h57.725V322.451h4.008V312.028H136.107v9.459Z" transform="translate(-26.187 -60.033)" fill="#e0e0e0"/>
    <rect id="Rectángulo_329138" data-name="Rectángulo 329138" width="23.25" height="5.612" transform="translate(71.438 268.43)" fill="#e0e0e0"/>
    <rect id="Rectángulo_329139" data-name="Rectángulo 329139" width="29.855" height="11.85" transform="translate(68.446 281.058)" fill="#fff"/>
    <g id="Grupo_879812" data-name="Grupo 879812">
      <g id="Grupo_879811" data-name="Grupo 879811" clip-path="url(#clip-path)">
        <path id="Trazado_631481" data-name="Trazado 631481" d="M580.318,248.611H445.308a6.353,6.353,0,0,1-6.353-6.353V163.413a6.353,6.353,0,0,1,6.353-6.353H580.318a6.353,6.353,0,0,1,6.353,6.353v78.845a6.353,6.353,0,0,1-6.353,6.353" transform="translate(-84.454 -30.218)" fill="#e0e0e0"/>
        <path id="Trazado_631482" data-name="Trazado 631482" d="M538.98,212.6a11.252,11.252,0,1,1-11.252-11.252A11.252,11.252,0,0,1,538.98,212.6" transform="translate(-99.368 -38.739)" fill="#ebebeb"/>
        <path id="Trazado_631483" data-name="Trazado 631483" d="M527.051,217.676v-6.639a.423.423,0,0,1,.63-.368l5.934,3.345a.423.423,0,0,1,0,.737l-5.934,3.294a.422.422,0,0,1-.628-.369" transform="translate(-101.403 -40.521)" fill="#fff"/>
        <path id="Trazado_631484" data-name="Trazado 631484" d="M449.133,257.092v.237H448.02v-.187l.6-.57c.147-.14.173-.229.173-.312,0-.138-.1-.218-.281-.218a.423.423,0,0,0-.353.158l-.2-.151a.7.7,0,0,1,.573-.25c.328,0,.539.166.539.434a.6.6,0,0,1-.25.476l-.4.384Z" transform="translate(-86.187 -49.215)" fill="#fff"/>
        <path id="Trazado_631485" data-name="Trazado 631485" d="M449.6,256.43a.177.177,0,1,1,.178.179.176.176,0,0,1-.178-.179m0,.822a.177.177,0,1,1,.355,0,.177.177,0,1,1-.355,0" transform="translate(-86.501 -49.302)" fill="#fff"/>
        <path id="Trazado_631486" data-name="Trazado 631486" d="M450.762,255.824v1.509h-.28v-1.274h-.319v-.235Z" transform="translate(-86.61 -49.22)" fill="#fff"/>
        <path id="Trazado_631487" data-name="Trazado 631487" d="M452.614,256.991h-.267v.343h-.272v-.343h-.828V256.8l.744-.972h.3l-.7.929h.493v-.3h.263v.3h.267Z" transform="translate(-86.818 -49.22)" fill="#fff"/>
        <rect id="Rectángulo_329140" data-name="Rectángulo 329140" width="114.403" height="0.606" transform="translate(368.258 207.127)" fill="#fff"/>
        <rect id="Rectángulo_329141" data-name="Rectángulo 329141" width="35.752" height="1.615" transform="translate(368.172 206.495)" fill="#ebebeb"/>
        <path id="Trazado_631488" data-name="Trazado 631488" d="M500.75,256.431a1.74,1.74,0,1,1-1.74-1.74,1.741,1.741,0,0,1,1.74,1.74" transform="translate(-95.673 -49.002)" fill="#ebebeb"/>
        <path id="Trazado_631489" data-name="Trazado 631489" d="M600.928,256.572a.5.5,0,0,1-.552.489c-.411,0-.653-.265-.653-.75a.715.715,0,0,1,.74-.8.755.755,0,0,1,.4.1l-.1.212a.507.507,0,0,0-.287-.074c-.285,0-.464.177-.464.52v0a.514.514,0,0,1,.4-.157.472.472,0,0,1,.52.464m-.272.013c0-.158-.119-.256-.3-.256a.274.274,0,0,0-.306.258c0,.142.112.254.313.254a.261.261,0,0,0,.295-.256" transform="translate(-115.385 -49.159)" fill="#fff"/>
        <path id="Trazado_631490" data-name="Trazado 631490" d="M601.381,256.141a.177.177,0,1,1,.178.179.176.176,0,0,1-.178-.179m0,.822a.177.177,0,1,1,.178.179.177.177,0,0,1-.178-.179" transform="translate(-115.704 -49.246)" fill="#fff"/>
        <path id="Trazado_631491" data-name="Trazado 631491" d="M602.042,256.285c0-.5.272-.776.63-.776s.632.28.632.776-.272.776-.632.776-.63-.28-.63-.776m.98,0c0-.364-.143-.532-.35-.532s-.346.168-.346.532.142.532.346.532.35-.168.35-.532" transform="translate(-115.831 -49.159)" fill="#fff"/>
        <path id="Trazado_631492" data-name="Trazado 631492" d="M603.835,256.285c0-.5.272-.776.63-.776s.632.28.632.776-.272.776-.632.776-.63-.28-.63-.776m.98,0c0-.364-.143-.532-.35-.532s-.346.168-.346.532.142.532.346.532.35-.168.35-.532" transform="translate(-116.176 -49.159)" fill="#fff"/>
        <path id="Trazado_631493" data-name="Trazado 631493" d="M608.32,255.986h-.606v-1.546h1.542v.606h-.937Z" transform="translate(-116.922 -48.954)" fill="#fff"/>
        <path id="Trazado_631494" data-name="Trazado 631494" d="M609.258,258.47h-1.546v-1.543h.606v.937h.94Z" transform="translate(-116.922 -49.432)" fill="#fff"/>
        <path id="Trazado_631495" data-name="Trazado 631495" d="M612.276,258.469h-1.543v-.606h.937v-.94h.606Z" transform="translate(-117.503 -49.431)" fill="#fff"/>
        <path id="Trazado_631496" data-name="Trazado 631496" d="M612.277,255.983h-.606v-.937h-.94v-.606h1.546Z" transform="translate(-117.503 -48.954)" fill="#fff"/>
        <path id="Trazado_631497" data-name="Trazado 631497" d="M588.442,168.04a24.177,24.177,0,0,1,3.112-.17l.168,0,0,.173c.012,1.18.026,2.513.04,3.953l0,.51-.363-.363-.414-.414-1.055-1.06.284.007-1.655,1.455-.312.275.006-.411c.018-1.224.059-2.236.094-2.923a4.742,4.742,0,0,1,.091-1.031,7.952,7.952,0,0,1,.09,1.148c.035.7.076,1.662.094,2.8l-.307-.137,1.625-1.488.144-.132.14.14,1.06,1.054.414.415-.358.149c.015-1.44.028-2.773.04-3.953l.169.17a30.55,30.55,0,0,1-3.112-.17" transform="translate(-113.178 -32.297)" fill="#fff"/>
        <path id="Trazado_631498" data-name="Trazado 631498" d="M601.466,168.636a10.956,10.956,0,0,1-.753.962c-.51.632-1.275,1.579-2.209,2.631l-.348.392,0-.527c0-.619-.006-1.277-.01-1.96v-.192l.064.152-1.379-1.342-.359-.35.5.007c1.367.019,2.542.09,3.324.137a10.427,10.427,0,0,1,1.173.089c-.041.019-.552.035-1.359.074s-1.886.1-3.14.1l.139-.342,1.394,1.326.065.061v.282c0,.683-.006,1.341-.01,1.96l-.35-.134c.873-.955,1.664-1.739,2.258-2.334s.961-.972,1-.991" transform="translate(-114.759 -32.4)" fill="#fff"/>
        <path id="Trazado_631499" data-name="Trazado 631499" d="M601.914,168.685c.045.107-.615.486-1.475.847s-1.592.567-1.637.46.615-.486,1.475-.847,1.592-.567,1.637-.46" transform="translate(-115.207 -32.449)" fill="#fff"/>
        <path id="Trazado_631500" data-name="Trazado 631500" d="M608.995,168.072c0-.022.2-.07.558-.01a2.2,2.2,0,0,1,1.312.791,2.339,2.339,0,0,1,.382,2.239,2.386,2.386,0,0,1-4.5,0,2.337,2.337,0,0,1,.382-2.239,2.2,2.2,0,0,1,1.312-.791c.36-.06.56-.011.558.01s-.2.045-.518.149a2.206,2.206,0,0,0-1.115.812,2.064,2.064,0,0,0-.254,1.928,2.016,2.016,0,0,0,3.775,0,2.065,2.065,0,0,0-.254-1.928,2.205,2.205,0,0,0-1.115-.812c-.322-.1-.518-.113-.518-.149" transform="translate(-116.71 -32.329)" fill="#fff"/>
        <path id="Trazado_631501" data-name="Trazado 631501" d="M610.217,171.425c-.082.082-.567-.271-1.087-.79l-.061-.061v-.1c0-.741.094-1.34.21-1.34s.21.6.21,1.34v.013l-.061-.149c.519.52.871,1.005.79,1.087" transform="translate(-117.183 -32.541)" fill="#fff"/>
        <path id="Trazado_631502" data-name="Trazado 631502" d="M527.157,171.741c0,.116-15.181.21-33.9.21s-33.907-.094-33.907-.21,15.178-.21,33.907-.21,33.9.094,33.9.21" transform="translate(-88.377 -33.002)" fill="#fff"/>
        <path id="Trazado_631503" data-name="Trazado 631503" d="M454.109,171.154a2.674,2.674,0,1,1-2.674-2.674,2.674,2.674,0,0,1,2.674,2.674" transform="translate(-86.34 -32.415)" fill="#fff"/>
      </g>
    </g>
    <g id="Grupo_879814" data-name="Grupo 879814">
      <g id="Grupo_879813" data-name="Grupo 879813" clip-path="url(#clip-path)">
        <path id="Trazado_631504" data-name="Trazado 631504" d="M535.2,339.712c-.076.094-.707-.286-1.411-.849s-1.213-1.1-1.137-1.191.708.285,1.411.849,1.213,1.1,1.137,1.191" transform="translate(-102.479 -64.964)" fill="#263238"/>
        <path id="Trazado_631505" data-name="Trazado 631505" d="M554.659,301.45a22.181,22.181,0,0,0-.655-7.977c-.846-2.546-2.81-4.888-5.437-5.432-3-.621-6.072,1.272-7.752,3.832s-2.258,5.669-2.755,8.691a306.958,306.958,0,0,0-3.762,63.084l12.272,1.72c5.39-22.021,7.109-41.269,8.089-63.919" transform="translate(-102.741 -55.395)" fill="#455a64"/>
        <path id="Trazado_631506" data-name="Trazado 631506" d="M547.776,287.953a.69.69,0,0,1-.056.2c-.054.15-.121.333-.2.556q-.3.779-.817,2.12c-.171.462-.4.962-.581,1.534s-.383,1.194-.6,1.859l-.687,2.134-.634,2.433a106.863,106.863,0,0,0-2.37,12.144c-.664,4.615-1.1,9.727-1.442,15.1-.628,10.752-.726,20.511-1,27.568-.132,3.529-.252,6.385-.387,8.355q-.1,1.434-.154,2.269c-.02.237-.037.43-.051.589a.7.7,0,0,1-.032.2.662.662,0,0,1-.013-.2c0-.159,0-.354.008-.591q.027-.835.071-2.273c.083-1.972.157-4.828.248-8.356.2-7.057.246-16.817.875-27.586.343-5.379.792-10.5,1.479-15.128A101.7,101.7,0,0,1,543.9,298.7q.35-1.277.666-2.433l.722-2.131.632-1.853c.2-.569.435-1.066.619-1.525q.567-1.323.9-2.092l.243-.539a.71.71,0,0,1,.1-.178" transform="translate(-103.654 -55.401)" fill="#263238"/>
        <path id="Trazado_631507" data-name="Trazado 631507" d="M550.649,287.961a8.787,8.787,0,0,1,1.5,2.539,18.793,18.793,0,0,1,1.119,7.938c-.326,6.781-.934,16.125-1.74,26.441s-1.711,19.645-2.435,26.387c-.362,3.372-.676,6.1-.907,7.979q-.174,1.367-.278,2.166l-.083.562a.679.679,0,0,1-.044.19.641.641,0,0,1,0-.195c.01-.154.023-.34.04-.567q.073-.8.2-2.175c.186-1.927.447-4.647.768-7.991.645-6.748,1.495-16.076,2.307-26.39s1.463-19.658,1.867-26.418a19.2,19.2,0,0,0-.968-7.864,16.472,16.472,0,0,0-1.341-2.6" transform="translate(-105.39 -55.403)" fill="#263238"/>
        <path id="Trazado_631508" data-name="Trazado 631508" d="M560.8,326.9a13.19,13.19,0,0,1-4.5-1.615,13.146,13.146,0,0,1,4.5,1.615" transform="translate(-107.029 -62.578)" fill="#263238"/>
        <path id="Trazado_631509" data-name="Trazado 631509" d="M562.6,311.8a14.617,14.617,0,0,1-4.6,2.06,14.636,14.636,0,0,1,4.6-2.06" transform="translate(-107.357 -59.985)" fill="#263238"/>
        <path id="Trazado_631510" data-name="Trazado 631510" d="M561.886,299.072a7.646,7.646,0,0,1-3.629-.25,7.648,7.648,0,0,1,3.629.25" transform="translate(-107.407 -57.468)" fill="#263238"/>
        <path id="Trazado_631511" data-name="Trazado 631511" d="M546.583,290.295c-.1.065-.64-.6-1.2-1.5s-.931-1.664-.829-1.729.64.606,1.2,1.5.931,1.664.829,1.729" transform="translate(-104.767 -55.231)" fill="#263238"/>
        <path id="Trazado_631512" data-name="Trazado 631512" d="M541.061,298.644a6.99,6.99,0,0,1-3.477-.074,7.015,7.015,0,0,1,3.477.074" transform="translate(-103.429 -57.408)" fill="#263238"/>
        <path id="Trazado_631513" data-name="Trazado 631513" d="M537.334,313.654a4.261,4.261,0,0,1-1.835-.5c-.967-.39-1.715-.8-1.67-.91a4.256,4.256,0,0,1,1.834.5c.967.39,1.715.8,1.671.909" transform="translate(-102.707 -60.069)" fill="#263238"/>
        <path id="Trazado_631514" data-name="Trazado 631514" d="M537.006,326.843c.025.119-.674.365-1.561.552s-1.627.241-1.652.123.674-.366,1.561-.552,1.627-.241,1.652-.123" transform="translate(-102.7 -62.872)" fill="#263238"/>
        <path id="Trazado_631515" data-name="Trazado 631515" d="M535.213,347.878c.021.12-.721.352-1.657.52a3.582,3.582,0,0,1-1.735.088c-.021-.12.72-.352,1.658-.52a3.568,3.568,0,0,1,1.735-.088" transform="translate(-102.32 -66.917)" fill="#263238"/>
        <path id="Trazado_631516" data-name="Trazado 631516" d="M534.15,359.5c.057.107-.562.545-1.382.979s-1.531.7-1.588.592.562-.545,1.383-.98,1.53-.7,1.587-.591" transform="translate(-102.197 -69.162)" fill="#263238"/>
        <path id="Trazado_631517" data-name="Trazado 631517" d="M543.852,371.841c-.105.061-.645-.684-1.2-1.663a4.921,4.921,0,0,1-.824-1.88c.105-.061.644.684,1.2,1.663a4.948,4.948,0,0,1,.825,1.88" transform="translate(-104.242 -70.859)" fill="#263238"/>
        <path id="Trazado_631518" data-name="Trazado 631518" d="M546.362,350.782c.085.086-.516.813-1.341,1.622s-1.564,1.4-1.649,1.309.516-.812,1.342-1.622,1.564-1.4,1.648-1.309" transform="translate(-104.541 -67.488)" fill="#263238"/>
        <path id="Trazado_631519" data-name="Trazado 631519" d="M545.952,338.732c-.089.082-.646-.375-1.245-1.021s-1.012-1.237-.923-1.32.646.375,1.245,1.022,1.012,1.236.923,1.319" transform="translate(-104.62 -64.719)" fill="#263238"/>
        <path id="Trazado_631520" data-name="Trazado 631520" d="M547.738,324.606c.09.081-.41.787-1.119,1.576s-1.354,1.365-1.445,1.284.41-.787,1.119-1.576,1.355-1.365,1.445-1.284" transform="translate(-104.888 -62.452)" fill="#263238"/>
        <path id="Trazado_631521" data-name="Trazado 631521" d="M548.739,313.29c-.085.086-.783-.463-1.56-1.226s-1.338-1.453-1.253-1.539.783.463,1.56,1.227,1.338,1.452,1.253,1.538" transform="translate(-105.033 -59.742)" fill="#263238"/>
        <path id="Trazado_631522" data-name="Trazado 631522" d="M551.024,299.545a4.3,4.3,0,0,1-.783,1.742c-.537.9-1.056,1.579-1.161,1.517a4.309,4.309,0,0,1,.784-1.742c.536-.9,1.056-1.579,1.16-1.517" transform="translate(-105.638 -57.631)" fill="#263238"/>
        <path id="Trazado_631523" data-name="Trazado 631523" d="M554.977,286.2a4.148,4.148,0,0,1-.693,1.744c-.49.905-.972,1.593-1.079,1.534a4.143,4.143,0,0,1,.693-1.743c.489-.905.972-1.593,1.079-1.535" transform="translate(-106.431 -55.063)" fill="#263238"/>
        <path id="Trazado_631524" data-name="Trazado 631524" d="M559.276,292.252c.053.109-.438.453-1.1.768s-1.234.481-1.286.371.439-.453,1.1-.767,1.233-.481,1.286-.372" transform="translate(-107.144 -56.222)" fill="#263238"/>
        <path id="Trazado_631525" data-name="Trazado 631525" d="M558.883,339.743a7.5,7.5,0,0,1-4.481-1.912,94.874,94.874,0,0,1,4.481,1.912" transform="translate(-106.664 -64.995)" fill="#263238"/>
        <path id="Trazado_631526" data-name="Trazado 631526" d="M557.33,350.342c.023.119-.716.362-1.651.542a3.584,3.584,0,0,1-1.734.111c-.023-.12.716-.362,1.651-.542a3.584,3.584,0,0,1,1.734-.111" transform="translate(-106.577 -67.392)" fill="#263238"/>
        <path id="Trazado_631527" data-name="Trazado 631527" d="M555.178,366.854a6.95,6.95,0,0,1-3.041-3.834,526.836,526.836,0,0,0,3.041,3.834" transform="translate(-106.226 -69.844)" fill="#263238"/>
        <path id="Trazado_631528" data-name="Trazado 631528" d="M531.48,375.215c-.08-.092.419-.648,1.113-1.24s1.32-1,1.4-.908-.419.648-1.112,1.24-1.321,1-1.4.908" transform="translate(-102.253 -71.774)" fill="#263238"/>
        <path id="Trazado_631529" data-name="Trazado 631529" d="M522.174,336.434c-.8-2.494-2.3-5.4-4.916-5.439a4.351,4.351,0,0,0-3.682,2.464,9.089,9.089,0,0,0-1,4.514,117.618,117.618,0,0,0,5.628,32.686h9.581a113.84,113.84,0,0,0-5.616-34.225" transform="translate(-98.618 -63.682)" fill="#455a64"/>
        <path id="Trazado_631530" data-name="Trazado 631530" d="M499.082,316.261a10.651,10.651,0,0,0-9.975-8.519c-4.235.743-5.878,4.913-6.381,9.182s.823,8.52,2.133,12.616q6.305,19.724,12.612,39.447l11.92-1.3c-3.773-17.616-5.939-33.946-10.309-51.425" transform="translate(-92.854 -59.209)" fill="#455a64"/>
        <path id="Trazado_631531" data-name="Trazado 631531" d="M517.991,330.995a10.122,10.122,0,0,0-.812,1.356,8.94,8.94,0,0,0-.448,4.236c.185,1.821.394,4.015.7,6.417s.745,5.044,1.284,7.8c1.084,5.505,2.3,10.444,3.079,14.044.393,1.8.689,3.26.875,4.273.08.466.146.852.2,1.169a.209.209,0,1,1-.086.018c-.077-.313-.169-.693-.281-1.152-.254-1.068-.6-2.5-1.01-4.239-.852-3.579-2.12-8.507-3.207-14.029-.539-2.76-.963-5.409-1.255-7.831-.153-1.21-.254-2.364-.351-3.444s-.205-2.077-.256-3a8.7,8.7,0,0,1,.6-4.328,3.8,3.8,0,0,1,.967-1.285" transform="translate(-99.351 -63.682)" fill="#263238"/>
        <path id="Trazado_631532" data-name="Trazado 631532" d="M490.007,307.322a15.9,15.9,0,0,0-1.44,1.936,13.6,13.6,0,0,0-1.815,6.237,28.854,28.854,0,0,0,1.475,9.6c1.047,3.548,2.2,7.44,3.4,11.527l6.1,20.97c.751,2.655,1.362,4.819,1.8,6.369.195.722.35,1.3.468,1.738a3.416,3.416,0,0,1,.134.615,3.363,3.363,0,0,1-.219-.59l-.548-1.715-1.934-6.33c-1.6-5.4-3.8-12.778-6.224-20.934-1.2-4.092-2.332-7.988-3.369-11.541a28.492,28.492,0,0,1-1.4-9.727,13.369,13.369,0,0,1,1.979-6.307,7.366,7.366,0,0,1,1.585-1.845" transform="translate(-93.581 -59.128)" fill="#263238"/>
        <path id="Trazado_631533" data-name="Trazado 631533" d="M508.187,366.389a3.372,3.372,0,0,1-.269-.571c-.157-.383-.41-.938-.679-1.677-.569-1.465-1.3-3.623-2.05-6.33s-1.5-5.971-2.222-9.613c-.691-3.65-1.449-7.654-2.245-11.857-.829-4.2-1.752-8.166-2.823-11.71a65.25,65.25,0,0,0-3.475-9.184,48.861,48.861,0,0,0-3.213-5.791c-.41-.668-.783-1.15-1-1.5a3.439,3.439,0,0,1-.334-.536,3.387,3.387,0,0,1,.4.484c.246.333.642.8,1.075,1.456a43.245,43.245,0,0,1,3.351,5.751,62.207,62.207,0,0,1,3.583,9.2,117.651,117.651,0,0,1,2.867,11.743c.784,4.207,1.53,8.213,2.211,11.865.7,3.641,1.408,6.9,2.124,9.61s1.393,4.873,1.912,6.353c.243.745.471,1.31.6,1.7a3.472,3.472,0,0,1,.187.6" transform="translate(-94.25 -59.185)" fill="#263238"/>
        <path id="Trazado_631534" data-name="Trazado 631534" d="M484.941,332.282c.028.118-.619.376-1.448.577s-1.523.269-1.551.151.619-.376,1.448-.577,1.523-.269,1.551-.151" transform="translate(-92.724 -63.919)" fill="#263238"/>
        <path id="Trazado_631535" data-name="Trazado 631535" d="M483.132,322.168a14.792,14.792,0,0,1-4.032.158,6.936,6.936,0,0,1,4.032-.158" transform="translate(-92.177 -61.94)" fill="#263238"/>
        <path id="Trazado_631536" data-name="Trazado 631536" d="M485.133,312.493c-.078.092-.726-.329-1.446-.939s-1.24-1.182-1.162-1.274.725.328,1.446.939,1.24,1.182,1.162,1.274" transform="translate(-92.835 -59.694)" fill="#263238"/>
        <path id="Trazado_631537" data-name="Trazado 631537" d="M490.169,304.506c.121.027.087.606.069,1.307s-.023,1.281-.145,1.3-.316-.565-.293-1.314.254-1.323.369-1.295" transform="translate(-94.236 -58.586)" fill="#263238"/>
        <path id="Trazado_631538" data-name="Trazado 631538" d="M499.059,308.517c.1.069-.192.657-.65,1.312s-.911,1.129-1.01,1.06.192-.657.651-1.312.91-1.129,1.01-1.06" transform="translate(-95.694 -59.357)" fill="#263238"/>
        <path id="Trazado_631539" data-name="Trazado 631539" d="M504.732,318.883c.046.112-.572.47-1.379.8s-1.5.5-1.544.392.572-.469,1.379-.8,1.5-.5,1.544-.393" transform="translate(-96.546 -61.346)" fill="#263238"/>
        <path id="Trazado_631540" data-name="Trazado 631540" d="M508.111,329.557a5.5,5.5,0,0,1-3.951.9,39.683,39.683,0,0,1,3.951-.9" transform="translate(-96.999 -63.4)" fill="#263238"/>
        <path id="Trazado_631541" data-name="Trazado 631541" d="M492.409,325.929c-.115-.036-.031-.632.187-1.33s.489-1.235.6-1.2.032.632-.187,1.331-.49,1.235-.606,1.2" transform="translate(-94.728 -62.221)" fill="#263238"/>
        <path id="Trazado_631542" data-name="Trazado 631542" d="M494.735,339.118a4.116,4.116,0,0,1,.539-1.791c.409-.942.83-1.665.942-1.617a4.13,4.13,0,0,1-.539,1.791c-.409.941-.829,1.665-.941,1.617" transform="translate(-95.18 -64.589)" fill="#263238"/>
        <path id="Trazado_631543" data-name="Trazado 631543" d="M488.214,343.336c-.047.114-.8-.093-1.716-.377s-1.652-.548-1.626-.668a3.224,3.224,0,0,1,1.757.25c.934.291,1.631.686,1.585.8" transform="translate(-93.288 -65.846)" fill="#263238"/>
        <path id="Trazado_631544" data-name="Trazado 631544" d="M491.708,354.519c.07.1-.44.584-1.14,1.083s-1.325.825-1.4.726.44-.583,1.14-1.083,1.325-.825,1.4-.726" transform="translate(-94.114 -68.205)" fill="#263238"/>
        <path id="Trazado_631545" data-name="Trazado 631545" d="M494.267,365.4c.027.118-.6.372-1.412.569s-1.485.261-1.514.143.6-.372,1.412-.569,1.484-.261,1.514-.143" transform="translate(-94.532 -70.29)" fill="#263238"/>
        <path id="Trazado_631546" data-name="Trazado 631546" d="M508.685,338.656c.061.1-.479.532-1.266.827s-1.476.33-1.5.214.6-.341,1.342-.624,1.358-.523,1.421-.417" transform="translate(-97.338 -65.151)" fill="#263238"/>
        <path id="Trazado_631547" data-name="Trazado 631547" d="M510.757,355.3c-.052.11-.7-.085-1.438-.434s-1.3-.721-1.25-.831.7.085,1.438.434,1.3.722,1.25.831" transform="translate(-97.75 -68.109)" fill="#263238"/>
        <path id="Trazado_631548" data-name="Trazado 631548" d="M514.159,367.386a4.53,4.53,0,0,1-1.9-.508c-1-.393-1.782-.8-1.738-.917a8.8,8.8,0,0,1,3.636,1.425" transform="translate(-98.223 -70.404)" fill="#263238"/>
        <path id="Trazado_631549" data-name="Trazado 631549" d="M495.543,376.608c-.06-.11.722-.636,1.625-1.349s1.6-1.344,1.7-1.26-.483.868-1.425,1.6a3.925,3.925,0,0,1-1.9,1" transform="translate(-95.34 -71.955)" fill="#263238"/>
        <path id="Trazado_631550" data-name="Trazado 631550" d="M504.866,370.385c-.125.015-.293-.643-.592-1.408s-.611-1.367-.509-1.441.6.455.917,1.282.3,1.557.184,1.566" transform="translate(-96.919 -70.712)" fill="#263238"/>
        <path id="Trazado_631551" data-name="Trazado 631551" d="M502.117,356.138c-.07.1-.571-.14-1.117-.532s-.932-.79-.861-.888.57.14,1.117.531.931.79.861.888" transform="translate(-96.224 -68.243)" fill="#263238"/>
        <path id="Trazado_631552" data-name="Trazado 631552" d="M524.357,333.625c.072.1-.415.579-1.088,1.075s-1.277.82-1.349.722.415-.578,1.089-1.075,1.276-.82,1.348-.722" transform="translate(-100.415 -64.185)" fill="#263238"/>
        <path id="Trazado_631553" data-name="Trazado 631553" d="M527.517,342.741c.011.117-.752.278-1.7.174s-1.655-.419-1.619-.531.768,0,1.666.1,1.64.138,1.648.262" transform="translate(-100.855 -65.864)" fill="#263238"/>
        <path id="Trazado_631554" data-name="Trazado 631554" d="M513.061,344.885c.026.115-.681.368-1.593.428s-1.646-.094-1.635-.212.729-.165,1.606-.225,1.6-.111,1.622.01" transform="translate(-98.09 -66.341)" fill="#263238"/>
        <path id="Trazado_631555" data-name="Trazado 631555" d="M514.438,335.9c-.009.116-.722.135-1.5-.226s-1.234-.911-1.152-.993.622.271,1.334.594,1.337.5,1.32.625" transform="translate(-98.464 -64.389)" fill="#263238"/>
        <path id="Trazado_631556" data-name="Trazado 631556" d="M528.827,352.263c-.065.1-.8-.241-1.632-.769s-1.463-1.037-1.4-1.139.795.242,1.632.769,1.463,1.037,1.4,1.14" transform="translate(-101.161 -67.404)" fill="#263238"/>
        <rect id="Rectángulo_329143" data-name="Rectángulo 329143" width="62.382" height="11.057" transform="translate(393.815 305.727)" fill="#ffb338"/>
        <path id="Trazado_631557" data-name="Trazado 631557" d="M493.4,389.536l7.586,33.04h37.179l8.3-33.04Z" transform="translate(-94.929 -74.946)" fill="#ffb338"/>
        <path id="Trazado_631558" data-name="Trazado 631558" d="M549.861,392.218c0,.121-14.071.22-31.425.22s-31.427-.1-31.427-.22S501.077,392,518.436,392s31.425.1,31.425.219" transform="translate(-93.699 -75.419)" fill="#263238"/>
        <path id="Trazado_631559" data-name="Trazado 631559" d="M521.507,344.616c-.1.064-.529-.433-.952-1.11s-.683-1.278-.58-1.342.528.433.951,1.11.683,1.278.581,1.342" transform="translate(-100.037 -65.83)" fill="#263238"/>
        <path id="Trazado_631560" data-name="Trazado 631560" d="M521.9,355.449c-.116-.038.031-.79.326-1.679s.628-1.578.742-1.54-.031.79-.327,1.679-.627,1.578-.741,1.54" transform="translate(-100.404 -67.768)" fill="#263238"/>
        <path id="Trazado_631561" data-name="Trazado 631561" d="M525.269,366.94c-.109.053-.575-.695-1.041-1.668a4.546,4.546,0,0,1-.646-1.857c.11-.052.576.695,1.042,1.668a4.554,4.554,0,0,1,.645,1.857" transform="translate(-100.731 -69.92)" fill="#263238"/>
        <path id="Trazado_631562" data-name="Trazado 631562" d="M517.515,376.534c-.091-.079.281-.658.831-1.292s1.072-1.085,1.163-1-.281.657-.832,1.292-1.071,1.084-1.162,1" transform="translate(-99.566 -72)" fill="#263238"/>
        <path id="Trazado_631563" data-name="Trazado 631563" d="M515.184,360.061c-.021.119-.621.113-1.341-.014s-1.286-.327-1.265-.446.621-.113,1.341.014,1.286.326,1.265.446" transform="translate(-98.618 -69.17)" fill="#263238"/>
      </g>
    </g>
    <g id="Grupo_879831" data-name="Grupo 879831">
      <g id="Grupo_879830" data-name="Grupo 879830" clip-path="url(#clip-path)">
        <path id="Trazado_631564" data-name="Trazado 631564" d="M334.486,149.155,291.71,133.794c2.8,33.39,5.523,67.6-3.357,99.91-.96,3.494-1.8,7.876.974,10.2,1.664,1.392,4.039,1.438,6.207,1.371q6.659-.2,13.284-.972c4.7-.545,9.714-1.466,13.06-4.811,2.806-2.806,3.939-6.832,4.882-10.685a280.321,280.321,0,0,0,7.726-79.653" transform="translate(-55.302 -25.742)" fill="#263238"/>
        <path id="Trazado_631565" data-name="Trazado 631565" d="M258.93,302.347,264,295.7l3.4-17.78,7.715-43.244s3.4-16.27,13.891-20.931l2.224,43.212-21.4,54.294Z" transform="translate(-49.817 -41.123)" fill="#2b95f9"/>
        <path id="Trazado_631566" data-name="Trazado 631566" d="M303.261,198.082l-6.307,7.467-9.617,4.274s-21.171,40.451-21.738,40.829-3.969,11.909-2.079,21.737a170.5,170.5,0,0,1,3.024,31.946c-.189,9.262-12.286,39.694-13.042,46.688s-3.213,34.024-3.213,34.024l106.987-.813a197.164,197.164,0,0,0-3.969-20.168s-.378-26.842-4.347-31.945c0,0,3.024-6.994,2.646-10.963s15.878-25.141,19.092-32.513,15.878-24.2,16.067-36.292-1.7-22.305-7.751-30.622S362,207.744,357.464,204.72l-8.884-11.342Z" transform="translate(-48.155 -37.205)" fill="#2b95f9"/>
        <path id="Trazado_631567" data-name="Trazado 631567" d="M268.654,401.291a1.856,1.856,0,0,1,0-.324c.008-.233.019-.548.032-.947.038-.856.092-2.079.159-3.641.132-3.186.323-7.755.557-13.393.1-2.827.2-5.925.239-9.25.023-1.663.024-3.382-.035-5.147a23.424,23.424,0,0,1,.547-5.473,85.272,85.272,0,0,1,3.495-11.227,53.971,53.971,0,0,0,1.847-5.9,25.2,25.2,0,0,0,.413-3.121q.16-1.591.32-3.2c.431-4.3.853-8.492,1.26-12.544q.305-3.038.6-5.964c.174-1.95.446-3.853.506-5.723a146.482,146.482,0,0,1,2.693-19.707c1.093-5.556,2.092-10.026,2.737-13.124.32-1.531.571-2.729.745-3.567.085-.392.151-.7.2-.927a1.926,1.926,0,0,1,.082-.313,1.865,1.865,0,0,1-.039.321c-.04.231-.093.54-.159.935-.157.841-.38,2.045-.668,3.583-.6,3.109-1.551,7.59-2.607,13.149a150.693,150.693,0,0,0-2.6,19.677c-.055,1.873-.321,3.775-.491,5.726q-.292,2.926-.592,5.967c-.4,4.054-.823,8.25-1.251,12.549q-.16,1.611-.321,3.2a25.641,25.641,0,0,1-.422,3.171,53.519,53.519,0,0,1-1.87,5.946,86.155,86.155,0,0,0-3.5,11.167,23.217,23.217,0,0,0-.557,5.379c.052,1.778.045,3.5.015,5.167-.057,3.33-.174,6.429-.29,9.257-.242,5.656-.5,10.23-.691,13.39-.1,1.562-.182,2.783-.237,3.638-.031.4-.056.712-.075.945a1.98,1.98,0,0,1-.04.321" transform="translate(-51.687 -53.447)" fill="#263238"/>
        <path id="Trazado_631568" data-name="Trazado 631568" d="M289.275,260.62c0-.863,3.794-15.525,11.729-27.772s9.66-22.942,9.66-22.942l.125-15.815.678,2.038,40.223-5.83,1.215,5.808-26.873,24.322s-12.435,2.415-12.954,2.76-23.8,37.432-23.8,37.432" transform="translate(-55.656 -36.613)" fill="#efbda8"/>
        <path id="Trazado_631569" data-name="Trazado 631569" d="M370.91,207.422a3.942,3.942,0,0,1-.354.562c-.245.36-.6.891-1.087,1.563-.955,1.349-2.372,3.276-4.175,5.617s-3.989,5.1-6.347,8.2c-1.178,1.555-2.4,3.2-3.633,4.926a11.04,11.04,0,0,1-1.011,1.289,2.451,2.451,0,0,1-1.546.806,3.038,3.038,0,0,1-1.687-.482c-.5-.288-.952-.6-1.43-.9l-5.536-3.556c-.893-.569-1.771-1.152-2.63-1.681a4.346,4.346,0,0,0-2.7-.791,5.4,5.4,0,0,0-2.466,1.154c-.729.549-1.45,1.113-2.2,1.569a15.7,15.7,0,0,1-4.487,1.869,15.9,15.9,0,0,1-6.987.162,10.25,10.25,0,0,1-1.07-.262,7.265,7.265,0,0,1-.769-.245,3.852,3.852,0,0,1-.615-.251,3.876,3.876,0,0,1,.641.17c.206.069.466.133.775.205s.664.156,1.069.222a16.257,16.257,0,0,0,6.884-.288,15.583,15.583,0,0,0,4.376-1.877c.73-.452,1.423-1,2.167-1.571a5.731,5.731,0,0,1,2.641-1.24,4.71,4.71,0,0,1,2.953.83c.885.539,1.748,1.11,2.648,1.68l5.54,3.549c.951.567,1.862,1.372,2.86,1.32a2.041,2.041,0,0,0,1.281-.68,10.932,10.932,0,0,0,.972-1.237c1.24-1.727,2.47-3.37,3.658-4.921,2.379-3.1,4.6-5.833,6.421-8.152s3.282-4.213,4.277-5.531l1.15-1.515a3.99,3.99,0,0,1,.422-.513" transform="translate(-61.6 -39.907)" fill="#263238"/>
        <path id="Trazado_631570" data-name="Trazado 631570" d="M308.071,258.335a7.591,7.591,0,0,1,.6-1.144c.408-.724,1.026-1.755,1.812-3.015,1.572-2.521,3.859-5.933,6.593-9.551s5.4-6.746,7.4-8.943c1-1.1,1.823-1.975,2.408-2.563a7.6,7.6,0,0,1,.937-.888,7.528,7.528,0,0,1-.816,1L324.7,235.88c-1.938,2.244-4.557,5.394-7.288,9s-5.046,6.983-6.678,9.458l-1.923,2.94a7.557,7.557,0,0,1-.74,1.058" transform="translate(-59.271 -44.681)" fill="#263238"/>
        <path id="Trazado_631571" data-name="Trazado 631571" d="M310.571,268.4a.684.684,0,0,1,.157.023l.459.093,1.786.384c1.564.337,3.857.837,6.785,1.425,1.464.292,3.087.611,4.859.913.888.153,1.807.286,2.775.433.964.162,1.95.387,2.961.648,2.021.523,4.136,1.2,6.343,1.966,1.1.388,2.228.8,3.371,1.25.572.224,1.148.456,1.727.7l.87.384.435.21c.073.037.145.075.22.12a1,1,0,0,1,.115.073l.061.044a.332.332,0,0,1,.1.184l0,.023-.01.031c-2.487,7.94-5.362,17.12-8.433,26.925l0,.018-.008.015a16.283,16.283,0,0,1-1.583,2.459,11.577,11.577,0,0,1-2.13,2.177,3.973,3.973,0,0,1-.984.533l-1,.338-1.988.67-3.922,1.321-7.57,2.549-.115.039-.089-.082-7.919-7.344-1.881-1.746a22.238,22.238,0,0,1-1.8-1.775,4.525,4.525,0,0,1-1.072-2.271,8.146,8.146,0,0,1,.054-2.427c1.077-6.188,2.3-11.608,3.4-16.1s2.124-8.042,2.845-10.473c.368-1.2.655-2.126.857-2.779.1-.3.175-.536.233-.714a1.436,1.436,0,0,1,.091-.239,1.372,1.372,0,0,1-.056.25c-.05.18-.116.419-.2.724-.186.657-.45,1.593-.791,2.8-.678,2.441-1.652,6-2.727,10.495s-2.261,9.928-3.309,16.09a7.806,7.806,0,0,0-.046,2.319,4.148,4.148,0,0,0,1,2.091,22.2,22.2,0,0,0,1.774,1.736l1.887,1.74,7.934,7.327-.2-.044,7.566-2.557,3.921-1.324,1.987-.671,1-.338a3.556,3.556,0,0,0,.871-.474,11.168,11.168,0,0,0,2.046-2.095,15.826,15.826,0,0,0,1.542-2.392l-.013.032c3.09-9.8,5.983-18.972,8.485-26.909l.157.055a107.4,107.4,0,0,0-13.119-4.647c-1-.264-1.981-.494-2.932-.661-.952-.151-1.888-.293-2.772-.453-1.775-.317-3.4-.65-4.858-.959-2.924-.619-5.21-1.152-6.767-1.525l-1.774-.437-.452-.121a.639.639,0,0,1-.151-.05" transform="translate(-58.299 -51.639)" fill="#263238"/>
        <g id="Grupo_879817" data-name="Grupo 879817" transform="translate(208.56 281.543)" opacity="0.3">
          <g id="Grupo_879816" data-name="Grupo 879816">
            <g id="Grupo_879815" data-name="Grupo 879815" clip-path="url(#clip-path-5)">
              <path id="Trazado_631572" data-name="Trazado 631572" d="M302.843,377.1c-9.354-1.415-22.344-5.318-33.005-7.542-3.808-.795-7.1-1.715-10.907-2.509l-.685,2.117a127.719,127.719,0,0,1,31.089,11.087c5.917,3.028,11.776,6.567,18.353,7.532,7.357,1.08,14.748-1.185,21.84-3.422,4-1.262,8.191-2.642,11.043-5.717,2.011-2.168,3.159-4.98,4.214-7.742q4.188-10.961,7.315-22.289c-12.7,14.25-30.383,31.341-49.258,28.486" transform="translate(-258.246 -348.616)"/>
            </g>
          </g>
        </g>
        <path id="Trazado_631573" data-name="Trazado 631573" d="M355.836,269.913l-26.872,49.425s-6.242,1.257-6.242,7.854c0,0-2.169-1.736-5.325.14-2.029,1.206-7.74,2.813-10.895,4.5a3.769,3.769,0,0,0-1.858,4.328l8.339,30.306s10.137,0,11.038-2.513l13.892-4.347s8.979-2.378,12.435-8.347,24.177-36.846,24.177-36.846" transform="translate(-58.586 -51.93)" fill="#2b95f9"/>
        <path id="Trazado_631574" data-name="Trazado 631574" d="M374.475,314.41s-.058.107-.186.309l-.576.89-2.256,3.433c-1.983,3-4.859,7.361-8.469,12.83l-5.926,9.044c-2.129,3.284-4.439,6.8-6.747,10.627a15.717,15.717,0,0,1-4.935,4.842,28.641,28.641,0,0,1-6.577,3.129l-14.772,4.629.129-.124a2.264,2.264,0,0,1-1.06,1.078,7.094,7.094,0,0,1-1.35.555,18.862,18.862,0,0,1-2.859.6,47.132,47.132,0,0,1-5.958.417l-.158,0-.043-.154c-1.515-5.5-3.1-11.243-4.708-17.1q-1.272-4.621-2.514-9.137c-.4-1.517-.846-2.97-1.211-4.51a3.985,3.985,0,0,1,1.982-4.082,80.855,80.855,0,0,1,8.3-3.348c.679-.262,1.351-.531,1.995-.837a16.473,16.473,0,0,1,1.963-.946,4.726,4.726,0,0,1,4.253.479l-.32.154a8.044,8.044,0,0,1,1.807-5.244,8.8,8.8,0,0,1,4.6-2.794l-.128.094,19.506-35.718c2.374-4.317,4.246-7.724,5.531-10.064l1.475-2.652.385-.678c.088-.151.14-.225.14-.225s-.034.083-.113.239l-.359.691c-.33.62-.806,1.517-1.425,2.68l-5.439,10.114-19.373,35.791-.039.072-.089.022a8.441,8.441,0,0,0-4.374,2.675,7.649,7.649,0,0,0-1.707,5l0,.375-.316-.221a4.351,4.351,0,0,0-3.879-.408,16.365,16.365,0,0,0-1.916.93c-.663.316-1.341.588-2.025.852a81.466,81.466,0,0,0-8.245,3.331,3.567,3.567,0,0,0-1.773,3.656c.346,1.45.8,2.967,1.2,4.464l2.515,9.136c1.61,5.858,3.189,11.6,4.7,17.1l-.2-.153a46.931,46.931,0,0,0,5.9-.408,18.384,18.384,0,0,0,2.8-.586,6.788,6.788,0,0,0,1.273-.518,1.9,1.9,0,0,0,.878-.862l.038-.1.091-.029,14.775-4.6a28.365,28.365,0,0,0,6.5-3.073,15.393,15.393,0,0,0,4.839-4.717c2.323-3.824,4.646-7.339,6.788-10.614l5.968-9.018,8.567-12.767,2.311-3.4.6-.871c.137-.195.215-.289.215-.289" transform="translate(-58.536 -51.93)" fill="#263238"/>
        <path id="Trazado_631575" data-name="Trazado 631575" d="M370.149,339.343a2.19,2.19,0,0,1-.152-.475l-.355-1.381c-.31-1.254-.736-2.979-1.256-5.088-1.06-4.3-2.557-10.222-4.317-16.738s-3.458-12.391-4.708-16.636L357.882,294c-.159-.56-.288-1.014-.389-1.371a2.2,2.2,0,0,1-.108-.487,2.266,2.266,0,0,1,.189.461l.464,1.348c.4,1.173.947,2.877,1.609,4.99,1.323,4.225,3.064,10.089,4.829,16.612s3.215,12.464,4.2,16.78c.493,2.157.877,3.907,1.126,5.12.114.571.206,1.035.278,1.4a2.218,2.218,0,0,1,.069.493" transform="translate(-68.759 -56.207)" fill="#fff"/>
        <path id="Trazado_631576" data-name="Trazado 631576" d="M358.767,357.242c-.115.021-2.358-11.688-5.011-26.149s-4.712-26.206-4.6-26.227,2.357,11.685,5.011,26.151,4.712,26.2,4.6,26.224" transform="translate(-67.176 -58.655)" fill="#fff"/>
        <path id="Trazado_631577" data-name="Trazado 631577" d="M302.036,284.777c.065.1-3.873,2.889-8.795,6.236s-8.967,5.985-9.032,5.889,3.872-2.887,8.8-6.236,8.965-5.985,9.031-5.889" transform="translate(-54.681 -54.79)" fill="#fff"/>
        <path id="Trazado_631578" data-name="Trazado 631578" d="M299.058,297.84a3.261,3.261,0,0,1-.581.612c-.392.375-.971.9-1.7,1.543-1.45,1.283-3.491,3.012-5.8,4.851s-4.456,3.439-6.033,4.562c-.788.562-1.433,1.008-1.886,1.305a3.275,3.275,0,0,1-.727.428,3.266,3.266,0,0,1,.631-.56l1.8-1.411c1.529-1.183,3.641-2.818,5.949-4.653s4.375-3.525,5.872-4.749l1.781-1.44a3.271,3.271,0,0,1,.688-.489" transform="translate(-54.32 -57.303)" fill="#fff"/>
        <path id="Trazado_631579" data-name="Trazado 631579" d="M278.392,295.272c-.094.069-2.9-3.618-6.273-8.234s-6.029-8.414-5.935-8.483,2.9,3.618,6.274,8.235,6.028,8.413,5.934,8.481" transform="translate(-51.212 -53.593)" fill="#fff"/>
        <path id="Trazado_631580" data-name="Trazado 631580" d="M277.578,314.438a7.7,7.7,0,0,1-1.434-1.241c-.839-.815-1.954-1.988-3.106-3.352s-2.122-2.661-2.785-3.625a7.711,7.711,0,0,1-.983-1.622,9.472,9.472,0,0,1,1.222,1.445c.722.915,1.722,2.173,2.867,3.53s2.218,2.553,3,3.418a9.491,9.491,0,0,1,1.219,1.447" transform="translate(-51.806 -58.604)" fill="#fff"/>
        <path id="Trazado_631581" data-name="Trazado 631581" d="M367.394,220.579a15.256,15.256,0,0,1-1.983-1.339l-4.67-3.381c-1.816-1.333-3.445-2.562-4.6-3.484a12.123,12.123,0,0,1-1.8-1.576,15.185,15.185,0,0,1,1.983,1.338l4.67,3.382c1.815,1.333,3.444,2.562,4.6,3.484a12.069,12.069,0,0,1,1.8,1.576" transform="translate(-68.173 -40.557)" fill="#fff"/>
        <path id="Trazado_631582" data-name="Trazado 631582" d="M372.35,214.344a65.269,65.269,0,0,1-5.834-4.568,65.128,65.128,0,0,1-5.567-4.892,130.65,130.65,0,0,1,11.4,9.46" transform="translate(-69.445 -39.418)" fill="#fff"/>
        <path id="Trazado_631583" data-name="Trazado 631583" d="M325.386,280.006c.114.022-1.327,8.045-3.217,17.917s-3.517,17.861-3.631,17.839,1.326-8.043,3.217-17.918,3.517-17.859,3.631-17.837" transform="translate(-61.284 -53.872)" fill="#fff"/>
        <path id="Trazado_631584" data-name="Trazado 631584" d="M349.075,351.206a2.764,2.764,0,0,1-.7-.328c-.44-.232-1.058-.6-1.8-1.09a34.788,34.788,0,0,1-9.78-9.778c-.489-.745-.859-1.362-1.091-1.8a2.767,2.767,0,0,1-.328-.7c.059-.035.633.9,1.664,2.335a41.894,41.894,0,0,0,9.7,9.7c1.434,1.03,2.37,1.6,2.335,1.663" transform="translate(-64.524 -64.935)" fill="#263238"/>
        <path id="Trazado_631585" data-name="Trazado 631585" d="M349.719,334.877a9.323,9.323,0,0,1-2.293.418,27.223,27.223,0,0,1-11.134-1.18,9.307,9.307,0,0,1-2.154-.889,20.242,20.242,0,0,1,2.239.6A34.111,34.111,0,0,0,347.4,335a20.336,20.336,0,0,1,2.316-.121" transform="translate(-64.287 -64.11)" fill="#263238"/>
        <path id="Trazado_631586" data-name="Trazado 631586" d="M278.8,240.208a.712.712,0,0,1-.059.192l-.212.549c-.181.485-.489,1.182-.9,2.076-.825,1.785-2.207,4.275-4,7.293a66.5,66.5,0,0,0-5.558,10.939q-.147.407-.293.819l-.237.847q-.234.854-.473,1.727a11.982,11.982,0,0,0-.376,1.787q-.153.911-.309,1.838c-.146,1.245-.224,2.523-.3,3.815l0,1.959a19.463,19.463,0,0,0,.063,1.985,125.516,125.516,0,0,0,2.072,14.913,106.616,106.616,0,0,1,1.66,12.223c.163,1.752.082,3.348.106,4.743-.107,1.393-.174,2.6-.3,3.57-.167.941-.3,1.685-.4,2.229-.045.233-.082.422-.113.577a.684.684,0,0,1-.052.193.736.736,0,0,1,.01-.2c.019-.156.043-.348.072-.584.077-.544.182-1.29.317-2.232.1-.973.14-2.172.225-3.557-.046-1.389.015-2.974-.167-4.716a112.236,112.236,0,0,0-1.746-12.175,121.535,121.535,0,0,1-2.11-14.96,19.774,19.774,0,0,1-.063-2q0-.995,0-1.978c.078-1.305.158-2.6.309-3.855q.16-.939.317-1.861a12.177,12.177,0,0,1,.386-1.807q.245-.883.485-1.747l.243-.857.3-.827a64.733,64.733,0,0,1,5.667-10.958c1.821-3,3.236-5.455,4.1-7.212.431-.879.763-1.564.969-2.037l.25-.532a.755.755,0,0,1,.1-.176" transform="translate(-51.114 -46.215)" fill="#263238"/>
        <path id="Trazado_631587" data-name="Trazado 631587" d="M310.722,199.2a.734.734,0,0,1-.1.169l-.325.472c-.286.417-.744,1-1.35,1.75-1.215,1.492-3.067,3.577-5.4,6.139l-3.8,4.217c-1.349,1.534-2.8,3.182-4.157,5.038a32.748,32.748,0,0,0-5.225,13.981l-.4-.119a23.333,23.333,0,0,1,2.269-3.507c.435-.6.867-1.184,1.274-1.781.2-.3.4-.6.585-.9l.267-.46.122-.234.06-.117.03-.058c.015-.021-.015.012.049-.078a.244.244,0,0,1,.222-.077.247.247,0,0,1,.177.131l.018.044.024.065.048.129.1.258a3.542,3.542,0,0,1,.169.522,7.713,7.713,0,0,1,.234,1.063,11.563,11.563,0,0,1,.138,2.13,42.7,42.7,0,0,1-1.325,7.927c-.946,5.043-2.671,9.35-3.7,13.057a33.64,33.64,0,0,0-1.5,8.963,22.691,22.691,0,0,0,.114,2.474c.03.262.054.473.073.641a.85.85,0,0,1,.012.221,14.705,14.705,0,0,1-.363-3.337,32.416,32.416,0,0,1,1.376-9.043c1-3.741,2.686-8.037,3.6-13.057a42.932,42.932,0,0,0,1.293-7.853,11.132,11.132,0,0,0-.137-2.057,7.148,7.148,0,0,0-.224-1.014,3.249,3.249,0,0,0-.161-.5l-.091-.244-.046-.123-.023-.061-.006-.015c.068-.035-.161.056.151-.081l0,0v0c-.137-.065.195.092.156.082l-.008.015-.031.061-.062.123-.127.246-.275.476q-.286.47-.6.923c-.413.606-.847,1.2-1.283,1.792a23.15,23.15,0,0,0-2.229,3.436l-.6,1.259.2-1.378a32.867,32.867,0,0,1,5.336-14.14c1.385-1.873,2.847-3.512,4.21-5.04s2.663-2.917,3.841-4.186c2.357-2.537,4.24-4.589,5.488-6.047.623-.728,1.1-1.3,1.405-1.7l.355-.448c.082-.1.127-.149.132-.145" transform="translate(-55.615 -38.326)" fill="#263238"/>
        <path id="Trazado_631588" data-name="Trazado 631588" d="M317.955,341.924c.011-.01.108.086.283.275l.751.846a16.24,16.24,0,0,1,1.125,1.392c.414.563.917,1.182,1.378,1.933.485.733,1.01,1.543,1.5,2.457.532.889.994,1.9,1.5,2.943a40.428,40.428,0,0,1,3.588,14.635c.035,1.164.09,2.269.03,3.3-.01,1.036-.1,2-.192,2.871-.062.879-.221,1.66-.327,2.35a16.39,16.39,0,0,1-.354,1.755c-.109.437-.2.8-.275,1.1a1.347,1.347,0,0,1-.124.375,1.457,1.457,0,0,1,.041-.394c.053-.3.118-.669.2-1.11.1-.48.205-1.068.282-1.759s.221-1.468.263-2.341c.073-.871.145-1.824.14-2.851.045-1.026-.023-2.122-.068-3.274a42.01,42.01,0,0,0-3.554-14.5c-.494-1.043-.939-2.045-1.454-2.934-.47-.913-.976-1.725-1.442-2.463-.442-.755-.924-1.382-1.317-1.954s-.755-1.048-1.063-1.429l-.688-.894a1.426,1.426,0,0,1-.219-.331" transform="translate(-61.173 -65.785)" fill="#263238"/>
        <path id="Trazado_631589" data-name="Trazado 631589" d="M342.194,285.461a7.551,7.551,0,0,1-1.221-.412l-3.289-1.21c-2.783-1-6.664-2.287-11.023-3.447s-8.37-1.966-11.283-2.475l-3.456-.581a7.609,7.609,0,0,1-1.265-.249,7.492,7.492,0,0,1,1.287.086c.825.079,2.015.23,3.482.45a106.837,106.837,0,0,1,22.362,5.937c1.382.537,2.491,1,3.247,1.337a7.608,7.608,0,0,1,1.16.563" transform="translate(-59.77 -53.309)" fill="#263238"/>
        <g id="Grupo_879820" data-name="Grupo 879820" transform="translate(264.135 274.39)" opacity="0.3">
          <g id="Grupo_879819" data-name="Grupo 879819">
            <g id="Grupo_879818" data-name="Grupo 879818" clip-path="url(#clip-path-6)">
              <path id="Trazado_631590" data-name="Trazado 631590" d="M340.979,354.476a11.058,11.058,0,0,0-2.278-2.911l-11.6-11.807-.04.872c2.583,1.751,3.131,5.3,3.872,8.333s1.386,6.269,3.5,8.566a5.582,5.582,0,0,0,3.2,1.853,3.387,3.387,0,0,0,3.309-1.349,3.745,3.745,0,0,0,.035-3.557" transform="translate(-327.061 -339.759)"/>
            </g>
          </g>
        </g>
        <g id="Grupo_879823" data-name="Grupo 879823" transform="translate(245.503 251.003)" opacity="0.3">
          <g id="Grupo_879822" data-name="Grupo 879822">
            <g id="Grupo_879821" data-name="Grupo 879821" clip-path="url(#clip-path-7)">
              <path id="Trazado_631591" data-name="Trazado 631591" d="M320.6,320.9a5.339,5.339,0,0,1-6.964-1.3l-9.647-8.8c2.76,4.064,4.973,8.179,7.734,12.242a6.415,6.415,0,0,0,2.806,2.7,5.884,5.884,0,0,0,4.045-.44,34.321,34.321,0,0,0,12.3-8.123L320.6,320.9" transform="translate(-303.99 -310.8)"/>
            </g>
          </g>
        </g>
        <g id="Grupo_879826" data-name="Grupo 879826" transform="translate(249.991 177.567)" opacity="0.3">
          <g id="Grupo_879825" data-name="Grupo 879825">
            <g id="Grupo_879824" data-name="Grupo 879824" clip-path="url(#clip-path-8)">
              <path id="Trazado_631592" data-name="Trazado 631592" d="M309.547,253.53c9.02-4.328,12.268-16.323,21.219-20.793a16.121,16.121,0,0,1,16.264,1.308c1.551,1.115,3.271,2.6,5.107,2.076,1.387-.4,2.189-1.807,2.845-3.093l6.718-13.16-8.812,10.38a4.822,4.822,0,0,1-2.284,1.781c-1.774.455-3.058-1.532-4.7-2.35-5.111-2.549-8.691-5.752-11.54-3.6,0,0-4.961,3.416-6.953,3.774l-17.867,23.334" transform="translate(-309.547 -219.869)"/>
            </g>
          </g>
        </g>
        <g id="Grupo_879829" data-name="Grupo 879829" transform="translate(234.365 162.512)" opacity="0.3">
          <g id="Grupo_879828" data-name="Grupo 879828">
            <g id="Grupo_879827" data-name="Grupo 879827" clip-path="url(#clip-path-9)">
              <path id="Trazado_631593" data-name="Trazado 631593" d="M290.466,258.725a21.064,21.064,0,0,1,1.779-12.058c1.64-3.7,3.7-7.246,4.71-11.162a22.181,22.181,0,0,0,.328-9.582,11.476,11.476,0,0,1-.388-4.474,8.448,8.448,0,0,1,1.216-2.621,58.251,58.251,0,0,1,7.037-9.121l5.632-8.478s.243,9.848.06,10.781a63.7,63.7,0,0,1-2.458,8.586,68.461,68.461,0,0,1-6.4,13.087,103.743,103.743,0,0,0-7.94,14.908Z" transform="translate(-290.198 -201.228)"/>
            </g>
          </g>
        </g>
        <path id="Trazado_631594" data-name="Trazado 631594" d="M326.91,199.493c-11.446-2.7-14.962-8.392-15.1-18.459l-.174-12.8s-12.668-.659-15.622-19.527a187.716,187.716,0,0,1-1.927-37.12c.739-11.314,12.494-31.266,23.766-30.048L348.816,96.6a6.635,6.635,0,0,1,5.921,6.742l-2.4,73.145" transform="translate(-56.533 -15.677)" fill="#efbda8"/>
        <path id="Trazado_631595" data-name="Trazado 631595" d="M300.145,135.4a2.42,2.42,0,0,0,2.328,2.446,2.314,2.314,0,0,0,2.5-2.176,2.42,2.42,0,0,0-2.324-2.447,2.315,2.315,0,0,0-2.5,2.176" transform="translate(-57.747 -25.632)" fill="#263238"/>
        <path id="Trazado_631596" data-name="Trazado 631596" d="M298.275,129.345c.262.233,2.165-.027,4.691.6,2.526.6,4.257,1.744,4.561,1.647.148-.04-.1-.4-.848-.913a11.622,11.622,0,0,0-3.616-1.519,10.36,10.36,0,0,0-3.77-.272c-.833.124-1.148.353-1.018.46" transform="translate(-57.382 -24.783)" fill="#263238"/>
        <path id="Trazado_631597" data-name="Trazado 631597" d="M330.15,136.3a2.419,2.419,0,0,0,2.327,2.445,2.314,2.314,0,0,0,2.5-2.176,2.42,2.42,0,0,0-2.325-2.446,2.314,2.314,0,0,0-2.5,2.176" transform="translate(-63.519 -25.805)" fill="#263238"/>
        <path id="Trazado_631598" data-name="Trazado 631598" d="M330.015,131.216c.375.094,2.047-1.187,4.779-1.912,2.724-.746,4.98-.524,5.216-.783.119-.119-.3-.356-1.294-.464a12.07,12.07,0,0,0-4.248.406,10.793,10.793,0,0,0-3.73,1.744c-.724.572-.9.971-.724,1.009" transform="translate(-63.481 -24.628)" fill="#263238"/>
        <path id="Trazado_631599" data-name="Trazado 631599" d="M316.613,148.052c.013-.148-1.6-.431-4.226-.772-.664-.07-1.293-.2-1.4-.657a3.386,3.386,0,0,1,.448-1.969q.944-2.412,1.977-5.057c2.746-7.2,4.735-13.122,4.444-13.229s-2.753,5.64-5.5,12.841q-.991,2.663-1.894,5.087a3.842,3.842,0,0,0-.35,2.608,1.668,1.668,0,0,0,1.091.975,4.526,4.526,0,0,0,1.128.159c2.638.148,4.275.163,4.285.015" transform="translate(-59.64 -24.312)" fill="#263238"/>
        <path id="Trazado_631600" data-name="Trazado 631600" d="M315.881,187.532a47.985,47.985,0,0,0,25.276-6.682s-6.4,13.3-25.276,11.491Z" transform="translate(-60.775 -34.795)" fill="#d1967c"/>
        <path id="Trazado_631601" data-name="Trazado 631601" d="M318.61,160.266a6.949,6.949,0,0,1,5-3.306,2.981,2.981,0,0,1,2.932,1.635,4.717,4.717,0,0,1-.419,4.328,3.984,3.984,0,0,1-3.944,1.908,6.667,6.667,0,0,1-3.258-2.122,2.348,2.348,0,0,1-.66-.934,1.6,1.6,0,0,1,.206-1.365" transform="translate(-61.22 -30.198)" fill="#d1967c"/>
        <path id="Trazado_631602" data-name="Trazado 631602" d="M325.693,155.469c-.423-.026-.435,2.8-2.858,4.8s-5.43,1.683-5.452,2.078c-.04.177.67.55,1.94.588a7.039,7.039,0,0,0,4.552-1.575,6.131,6.131,0,0,0,2.215-4.025c.11-1.181-.2-1.882-.4-1.866" transform="translate(-61.063 -29.912)" fill="#263238"/>
        <path id="Trazado_631603" data-name="Trazado 631603" d="M327.4,117.3c.326.679,2.878.09,5.954.157,3.077,0,5.615.652,5.956-.019.15-.321-.342-.941-1.4-1.525a10.354,10.354,0,0,0-9.074-.1c-1.071.56-1.578,1.169-1.435,1.492" transform="translate(-62.986 -22.089)" fill="#263238"/>
        <path id="Trazado_631604" data-name="Trazado 631604" d="M297.279,121.727c.57.59,2.8-.027,5.476-.061,2.677-.11,4.947.388,5.469-.231.229-.3-.13-.892-1.123-1.45a8.985,8.985,0,0,0-4.453-.961,8.818,8.818,0,0,0-4.365,1.2c-.945.61-1.255,1.219-1,1.507" transform="translate(-57.18 -22.899)" fill="#263238"/>
        <path id="Trazado_631605" data-name="Trazado 631605" d="M386.364,181.147c-4.113-6.65-7.47-23.207-8.9-31.606s-5.881-35.314-13.034-49.461-15.578-19.869-23.843-22.094a19,19,0,0,0-18.2,4.133c-3.734,3.338-5.007,13.056-5.007,13.056s19.939,4.435,26.654,15.8c7.714,13.061,9.585,19.63,9.585,19.63l2.5,7.144s-2.336,13.829-3.2,20.664.511,13.184,6.137,15.957l11.316,8s14.794,10.055,15.475,10.576c3.156,2.411,9.346,11.6,9.346,11.6s-.425-9.816-8.83-23.4" transform="translate(-61.063 -14.857)" fill="#263238"/>
        <path id="Trazado_631606" data-name="Trazado 631606" d="M311.88,95.7s-11.4-1.235-15.613,11.641c-1.905,5.824-3.359,22.648-3.359,22.648S291.24,116.63,291.855,109s4.419-17.265,10.263-22.6c5.682-5.191,10.475-7.626,20.637-7.012a16.3,16.3,0,0,0-7.332,5.484c-1.3,1.93-1.87,3.576-3.542,10.823" transform="translate(-56.126 -15.256)" fill="#263238"/>
        <path id="Trazado_631607" data-name="Trazado 631607" d="M361.947,143.228c.208-4.174,4.755-6.961,8.374-4.869,1.987,1.148,3.506,3.457,3.323,7.889-.487,11.819-12.251,8.893-12.259,8.553,0-.211.317-6.684.561-11.572" transform="translate(-69.53 -26.483)" fill="#efbda8"/>
        <path id="Trazado_631608" data-name="Trazado 631608" d="M366.082,151.321c.053-.036.2.153.542.327a2.058,2.058,0,0,0,1.537.094c1.268-.407,2.4-2.346,2.546-4.473a6.806,6.806,0,0,0-.456-2.972,2.382,2.382,0,0,0-1.484-1.644,1.05,1.05,0,0,0-1.238.514c-.172.324-.107.564-.17.581-.034.028-.245-.208-.13-.693a1.314,1.314,0,0,1,.5-.721,1.554,1.554,0,0,1,1.15-.254,2.9,2.9,0,0,1,2.076,1.92,7,7,0,0,1,.577,3.324c-.174,2.378-1.484,4.557-3.213,4.98a2.2,2.2,0,0,1-1.87-.39c-.355-.307-.406-.573-.364-.594" transform="translate(-70.431 -27.332)" fill="#d1967c"/>
        <path id="Trazado_631609" data-name="Trazado 631609" d="M335.85,77.23c0,.087-1.622.04-4.188.38a14.524,14.524,0,0,0-4.313,1.288,14.238,14.238,0,0,0-4.33,3.373,21.931,21.931,0,0,0-4.79,8.779c-.686,2.5-.769,4.124-.852,4.113a5.271,5.271,0,0,1,.038-1.135,21.1,21.1,0,0,1,5.291-12.037,13.408,13.408,0,0,1,8.916-4.674,24.289,24.289,0,0,1,3.095-.151,5.509,5.509,0,0,1,1.133.065" transform="translate(-61.059 -14.846)" fill="#455a64"/>
        <path id="Trazado_631610" data-name="Trazado 631610" d="M364.637,143.259a.65.65,0,0,1,.021-.192c.027-.149.061-.331.1-.553q.074-.379.176-.9.079-.544.178-1.232a28.419,28.419,0,0,0-4.2-18.789,31.886,31.886,0,0,0-10.374-9.744,59.247,59.247,0,0,0-6.6-3.453c-2.191-1.007-4.381-1.791-6.417-2.713a76.6,76.6,0,0,1-10.3-5.789c-2.8-1.861-4.984-3.488-6.466-4.645-.738-.581-1.308-1.037-1.685-1.357l-.429-.365c-.1-.084-.141-.13-.137-.136a.662.662,0,0,1,.164.1l.455.331,1.732,1.294c1.509,1.115,3.714,2.7,6.529,4.526a79.647,79.647,0,0,0,10.3,5.686c2.014.9,4.222,1.683,6.427,2.69a58.552,58.552,0,0,1,6.652,3.47,31.953,31.953,0,0,1,10.479,9.894,28.1,28.1,0,0,1,4.057,11.061,26.97,26.97,0,0,1-.025,7.96l-.217,1.232-.216.891-.143.545a.649.649,0,0,1-.063.182" transform="translate(-61.28 -17.969)" fill="#455a64"/>
        <path id="Trazado_631611" data-name="Trazado 631611" d="M368.423,137.038a.672.672,0,0,1-.012-.194c0-.153,0-.338,0-.565,0-.5.056-1.227.037-2.168a45.443,45.443,0,0,0-.77-7.918,46.087,46.087,0,0,0-3.658-11.185,44.38,44.38,0,0,0-8.258-11.765,52.4,52.4,0,0,0-11.561-8.6c-3.865-2.208-7.5-3.916-10.533-5.394s-5.489-2.671-7.155-3.557c-.838-.432-1.475-.8-1.909-1.039l-.489-.282a.66.66,0,0,1-.16-.109.666.666,0,0,1,.18.071l.51.246,1.943.967c1.687.842,4.154,2.006,7.209,3.435,3.046,1.444,6.7,3.126,10.6,5.326a51.919,51.919,0,0,1,11.669,8.637,44.124,44.124,0,0,1,8.308,11.894,45.277,45.277,0,0,1,3.6,11.3,42.259,42.259,0,0,1,.641,7.972c-.007.945-.09,1.676-.116,2.172-.019.227-.035.412-.047.564a.647.647,0,0,1-.031.191" transform="translate(-62.329 -16.212)" fill="#455a64"/>
        <path id="Trazado_631612" data-name="Trazado 631612" d="M377.683,195.094a1.369,1.369,0,0,1-.182-.356l-.443-1.054a18.035,18.035,0,0,1-.628-1.7c-.218-.671-.493-1.428-.705-2.292-.115-.431-.234-.882-.359-1.349s-.208-.967-.32-1.479c-.237-1.019-.388-2.127-.577-3.288a69.3,69.3,0,0,1-.577-7.62,118.336,118.336,0,0,1,.689-13.847c.179-1.764.346-3.188.473-4.172.062-.451.114-.825.156-1.131a1.449,1.449,0,0,1,.083-.392,1.531,1.531,0,0,1,0,.4c-.022.309-.047.685-.078,1.139-.086,1.053-.2,2.466-.34,4.183-.277,3.529-.656,8.414-.566,13.812a75.361,75.361,0,0,0,.542,7.576c.178,1.153.314,2.256.535,3.271.1.509.187,1,.294,1.474s.224.916.331,1.346c.191.863.445,1.621.64,2.3s.386,1.249.557,1.713c.148.43.27.787.369,1.08a1.494,1.494,0,0,1,.1.388" transform="translate(-71.933 -30.094)" fill="#455a64"/>
        <path id="Trazado_631613" data-name="Trazado 631613" d="M193.461,338.638s12.843,16.471,17.445,17.785,22.04,5.613,22.04,5.613l57.222,13.229-6.739-24.528L229.242,350Z" transform="translate(-37.221 -65.153)" fill="#efbda8"/>
        <path id="Trazado_631614" data-name="Trazado 631614" d="M102.34,234.354c4.291,10.635,25.9,59.3,30.912,70.559a5.676,5.676,0,0,0,3.474,3.106l68.016,21.592,67.482,5.043v-2.224L217.665,315.9l-17.233-2.018L174.7,250.067a9.2,9.2,0,0,0-6.875-5.61L103.693,232.7a1.218,1.218,0,0,0-1.354,1.651" transform="translate(-19.672 -44.767)" fill="#455a64"/>
        <path id="Trazado_631615" data-name="Trazado 631615" d="M295.372,351.18a.827.827,0,0,1-.216,0l-.627-.047-2.408-.219-8.846-.886-13.114-1.366L254.1,347.046c-5.7-.564-11.137-.992-16.09-1.273l-7.036-.444a11.93,11.93,0,0,1-1.637-.206,3.53,3.53,0,0,1-.79-.255,1.4,1.4,0,0,1-.613-.594,26.035,26.035,0,0,1-1.112-2.758l-3.144-8.314-.835-2.268-.208-.594a.835.835,0,0,1-.057-.208.872.872,0,0,1,.1.192c.065.153.145.343.246.579l.909,2.24c.785,1.984,1.9,4.8,3.271,8.269a26.611,26.611,0,0,0,1.11,2.692,1.063,1.063,0,0,0,.481.468,3.3,3.3,0,0,0,.715.222,11.643,11.643,0,0,0,1.589.187c2.2.1,4.557.262,7.033.4,4.96.261,10.408.678,16.11,1.242l16.062,1.647,13.107,1.456,8.833,1.018,2.4.3.623.088a.835.835,0,0,1,.211.044" transform="translate(-42.822 -63.516)" fill="#263238"/>
        <path id="Trazado_631616" data-name="Trazado 631616" d="M260.431,335.086s.978-6.416,0-7.676-7.854-7.449-7.854-7.449l-3.9-3.667-8.6-1.316a2.626,2.626,0,0,0-2.625,1.207l-.883,1.417-2.329-.391-2.063-2.979h-5.73l-4.24,4.583V325a1.168,1.168,0,0,0,2.063.458c1.49-1.261,1.581-4.747,1.581-4.747l2.544,2.34-2.7,8.255s1.9,1.723,3.275,0,3.323-4.243,3.323-4.243,2.292,6.185,6.188,8.02,13.293,3.508,15.241,3.073,6.337.359,6.708-3.073" transform="translate(-42.753 -60.457)" fill="#efbda8"/>
        <path id="Trazado_631617" data-name="Trazado 631617" d="M248.982,321.647c.008.006-.03.1-.156.23a1.74,1.74,0,0,1-.674.432,3.416,3.416,0,0,1-1.251.174c-.5-.006-1.04-.121-1.631-.178a2.855,2.855,0,0,0-1.815.285,8.406,8.406,0,0,0-1.506,1.619,6.815,6.815,0,0,1-4.6,2.5,4.331,4.331,0,0,1-3.836-1.782l-.086-.134.108-.113a43.991,43.991,0,0,0,4.158-5.072c.932-1.328,1.432-2.146,1.477-2.119a2.607,2.607,0,0,1-.292.62c-.212.39-.538.951-.979,1.637a36.878,36.878,0,0,1-4.074,5.208l.022-.247a3.963,3.963,0,0,0,3.483,1.582,6.529,6.529,0,0,0,4.326-2.338,8.277,8.277,0,0,1,1.614-1.66,3.124,3.124,0,0,1,2.03-.282c.612.08,1.141.212,1.61.239a3.478,3.478,0,0,0,1.189-.094,2.53,2.53,0,0,0,.881-.506" transform="translate(-44.911 -61.084)" fill="#d1967c"/>
        <path id="Trazado_631618" data-name="Trazado 631618" d="M259.672,336.056c-.048.01-.1-.363-.353-.97a9.338,9.338,0,0,0-1.489-2.352c-.743-.924-1.765-1.922-2.693-3.238a6.974,6.974,0,0,1-1.07-2.3,5.467,5.467,0,0,1,.046-2.733,6.641,6.641,0,0,1,1.232-2.435,2.879,2.879,0,0,1,1.035-.867,1.526,1.526,0,0,1,1.339.04,3.087,3.087,0,0,1,1.369,1.878,8.631,8.631,0,0,0,.763,1.761,7.521,7.521,0,0,0,1.826,2.08c.519.41.847.585.83.617a2.933,2.933,0,0,1-.927-.485A7.009,7.009,0,0,1,259.6,325a8.579,8.579,0,0,1-.837-1.8,2.771,2.771,0,0,0-1.215-1.651,1.129,1.129,0,0,0-1-.02,2.506,2.506,0,0,0-.875.757,6.315,6.315,0,0,0-1.148,2.286,5.117,5.117,0,0,0-.052,2.53,6.7,6.7,0,0,0,.991,2.177c.879,1.282,1.879,2.309,2.605,3.27a8.472,8.472,0,0,1,1.409,2.479,3.52,3.52,0,0,1,.181.757c.026.176.033.268.019.271" transform="translate(-48.852 -61.765)" fill="#d1967c"/>
        <path id="Trazado_631619" data-name="Trazado 631619" d="M232.877,319.975a1.82,1.82,0,0,0-1.241.511,8.418,8.418,0,0,0-1.539,3.043c-.464,1.289-.867,2.469-1.2,3.309a4.15,4.15,0,0,1-.652,1.317,6.736,6.736,0,0,1,.371-1.415c.262-.861.621-2.054,1.089-3.355a7.324,7.324,0,0,1,1.736-3.121,1.614,1.614,0,0,1,1.046-.409c.273.009.4.1.394.119" transform="translate(-43.911 -61.539)" fill="#d1967c"/>
        <path id="Trazado_631620" data-name="Trazado 631620" d="M233.2,319.557c0,.044-.352.124-.944.047a4.314,4.314,0,0,1-2.156-.957h.268l-.529.454a18.371,18.371,0,0,1-3.119,2.38,18.444,18.444,0,0,1,2.846-2.7l.534-.45.136-.114.132.114a4.887,4.887,0,0,0,1.941,1.007c.543.142.892.161.892.219" transform="translate(-43.62 -61.224)" fill="#d1967c"/>
        <path id="Trazado_631621" data-name="Trazado 631621" d="M246.018,336.264a4.714,4.714,0,0,1,.61-1.461,17.017,17.017,0,0,1,5.011-5.7,4.678,4.678,0,0,1,1.37-.792,27.536,27.536,0,0,0-6.991,7.958" transform="translate(-47.332 -63.164)" fill="#d1967c"/>
        <path id="Trazado_631622" data-name="Trazado 631622" d="M185.98,248.544a1,1,0,0,1,.1.208c.07.164.159.371.271.628.24.584.575,1.4,1,2.429l3.606,8.964L202.708,290.4l11.635,29.68c1.462,3.784,2.648,6.855,3.481,9.012l.927,2.458c.094.264.171.476.231.643a.984.984,0,0,1,.065.225.97.97,0,0,1-.1-.208l-.271-.628c-.24-.584-.574-1.4-1-2.429l-3.605-8.963-11.75-29.635-11.634-29.676c-1.461-3.783-2.648-6.854-3.481-9.012l-.927-2.458c-.094-.264-.171-.476-.231-.643a.986.986,0,0,1-.065-.225" transform="translate(-35.782 -47.819)" fill="#263238"/>
        <path id="Trazado_631623" data-name="Trazado 631623" d="M166.19,285.2c1.715,2.373,1.7,5.316-.043,6.573s-4.54.355-6.256-2.018-1.7-5.316.043-6.573,4.54-.355,6.256,2.018" transform="translate(-30.517 -54.373)" fill="#fff"/>
      </g>
    </g>
    <g id="Grupo_879833" data-name="Grupo 879833">
      <g id="Grupo_879832" data-name="Grupo 879832" clip-path="url(#clip-path)">
        <path id="Trazado_631624" data-name="Trazado 631624" d="M520.469,430.661c0,.116-116.52.21-260.222.21C116.5,430.871,0,430.777,0,430.661s116.5-.21,260.248-.21c143.7,0,260.222.094,260.222.21" transform="translate(0 -82.817)" fill="#263238"/>
      </g>
    </g>
    <g id="Grupo_879835" data-name="Grupo 879835">
      <g id="Grupo_879834" data-name="Grupo 879834" clip-path="url(#clip-path)">
        <path id="Trazado_631625" data-name="Trazado 631625" d="M195.089,188.454H36.261a6.353,6.353,0,0,1-6.353-6.353V88.493a6.353,6.353,0,0,1,6.353-6.353H195.089a6.353,6.353,0,0,1,6.353,6.353V182.1a6.353,6.353,0,0,1-6.353,6.353" transform="translate(-5.754 -15.803)" fill="#263238"/>
        <path id="Trazado_631626" data-name="Trazado 631626" d="M146.061,146.638a13.067,13.067,0,1,1-13.067-13.067,13.067,13.067,0,0,1,13.067,13.067" transform="translate(-23.074 -25.699)" fill="#eb6f2d"/>
        <path id="Trazado_631627" data-name="Trazado 631627" d="M132.209,152.53v-7.71a.491.491,0,0,1,.732-.427l6.89,3.885a.491.491,0,0,1,0,.857l-6.89,3.825a.491.491,0,0,1-.729-.429" transform="translate(-25.437 -27.768)" fill="#fff"/>
        <path id="Trazado_631628" data-name="Trazado 631628" d="M41.725,198.3v.275H40.434v-.218l.7-.661c.17-.162.2-.265.2-.362,0-.16-.111-.253-.325-.253a.494.494,0,0,0-.41.183l-.228-.175a.809.809,0,0,1,.665-.29c.38,0,.625.192.625.5a.7.7,0,0,1-.29.553l-.468.445Z" transform="translate(-7.766 -37.864)" fill="#fff"/>
        <path id="Trazado_631629" data-name="Trazado 631629" d="M42.266,197.536a.205.205,0,1,1,.41,0,.205.205,0,1,1-.41,0m0,.953a.205.205,0,1,1,.41,0,.205.205,0,1,1-.41,0" transform="translate(-8.132 -37.965)" fill="#fff"/>
        <path id="Trazado_631630" data-name="Trazado 631630" d="M43.617,196.832v1.751h-.325V197.1h-.371v-.273Z" transform="translate(-8.258 -37.87)" fill="#fff"/>
        <path id="Trazado_631631" data-name="Trazado 631631" d="M45.767,198.186h-.31v.4h-.315v-.4h-.961v-.225l.863-1.128h.348l-.813,1.078h.573v-.353h.305v.353h.31Z" transform="translate(-8.5 -37.87)" fill="#fff"/>
        <rect id="Rectángulo_329152" data-name="Rectángulo 329152" width="132.851" height="0.606" transform="translate(40.127 159.615)" fill="#fff"/>
        <rect id="Rectángulo_329153" data-name="Rectángulo 329153" width="41.516" height="1.615" transform="translate(40.028 158.963)" fill="#eb6f2d"/>
        <path id="Trazado_631632" data-name="Trazado 631632" d="M101.667,197.534a2.021,2.021,0,1,1-2.021-2.021,2.022,2.022,0,0,1,2.021,2.021" transform="translate(-18.783 -37.616)" fill="#eb6f2d"/>
        <path id="Trazado_631633" data-name="Trazado 631633" d="M218,197.7a.584.584,0,0,1-.64.569c-.477,0-.758-.308-.758-.871a.829.829,0,0,1,.858-.93.876.876,0,0,1,.46.112l-.12.245a.6.6,0,0,0-.334-.085c-.329,0-.538.205-.538.6v0a.6.6,0,0,1,.468-.183.547.547,0,0,1,.6.537m-.315.015c0-.183-.137-.3-.351-.3a.317.317,0,0,0-.355.3c0,.165.13.3.363.3a.3.3,0,0,0,.342-.3" transform="translate(-41.673 -37.799)" fill="#fff"/>
        <path id="Trazado_631634" data-name="Trazado 631634" d="M218.526,197.2a.205.205,0,1,1,.41,0,.205.205,0,1,1-.41,0m0,.953a.205.205,0,1,1,.41,0,.205.205,0,1,1-.41,0" transform="translate(-42.044 -37.901)" fill="#fff"/>
        <path id="Trazado_631635" data-name="Trazado 631635" d="M219.293,197.365c0-.575.315-.9.73-.9s.733.325.733.9-.315.9-.733.9-.73-.325-.73-.9m1.135,0c0-.422-.165-.618-.405-.618s-.4.2-.4.618.166.618.4.618.405-.2.405-.618" transform="translate(-42.191 -37.799)" fill="#fff"/>
        <path id="Trazado_631636" data-name="Trazado 631636" d="M221.375,197.365c0-.575.315-.9.73-.9s.733.325.733.9-.315.9-.733.9-.73-.325-.73-.9m1.135,0c0-.422-.165-.618-.405-.618s-.4.2-.4.618.165.618.4.618.405-.2.405-.618" transform="translate(-42.592 -37.799)" fill="#fff"/>
        <path id="Trazado_631637" data-name="Trazado 631637" d="M226.545,197.03h-.606v-1.746h1.743v.606h-1.137Z" transform="translate(-43.47 -37.572)" fill="#fff"/>
        <path id="Trazado_631638" data-name="Trazado 631638" d="M227.683,199.852h-1.746v-1.743h.606v1.137h1.14Z" transform="translate(-43.47 -38.116)" fill="#fff"/>
        <path id="Trazado_631639" data-name="Trazado 631639" d="M231.128,199.851h-1.743v-.606h1.137V198.1h.606Z" transform="translate(-44.133 -38.115)" fill="#fff"/>
        <path id="Trazado_631640" data-name="Trazado 631640" d="M231.129,197.026h-.606v-1.137h-1.14v-.606h1.746Z" transform="translate(-44.133 -37.572)" fill="#fff"/>
        <path id="Trazado_631641" data-name="Trazado 631641" d="M203.507,94.9a4.449,4.449,0,0,1,.931-.081c.624-.031,1.547-.069,2.682-.088l.168,0,0,.172c.012,1.354.026,2.908.04,4.59l0,.51-.363-.362-.482-.481-1.224-1.231.283.008-1.92,1.692-.312.275,0-.412c.018-1.414.059-2.586.094-3.385a6.7,6.7,0,0,1,.09-1.206,10.309,10.309,0,0,1,.09,1.324c.035.811.076,1.933.094,3.267l-.307-.137,1.89-1.725.144-.132.14.139,1.231,1.225.481.481-.358.149c.015-1.682.028-3.237.04-4.59l.169.17c-1.059-.019-1.941-.058-2.576-.089a7.421,7.421,0,0,1-1.037-.081" transform="translate(-39.118 -18.225)" fill="#fff"/>
        <path id="Trazado_631642" data-name="Trazado 631642" d="M218.642,95.591c.042-.019-.293.384-.895,1.119s-1.49,1.817-2.57,3.032l-.347.392,0-.526c0-.716-.006-1.482-.01-2.277v-.223l.065.152-1.6-1.557-.359-.349.5.006c1.578.02,2.934.092,3.845.141s1.418.072,1.377.09-.628.034-1.564.073-2.2.093-3.661.1l.139-.342,1.618,1.541.065.061v.313c0,.795-.006,1.56-.01,2.277l-.35-.134c1.018-1.118,1.935-2.041,2.617-2.735s1.1-1.13,1.145-1.148" transform="translate(-40.965 -18.346)" fill="#fff"/>
        <path id="Trazado_631643" data-name="Trazado 631643" d="M219.144,95.641a9.215,9.215,0,0,1-3.614,1.517,9.261,9.261,0,0,1,3.614-1.517" transform="translate(-41.467 -18.396)" fill="#fff"/>
        <path id="Trazado_631644" data-name="Trazado 631644" d="M227.373,94.928a1.155,1.155,0,0,1,.644,0,2.542,2.542,0,0,1,1.508.92,2.694,2.694,0,0,1,.433,2.575,2.74,2.74,0,0,1-5.17,0,2.7,2.7,0,0,1,.433-2.576,2.547,2.547,0,0,1,1.508-.919,1.155,1.155,0,0,1,.644,0,5.237,5.237,0,0,1-.6.159,2.559,2.559,0,0,0-1.311.942,2.42,2.42,0,0,0-.305,2.264,2.37,2.37,0,0,0,4.442,0,2.421,2.421,0,0,0-.305-2.264,2.556,2.556,0,0,0-1.311-.942,5.237,5.237,0,0,1-.6-.159" transform="translate(-43.219 -18.257)" fill="#fff"/>
        <path id="Trazado_631645" data-name="Trazado 631645" d="M228.794,98.821c-.082.082-.635-.339-1.238-.941l-.062-.061v-.1c0-.859.094-1.556.21-1.556s.211.7.211,1.556v.015l-.061-.149c.6.6,1.022,1.156.941,1.238" transform="translate(-43.769 -18.501)" fill="#fff"/>
        <path id="Trazado_631646" data-name="Trazado 631646" d="M132.332,99.2c0,.116-17.629.21-39.371.21s-39.375-.094-39.375-.21,17.625-.21,39.375-.21,39.371.094,39.371.21" transform="translate(-10.31 -19.045)" fill="#fff"/>
        <path id="Trazado_631647" data-name="Trazado 631647" d="M47.5,98.506A3.105,3.105,0,1,1,44.4,95.4,3.105,3.105,0,0,1,47.5,98.506" transform="translate(-7.945 -18.355)" fill="#fff"/>
        <path id="Trazado_631648" data-name="Trazado 631648" d="M524.422,100.982H406.616a6.353,6.353,0,0,1-6.353-6.353V26.446a6.353,6.353,0,0,1,6.353-6.353H524.422a6.353,6.353,0,0,1,6.353,6.353V94.628a6.353,6.353,0,0,1-6.353,6.353" transform="translate(-77.009 -3.866)" fill="#f5f5f5"/>
        <path id="Trazado_631649" data-name="Trazado 631649" d="M510.06,62.448c-3.121-1.908-6.611-3.534-10.266-3.4-5.191.2-9.525,3.832-13.411,7.279L468.212,82.447a2.455,2.455,0,0,1-4.244-.1L447.875,64.5c-3.337-3.7-7.151-7.654-12.111-8.136-4.022-.391-7.864,1.631-11.245,3.844a80.487,80.487,0,0,0-24.067,24.481l-.188,16.9c1.068,3.648,4.32,6.366,7.773,6.366H523a7.874,7.874,0,0,0,7.773-7.13V84.913A54.836,54.836,0,0,0,510.06,62.448" transform="translate(-77.01 -10.835)" fill="#455a64"/>
        <path id="Trazado_631650" data-name="Trazado 631650" d="M409.253,108.475v.208h-.98v-.165l.527-.5c.13-.124.153-.2.153-.275,0-.122-.084-.192-.247-.192a.375.375,0,0,0-.311.139l-.173-.133a.615.615,0,0,1,.5-.22c.288,0,.475.146.475.381a.534.534,0,0,1-.22.42l-.355.338Z" transform="translate(-78.541 -20.651)" fill="#263238"/>
        <path id="Trazado_631651" data-name="Trazado 631651" d="M409.667,107.892a.156.156,0,1,1,.312,0,.156.156,0,1,1-.312,0m0,.723a.156.156,0,1,1,.312,0,.156.156,0,1,1-.312,0" transform="translate(-78.819 -20.728)" fill="#263238"/>
        <path id="Trazado_631652" data-name="Trazado 631652" d="M410.694,107.359v1.329h-.247v-1.122h-.28v-.207Z" transform="translate(-78.915 -20.656)" fill="#263238"/>
        <path id="Trazado_631653" data-name="Trazado 631653" d="M412.327,108.386h-.235v.3h-.239v-.3h-.728v-.17l.654-.857h.263l-.616.818h.435v-.267h.232v.267h.235Z" transform="translate(-79.099 -20.655)" fill="#263238"/>
        <rect id="Rectángulo_329154" data-name="Rectángulo 329154" width="101.079" height="0.606" transform="translate(335.408 87.126)" fill="#263238"/>
        <rect id="Rectángulo_329155" data-name="Rectángulo 329155" width="31.587" height="1.615" transform="translate(335.332 86.508)" fill="#eb6f2d"/>
        <path id="Trazado_631654" data-name="Trazado 631654" d="M454.861,107.891a1.538,1.538,0,1,1-1.538-1.538,1.538,1.538,0,0,1,1.538,1.538" transform="translate(-86.922 -20.462)" fill="#eb6f2d"/>
        <path id="Trazado_631655" data-name="Trazado 631655" d="M543.365,108.016a.443.443,0,0,1-.486.43c-.362,0-.574-.233-.574-.661a.628.628,0,0,1,.65-.706.664.664,0,0,1,.35.086l-.091.186a.453.453,0,0,0-.253-.065c-.25,0-.408.156-.408.458v0a.454.454,0,0,1,.354-.139.416.416,0,0,1,.458.409m-.238.011c0-.139-.1-.226-.266-.226a.243.243,0,0,0-.27.228c0,.125.1.224.275.224a.231.231,0,0,0,.261-.225" transform="translate(-104.338 -20.602)" fill="#263238"/>
        <path id="Trazado_631656" data-name="Trazado 631656" d="M543.771,107.637a.156.156,0,1,1,.312,0,.156.156,0,1,1-.312,0m0,.723a.156.156,0,1,1,.312,0,.156.156,0,1,1-.312,0" transform="translate(-104.62 -20.679)" fill="#263238"/>
        <path id="Trazado_631657" data-name="Trazado 631657" d="M544.355,107.763c0-.436.238-.683.553-.683s.557.247.557.683-.24.683-.557.683-.553-.247-.553-.683m.861,0c0-.321-.124-.469-.308-.469s-.305.149-.305.469.125.468.305.468.308-.148.308-.468" transform="translate(-104.732 -20.602)" fill="#263238"/>
        <path id="Trazado_631658" data-name="Trazado 631658" d="M545.939,107.763c0-.436.238-.683.553-.683s.557.247.557.683-.24.683-.557.683-.553-.247-.553-.683m.861,0c0-.321-.124-.469-.308-.469s-.305.149-.305.469.126.468.305.468.308-.148.308-.468" transform="translate(-105.037 -20.602)" fill="#263238"/>
        <path id="Trazado_631659" data-name="Trazado 631659" d="M549.929,107.489h-.606v-1.4h1.4v.606h-.793Z" transform="translate(-105.688 -20.411)" fill="#263238"/>
        <path id="Trazado_631660" data-name="Trazado 631660" d="M550.723,109.726h-1.4v-1.4h.606v.792h.795Z" transform="translate(-105.688 -20.842)" fill="#263238"/>
        <path id="Trazado_631661" data-name="Trazado 631661" d="M553.433,109.726h-1.4v-.606h.792v-.8h.606Z" transform="translate(-106.21 -20.841)" fill="#263238"/>
        <path id="Trazado_631662" data-name="Trazado 631662" d="M553.434,107.486h-.606v-.792h-.795v-.606h1.4Z" transform="translate(-106.21 -20.411)" fill="#263238"/>
        <path id="Trazado_631663" data-name="Trazado 631663" d="M532.334,29.788a18.87,18.87,0,0,1,2.749-.169l.166,0,0,.173c.023.991.037,2.19.04,3.494l0,.506-.359-.359-.367-.366-.931-.937.283.008-1.464,1.283-.315.276.008-.413a26.793,26.793,0,0,1,.184-3.494,33.212,33.212,0,0,1,.184,3.494l-.307-.137,1.434-1.317.143-.132.141.14.937.931.366.367-.358.149c0-1.3.018-2.5.04-3.494l.169.17a24.163,24.163,0,0,1-2.749-.17" transform="translate(-102.382 -5.698)" fill="#263238"/>
        <path id="Trazado_631664" data-name="Trazado 631664" d="M543.834,30.315a8.055,8.055,0,0,1-.651.848c-.447.561-1.121,1.407-1.949,2.343l-.347.392,0-.527c0-.548-.006-1.129-.01-1.731v-.17l.065.151-1.217-1.186-.359-.35.5.007c1.214.019,2.257.088,2.948.135a7.788,7.788,0,0,1,1.025.088c-.041.019-.5.035-1.212.074s-1.661.1-2.763.1l.139-.342,1.232,1.17.065.061v.26c0,.6-.006,1.183-.01,1.731l-.35-.134c.768-.838,1.468-1.522,2-2.045s.859-.858.9-.877" transform="translate(-103.772 -5.788)" fill="#263238"/>
        <path id="Trazado_631665" data-name="Trazado 631665" d="M544.243,30.362c.045.107-.534.452-1.293.771s-1.412.49-1.456.384.534-.452,1.293-.771,1.411-.49,1.456-.384" transform="translate(-104.181 -5.836)" fill="#263238"/>
        <path id="Trazado_631666" data-name="Trazado 631666" d="M550.494,29.819c0-.022.174-.068.5-.018a1.939,1.939,0,0,1,1.171.7,2.085,2.085,0,0,1,.345,2,2.13,2.13,0,0,1-4.022,0,2.085,2.085,0,0,1,.346-2,1.937,1.937,0,0,1,1.17-.7c.321-.05.5,0,.5.018s-.173.048-.456.141a1.949,1.949,0,0,0-.974.719,1.808,1.808,0,0,0-.217,1.685,1.759,1.759,0,0,0,3.293,0,1.806,1.806,0,0,0-.216-1.685,1.949,1.949,0,0,0-.974-.719c-.283-.094-.456-.106-.455-.141" transform="translate(-105.504 -5.729)" fill="#263238"/>
        <path id="Trazado_631667" data-name="Trazado 631667" d="M551.573,32.785c-.082.082-.518-.223-.978-.681l-.061-.061v-.1c0-.654.094-1.184.21-1.184s.21.53.21,1.184v.011l-.061-.149c.458.46.762.9.681.978" transform="translate(-105.921 -5.918)" fill="#263238"/>
        <path id="Trazado_631668" data-name="Trazado 631668" d="M478.193,33.058c0,.116-13.413.21-29.955.21s-29.958-.094-29.958-.21,13.41-.21,29.958-.21,29.955.094,29.955.21" transform="translate(-80.476 -6.32)" fill="#263238"/>
        <path id="Trazado_631669" data-name="Trazado 631669" d="M413.651,32.545a2.363,2.363,0,1,1-2.362-2.362,2.363,2.363,0,0,1,2.362,2.362" transform="translate(-78.676 -5.807)" fill="#263238"/>
        <path id="Trazado_631670" data-name="Trazado 631670" d="M524.37,100.931c0-.026.364.009,1.054-.116a6.271,6.271,0,0,0,2.806-1.252,6.342,6.342,0,0,0,2.389-4.276c.078-1.988.01-4.315.023-6.916-.016-10.429-.039-25.507-.067-44.136q-.007-6.987-.014-14.624c-.015-1.264.029-2.573-.035-3.835a6.2,6.2,0,0,0-4.795-5.405,8.381,8.381,0,0,0-1.979-.154l-2.045,0-34.98.019-80.153.016a6.145,6.145,0,0,0-4.561,2.027,6.349,6.349,0,0,0-1.593,4.729q0,5.266,0,10.461,0,10.387,0,20.451t0,19.739q0,4.837,0,9.57,0,2.366,0,4.7,0,1.169,0,2.332a6.834,6.834,0,0,0,.305,2.223,6.166,6.166,0,0,0,4.783,4.154,12.437,12.437,0,0,0,2.219.1l8.88,0,16.981.01,30.48.026,44.133.067,12,.04,3.121.02c.7.007,1.063.022,1.063.022s-.36.015-1.063.022l-3.121.021-12,.039-44.133.067-30.48.026-16.981.011-8.88,0a12.815,12.815,0,0,1-2.286-.1,6.552,6.552,0,0,1-5.086-4.409,7.238,7.238,0,0,1-.325-2.344q0-1.163,0-2.332,0-2.338,0-4.7,0-4.732,0-9.57,0-9.674-.006-19.739t0-20.451q0-5.193,0-10.461a7.52,7.52,0,0,1,.334-2.668,6.59,6.59,0,0,1,6.24-4.508l80.153.017,34.98.019,2.045,0a8.782,8.782,0,0,1,2.054.165,6.541,6.541,0,0,1,5.049,5.708c.065,1.328.016,2.589.03,3.868q-.007,7.628-.014,14.624c-.028,18.63-.051,33.707-.067,44.136-.025,2.608.031,4.914-.062,6.931a6.419,6.419,0,0,1-2.462,4.329,6.229,6.229,0,0,1-2.85,1.228,4.816,4.816,0,0,1-.793.071c-.178,0-.268,0-.268,0" transform="translate(-76.958 -3.816)" fill="#263238"/>
        <path id="Trazado_631671" data-name="Trazado 631671" d="M490.387,53.1a8.675,8.675,0,1,1-8.674-8.674,8.675,8.675,0,0,1,8.674,8.674" transform="translate(-91.011 -8.547)" fill="#455a64"/>
        <path id="Trazado_631672" data-name="Trazado 631672" d="M303.065,47.576a4.255,4.255,0,0,0,2.055-.736,3.892,3.892,0,0,0,1.455-2.152A6.286,6.286,0,0,0,306.7,43q0-.929,0-1.972c.026-5.614.063-13.669.109-23.605q.024-3.738.05-7.822.015-2.04.029-4.161a11.842,11.842,0,0,0-.069-2.072,3.531,3.531,0,0,0-.927-1.748,3.333,3.333,0,0,0-1.763-.939,17.3,17.3,0,0,0-2.191-.046l-4.612.031L287.7.724,244.836.959a3.494,3.494,0,0,0-3.383,3.226q-.034,2.8-.068,5.566-.056,5.554-.11,10.937c-.076,7.17-.149,14.086-.218,20.676q-.013,1.236-.027,2.455a3.677,3.677,0,0,0,.531,2.136,3.349,3.349,0,0,0,1.648,1.364,5.81,5.81,0,0,0,2.213.213l9.082-.026,16.3-.034,23.6,0,6.417.037,1.669.028a3.347,3.347,0,0,1,.569.035,3.274,3.274,0,0,1-.569.04l-1.668.044-6.417.1-23.6.229-16.3.124-9.081.062a6.364,6.364,0,0,1-2.445-.247A4,4,0,0,1,241,46.305a4.335,4.335,0,0,1-.64-2.492q.01-1.219.02-2.455c.056-6.59.115-13.506.175-20.676q.048-5.379.1-10.937.034-2.791.068-5.622A4.225,4.225,0,0,1,244.833.229L287.7.052l9.627-.031L301.94.007a16.944,16.944,0,0,1,2.307.065,3.943,3.943,0,0,1,2.083,1.12,4.142,4.142,0,0,1,1.079,2.052,12.128,12.128,0,0,1,.071,2.2q-.025,2.12-.051,4.161-.051,4.078-.1,7.821c-.144,9.936-.26,17.99-.341,23.6q-.018,1.043-.036,1.972a6.46,6.46,0,0,1-.169,1.746,4.016,4.016,0,0,1-1.58,2.216,3.66,3.66,0,0,1-1.568.6,2.128,2.128,0,0,1-.572.015" transform="translate(-46.244 0)" fill="#eb6f2d"/>
        <path id="Trazado_631673" data-name="Trazado 631673" d="M283.043,23.695l7.969,4.785-8.094,4.8-8.094,4.8.125-9.586.125-9.586Z" transform="translate(-52.875 -3.638)" fill="#eb6f2d"/>
      </g>
    </g>
  </g>
</svg>
