<svg xmlns="http://www.w3.org/2000/svg" width="78.227" height="50.137" viewBox="0 0 78.227 50.137">
  <g id="Grupo_1034305" data-name="Grupo 1034305" transform="translate(-180 -7553.863)">
    <path id="Trazado_194609" data-name="Trazado 194609" d="M0,0,78.227,36.813H0Z" transform="translate(180 7567.188)" fill="#5f914e"/>
    <g id="Grupo_880435" data-name="Grupo 880435" transform="translate(199.113 7553.863)">
      <path id="Trazado_633320" data-name="Trazado 633320" d="M8,72H56.466V97.069H8Zm0,0" transform="translate(-7.164 -64.479)" fill="#b6e1fd"/>
      <path id="Trazado_633321" data-name="Trazado 633321" d="M56.466,72V97.069H8C29.93,94.3,46.6,86.442,56.466,72Zm0,0" transform="translate(-7.164 -64.479)" fill="#0082ff"/>
      <path id="Trazado_633322" data-name="Trazado 633322" d="M156.055,440a1.671,1.671,0,1,1,0,3.342H137.671a1.671,1.671,0,1,1,0-3.342Zm0,0" transform="translate(-121.794 -394.041)" fill="#787680"/>
      <path id="Trazado_633323" data-name="Trazado 633323" d="M189.37,382.685H176l.836-6.685h11.7Zm0,0" transform="translate(-157.616 -336.726)" fill="#898890"/>
      <path id="Trazado_633324" data-name="Trazado 633324" d="M56.466,312v3.342a3.352,3.352,0,0,1-3.342,3.343H11.342A3.352,3.352,0,0,1,8,315.342V312Zm0,0" transform="translate(-7.164 -279.411)" fill="#c6c5ca"/>
      <path id="Trazado_633325" data-name="Trazado 633325" d="M56.466,11.342v3.342H8V11.342A3.352,3.352,0,0,1,11.342,8H53.123A3.343,3.343,0,0,1,56.466,11.342Zm0,0" transform="translate(-7.164 -7.164)" fill="#eb6f2d"/>
      <path id="Trazado_633326" data-name="Trazado 633326" d="M194.116,377.671H182l.209-1.671h11.7Zm0,0" transform="translate(-162.99 -336.726)" fill="#787680"/>
      <path id="Trazado_633327" data-name="Trazado 633327" d="M132.411,118.174a14.074,14.074,0,0,1-2.156,7.521h-24.1a14.206,14.206,0,1,1,26.255-7.52Zm0,0" transform="translate(-93.137 -93.105)" fill="#ffb338"/>
      <path id="Trazado_633328" data-name="Trazado 633328" d="M224,225.671a1.671,1.671,0,1,1,1.671,1.671A1.677,1.677,0,0,1,224,225.671Zm0,0" transform="translate(-200.603 -200.603)" fill="#ff5023"/>
      <path id="Trazado_633329" data-name="Trazado 633329" d="M232,128h1.671v1.671H232Zm0,0" transform="translate(-207.767 -114.63)"/>
      <path id="Trazado_633330" data-name="Trazado 633330" d="M177.074,139.844l1.447-.836.836,1.447-1.447.836Zm0,0" transform="translate(-158.578 -124.488)"/>
      <path id="Trazado_633331" data-name="Trazado 633331" d="M139,178.525l.835-1.446,1.446.836-.835,1.446Zm0,0" transform="translate(-124.485 -158.582)"/>
      <path id="Trazado_633332" data-name="Trazado 633332" d="M128,232h1.671v1.671H128Zm0,0" transform="translate(-114.63 -207.767)"/>
      <path id="Trazado_633333" data-name="Trazado 633333" d="M336,232h1.671v1.671H336Zm0,0" transform="translate(-300.904 -207.767)"/>
      <path id="Trazado_633334" data-name="Trazado 633334" d="M319.141,177.905l1.446-.835.835,1.446-1.446.835Zm0,0" transform="translate(-285.806 -158.575)"/>
      <path id="Trazado_633335" data-name="Trazado 633335" d="M281.074,140.455l.835-1.447,1.448.835-.836,1.448Zm0,0" transform="translate(-251.715 -124.488)"/>
      <path id="Trazado_633336" data-name="Trazado 633336" d="M222.93,186.344l-3.349,3.348a2.475,2.475,0,0,0-1.074-.251,2.507,2.507,0,1,0,2.507,2.507,2.475,2.475,0,0,0-.251-1.074l3.349-3.349Zm-4.423,6.44a.836.836,0,1,1,.836-.836A.836.836,0,0,1,218.507,192.784Zm0,0" transform="translate(-193.439 -166.88)"/>
      <path id="Trazado_633337" data-name="Trazado 633337" d="M184.117,177.867l.478-1.6a6.685,6.685,0,0,0-8.6,6.407h1.671a5.013,5.013,0,0,1,6.446-4.806Zm0,0" transform="translate(-157.616 -157.604)"/>
      <path id="Trazado_633338" data-name="Trazado 633338" d="M45.959,0H4.178A4.183,4.183,0,0,0,0,4.178V35.932A4.183,4.183,0,0,0,4.178,40.11H18.273l-.627,5.014H15.877a2.507,2.507,0,0,0,0,5.014H34.26a2.507,2.507,0,0,0,0-5.014H32.491l-.627-5.014H45.959a4.183,4.183,0,0,0,4.178-4.178V4.178A4.183,4.183,0,0,0,45.959,0ZM4.178,1.671H45.959a2.507,2.507,0,0,1,2.507,2.507V6.685H1.671V4.178A2.507,2.507,0,0,1,4.178,1.671ZM13.5,31.754a13.37,13.37,0,1,1,23.139,0ZM25.069,10.027A15.028,15.028,0,0,0,11.6,31.754H1.671V8.356H48.466v23.4H38.535A15.028,15.028,0,0,0,25.069,10.027ZM35.1,47.63a.836.836,0,0,1-.836.836H15.877a.836.836,0,1,1,0-1.671H34.26A.836.836,0,0,1,35.1,47.63Zm-4.289-2.507H19.33l.627-5.014H30.18Zm15.152-6.685H4.178a2.507,2.507,0,0,1-2.507-2.507V33.425H48.466v2.507A2.507,2.507,0,0,1,45.959,38.438Zm0,0"/>
      <path id="Trazado_633339" data-name="Trazado 633339" d="M416,336h1.671v1.671H416Zm0,0" transform="translate(-372.548 -300.904)"/>
      <path id="Trazado_633340" data-name="Trazado 633340" d="M48,32h1.671v1.671H48Zm0,0" transform="translate(-42.986 -28.658)"/>
      <path id="Trazado_633341" data-name="Trazado 633341" d="M80,32h1.671v1.671H80Zm0,0" transform="translate(-71.644 -28.658)"/>
      <path id="Trazado_633342" data-name="Trazado 633342" d="M112,32h1.671v1.671H112Zm0,0" transform="translate(-100.301 -28.658)"/>
    </g>
  </g>
</svg>
