<svg xmlns="http://www.w3.org/2000/svg" xmlns:xlink="http://www.w3.org/1999/xlink" width="820" height="172.727" viewBox="0 0 820 172.727">
  <defs>
    <clipPath id="clip-path">
      <rect id="Rectángulo_277789" data-name="Rectángulo 277789" width="820" height="172.727" fill="none"/>
    </clipPath>
    <filter id="Trazado_501706" x="-7.758" y="-4.76" width="187.42" height="187.422" filterUnits="userSpaceOnUse">
      <feOffset dy="3" input="SourceAlpha"/>
      <feGaussianBlur stdDeviation="9" result="blur"/>
      <feFlood flood-opacity="0.161"/>
      <feComposite operator="in" in2="blur"/>
      <feComposite in="SourceGraphic"/>
    </filter>
    <filter id="Trazado_501703" x="206.704" y="-5.615" width="187.422" height="187.422" filterUnits="userSpaceOnUse">
      <feOffset dy="3" input="SourceAlpha"/>
      <feGaussianBlur stdDeviation="9" result="blur-2"/>
      <feFlood flood-opacity="0.161"/>
      <feComposite operator="in" in2="blur-2"/>
      <feComposite in="SourceGraphic"/>
    </filter>
    <filter id="Rectángulo_277788" x="424.346" y="-4.76" width="187.421" height="187.422" filterUnits="userSpaceOnUse">
      <feOffset dy="3" input="SourceAlpha"/>
      <feGaussianBlur stdDeviation="9" result="blur-3"/>
      <feFlood flood-opacity="0.161"/>
      <feComposite operator="in" in2="blur-3"/>
      <feComposite in="SourceGraphic"/>
    </filter>
    <filter id="Trazado_501704" x="640.337" y="-5.615" width="187.421" height="187.422" filterUnits="userSpaceOnUse">
      <feOffset dy="3" input="SourceAlpha"/>
      <feGaussianBlur stdDeviation="9" result="blur-4"/>
      <feFlood flood-opacity="0.161"/>
      <feComposite operator="in" in2="blur-4"/>
      <feComposite in="SourceGraphic"/>
    </filter>
  </defs>
  <g id="Grupo_1034306" data-name="Grupo 1034306" transform="translate(-390 -8756.818)">
    <g id="Grupo_736622" data-name="Grupo 736622" transform="translate(390 8756.818)">
      <g id="Grupo_736621" data-name="Grupo 736621" transform="translate(0 0)" clip-path="url(#clip-path)">
        <path id="Trazado_501648" data-name="Trazado 501648" d="M429.081,34.9a2.584,2.584,0,1,0,2.584,2.584,2.58,2.58,0,0,0-2.584-2.584" transform="translate(225.906 18.484)" fill="#333"/>
        <path id="Trazado_501649" data-name="Trazado 501649" d="M429.081,28.184a2.584,2.584,0,1,0,2.584,2.584,2.58,2.58,0,0,0-2.584-2.584" transform="translate(225.906 14.928)" fill="#333"/>
        <path id="Trazado_501650" data-name="Trazado 501650" d="M429.081,41.609a2.584,2.584,0,1,0,2.584,2.584,2.58,2.58,0,0,0-2.584-2.584" transform="translate(225.906 22.039)" fill="#333"/>
        <path id="Trazado_501651" data-name="Trazado 501651" d="M429.081,48.322a2.584,2.584,0,1,0,2.584,2.584,2.58,2.58,0,0,0-2.584-2.584" transform="translate(225.906 25.595)" fill="#333"/>
        <path id="Trazado_501652" data-name="Trazado 501652" d="M429.081,21.46a2.584,2.584,0,1,0,2.584,2.584,2.58,2.58,0,0,0-2.584-2.584" transform="translate(225.906 11.367)" fill="#333"/>
        <path id="Trazado_501653" data-name="Trazado 501653" d="M433.657,9.251a2.7,2.7,0,0,0-1.6-.552,2.543,2.543,0,0,0-2.031,1,2.583,2.583,0,1,0,3.635-.448" transform="translate(227.48 4.608)" fill="#333"/>
        <path id="Trazado_501654" data-name="Trazado 501654" d="M429.786,14.81a2.2,2.2,0,0,0-.465-.05,2.619,2.619,0,1,0,.465.05" transform="translate(226.028 7.818)" fill="#333"/>
        <path id="Trazado_501655" data-name="Trazado 501655" d="M532.45,41.575a2.593,2.593,0,1,0,2.584,2.6,2.595,2.595,0,0,0-2.584-2.6" transform="translate(280.658 22.021)" fill="#333"/>
        <path id="Trazado_501656" data-name="Trazado 501656" d="M531.067,13.294a2.575,2.575,0,0,0,.43-3.618V9.659a2.629,2.629,0,0,0-2.031-.982,2.532,2.532,0,0,0-1.6.569,2.581,2.581,0,1,0,3.2,4.048" transform="translate(279.076 4.596)" fill="#333"/>
        <path id="Trazado_501657" data-name="Trazado 501657" d="M532.45,34.863a2.584,2.584,0,1,0,2.584,2.584,2.58,2.58,0,0,0-2.584-2.584" transform="translate(280.658 18.466)" fill="#333"/>
        <path id="Trazado_501658" data-name="Trazado 501658" d="M532.45,48.3a2.584,2.584,0,1,0,2.584,2.585A2.581,2.581,0,0,0,532.45,48.3" transform="translate(280.658 25.583)" fill="#333"/>
        <path id="Trazado_501659" data-name="Trazado 501659" d="M532.45,28.15a2.584,2.584,0,1,0,2.584,2.584,2.58,2.58,0,0,0-2.584-2.584" transform="translate(280.658 14.91)" fill="#333"/>
        <path id="Trazado_501660" data-name="Trazado 501660" d="M437.281,4.589a2.589,2.589,0,1,0,1.068,4.944,2.588,2.588,0,0,0-1.068-4.944" transform="translate(230.247 2.431)" fill="#333"/>
        <path id="Trazado_501661" data-name="Trazado 501661" d="M529.666,17.8a2.586,2.586,0,1,0,2.55-3.067,2.389,2.389,0,0,0-.483.052,2.586,2.586,0,0,0-2.067,3.015" transform="translate(280.529 7.805)" fill="#333"/>
        <path id="Trazado_501662" data-name="Trazado 501662" d="M532.45,21.438a2.584,2.584,0,1,0,2.584,2.584,2.58,2.58,0,0,0-2.584-2.584" transform="translate(280.658 11.355)" fill="#333"/>
        <path id="Trazado_501663" data-name="Trazado 501663" d="M504.26,3.349a2.594,2.594,0,1,0,2.582,2.584,2.592,2.592,0,0,0-2.582-2.584" transform="translate(265.726 1.774)" fill="#333"/>
        <path id="Trazado_501664" data-name="Trazado 501664" d="M497.535,3.349a2.594,2.594,0,1,0,2.584,2.584,2.6,2.6,0,0,0-2.584-2.584" transform="translate(262.164 1.774)" fill="#333"/>
        <path id="Trazado_501665" data-name="Trazado 501665" d="M510.972,3.349a2.594,2.594,0,1,0,2.584,2.584,2.592,2.592,0,0,0-2.584-2.584" transform="translate(269.281 1.774)" fill="#333"/>
        <path id="Trazado_501666" data-name="Trazado 501666" d="M525.28,4.818h.017a2.582,2.582,0,1,0-2.135,4.7,2.579,2.579,0,1,0,2.119-4.7" transform="translate(276.301 2.425)" fill="#333"/>
        <path id="Trazado_501667" data-name="Trazado 501667" d="M443.813,3.349A2.594,2.594,0,1,0,446.4,5.933a2.605,2.605,0,0,0-2.584-2.584" transform="translate(233.708 1.774)" fill="#333"/>
        <path id="Trazado_501668" data-name="Trazado 501668" d="M517.684,3.349a2.594,2.594,0,1,0,2.584,2.584,2.592,2.592,0,0,0-2.584-2.584" transform="translate(272.836 1.774)" fill="#333"/>
        <path id="Trazado_501669" data-name="Trazado 501669" d="M490.823,3.349a2.594,2.594,0,1,0,2.584,2.584,2.592,2.592,0,0,0-2.584-2.584" transform="translate(258.609 1.774)" fill="#333"/>
        <path id="Trazado_501670" data-name="Trazado 501670" d="M457.249,3.349a2.594,2.594,0,1,0,2.584,2.584,2.592,2.592,0,0,0-2.584-2.584" transform="translate(240.826 1.774)" fill="#333"/>
        <path id="Trazado_501671" data-name="Trazado 501671" d="M484.111,3.349a2.594,2.594,0,1,0,2.584,2.584,2.592,2.592,0,0,0-2.584-2.584" transform="translate(255.053 1.774)" fill="#333"/>
        <path id="Trazado_501672" data-name="Trazado 501672" d="M463.961,3.349a2.594,2.594,0,1,0,2.584,2.584,2.592,2.592,0,0,0-2.584-2.584" transform="translate(244.381 1.774)" fill="#333"/>
        <path id="Trazado_501673" data-name="Trazado 501673" d="M450.537,3.349a2.594,2.594,0,1,0,2.584,2.584,2.592,2.592,0,0,0-2.584-2.584" transform="translate(237.27 1.774)" fill="#333"/>
        <path id="Trazado_501674" data-name="Trazado 501674" d="M477.4,3.349a2.594,2.594,0,1,0,2.584,2.584A2.592,2.592,0,0,0,477.4,3.349" transform="translate(251.498 1.774)" fill="#333"/>
        <path id="Trazado_501675" data-name="Trazado 501675" d="M470.685,3.349a2.594,2.594,0,1,0,2.567,2.584,2.581,2.581,0,0,0-2.567-2.584" transform="translate(247.942 1.774)" fill="#333"/>
        <path id="Trazado_501676" data-name="Trazado 501676" d="M532.45,55.034a2.3,2.3,0,0,0-.5.052,2.924,2.924,0,0,0-1.326.705,2.616,2.616,0,0,0-.757,1.826,2.38,2.38,0,0,0,.206,1,2.121,2.121,0,0,0,.223.448,3.445,3.445,0,0,0,.327.4,2.629,2.629,0,0,0,2.327.69,2.757,2.757,0,0,0,.5-.138,3.443,3.443,0,0,0,.431-.242,2.4,2.4,0,0,0,.4-.311,3.431,3.431,0,0,0,.327-.4,3.676,3.676,0,0,0,.242-.448c.051-.154.1-.327.138-.482a2.694,2.694,0,0,0,.05-.517,2.616,2.616,0,0,0-.757-1.826,2.587,2.587,0,0,0-1.826-.757" transform="translate(280.658 29.15)" fill="#333"/>
        <path id="Trazado_501677" data-name="Trazado 501677" d="M6.891,92.842A6.891,6.891,0,0,1,0,85.951V28.245A28.278,28.278,0,0,1,28.247,0h115.41A28.278,28.278,0,0,1,171.9,28.245V59.6a6.891,6.891,0,1,1-13.782,0V28.245a14.481,14.481,0,0,0-14.465-14.463H28.247A14.48,14.48,0,0,0,13.782,28.245V85.951a6.891,6.891,0,0,1-6.891,6.891" transform="translate(0 0)" fill="#efd800"/>
        <path id="Trazado_501678" data-name="Trazado 501678" d="M4.8,84.725a.861.861,0,0,1-.861-.861V26.158A22.241,22.241,0,0,1,26.159,3.941h115.41a22.242,22.242,0,0,1,22.217,22.217V57.509a.861.861,0,1,1-1.722,0V26.158A20.518,20.518,0,0,0,141.569,5.665H26.159A20.517,20.517,0,0,0,5.664,26.158V83.864a.861.861,0,0,1-.861.861" transform="translate(2.088 2.087)" fill="#333"/>
        <path id="Trazado_501679" data-name="Trazado 501679" d="M5.4,59.661a2.595,2.595,0,0,1-1.826-4.427,2.7,2.7,0,0,1,3.651,0,3.587,3.587,0,0,1,.329.4,3.672,3.672,0,0,1,.24.448,4.746,4.746,0,0,1,.138.482,2.578,2.578,0,0,1,.052.517A2.611,2.611,0,0,1,7.224,58.9a2.581,2.581,0,0,1-1.825.757" transform="translate(1.491 28.88)" fill="#333"/>
        <path id="Trazado_501680" data-name="Trazado 501680" d="M138.349,132.593a2.584,2.584,0,1,1,2.584,2.584,2.6,2.6,0,0,1-2.584-2.584m-10.267,0a2.584,2.584,0,1,1,2.584,2.584,2.6,2.6,0,0,1-2.584-2.584m-10.269,0a2.584,2.584,0,1,1,2.584,2.584,2.6,2.6,0,0,1-2.584-2.584m-10.286,0a2.584,2.584,0,1,1,2.584,2.584,2.608,2.608,0,0,1-2.584-2.584m-10.267,0a2.584,2.584,0,1,1,2.584,2.584,2.6,2.6,0,0,1-2.584-2.584m-10.269,0a2.584,2.584,0,1,1,2.584,2.584,2.6,2.6,0,0,1-2.584-2.584m-10.267,0a2.584,2.584,0,1,1,2.584,2.584,2.6,2.6,0,0,1-2.584-2.584m-10.269,0a2.575,2.575,0,1,1,2.585,2.584,2.586,2.586,0,0,1-2.585-2.584m-10.286,0a2.584,2.584,0,1,1,2.584,2.584,2.6,2.6,0,0,1-2.584-2.584m-10.267,0a2.584,2.584,0,1,1,2.584,2.584,2.6,2.6,0,0,1-2.584-2.584m-10.269,0a2.584,2.584,0,1,1,2.585,2.584,2.6,2.6,0,0,1-2.585-2.584m-10.286,0a2.584,2.584,0,1,1,2.585,2.584,2.609,2.609,0,0,1-2.585-2.584m123.234-.828a2.579,2.579,0,1,1,4.7-2.119,2.556,2.556,0,0,1-1.293,3.41h.017a2.557,2.557,0,0,1-3.428-1.291M16.873,133.04a2.559,2.559,0,1,1,1.068.242,2.6,2.6,0,0,1-1.068-.242m140.478-6.581a2.581,2.581,0,1,1,3.636-.431v.017a2.627,2.627,0,0,1-2.033.982,2.542,2.542,0,0,1-1.6-.568M7.915,125.994a2.583,2.583,0,1,1,3.635.448,2.7,2.7,0,0,1-1.6.552,2.543,2.543,0,0,1-2.031-1m154.759-8.288a2.576,2.576,0,1,1,.948-5.063,2.579,2.579,0,0,1-.465,5.115,2.391,2.391,0,0,1-.483-.052m-159.463-2.1a2.585,2.585,0,1,1,3.015,2.067,2.2,2.2,0,0,1-.465.05,2.611,2.611,0,0,1-2.55-2.117m157.723-10.683a2.584,2.584,0,1,1,2.585,2.585,2.582,2.582,0,0,1-2.585-2.585m-158.12-.034A2.584,2.584,0,1,1,5.4,107.474a2.581,2.581,0,0,1-2.584-2.585m158.12-10.234a2.584,2.584,0,1,1,2.585,2.584,2.581,2.581,0,0,1-2.585-2.584M2.815,94.6A2.584,2.584,0,1,1,5.4,97.187,2.593,2.593,0,0,1,2.815,94.6m158.12-10.217a2.584,2.584,0,1,1,2.585,2.585,2.582,2.582,0,0,1-2.585-2.585M2.815,84.335A2.584,2.584,0,1,1,5.4,86.92a2.581,2.581,0,0,1-2.584-2.585M160.935,74.1a2.584,2.584,0,1,1,2.585,2.6,2.591,2.591,0,0,1-2.585-2.6M2.815,74.068A2.584,2.584,0,1,1,5.4,76.651a2.58,2.58,0,0,1-2.584-2.584m158.12-10.234a2.584,2.584,0,1,1,2.585,2.585,2.592,2.592,0,0,1-2.585-2.585M2.815,63.8A2.584,2.584,0,1,1,5.4,66.384,2.58,2.58,0,0,1,2.815,63.8" transform="translate(1.491 32.425)" fill="#333"/>
        <path id="Trazado_501681" data-name="Trazado 501681" d="M108.768,59.671a2.3,2.3,0,0,1-.5-.052,2.216,2.216,0,0,1-.482-.154,2.185,2.185,0,0,1-.448-.242,2.216,2.216,0,0,1-.4-.309,2.617,2.617,0,0,1-.757-1.826,2.381,2.381,0,0,1,.207-1,2.114,2.114,0,0,1,.223-.448,3.576,3.576,0,0,1,.327-.4,2.633,2.633,0,0,1,2.327-.69,2.756,2.756,0,0,1,.5.138,3.655,3.655,0,0,1,.431.242,2.4,2.4,0,0,1,.4.311,3.573,3.573,0,0,1,.327.4,3.679,3.679,0,0,1,.242.448c.05.154.1.327.138.482a2.693,2.693,0,0,1,.05.517,2.617,2.617,0,0,1-.757,1.826,2.587,2.587,0,0,1-1.826.757" transform="translate(56.243 28.87)" fill="#333"/>
        <path id="Trazado_501682" data-name="Trazado 501682" d="M114.2,57.088a2.584,2.584,0,1,1,2.584,2.584,2.58,2.58,0,0,1-2.584-2.584" transform="translate(60.49 28.869)" fill="#333"/>
        <path id="Trazado_501683" data-name="Trazado 501683" d="M124.8,59.661a2.524,2.524,0,0,1-.5-.052,2.229,2.229,0,0,1-.483-.154,2.31,2.31,0,0,1-1.153-.948,2.724,2.724,0,0,1-.4-.93,2.525,2.525,0,0,1-.052-.5,2.616,2.616,0,0,1,.759-1.843,2.7,2.7,0,0,1,3.651,0,2.6,2.6,0,0,1,0,3.67,2.581,2.581,0,0,1-1.826.757" transform="translate(64.738 28.88)" fill="#333"/>
        <path id="Trazado_501684" data-name="Trazado 501684" d="M127.541,70.938a.878.878,0,0,1-.381-.087.867.867,0,0,1-.48-.774V49.888a.861.861,0,0,1,1.387-.682L141.149,59.3a.862.862,0,0,1,0,1.364L128.067,70.757a.86.86,0,0,1-.526.181m.861-19.3V68.324l10.81-8.341Z" transform="translate(67.099 25.969)" fill="#333"/>
        <path id="Trazado_501685" data-name="Trazado 501685" d="M147.092,51.125a6.891,6.891,0,0,0-6.891,6.891v57.706a28.279,28.279,0,0,0,28.247,28.247h115.41A28.279,28.279,0,0,0,312.1,115.722V84.369a6.891,6.891,0,1,0-13.782,0v31.352a14.481,14.481,0,0,1-14.465,14.463H168.448a14.48,14.48,0,0,1-14.465-14.463V58.016a6.891,6.891,0,0,0-6.891-6.891" transform="translate(74.261 27.08)" fill="#94bf10"/>
        <path id="Trazado_501686" data-name="Trazado 501686" d="M145,55.067a.861.861,0,0,0-.861.861v57.706a22.241,22.241,0,0,0,22.217,22.217H281.77a22.242,22.242,0,0,0,22.217-22.217V82.281a.861.861,0,1,0-1.722,0v31.352a20.518,20.518,0,0,1-20.495,20.493H166.36a20.517,20.517,0,0,1-20.495-20.493V55.928a.861.861,0,0,0-.861-.861" transform="translate(76.349 29.168)" fill="#333"/>
        <path id="Trazado_501687" data-name="Trazado 501687" d="M145.6,53.937a2.595,2.595,0,0,0-1.826,4.427,2.7,2.7,0,0,0,3.651,0,3.418,3.418,0,0,0,.329-.4,3.67,3.67,0,0,0,.24-.448,4.745,4.745,0,0,0,.138-.482,2.587,2.587,0,0,0-2.532-3.1" transform="translate(75.753 28.569)" fill="#333"/>
        <path id="Trazado_501688" data-name="Trazado 501688" d="M281.135,2.253h0a2.593,2.593,0,1,1-2.584,2.584,2.591,2.591,0,0,1,2.584-2.584m-10.267,0h0a2.593,2.593,0,1,1-2.585,2.584,2.592,2.592,0,0,1,2.585-2.584m-10.269,0h0a2.593,2.593,0,1,1-2.584,2.584A2.6,2.6,0,0,1,260.6,2.253m-10.286,0h0a2.593,2.593,0,1,1-2.584,2.584,2.591,2.591,0,0,1,2.584-2.584m-10.267,0h0a2.593,2.593,0,1,1-2.585,2.584,2.592,2.592,0,0,1,2.585-2.584m-10.269,0h0a2.593,2.593,0,1,1-2.584,2.584,2.591,2.591,0,0,1,2.584-2.584m-10.267,0h0a2.593,2.593,0,1,1-2.585,2.584,2.592,2.592,0,0,1,2.585-2.584m-10.269,0h0a2.593,2.593,0,1,1-2.584,2.584,2.589,2.589,0,0,1,2.584-2.584m-10.286,0h0a2.593,2.593,0,1,1-2.584,2.584,2.592,2.592,0,0,1,2.584-2.584m-10.267,0h0A2.593,2.593,0,1,1,186.1,4.837a2.592,2.592,0,0,1,2.585-2.584m-10.269,0h0a2.593,2.593,0,1,1-2.584,2.584,2.592,2.592,0,0,1,2.584-2.584m-10.286,0h0a2.593,2.593,0,1,1-2.584,2.584,2.592,2.592,0,0,1,2.584-2.584m123.01,1.878h0a2.614,2.614,0,0,1,1.068.24H292.2a2.58,2.58,0,0,1-2.12,4.7,2.588,2.588,0,0,1,1.069-4.944m-133,.017h0a2.611,2.611,0,1,1-1.068.24,2.59,2.59,0,0,1,1.068-.24M299.156,10.4h0a2.626,2.626,0,0,1,2.031.984V11.4a2.582,2.582,0,1,1-3.635-.431,2.541,2.541,0,0,1,1.6-.569m-149.007.034h0a2.7,2.7,0,0,1,1.6.552,2.589,2.589,0,1,1-3.636.448,2.548,2.548,0,0,1,2.033-1m153.211,9.236h0a2.625,2.625,0,1,1-.483.052,2.39,2.39,0,0,1,.483-.052m-157.4.035h0a2.2,2.2,0,0,1,.467.05,2.545,2.545,0,1,1-.467-.05M303.72,29.922h0a2.584,2.584,0,1,1-2.584,2.584,2.581,2.581,0,0,1,2.584-2.584m-158.12.034h0a2.584,2.584,0,1,1-2.584,2.584,2.581,2.581,0,0,1,2.584-2.584M303.72,40.189h0a2.584,2.584,0,1,1-2.584,2.585,2.582,2.582,0,0,1,2.584-2.585m-158.12.054h0a2.584,2.584,0,1,1-2.584,2.584,2.58,2.58,0,0,1,2.584-2.584M303.72,50.458h0a2.584,2.584,0,1,1-2.584,2.584,2.581,2.581,0,0,1,2.584-2.584M145.6,50.51h0a2.584,2.584,0,1,1-2.584,2.584A2.58,2.58,0,0,1,145.6,50.51M303.72,60.725h0a2.593,2.593,0,1,1-2.584,2.6,2.6,2.6,0,0,1,2.584-2.6m-158.12.054h0a2.584,2.584,0,1,1-2.584,2.584,2.58,2.58,0,0,1,2.584-2.584M303.72,71.01h0a2.584,2.584,0,1,1-2.584,2.585,2.581,2.581,0,0,1,2.584-2.585m-158.12.035h0a2.584,2.584,0,1,1-2.584,2.584,2.581,2.581,0,0,1,2.584-2.584" transform="translate(75.753 1.193)" fill="#333"/>
        <path id="Trazado_501689" data-name="Trazado 501689" d="M248.969,53.937a2.4,2.4,0,0,0-.5.05,2.9,2.9,0,0,0-1.326.707,2.617,2.617,0,0,0-.757,1.826,2.7,2.7,0,0,0,.05.517,2.677,2.677,0,0,0,.156.482,2.114,2.114,0,0,0,.223.448,3.753,3.753,0,0,0,.327.4,2.633,2.633,0,0,0,2.327.69,2.757,2.757,0,0,0,.5-.138,3.659,3.659,0,0,0,.431-.242,2.488,2.488,0,0,0,.4-.311,3.571,3.571,0,0,0,.327-.4,3.679,3.679,0,0,0,.242-.448c.05-.154.1-.327.138-.482a2.7,2.7,0,0,0,.05-.517,2.617,2.617,0,0,0-.757-1.826,2.587,2.587,0,0,0-1.826-.757" transform="translate(130.504 28.569)" fill="#333"/>
        <path id="Trazado_501690" data-name="Trazado 501690" d="M254.4,56.522a2.584,2.584,0,1,0,2.582-2.584,2.58,2.58,0,0,0-2.582,2.584" transform="translate(134.752 28.57)" fill="#333"/>
        <path id="Trazado_501691" data-name="Trazado 501691" d="M265.007,53.937a2.641,2.641,0,0,0-.5.05,2.805,2.805,0,0,0-.93.4,2.078,2.078,0,0,0-.707.708,2.3,2.3,0,0,0-.242.447,2.229,2.229,0,0,0-.155.483,2.578,2.578,0,0,0,.707,2.342,2.7,2.7,0,0,0,3.651,0,2.6,2.6,0,0,0,0-3.67,2.575,2.575,0,0,0-1.825-.757" transform="translate(138.999 28.569)" fill="#333"/>
        <path id="Trazado_501692" data-name="Trazado 501692" d="M268.268,48.648,281.35,58.741a.862.862,0,0,1,0,1.364L268.268,70.2a.861.861,0,0,1-1.387-.682V49.329a.867.867,0,0,1,.48-.774.878.878,0,0,1,.381-.087.86.86,0,0,1,.526.181m11.145,10.775L268.6,51.082V67.765Z" transform="translate(141.361 25.672)" fill="#333"/>
        <path id="Trazado_501693" data-name="Trazado 501693" d="M289.373,92.842a6.891,6.891,0,0,1-6.891-6.891V28.245A28.278,28.278,0,0,1,310.729,0H426.138a28.278,28.278,0,0,1,28.247,28.245V59.6a6.891,6.891,0,1,1-13.782,0V28.245a14.481,14.481,0,0,0-14.465-14.463H310.729a14.48,14.48,0,0,0-14.465,14.463V85.951a6.891,6.891,0,0,1-6.891,6.891" transform="translate(149.624 0)" fill="#08afaf"/>
        <path id="Trazado_501694" data-name="Trazado 501694" d="M287.285,84.725a.861.861,0,0,1-.861-.861V26.158A22.241,22.241,0,0,1,308.641,3.941H424.05a22.242,22.242,0,0,1,22.217,22.217V57.509a.861.861,0,1,1-1.722,0V26.158A20.518,20.518,0,0,0,424.05,5.665H308.641a20.517,20.517,0,0,0-20.495,20.493V83.864a.861.861,0,0,1-.861.861" transform="translate(151.712 2.087)" fill="#333"/>
        <path id="Trazado_501695" data-name="Trazado 501695" d="M287.881,59.661a2.595,2.595,0,0,1-1.826-4.427,2.7,2.7,0,0,1,3.651,0,3.429,3.429,0,0,1,.329.4,3.673,3.673,0,0,1,.24.448,4.758,4.758,0,0,1,.138.482,2.575,2.575,0,0,1,.052.517,2.612,2.612,0,0,1-.759,1.826,2.581,2.581,0,0,1-1.825.757" transform="translate(151.115 28.88)" fill="#333"/>
        <path id="Trazado_501696" data-name="Trazado 501696" d="M420.831,132.593a2.584,2.584,0,1,1,2.584,2.584,2.6,2.6,0,0,1-2.584-2.584m-10.267,0a2.584,2.584,0,1,1,2.584,2.584,2.6,2.6,0,0,1-2.584-2.584m-10.269,0a2.584,2.584,0,1,1,2.584,2.584,2.6,2.6,0,0,1-2.584-2.584m-10.286,0a2.584,2.584,0,1,1,2.584,2.584,2.608,2.608,0,0,1-2.584-2.584m-10.267,0a2.584,2.584,0,1,1,2.584,2.584,2.6,2.6,0,0,1-2.584-2.584m-10.269,0a2.584,2.584,0,1,1,2.584,2.584,2.6,2.6,0,0,1-2.584-2.584m-10.269,0a2.584,2.584,0,1,1,2.585,2.584,2.6,2.6,0,0,1-2.585-2.584m-10.267,0a2.575,2.575,0,1,1,2.584,2.584,2.586,2.586,0,0,1-2.584-2.584m-10.286,0a2.584,2.584,0,1,1,2.584,2.584,2.6,2.6,0,0,1-2.584-2.584m-10.267,0a2.584,2.584,0,1,1,2.584,2.584,2.6,2.6,0,0,1-2.584-2.584m-10.269,0a2.584,2.584,0,1,1,2.584,2.584,2.6,2.6,0,0,1-2.584-2.584m-10.286,0a2.584,2.584,0,1,1,2.584,2.584,2.608,2.608,0,0,1-2.584-2.584m123.234-.828a2.579,2.579,0,0,1,4.7-2.119,2.556,2.556,0,0,1-1.293,3.41h.017a2.557,2.557,0,0,1-3.428-1.291m-131.71,1.274a2.557,2.557,0,1,1,1.068.242,2.6,2.6,0,0,1-1.068-.242m140.478-6.581a2.581,2.581,0,1,1,3.636-.431v.017a2.627,2.627,0,0,1-2.033.982,2.539,2.539,0,0,1-1.6-.568M290.4,125.994a2.583,2.583,0,1,1,3.634.448,2.7,2.7,0,0,1-1.6.552,2.543,2.543,0,0,1-2.031-1m154.759-8.288a2.576,2.576,0,1,1,.948-5.063,2.579,2.579,0,0,1-.465,5.115,2.391,2.391,0,0,1-.483-.052m-159.463-2.1a2.585,2.585,0,1,1,3.015,2.067,2.2,2.2,0,0,1-.465.05,2.611,2.611,0,0,1-2.55-2.117m157.723-10.683A2.584,2.584,0,1,1,446,107.508a2.582,2.582,0,0,1-2.585-2.585m-158.12-.034a2.584,2.584,0,1,1,2.584,2.585,2.581,2.581,0,0,1-2.584-2.585m158.12-10.234A2.584,2.584,0,1,1,446,97.239a2.581,2.581,0,0,1-2.585-2.584M285.3,94.6a2.584,2.584,0,1,1,2.584,2.584A2.593,2.593,0,0,1,285.3,94.6m158.12-10.217A2.584,2.584,0,1,1,446,86.972a2.582,2.582,0,0,1-2.585-2.585M285.3,84.335a2.584,2.584,0,1,1,2.584,2.585,2.581,2.581,0,0,1-2.584-2.585M443.417,74.1A2.584,2.584,0,1,1,446,76.7a2.591,2.591,0,0,1-2.585-2.6M285.3,74.068a2.584,2.584,0,1,1,2.584,2.584,2.58,2.58,0,0,1-2.584-2.584m158.12-10.234A2.584,2.584,0,1,1,446,66.419a2.592,2.592,0,0,1-2.585-2.585M285.3,63.8a2.584,2.584,0,1,1,2.584,2.584A2.58,2.58,0,0,1,285.3,63.8" transform="translate(151.115 32.425)" fill="#333"/>
        <path id="Trazado_501697" data-name="Trazado 501697" d="M391.249,59.671a2.291,2.291,0,0,1-.5-.052,2.215,2.215,0,0,1-.482-.154,2.182,2.182,0,0,1-.448-.242,2.218,2.218,0,0,1-.4-.309,2.617,2.617,0,0,1-.757-1.826,2.379,2.379,0,0,1,.206-1,2.114,2.114,0,0,1,.223-.448,3.573,3.573,0,0,1,.327-.4,2.633,2.633,0,0,1,2.327-.69,2.756,2.756,0,0,1,.5.138,3.78,3.78,0,0,1,.431.242,2.406,2.406,0,0,1,.4.311,3.58,3.58,0,0,1,.327.4,3.689,3.689,0,0,1,.242.448c.05.154.1.327.138.482a2.691,2.691,0,0,1,.05.517,2.616,2.616,0,0,1-.757,1.826,2.587,2.587,0,0,1-1.826.757" transform="translate(205.867 28.87)" fill="#333"/>
        <path id="Trazado_501698" data-name="Trazado 501698" d="M396.684,57.088a2.584,2.584,0,1,1,2.584,2.584,2.58,2.58,0,0,1-2.584-2.584" transform="translate(210.114 28.869)" fill="#333"/>
        <path id="Trazado_501699" data-name="Trazado 501699" d="M407.287,59.661a2.524,2.524,0,0,1-.5-.052,2.2,2.2,0,0,1-.483-.154,2.31,2.31,0,0,1-1.153-.948,2.726,2.726,0,0,1-.4-.93,2.524,2.524,0,0,1-.052-.5,2.616,2.616,0,0,1,.759-1.843,2.7,2.7,0,0,1,3.651,0,2.6,2.6,0,0,1,0,3.67,2.582,2.582,0,0,1-1.826.757" transform="translate(214.362 28.88)" fill="#333"/>
        <path id="Trazado_501700" data-name="Trazado 501700" d="M410.023,70.938a.878.878,0,0,1-.381-.087.867.867,0,0,1-.48-.774V49.888a.861.861,0,0,1,1.387-.682L423.631,59.3a.862.862,0,0,1,0,1.364L410.549,70.757a.86.86,0,0,1-.526.181m.861-19.3V68.324l10.81-8.341Z" transform="translate(216.724 25.969)" fill="#333"/>
        <path id="Trazado_501701" data-name="Trazado 501701" d="M430.573,52.223a6.891,6.891,0,0,0-6.891,6.891V116.82a28.279,28.279,0,0,0,28.247,28.247h115.41a28.279,28.279,0,0,0,28.247-28.247V85.467a6.891,6.891,0,1,0-13.782,0V116.82a14.481,14.481,0,0,1-14.465,14.463H451.929a14.48,14.48,0,0,1-14.465-14.463V59.114a6.891,6.891,0,0,0-6.891-6.891" transform="translate(224.415 27.661)" fill="#04425b"/>
        <path id="Trazado_501702" data-name="Trazado 501702" d="M428.485,56.165a.861.861,0,0,0-.861.861v57.706a22.241,22.241,0,0,0,22.217,22.217H565.25a22.242,22.242,0,0,0,22.217-22.217V83.379a.861.861,0,0,0-1.722,0v31.352a20.518,20.518,0,0,1-20.495,20.493H449.841a20.517,20.517,0,0,1-20.495-20.493V57.026a.861.861,0,0,0-.861-.861" transform="translate(226.503 29.749)" fill="#fff"/>
        <g transform="matrix(1, 0, 0, 1, 0, 0)" filter="url(#Trazado_501706)">
          <path id="Trazado_501706-2" data-name="Trazado 501706" d="M7.887,0H125.533a7.887,7.887,0,0,1,7.887,7.887V125.534a7.887,7.887,0,0,1-7.887,7.887H7.888A7.888,7.888,0,0,1,0,125.533V7.887A7.887,7.887,0,0,1,7.887,0Z" transform="translate(19.24 19.24)" fill="#fff"/>
        </g>
        <g transform="matrix(1, 0, 0, 1, 0, 0)" filter="url(#Trazado_501703)">
          <path id="Trazado_501703-2" data-name="Trazado 501703" d="M152.78,24.085V133.374a12.065,12.065,0,0,0,12.066,12.066H274.135A12.066,12.066,0,0,0,286.2,133.374V24.085a12.067,12.067,0,0,0-12.066-12.066H164.846A12.066,12.066,0,0,0,152.78,24.085" transform="translate(80.92 6.37)" fill="#fff"/>
        </g>
        <g transform="matrix(1, 0, 0, 1, 0, 0)" filter="url(#Rectángulo_277788)">
          <rect id="Rectángulo_277788-2" data-name="Rectángulo 277788" width="133.421" height="133.421" rx="7.888" transform="translate(451.35 19.24)" fill="#fff"/>
        </g>
        <g transform="matrix(1, 0, 0, 1, 0, 0)" filter="url(#Trazado_501704)">
          <path id="Trazado_501704-2" data-name="Trazado 501704" d="M436.26,24.085V133.374a12.065,12.065,0,0,0,12.066,12.066H557.615a12.066,12.066,0,0,0,12.066-12.066V24.085a12.067,12.067,0,0,0-12.066-12.066H448.326A12.066,12.066,0,0,0,436.26,24.085" transform="translate(231.08 6.37)" fill="#fff"/>
        </g>
        <path id="Trazado_501705" data-name="Trazado 501705" d="M429.081,53.937a2.595,2.595,0,0,0-1.826,4.427,2.7,2.7,0,0,0,3.651,0,3.422,3.422,0,0,0,.329-.4,3.681,3.681,0,0,0,.24-.448,4.741,4.741,0,0,0,.138-.482,2.587,2.587,0,0,0-2.532-3.1" transform="translate(225.906 28.569)" fill="#fff"/>
      </g>
    </g>
    <path id="Trazado_634278" data-name="Trazado 634278" d="M9.844,10.547V15h-1.5V3.625h4.2a4.215,4.215,0,0,1,2.926.953A3.231,3.231,0,0,1,16.523,7.1a3.189,3.189,0,0,1-1.035,2.551,4.4,4.4,0,0,1-2.965.895Zm0-1.227h2.7a2.7,2.7,0,0,0,1.844-.567,2.075,2.075,0,0,0,.641-1.64,2.143,2.143,0,0,0-.641-1.628,2.525,2.525,0,0,0-1.758-.634H9.844ZM22.3,7.844a4.331,4.331,0,0,0-.711-.055A1.9,1.9,0,0,0,19.656,9v6H18.211V6.547h1.406l.023.977a2.251,2.251,0,0,1,2.016-1.133A1.477,1.477,0,0,1,22.3,6.5Zm4.688,7.313a3.693,3.693,0,0,1-2.8-1.129,4.19,4.19,0,0,1-1.078-3.02v-.266A5.073,5.073,0,0,1,23.59,8.5a3.748,3.748,0,0,1,1.344-1.547A3.378,3.378,0,0,1,26.8,6.391a3.166,3.166,0,0,1,2.563,1.086,4.7,4.7,0,0,1,.914,3.109v.6H24.555a3,3,0,0,0,.73,2.02,2.3,2.3,0,0,0,1.777.77,2.517,2.517,0,0,0,1.3-.312,3.259,3.259,0,0,0,.93-.828l.883.688A3.55,3.55,0,0,1,26.984,15.156ZM26.8,7.578a1.928,1.928,0,0,0-1.469.637A3.1,3.1,0,0,0,24.6,10h4.234V9.891a2.753,2.753,0,0,0-.594-1.707A1.815,1.815,0,0,0,26.8,7.578Zm7.836,5.461,2.094-6.492h1.477L35.18,15h-1.1L31.016,6.547h1.477ZM41.172,15H39.727V6.547h1.445ZM39.609,4.3a.863.863,0,0,1,.215-.594.807.807,0,0,1,.637-.242.819.819,0,0,1,.641.242.854.854,0,0,1,.219.594.826.826,0,0,1-.219.586.834.834,0,0,1-.641.234.821.821,0,0,1-.637-.234A.834.834,0,0,1,39.609,4.3Zm8.8,8.453a1.064,1.064,0,0,0-.441-.91,4.249,4.249,0,0,0-1.539-.559,7.277,7.277,0,0,1-1.742-.562,2.479,2.479,0,0,1-.953-.781,1.869,1.869,0,0,1-.309-1.078A2.193,2.193,0,0,1,44.3,7.109a3.432,3.432,0,0,1,2.246-.719,3.532,3.532,0,0,1,2.332.742,2.357,2.357,0,0,1,.895,1.9H48.32a1.3,1.3,0,0,0-.5-1.023,1.888,1.888,0,0,0-1.27-.43,1.976,1.976,0,0,0-1.234.344,1.082,1.082,0,0,0-.445.9.877.877,0,0,0,.414.789,5.1,5.1,0,0,0,1.5.508,7.8,7.8,0,0,1,1.754.578,2.558,2.558,0,0,1,1,.809,1.988,1.988,0,0,1,.324,1.152,2.163,2.163,0,0,1-.906,1.816,3.8,3.8,0,0,1-2.352.684,4.257,4.257,0,0,1-1.8-.359,2.922,2.922,0,0,1-1.223-1,2.42,2.42,0,0,1-.441-1.395h1.445a1.5,1.5,0,0,0,.582,1.152,2.258,2.258,0,0,0,1.434.426,2.331,2.331,0,0,0,1.316-.332A1.02,1.02,0,0,0,48.406,12.758Zm8.547,1.406a3.07,3.07,0,0,1-2.477.992,2.628,2.628,0,0,1-2.059-.785,3.4,3.4,0,0,1-.715-2.324v-5.5h1.445v5.461q0,1.922,1.563,1.922a2.163,2.163,0,0,0,2.2-1.234V6.547h1.445V15H56.984Zm8.82.836a3.036,3.036,0,0,1-.2-.891,3.225,3.225,0,0,1-2.406,1.047,2.984,2.984,0,0,1-2.051-.707,2.287,2.287,0,0,1-.8-1.793,2.39,2.39,0,0,1,1-2.051,4.733,4.733,0,0,1,2.824-.73h1.406V9.211A1.623,1.623,0,0,0,65.094,8a1.821,1.821,0,0,0-1.336-.449,2.107,2.107,0,0,0-1.3.391,1.151,1.151,0,0,0-.523.945H60.484a2,2,0,0,1,.449-1.223,3.066,3.066,0,0,1,1.219-.934,4.1,4.1,0,0,1,1.691-.344,3.342,3.342,0,0,1,2.289.73,2.635,2.635,0,0,1,.859,2.012v3.891a4.757,4.757,0,0,0,.3,1.852V15Zm-2.4-1.1a2.54,2.54,0,0,0,1.289-.352,2.127,2.127,0,0,0,.883-.914V10.9H64.414q-2.656,0-2.656,1.555a1.316,1.316,0,0,0,.453,1.063A1.742,1.742,0,0,0,63.375,13.9ZM70.828,15H69.383V3h1.445Zm3.883,0H73.266V6.547h1.445ZM73.148,4.3a.863.863,0,0,1,.215-.594A.807.807,0,0,1,74,3.469a.819.819,0,0,1,.641.242.854.854,0,0,1,.219.594.826.826,0,0,1-.219.586A.834.834,0,0,1,74,5.125a.821.821,0,0,1-.637-.234A.834.834,0,0,1,73.148,4.3Zm5.234,9.516h4.945V15H76.617V13.938l4.664-6.2H76.688v-1.2h6.406V7.57ZM90.172,15a3.036,3.036,0,0,1-.2-.891,3.225,3.225,0,0,1-2.406,1.047,2.984,2.984,0,0,1-2.051-.707,2.288,2.288,0,0,1-.8-1.793,2.39,2.39,0,0,1,1-2.051,4.733,4.733,0,0,1,2.824-.73h1.406V9.211A1.623,1.623,0,0,0,89.492,8a1.821,1.821,0,0,0-1.336-.449,2.108,2.108,0,0,0-1.3.391,1.151,1.151,0,0,0-.523.945H84.883a2,2,0,0,1,.449-1.223,3.066,3.066,0,0,1,1.219-.934,4.1,4.1,0,0,1,1.691-.344,3.342,3.342,0,0,1,2.289.73,2.635,2.635,0,0,1,.859,2.012v3.891a4.757,4.757,0,0,0,.3,1.852V15Zm-2.4-1.1a2.54,2.54,0,0,0,1.289-.352,2.127,2.127,0,0,0,.883-.914V10.9H88.813q-2.656,0-2.656,1.555a1.316,1.316,0,0,0,.453,1.063A1.742,1.742,0,0,0,87.773,13.9Zm9.969-6.055a4.331,4.331,0,0,0-.711-.055A1.9,1.9,0,0,0,95.1,9v6H93.656V6.547h1.406l.023.977A2.251,2.251,0,0,1,97.1,6.391a1.477,1.477,0,0,1,.641.109Zm-80.7,31.313a3.693,3.693,0,0,1-2.8-1.129,4.19,4.19,0,0,1-1.078-3.02v-.266a5.073,5.073,0,0,1,.48-2.246,3.748,3.748,0,0,1,1.344-1.547,3.378,3.378,0,0,1,1.871-.559,3.166,3.166,0,0,1,2.563,1.086,4.7,4.7,0,0,1,.914,3.109v.6H14.609a3,3,0,0,0,.73,2.02,2.3,2.3,0,0,0,1.777.77,2.517,2.517,0,0,0,1.3-.312,3.259,3.259,0,0,0,.93-.828l.883.688A3.55,3.55,0,0,1,17.039,39.156Zm-.18-7.578a1.928,1.928,0,0,0-1.469.637A3.1,3.1,0,0,0,14.656,34h4.234v-.109a2.753,2.753,0,0,0-.594-1.707A1.815,1.815,0,0,0,16.859,31.578ZM23.578,39H22.133V27h1.445Zm11.2-2.242a1.064,1.064,0,0,0-.441-.91,4.249,4.249,0,0,0-1.539-.559,7.277,7.277,0,0,1-1.742-.562,2.479,2.479,0,0,1-.953-.781,1.869,1.869,0,0,1-.309-1.078,2.193,2.193,0,0,1,.879-1.758,3.432,3.432,0,0,1,2.246-.719,3.532,3.532,0,0,1,2.332.742,2.357,2.357,0,0,1,.895,1.9H34.688a1.3,1.3,0,0,0-.5-1.023,1.888,1.888,0,0,0-1.27-.43,1.976,1.976,0,0,0-1.234.344,1.082,1.082,0,0,0-.445.9.877.877,0,0,0,.414.789,5.1,5.1,0,0,0,1.5.508A7.8,7.8,0,0,1,34.9,34.7a2.558,2.558,0,0,1,1,.809,1.988,1.988,0,0,1,.324,1.152,2.163,2.163,0,0,1-.906,1.816,3.8,3.8,0,0,1-2.352.684,4.257,4.257,0,0,1-1.8-.359,2.922,2.922,0,0,1-1.223-1A2.42,2.42,0,0,1,29.5,36.4h1.445a1.5,1.5,0,0,0,.582,1.152,2.258,2.258,0,0,0,1.434.426,2.331,2.331,0,0,0,1.316-.332A1.02,1.02,0,0,0,34.773,36.758ZM39.672,39H38.227V30.547h1.445ZM38.109,28.3a.863.863,0,0,1,.215-.594.807.807,0,0,1,.637-.242.819.819,0,0,1,.641.242.854.854,0,0,1,.219.594.826.826,0,0,1-.219.586.834.834,0,0,1-.641.234.821.821,0,0,1-.637-.234A.834.834,0,0,1,38.109,28.3Zm5.836.2v2.047h1.578v1.117H43.945v5.249a1.173,1.173,0,0,0,.211.763.888.888,0,0,0,.719.254,3.5,3.5,0,0,0,.688-.094V39a4.215,4.215,0,0,1-1.109.155,1.8,1.8,0,0,1-1.461-.586,2.517,2.517,0,0,1-.492-1.664V31.664H40.961V30.547H42.5V28.5ZM48.781,39H47.336V30.547h1.445ZM47.219,28.3a.863.863,0,0,1,.215-.594.807.807,0,0,1,.637-.242.819.819,0,0,1,.641.242.854.854,0,0,1,.219.594.826.826,0,0,1-.219.586.834.834,0,0,1-.641.234.821.821,0,0,1-.637-.234A.834.834,0,0,1,47.219,28.3ZM50.711,34.7a4.993,4.993,0,0,1,.488-2.234,3.643,3.643,0,0,1,1.359-1.531,3.7,3.7,0,0,1,1.988-.539,3.565,3.565,0,0,1,2.793,1.2,4.6,4.6,0,0,1,1.066,3.18v.1a5.036,5.036,0,0,1-.473,2.215,3.589,3.589,0,0,1-1.352,1.527,3.743,3.743,0,0,1-2.02.547,3.556,3.556,0,0,1-2.785-1.2A4.575,4.575,0,0,1,50.711,34.8Zm1.453.172a3.616,3.616,0,0,0,.652,2.258,2.211,2.211,0,0,0,3.5-.012,3.955,3.955,0,0,0,.648-2.418,3.61,3.61,0,0,0-.66-2.254,2.1,2.1,0,0,0-1.754-.863,2.075,2.075,0,0,0-1.727.852A3.925,3.925,0,0,0,52.164,34.867Zm19.5,2.141,1.625-6.461h1.445L72.273,39H71.1l-2.055-6.406-2,6.406H65.875l-2.453-8.453h1.438l1.664,6.328,1.969-6.328h1.164Zm8.047,2.148a3.693,3.693,0,0,1-2.8-1.129,4.19,4.19,0,0,1-1.078-3.02v-.266a5.073,5.073,0,0,1,.48-2.246,3.748,3.748,0,0,1,1.344-1.547,3.378,3.378,0,0,1,1.871-.559,3.166,3.166,0,0,1,2.563,1.086,4.7,4.7,0,0,1,.914,3.109v.6H77.281a3,3,0,0,0,.73,2.02,2.3,2.3,0,0,0,1.777.77,2.517,2.517,0,0,0,1.3-.312,3.259,3.259,0,0,0,.93-.828l.883.688A3.55,3.55,0,0,1,79.711,39.156Zm-.18-7.578a1.928,1.928,0,0,0-1.469.637A3.1,3.1,0,0,0,77.328,34h4.234v-.109a2.753,2.753,0,0,0-.594-1.707A1.815,1.815,0,0,0,79.531,31.578Zm12.3,3.289a5.026,5.026,0,0,1-.891,3.113,2.846,2.846,0,0,1-2.391,1.176,2.947,2.947,0,0,1-2.477-1.133l-.07.977H84.68V27h1.445v4.477a2.93,2.93,0,0,1,2.414-1.086,2.863,2.863,0,0,1,2.418,1.164,5.177,5.177,0,0,1,.879,3.188ZM90.391,34.7a3.906,3.906,0,0,0-.57-2.281,1.888,1.888,0,0,0-1.641-.8,2.122,2.122,0,0,0-2.055,1.328V36.6A2.181,2.181,0,0,0,88.2,37.93a1.878,1.878,0,0,0,1.617-.8A4.153,4.153,0,0,0,90.391,34.7ZM20.066,63a3.036,3.036,0,0,1-.2-.891,3.225,3.225,0,0,1-2.406,1.047,2.984,2.984,0,0,1-2.051-.707,2.287,2.287,0,0,1-.8-1.793,2.39,2.39,0,0,1,1-2.051,4.733,4.733,0,0,1,2.824-.73H19.84v-.664A1.623,1.623,0,0,0,19.387,56a1.821,1.821,0,0,0-1.336-.449,2.107,2.107,0,0,0-1.3.391,1.151,1.151,0,0,0-.523.945H14.777a2,2,0,0,1,.449-1.223,3.066,3.066,0,0,1,1.219-.934,4.1,4.1,0,0,1,1.691-.344,3.342,3.342,0,0,1,2.289.73,2.635,2.635,0,0,1,.859,2.012v3.891a4.757,4.757,0,0,0,.3,1.852V63Zm-2.4-1.1a2.54,2.54,0,0,0,1.289-.352,2.127,2.127,0,0,0,.883-.914V58.9H18.707q-2.656,0-2.656,1.555a1.316,1.316,0,0,0,.453,1.063A1.742,1.742,0,0,0,17.668,61.9Zm7.25-7.352.047,1.063A3.08,3.08,0,0,1,27.5,54.391q2.68,0,2.7,3.023V63H28.754V57.406a1.946,1.946,0,0,0-.418-1.352,1.675,1.675,0,0,0-1.277-.437,2.086,2.086,0,0,0-1.234.375,2.546,2.546,0,0,0-.828.984V63H23.551V54.547ZM34.34,52.5v2.047h1.578v1.117H34.34v5.249a1.173,1.173,0,0,0,.211.763.888.888,0,0,0,.719.254,3.5,3.5,0,0,0,.688-.094V63a4.215,4.215,0,0,1-1.109.155,1.8,1.8,0,0,1-1.461-.586,2.517,2.517,0,0,1-.492-1.664V55.664H31.355V54.547h1.539V52.5Zm6.773,10.656a3.693,3.693,0,0,1-2.8-1.129,4.19,4.19,0,0,1-1.078-3.02v-.266a5.073,5.073,0,0,1,.48-2.246,3.748,3.748,0,0,1,1.344-1.547,3.378,3.378,0,0,1,1.871-.559A3.166,3.166,0,0,1,43.5,55.477a4.7,4.7,0,0,1,.914,3.109v.6H38.684a3,3,0,0,0,.73,2.02,2.3,2.3,0,0,0,1.777.77,2.517,2.517,0,0,0,1.3-.312,3.258,3.258,0,0,0,.93-.828l.883.688A3.55,3.55,0,0,1,41.113,63.156Zm-.18-7.578a1.928,1.928,0,0,0-1.469.637A3.1,3.1,0,0,0,38.73,58h4.234v-.109a2.753,2.753,0,0,0-.594-1.707A1.815,1.815,0,0,0,40.934,55.578ZM51,60.758a1.064,1.064,0,0,0-.441-.91,4.249,4.249,0,0,0-1.539-.559,7.277,7.277,0,0,1-1.742-.562,2.479,2.479,0,0,1-.953-.781,1.869,1.869,0,0,1-.309-1.078,2.193,2.193,0,0,1,.879-1.758,3.432,3.432,0,0,1,2.246-.719,3.532,3.532,0,0,1,2.332.742,2.357,2.357,0,0,1,.895,1.9H50.918a1.3,1.3,0,0,0-.5-1.023,1.888,1.888,0,0,0-1.27-.43,1.976,1.976,0,0,0-1.234.344,1.082,1.082,0,0,0-.445.9.877.877,0,0,0,.414.789,5.1,5.1,0,0,0,1.5.508,7.8,7.8,0,0,1,1.754.578,2.558,2.558,0,0,1,1,.809,1.988,1.988,0,0,1,.324,1.152,2.163,2.163,0,0,1-.906,1.816,3.8,3.8,0,0,1-2.352.684,4.257,4.257,0,0,1-1.8-.359,2.922,2.922,0,0,1-1.223-1A2.42,2.42,0,0,1,45.73,60.4h1.445a1.5,1.5,0,0,0,.582,1.152,2.258,2.258,0,0,0,1.434.426,2.331,2.331,0,0,0,1.316-.332A1.02,1.02,0,0,0,51,60.758ZM57.941,58.7a4.952,4.952,0,0,1,.922-3.129,3.137,3.137,0,0,1,4.766-.168V51h1.445V63H63.746l-.07-.906a2.943,2.943,0,0,1-2.414,1.063,2.887,2.887,0,0,1-2.395-1.2,5.008,5.008,0,0,1-.926-3.141Zm1.445.164a3.749,3.749,0,0,0,.594,2.25,1.919,1.919,0,0,0,1.641.813A2.108,2.108,0,0,0,63.629,60.7V56.813a2.125,2.125,0,0,0-1.992-1.2,1.929,1.929,0,0,0-1.656.82A4.128,4.128,0,0,0,59.387,58.867Zm11.438,4.289a3.693,3.693,0,0,1-2.8-1.129,4.19,4.19,0,0,1-1.078-3.02v-.266a5.073,5.073,0,0,1,.48-2.246,3.748,3.748,0,0,1,1.344-1.547,3.378,3.378,0,0,1,1.871-.559,3.166,3.166,0,0,1,2.563,1.086,4.7,4.7,0,0,1,.914,3.109v.6H68.395a3,3,0,0,0,.73,2.02,2.3,2.3,0,0,0,1.777.77,2.517,2.517,0,0,0,1.3-.312,3.259,3.259,0,0,0,.93-.828l.883.688A3.55,3.55,0,0,1,70.824,63.156Zm-.18-7.578a1.928,1.928,0,0,0-1.469.637A3.1,3.1,0,0,0,68.441,58h4.234v-.109a2.753,2.753,0,0,0-.594-1.707A1.815,1.815,0,0,0,70.645,55.578ZM81.324,63H79.879V51h1.445Zm7.531,0a3.036,3.036,0,0,1-.2-.891,3.225,3.225,0,0,1-2.406,1.047,2.984,2.984,0,0,1-2.051-.707,2.288,2.288,0,0,1-.8-1.793,2.39,2.39,0,0,1,1-2.051,4.733,4.733,0,0,1,2.824-.73h1.406v-.664A1.623,1.623,0,0,0,88.176,56a1.821,1.821,0,0,0-1.336-.449,2.107,2.107,0,0,0-1.3.391,1.151,1.151,0,0,0-.523.945H83.566a2,2,0,0,1,.449-1.223,3.066,3.066,0,0,1,1.219-.934,4.1,4.1,0,0,1,1.691-.344,3.342,3.342,0,0,1,2.289.73,2.635,2.635,0,0,1,.859,2.012v3.891a4.757,4.757,0,0,0,.3,1.852V63Zm-2.4-1.1a2.54,2.54,0,0,0,1.289-.352,2.127,2.127,0,0,0,.883-.914V58.9H87.5q-2.656,0-2.656,1.555a1.316,1.316,0,0,0,.453,1.063A1.742,1.742,0,0,0,86.457,61.9ZM9.09,82.867a5.062,5.062,0,0,1-.883,3.109,2.829,2.829,0,0,1-2.391,1.18,3.1,3.1,0,0,1-2.422-.977v4.07H1.949v-11.7H3.27l.07.938a2.977,2.977,0,0,1,2.453-1.094A2.882,2.882,0,0,1,8.2,79.539a5.117,5.117,0,0,1,.887,3.2ZM7.645,82.7a3.735,3.735,0,0,0-.609-2.258,1.963,1.963,0,0,0-1.672-.828,2.125,2.125,0,0,0-1.969,1.164V84.82a2.129,2.129,0,0,0,1.984,1.156,1.954,1.954,0,0,0,1.652-.824A4.077,4.077,0,0,0,7.645,82.7Zm7.367-2.859a4.331,4.331,0,0,0-.711-.055A1.9,1.9,0,0,0,12.371,81v6H10.926V78.547h1.406l.023.977a2.251,2.251,0,0,1,2.016-1.133,1.477,1.477,0,0,1,.641.109ZM15.8,82.7a4.993,4.993,0,0,1,.488-2.234,3.643,3.643,0,0,1,1.359-1.531,3.7,3.7,0,0,1,1.988-.539,3.565,3.565,0,0,1,2.793,1.2,4.6,4.6,0,0,1,1.066,3.18v.1a5.036,5.036,0,0,1-.473,2.215,3.589,3.589,0,0,1-1.352,1.527,3.743,3.743,0,0,1-2.02.547,3.556,3.556,0,0,1-2.785-1.2A4.575,4.575,0,0,1,15.8,82.8Zm1.453.172a3.616,3.616,0,0,0,.652,2.258,2.211,2.211,0,0,0,3.5-.012,3.955,3.955,0,0,0,.648-2.418,3.61,3.61,0,0,0-.66-2.254,2.1,2.1,0,0,0-1.754-.863,2.075,2.075,0,0,0-1.727.852A3.925,3.925,0,0,0,17.254,82.867Zm7.711-.164a4.968,4.968,0,0,1,.914-3.145,3.151,3.151,0,0,1,4.836-.074l.07-.937h1.32V86.8a3.439,3.439,0,0,1-.973,2.586,3.589,3.589,0,0,1-2.613.945,4.348,4.348,0,0,1-1.789-.391,3.08,3.08,0,0,1-1.336-1.07l.75-.867a2.826,2.826,0,0,0,2.273,1.148,2.214,2.214,0,0,0,1.645-.594,2.269,2.269,0,0,0,.59-1.672v-.727a2.971,2.971,0,0,1-2.367,1,2.887,2.887,0,0,1-2.4-1.2A5.224,5.224,0,0,1,24.965,82.7Zm1.453.164A3.79,3.79,0,0,0,27,85.113a1.9,1.9,0,0,0,1.641.816,2.117,2.117,0,0,0,2.008-1.242V80.828a2.142,2.142,0,0,0-1.992-1.211,1.921,1.921,0,0,0-1.648.82A4.128,4.128,0,0,0,26.418,82.867Zm11.953-3.023a4.331,4.331,0,0,0-.711-.055A1.9,1.9,0,0,0,35.73,81v6H34.285V78.547h1.406l.023.977a2.251,2.251,0,0,1,2.016-1.133,1.477,1.477,0,0,1,.641.109ZM44.605,87a3.036,3.036,0,0,1-.2-.891A3.225,3.225,0,0,1,42,87.156a2.984,2.984,0,0,1-2.051-.707,2.287,2.287,0,0,1-.8-1.793,2.39,2.39,0,0,1,1-2.051,4.733,4.733,0,0,1,2.824-.73h1.406v-.664A1.623,1.623,0,0,0,43.926,80a1.821,1.821,0,0,0-1.336-.449,2.108,2.108,0,0,0-1.3.391,1.151,1.151,0,0,0-.523.945H39.316a2,2,0,0,1,.449-1.223,3.066,3.066,0,0,1,1.219-.934,4.1,4.1,0,0,1,1.691-.344,3.342,3.342,0,0,1,2.289.73,2.635,2.635,0,0,1,.859,2.012v3.891a4.757,4.757,0,0,0,.3,1.852V87Zm-2.4-1.1a2.54,2.54,0,0,0,1.289-.352,2.127,2.127,0,0,0,.883-.914V82.9H43.246q-2.656,0-2.656,1.555a1.316,1.316,0,0,0,.453,1.063A1.742,1.742,0,0,0,42.207,85.9Zm7.242-7.352.039.938A3.122,3.122,0,0,1,52,78.391,2.417,2.417,0,0,1,54.41,79.75a3.2,3.2,0,0,1,1.1-.984,3.242,3.242,0,0,1,1.6-.375q2.781,0,2.828,2.945V87H58.488V81.422a1.941,1.941,0,0,0-.414-1.355,1.823,1.823,0,0,0-1.391-.449,1.916,1.916,0,0,0-1.336.48,1.949,1.949,0,0,0-.617,1.293V87H53.277V81.461a1.613,1.613,0,0,0-1.8-1.844,1.934,1.934,0,0,0-1.945,1.211V87H48.082V78.547ZM67.332,87a3.036,3.036,0,0,1-.2-.891,3.225,3.225,0,0,1-2.406,1.047,2.984,2.984,0,0,1-2.051-.707,2.287,2.287,0,0,1-.8-1.793,2.39,2.39,0,0,1,1-2.051,4.733,4.733,0,0,1,2.824-.73h1.406v-.664A1.623,1.623,0,0,0,66.652,80a1.821,1.821,0,0,0-1.336-.449,2.108,2.108,0,0,0-1.3.391,1.151,1.151,0,0,0-.523.945H62.043a2,2,0,0,1,.449-1.223,3.066,3.066,0,0,1,1.219-.934,4.1,4.1,0,0,1,1.691-.344,3.342,3.342,0,0,1,2.289.73,2.635,2.635,0,0,1,.859,2.012v3.891a4.757,4.757,0,0,0,.3,1.852V87Zm-2.4-1.1a2.54,2.54,0,0,0,1.289-.352,2.127,2.127,0,0,0,.883-.914V82.9H65.973q-2.656,0-2.656,1.555a1.316,1.316,0,0,0,.453,1.063A1.742,1.742,0,0,0,64.934,85.9Zm9.273.078a2.082,2.082,0,0,0,1.352-.469,1.649,1.649,0,0,0,.641-1.172h1.367a2.621,2.621,0,0,1-.5,1.383,3.293,3.293,0,0,1-1.23,1.047,3.55,3.55,0,0,1-1.629.391A3.482,3.482,0,0,1,71.461,86a4.59,4.59,0,0,1-1.02-3.152v-.242a5.089,5.089,0,0,1,.453-2.2,3.451,3.451,0,0,1,1.3-1.492,3.7,3.7,0,0,1,2-.531,3.39,3.39,0,0,1,2.363.852,3.043,3.043,0,0,1,1,2.211H76.2a1.992,1.992,0,0,0-.621-1.348,1.932,1.932,0,0,0-1.379-.527,2.023,2.023,0,0,0-1.707.793,3.724,3.724,0,0,0-.605,2.293v.273a3.65,3.65,0,0,0,.6,2.25A2.033,2.033,0,0,0,74.207,85.977ZM80.762,87H79.316V78.547h1.445ZM79.2,76.3a.863.863,0,0,1,.215-.594.807.807,0,0,1,.637-.242.819.819,0,0,1,.641.242.854.854,0,0,1,.219.594.826.826,0,0,1-.219.586.834.834,0,0,1-.641.234.821.821,0,0,1-.637-.234A.834.834,0,0,1,79.2,76.3ZM82.691,82.7a4.993,4.993,0,0,1,.488-2.234,3.643,3.643,0,0,1,1.359-1.531,3.7,3.7,0,0,1,1.988-.539,3.565,3.565,0,0,1,2.793,1.2,4.6,4.6,0,0,1,1.066,3.18v.1a5.036,5.036,0,0,1-.473,2.215,3.589,3.589,0,0,1-1.352,1.527,3.743,3.743,0,0,1-2.02.547,3.556,3.556,0,0,1-2.785-1.2A4.575,4.575,0,0,1,82.691,82.8Zm1.453.172a3.616,3.616,0,0,0,.652,2.258,2.211,2.211,0,0,0,3.5-.012,3.955,3.955,0,0,0,.648-2.418,3.61,3.61,0,0,0-.66-2.254,2.1,2.1,0,0,0-1.754-.863,2.075,2.075,0,0,0-1.727.852A3.925,3.925,0,0,0,84.145,82.867ZM87.184,75h1.75L86.84,77.3l-1.164,0Zm6.383,3.547.047,1.063a3.08,3.08,0,0,1,2.531-1.219q2.68,0,2.7,3.023V87H97.4V81.406a1.946,1.946,0,0,0-.418-1.352,1.675,1.675,0,0,0-1.277-.437,2.086,2.086,0,0,0-1.234.375,2.546,2.546,0,0,0-.828.984V87H92.2V78.547Zm7.492,7.7a.905.905,0,0,1,.223-.625.848.848,0,0,1,.668-.25.874.874,0,0,1,.676.25.887.887,0,0,1,.23.625.839.839,0,0,1-.23.6.89.89,0,0,1-.676.242.8.8,0,0,1-.891-.844Z" transform="translate(423 8794.498)" fill="#12263f"/>
    <path id="Trazado_634279" data-name="Trazado 634279" d="M19.652,11.391a4.185,4.185,0,0,1-1.332,2.785,4.365,4.365,0,0,1-2.98.98,4.008,4.008,0,0,1-3.23-1.445,5.815,5.815,0,0,1-1.215-3.867V8.75a6.481,6.481,0,0,1,.566-2.789,4.231,4.231,0,0,1,1.605-1.848,4.47,4.47,0,0,1,2.406-.645A4.11,4.11,0,0,1,18.379,4.48a4.235,4.235,0,0,1,1.273,2.8H18.145A3.268,3.268,0,0,0,17.3,5.307,2.565,2.565,0,0,0,15.473,4.7a2.684,2.684,0,0,0-2.254,1.063A4.882,4.882,0,0,0,12.4,8.785v1.1a5.018,5.018,0,0,0,.773,2.948A2.5,2.5,0,0,0,15.34,13.93a2.886,2.886,0,0,0,1.918-.566,3.143,3.143,0,0,0,.887-1.973Zm5.906-3.547a4.331,4.331,0,0,0-.711-.055A1.9,1.9,0,0,0,22.918,9v6H21.473V6.547h1.406l.023.977a2.251,2.251,0,0,1,2.016-1.133,1.477,1.477,0,0,1,.641.109Zm4.688,7.313a3.693,3.693,0,0,1-2.8-1.129,4.19,4.19,0,0,1-1.078-3.02v-.266a5.073,5.073,0,0,1,.48-2.246A3.748,3.748,0,0,1,28.2,6.949a3.378,3.378,0,0,1,1.871-.559,3.166,3.166,0,0,1,2.563,1.086,4.7,4.7,0,0,1,.914,3.109v.6H27.816a3,3,0,0,0,.73,2.02,2.3,2.3,0,0,0,1.777.77,2.517,2.517,0,0,0,1.3-.312,3.259,3.259,0,0,0,.93-.828l.883.688A3.55,3.55,0,0,1,30.246,15.156Zm-.18-7.578a1.928,1.928,0,0,0-1.469.637A3.1,3.1,0,0,0,27.863,10H32.1V9.891A2.753,2.753,0,0,0,31.5,8.184,1.815,1.815,0,0,0,30.066,7.578ZM40.434,15a3.036,3.036,0,0,1-.2-.891,3.225,3.225,0,0,1-2.406,1.047,2.984,2.984,0,0,1-2.051-.707,2.287,2.287,0,0,1-.8-1.793,2.39,2.39,0,0,1,1-2.051,4.733,4.733,0,0,1,2.824-.73h1.406V9.211A1.623,1.623,0,0,0,39.754,8a1.821,1.821,0,0,0-1.336-.449,2.107,2.107,0,0,0-1.3.391,1.151,1.151,0,0,0-.523.945H35.145a2,2,0,0,1,.449-1.223,3.066,3.066,0,0,1,1.219-.934A4.1,4.1,0,0,1,38.5,6.391a3.342,3.342,0,0,1,2.289.73,2.635,2.635,0,0,1,.859,2.012v3.891a4.757,4.757,0,0,0,.3,1.852V15Zm-2.4-1.1a2.54,2.54,0,0,0,1.289-.352,2.127,2.127,0,0,0,.883-.914V10.9H39.074q-2.656,0-2.656,1.555a1.316,1.316,0,0,0,.453,1.063A1.742,1.742,0,0,0,38.035,13.9ZM48,7.844a4.331,4.331,0,0,0-.711-.055A1.9,1.9,0,0,0,45.363,9v6H43.918V6.547h1.406l.023.977a2.251,2.251,0,0,1,2.016-1.133A1.477,1.477,0,0,1,48,6.5ZM52.941,10.7a4.952,4.952,0,0,1,.922-3.129,3.137,3.137,0,0,1,4.766-.168V3h1.445V15H58.746l-.07-.906a2.943,2.943,0,0,1-2.414,1.063,2.887,2.887,0,0,1-2.395-1.2,5.008,5.008,0,0,1-.926-3.141Zm1.445.164a3.749,3.749,0,0,0,.594,2.25,1.92,1.92,0,0,0,1.641.813A2.108,2.108,0,0,0,58.629,12.7V8.813a2.125,2.125,0,0,0-1.992-1.2,1.929,1.929,0,0,0-1.656.82A4.128,4.128,0,0,0,54.387,10.867ZM63.887,15H62.441V6.547h1.445ZM62.324,4.3a.863.863,0,0,1,.215-.594.807.807,0,0,1,.637-.242.819.819,0,0,1,.641.242.854.854,0,0,1,.219.594.826.826,0,0,1-.219.586.834.834,0,0,1-.641.234.821.821,0,0,1-.637-.234A.834.834,0,0,1,62.324,4.3Zm8.8,8.453a1.064,1.064,0,0,0-.441-.91,4.249,4.249,0,0,0-1.539-.559,7.277,7.277,0,0,1-1.742-.562,2.479,2.479,0,0,1-.953-.781,1.869,1.869,0,0,1-.309-1.078,2.193,2.193,0,0,1,.879-1.758,3.432,3.432,0,0,1,2.246-.719,3.532,3.532,0,0,1,2.332.742,2.357,2.357,0,0,1,.895,1.9H71.035a1.3,1.3,0,0,0-.5-1.023,1.888,1.888,0,0,0-1.27-.43,1.976,1.976,0,0,0-1.234.344,1.082,1.082,0,0,0-.445.9A.877.877,0,0,0,68,9.609a5.1,5.1,0,0,0,1.5.508,7.8,7.8,0,0,1,1.754.578,2.558,2.558,0,0,1,1,.809,1.988,1.988,0,0,1,.324,1.152,2.163,2.163,0,0,1-.906,1.816,3.8,3.8,0,0,1-2.352.684,4.257,4.257,0,0,1-1.8-.359,2.922,2.922,0,0,1-1.223-1,2.42,2.42,0,0,1-.441-1.395h1.445a1.5,1.5,0,0,0,.582,1.152,2.258,2.258,0,0,0,1.434.426,2.331,2.331,0,0,0,1.316-.332A1.02,1.02,0,0,0,71.121,12.758Zm6.836,2.4a3.693,3.693,0,0,1-2.8-1.129,4.19,4.19,0,0,1-1.078-3.02v-.266a5.073,5.073,0,0,1,.48-2.246,3.748,3.748,0,0,1,1.344-1.547,3.378,3.378,0,0,1,1.871-.559A3.166,3.166,0,0,1,80.34,7.477a4.7,4.7,0,0,1,.914,3.109v.6H75.527a3,3,0,0,0,.73,2.02,2.3,2.3,0,0,0,1.777.77,2.517,2.517,0,0,0,1.3-.312,3.259,3.259,0,0,0,.93-.828l.883.688A3.55,3.55,0,0,1,77.957,15.156Zm-.18-7.578a1.928,1.928,0,0,0-1.469.637A3.1,3.1,0,0,0,75.574,10h4.234V9.891a2.753,2.753,0,0,0-.594-1.707A1.815,1.815,0,0,0,77.777,7.578Zm6.516-1.031.047,1.063a3.08,3.08,0,0,1,2.531-1.219q2.68,0,2.7,3.023V15H88.129V9.406a1.946,1.946,0,0,0-.418-1.352,1.675,1.675,0,0,0-1.277-.437,2.086,2.086,0,0,0-1.234.375,2.546,2.546,0,0,0-.828.984V15H82.926V6.547Zm4.781-3.3a1.942,1.942,0,0,1-.48,1.367,1.561,1.561,0,0,1-1.2.523,1.76,1.76,0,0,1-.555-.078,2.993,2.993,0,0,1-.613-.32,2.656,2.656,0,0,0-.547-.293,1.338,1.338,0,0,0-.387-.051.717.717,0,0,0-.547.246.892.892,0,0,0-.227.629l-.969-.055a2.039,2.039,0,0,1,.473-1.383,1.516,1.516,0,0,1,1.2-.547,1.457,1.457,0,0,1,.492.078,3.587,3.587,0,0,1,.594.3,3.494,3.494,0,0,0,.574.3,1.319,1.319,0,0,0,.441.07.7.7,0,0,0,.559-.266.932.932,0,0,0,.223-.617Zm2.3,7.445a4.993,4.993,0,0,1,.488-2.234A3.643,3.643,0,0,1,93.219,6.93a3.7,3.7,0,0,1,1.988-.539A3.565,3.565,0,0,1,98,7.586a4.6,4.6,0,0,1,1.066,3.18v.1a5.036,5.036,0,0,1-.473,2.215,3.589,3.589,0,0,1-1.352,1.527,3.743,3.743,0,0,1-2.02.547,3.556,3.556,0,0,1-2.785-1.2A4.575,4.575,0,0,1,91.371,10.8Zm1.453.172a3.616,3.616,0,0,0,.652,2.258,2.211,2.211,0,0,0,3.5-.012,3.955,3.955,0,0,0,.648-2.418,3.61,3.61,0,0,0-.66-2.254,2.1,2.1,0,0,0-1.754-.863,2.075,2.075,0,0,0-1.727.852A3.925,3.925,0,0,0,92.824,10.867ZM105.8,12.758a1.064,1.064,0,0,0-.441-.91,4.249,4.249,0,0,0-1.539-.559,7.277,7.277,0,0,1-1.742-.562,2.479,2.479,0,0,1-.953-.781,1.869,1.869,0,0,1-.309-1.078,2.193,2.193,0,0,1,.879-1.758,3.432,3.432,0,0,1,2.246-.719,3.532,3.532,0,0,1,2.332.742,2.357,2.357,0,0,1,.895,1.9h-1.453a1.3,1.3,0,0,0-.5-1.023,1.888,1.888,0,0,0-1.27-.43,1.976,1.976,0,0,0-1.234.344,1.082,1.082,0,0,0-.445.9.877.877,0,0,0,.414.789,5.1,5.1,0,0,0,1.5.508,7.8,7.8,0,0,1,1.754.578,2.558,2.558,0,0,1,1,.809,1.988,1.988,0,0,1,.324,1.152,2.163,2.163,0,0,1-.906,1.816,3.8,3.8,0,0,1-2.352.684,4.257,4.257,0,0,1-1.8-.359,2.922,2.922,0,0,1-1.223-1,2.42,2.42,0,0,1-.441-1.395h1.445a1.5,1.5,0,0,0,.582,1.152,2.258,2.258,0,0,0,1.434.426,2.331,2.331,0,0,0,1.316-.332A1.02,1.02,0,0,0,105.8,12.758ZM39.566,38.164a3.07,3.07,0,0,1-2.477.992,2.628,2.628,0,0,1-2.059-.785,3.4,3.4,0,0,1-.715-2.324v-5.5h1.445v5.461q0,1.922,1.563,1.922a2.163,2.163,0,0,0,2.2-1.234V30.547h1.445V39H39.6ZM38.395,27h1.75l-2.094,2.3-1.164,0Zm6.141,3.547.047,1.063a3.08,3.08,0,0,1,2.531-1.219q2.68,0,2.7,3.023V39H48.371V33.406a1.946,1.946,0,0,0-.418-1.352,1.675,1.675,0,0,0-1.277-.437,2.086,2.086,0,0,0-1.234.375,2.546,2.546,0,0,0-.828.984V39H43.168V30.547ZM53.566,39H52.121V30.547h1.445ZM52,28.3a.863.863,0,0,1,.215-.594.807.807,0,0,1,.637-.242.819.819,0,0,1,.641.242.854.854,0,0,1,.219.594.826.826,0,0,1-.219.586.834.834,0,0,1-.641.234.821.821,0,0,1-.637-.234A.834.834,0,0,1,52,28.3Zm7.266,9.672a2.082,2.082,0,0,0,1.352-.469,1.649,1.649,0,0,0,.641-1.172h1.367a2.621,2.621,0,0,1-.5,1.383,3.293,3.293,0,0,1-1.23,1.047,3.55,3.55,0,0,1-1.629.391A3.482,3.482,0,0,1,56.523,38a4.59,4.59,0,0,1-1.02-3.152v-.242a5.089,5.089,0,0,1,.453-2.2,3.451,3.451,0,0,1,1.3-1.492,3.7,3.7,0,0,1,2-.531,3.39,3.39,0,0,1,2.363.852,3.043,3.043,0,0,1,1,2.211H61.262a1.992,1.992,0,0,0-.621-1.348,1.932,1.932,0,0,0-1.379-.527,2.023,2.023,0,0,0-1.707.793,3.724,3.724,0,0,0-.605,2.293v.273a3.65,3.65,0,0,0,.6,2.25A2.033,2.033,0,0,0,59.27,37.977Zm4.6-3.281a4.993,4.993,0,0,1,.488-2.234,3.643,3.643,0,0,1,1.359-1.531,3.7,3.7,0,0,1,1.988-.539,3.565,3.565,0,0,1,2.793,1.2,4.6,4.6,0,0,1,1.066,3.18v.1a5.036,5.036,0,0,1-.473,2.215,3.589,3.589,0,0,1-1.352,1.527,3.743,3.743,0,0,1-2.02.547,3.556,3.556,0,0,1-2.785-1.2A4.575,4.575,0,0,1,63.871,34.8Zm1.453.172a3.616,3.616,0,0,0,.652,2.258,2.211,2.211,0,0,0,3.5-.012,3.955,3.955,0,0,0,.648-2.418,3.61,3.61,0,0,0-.66-2.254,2.1,2.1,0,0,0-1.754-.863,2.075,2.075,0,0,0-1.727.852A3.925,3.925,0,0,0,65.324,34.867ZM78.3,36.758a1.064,1.064,0,0,0-.441-.91,4.249,4.249,0,0,0-1.539-.559,7.277,7.277,0,0,1-1.742-.562,2.479,2.479,0,0,1-.953-.781,1.869,1.869,0,0,1-.309-1.078,2.193,2.193,0,0,1,.879-1.758,3.432,3.432,0,0,1,2.246-.719,3.532,3.532,0,0,1,2.332.742,2.357,2.357,0,0,1,.895,1.9H78.215a1.3,1.3,0,0,0-.5-1.023,1.888,1.888,0,0,0-1.27-.43,1.976,1.976,0,0,0-1.234.344,1.082,1.082,0,0,0-.445.9.877.877,0,0,0,.414.789,5.1,5.1,0,0,0,1.5.508,7.8,7.8,0,0,1,1.754.578,2.558,2.558,0,0,1,1,.809,1.988,1.988,0,0,1,.324,1.152,2.163,2.163,0,0,1-.906,1.816,3.8,3.8,0,0,1-2.352.684,4.257,4.257,0,0,1-1.8-.359,2.922,2.922,0,0,1-1.223-1,2.42,2.42,0,0,1-.441-1.395h1.445a1.5,1.5,0,0,0,.582,1.152,2.258,2.258,0,0,0,1.434.426,2.331,2.331,0,0,0,1.316-.332A1.02,1.02,0,0,0,78.3,36.758Zm3.359,1.484a.905.905,0,0,1,.223-.625.848.848,0,0,1,.668-.25.874.874,0,0,1,.676.25.887.887,0,0,1,.23.625.839.839,0,0,1-.23.6.89.89,0,0,1-.676.242.8.8,0,0,1-.891-.844Z" transform="translate(631 8820.498)" fill="#12263f"/>
    <path id="Trazado_634280" data-name="Trazado 634280" d="M26.68,3.625,30.4,12.906l3.719-9.281h1.945V15h-1.5V10.57L34.7,5.789,30.969,15H29.82L26.094,5.813l.148,4.758V15h-1.5V3.625ZM41.992,15.156a3.693,3.693,0,0,1-2.8-1.129,4.19,4.19,0,0,1-1.078-3.02v-.266A5.073,5.073,0,0,1,38.6,8.5a3.748,3.748,0,0,1,1.344-1.547,3.378,3.378,0,0,1,1.871-.559,3.166,3.166,0,0,1,2.563,1.086,4.7,4.7,0,0,1,.914,3.109v.6H39.563a3,3,0,0,0,.73,2.02,2.3,2.3,0,0,0,1.777.77,2.517,2.517,0,0,0,1.3-.312,3.259,3.259,0,0,0,.93-.828l.883.688A3.55,3.55,0,0,1,41.992,15.156Zm-.18-7.578a1.928,1.928,0,0,0-1.469.637A3.1,3.1,0,0,0,39.609,10h4.234V9.891a2.753,2.753,0,0,0-.594-1.707A1.815,1.815,0,0,0,41.813,7.578Zm6.641-1.031v9.43q0,2.438-2.211,2.438a2.7,2.7,0,0,1-.883-.14V17.125a2.794,2.794,0,0,0,.656.063.982.982,0,0,0,.738-.262,1.3,1.3,0,0,0,.254-.911V6.547ZM46.859,4.3a.867.867,0,0,1,.215-.59.79.79,0,0,1,.629-.246.819.819,0,0,1,.641.242.854.854,0,0,1,.219.594.826.826,0,0,1-.219.586.834.834,0,0,1-.641.234.808.808,0,0,1-.633-.234A.843.843,0,0,1,46.859,4.3ZM50.4,10.7a4.993,4.993,0,0,1,.488-2.234A3.643,3.643,0,0,1,52.246,6.93a3.7,3.7,0,0,1,1.988-.539,3.565,3.565,0,0,1,2.793,1.2,4.6,4.6,0,0,1,1.066,3.18v.1a5.036,5.036,0,0,1-.473,2.215,3.589,3.589,0,0,1-1.352,1.527,3.743,3.743,0,0,1-2.02.547,3.556,3.556,0,0,1-2.785-1.2A4.575,4.575,0,0,1,50.4,10.8Zm1.453.172a3.616,3.616,0,0,0,.652,2.258,2.211,2.211,0,0,0,3.5-.012,3.955,3.955,0,0,0,.648-2.418,3.61,3.61,0,0,0-.66-2.254,2.1,2.1,0,0,0-1.754-.863,2.075,2.075,0,0,0-1.727.852A3.925,3.925,0,0,0,51.852,10.867ZM63.992,7.844a4.331,4.331,0,0,0-.711-.055A1.9,1.9,0,0,0,61.352,9v6H59.906V6.547h1.406l.023.977a2.251,2.251,0,0,1,2.016-1.133,1.477,1.477,0,0,1,.641.109ZM70.227,15a3.036,3.036,0,0,1-.2-.891,3.225,3.225,0,0,1-2.406,1.047,2.984,2.984,0,0,1-2.051-.707,2.288,2.288,0,0,1-.8-1.793,2.39,2.39,0,0,1,1-2.051,4.733,4.733,0,0,1,2.824-.73H70V9.211A1.623,1.623,0,0,0,69.547,8a1.821,1.821,0,0,0-1.336-.449,2.108,2.108,0,0,0-1.3.391,1.151,1.151,0,0,0-.523.945H64.938a2,2,0,0,1,.449-1.223,3.066,3.066,0,0,1,1.219-.934A4.1,4.1,0,0,1,68.3,6.391a3.342,3.342,0,0,1,2.289.73,2.635,2.635,0,0,1,.859,2.012v3.891a4.757,4.757,0,0,0,.3,1.852V15Zm-2.4-1.1a2.54,2.54,0,0,0,1.289-.352A2.127,2.127,0,0,0,70,12.633V10.9H68.867q-2.656,0-2.656,1.555a1.316,1.316,0,0,0,.453,1.063A1.742,1.742,0,0,0,67.828,13.9ZM77.8,7.844a4.331,4.331,0,0,0-.711-.055A1.9,1.9,0,0,0,75.156,9v6H73.711V6.547h1.406l.023.977a2.251,2.251,0,0,1,2.016-1.133A1.477,1.477,0,0,1,77.8,6.5ZM84.656,15H83.211V3h1.445Zm7.531,0a3.036,3.036,0,0,1-.2-.891,3.225,3.225,0,0,1-2.406,1.047,2.984,2.984,0,0,1-2.051-.707,2.288,2.288,0,0,1-.8-1.793,2.39,2.39,0,0,1,1-2.051,4.733,4.733,0,0,1,2.824-.73h1.406V9.211A1.623,1.623,0,0,0,91.508,8a1.821,1.821,0,0,0-1.336-.449,2.108,2.108,0,0,0-1.3.391,1.151,1.151,0,0,0-.523.945H86.9a2,2,0,0,1,.449-1.223,3.066,3.066,0,0,1,1.219-.934,4.1,4.1,0,0,1,1.691-.344,3.342,3.342,0,0,1,2.289.73,2.635,2.635,0,0,1,.859,2.012v3.891a4.757,4.757,0,0,0,.3,1.852V15Zm-2.4-1.1a2.54,2.54,0,0,0,1.289-.352,2.127,2.127,0,0,0,.883-.914V10.9H90.828q-2.656,0-2.656,1.555a1.316,1.316,0,0,0,.453,1.063A1.742,1.742,0,0,0,89.789,13.9ZM12.16,39.156a3.693,3.693,0,0,1-2.8-1.129,4.19,4.19,0,0,1-1.078-3.02v-.266a5.073,5.073,0,0,1,.48-2.246,3.748,3.748,0,0,1,1.344-1.547,3.378,3.378,0,0,1,1.871-.559,3.166,3.166,0,0,1,2.563,1.086,4.7,4.7,0,0,1,.914,3.109v.6H9.73a3,3,0,0,0,.73,2.02,2.3,2.3,0,0,0,1.777.77,2.517,2.517,0,0,0,1.3-.312,3.258,3.258,0,0,0,.93-.828l.883.688A3.55,3.55,0,0,1,12.16,39.156Zm-.18-7.578a1.928,1.928,0,0,0-1.469.637A3.1,3.1,0,0,0,9.777,34h4.234v-.109a2.753,2.753,0,0,0-.594-1.707A1.815,1.815,0,0,0,11.98,31.578Zm7.984,2.055,1.875-3.086h1.688l-2.766,4.18L23.613,39H21.941l-1.953-3.164L18.035,39h-1.68l2.852-4.273-2.766-4.18h1.672ZM32.2,34.867a5.062,5.062,0,0,1-.883,3.109,2.829,2.829,0,0,1-2.391,1.18A3.1,3.1,0,0,1,26.5,38.18v4.07H25.059v-11.7h1.32l.07.938A2.977,2.977,0,0,1,28.9,30.391a2.882,2.882,0,0,1,2.41,1.148,5.117,5.117,0,0,1,.887,3.2ZM30.754,34.7a3.735,3.735,0,0,0-.609-2.258,1.963,1.963,0,0,0-1.672-.828A2.125,2.125,0,0,0,26.5,32.781V36.82a2.129,2.129,0,0,0,1.984,1.156,1.954,1.954,0,0,0,1.652-.824A4.077,4.077,0,0,0,30.754,34.7Zm6.789,4.453a3.693,3.693,0,0,1-2.8-1.129,4.19,4.19,0,0,1-1.078-3.02v-.266a5.073,5.073,0,0,1,.48-2.246,3.748,3.748,0,0,1,1.344-1.547,3.378,3.378,0,0,1,1.871-.559,3.166,3.166,0,0,1,2.563,1.086,4.7,4.7,0,0,1,.914,3.109v.6H35.113a3,3,0,0,0,.73,2.02,2.3,2.3,0,0,0,1.777.77,2.517,2.517,0,0,0,1.3-.312,3.258,3.258,0,0,0,.93-.828l.883.688A3.55,3.55,0,0,1,37.543,39.156Zm-.18-7.578a1.928,1.928,0,0,0-1.469.637A3.1,3.1,0,0,0,35.16,34h4.234v-.109a2.753,2.753,0,0,0-.594-1.707A1.815,1.815,0,0,0,37.363,31.578Zm9.234.266a4.331,4.331,0,0,0-.711-.055A1.9,1.9,0,0,0,43.957,33v6H42.512V30.547h1.406l.023.977a2.251,2.251,0,0,1,2.016-1.133,1.477,1.477,0,0,1,.641.109ZM49.5,39H48.051V30.547H49.5ZM47.934,28.3a.863.863,0,0,1,.215-.594.807.807,0,0,1,.637-.242.819.819,0,0,1,.641.242.854.854,0,0,1,.219.594.826.826,0,0,1-.219.586.834.834,0,0,1-.641.234.821.821,0,0,1-.637-.234A.834.834,0,0,1,47.934,28.3Zm7.383,10.852a3.693,3.693,0,0,1-2.8-1.129,4.19,4.19,0,0,1-1.078-3.02v-.266a5.073,5.073,0,0,1,.48-2.246,3.748,3.748,0,0,1,1.344-1.547,3.378,3.378,0,0,1,1.871-.559A3.166,3.166,0,0,1,57.7,31.477a4.7,4.7,0,0,1,.914,3.109v.6H52.887a3,3,0,0,0,.73,2.02,2.3,2.3,0,0,0,1.777.77,2.517,2.517,0,0,0,1.3-.312,3.258,3.258,0,0,0,.93-.828l.883.688A3.55,3.55,0,0,1,55.316,39.156Zm-.18-7.578a1.928,1.928,0,0,0-1.469.637A3.1,3.1,0,0,0,52.934,34h4.234v-.109a2.753,2.753,0,0,0-.594-1.707A1.815,1.815,0,0,0,55.137,31.578Zm6.516-1.031.047,1.063a3.08,3.08,0,0,1,2.531-1.219q2.68,0,2.7,3.023V39H65.488V33.406a1.946,1.946,0,0,0-.418-1.352,1.675,1.675,0,0,0-1.277-.437,2.086,2.086,0,0,0-1.234.375,2.546,2.546,0,0,0-.828.984V39H60.285V30.547ZM72.5,37.977a2.082,2.082,0,0,0,1.352-.469,1.649,1.649,0,0,0,.641-1.172h1.367a2.621,2.621,0,0,1-.5,1.383,3.293,3.293,0,0,1-1.23,1.047,3.55,3.55,0,0,1-1.629.391A3.482,3.482,0,0,1,69.758,38a4.59,4.59,0,0,1-1.02-3.152v-.242a5.089,5.089,0,0,1,.453-2.2,3.451,3.451,0,0,1,1.3-1.492,3.7,3.7,0,0,1,2-.531,3.39,3.39,0,0,1,2.363.852,3.043,3.043,0,0,1,1,2.211H74.5a1.992,1.992,0,0,0-.621-1.348,1.932,1.932,0,0,0-1.379-.527,2.023,2.023,0,0,0-1.707.793,3.724,3.724,0,0,0-.605,2.293v.273a3.65,3.65,0,0,0,.6,2.25A2.033,2.033,0,0,0,72.5,37.977ZM79.059,39H77.613V30.547h1.445ZM77.5,28.3a.863.863,0,0,1,.215-.594.807.807,0,0,1,.637-.242.819.819,0,0,1,.641.242.854.854,0,0,1,.219.594.826.826,0,0,1-.219.586.834.834,0,0,1-.641.234.821.821,0,0,1-.637-.234A.834.834,0,0,1,77.5,28.3ZM86.59,39a3.036,3.036,0,0,1-.2-.891,3.225,3.225,0,0,1-2.406,1.047,2.984,2.984,0,0,1-2.051-.707,2.288,2.288,0,0,1-.8-1.793,2.39,2.39,0,0,1,1-2.051,4.733,4.733,0,0,1,2.824-.73h1.406v-.664A1.623,1.623,0,0,0,85.91,32a1.821,1.821,0,0,0-1.336-.449,2.108,2.108,0,0,0-1.3.391,1.151,1.151,0,0,0-.523.945H81.3a2,2,0,0,1,.449-1.223,3.066,3.066,0,0,1,1.219-.934,4.1,4.1,0,0,1,1.691-.344,3.342,3.342,0,0,1,2.289.73,2.635,2.635,0,0,1,.859,2.012v3.891a4.757,4.757,0,0,0,.3,1.852V39Zm-2.4-1.1a2.54,2.54,0,0,0,1.289-.352,2.127,2.127,0,0,0,.883-.914V34.9H85.23q-2.656,0-2.656,1.555a1.316,1.316,0,0,0,.453,1.063A1.742,1.742,0,0,0,84.191,37.9Zm9.492-3.2a4.952,4.952,0,0,1,.922-3.129,3.137,3.137,0,0,1,4.766-.168V27h1.445V39H99.488l-.07-.906A2.943,2.943,0,0,1,97,39.156a2.887,2.887,0,0,1-2.395-1.2,5.008,5.008,0,0,1-.926-3.141Zm1.445.164a3.749,3.749,0,0,0,.594,2.25,1.92,1.92,0,0,0,1.641.813A2.108,2.108,0,0,0,99.371,36.7V32.813a2.125,2.125,0,0,0-1.992-1.2,1.929,1.929,0,0,0-1.656.82A4.128,4.128,0,0,0,95.129,34.867Zm11.438,4.289a3.693,3.693,0,0,1-2.8-1.129,4.19,4.19,0,0,1-1.078-3.02v-.266a5.073,5.073,0,0,1,.48-2.246,3.748,3.748,0,0,1,1.344-1.547,3.378,3.378,0,0,1,1.871-.559,3.166,3.166,0,0,1,2.563,1.086,4.7,4.7,0,0,1,.914,3.109v.6h-5.727a3,3,0,0,0,.73,2.02,2.3,2.3,0,0,0,1.777.77,2.517,2.517,0,0,0,1.3-.312,3.259,3.259,0,0,0,.93-.828l.883.688A3.55,3.55,0,0,1,106.566,39.156Zm-.18-7.578a1.928,1.928,0,0,0-1.469.637A3.1,3.1,0,0,0,104.184,34h4.234v-.109a2.753,2.753,0,0,0-.594-1.707A1.815,1.815,0,0,0,106.387,31.578ZM36.7,62.164a3.07,3.07,0,0,1-2.477.992,2.628,2.628,0,0,1-2.059-.785,3.4,3.4,0,0,1-.715-2.324v-5.5h1.445v5.461q0,1.922,1.563,1.922a2.163,2.163,0,0,0,2.2-1.234V54.547h1.445V63H36.73Zm8.523-1.406a1.064,1.064,0,0,0-.441-.91,4.249,4.249,0,0,0-1.539-.559,7.277,7.277,0,0,1-1.742-.562,2.479,2.479,0,0,1-.953-.781,1.869,1.869,0,0,1-.309-1.078,2.193,2.193,0,0,1,.879-1.758,3.432,3.432,0,0,1,2.246-.719,3.532,3.532,0,0,1,2.332.742,2.357,2.357,0,0,1,.895,1.9H45.137a1.3,1.3,0,0,0-.5-1.023,1.888,1.888,0,0,0-1.27-.43,1.976,1.976,0,0,0-1.234.344,1.082,1.082,0,0,0-.445.9.877.877,0,0,0,.414.789,5.1,5.1,0,0,0,1.5.508,7.8,7.8,0,0,1,1.754.578,2.558,2.558,0,0,1,1,.809,1.988,1.988,0,0,1,.324,1.152,2.163,2.163,0,0,1-.906,1.816,3.8,3.8,0,0,1-2.352.684,4.257,4.257,0,0,1-1.8-.359,2.922,2.922,0,0,1-1.223-1,2.42,2.42,0,0,1-.441-1.395h1.445a1.5,1.5,0,0,0,.582,1.152,2.258,2.258,0,0,0,1.434.426,2.331,2.331,0,0,0,1.316-.332A1.02,1.02,0,0,0,45.223,60.758Zm8.547,1.406a3.07,3.07,0,0,1-2.477.992,2.628,2.628,0,0,1-2.059-.785,3.4,3.4,0,0,1-.715-2.324v-5.5h1.445v5.461q0,1.922,1.563,1.922a2.163,2.163,0,0,0,2.2-1.234V54.547h1.445V63H53.8ZM62.59,63a3.036,3.036,0,0,1-.2-.891,3.225,3.225,0,0,1-2.406,1.047,2.984,2.984,0,0,1-2.051-.707,2.287,2.287,0,0,1-.8-1.793,2.39,2.39,0,0,1,1-2.051,4.733,4.733,0,0,1,2.824-.73h1.406v-.664A1.623,1.623,0,0,0,61.91,56a1.821,1.821,0,0,0-1.336-.449,2.107,2.107,0,0,0-1.3.391,1.151,1.151,0,0,0-.523.945H57.3a2,2,0,0,1,.449-1.223,3.066,3.066,0,0,1,1.219-.934,4.1,4.1,0,0,1,1.691-.344,3.342,3.342,0,0,1,2.289.73,2.635,2.635,0,0,1,.859,2.012v3.891a4.757,4.757,0,0,0,.3,1.852V63Zm-2.4-1.1a2.54,2.54,0,0,0,1.289-.352,2.127,2.127,0,0,0,.883-.914V58.9H61.23q-2.656,0-2.656,1.555a1.316,1.316,0,0,0,.453,1.063A1.742,1.742,0,0,0,60.191,61.9Zm9.969-6.055a4.331,4.331,0,0,0-.711-.055A1.9,1.9,0,0,0,67.52,57v6H66.074V54.547H67.48l.023.977a2.251,2.251,0,0,1,2.016-1.133,1.477,1.477,0,0,1,.641.109ZM73.059,63H71.613V54.547h1.445ZM71.5,52.3a.863.863,0,0,1,.215-.594.807.807,0,0,1,.637-.242.819.819,0,0,1,.641.242.854.854,0,0,1,.219.594.826.826,0,0,1-.219.586.834.834,0,0,1-.641.234.821.821,0,0,1-.637-.234A.834.834,0,0,1,71.5,52.3ZM74.988,58.7a4.993,4.993,0,0,1,.488-2.234,3.643,3.643,0,0,1,1.359-1.531,3.7,3.7,0,0,1,1.988-.539,3.565,3.565,0,0,1,2.793,1.2,4.6,4.6,0,0,1,1.066,3.18v.1a5.036,5.036,0,0,1-.473,2.215,3.589,3.589,0,0,1-1.352,1.527,3.743,3.743,0,0,1-2.02.547,3.556,3.556,0,0,1-2.785-1.2A4.575,4.575,0,0,1,74.988,58.8Zm1.453.172a3.616,3.616,0,0,0,.652,2.258,2.211,2.211,0,0,0,3.5-.012,3.955,3.955,0,0,0,.648-2.418,3.61,3.61,0,0,0-.66-2.254,2.1,2.1,0,0,0-1.754-.863,2.075,2.075,0,0,0-1.727.852A3.925,3.925,0,0,0,76.441,58.867Zm8.086,3.375a.905.905,0,0,1,.223-.625.848.848,0,0,1,.668-.25.874.874,0,0,1,.676.25.887.887,0,0,1,.23.625.839.839,0,0,1-.23.6.89.89,0,0,1-.676.242.8.8,0,0,1-.891-.844Z" transform="translate(851 8808.197)" fill="#12263f"/>
    <path id="Trazado_634281" data-name="Trazado 634281" d="M47.875,15H46.367V9.742H40.633V15h-1.5V3.625h1.5V8.516h5.734V3.625h1.508Zm7.656,0a3.036,3.036,0,0,1-.2-.891,3.225,3.225,0,0,1-2.406,1.047,2.984,2.984,0,0,1-2.051-.707,2.287,2.287,0,0,1-.8-1.793,2.39,2.39,0,0,1,1-2.051,4.733,4.733,0,0,1,2.824-.73H55.3V9.211A1.623,1.623,0,0,0,54.852,8a1.821,1.821,0,0,0-1.336-.449,2.107,2.107,0,0,0-1.3.391,1.151,1.151,0,0,0-.523.945H50.242a2,2,0,0,1,.449-1.223,3.066,3.066,0,0,1,1.219-.934A4.1,4.1,0,0,1,53.6,6.391a3.342,3.342,0,0,1,2.289.73,2.635,2.635,0,0,1,.859,2.012v3.891a4.757,4.757,0,0,0,.3,1.852V15Zm-2.4-1.1a2.54,2.54,0,0,0,1.289-.352,2.127,2.127,0,0,0,.883-.914V10.9H54.172q-2.656,0-2.656,1.555a1.316,1.316,0,0,0,.453,1.063A1.742,1.742,0,0,0,53.133,13.9Zm9.273.078a2.082,2.082,0,0,0,1.352-.469,1.649,1.649,0,0,0,.641-1.172h1.367a2.621,2.621,0,0,1-.5,1.383,3.293,3.293,0,0,1-1.23,1.047,3.55,3.55,0,0,1-1.629.391A3.482,3.482,0,0,1,59.66,14a4.59,4.59,0,0,1-1.02-3.152v-.242a5.089,5.089,0,0,1,.453-2.2,3.451,3.451,0,0,1,1.3-1.492,3.7,3.7,0,0,1,2-.531,3.39,3.39,0,0,1,2.363.852,3.043,3.043,0,0,1,1,2.211H64.4a1.992,1.992,0,0,0-.621-1.348A1.932,1.932,0,0,0,62.4,7.578a2.023,2.023,0,0,0-1.707.793,3.724,3.724,0,0,0-.605,2.293v.273a3.65,3.65,0,0,0,.6,2.25A2.033,2.033,0,0,0,62.406,13.977Zm8.492,1.18a3.693,3.693,0,0,1-2.8-1.129,4.19,4.19,0,0,1-1.078-3.02v-.266A5.073,5.073,0,0,1,67.5,8.5a3.748,3.748,0,0,1,1.344-1.547,3.378,3.378,0,0,1,1.871-.559,3.166,3.166,0,0,1,2.563,1.086,4.7,4.7,0,0,1,.914,3.109v.6H68.469a3,3,0,0,0,.73,2.02,2.3,2.3,0,0,0,1.777.77,2.517,2.517,0,0,0,1.3-.312,3.259,3.259,0,0,0,.93-.828l.883.688A3.55,3.55,0,0,1,70.9,15.156Zm-.18-7.578a1.928,1.928,0,0,0-1.469.637A3.1,3.1,0,0,0,68.516,10H72.75V9.891a2.753,2.753,0,0,0-.594-1.707A1.815,1.815,0,0,0,70.719,7.578Zm9.234.266a4.331,4.331,0,0,0-.711-.055A1.9,1.9,0,0,0,77.313,9v6H75.867V6.547h1.406l.023.977a2.251,2.251,0,0,1,2.016-1.133,1.477,1.477,0,0,1,.641.109ZM6.988,30.547l.039.938a3.122,3.122,0,0,1,2.508-1.094,2.417,2.417,0,0,1,2.414,1.359,3.2,3.2,0,0,1,1.1-.984,3.242,3.242,0,0,1,1.6-.375q2.781,0,2.828,2.945V39H16.027V33.422a1.941,1.941,0,0,0-.414-1.355,1.823,1.823,0,0,0-1.391-.449,1.916,1.916,0,0,0-1.336.48,1.949,1.949,0,0,0-.617,1.293V39H10.816V33.461a1.613,1.613,0,0,0-1.8-1.844,1.934,1.934,0,0,0-1.945,1.211V39H5.621V30.547ZM19.27,34.7a4.993,4.993,0,0,1,.488-2.234,3.643,3.643,0,0,1,1.359-1.531,3.7,3.7,0,0,1,1.988-.539,3.565,3.565,0,0,1,2.793,1.2,4.6,4.6,0,0,1,1.066,3.18v.1a5.036,5.036,0,0,1-.473,2.215,3.589,3.589,0,0,1-1.352,1.527,3.743,3.743,0,0,1-2.02.547,3.556,3.556,0,0,1-2.785-1.2A4.575,4.575,0,0,1,19.27,34.8Zm1.453.172a3.616,3.616,0,0,0,.652,2.258,2.211,2.211,0,0,0,3.5-.012A3.955,3.955,0,0,0,25.52,34.7a3.61,3.61,0,0,0-.66-2.254,2.1,2.1,0,0,0-1.754-.863,2.075,2.075,0,0,0-1.727.852A3.925,3.925,0,0,0,20.723,34.867Zm7.7-.164a4.952,4.952,0,0,1,.922-3.129,3.137,3.137,0,0,1,4.766-.168V27h1.445V39H34.23l-.07-.906a2.943,2.943,0,0,1-2.414,1.063,2.887,2.887,0,0,1-2.395-1.2,5.008,5.008,0,0,1-.926-3.141Zm1.445.164a3.749,3.749,0,0,0,.594,2.25,1.92,1.92,0,0,0,1.641.813A2.108,2.108,0,0,0,34.113,36.7V32.813a2.125,2.125,0,0,0-1.992-1.2,1.929,1.929,0,0,0-1.656.82A4.128,4.128,0,0,0,29.871,34.867ZM39.371,39H37.926V30.547h1.445ZM37.809,28.3a.863.863,0,0,1,.215-.594.807.807,0,0,1,.637-.242.819.819,0,0,1,.641.242.854.854,0,0,1,.219.594.826.826,0,0,1-.219.586.834.834,0,0,1-.641.234.821.821,0,0,1-.637-.234A.834.834,0,0,1,37.809,28.3ZM42.168,39V31.664H40.832V30.547h1.336v-.719a2.937,2.937,0,0,1,.809-2.2,3.136,3.136,0,0,1,2.285-.789,6.881,6.881,0,0,1,2.211.477l-.242,1.219a5.008,5.008,0,0,0-1.859-.391,1.819,1.819,0,0,0-1.34.418,1.723,1.723,0,0,0-.41,1.254v.734h1.727v1.117H43.621V39Zm6.023,0H46.738V30.547h1.453Zm5.742-1.023a2.082,2.082,0,0,0,1.352-.469,1.649,1.649,0,0,0,.641-1.172h1.367a2.621,2.621,0,0,1-.5,1.383,3.293,3.293,0,0,1-1.23,1.047,3.55,3.55,0,0,1-1.629.391A3.482,3.482,0,0,1,51.188,38a4.59,4.59,0,0,1-1.02-3.152v-.242a5.089,5.089,0,0,1,.453-2.2,3.451,3.451,0,0,1,1.3-1.492,3.7,3.7,0,0,1,2-.531,3.39,3.39,0,0,1,2.363.852,3.043,3.043,0,0,1,1,2.211H55.926a1.992,1.992,0,0,0-.621-1.348,1.932,1.932,0,0,0-1.379-.527,2.023,2.023,0,0,0-1.707.793,3.724,3.724,0,0,0-.605,2.293v.273a3.65,3.65,0,0,0,.6,2.25A2.033,2.033,0,0,0,53.934,37.977ZM64.137,39a3.036,3.036,0,0,1-.2-.891,3.225,3.225,0,0,1-2.406,1.047,2.984,2.984,0,0,1-2.051-.707,2.287,2.287,0,0,1-.8-1.793,2.39,2.39,0,0,1,1-2.051,4.733,4.733,0,0,1,2.824-.73H63.91v-.664A1.623,1.623,0,0,0,63.457,32a1.821,1.821,0,0,0-1.336-.449,2.107,2.107,0,0,0-1.3.391,1.151,1.151,0,0,0-.523.945H58.848a2,2,0,0,1,.449-1.223,3.066,3.066,0,0,1,1.219-.934,4.1,4.1,0,0,1,1.691-.344,3.342,3.342,0,0,1,2.289.73,2.635,2.635,0,0,1,.859,2.012v3.891a4.757,4.757,0,0,0,.3,1.852V39Zm-2.4-1.1a2.54,2.54,0,0,0,1.289-.352,2.127,2.127,0,0,0,.883-.914V34.9H62.777q-2.656,0-2.656,1.555a1.316,1.316,0,0,0,.453,1.063A1.742,1.742,0,0,0,61.738,37.9Zm9.273.078a2.082,2.082,0,0,0,1.352-.469A1.649,1.649,0,0,0,73,36.336h1.367a2.621,2.621,0,0,1-.5,1.383,3.293,3.293,0,0,1-1.23,1.047,3.55,3.55,0,0,1-1.629.391A3.482,3.482,0,0,1,68.266,38a4.59,4.59,0,0,1-1.02-3.152v-.242a5.089,5.089,0,0,1,.453-2.2A3.451,3.451,0,0,1,69,30.922a3.7,3.7,0,0,1,2-.531,3.39,3.39,0,0,1,2.363.852,3.043,3.043,0,0,1,1,2.211H73a1.992,1.992,0,0,0-.621-1.348A1.932,1.932,0,0,0,71,31.578a2.023,2.023,0,0,0-1.707.793,3.724,3.724,0,0,0-.605,2.293v.273a3.65,3.65,0,0,0,.6,2.25A2.033,2.033,0,0,0,71.012,37.977ZM77.566,39H76.121V30.547h1.445ZM76,28.3a.863.863,0,0,1,.215-.594.807.807,0,0,1,.637-.242.819.819,0,0,1,.641.242.854.854,0,0,1,.219.594.826.826,0,0,1-.219.586.834.834,0,0,1-.641.234.821.821,0,0,1-.637-.234A.834.834,0,0,1,76,28.3ZM79.5,34.7a4.993,4.993,0,0,1,.488-2.234,3.643,3.643,0,0,1,1.359-1.531,3.7,3.7,0,0,1,1.988-.539,3.565,3.565,0,0,1,2.793,1.2,4.6,4.6,0,0,1,1.066,3.18v.1a5.036,5.036,0,0,1-.473,2.215,3.589,3.589,0,0,1-1.352,1.527,3.743,3.743,0,0,1-2.02.547,3.556,3.556,0,0,1-2.785-1.2A4.575,4.575,0,0,1,79.5,34.8Zm1.453.172a3.616,3.616,0,0,0,.652,2.258,2.211,2.211,0,0,0,3.5-.012,3.955,3.955,0,0,0,.648-2.418,3.61,3.61,0,0,0-.66-2.254,2.1,2.1,0,0,0-1.754-.863,2.075,2.075,0,0,0-1.727.852A3.925,3.925,0,0,0,80.949,34.867Zm9.422-4.32.047,1.063a3.08,3.08,0,0,1,2.531-1.219q2.68,0,2.7,3.023V39H94.207V33.406a1.946,1.946,0,0,0-.418-1.352,1.675,1.675,0,0,0-1.277-.437,2.086,2.086,0,0,0-1.234.375,2.546,2.546,0,0,0-.828.984V39H89V30.547Zm10.969,8.609a3.693,3.693,0,0,1-2.8-1.129,4.19,4.19,0,0,1-1.078-3.02v-.266a5.073,5.073,0,0,1,.48-2.246,3.748,3.748,0,0,1,1.344-1.547,3.378,3.378,0,0,1,1.871-.559,3.166,3.166,0,0,1,2.563,1.086,4.7,4.7,0,0,1,.914,3.109v.6H98.91a3,3,0,0,0,.73,2.02,2.3,2.3,0,0,0,1.777.77,2.517,2.517,0,0,0,1.3-.312,3.259,3.259,0,0,0,.93-.828l.883.688A3.55,3.55,0,0,1,101.34,39.156Zm-.18-7.578a1.928,1.928,0,0,0-1.469.637A3.1,3.1,0,0,0,98.957,34h4.234v-.109a2.753,2.753,0,0,0-.594-1.707A1.815,1.815,0,0,0,101.16,31.578Zm10.07,5.18a1.064,1.064,0,0,0-.441-.91,4.249,4.249,0,0,0-1.539-.559,7.277,7.277,0,0,1-1.742-.562,2.479,2.479,0,0,1-.953-.781,1.869,1.869,0,0,1-.309-1.078,2.193,2.193,0,0,1,.879-1.758,3.432,3.432,0,0,1,2.246-.719,3.532,3.532,0,0,1,2.332.742,2.357,2.357,0,0,1,.895,1.9h-1.453a1.3,1.3,0,0,0-.5-1.023,1.888,1.888,0,0,0-1.27-.43,1.976,1.976,0,0,0-1.234.344,1.082,1.082,0,0,0-.445.9.877.877,0,0,0,.414.789,5.1,5.1,0,0,0,1.5.508,7.8,7.8,0,0,1,1.754.578,2.558,2.558,0,0,1,1,.809,1.988,1.988,0,0,1,.324,1.152,2.163,2.163,0,0,1-.906,1.816,3.8,3.8,0,0,1-2.352.684,4.257,4.257,0,0,1-1.8-.359,2.922,2.922,0,0,1-1.223-1,2.42,2.42,0,0,1-.441-1.395H107.4a1.5,1.5,0,0,0,.582,1.152,2.258,2.258,0,0,0,1.434.426,2.331,2.331,0,0,0,1.316-.332A1.02,1.02,0,0,0,111.23,36.758ZM30.5,63.156a3.693,3.693,0,0,1-2.8-1.129,4.19,4.19,0,0,1-1.078-3.02v-.266a5.073,5.073,0,0,1,.48-2.246,3.748,3.748,0,0,1,1.344-1.547,3.378,3.378,0,0,1,1.871-.559,3.166,3.166,0,0,1,2.563,1.086,4.7,4.7,0,0,1,.914,3.109v.6H28.074a3,3,0,0,0,.73,2.02,2.3,2.3,0,0,0,1.777.77,2.517,2.517,0,0,0,1.3-.312,3.258,3.258,0,0,0,.93-.828l.883.688A3.55,3.55,0,0,1,30.5,63.156Zm-.18-7.578a1.928,1.928,0,0,0-1.469.637A3.1,3.1,0,0,0,28.121,58h4.234v-.109a2.753,2.753,0,0,0-.594-1.707A1.815,1.815,0,0,0,30.324,55.578Zm10.07,5.18a1.064,1.064,0,0,0-.441-.91,4.249,4.249,0,0,0-1.539-.559,7.277,7.277,0,0,1-1.742-.562,2.479,2.479,0,0,1-.953-.781,1.869,1.869,0,0,1-.309-1.078,2.193,2.193,0,0,1,.879-1.758,3.432,3.432,0,0,1,2.246-.719,3.532,3.532,0,0,1,2.332.742,2.357,2.357,0,0,1,.895,1.9H40.309a1.3,1.3,0,0,0-.5-1.023,1.888,1.888,0,0,0-1.27-.43,1.976,1.976,0,0,0-1.234.344,1.082,1.082,0,0,0-.445.9.877.877,0,0,0,.414.789,5.1,5.1,0,0,0,1.5.508,7.8,7.8,0,0,1,1.754.578,2.558,2.558,0,0,1,1,.809,1.988,1.988,0,0,1,.324,1.152,2.163,2.163,0,0,1-.906,1.816,3.8,3.8,0,0,1-2.352.684,4.257,4.257,0,0,1-1.8-.359,2.922,2.922,0,0,1-1.223-1,2.42,2.42,0,0,1-.441-1.395h1.445a1.5,1.5,0,0,0,.582,1.152,2.258,2.258,0,0,0,1.434.426,2.331,2.331,0,0,0,1.316-.332A1.02,1.02,0,0,0,40.395,60.758ZM52.9,63a3.036,3.036,0,0,1-.2-.891,3.225,3.225,0,0,1-2.406,1.047,2.984,2.984,0,0,1-2.051-.707,2.287,2.287,0,0,1-.8-1.793,2.39,2.39,0,0,1,1-2.051,4.733,4.733,0,0,1,2.824-.73h1.406v-.664A1.623,1.623,0,0,0,52.223,56a1.821,1.821,0,0,0-1.336-.449,2.107,2.107,0,0,0-1.3.391,1.151,1.151,0,0,0-.523.945H47.613a2,2,0,0,1,.449-1.223,3.066,3.066,0,0,1,1.219-.934,4.1,4.1,0,0,1,1.691-.344,3.342,3.342,0,0,1,2.289.73,2.635,2.635,0,0,1,.859,2.012v3.891a4.757,4.757,0,0,0,.3,1.852V63Zm-2.4-1.1a2.54,2.54,0,0,0,1.289-.352,2.127,2.127,0,0,0,.883-.914V58.9H51.543q-2.656,0-2.656,1.555a1.316,1.316,0,0,0,.453,1.063A1.742,1.742,0,0,0,50.5,61.9ZM57.957,63H56.512V51h1.445ZM62.23,52.5v2.047h1.578v1.117H62.23v5.249a1.173,1.173,0,0,0,.211.763.888.888,0,0,0,.719.254,3.5,3.5,0,0,0,.688-.094V63a4.215,4.215,0,0,1-1.109.155,1.8,1.8,0,0,1-1.461-.586,2.517,2.517,0,0,1-.492-1.664V55.664H59.246V54.547h1.539V52.5ZM69,63.156a3.693,3.693,0,0,1-2.8-1.129,4.19,4.19,0,0,1-1.078-3.02v-.266a5.073,5.073,0,0,1,.48-2.246,3.748,3.748,0,0,1,1.344-1.547,3.378,3.378,0,0,1,1.871-.559,3.166,3.166,0,0,1,2.563,1.086,4.7,4.7,0,0,1,.914,3.109v.6H66.574a3,3,0,0,0,.73,2.02,2.3,2.3,0,0,0,1.777.77,2.517,2.517,0,0,0,1.3-.312,3.259,3.259,0,0,0,.93-.828l.883.688A3.55,3.55,0,0,1,69,63.156Zm-.18-7.578a1.928,1.928,0,0,0-1.469.637A3.1,3.1,0,0,0,66.621,58h4.234v-.109a2.753,2.753,0,0,0-.594-1.707A1.815,1.815,0,0,0,68.824,55.578Zm9.234.266a4.331,4.331,0,0,0-.711-.055A1.9,1.9,0,0,0,75.418,57v6H73.973V54.547h1.406l.023.977a2.251,2.251,0,0,1,2.016-1.133,1.477,1.477,0,0,1,.641.109ZM84.293,63a3.036,3.036,0,0,1-.2-.891,3.225,3.225,0,0,1-2.406,1.047,2.984,2.984,0,0,1-2.051-.707,2.288,2.288,0,0,1-.8-1.793,2.39,2.39,0,0,1,1-2.051,4.733,4.733,0,0,1,2.824-.73h1.406v-.664A1.623,1.623,0,0,0,83.613,56a1.821,1.821,0,0,0-1.336-.449,2.107,2.107,0,0,0-1.3.391,1.151,1.151,0,0,0-.523.945H79a2,2,0,0,1,.449-1.223,3.066,3.066,0,0,1,1.219-.934,4.1,4.1,0,0,1,1.691-.344,3.342,3.342,0,0,1,2.289.73,2.635,2.635,0,0,1,.859,2.012v3.891a4.757,4.757,0,0,0,.3,1.852V63Zm-2.4-1.1a2.54,2.54,0,0,0,1.289-.352,2.127,2.127,0,0,0,.883-.914V58.9H82.934q-2.656,0-2.656,1.555a1.316,1.316,0,0,0,.453,1.063A1.742,1.742,0,0,0,81.895,61.9Zm9.969-6.055a4.331,4.331,0,0,0-.711-.055A1.9,1.9,0,0,0,89.223,57v6H87.777V54.547h1.406l.023.977a2.251,2.251,0,0,1,2.016-1.133,1.477,1.477,0,0,1,.641.109ZM33,85.977a2.082,2.082,0,0,0,1.352-.469,1.649,1.649,0,0,0,.641-1.172h1.367a2.621,2.621,0,0,1-.5,1.383,3.293,3.293,0,0,1-1.23,1.047A3.55,3.55,0,0,1,33,87.156,3.482,3.482,0,0,1,30.254,86a4.59,4.59,0,0,1-1.02-3.152v-.242a5.089,5.089,0,0,1,.453-2.2,3.451,3.451,0,0,1,1.3-1.492,3.7,3.7,0,0,1,2-.531,3.39,3.39,0,0,1,2.363.852,3.043,3.043,0,0,1,1,2.211H34.992a1.992,1.992,0,0,0-.621-1.348,1.932,1.932,0,0,0-1.379-.527,2.023,2.023,0,0,0-1.707.793,3.724,3.724,0,0,0-.605,2.293v.273a3.65,3.65,0,0,0,.6,2.25A2.033,2.033,0,0,0,33,85.977ZM37.6,82.7a4.993,4.993,0,0,1,.488-2.234,3.642,3.642,0,0,1,1.359-1.531,3.7,3.7,0,0,1,1.988-.539,3.565,3.565,0,0,1,2.793,1.2,4.6,4.6,0,0,1,1.066,3.18v.1a5.036,5.036,0,0,1-.473,2.215,3.589,3.589,0,0,1-1.352,1.527,3.743,3.743,0,0,1-2.02.547,3.556,3.556,0,0,1-2.785-1.2A4.575,4.575,0,0,1,37.6,82.8Zm1.453.172a3.616,3.616,0,0,0,.652,2.258,2.211,2.211,0,0,0,3.5-.012,3.955,3.955,0,0,0,.648-2.418,3.61,3.61,0,0,0-.66-2.254,2.1,2.1,0,0,0-1.754-.863,2.075,2.075,0,0,0-1.727.852A3.925,3.925,0,0,0,39.055,82.867ZM42.094,75h1.75L41.75,77.3l-1.164,0Zm4.664,7.7a4.952,4.952,0,0,1,.922-3.129,3.137,3.137,0,0,1,4.766-.168V75h1.445V87H52.563l-.07-.906a2.943,2.943,0,0,1-2.414,1.063,2.887,2.887,0,0,1-2.395-1.2,5.008,5.008,0,0,1-.926-3.141Zm1.445.164a3.749,3.749,0,0,0,.594,2.25,1.92,1.92,0,0,0,1.641.813A2.109,2.109,0,0,0,52.445,84.7V80.813a2.125,2.125,0,0,0-1.992-1.2,1.929,1.929,0,0,0-1.656.82A4.128,4.128,0,0,0,48.2,82.867ZM57.7,87H56.258V78.547H57.7ZM56.141,76.3a.863.863,0,0,1,.215-.594.807.807,0,0,1,.637-.242.819.819,0,0,1,.641.242.854.854,0,0,1,.219.594.826.826,0,0,1-.219.586.834.834,0,0,1-.641.234.821.821,0,0,1-.637-.234A.834.834,0,0,1,56.141,76.3Zm3.531,6.4a4.968,4.968,0,0,1,.914-3.145,3.151,3.151,0,0,1,4.836-.074l.07-.937h1.32V86.8a3.439,3.439,0,0,1-.973,2.586,3.589,3.589,0,0,1-2.613.945,4.348,4.348,0,0,1-1.789-.391,3.08,3.08,0,0,1-1.336-1.07l.75-.867a2.826,2.826,0,0,0,2.273,1.148,2.214,2.214,0,0,0,1.645-.594,2.269,2.269,0,0,0,.59-1.672v-.727a2.971,2.971,0,0,1-2.367,1,2.887,2.887,0,0,1-2.4-1.2A5.224,5.224,0,0,1,59.672,82.7Zm1.453.164a3.79,3.79,0,0,0,.586,2.246,1.9,1.9,0,0,0,1.641.816,2.117,2.117,0,0,0,2.008-1.242V80.828a2.142,2.142,0,0,0-1.992-1.211,1.921,1.921,0,0,0-1.648.82A4.128,4.128,0,0,0,61.125,82.867Zm7.484-.172a4.993,4.993,0,0,1,.488-2.234,3.643,3.643,0,0,1,1.359-1.531,3.7,3.7,0,0,1,1.988-.539,3.565,3.565,0,0,1,2.793,1.2,4.6,4.6,0,0,1,1.066,3.18v.1a5.036,5.036,0,0,1-.473,2.215,3.589,3.589,0,0,1-1.352,1.527,3.743,3.743,0,0,1-2.02.547,3.556,3.556,0,0,1-2.785-1.2A4.575,4.575,0,0,1,68.609,82.8Zm1.453.172a3.616,3.616,0,0,0,.652,2.258,2.211,2.211,0,0,0,3.5-.012,3.955,3.955,0,0,0,.648-2.418,3.61,3.61,0,0,0-.66-2.254,2.1,2.1,0,0,0-1.754-.863,2.075,2.075,0,0,0-1.727.852A3.925,3.925,0,0,0,70.063,82.867Zm12.977,1.891a1.064,1.064,0,0,0-.441-.91,4.249,4.249,0,0,0-1.539-.559,7.277,7.277,0,0,1-1.742-.562,2.478,2.478,0,0,1-.953-.781,1.869,1.869,0,0,1-.309-1.078,2.193,2.193,0,0,1,.879-1.758,3.432,3.432,0,0,1,2.246-.719,3.532,3.532,0,0,1,2.332.742,2.357,2.357,0,0,1,.895,1.9H82.953a1.3,1.3,0,0,0-.5-1.023,1.888,1.888,0,0,0-1.27-.43,1.976,1.976,0,0,0-1.234.344,1.082,1.082,0,0,0-.445.9.877.877,0,0,0,.414.789,5.1,5.1,0,0,0,1.5.508,7.8,7.8,0,0,1,1.754.578,2.559,2.559,0,0,1,1,.809,1.988,1.988,0,0,1,.324,1.152,2.163,2.163,0,0,1-.906,1.816,3.8,3.8,0,0,1-2.352.684,4.257,4.257,0,0,1-1.8-.359,2.922,2.922,0,0,1-1.223-1,2.42,2.42,0,0,1-.441-1.395h1.445a1.5,1.5,0,0,0,.582,1.152,2.258,2.258,0,0,0,1.434.426,2.331,2.331,0,0,0,1.316-.332A1.02,1.02,0,0,0,83.039,84.758ZM86.4,86.242a.905.905,0,0,1,.223-.625.848.848,0,0,1,.668-.25.874.874,0,0,1,.676.25.887.887,0,0,1,.23.625.839.839,0,0,1-.23.6.89.89,0,0,1-.676.242.8.8,0,0,1-.891-.844Z" transform="translate(1066 8797.498)" fill="#12263f"/>
  </g>
</svg>
