<svg xmlns="http://www.w3.org/2000/svg" xmlns:xlink="http://www.w3.org/1999/xlink" width="150" height="150" viewBox="0 0 150 150">
  <defs>
    <filter id="Elipse_6633" x="0" y="0" width="150" height="150" filterUnits="userSpaceOnUse">
      <feOffset dy="3" input="SourceAlpha"/>
      <feGaussianBlur stdDeviation="3" result="blur"/>
      <feFlood flood-opacity="0.161"/>
      <feComposite operator="in" in2="blur"/>
      <feComposite in="SourceGraphic"/>
    </filter>
  </defs>
  <g id="Grupo_1034306" data-name="Grupo 1034306" transform="translate(-1082.828 -791.919)">
    <g id="Grupo_881015" data-name="Grupo 881015">
      <g transform="matrix(1, 0, 0, 1, 1082.83, 791.92)" filter="url(#Elipse_6633)">
        <circle id="Elipse_6633-2" data-name="Elipse 6633" cx="66" cy="66" r="66" transform="translate(9 6)" fill="#b6e1fd"/>
      </g>
      <g id="Grupo_878889" data-name="Grupo 878889" transform="translate(1124 824.114)">
        <g id="Grupo_878888" data-name="Grupo 878888">
          <path id="Trazado_628049" data-name="Trazado 628049" d="M62.652,44.407H60.64V42.394A6.044,6.044,0,0,0,54.6,36.357H36.357V32.332h6.037a2.012,2.012,0,1,0,0-4.025H40.382V24.283h6.037a6.044,6.044,0,0,0,6.037-6.037V6.037A6.044,6.044,0,0,0,46.419,0H22.27a6.044,6.044,0,0,0-6.037,6.037V18.246a6.044,6.044,0,0,0,6.037,6.037h6.037v4.025H26.3a2.012,2.012,0,0,0,0,4.025h6.037v4.025H14.087A6.044,6.044,0,0,0,8.05,42.394v2.012H6.037A6.044,6.044,0,0,0,0,50.444v4.025a6.044,6.044,0,0,0,6.037,6.037H8.05v4.159H6.037a2.012,2.012,0,1,0,0,4.025h8.05a2.012,2.012,0,1,0,0-4.025H12.074V60.506h2.012a6.044,6.044,0,0,0,6.037-6.037V50.444a6.044,6.044,0,0,0-6.037-6.037H12.074V42.394a2.015,2.015,0,0,1,2.012-2.012H32.332v4.025H30.32a6.044,6.044,0,0,0-6.037,6.037v4.025a6.044,6.044,0,0,0,6.037,6.037h2.012v4.159H30.32a2.012,2.012,0,1,0,0,4.025h8.05a2.012,2.012,0,1,0,0-4.025H36.357V60.506h2.012a6.044,6.044,0,0,0,6.037-6.037V50.444a6.044,6.044,0,0,0-6.037-6.037H36.357V40.382H54.6a2.015,2.015,0,0,1,2.012,2.012v2.012H54.6a6.044,6.044,0,0,0-6.037,6.037v4.025A6.044,6.044,0,0,0,54.6,60.506h2.012v4.159H54.6a2.012,2.012,0,1,0,0,4.025h8.05a2.012,2.012,0,1,0,0-4.025H60.64V60.506h2.012a6.044,6.044,0,0,0,6.037-6.037V50.444A6.044,6.044,0,0,0,62.652,44.407ZM14.087,48.431A2.015,2.015,0,0,1,16.1,50.444v4.025a2.015,2.015,0,0,1-2.012,2.012H6.037a2.015,2.015,0,0,1-2.012-2.012V50.444a2.015,2.015,0,0,1,2.012-2.012ZM22.27,20.258a2.015,2.015,0,0,1-2.012-2.012V6.037A2.015,2.015,0,0,1,22.27,4.025H46.419a2.015,2.015,0,0,1,2.012,2.012V18.246a2.015,2.015,0,0,1-2.012,2.012Zm16.1,28.173a2.015,2.015,0,0,1,2.012,2.012v4.025a2.015,2.015,0,0,1-2.012,2.012H30.32a2.015,2.015,0,0,1-2.012-2.012V50.444a2.015,2.015,0,0,1,2.012-2.012ZM32.332,28.308V24.283h4.025v4.025ZM64.665,54.469a2.015,2.015,0,0,1-2.012,2.012H54.6a2.015,2.015,0,0,1-2.012-2.012V50.444A2.015,2.015,0,0,1,54.6,48.431h8.05a2.015,2.015,0,0,1,2.012,2.012Z" fill="#12263f"/>
        </g>
      </g>
    </g>
  </g>
</svg>
