<svg xmlns="http://www.w3.org/2000/svg" xmlns:xlink="http://www.w3.org/1999/xlink" width="150" height="150" viewBox="0 0 150 150">
  <defs>
    <filter id="Elipse_6667" x="0" y="0" width="150" height="150" filterUnits="userSpaceOnUse">
      <feOffset dy="3" input="SourceAlpha"/>
      <feGaussianBlur stdDeviation="3" result="blur"/>
      <feFlood flood-opacity="0.161"/>
      <feComposite operator="in" in2="blur"/>
      <feComposite in="SourceGraphic"/>
    </filter>
  </defs>
  <g id="Grupo_1034309" data-name="Grupo 1034309" transform="translate(5922.354 10908.081)">
    <g transform="matrix(1, 0, 0, 1, -5922.35, -10908.08)" filter="url(#Elipse_6667)">
      <circle id="Elipse_6667-2" data-name="Elipse 6667" cx="66" cy="66" r="66" transform="translate(9 6)" fill="#b6e1fd"/>
    </g>
    <path id="Trazado_628054" data-name="Trazado 628054" d="M97.18,89.783V63.352A4.956,4.956,0,0,0,92.224,58.4H62.489a4.956,4.956,0,0,0-4.956,4.956V89.783a4.956,4.956,0,0,0,4.956,4.956H92.224A4.956,4.956,0,0,0,97.18,89.783ZM38.395,86.509l8.231,8.23h2.648a4.946,4.946,0,0,0,4-2.03L43.9,83.337a1.651,1.651,0,0,0-2.336,0ZM17.4,94.256a4.928,4.928,0,0,0,2.136.483H41.952L30.6,83.39a1.653,1.653,0,0,0-2.336,0ZM15.066,91.92,25.931,81.054a4.956,4.956,0,0,1,7.009,0l3.119,3.118L39.23,81a4.956,4.956,0,0,1,7.009,0l7.991,7.991V63.352A4.956,4.956,0,0,0,49.273,58.4H19.539a4.956,4.956,0,0,0-4.956,4.956V89.783a4.943,4.943,0,0,0,.483,2.137ZM86.492,77.968a1.652,1.652,0,0,0,0-2.8l-13.216-8.26a1.652,1.652,0,0,0-2.527,1.4V84.827a1.651,1.651,0,0,0,2.527,1.4Zm-57.041-1.4a6.608,6.608,0,1,0-6.607-6.608A6.611,6.611,0,0,0,29.45,76.568ZM59.185,55.092V43.529a4.956,4.956,0,0,1,4.956-4.956H75.7V23.706a4.956,4.956,0,0,0-4.956-4.956H41.014a4.956,4.956,0,0,0-4.956,4.956V50.136a4.956,4.956,0,0,0,4.956,4.956ZM74.737,41.877h-10.6a1.652,1.652,0,0,0-1.652,1.652v10.6Zm-30.419,0h9.912a1.652,1.652,0,1,0,0-3.3H44.318a1.652,1.652,0,0,0,0,3.3Zm0-6.608H67.445a1.652,1.652,0,0,0,0-3.3H44.318a1.652,1.652,0,0,0,0,3.3Zm0-6.607H67.445a1.652,1.652,0,0,0,0-3.3H44.318a1.652,1.652,0,0,0,0,3.3Z" transform="translate(-5903.235 -10897.75)" fill="#12263f" fill-rule="evenodd"/>
  </g>
</svg>
